solid ASCII
  facet normal 0.000000e+00 1.000000e+00 -0.000000e+00
    outer loop
      vertex   1.905000e+01 -1.138645e+01 4.079055e+00
      vertex   9.050000e+00 -1.138645e+01 4.079055e+00
      vertex   1.905000e+01 -1.138645e+01 2.947906e+01
    endloop
  endfacet
  facet normal 0.000000e+00 1.000000e+00 0.000000e+00
    outer loop
      vertex   1.905000e+01 -1.138645e+01 2.947906e+01
      vertex   9.050000e+00 -1.138645e+01 4.079055e+00
      vertex   9.050000e+00 -1.138645e+01 2.947906e+01
    endloop
  endfacet
  facet normal 0.000000e+00 -1.000000e+00 0.000000e+00
    outer loop
      vertex   9.050000e+00 1.260635e+01 4.079055e+00
      vertex   1.905000e+01 1.260635e+01 4.079055e+00
      vertex   9.050000e+00 1.260635e+01 2.947906e+01
    endloop
  endfacet
  facet normal 0.000000e+00 -1.000000e+00 0.000000e+00
    outer loop
      vertex   9.050000e+00 1.260635e+01 2.947906e+01
      vertex   1.905000e+01 1.260635e+01 4.079055e+00
      vertex   1.905000e+01 1.260635e+01 2.947906e+01
    endloop
  endfacet
  facet normal 1.000000e+00 0.000000e+00 0.000000e+00
    outer loop
      vertex   9.050000e+00 -1.138645e+01 4.079055e+00
      vertex   9.050000e+00 1.260635e+01 4.079055e+00
      vertex   9.050000e+00 -1.138645e+01 2.947906e+01
    endloop
  endfacet
  facet normal 1.000000e+00 -0.000000e+00 0.000000e+00
    outer loop
      vertex   9.050000e+00 -1.138645e+01 2.947906e+01
      vertex   9.050000e+00 1.260635e+01 4.079055e+00
      vertex   9.050000e+00 1.260635e+01 2.947906e+01
    endloop
  endfacet
  facet normal 1.000000e+00 0.000000e+00 0.000000e+00
    outer loop
      vertex   1.905000e+01 1.260635e+01 4.079055e+00
      vertex   1.905000e+01 1.593041e+01 1.707457e+01
      vertex   1.905000e+01 1.260635e+01 2.947906e+01
    endloop
  endfacet
  facet normal 1.000000e+00 0.000000e+00 0.000000e+00
    outer loop
      vertex   1.905000e+01 1.260635e+01 2.947906e+01
      vertex   1.905000e+01 1.593041e+01 1.707457e+01
      vertex   1.905000e+01 1.613255e+01 1.762995e+01
    endloop
  endfacet
  facet normal 1.000000e+00 0.000000e+00 0.000000e+00
    outer loop
      vertex   1.905000e+01 1.260635e+01 2.947906e+01
      vertex   1.905000e+01 1.613255e+01 1.762995e+01
      vertex   1.905000e+01 1.651246e+01 1.808271e+01
    endloop
  endfacet
  facet normal 1.000000e+00 0.000000e+00 0.000000e+00
    outer loop
      vertex   1.905000e+01 2.260635e+01 4.079055e+00
      vertex   1.905000e+01 1.760635e+01 1.507725e+01
      vertex   1.905000e+01 1.260635e+01 4.079055e+00
    endloop
  endfacet
  facet normal 1.000000e+00 0.000000e+00 0.000000e+00
    outer loop
      vertex   1.905000e+01 1.260635e+01 4.079055e+00
      vertex   1.905000e+01 1.760635e+01 1.507725e+01
      vertex   1.905000e+01 1.702430e+01 1.517989e+01
    endloop
  endfacet
  facet normal 1.000000e+00 0.000000e+00 0.000000e+00
    outer loop
      vertex   1.905000e+01 1.260635e+01 4.079055e+00
      vertex   1.905000e+01 1.702430e+01 1.517989e+01
      vertex   1.905000e+01 1.651246e+01 1.547540e+01
    endloop
  endfacet
  facet normal 1.000000e+00 0.000000e+00 0.000000e+00
    outer loop
      vertex   1.905000e+01 2.260635e+01 2.947906e+01
      vertex   1.905000e+01 1.928230e+01 1.648354e+01
      vertex   1.905000e+01 2.260635e+01 4.079055e+00
    endloop
  endfacet
  facet normal 1.000000e+00 0.000000e+00 0.000000e+00
    outer loop
      vertex   1.905000e+01 2.260635e+01 4.079055e+00
      vertex   1.905000e+01 1.928230e+01 1.648354e+01
      vertex   1.905000e+01 1.908015e+01 1.592816e+01
    endloop
  endfacet
  facet normal 1.000000e+00 0.000000e+00 0.000000e+00
    outer loop
      vertex   1.905000e+01 2.260635e+01 4.079055e+00
      vertex   1.905000e+01 1.908015e+01 1.592816e+01
      vertex   1.905000e+01 1.870025e+01 1.547540e+01
    endloop
  endfacet
  facet normal 1.000000e+00 -0.000000e+00 0.000000e+00
    outer loop
      vertex   1.905000e+01 1.260635e+01 2.947906e+01
      vertex   1.905000e+01 1.760635e+01 1.848086e+01
      vertex   1.905000e+01 2.260635e+01 2.947906e+01
    endloop
  endfacet
  facet normal 1.000000e+00 0.000000e+00 0.000000e+00
    outer loop
      vertex   1.905000e+01 2.260635e+01 2.947906e+01
      vertex   1.905000e+01 1.760635e+01 1.848086e+01
      vertex   1.905000e+01 1.818840e+01 1.837822e+01
    endloop
  endfacet
  facet normal 1.000000e+00 0.000000e+00 0.000000e+00
    outer loop
      vertex   1.905000e+01 2.260635e+01 2.947906e+01
      vertex   1.905000e+01 1.818840e+01 1.837822e+01
      vertex   1.905000e+01 1.870025e+01 1.808271e+01
    endloop
  endfacet
  facet normal 1.000000e+00 0.000000e+00 0.000000e+00
    outer loop
      vertex   1.905000e+01 1.651246e+01 1.547540e+01
      vertex   1.905000e+01 1.613255e+01 1.592816e+01
      vertex   1.905000e+01 1.260635e+01 4.079055e+00
    endloop
  endfacet
  facet normal 1.000000e+00 0.000000e+00 0.000000e+00
    outer loop
      vertex   1.905000e+01 1.260635e+01 4.079055e+00
      vertex   1.905000e+01 1.613255e+01 1.592816e+01
      vertex   1.905000e+01 1.593041e+01 1.648354e+01
    endloop
  endfacet
  facet normal 1.000000e+00 0.000000e+00 0.000000e+00
    outer loop
      vertex   1.905000e+01 1.260635e+01 4.079055e+00
      vertex   1.905000e+01 1.593041e+01 1.648354e+01
      vertex   1.905000e+01 1.593041e+01 1.707457e+01
    endloop
  endfacet
  facet normal 1.000000e+00 0.000000e+00 -0.000000e+00
    outer loop
      vertex   1.905000e+01 1.651246e+01 1.808271e+01
      vertex   1.905000e+01 1.702430e+01 1.837822e+01
      vertex   1.905000e+01 1.260635e+01 2.947906e+01
    endloop
  endfacet
  facet normal 1.000000e+00 0.000000e+00 0.000000e+00
    outer loop
      vertex   1.905000e+01 1.260635e+01 2.947906e+01
      vertex   1.905000e+01 1.702430e+01 1.837822e+01
      vertex   1.905000e+01 1.760635e+01 1.848086e+01
    endloop
  endfacet
  facet normal 1.000000e+00 -0.000000e+00 0.000000e+00
    outer loop
      vertex   1.905000e+01 1.870025e+01 1.808271e+01
      vertex   1.905000e+01 1.908015e+01 1.762995e+01
      vertex   1.905000e+01 2.260635e+01 2.947906e+01
    endloop
  endfacet
  facet normal 1.000000e+00 0.000000e+00 0.000000e+00
    outer loop
      vertex   1.905000e+01 2.260635e+01 2.947906e+01
      vertex   1.905000e+01 1.908015e+01 1.762995e+01
      vertex   1.905000e+01 1.928230e+01 1.707457e+01
    endloop
  endfacet
  facet normal 1.000000e+00 0.000000e+00 0.000000e+00
    outer loop
      vertex   1.905000e+01 2.260635e+01 2.947906e+01
      vertex   1.905000e+01 1.928230e+01 1.707457e+01
      vertex   1.905000e+01 1.928230e+01 1.648354e+01
    endloop
  endfacet
  facet normal 1.000000e+00 0.000000e+00 0.000000e+00
    outer loop
      vertex   1.905000e+01 1.870025e+01 1.547540e+01
      vertex   1.905000e+01 1.818840e+01 1.517989e+01
      vertex   1.905000e+01 2.260635e+01 4.079055e+00
    endloop
  endfacet
  facet normal 1.000000e+00 0.000000e+00 0.000000e+00
    outer loop
      vertex   1.905000e+01 2.260635e+01 4.079055e+00
      vertex   1.905000e+01 1.818840e+01 1.517989e+01
      vertex   1.905000e+01 1.760635e+01 1.507725e+01
    endloop
  endfacet
  facet normal 1.000000e+00 0.000000e+00 0.000000e+00
    outer loop
      vertex   1.905000e+01 -1.138645e+01 2.947906e+01
      vertex   1.905000e+01 -1.471050e+01 1.648354e+01
      vertex   1.905000e+01 -1.138645e+01 4.079055e+00
    endloop
  endfacet
  facet normal 1.000000e+00 0.000000e+00 0.000000e+00
    outer loop
      vertex   1.905000e+01 -1.138645e+01 4.079055e+00
      vertex   1.905000e+01 -1.471050e+01 1.648354e+01
      vertex   1.905000e+01 -1.491265e+01 1.592816e+01
    endloop
  endfacet
  facet normal 1.000000e+00 0.000000e+00 0.000000e+00
    outer loop
      vertex   1.905000e+01 -1.138645e+01 4.079055e+00
      vertex   1.905000e+01 -1.491265e+01 1.592816e+01
      vertex   1.905000e+01 -1.529255e+01 1.547540e+01
    endloop
  endfacet
  facet normal 1.000000e+00 -0.000000e+00 0.000000e+00
    outer loop
      vertex   1.905000e+01 -2.138645e+01 2.947906e+01
      vertex   1.905000e+01 -1.638645e+01 1.848086e+01
      vertex   1.905000e+01 -1.138645e+01 2.947906e+01
    endloop
  endfacet
  facet normal 1.000000e+00 0.000000e+00 0.000000e+00
    outer loop
      vertex   1.905000e+01 -1.138645e+01 2.947906e+01
      vertex   1.905000e+01 -1.638645e+01 1.848086e+01
      vertex   1.905000e+01 -1.580440e+01 1.837822e+01
    endloop
  endfacet
  facet normal 1.000000e+00 0.000000e+00 0.000000e+00
    outer loop
      vertex   1.905000e+01 -1.138645e+01 2.947906e+01
      vertex   1.905000e+01 -1.580440e+01 1.837822e+01
      vertex   1.905000e+01 -1.529255e+01 1.808271e+01
    endloop
  endfacet
  facet normal 1.000000e+00 0.000000e+00 0.000000e+00
    outer loop
      vertex   1.905000e+01 -2.138645e+01 4.079055e+00
      vertex   1.905000e+01 -1.806239e+01 1.707457e+01
      vertex   1.905000e+01 -2.138645e+01 2.947906e+01
    endloop
  endfacet
  facet normal 1.000000e+00 0.000000e+00 0.000000e+00
    outer loop
      vertex   1.905000e+01 -2.138645e+01 2.947906e+01
      vertex   1.905000e+01 -1.806239e+01 1.707457e+01
      vertex   1.905000e+01 -1.786025e+01 1.762995e+01
    endloop
  endfacet
  facet normal 1.000000e+00 0.000000e+00 0.000000e+00
    outer loop
      vertex   1.905000e+01 -2.138645e+01 2.947906e+01
      vertex   1.905000e+01 -1.786025e+01 1.762995e+01
      vertex   1.905000e+01 -1.748034e+01 1.808271e+01
    endloop
  endfacet
  facet normal 1.000000e+00 0.000000e+00 0.000000e+00
    outer loop
      vertex   1.905000e+01 -1.138645e+01 4.079055e+00
      vertex   1.905000e+01 -1.638645e+01 1.507725e+01
      vertex   1.905000e+01 -2.138645e+01 4.079055e+00
    endloop
  endfacet
  facet normal 1.000000e+00 0.000000e+00 0.000000e+00
    outer loop
      vertex   1.905000e+01 -2.138645e+01 4.079055e+00
      vertex   1.905000e+01 -1.638645e+01 1.507725e+01
      vertex   1.905000e+01 -1.696850e+01 1.517989e+01
    endloop
  endfacet
  facet normal 1.000000e+00 0.000000e+00 0.000000e+00
    outer loop
      vertex   1.905000e+01 -2.138645e+01 4.079055e+00
      vertex   1.905000e+01 -1.696850e+01 1.517989e+01
      vertex   1.905000e+01 -1.748034e+01 1.547540e+01
    endloop
  endfacet
  facet normal 1.000000e+00 0.000000e+00 0.000000e+00
    outer loop
      vertex   1.905000e+01 -1.748034e+01 1.547540e+01
      vertex   1.905000e+01 -1.786025e+01 1.592816e+01
      vertex   1.905000e+01 -2.138645e+01 4.079055e+00
    endloop
  endfacet
  facet normal 1.000000e+00 0.000000e+00 0.000000e+00
    outer loop
      vertex   1.905000e+01 -2.138645e+01 4.079055e+00
      vertex   1.905000e+01 -1.786025e+01 1.592816e+01
      vertex   1.905000e+01 -1.806239e+01 1.648354e+01
    endloop
  endfacet
  facet normal 1.000000e+00 0.000000e+00 0.000000e+00
    outer loop
      vertex   1.905000e+01 -2.138645e+01 4.079055e+00
      vertex   1.905000e+01 -1.806239e+01 1.648354e+01
      vertex   1.905000e+01 -1.806239e+01 1.707457e+01
    endloop
  endfacet
  facet normal 1.000000e+00 0.000000e+00 -0.000000e+00
    outer loop
      vertex   1.905000e+01 -1.748034e+01 1.808271e+01
      vertex   1.905000e+01 -1.696850e+01 1.837822e+01
      vertex   1.905000e+01 -2.138645e+01 2.947906e+01
    endloop
  endfacet
  facet normal 1.000000e+00 0.000000e+00 0.000000e+00
    outer loop
      vertex   1.905000e+01 -2.138645e+01 2.947906e+01
      vertex   1.905000e+01 -1.696850e+01 1.837822e+01
      vertex   1.905000e+01 -1.638645e+01 1.848086e+01
    endloop
  endfacet
  facet normal 1.000000e+00 -0.000000e+00 0.000000e+00
    outer loop
      vertex   1.905000e+01 -1.529255e+01 1.808271e+01
      vertex   1.905000e+01 -1.491265e+01 1.762995e+01
      vertex   1.905000e+01 -1.138645e+01 2.947906e+01
    endloop
  endfacet
  facet normal 1.000000e+00 0.000000e+00 0.000000e+00
    outer loop
      vertex   1.905000e+01 -1.138645e+01 2.947906e+01
      vertex   1.905000e+01 -1.491265e+01 1.762995e+01
      vertex   1.905000e+01 -1.471050e+01 1.707457e+01
    endloop
  endfacet
  facet normal 1.000000e+00 0.000000e+00 0.000000e+00
    outer loop
      vertex   1.905000e+01 -1.138645e+01 2.947906e+01
      vertex   1.905000e+01 -1.471050e+01 1.707457e+01
      vertex   1.905000e+01 -1.471050e+01 1.648354e+01
    endloop
  endfacet
  facet normal 1.000000e+00 0.000000e+00 0.000000e+00
    outer loop
      vertex   1.905000e+01 -1.529255e+01 1.547540e+01
      vertex   1.905000e+01 -1.580440e+01 1.517989e+01
      vertex   1.905000e+01 -1.138645e+01 4.079055e+00
    endloop
  endfacet
  facet normal 1.000000e+00 0.000000e+00 0.000000e+00
    outer loop
      vertex   1.905000e+01 -1.138645e+01 4.079055e+00
      vertex   1.905000e+01 -1.580440e+01 1.517989e+01
      vertex   1.905000e+01 -1.638645e+01 1.507725e+01
    endloop
  endfacet
  facet normal 0.000000e+00 0.000000e+00 1.000000e+00
    outer loop
      vertex   1.905000e+01 -1.138645e+01 2.947906e+01
      vertex   9.050000e+00 -1.138645e+01 2.947906e+01
      vertex   1.905000e+01 -2.138645e+01 2.947906e+01
    endloop
  endfacet
  facet normal 0.000000e+00 0.000000e+00 1.000000e+00
    outer loop
      vertex   1.905000e+01 -2.138645e+01 2.947906e+01
      vertex   9.050000e+00 -1.138645e+01 2.947906e+01
      vertex   0.000000e+00 -2.138645e+01 2.947906e+01
    endloop
  endfacet
  facet normal 0.000000e+00 0.000000e+00 1.000000e+00
    outer loop
      vertex   0.000000e+00 -2.138645e+01 2.947906e+01
      vertex   9.050000e+00 -1.138645e+01 2.947906e+01
      vertex   9.050000e+00 1.260635e+01 2.947906e+01
    endloop
  endfacet
  facet normal 0.000000e+00 0.000000e+00 1.000000e+00
    outer loop
      vertex   0.000000e+00 -2.138645e+01 2.947906e+01
      vertex   9.050000e+00 1.260635e+01 2.947906e+01
      vertex   0.000000e+00 2.260635e+01 2.947906e+01
    endloop
  endfacet
  facet normal -0.000000e+00 0.000000e+00 1.000000e+00
    outer loop
      vertex   0.000000e+00 2.260635e+01 2.947906e+01
      vertex   9.050000e+00 1.260635e+01 2.947906e+01
      vertex   1.905000e+01 2.260635e+01 2.947906e+01
    endloop
  endfacet
  facet normal 0.000000e+00 0.000000e+00 1.000000e+00
    outer loop
      vertex   1.905000e+01 2.260635e+01 2.947906e+01
      vertex   9.050000e+00 1.260635e+01 2.947906e+01
      vertex   1.905000e+01 1.260635e+01 2.947906e+01
    endloop
  endfacet
  facet normal 0.000000e+00 -1.736481e-01 -9.848078e-01
    outer loop
      vertex   0.000000e+00 1.818840e+01 1.837822e+01
      vertex   1.905000e+01 1.818840e+01 1.837822e+01
      vertex   0.000000e+00 1.760635e+01 1.848086e+01
    endloop
  endfacet
  facet normal 0.000000e+00 -1.736481e-01 -9.848078e-01
    outer loop
      vertex   0.000000e+00 1.760635e+01 1.848086e+01
      vertex   1.905000e+01 1.818840e+01 1.837822e+01
      vertex   1.905000e+01 1.760635e+01 1.848086e+01
    endloop
  endfacet
  facet normal 0.000000e+00 1.736477e-01 -9.848078e-01
    outer loop
      vertex   0.000000e+00 1.760635e+01 1.848086e+01
      vertex   1.905000e+01 1.760635e+01 1.848086e+01
      vertex   0.000000e+00 1.702430e+01 1.837822e+01
    endloop
  endfacet
  facet normal 0.000000e+00 1.736477e-01 -9.848078e-01
    outer loop
      vertex   0.000000e+00 1.702430e+01 1.837822e+01
      vertex   1.905000e+01 1.760635e+01 1.848086e+01
      vertex   1.905000e+01 1.702430e+01 1.837822e+01
    endloop
  endfacet
  facet normal 0.000000e+00 5.000004e-01 -8.660252e-01
    outer loop
      vertex   0.000000e+00 1.702430e+01 1.837822e+01
      vertex   1.905000e+01 1.702430e+01 1.837822e+01
      vertex   0.000000e+00 1.651246e+01 1.808271e+01
    endloop
  endfacet
  facet normal 0.000000e+00 5.000004e-01 -8.660252e-01
    outer loop
      vertex   0.000000e+00 1.651246e+01 1.808271e+01
      vertex   1.905000e+01 1.702430e+01 1.837822e+01
      vertex   1.905000e+01 1.651246e+01 1.808271e+01
    endloop
  endfacet
  facet normal 0.000000e+00 7.660448e-01 -6.427872e-01
    outer loop
      vertex   0.000000e+00 1.651246e+01 1.808271e+01
      vertex   1.905000e+01 1.651246e+01 1.808271e+01
      vertex   0.000000e+00 1.613255e+01 1.762995e+01
    endloop
  endfacet
  facet normal 0.000000e+00 7.660448e-01 -6.427872e-01
    outer loop
      vertex   0.000000e+00 1.613255e+01 1.762995e+01
      vertex   1.905000e+01 1.651246e+01 1.808271e+01
      vertex   1.905000e+01 1.613255e+01 1.762995e+01
    endloop
  endfacet
  facet normal 0.000000e+00 9.396923e-01 -3.420211e-01
    outer loop
      vertex   0.000000e+00 1.613255e+01 1.762995e+01
      vertex   1.905000e+01 1.613255e+01 1.762995e+01
      vertex   0.000000e+00 1.593041e+01 1.707457e+01
    endloop
  endfacet
  facet normal 0.000000e+00 9.396923e-01 -3.420211e-01
    outer loop
      vertex   0.000000e+00 1.593041e+01 1.707457e+01
      vertex   1.905000e+01 1.613255e+01 1.762995e+01
      vertex   1.905000e+01 1.593041e+01 1.707457e+01
    endloop
  endfacet
  facet normal -0.000000e+00 1.000000e+00 0.000000e+00
    outer loop
      vertex   0.000000e+00 1.593041e+01 1.707457e+01
      vertex   1.905000e+01 1.593041e+01 1.707457e+01
      vertex   0.000000e+00 1.593041e+01 1.648354e+01
    endloop
  endfacet
  facet normal 0.000000e+00 1.000000e+00 0.000000e+00
    outer loop
      vertex   0.000000e+00 1.593041e+01 1.648354e+01
      vertex   1.905000e+01 1.593041e+01 1.707457e+01
      vertex   1.905000e+01 1.593041e+01 1.648354e+01
    endloop
  endfacet
  facet normal -0.000000e+00 9.396923e-01 3.420211e-01
    outer loop
      vertex   0.000000e+00 1.593041e+01 1.648354e+01
      vertex   1.905000e+01 1.593041e+01 1.648354e+01
      vertex   0.000000e+00 1.613255e+01 1.592816e+01
    endloop
  endfacet
  facet normal -0.000000e+00 9.396923e-01 3.420211e-01
    outer loop
      vertex   0.000000e+00 1.613255e+01 1.592816e+01
      vertex   1.905000e+01 1.593041e+01 1.648354e+01
      vertex   1.905000e+01 1.613255e+01 1.592816e+01
    endloop
  endfacet
  facet normal -0.000000e+00 7.660448e-01 6.427872e-01
    outer loop
      vertex   0.000000e+00 1.613255e+01 1.592816e+01
      vertex   1.905000e+01 1.613255e+01 1.592816e+01
      vertex   0.000000e+00 1.651246e+01 1.547540e+01
    endloop
  endfacet
  facet normal -0.000000e+00 7.660448e-01 6.427872e-01
    outer loop
      vertex   0.000000e+00 1.651246e+01 1.547540e+01
      vertex   1.905000e+01 1.613255e+01 1.592816e+01
      vertex   1.905000e+01 1.651246e+01 1.547540e+01
    endloop
  endfacet
  facet normal -0.000000e+00 5.000004e-01 8.660252e-01
    outer loop
      vertex   0.000000e+00 1.651246e+01 1.547540e+01
      vertex   1.905000e+01 1.651246e+01 1.547540e+01
      vertex   0.000000e+00 1.702430e+01 1.517989e+01
    endloop
  endfacet
  facet normal -0.000000e+00 5.000004e-01 8.660252e-01
    outer loop
      vertex   0.000000e+00 1.702430e+01 1.517989e+01
      vertex   1.905000e+01 1.651246e+01 1.547540e+01
      vertex   1.905000e+01 1.702430e+01 1.517989e+01
    endloop
  endfacet
  facet normal -0.000000e+00 1.736477e-01 9.848078e-01
    outer loop
      vertex   0.000000e+00 1.702430e+01 1.517989e+01
      vertex   1.905000e+01 1.702430e+01 1.517989e+01
      vertex   0.000000e+00 1.760635e+01 1.507725e+01
    endloop
  endfacet
  facet normal -0.000000e+00 1.736477e-01 9.848078e-01
    outer loop
      vertex   0.000000e+00 1.760635e+01 1.507725e+01
      vertex   1.905000e+01 1.702430e+01 1.517989e+01
      vertex   1.905000e+01 1.760635e+01 1.507725e+01
    endloop
  endfacet
  facet normal 0.000000e+00 -1.736481e-01 9.848078e-01
    outer loop
      vertex   0.000000e+00 1.760635e+01 1.507725e+01
      vertex   1.905000e+01 1.760635e+01 1.507725e+01
      vertex   0.000000e+00 1.818840e+01 1.517989e+01
    endloop
  endfacet
  facet normal 0.000000e+00 -1.736481e-01 9.848078e-01
    outer loop
      vertex   0.000000e+00 1.818840e+01 1.517989e+01
      vertex   1.905000e+01 1.760635e+01 1.507725e+01
      vertex   1.905000e+01 1.818840e+01 1.517989e+01
    endloop
  endfacet
  facet normal 0.000000e+00 -5.000004e-01 8.660252e-01
    outer loop
      vertex   0.000000e+00 1.818840e+01 1.517989e+01
      vertex   1.905000e+01 1.818840e+01 1.517989e+01
      vertex   0.000000e+00 1.870025e+01 1.547540e+01
    endloop
  endfacet
  facet normal 0.000000e+00 -5.000004e-01 8.660252e-01
    outer loop
      vertex   0.000000e+00 1.870025e+01 1.547540e+01
      vertex   1.905000e+01 1.818840e+01 1.517989e+01
      vertex   1.905000e+01 1.870025e+01 1.547540e+01
    endloop
  endfacet
  facet normal 0.000000e+00 -7.660448e-01 6.427872e-01
    outer loop
      vertex   0.000000e+00 1.870025e+01 1.547540e+01
      vertex   1.905000e+01 1.870025e+01 1.547540e+01
      vertex   0.000000e+00 1.908015e+01 1.592816e+01
    endloop
  endfacet
  facet normal 0.000000e+00 -7.660448e-01 6.427872e-01
    outer loop
      vertex   0.000000e+00 1.908015e+01 1.592816e+01
      vertex   1.905000e+01 1.870025e+01 1.547540e+01
      vertex   1.905000e+01 1.908015e+01 1.592816e+01
    endloop
  endfacet
  facet normal 0.000000e+00 -9.396923e-01 3.420211e-01
    outer loop
      vertex   0.000000e+00 1.908015e+01 1.592816e+01
      vertex   1.905000e+01 1.908015e+01 1.592816e+01
      vertex   0.000000e+00 1.928230e+01 1.648354e+01
    endloop
  endfacet
  facet normal 0.000000e+00 -9.396923e-01 3.420211e-01
    outer loop
      vertex   0.000000e+00 1.928230e+01 1.648354e+01
      vertex   1.905000e+01 1.908015e+01 1.592816e+01
      vertex   1.905000e+01 1.928230e+01 1.648354e+01
    endloop
  endfacet
  facet normal 0.000000e+00 -1.000000e+00 0.000000e+00
    outer loop
      vertex   0.000000e+00 1.928230e+01 1.648354e+01
      vertex   1.905000e+01 1.928230e+01 1.648354e+01
      vertex   0.000000e+00 1.928230e+01 1.707457e+01
    endloop
  endfacet
  facet normal 0.000000e+00 -1.000000e+00 0.000000e+00
    outer loop
      vertex   0.000000e+00 1.928230e+01 1.707457e+01
      vertex   1.905000e+01 1.928230e+01 1.648354e+01
      vertex   1.905000e+01 1.928230e+01 1.707457e+01
    endloop
  endfacet
  facet normal 0.000000e+00 -9.396923e-01 -3.420211e-01
    outer loop
      vertex   0.000000e+00 1.928230e+01 1.707457e+01
      vertex   1.905000e+01 1.928230e+01 1.707457e+01
      vertex   0.000000e+00 1.908015e+01 1.762995e+01
    endloop
  endfacet
  facet normal 0.000000e+00 -9.396923e-01 -3.420211e-01
    outer loop
      vertex   0.000000e+00 1.908015e+01 1.762995e+01
      vertex   1.905000e+01 1.928230e+01 1.707457e+01
      vertex   1.905000e+01 1.908015e+01 1.762995e+01
    endloop
  endfacet
  facet normal 0.000000e+00 -7.660448e-01 -6.427872e-01
    outer loop
      vertex   0.000000e+00 1.908015e+01 1.762995e+01
      vertex   1.905000e+01 1.908015e+01 1.762995e+01
      vertex   0.000000e+00 1.870025e+01 1.808271e+01
    endloop
  endfacet
  facet normal 0.000000e+00 -7.660448e-01 -6.427872e-01
    outer loop
      vertex   0.000000e+00 1.870025e+01 1.808271e+01
      vertex   1.905000e+01 1.908015e+01 1.762995e+01
      vertex   1.905000e+01 1.870025e+01 1.808271e+01
    endloop
  endfacet
  facet normal 0.000000e+00 -5.000004e-01 -8.660252e-01
    outer loop
      vertex   0.000000e+00 1.870025e+01 1.808271e+01
      vertex   1.905000e+01 1.870025e+01 1.808271e+01
      vertex   0.000000e+00 1.818840e+01 1.837822e+01
    endloop
  endfacet
  facet normal 0.000000e+00 -5.000004e-01 -8.660252e-01
    outer loop
      vertex   0.000000e+00 1.818840e+01 1.837822e+01
      vertex   1.905000e+01 1.870025e+01 1.808271e+01
      vertex   1.905000e+01 1.818840e+01 1.837822e+01
    endloop
  endfacet
  facet normal 0.000000e+00 -1.736477e-01 -9.848078e-01
    outer loop
      vertex   0.000000e+00 -1.580440e+01 1.837822e+01
      vertex   1.905000e+01 -1.580440e+01 1.837822e+01
      vertex   0.000000e+00 -1.638645e+01 1.848086e+01
    endloop
  endfacet
  facet normal 0.000000e+00 -1.736477e-01 -9.848078e-01
    outer loop
      vertex   0.000000e+00 -1.638645e+01 1.848086e+01
      vertex   1.905000e+01 -1.580440e+01 1.837822e+01
      vertex   1.905000e+01 -1.638645e+01 1.848086e+01
    endloop
  endfacet
  facet normal 0.000000e+00 1.736477e-01 -9.848078e-01
    outer loop
      vertex   0.000000e+00 -1.638645e+01 1.848086e+01
      vertex   1.905000e+01 -1.638645e+01 1.848086e+01
      vertex   0.000000e+00 -1.696850e+01 1.837822e+01
    endloop
  endfacet
  facet normal 0.000000e+00 1.736477e-01 -9.848078e-01
    outer loop
      vertex   0.000000e+00 -1.696850e+01 1.837822e+01
      vertex   1.905000e+01 -1.638645e+01 1.848086e+01
      vertex   1.905000e+01 -1.696850e+01 1.837822e+01
    endloop
  endfacet
  facet normal 0.000000e+00 5.000013e-01 -8.660247e-01
    outer loop
      vertex   0.000000e+00 -1.696850e+01 1.837822e+01
      vertex   1.905000e+01 -1.696850e+01 1.837822e+01
      vertex   0.000000e+00 -1.748034e+01 1.808271e+01
    endloop
  endfacet
  facet normal 0.000000e+00 5.000013e-01 -8.660247e-01
    outer loop
      vertex   0.000000e+00 -1.748034e+01 1.808271e+01
      vertex   1.905000e+01 -1.696850e+01 1.837822e+01
      vertex   1.905000e+01 -1.748034e+01 1.808271e+01
    endloop
  endfacet
  facet normal 0.000000e+00 7.660448e-01 -6.427872e-01
    outer loop
      vertex   0.000000e+00 -1.748034e+01 1.808271e+01
      vertex   1.905000e+01 -1.748034e+01 1.808271e+01
      vertex   0.000000e+00 -1.786025e+01 1.762995e+01
    endloop
  endfacet
  facet normal 0.000000e+00 7.660448e-01 -6.427872e-01
    outer loop
      vertex   0.000000e+00 -1.786025e+01 1.762995e+01
      vertex   1.905000e+01 -1.748034e+01 1.808271e+01
      vertex   1.905000e+01 -1.786025e+01 1.762995e+01
    endloop
  endfacet
  facet normal 0.000000e+00 9.396923e-01 -3.420211e-01
    outer loop
      vertex   0.000000e+00 -1.786025e+01 1.762995e+01
      vertex   1.905000e+01 -1.786025e+01 1.762995e+01
      vertex   0.000000e+00 -1.806239e+01 1.707457e+01
    endloop
  endfacet
  facet normal 0.000000e+00 9.396923e-01 -3.420211e-01
    outer loop
      vertex   0.000000e+00 -1.806239e+01 1.707457e+01
      vertex   1.905000e+01 -1.786025e+01 1.762995e+01
      vertex   1.905000e+01 -1.806239e+01 1.707457e+01
    endloop
  endfacet
  facet normal -0.000000e+00 1.000000e+00 0.000000e+00
    outer loop
      vertex   0.000000e+00 -1.806239e+01 1.707457e+01
      vertex   1.905000e+01 -1.806239e+01 1.707457e+01
      vertex   0.000000e+00 -1.806239e+01 1.648354e+01
    endloop
  endfacet
  facet normal 0.000000e+00 1.000000e+00 0.000000e+00
    outer loop
      vertex   0.000000e+00 -1.806239e+01 1.648354e+01
      vertex   1.905000e+01 -1.806239e+01 1.707457e+01
      vertex   1.905000e+01 -1.806239e+01 1.648354e+01
    endloop
  endfacet
  facet normal -0.000000e+00 9.396923e-01 3.420211e-01
    outer loop
      vertex   0.000000e+00 -1.806239e+01 1.648354e+01
      vertex   1.905000e+01 -1.806239e+01 1.648354e+01
      vertex   0.000000e+00 -1.786025e+01 1.592816e+01
    endloop
  endfacet
  facet normal -0.000000e+00 9.396923e-01 3.420211e-01
    outer loop
      vertex   0.000000e+00 -1.786025e+01 1.592816e+01
      vertex   1.905000e+01 -1.806239e+01 1.648354e+01
      vertex   1.905000e+01 -1.786025e+01 1.592816e+01
    endloop
  endfacet
  facet normal -0.000000e+00 7.660448e-01 6.427872e-01
    outer loop
      vertex   0.000000e+00 -1.786025e+01 1.592816e+01
      vertex   1.905000e+01 -1.786025e+01 1.592816e+01
      vertex   0.000000e+00 -1.748034e+01 1.547540e+01
    endloop
  endfacet
  facet normal -0.000000e+00 7.660448e-01 6.427872e-01
    outer loop
      vertex   0.000000e+00 -1.748034e+01 1.547540e+01
      vertex   1.905000e+01 -1.786025e+01 1.592816e+01
      vertex   1.905000e+01 -1.748034e+01 1.547540e+01
    endloop
  endfacet
  facet normal -0.000000e+00 5.000013e-01 8.660247e-01
    outer loop
      vertex   0.000000e+00 -1.748034e+01 1.547540e+01
      vertex   1.905000e+01 -1.748034e+01 1.547540e+01
      vertex   0.000000e+00 -1.696850e+01 1.517989e+01
    endloop
  endfacet
  facet normal -0.000000e+00 5.000013e-01 8.660247e-01
    outer loop
      vertex   0.000000e+00 -1.696850e+01 1.517989e+01
      vertex   1.905000e+01 -1.748034e+01 1.547540e+01
      vertex   1.905000e+01 -1.696850e+01 1.517989e+01
    endloop
  endfacet
  facet normal -0.000000e+00 1.736477e-01 9.848078e-01
    outer loop
      vertex   0.000000e+00 -1.696850e+01 1.517989e+01
      vertex   1.905000e+01 -1.696850e+01 1.517989e+01
      vertex   0.000000e+00 -1.638645e+01 1.507725e+01
    endloop
  endfacet
  facet normal -0.000000e+00 1.736477e-01 9.848078e-01
    outer loop
      vertex   0.000000e+00 -1.638645e+01 1.507725e+01
      vertex   1.905000e+01 -1.696850e+01 1.517989e+01
      vertex   1.905000e+01 -1.638645e+01 1.507725e+01
    endloop
  endfacet
  facet normal 0.000000e+00 -1.736477e-01 9.848078e-01
    outer loop
      vertex   0.000000e+00 -1.638645e+01 1.507725e+01
      vertex   1.905000e+01 -1.638645e+01 1.507725e+01
      vertex   0.000000e+00 -1.580440e+01 1.517989e+01
    endloop
  endfacet
  facet normal 0.000000e+00 -1.736477e-01 9.848078e-01
    outer loop
      vertex   0.000000e+00 -1.580440e+01 1.517989e+01
      vertex   1.905000e+01 -1.638645e+01 1.507725e+01
      vertex   1.905000e+01 -1.580440e+01 1.517989e+01
    endloop
  endfacet
  facet normal 0.000000e+00 -5.000004e-01 8.660252e-01
    outer loop
      vertex   0.000000e+00 -1.580440e+01 1.517989e+01
      vertex   1.905000e+01 -1.580440e+01 1.517989e+01
      vertex   0.000000e+00 -1.529255e+01 1.547540e+01
    endloop
  endfacet
  facet normal 0.000000e+00 -5.000004e-01 8.660252e-01
    outer loop
      vertex   0.000000e+00 -1.529255e+01 1.547540e+01
      vertex   1.905000e+01 -1.580440e+01 1.517989e+01
      vertex   1.905000e+01 -1.529255e+01 1.547540e+01
    endloop
  endfacet
  facet normal 0.000000e+00 -7.660448e-01 6.427872e-01
    outer loop
      vertex   0.000000e+00 -1.529255e+01 1.547540e+01
      vertex   1.905000e+01 -1.529255e+01 1.547540e+01
      vertex   0.000000e+00 -1.491265e+01 1.592816e+01
    endloop
  endfacet
  facet normal 0.000000e+00 -7.660448e-01 6.427872e-01
    outer loop
      vertex   0.000000e+00 -1.491265e+01 1.592816e+01
      vertex   1.905000e+01 -1.529255e+01 1.547540e+01
      vertex   1.905000e+01 -1.491265e+01 1.592816e+01
    endloop
  endfacet
  facet normal 0.000000e+00 -9.396923e-01 3.420211e-01
    outer loop
      vertex   0.000000e+00 -1.491265e+01 1.592816e+01
      vertex   1.905000e+01 -1.491265e+01 1.592816e+01
      vertex   0.000000e+00 -1.471050e+01 1.648354e+01
    endloop
  endfacet
  facet normal 0.000000e+00 -9.396923e-01 3.420211e-01
    outer loop
      vertex   0.000000e+00 -1.471050e+01 1.648354e+01
      vertex   1.905000e+01 -1.491265e+01 1.592816e+01
      vertex   1.905000e+01 -1.471050e+01 1.648354e+01
    endloop
  endfacet
  facet normal 0.000000e+00 -1.000000e+00 0.000000e+00
    outer loop
      vertex   0.000000e+00 -1.471050e+01 1.648354e+01
      vertex   1.905000e+01 -1.471050e+01 1.648354e+01
      vertex   0.000000e+00 -1.471050e+01 1.707457e+01
    endloop
  endfacet
  facet normal 0.000000e+00 -1.000000e+00 0.000000e+00
    outer loop
      vertex   0.000000e+00 -1.471050e+01 1.707457e+01
      vertex   1.905000e+01 -1.471050e+01 1.648354e+01
      vertex   1.905000e+01 -1.471050e+01 1.707457e+01
    endloop
  endfacet
  facet normal 0.000000e+00 -9.396923e-01 -3.420211e-01
    outer loop
      vertex   0.000000e+00 -1.471050e+01 1.707457e+01
      vertex   1.905000e+01 -1.471050e+01 1.707457e+01
      vertex   0.000000e+00 -1.491265e+01 1.762995e+01
    endloop
  endfacet
  facet normal 0.000000e+00 -9.396923e-01 -3.420211e-01
    outer loop
      vertex   0.000000e+00 -1.491265e+01 1.762995e+01
      vertex   1.905000e+01 -1.471050e+01 1.707457e+01
      vertex   1.905000e+01 -1.491265e+01 1.762995e+01
    endloop
  endfacet
  facet normal 0.000000e+00 -7.660448e-01 -6.427872e-01
    outer loop
      vertex   0.000000e+00 -1.491265e+01 1.762995e+01
      vertex   1.905000e+01 -1.491265e+01 1.762995e+01
      vertex   0.000000e+00 -1.529255e+01 1.808271e+01
    endloop
  endfacet
  facet normal 0.000000e+00 -7.660448e-01 -6.427872e-01
    outer loop
      vertex   0.000000e+00 -1.529255e+01 1.808271e+01
      vertex   1.905000e+01 -1.491265e+01 1.762995e+01
      vertex   1.905000e+01 -1.529255e+01 1.808271e+01
    endloop
  endfacet
  facet normal 0.000000e+00 -5.000004e-01 -8.660252e-01
    outer loop
      vertex   0.000000e+00 -1.529255e+01 1.808271e+01
      vertex   1.905000e+01 -1.529255e+01 1.808271e+01
      vertex   0.000000e+00 -1.580440e+01 1.837822e+01
    endloop
  endfacet
  facet normal 0.000000e+00 -5.000004e-01 -8.660252e-01
    outer loop
      vertex   0.000000e+00 -1.580440e+01 1.837822e+01
      vertex   1.905000e+01 -1.529255e+01 1.808271e+01
      vertex   1.905000e+01 -1.580440e+01 1.837822e+01
    endloop
  endfacet
  facet normal 0.000000e+00 1.000000e+00 0.000000e+00
    outer loop
      vertex   0.000000e+00 2.260635e+01 4.079055e+00
      vertex   0.000000e+00 2.260635e+01 2.947906e+01
      vertex   1.905000e+01 2.260635e+01 4.079055e+00
    endloop
  endfacet
  facet normal 0.000000e+00 1.000000e+00 -0.000000e+00
    outer loop
      vertex   1.905000e+01 2.260635e+01 4.079055e+00
      vertex   0.000000e+00 2.260635e+01 2.947906e+01
      vertex   1.905000e+01 2.260635e+01 2.947906e+01
    endloop
  endfacet
  facet normal -0.000000e+00 -0.000000e+00 -1.000000e+00
    outer loop
      vertex   1.905000e+01 -1.138645e+01 4.079055e+00
      vertex   1.905000e+01 -2.138645e+01 4.079055e+00
      vertex   9.050000e+00 -1.138645e+01 4.079055e+00
    endloop
  endfacet
  facet normal 0.000000e+00 -0.000000e+00 -1.000000e+00
    outer loop
      vertex   9.050000e+00 -1.138645e+01 4.079055e+00
      vertex   1.905000e+01 -2.138645e+01 4.079055e+00
      vertex   0.000000e+00 -2.138645e+01 4.079055e+00
    endloop
  endfacet
  facet normal -0.000000e+00 0.000000e+00 -1.000000e+00
    outer loop
      vertex   9.050000e+00 -1.138645e+01 4.079055e+00
      vertex   0.000000e+00 -2.138645e+01 4.079055e+00
      vertex   0.000000e+00 2.260635e+01 4.079055e+00
    endloop
  endfacet
  facet normal 0.000000e+00 0.000000e+00 -1.000000e+00
    outer loop
      vertex   9.050000e+00 -1.138645e+01 4.079055e+00
      vertex   0.000000e+00 2.260635e+01 4.079055e+00
      vertex   9.050000e+00 1.260635e+01 4.079055e+00
    endloop
  endfacet
  facet normal 0.000000e+00 0.000000e+00 -1.000000e+00
    outer loop
      vertex   9.050000e+00 1.260635e+01 4.079055e+00
      vertex   0.000000e+00 2.260635e+01 4.079055e+00
      vertex   1.905000e+01 2.260635e+01 4.079055e+00
    endloop
  endfacet
  facet normal 0.000000e+00 0.000000e+00 -1.000000e+00
    outer loop
      vertex   9.050000e+00 1.260635e+01 4.079055e+00
      vertex   1.905000e+01 2.260635e+01 4.079055e+00
      vertex   1.905000e+01 1.260635e+01 4.079055e+00
    endloop
  endfacet
  facet normal 0.000000e+00 -1.000000e+00 0.000000e+00
    outer loop
      vertex   0.000000e+00 -2.138645e+01 2.947906e+01
      vertex   0.000000e+00 -2.138645e+01 4.079055e+00
      vertex   1.905000e+01 -2.138645e+01 2.947906e+01
    endloop
  endfacet
  facet normal 0.000000e+00 -1.000000e+00 -0.000000e+00
    outer loop
      vertex   1.905000e+01 -2.138645e+01 2.947906e+01
      vertex   0.000000e+00 -2.138645e+01 4.079055e+00
      vertex   1.905000e+01 -2.138645e+01 4.079055e+00
    endloop
  endfacet
  facet normal -1.000000e+00 0.000000e+00 0.000000e+00
    outer loop
      vertex   0.000000e+00 1.818840e+01 1.837822e+01
      vertex   0.000000e+00 1.760635e+01 1.848086e+01
      vertex   0.000000e+00 2.260635e+01 2.947906e+01
    endloop
  endfacet
  facet normal -1.000000e+00 0.000000e+00 0.000000e+00
    outer loop
      vertex   0.000000e+00 2.260635e+01 2.947906e+01
      vertex   0.000000e+00 1.760635e+01 1.848086e+01
      vertex   0.000000e+00 1.702430e+01 1.837822e+01
    endloop
  endfacet
  facet normal -1.000000e+00 0.000000e+00 0.000000e+00
    outer loop
      vertex   0.000000e+00 2.260635e+01 2.947906e+01
      vertex   0.000000e+00 1.702430e+01 1.837822e+01
      vertex   0.000000e+00 1.651246e+01 1.808271e+01
    endloop
  endfacet
  facet normal -1.000000e+00 0.000000e+00 0.000000e+00
    outer loop
      vertex   0.000000e+00 1.613255e+01 1.762995e+01
      vertex   0.000000e+00 -1.491265e+01 1.762995e+01
      vertex   0.000000e+00 1.651246e+01 1.808271e+01
    endloop
  endfacet
  facet normal -1.000000e+00 -0.000000e+00 0.000000e+00
    outer loop
      vertex   0.000000e+00 1.651246e+01 1.808271e+01
      vertex   0.000000e+00 -1.491265e+01 1.762995e+01
      vertex   0.000000e+00 -1.529255e+01 1.808271e+01
    endloop
  endfacet
  facet normal -1.000000e+00 0.000000e+00 0.000000e+00
    outer loop
      vertex   0.000000e+00 1.651246e+01 1.808271e+01
      vertex   0.000000e+00 -1.529255e+01 1.808271e+01
      vertex   0.000000e+00 -2.138645e+01 2.947906e+01
    endloop
  endfacet
  facet normal -1.000000e+00 0.000000e+00 0.000000e+00
    outer loop
      vertex   0.000000e+00 -2.138645e+01 2.947906e+01
      vertex   0.000000e+00 -1.529255e+01 1.808271e+01
      vertex   0.000000e+00 -1.580440e+01 1.837822e+01
    endloop
  endfacet
  facet normal -1.000000e+00 0.000000e+00 0.000000e+00
    outer loop
      vertex   0.000000e+00 -2.138645e+01 2.947906e+01
      vertex   0.000000e+00 -1.580440e+01 1.837822e+01
      vertex   0.000000e+00 -1.638645e+01 1.848086e+01
    endloop
  endfacet
  facet normal -1.000000e+00 -0.000000e+00 0.000000e+00
    outer loop
      vertex   0.000000e+00 1.613255e+01 1.762995e+01
      vertex   0.000000e+00 1.593041e+01 1.707457e+01
      vertex   0.000000e+00 -1.491265e+01 1.762995e+01
    endloop
  endfacet
  facet normal -1.000000e+00 0.000000e+00 0.000000e+00
    outer loop
      vertex   0.000000e+00 -1.491265e+01 1.762995e+01
      vertex   0.000000e+00 1.593041e+01 1.707457e+01
      vertex   0.000000e+00 -1.471050e+01 1.707457e+01
    endloop
  endfacet
  facet normal -1.000000e+00 0.000000e+00 0.000000e+00
    outer loop
      vertex   0.000000e+00 -1.471050e+01 1.707457e+01
      vertex   0.000000e+00 1.593041e+01 1.707457e+01
      vertex   0.000000e+00 1.593041e+01 1.648354e+01
    endloop
  endfacet
  facet normal -1.000000e+00 0.000000e+00 0.000000e+00
    outer loop
      vertex   0.000000e+00 -1.471050e+01 1.707457e+01
      vertex   0.000000e+00 1.593041e+01 1.648354e+01
      vertex   0.000000e+00 -1.471050e+01 1.648354e+01
    endloop
  endfacet
  facet normal -1.000000e+00 0.000000e+00 -0.000000e+00
    outer loop
      vertex   0.000000e+00 -1.471050e+01 1.648354e+01
      vertex   0.000000e+00 1.593041e+01 1.648354e+01
      vertex   0.000000e+00 -1.491265e+01 1.592816e+01
    endloop
  endfacet
  facet normal -1.000000e+00 0.000000e+00 0.000000e+00
    outer loop
      vertex   0.000000e+00 -1.491265e+01 1.592816e+01
      vertex   0.000000e+00 1.593041e+01 1.648354e+01
      vertex   0.000000e+00 1.613255e+01 1.592816e+01
    endloop
  endfacet
  facet normal -1.000000e+00 0.000000e+00 0.000000e+00
    outer loop
      vertex   0.000000e+00 -1.491265e+01 1.592816e+01
      vertex   0.000000e+00 1.613255e+01 1.592816e+01
      vertex   0.000000e+00 1.651246e+01 1.547540e+01
    endloop
  endfacet
  facet normal -1.000000e+00 -0.000000e+00 -0.000000e+00
    outer loop
      vertex   0.000000e+00 1.702430e+01 1.517989e+01
      vertex   0.000000e+00 2.260635e+01 4.079055e+00
      vertex   0.000000e+00 1.651246e+01 1.547540e+01
    endloop
  endfacet
  facet normal -1.000000e+00 0.000000e+00 -0.000000e+00
    outer loop
      vertex   0.000000e+00 1.651246e+01 1.547540e+01
      vertex   0.000000e+00 2.260635e+01 4.079055e+00
      vertex   0.000000e+00 -2.138645e+01 4.079055e+00
    endloop
  endfacet
  facet normal -1.000000e+00 -0.000000e+00 0.000000e+00
    outer loop
      vertex   0.000000e+00 1.651246e+01 1.547540e+01
      vertex   0.000000e+00 -2.138645e+01 4.079055e+00
      vertex   0.000000e+00 -1.529255e+01 1.547540e+01
    endloop
  endfacet
  facet normal -1.000000e+00 0.000000e+00 0.000000e+00
    outer loop
      vertex   0.000000e+00 -1.529255e+01 1.547540e+01
      vertex   0.000000e+00 -2.138645e+01 4.079055e+00
      vertex   0.000000e+00 -1.580440e+01 1.517989e+01
    endloop
  endfacet
  facet normal -1.000000e+00 0.000000e+00 0.000000e+00
    outer loop
      vertex   0.000000e+00 -1.580440e+01 1.517989e+01
      vertex   0.000000e+00 -2.138645e+01 4.079055e+00
      vertex   0.000000e+00 -1.638645e+01 1.507725e+01
    endloop
  endfacet
  facet normal -1.000000e+00 -0.000000e+00 0.000000e+00
    outer loop
      vertex   0.000000e+00 -1.638645e+01 1.507725e+01
      vertex   0.000000e+00 -2.138645e+01 4.079055e+00
      vertex   0.000000e+00 -1.696850e+01 1.517989e+01
    endloop
  endfacet
  facet normal -1.000000e+00 -0.000000e+00 0.000000e+00
    outer loop
      vertex   0.000000e+00 -1.696850e+01 1.517989e+01
      vertex   0.000000e+00 -2.138645e+01 4.079055e+00
      vertex   0.000000e+00 -1.748034e+01 1.547540e+01
    endloop
  endfacet
  facet normal -1.000000e+00 -0.000000e+00 0.000000e+00
    outer loop
      vertex   0.000000e+00 -1.748034e+01 1.547540e+01
      vertex   0.000000e+00 -2.138645e+01 4.079055e+00
      vertex   0.000000e+00 -1.786025e+01 1.592816e+01
    endloop
  endfacet
  facet normal -1.000000e+00 -0.000000e+00 0.000000e+00
    outer loop
      vertex   0.000000e+00 -1.786025e+01 1.592816e+01
      vertex   0.000000e+00 -2.138645e+01 4.079055e+00
      vertex   0.000000e+00 -1.806239e+01 1.648354e+01
    endloop
  endfacet
  facet normal -1.000000e+00 -0.000000e+00 0.000000e+00
    outer loop
      vertex   0.000000e+00 -1.806239e+01 1.648354e+01
      vertex   0.000000e+00 -2.138645e+01 4.079055e+00
      vertex   0.000000e+00 -2.138645e+01 2.947906e+01
    endloop
  endfacet
  facet normal -1.000000e+00 0.000000e+00 0.000000e+00
    outer loop
      vertex   0.000000e+00 -1.806239e+01 1.648354e+01
      vertex   0.000000e+00 -2.138645e+01 2.947906e+01
      vertex   0.000000e+00 -1.806239e+01 1.707457e+01
    endloop
  endfacet
  facet normal -1.000000e+00 0.000000e+00 0.000000e+00
    outer loop
      vertex   0.000000e+00 -1.806239e+01 1.707457e+01
      vertex   0.000000e+00 -2.138645e+01 2.947906e+01
      vertex   0.000000e+00 -1.786025e+01 1.762995e+01
    endloop
  endfacet
  facet normal -1.000000e+00 0.000000e+00 0.000000e+00
    outer loop
      vertex   0.000000e+00 -1.786025e+01 1.762995e+01
      vertex   0.000000e+00 -2.138645e+01 2.947906e+01
      vertex   0.000000e+00 -1.748034e+01 1.808271e+01
    endloop
  endfacet
  facet normal -1.000000e+00 0.000000e+00 0.000000e+00
    outer loop
      vertex   0.000000e+00 -1.748034e+01 1.808271e+01
      vertex   0.000000e+00 -2.138645e+01 2.947906e+01
      vertex   0.000000e+00 -1.696850e+01 1.837822e+01
    endloop
  endfacet
  facet normal -1.000000e+00 0.000000e+00 0.000000e+00
    outer loop
      vertex   0.000000e+00 -1.696850e+01 1.837822e+01
      vertex   0.000000e+00 -2.138645e+01 2.947906e+01
      vertex   0.000000e+00 -1.638645e+01 1.848086e+01
    endloop
  endfacet
  facet normal -1.000000e+00 0.000000e+00 0.000000e+00
    outer loop
      vertex   0.000000e+00 1.702430e+01 1.517989e+01
      vertex   0.000000e+00 1.760635e+01 1.507725e+01
      vertex   0.000000e+00 2.260635e+01 4.079055e+00
    endloop
  endfacet
  facet normal -1.000000e+00 0.000000e+00 0.000000e+00
    outer loop
      vertex   0.000000e+00 2.260635e+01 4.079055e+00
      vertex   0.000000e+00 1.760635e+01 1.507725e+01
      vertex   0.000000e+00 1.818840e+01 1.517989e+01
    endloop
  endfacet
  facet normal -1.000000e+00 0.000000e+00 0.000000e+00
    outer loop
      vertex   0.000000e+00 2.260635e+01 4.079055e+00
      vertex   0.000000e+00 1.818840e+01 1.517989e+01
      vertex   0.000000e+00 1.870025e+01 1.547540e+01
    endloop
  endfacet
  facet normal -1.000000e+00 0.000000e+00 0.000000e+00
    outer loop
      vertex   0.000000e+00 1.870025e+01 1.547540e+01
      vertex   0.000000e+00 1.908015e+01 1.592816e+01
      vertex   0.000000e+00 2.260635e+01 4.079055e+00
    endloop
  endfacet
  facet normal -1.000000e+00 0.000000e+00 0.000000e+00
    outer loop
      vertex   0.000000e+00 2.260635e+01 4.079055e+00
      vertex   0.000000e+00 1.908015e+01 1.592816e+01
      vertex   0.000000e+00 1.928230e+01 1.648354e+01
    endloop
  endfacet
  facet normal -1.000000e+00 0.000000e+00 0.000000e+00
    outer loop
      vertex   0.000000e+00 2.260635e+01 4.079055e+00
      vertex   0.000000e+00 1.928230e+01 1.648354e+01
      vertex   0.000000e+00 1.928230e+01 1.707457e+01
    endloop
  endfacet
  facet normal -1.000000e+00 0.000000e+00 0.000000e+00
    outer loop
      vertex   0.000000e+00 2.260635e+01 4.079055e+00
      vertex   0.000000e+00 1.928230e+01 1.707457e+01
      vertex   0.000000e+00 2.260635e+01 2.947906e+01
    endloop
  endfacet
  facet normal -1.000000e+00 0.000000e+00 0.000000e+00
    outer loop
      vertex   0.000000e+00 2.260635e+01 2.947906e+01
      vertex   0.000000e+00 1.928230e+01 1.707457e+01
      vertex   0.000000e+00 1.908015e+01 1.762995e+01
    endloop
  endfacet
  facet normal -1.000000e+00 0.000000e+00 0.000000e+00
    outer loop
      vertex   0.000000e+00 2.260635e+01 2.947906e+01
      vertex   0.000000e+00 1.908015e+01 1.762995e+01
      vertex   0.000000e+00 1.870025e+01 1.808271e+01
    endloop
  endfacet
  facet normal -1.000000e+00 0.000000e+00 0.000000e+00
    outer loop
      vertex   0.000000e+00 1.870025e+01 1.808271e+01
      vertex   0.000000e+00 1.818840e+01 1.837822e+01
      vertex   0.000000e+00 2.260635e+01 2.947906e+01
    endloop
  endfacet
  facet normal -1.000000e+00 0.000000e+00 0.000000e+00
    outer loop
      vertex   0.000000e+00 -1.529255e+01 1.547540e+01
      vertex   0.000000e+00 -1.491265e+01 1.592816e+01
      vertex   0.000000e+00 1.651246e+01 1.547540e+01
    endloop
  endfacet
  facet normal -1.000000e+00 0.000000e+00 0.000000e+00
    outer loop
      vertex   0.000000e+00 -2.138645e+01 2.947906e+01
      vertex   0.000000e+00 2.260635e+01 2.947906e+01
      vertex   0.000000e+00 1.651246e+01 1.808271e+01
    endloop
  endfacet
endsolid
