solid ASCII
  facet normal 0.000000e+00 -0.000000e+00 1.000000e+00
    outer loop
      vertex   9.525000e+00 1.567039e+01 -1.552928e+01
      vertex   9.525000e+00 1.770239e+01 -1.552928e+01
      vertex   0.000000e+00 1.567039e+01 -1.552928e+01
    endloop
  endfacet
  facet normal 0.000000e+00 0.000000e+00 1.000000e+00
    outer loop
      vertex   0.000000e+00 1.567039e+01 -1.552928e+01
      vertex   9.525000e+00 1.770239e+01 -1.552928e+01
      vertex   0.000000e+00 1.770239e+01 -1.552928e+01
    endloop
  endfacet
  facet normal 0.000000e+00 -1.000000e+00 0.000000e+00
    outer loop
      vertex   9.525000e+00 1.770239e+01 -1.552928e+01
      vertex   9.525000e+00 1.770239e+01 3.457222e-01
      vertex   0.000000e+00 1.770239e+01 -1.552928e+01
    endloop
  endfacet
  facet normal 0.000000e+00 -1.000000e+00 0.000000e+00
    outer loop
      vertex   0.000000e+00 1.770239e+01 -1.552928e+01
      vertex   9.525000e+00 1.770239e+01 3.457222e-01
      vertex   0.000000e+00 1.770239e+01 3.457222e-01
    endloop
  endfacet
  facet normal -0.000000e+00 -0.000000e+00 -1.000000e+00
    outer loop
      vertex   9.525000e+00 1.770239e+01 3.457222e-01
      vertex   9.525000e+00 1.567039e+01 3.457222e-01
      vertex   0.000000e+00 1.770239e+01 3.457222e-01
    endloop
  endfacet
  facet normal 0.000000e+00 0.000000e+00 -1.000000e+00
    outer loop
      vertex   0.000000e+00 1.770239e+01 3.457222e-01
      vertex   9.525000e+00 1.567039e+01 3.457222e-01
      vertex   0.000000e+00 1.567039e+01 3.457222e-01
    endloop
  endfacet
  facet normal -1.000000e+00 0.000000e+00 0.000000e+00
    outer loop
      vertex   0.000000e+00 1.567039e+01 -1.552928e+01
      vertex   0.000000e+00 1.770239e+01 -1.552928e+01
      vertex   0.000000e+00 1.567039e+01 -2.149828e+01
    endloop
  endfacet
  facet normal -1.000000e+00 0.000000e+00 0.000000e+00
    outer loop
      vertex   0.000000e+00 1.567039e+01 -2.149828e+01
      vertex   0.000000e+00 1.770239e+01 -1.552928e+01
      vertex   0.000000e+00 2.202039e+01 -3.457928e+01
    endloop
  endfacet
  facet normal -1.000000e+00 0.000000e+00 -0.000000e+00
    outer loop
      vertex   0.000000e+00 1.567039e+01 -2.149828e+01
      vertex   0.000000e+00 2.202039e+01 -3.457928e+01
      vertex   0.000000e+00 1.211439e+01 -2.505428e+01
    endloop
  endfacet
  facet normal -1.000000e+00 0.000000e+00 -0.000000e+00
    outer loop
      vertex   0.000000e+00 1.211439e+01 -2.505428e+01
      vertex   0.000000e+00 2.202039e+01 -3.457928e+01
      vertex   0.000000e+00 -9.729611e+00 -3.457928e+01
    endloop
  endfacet
  facet normal -1.000000e+00 -0.000000e+00 0.000000e+00
    outer loop
      vertex   0.000000e+00 1.211439e+01 -2.505428e+01
      vertex   0.000000e+00 -9.729611e+00 -3.457928e+01
      vertex   0.000000e+00 -9.729611e+00 -2.505428e+01
    endloop
  endfacet
  facet normal -1.000000e+00 0.000000e+00 0.000000e+00
    outer loop
      vertex   0.000000e+00 1.770239e+01 -1.552928e+01
      vertex   0.000000e+00 1.770239e+01 3.457222e-01
      vertex   0.000000e+00 2.202039e+01 -3.457928e+01
    endloop
  endfacet
  facet normal -1.000000e+00 0.000000e+00 0.000000e+00
    outer loop
      vertex   0.000000e+00 2.202039e+01 -3.457928e+01
      vertex   0.000000e+00 1.770239e+01 3.457222e-01
      vertex   0.000000e+00 2.202039e+01 1.939572e+01
    endloop
  endfacet
  facet normal -1.000000e+00 0.000000e+00 0.000000e+00
    outer loop
      vertex   0.000000e+00 2.202039e+01 1.939572e+01
      vertex   0.000000e+00 1.770239e+01 3.457222e-01
      vertex   0.000000e+00 1.567039e+01 6.314722e+00
    endloop
  endfacet
  facet normal -1.000000e+00 0.000000e+00 0.000000e+00
    outer loop
      vertex   0.000000e+00 2.202039e+01 1.939572e+01
      vertex   0.000000e+00 1.567039e+01 6.314722e+00
      vertex   0.000000e+00 1.211439e+01 9.870722e+00
    endloop
  endfacet
  facet normal -1.000000e+00 0.000000e+00 0.000000e+00
    outer loop
      vertex   0.000000e+00 1.770239e+01 3.457222e-01
      vertex   0.000000e+00 1.567039e+01 3.457222e-01
      vertex   0.000000e+00 1.567039e+01 6.314722e+00
    endloop
  endfacet
  facet normal -1.000000e+00 0.000000e+00 0.000000e+00
    outer loop
      vertex   0.000000e+00 -9.729611e+00 9.870722e+00
      vertex   0.000000e+00 -9.729611e+00 1.939572e+01
      vertex   0.000000e+00 1.211439e+01 9.870722e+00
    endloop
  endfacet
  facet normal -1.000000e+00 0.000000e+00 0.000000e+00
    outer loop
      vertex   0.000000e+00 1.211439e+01 9.870722e+00
      vertex   0.000000e+00 -9.729611e+00 1.939572e+01
      vertex   0.000000e+00 2.202039e+01 1.939572e+01
    endloop
  endfacet
  facet normal 0.000000e+00 -1.000000e+00 0.000000e+00
    outer loop
      vertex   0.000000e+00 1.567039e+01 6.314722e+00
      vertex   0.000000e+00 1.567039e+01 3.457222e-01
      vertex   5.000000e+00 1.567039e+01 6.314722e+00
    endloop
  endfacet
  facet normal 0.000000e+00 -1.000000e+00 -0.000000e+00
    outer loop
      vertex   5.000000e+00 1.567039e+01 6.314722e+00
      vertex   0.000000e+00 1.567039e+01 3.457222e-01
      vertex   9.525000e+00 1.567039e+01 3.457222e-01
    endloop
  endfacet
  facet normal 0.000000e+00 -1.000000e+00 0.000000e+00
    outer loop
      vertex   5.000000e+00 1.567039e+01 6.314722e+00
      vertex   9.525000e+00 1.567039e+01 3.457222e-01
      vertex   9.525000e+00 1.567039e+01 9.870722e+00
    endloop
  endfacet
  facet normal -0.000000e+00 -1.000000e+00 0.000000e+00
    outer loop
      vertex   9.525000e+00 1.567039e+01 9.870722e+00
      vertex   5.000000e+00 1.567039e+01 9.870722e+00
      vertex   5.000000e+00 1.567039e+01 6.314722e+00
    endloop
  endfacet
  facet normal 0.000000e+00 -1.000000e+00 0.000000e+00
    outer loop
      vertex   9.525000e+00 1.567039e+01 -2.505428e+01
      vertex   9.525000e+00 1.567039e+01 -1.552928e+01
      vertex   5.000000e+00 1.567039e+01 -2.149828e+01
    endloop
  endfacet
  facet normal 0.000000e+00 -1.000000e+00 0.000000e+00
    outer loop
      vertex   5.000000e+00 1.567039e+01 -2.149828e+01
      vertex   9.525000e+00 1.567039e+01 -1.552928e+01
      vertex   0.000000e+00 1.567039e+01 -1.552928e+01
    endloop
  endfacet
  facet normal 0.000000e+00 -1.000000e+00 0.000000e+00
    outer loop
      vertex   5.000000e+00 1.567039e+01 -2.149828e+01
      vertex   0.000000e+00 1.567039e+01 -1.552928e+01
      vertex   0.000000e+00 1.567039e+01 -2.149828e+01
    endloop
  endfacet
  facet normal 0.000000e+00 -1.000000e+00 0.000000e+00
    outer loop
      vertex   5.000000e+00 1.567039e+01 -2.149828e+01
      vertex   5.000000e+00 1.567039e+01 -2.505428e+01
      vertex   9.525000e+00 1.567039e+01 -2.505428e+01
    endloop
  endfacet
  facet normal 0.000000e+00 1.000000e+00 -0.000000e+00
    outer loop
      vertex   5.000000e+00 1.567039e+01 1.208040e+01
      vertex   4.364323e+00 1.567039e+01 1.210337e+01
      vertex   5.000000e+00 1.567039e+01 1.266472e+01
    endloop
  endfacet
  facet normal 0.000000e+00 1.000000e+00 0.000000e+00
    outer loop
      vertex   5.000000e+00 1.567039e+01 1.266472e+01
      vertex   4.364323e+00 1.567039e+01 1.210337e+01
      vertex   3.760529e+00 1.567039e+01 1.230348e+01
    endloop
  endfacet
  facet normal 0.000000e+00 1.000000e+00 0.000000e+00
    outer loop
      vertex   5.000000e+00 1.567039e+01 1.266472e+01
      vertex   3.760529e+00 1.567039e+01 1.230348e+01
      vertex   3.236966e+00 1.567039e+01 1.266472e+01
    endloop
  endfacet
  facet normal 1.000000e+00 0.000000e+00 0.000000e+00
    outer loop
      vertex   5.000000e+00 1.508607e+01 1.208040e+01
      vertex   5.000000e+00 1.567039e+01 1.208040e+01
      vertex   5.000000e+00 1.567039e+01 1.266472e+01
    endloop
  endfacet
  facet normal 0.000000e+00 -7.071068e-01 7.071068e-01
    outer loop
      vertex   3.236966e+00 1.567039e+01 1.266472e+01
      vertex   3.620341e+00 1.538528e+01 1.237961e+01
      vertex   5.000000e+00 1.567039e+01 1.266472e+01
    endloop
  endfacet
  facet normal 0.000000e+00 -7.071068e-01 7.071068e-01
    outer loop
      vertex   5.000000e+00 1.567039e+01 1.266472e+01
      vertex   3.620341e+00 1.538528e+01 1.237961e+01
      vertex   4.055312e+00 1.518763e+01 1.218196e+01
    endloop
  endfacet
  facet normal 0.000000e+00 -7.071068e-01 7.071068e-01
    outer loop
      vertex   5.000000e+00 1.567039e+01 1.266472e+01
      vertex   4.055312e+00 1.518763e+01 1.218196e+01
      vertex   4.522229e+00 1.508637e+01 1.208070e+01
    endloop
  endfacet
  facet normal 0.000000e+00 -7.071068e-01 7.071068e-01
    outer loop
      vertex   4.522229e+00 1.508637e+01 1.208070e+01
      vertex   5.000000e+00 1.508607e+01 1.208040e+01
      vertex   5.000000e+00 1.567039e+01 1.266472e+01
    endloop
  endfacet
  facet normal 0.000000e+00 -7.071069e-01 7.071067e-01
    outer loop
      vertex   0.000000e+00 1.567039e+01 -2.149828e+01
      vertex   0.000000e+00 1.211439e+01 -2.505428e+01
      vertex   5.000000e+00 1.567039e+01 -2.149828e+01
    endloop
  endfacet
  facet normal 0.000000e+00 -7.071069e-01 7.071067e-01
    outer loop
      vertex   5.000000e+00 1.567039e+01 -2.149828e+01
      vertex   0.000000e+00 1.211439e+01 -2.505428e+01
      vertex   5.000000e+00 1.211439e+01 -2.505428e+01
    endloop
  endfacet
  facet normal 1.000000e+00 0.000000e+00 0.000000e+00
    outer loop
      vertex   5.000000e+00 1.567039e+01 -2.149828e+01
      vertex   5.000000e+00 1.211439e+01 -2.505428e+01
      vertex   5.000000e+00 1.567039e+01 -2.505428e+01
    endloop
  endfacet
  facet normal 0.000000e+00 -7.071068e-01 -7.071068e-01
    outer loop
      vertex   0.000000e+00 1.211439e+01 9.870722e+00
      vertex   0.000000e+00 1.567039e+01 6.314722e+00
      vertex   5.000000e+00 1.211439e+01 9.870722e+00
    endloop
  endfacet
  facet normal 0.000000e+00 -7.071068e-01 -7.071068e-01
    outer loop
      vertex   5.000000e+00 1.211439e+01 9.870722e+00
      vertex   0.000000e+00 1.567039e+01 6.314722e+00
      vertex   5.000000e+00 1.567039e+01 6.314722e+00
    endloop
  endfacet
  facet normal 1.000000e+00 0.000000e+00 0.000000e+00
    outer loop
      vertex   5.000000e+00 1.567039e+01 9.870722e+00
      vertex   5.000000e+00 1.211439e+01 9.870722e+00
      vertex   5.000000e+00 1.567039e+01 6.314722e+00
    endloop
  endfacet
  facet normal 6.211598e-04 -1.988781e-04 9.999998e-01
    outer loop
      vertex   4.522229e+00 1.508637e+01 1.208070e+01
      vertex   4.948130e+00 -9.729611e+00 1.207550e+01
      vertex   5.000000e+00 1.508607e+01 1.208040e+01
    endloop
  endfacet
  facet normal -1.798967e-01 1.816639e-04 9.836855e-01
    outer loop
      vertex   5.000000e+00 1.508607e+01 1.208040e+01
      vertex   4.948130e+00 -9.729611e+00 1.207550e+01
      vertex   5.314327e+00 2.202039e+01 1.213661e+01
    endloop
  endfacet
  facet normal -1.760146e-01 0.000000e+00 9.843876e-01
    outer loop
      vertex   5.000000e+00 1.508607e+01 1.208040e+01
      vertex   5.314327e+00 2.202039e+01 1.213661e+01
      vertex   5.000000e+00 1.567039e+01 1.208040e+01
    endloop
  endfacet
  facet normal -8.257742e-02 -4.733025e-03 9.965734e-01
    outer loop
      vertex   5.000000e+00 1.567039e+01 1.208040e+01
      vertex   5.314327e+00 2.202039e+01 1.213661e+01
      vertex   4.576870e+00 2.202039e+01 1.207550e+01
    endloop
  endfacet
  facet normal 3.610228e-02 3.177294e-03 9.993430e-01
    outer loop
      vertex   5.000000e+00 1.567039e+01 1.208040e+01
      vertex   4.576870e+00 2.202039e+01 1.207550e+01
      vertex   4.364323e+00 1.567039e+01 1.210337e+01
    endloop
  endfacet
  facet normal 2.454826e-01 -3.962513e-03 9.693929e-01
    outer loop
      vertex   4.364323e+00 1.567039e+01 1.210337e+01
      vertex   4.576870e+00 2.202039e+01 1.207550e+01
      vertex   3.859529e+00 2.202039e+01 1.225716e+01
    endloop
  endfacet
  facet normal 3.145990e-01 2.020396e-03 9.492225e-01
    outer loop
      vertex   4.364323e+00 1.567039e+01 1.210337e+01
      vertex   3.859529e+00 2.202039e+01 1.225716e+01
      vertex   3.760529e+00 1.567039e+01 1.230348e+01
    endloop
  endfacet
  facet normal 5.469468e-01 -2.419560e-03 8.371638e-01
    outer loop
      vertex   3.760529e+00 1.567039e+01 1.230348e+01
      vertex   3.859529e+00 2.202039e+01 1.225716e+01
      vertex   3.240039e+00 2.202039e+01 1.266189e+01
    endloop
  endfacet
  facet normal 5.679055e-01 9.249841e-05 8.230938e-01
    outer loop
      vertex   3.760529e+00 1.567039e+01 1.230348e+01
      vertex   3.240039e+00 2.202039e+01 1.266189e+01
      vertex   3.236966e+00 1.567039e+01 1.266472e+01
    endloop
  endfacet
  facet normal 7.390155e-01 -5.696798e-05 6.736884e-01
    outer loop
      vertex   3.236966e+00 1.567039e+01 1.266472e+01
      vertex   3.240039e+00 2.202039e+01 1.266189e+01
      vertex   2.988591e+00 -9.729611e+00 1.293503e+01
    endloop
  endfacet
  facet normal 6.772817e-01 1.206881e-03 7.357228e-01
    outer loop
      vertex   3.236966e+00 1.567039e+01 1.266472e+01
      vertex   2.988591e+00 -9.729611e+00 1.293503e+01
      vertex   3.533015e+00 -9.729611e+00 1.243386e+01
    endloop
  endfacet
  facet normal 8.257828e-02 1.208417e-03 9.965838e-01
    outer loop
      vertex   4.948130e+00 -9.729611e+00 1.207550e+01
      vertex   4.522229e+00 1.508637e+01 1.208070e+01
      vertex   4.210673e+00 -9.729611e+00 1.213661e+01
    endloop
  endfacet
  facet normal 2.118475e-01 -4.579509e-04 9.773026e-01
    outer loop
      vertex   4.210673e+00 -9.729611e+00 1.213661e+01
      vertex   4.522229e+00 1.508637e+01 1.208070e+01
      vertex   4.055312e+00 1.518763e+01 1.218196e+01
    endloop
  endfacet
  facet normal 4.016953e-01 8.377608e-04 9.157730e-01
    outer loop
      vertex   4.210673e+00 -9.729611e+00 1.213661e+01
      vertex   4.055312e+00 1.518763e+01 1.218196e+01
      vertex   3.533015e+00 -9.729611e+00 1.243386e+01
    endloop
  endfacet
  facet normal 4.138909e-01 5.270635e-04 9.103263e-01
    outer loop
      vertex   3.533015e+00 -9.729611e+00 1.243386e+01
      vertex   4.055312e+00 1.518763e+01 1.218196e+01
      vertex   3.620341e+00 1.538528e+01 1.237961e+01
    endloop
  endfacet
  facet normal 5.965903e-01 -3.409869e-04 8.025459e-01
    outer loop
      vertex   3.533015e+00 -9.729611e+00 1.243386e+01
      vertex   3.620341e+00 1.538528e+01 1.237961e+01
      vertex   3.236966e+00 1.567039e+01 1.266472e+01
    endloop
  endfacet
  facet normal 9.863608e-01 9.656183e-04 1.645947e-01
    outer loop
      vertex   2.636397e+00 -9.729611e+00 1.358583e+01
      vertex   2.545258e+00 2.202039e+01 1.394573e+01
      vertex   2.514600e+00 -9.729611e+00 1.431572e+01
    endloop
  endfacet
  facet normal 9.999995e-01 -9.656229e-04 0.000000e+00
    outer loop
      vertex   2.514600e+00 -9.729611e+00 1.431572e+01
      vertex   2.545258e+00 2.202039e+01 1.394573e+01
      vertex   2.545258e+00 2.202039e+01 1.468571e+01
    endloop
  endfacet
  facet normal 9.863608e-01 9.656183e-04 -1.645947e-01
    outer loop
      vertex   2.514600e+00 -9.729611e+00 1.431572e+01
      vertex   2.545258e+00 2.202039e+01 1.468571e+01
      vertex   2.636397e+00 -9.729611e+00 1.504561e+01
    endloop
  endfacet
  facet normal 9.458167e-01 -9.656216e-04 -3.246995e-01
    outer loop
      vertex   2.636397e+00 -9.729611e+00 1.504561e+01
      vertex   2.545258e+00 2.202039e+01 1.468571e+01
      vertex   2.785531e+00 2.202039e+01 1.538560e+01
    endloop
  endfacet
  facet normal 8.794733e-01 9.656125e-04 -4.759472e-01
    outer loop
      vertex   2.636397e+00 -9.729611e+00 1.504561e+01
      vertex   2.785531e+00 2.202039e+01 1.538560e+01
      vertex   2.988591e+00 -9.729611e+00 1.569641e+01
    endloop
  endfacet
  facet normal 7.891407e-01 -9.656179e-04 -6.142117e-01
    outer loop
      vertex   2.988591e+00 -9.729611e+00 1.569641e+01
      vertex   2.785531e+00 2.202039e+01 1.538560e+01
      vertex   3.240039e+00 2.202039e+01 1.596956e+01
    endloop
  endfacet
  facet normal 6.772810e-01 9.656359e-04 -7.357238e-01
    outer loop
      vertex   2.988591e+00 -9.729611e+00 1.569641e+01
      vertex   3.240039e+00 2.202039e+01 1.596956e+01
      vertex   3.533015e+00 -9.729611e+00 1.619759e+01
    endloop
  endfacet
  facet normal 5.469471e-01 -9.656075e-04 -8.371666e-01
    outer loop
      vertex   3.533015e+00 -9.729611e+00 1.619759e+01
      vertex   3.240039e+00 2.202039e+01 1.596956e+01
      vertex   3.859529e+00 2.202039e+01 1.637429e+01
    endloop
  endfacet
  facet normal 4.016952e-01 9.656195e-04 -9.157729e-01
    outer loop
      vertex   3.533015e+00 -9.729611e+00 1.619759e+01
      vertex   3.859529e+00 2.202039e+01 1.637429e+01
      vertex   4.210673e+00 -9.729611e+00 1.649484e+01
    endloop
  endfacet
  facet normal 2.454860e-01 -9.656120e-04 -9.693997e-01
    outer loop
      vertex   4.210673e+00 -9.729611e+00 1.649484e+01
      vertex   3.859529e+00 2.202039e+01 1.637429e+01
      vertex   4.576870e+00 2.202039e+01 1.655594e+01
    endloop
  endfacet
  facet normal 8.257991e-02 9.656266e-04 -9.965840e-01
    outer loop
      vertex   4.210673e+00 -9.729611e+00 1.649484e+01
      vertex   4.576870e+00 2.202039e+01 1.655594e+01
      vertex   4.948130e+00 -9.729611e+00 1.655594e+01
    endloop
  endfacet
  facet normal -8.257991e-02 -9.656266e-04 -9.965840e-01
    outer loop
      vertex   4.948130e+00 -9.729611e+00 1.655594e+01
      vertex   4.576870e+00 2.202039e+01 1.655594e+01
      vertex   5.314327e+00 2.202039e+01 1.649484e+01
    endloop
  endfacet
  facet normal -2.454861e-01 9.656132e-04 -9.693996e-01
    outer loop
      vertex   4.948130e+00 -9.729611e+00 1.655594e+01
      vertex   5.314327e+00 2.202039e+01 1.649484e+01
      vertex   5.665471e+00 -9.729611e+00 1.637429e+01
    endloop
  endfacet
  facet normal -4.016954e-01 -9.656176e-04 -9.157728e-01
    outer loop
      vertex   5.665471e+00 -9.729611e+00 1.637429e+01
      vertex   5.314327e+00 2.202039e+01 1.649484e+01
      vertex   5.991985e+00 2.202039e+01 1.619759e+01
    endloop
  endfacet
  facet normal -5.469471e-01 9.656075e-04 -8.371666e-01
    outer loop
      vertex   5.665471e+00 -9.729611e+00 1.637429e+01
      vertex   5.991985e+00 2.202039e+01 1.619759e+01
      vertex   6.284961e+00 -9.729611e+00 1.596956e+01
    endloop
  endfacet
  facet normal -6.772810e-01 -9.656359e-04 -7.357238e-01
    outer loop
      vertex   6.284961e+00 -9.729611e+00 1.596956e+01
      vertex   5.991985e+00 2.202039e+01 1.619759e+01
      vertex   6.536409e+00 2.202039e+01 1.569641e+01
    endloop
  endfacet
  facet normal -7.891405e-01 9.656142e-04 -6.142120e-01
    outer loop
      vertex   6.284961e+00 -9.729611e+00 1.596956e+01
      vertex   6.536409e+00 2.202039e+01 1.569641e+01
      vertex   6.739469e+00 -9.729611e+00 1.538560e+01
    endloop
  endfacet
  facet normal -8.794733e-01 -9.656208e-04 -4.759472e-01
    outer loop
      vertex   6.739469e+00 -9.729611e+00 1.538560e+01
      vertex   6.536409e+00 2.202039e+01 1.569641e+01
      vertex   6.888602e+00 2.202039e+01 1.504561e+01
    endloop
  endfacet
  facet normal -9.458169e-01 9.656172e-04 -3.246991e-01
    outer loop
      vertex   6.739469e+00 -9.729611e+00 1.538560e+01
      vertex   6.888602e+00 2.202039e+01 1.504561e+01
      vertex   6.979741e+00 -9.729611e+00 1.468571e+01
    endloop
  endfacet
  facet normal -9.863607e-01 -9.656136e-04 -1.645951e-01
    outer loop
      vertex   6.979741e+00 -9.729611e+00 1.468571e+01
      vertex   6.888602e+00 2.202039e+01 1.504561e+01
      vertex   7.010400e+00 2.202039e+01 1.431572e+01
    endloop
  endfacet
  facet normal -9.999995e-01 9.656323e-04 0.000000e+00
    outer loop
      vertex   6.979741e+00 -9.729611e+00 1.468571e+01
      vertex   7.010400e+00 2.202039e+01 1.431572e+01
      vertex   6.979741e+00 -9.729611e+00 1.394573e+01
    endloop
  endfacet
  facet normal -9.863607e-01 -9.656136e-04 1.645951e-01
    outer loop
      vertex   6.979741e+00 -9.729611e+00 1.394573e+01
      vertex   7.010400e+00 2.202039e+01 1.431572e+01
      vertex   6.888602e+00 2.202039e+01 1.358583e+01
    endloop
  endfacet
  facet normal -9.458169e-01 9.656172e-04 3.246991e-01
    outer loop
      vertex   6.979741e+00 -9.729611e+00 1.394573e+01
      vertex   6.888602e+00 2.202039e+01 1.358583e+01
      vertex   6.739469e+00 -9.729611e+00 1.324584e+01
    endloop
  endfacet
  facet normal -8.794729e-01 -9.656297e-04 4.759479e-01
    outer loop
      vertex   6.739469e+00 -9.729611e+00 1.324584e+01
      vertex   6.888602e+00 2.202039e+01 1.358583e+01
      vertex   6.536409e+00 2.202039e+01 1.293503e+01
    endloop
  endfacet
  facet normal -7.891399e-01 9.656027e-04 6.142128e-01
    outer loop
      vertex   6.739469e+00 -9.729611e+00 1.324584e+01
      vertex   6.536409e+00 2.202039e+01 1.293503e+01
      vertex   6.284961e+00 -9.729611e+00 1.266189e+01
    endloop
  endfacet
  facet normal -6.772819e-01 -9.656221e-04 7.357230e-01
    outer loop
      vertex   6.284961e+00 -9.729611e+00 1.266189e+01
      vertex   6.536409e+00 2.202039e+01 1.293503e+01
      vertex   5.991985e+00 2.202039e+01 1.243386e+01
    endloop
  endfacet
  facet normal -5.469482e-01 9.656233e-04 8.371659e-01
    outer loop
      vertex   6.284961e+00 -9.729611e+00 1.266189e+01
      vertex   5.991985e+00 2.202039e+01 1.243386e+01
      vertex   5.665471e+00 -9.729611e+00 1.225716e+01
    endloop
  endfacet
  facet normal -4.016954e-01 -9.656176e-04 9.157728e-01
    outer loop
      vertex   5.665471e+00 -9.729611e+00 1.225716e+01
      vertex   5.991985e+00 2.202039e+01 1.243386e+01
      vertex   5.314327e+00 2.202039e+01 1.213661e+01
    endloop
  endfacet
  facet normal -2.454846e-01 9.656314e-04 9.694000e-01
    outer loop
      vertex   5.665471e+00 -9.729611e+00 1.225716e+01
      vertex   5.314327e+00 2.202039e+01 1.213661e+01
      vertex   4.948130e+00 -9.729611e+00 1.207550e+01
    endloop
  endfacet
  facet normal 9.458167e-01 -9.656216e-04 3.246995e-01
    outer loop
      vertex   2.545258e+00 2.202039e+01 1.394573e+01
      vertex   2.636397e+00 -9.729611e+00 1.358583e+01
      vertex   2.785531e+00 2.202039e+01 1.324584e+01
    endloop
  endfacet
  facet normal 8.794729e-01 9.656215e-04 4.759479e-01
    outer loop
      vertex   2.785531e+00 2.202039e+01 1.324584e+01
      vertex   2.636397e+00 -9.729611e+00 1.358583e+01
      vertex   2.988591e+00 -9.729611e+00 1.293503e+01
    endloop
  endfacet
  facet normal 7.891401e-01 -9.656064e-04 6.142125e-01
    outer loop
      vertex   2.785531e+00 2.202039e+01 1.324584e+01
      vertex   2.988591e+00 -9.729611e+00 1.293503e+01
      vertex   3.240039e+00 2.202039e+01 1.266189e+01
    endloop
  endfacet
  facet normal 9.863608e-01 9.656183e-04 1.645947e-01
    outer loop
      vertex   2.636397e+00 -9.729611e+00 -3.022917e+01
      vertex   2.545258e+00 2.202039e+01 -2.986927e+01
      vertex   2.514600e+00 -9.729611e+00 -2.949928e+01
    endloop
  endfacet
  facet normal 9.999995e-01 -9.656229e-04 0.000000e+00
    outer loop
      vertex   2.514600e+00 -9.729611e+00 -2.949928e+01
      vertex   2.545258e+00 2.202039e+01 -2.986927e+01
      vertex   2.545258e+00 2.202039e+01 -2.912929e+01
    endloop
  endfacet
  facet normal 9.863608e-01 9.656183e-04 -1.645947e-01
    outer loop
      vertex   2.514600e+00 -9.729611e+00 -2.949928e+01
      vertex   2.545258e+00 2.202039e+01 -2.912929e+01
      vertex   2.636397e+00 -9.729611e+00 -2.876939e+01
    endloop
  endfacet
  facet normal 9.458167e-01 -9.656216e-04 -3.246995e-01
    outer loop
      vertex   2.636397e+00 -9.729611e+00 -2.876939e+01
      vertex   2.545258e+00 2.202039e+01 -2.912929e+01
      vertex   2.785531e+00 2.202039e+01 -2.842940e+01
    endloop
  endfacet
  facet normal 8.794733e-01 9.656125e-04 -4.759472e-01
    outer loop
      vertex   2.636397e+00 -9.729611e+00 -2.876939e+01
      vertex   2.785531e+00 2.202039e+01 -2.842940e+01
      vertex   2.988591e+00 -9.729611e+00 -2.811859e+01
    endloop
  endfacet
  facet normal 7.891401e-01 -9.656294e-04 -6.142125e-01
    outer loop
      vertex   2.988591e+00 -9.729611e+00 -2.811859e+01
      vertex   2.785531e+00 2.202039e+01 -2.842940e+01
      vertex   3.240039e+00 2.202039e+01 -2.784544e+01
    endloop
  endfacet
  facet normal 6.772810e-01 9.656083e-04 -7.357238e-01
    outer loop
      vertex   2.988591e+00 -9.729611e+00 -2.811859e+01
      vertex   3.240039e+00 2.202039e+01 -2.784544e+01
      vertex   3.533015e+00 -9.729611e+00 -2.761741e+01
    endloop
  endfacet
  facet normal 5.469493e-01 -9.656075e-04 -8.371652e-01
    outer loop
      vertex   3.533015e+00 -9.729611e+00 -2.761741e+01
      vertex   3.240039e+00 2.202039e+01 -2.784544e+01
      vertex   3.859529e+00 2.202039e+01 -2.744071e+01
    endloop
  endfacet
  facet normal 4.016952e-01 9.656539e-04 -9.157729e-01
    outer loop
      vertex   3.533015e+00 -9.729611e+00 -2.761741e+01
      vertex   3.859529e+00 2.202039e+01 -2.744071e+01
      vertex   4.210673e+00 -9.729611e+00 -2.732016e+01
    endloop
  endfacet
  facet normal 2.454829e-01 -9.656120e-04 -9.694004e-01
    outer loop
      vertex   4.210673e+00 -9.729611e+00 -2.732016e+01
      vertex   3.859529e+00 2.202039e+01 -2.744071e+01
      vertex   4.576870e+00 2.202039e+01 -2.725906e+01
    endloop
  endfacet
  facet normal 8.257831e-02 9.656079e-04 -9.965841e-01
    outer loop
      vertex   4.210673e+00 -9.729611e+00 -2.732016e+01
      vertex   4.576870e+00 2.202039e+01 -2.725906e+01
      vertex   4.948130e+00 -9.729611e+00 -2.725906e+01
    endloop
  endfacet
  facet normal -8.257831e-02 -9.656079e-04 -9.965841e-01
    outer loop
      vertex   4.948130e+00 -9.729611e+00 -2.725906e+01
      vertex   4.576870e+00 2.202039e+01 -2.725906e+01
      vertex   5.314327e+00 2.202039e+01 -2.732016e+01
    endloop
  endfacet
  facet normal -2.454830e-01 9.656132e-04 -9.694004e-01
    outer loop
      vertex   4.948130e+00 -9.729611e+00 -2.725906e+01
      vertex   5.314327e+00 2.202039e+01 -2.732016e+01
      vertex   5.665471e+00 -9.729611e+00 -2.744071e+01
    endloop
  endfacet
  facet normal -4.016954e-01 -9.656520e-04 -9.157728e-01
    outer loop
      vertex   5.665471e+00 -9.729611e+00 -2.744071e+01
      vertex   5.314327e+00 2.202039e+01 -2.732016e+01
      vertex   5.991985e+00 2.202039e+01 -2.761741e+01
    endloop
  endfacet
  facet normal -5.469493e-01 9.656075e-04 -8.371652e-01
    outer loop
      vertex   5.665471e+00 -9.729611e+00 -2.744071e+01
      vertex   5.991985e+00 2.202039e+01 -2.761741e+01
      vertex   6.284961e+00 -9.729611e+00 -2.784544e+01
    endloop
  endfacet
  facet normal -6.772810e-01 -9.656083e-04 -7.357238e-01
    outer loop
      vertex   6.284961e+00 -9.729611e+00 -2.784544e+01
      vertex   5.991985e+00 2.202039e+01 -2.761741e+01
      vertex   6.536409e+00 2.202039e+01 -2.811859e+01
    endloop
  endfacet
  facet normal -7.891399e-01 9.656257e-04 -6.142128e-01
    outer loop
      vertex   6.284961e+00 -9.729611e+00 -2.784544e+01
      vertex   6.536409e+00 2.202039e+01 -2.811859e+01
      vertex   6.739469e+00 -9.729611e+00 -2.842940e+01
    endloop
  endfacet
  facet normal -8.794733e-01 -9.656208e-04 -4.759472e-01
    outer loop
      vertex   6.739469e+00 -9.729611e+00 -2.842940e+01
      vertex   6.536409e+00 2.202039e+01 -2.811859e+01
      vertex   6.888602e+00 2.202039e+01 -2.876939e+01
    endloop
  endfacet
  facet normal -9.458169e-01 9.656172e-04 -3.246991e-01
    outer loop
      vertex   6.739469e+00 -9.729611e+00 -2.842940e+01
      vertex   6.888602e+00 2.202039e+01 -2.876939e+01
      vertex   6.979741e+00 -9.729611e+00 -2.912929e+01
    endloop
  endfacet
  facet normal -9.863607e-01 -9.656136e-04 -1.645951e-01
    outer loop
      vertex   6.979741e+00 -9.729611e+00 -2.912929e+01
      vertex   6.888602e+00 2.202039e+01 -2.876939e+01
      vertex   7.010400e+00 2.202039e+01 -2.949928e+01
    endloop
  endfacet
  facet normal -9.999995e-01 9.656323e-04 0.000000e+00
    outer loop
      vertex   6.979741e+00 -9.729611e+00 -2.912929e+01
      vertex   7.010400e+00 2.202039e+01 -2.949928e+01
      vertex   6.979741e+00 -9.729611e+00 -2.986927e+01
    endloop
  endfacet
  facet normal -9.863607e-01 -9.656136e-04 1.645951e-01
    outer loop
      vertex   6.979741e+00 -9.729611e+00 -2.986927e+01
      vertex   7.010400e+00 2.202039e+01 -2.949928e+01
      vertex   6.888602e+00 2.202039e+01 -3.022917e+01
    endloop
  endfacet
  facet normal -9.458169e-01 9.656172e-04 3.246991e-01
    outer loop
      vertex   6.979741e+00 -9.729611e+00 -2.986927e+01
      vertex   6.888602e+00 2.202039e+01 -3.022917e+01
      vertex   6.739469e+00 -9.729611e+00 -3.056916e+01
    endloop
  endfacet
  facet normal -8.794733e-01 -9.656208e-04 4.759472e-01
    outer loop
      vertex   6.739469e+00 -9.729611e+00 -3.056916e+01
      vertex   6.888602e+00 2.202039e+01 -3.022917e+01
      vertex   6.536409e+00 2.202039e+01 -3.087997e+01
    endloop
  endfacet
  facet normal -7.891399e-01 9.656257e-04 6.142128e-01
    outer loop
      vertex   6.739469e+00 -9.729611e+00 -3.056916e+01
      vertex   6.536409e+00 2.202039e+01 -3.087997e+01
      vertex   6.284961e+00 -9.729611e+00 -3.115311e+01
    endloop
  endfacet
  facet normal -6.772810e-01 -9.656083e-04 7.357238e-01
    outer loop
      vertex   6.284961e+00 -9.729611e+00 -3.115311e+01
      vertex   6.536409e+00 2.202039e+01 -3.087997e+01
      vertex   5.991985e+00 2.202039e+01 -3.138114e+01
    endloop
  endfacet
  facet normal -5.469471e-01 9.656390e-04 8.371666e-01
    outer loop
      vertex   6.284961e+00 -9.729611e+00 -3.115311e+01
      vertex   5.991985e+00 2.202039e+01 -3.138114e+01
      vertex   5.665471e+00 -9.729611e+00 -3.155784e+01
    endloop
  endfacet
  facet normal -4.016954e-01 -9.655832e-04 9.157728e-01
    outer loop
      vertex   5.665471e+00 -9.729611e+00 -3.155784e+01
      vertex   5.991985e+00 2.202039e+01 -3.138114e+01
      vertex   5.314327e+00 2.202039e+01 -3.167839e+01
    endloop
  endfacet
  facet normal -2.454861e-01 9.656496e-04 9.693996e-01
    outer loop
      vertex   5.665471e+00 -9.729611e+00 -3.155784e+01
      vertex   5.314327e+00 2.202039e+01 -3.167839e+01
      vertex   4.948130e+00 -9.729611e+00 -3.173950e+01
    endloop
  endfacet
  facet normal -8.257831e-02 -9.656079e-04 9.965841e-01
    outer loop
      vertex   4.948130e+00 -9.729611e+00 -3.173950e+01
      vertex   5.314327e+00 2.202039e+01 -3.167839e+01
      vertex   4.576870e+00 2.202039e+01 -3.173950e+01
    endloop
  endfacet
  facet normal 8.257831e-02 9.656079e-04 9.965841e-01
    outer loop
      vertex   4.948130e+00 -9.729611e+00 -3.173950e+01
      vertex   4.576870e+00 2.202039e+01 -3.173950e+01
      vertex   4.210673e+00 -9.729611e+00 -3.167839e+01
    endloop
  endfacet
  facet normal 2.454860e-01 -9.656484e-04 9.693997e-01
    outer loop
      vertex   4.210673e+00 -9.729611e+00 -3.167839e+01
      vertex   4.576870e+00 2.202039e+01 -3.173950e+01
      vertex   3.859529e+00 2.202039e+01 -3.155784e+01
    endloop
  endfacet
  facet normal 4.016952e-01 9.655851e-04 9.157729e-01
    outer loop
      vertex   4.210673e+00 -9.729611e+00 -3.167839e+01
      vertex   3.859529e+00 2.202039e+01 -3.155784e+01
      vertex   3.533015e+00 -9.729611e+00 -3.138114e+01
    endloop
  endfacet
  facet normal 5.469471e-01 -9.656390e-04 8.371666e-01
    outer loop
      vertex   3.533015e+00 -9.729611e+00 -3.138114e+01
      vertex   3.859529e+00 2.202039e+01 -3.155784e+01
      vertex   3.240039e+00 2.202039e+01 -3.115311e+01
    endloop
  endfacet
  facet normal 6.772810e-01 9.656083e-04 7.357238e-01
    outer loop
      vertex   3.533015e+00 -9.729611e+00 -3.138114e+01
      vertex   3.240039e+00 2.202039e+01 -3.115311e+01
      vertex   2.988591e+00 -9.729611e+00 -3.087997e+01
    endloop
  endfacet
  facet normal 7.891401e-01 -9.656294e-04 6.142125e-01
    outer loop
      vertex   2.988591e+00 -9.729611e+00 -3.087997e+01
      vertex   3.240039e+00 2.202039e+01 -3.115311e+01
      vertex   2.785531e+00 2.202039e+01 -3.056916e+01
    endloop
  endfacet
  facet normal 8.794733e-01 9.656125e-04 4.759472e-01
    outer loop
      vertex   2.988591e+00 -9.729611e+00 -3.087997e+01
      vertex   2.785531e+00 2.202039e+01 -3.056916e+01
      vertex   2.636397e+00 -9.729611e+00 -3.022917e+01
    endloop
  endfacet
  facet normal 9.458167e-01 -9.656216e-04 3.246995e-01
    outer loop
      vertex   2.636397e+00 -9.729611e+00 -3.022917e+01
      vertex   2.785531e+00 2.202039e+01 -3.056916e+01
      vertex   2.545258e+00 2.202039e+01 -2.986927e+01
    endloop
  endfacet
  facet normal 0.000000e+00 1.000000e+00 0.000000e+00
    outer loop
      vertex   6.888602e+00 2.202039e+01 1.358583e+01
      vertex   7.010400e+00 2.202039e+01 1.431572e+01
      vertex   9.525000e+00 2.202039e+01 1.939572e+01
    endloop
  endfacet
  facet normal 0.000000e+00 1.000000e+00 0.000000e+00
    outer loop
      vertex   9.525000e+00 2.202039e+01 1.939572e+01
      vertex   7.010400e+00 2.202039e+01 1.431572e+01
      vertex   6.888602e+00 2.202039e+01 1.504561e+01
    endloop
  endfacet
  facet normal 0.000000e+00 1.000000e+00 0.000000e+00
    outer loop
      vertex   9.525000e+00 2.202039e+01 1.939572e+01
      vertex   6.888602e+00 2.202039e+01 1.504561e+01
      vertex   6.536409e+00 2.202039e+01 1.569641e+01
    endloop
  endfacet
  facet normal 0.000000e+00 1.000000e+00 -0.000000e+00
    outer loop
      vertex   6.536409e+00 2.202039e+01 1.569641e+01
      vertex   5.991985e+00 2.202039e+01 1.619759e+01
      vertex   9.525000e+00 2.202039e+01 1.939572e+01
    endloop
  endfacet
  facet normal 0.000000e+00 1.000000e+00 0.000000e+00
    outer loop
      vertex   9.525000e+00 2.202039e+01 1.939572e+01
      vertex   5.991985e+00 2.202039e+01 1.619759e+01
      vertex   5.314327e+00 2.202039e+01 1.649484e+01
    endloop
  endfacet
  facet normal 0.000000e+00 1.000000e+00 0.000000e+00
    outer loop
      vertex   9.525000e+00 2.202039e+01 1.939572e+01
      vertex   5.314327e+00 2.202039e+01 1.649484e+01
      vertex   4.576870e+00 2.202039e+01 1.655594e+01
    endloop
  endfacet
  facet normal 0.000000e+00 1.000000e+00 0.000000e+00
    outer loop
      vertex   9.525000e+00 2.202039e+01 1.939572e+01
      vertex   4.576870e+00 2.202039e+01 1.655594e+01
      vertex   0.000000e+00 2.202039e+01 1.939572e+01
    endloop
  endfacet
  facet normal 0.000000e+00 1.000000e+00 0.000000e+00
    outer loop
      vertex   0.000000e+00 2.202039e+01 1.939572e+01
      vertex   4.576870e+00 2.202039e+01 1.655594e+01
      vertex   3.859529e+00 2.202039e+01 1.637429e+01
    endloop
  endfacet
  facet normal 0.000000e+00 1.000000e+00 0.000000e+00
    outer loop
      vertex   0.000000e+00 2.202039e+01 1.939572e+01
      vertex   3.859529e+00 2.202039e+01 1.637429e+01
      vertex   3.240039e+00 2.202039e+01 1.596956e+01
    endloop
  endfacet
  facet normal 0.000000e+00 1.000000e+00 0.000000e+00
    outer loop
      vertex   3.240039e+00 2.202039e+01 1.596956e+01
      vertex   2.785531e+00 2.202039e+01 1.538560e+01
      vertex   0.000000e+00 2.202039e+01 1.939572e+01
    endloop
  endfacet
  facet normal 0.000000e+00 1.000000e+00 0.000000e+00
    outer loop
      vertex   0.000000e+00 2.202039e+01 1.939572e+01
      vertex   2.785531e+00 2.202039e+01 1.538560e+01
      vertex   2.545258e+00 2.202039e+01 1.468571e+01
    endloop
  endfacet
  facet normal 0.000000e+00 1.000000e+00 0.000000e+00
    outer loop
      vertex   0.000000e+00 2.202039e+01 1.939572e+01
      vertex   2.545258e+00 2.202039e+01 1.468571e+01
      vertex   2.545258e+00 2.202039e+01 1.394573e+01
    endloop
  endfacet
  facet normal 0.000000e+00 1.000000e+00 0.000000e+00
    outer loop
      vertex   2.785531e+00 2.202039e+01 1.324584e+01
      vertex   2.785531e+00 2.202039e+01 -2.842940e+01
      vertex   2.545258e+00 2.202039e+01 1.394573e+01
    endloop
  endfacet
  facet normal 0.000000e+00 1.000000e+00 0.000000e+00
    outer loop
      vertex   2.545258e+00 2.202039e+01 1.394573e+01
      vertex   2.785531e+00 2.202039e+01 -2.842940e+01
      vertex   2.545258e+00 2.202039e+01 -2.912929e+01
    endloop
  endfacet
  facet normal 0.000000e+00 1.000000e+00 0.000000e+00
    outer loop
      vertex   2.545258e+00 2.202039e+01 1.394573e+01
      vertex   2.545258e+00 2.202039e+01 -2.912929e+01
      vertex   0.000000e+00 2.202039e+01 1.939572e+01
    endloop
  endfacet
  facet normal 0.000000e+00 1.000000e+00 0.000000e+00
    outer loop
      vertex   0.000000e+00 2.202039e+01 1.939572e+01
      vertex   2.545258e+00 2.202039e+01 -2.912929e+01
      vertex   0.000000e+00 2.202039e+01 -3.457928e+01
    endloop
  endfacet
  facet normal 0.000000e+00 1.000000e+00 0.000000e+00
    outer loop
      vertex   0.000000e+00 2.202039e+01 -3.457928e+01
      vertex   2.545258e+00 2.202039e+01 -2.912929e+01
      vertex   2.545258e+00 2.202039e+01 -2.986927e+01
    endloop
  endfacet
  facet normal 0.000000e+00 1.000000e+00 0.000000e+00
    outer loop
      vertex   0.000000e+00 2.202039e+01 -3.457928e+01
      vertex   2.545258e+00 2.202039e+01 -2.986927e+01
      vertex   2.785531e+00 2.202039e+01 -3.056916e+01
    endloop
  endfacet
  facet normal 0.000000e+00 1.000000e+00 0.000000e+00
    outer loop
      vertex   2.785531e+00 2.202039e+01 -2.842940e+01
      vertex   2.785531e+00 2.202039e+01 1.324584e+01
      vertex   3.240039e+00 2.202039e+01 -2.784544e+01
    endloop
  endfacet
  facet normal 0.000000e+00 1.000000e+00 -0.000000e+00
    outer loop
      vertex   3.240039e+00 2.202039e+01 -2.784544e+01
      vertex   2.785531e+00 2.202039e+01 1.324584e+01
      vertex   3.240039e+00 2.202039e+01 1.266189e+01
    endloop
  endfacet
  facet normal 0.000000e+00 1.000000e+00 0.000000e+00
    outer loop
      vertex   3.240039e+00 2.202039e+01 -2.784544e+01
      vertex   3.240039e+00 2.202039e+01 1.266189e+01
      vertex   3.859529e+00 2.202039e+01 -2.744071e+01
    endloop
  endfacet
  facet normal 0.000000e+00 1.000000e+00 -0.000000e+00
    outer loop
      vertex   3.859529e+00 2.202039e+01 -2.744071e+01
      vertex   3.240039e+00 2.202039e+01 1.266189e+01
      vertex   3.859529e+00 2.202039e+01 1.225716e+01
    endloop
  endfacet
  facet normal 0.000000e+00 1.000000e+00 0.000000e+00
    outer loop
      vertex   3.859529e+00 2.202039e+01 -2.744071e+01
      vertex   3.859529e+00 2.202039e+01 1.225716e+01
      vertex   4.576870e+00 2.202039e+01 -2.725906e+01
    endloop
  endfacet
  facet normal 0.000000e+00 1.000000e+00 -0.000000e+00
    outer loop
      vertex   4.576870e+00 2.202039e+01 -2.725906e+01
      vertex   3.859529e+00 2.202039e+01 1.225716e+01
      vertex   4.576870e+00 2.202039e+01 1.207550e+01
    endloop
  endfacet
  facet normal -0.000000e+00 1.000000e+00 0.000000e+00
    outer loop
      vertex   4.576870e+00 2.202039e+01 -2.725906e+01
      vertex   4.576870e+00 2.202039e+01 1.207550e+01
      vertex   5.314327e+00 2.202039e+01 -2.732016e+01
    endloop
  endfacet
  facet normal 0.000000e+00 1.000000e+00 -0.000000e+00
    outer loop
      vertex   5.314327e+00 2.202039e+01 -2.732016e+01
      vertex   4.576870e+00 2.202039e+01 1.207550e+01
      vertex   5.314327e+00 2.202039e+01 1.213661e+01
    endloop
  endfacet
  facet normal -0.000000e+00 1.000000e+00 0.000000e+00
    outer loop
      vertex   5.314327e+00 2.202039e+01 -2.732016e+01
      vertex   5.314327e+00 2.202039e+01 1.213661e+01
      vertex   5.991985e+00 2.202039e+01 -2.761741e+01
    endloop
  endfacet
  facet normal 0.000000e+00 1.000000e+00 -0.000000e+00
    outer loop
      vertex   5.991985e+00 2.202039e+01 -2.761741e+01
      vertex   5.314327e+00 2.202039e+01 1.213661e+01
      vertex   5.991985e+00 2.202039e+01 1.243386e+01
    endloop
  endfacet
  facet normal -0.000000e+00 1.000000e+00 0.000000e+00
    outer loop
      vertex   5.991985e+00 2.202039e+01 -2.761741e+01
      vertex   5.991985e+00 2.202039e+01 1.243386e+01
      vertex   6.536409e+00 2.202039e+01 -2.811859e+01
    endloop
  endfacet
  facet normal 0.000000e+00 1.000000e+00 -0.000000e+00
    outer loop
      vertex   6.536409e+00 2.202039e+01 -2.811859e+01
      vertex   5.991985e+00 2.202039e+01 1.243386e+01
      vertex   6.536409e+00 2.202039e+01 1.293503e+01
    endloop
  endfacet
  facet normal -0.000000e+00 1.000000e+00 0.000000e+00
    outer loop
      vertex   6.536409e+00 2.202039e+01 -2.811859e+01
      vertex   6.536409e+00 2.202039e+01 1.293503e+01
      vertex   6.888602e+00 2.202039e+01 -2.876939e+01
    endloop
  endfacet
  facet normal 0.000000e+00 1.000000e+00 -0.000000e+00
    outer loop
      vertex   6.888602e+00 2.202039e+01 -2.876939e+01
      vertex   6.536409e+00 2.202039e+01 1.293503e+01
      vertex   6.888602e+00 2.202039e+01 1.358583e+01
    endloop
  endfacet
  facet normal -0.000000e+00 1.000000e+00 0.000000e+00
    outer loop
      vertex   6.888602e+00 2.202039e+01 -2.876939e+01
      vertex   6.888602e+00 2.202039e+01 1.358583e+01
      vertex   9.525000e+00 2.202039e+01 -3.457928e+01
    endloop
  endfacet
  facet normal 0.000000e+00 1.000000e+00 -0.000000e+00
    outer loop
      vertex   9.525000e+00 2.202039e+01 -3.457928e+01
      vertex   6.888602e+00 2.202039e+01 1.358583e+01
      vertex   9.525000e+00 2.202039e+01 1.939572e+01
    endloop
  endfacet
  facet normal -0.000000e+00 1.000000e+00 0.000000e+00
    outer loop
      vertex   6.888602e+00 2.202039e+01 -3.022917e+01
      vertex   7.010400e+00 2.202039e+01 -2.949928e+01
      vertex   9.525000e+00 2.202039e+01 -3.457928e+01
    endloop
  endfacet
  facet normal 0.000000e+00 1.000000e+00 0.000000e+00
    outer loop
      vertex   9.525000e+00 2.202039e+01 -3.457928e+01
      vertex   7.010400e+00 2.202039e+01 -2.949928e+01
      vertex   6.888602e+00 2.202039e+01 -2.876939e+01
    endloop
  endfacet
  facet normal 0.000000e+00 1.000000e+00 0.000000e+00
    outer loop
      vertex   2.785531e+00 2.202039e+01 -3.056916e+01
      vertex   3.240039e+00 2.202039e+01 -3.115311e+01
      vertex   0.000000e+00 2.202039e+01 -3.457928e+01
    endloop
  endfacet
  facet normal 0.000000e+00 1.000000e+00 0.000000e+00
    outer loop
      vertex   0.000000e+00 2.202039e+01 -3.457928e+01
      vertex   3.240039e+00 2.202039e+01 -3.115311e+01
      vertex   3.859529e+00 2.202039e+01 -3.155784e+01
    endloop
  endfacet
  facet normal 0.000000e+00 1.000000e+00 0.000000e+00
    outer loop
      vertex   0.000000e+00 2.202039e+01 -3.457928e+01
      vertex   3.859529e+00 2.202039e+01 -3.155784e+01
      vertex   4.576870e+00 2.202039e+01 -3.173950e+01
    endloop
  endfacet
  facet normal 0.000000e+00 1.000000e+00 0.000000e+00
    outer loop
      vertex   0.000000e+00 2.202039e+01 -3.457928e+01
      vertex   4.576870e+00 2.202039e+01 -3.173950e+01
      vertex   9.525000e+00 2.202039e+01 -3.457928e+01
    endloop
  endfacet
  facet normal 0.000000e+00 1.000000e+00 0.000000e+00
    outer loop
      vertex   9.525000e+00 2.202039e+01 -3.457928e+01
      vertex   4.576870e+00 2.202039e+01 -3.173950e+01
      vertex   5.314327e+00 2.202039e+01 -3.167839e+01
    endloop
  endfacet
  facet normal 0.000000e+00 1.000000e+00 0.000000e+00
    outer loop
      vertex   9.525000e+00 2.202039e+01 -3.457928e+01
      vertex   5.314327e+00 2.202039e+01 -3.167839e+01
      vertex   5.991985e+00 2.202039e+01 -3.138114e+01
    endloop
  endfacet
  facet normal -0.000000e+00 1.000000e+00 0.000000e+00
    outer loop
      vertex   5.991985e+00 2.202039e+01 -3.138114e+01
      vertex   6.536409e+00 2.202039e+01 -3.087997e+01
      vertex   9.525000e+00 2.202039e+01 -3.457928e+01
    endloop
  endfacet
  facet normal 0.000000e+00 1.000000e+00 0.000000e+00
    outer loop
      vertex   9.525000e+00 2.202039e+01 -3.457928e+01
      vertex   6.536409e+00 2.202039e+01 -3.087997e+01
      vertex   6.888602e+00 2.202039e+01 -3.022917e+01
    endloop
  endfacet
  facet normal 0.000000e+00 0.000000e+00 -1.000000e+00
    outer loop
      vertex   0.000000e+00 -9.729611e+00 -3.457928e+01
      vertex   0.000000e+00 2.202039e+01 -3.457928e+01
      vertex   9.525000e+00 -9.729611e+00 -3.457928e+01
    endloop
  endfacet
  facet normal 0.000000e+00 0.000000e+00 -1.000000e+00
    outer loop
      vertex   9.525000e+00 -9.729611e+00 -3.457928e+01
      vertex   0.000000e+00 2.202039e+01 -3.457928e+01
      vertex   9.525000e+00 2.202039e+01 -3.457928e+01
    endloop
  endfacet
  facet normal -0.000000e+00 -1.000000e+00 0.000000e+00
    outer loop
      vertex   2.636397e+00 -9.729611e+00 -2.876939e+01
      vertex   0.000000e+00 -9.729611e+00 -2.505428e+01
      vertex   2.514600e+00 -9.729611e+00 -2.949928e+01
    endloop
  endfacet
  facet normal -0.000000e+00 -1.000000e+00 0.000000e+00
    outer loop
      vertex   2.514600e+00 -9.729611e+00 -2.949928e+01
      vertex   0.000000e+00 -9.729611e+00 -2.505428e+01
      vertex   0.000000e+00 -9.729611e+00 -3.457928e+01
    endloop
  endfacet
  facet normal 0.000000e+00 -1.000000e+00 -0.000000e+00
    outer loop
      vertex   2.514600e+00 -9.729611e+00 -2.949928e+01
      vertex   0.000000e+00 -9.729611e+00 -3.457928e+01
      vertex   2.636397e+00 -9.729611e+00 -3.022917e+01
    endloop
  endfacet
  facet normal 0.000000e+00 -1.000000e+00 -0.000000e+00
    outer loop
      vertex   2.636397e+00 -9.729611e+00 -3.022917e+01
      vertex   0.000000e+00 -9.729611e+00 -3.457928e+01
      vertex   2.988591e+00 -9.729611e+00 -3.087997e+01
    endloop
  endfacet
  facet normal 0.000000e+00 -1.000000e+00 -0.000000e+00
    outer loop
      vertex   2.988591e+00 -9.729611e+00 -3.087997e+01
      vertex   0.000000e+00 -9.729611e+00 -3.457928e+01
      vertex   3.533015e+00 -9.729611e+00 -3.138114e+01
    endloop
  endfacet
  facet normal 0.000000e+00 -1.000000e+00 -0.000000e+00
    outer loop
      vertex   3.533015e+00 -9.729611e+00 -3.138114e+01
      vertex   0.000000e+00 -9.729611e+00 -3.457928e+01
      vertex   4.210673e+00 -9.729611e+00 -3.167839e+01
    endloop
  endfacet
  facet normal 0.000000e+00 -1.000000e+00 -0.000000e+00
    outer loop
      vertex   4.210673e+00 -9.729611e+00 -3.167839e+01
      vertex   0.000000e+00 -9.729611e+00 -3.457928e+01
      vertex   4.948130e+00 -9.729611e+00 -3.173950e+01
    endloop
  endfacet
  facet normal 0.000000e+00 -1.000000e+00 -0.000000e+00
    outer loop
      vertex   4.948130e+00 -9.729611e+00 -3.173950e+01
      vertex   0.000000e+00 -9.729611e+00 -3.457928e+01
      vertex   9.525000e+00 -9.729611e+00 -3.457928e+01
    endloop
  endfacet
  facet normal 0.000000e+00 -1.000000e+00 0.000000e+00
    outer loop
      vertex   4.948130e+00 -9.729611e+00 -3.173950e+01
      vertex   9.525000e+00 -9.729611e+00 -3.457928e+01
      vertex   5.665471e+00 -9.729611e+00 -3.155784e+01
    endloop
  endfacet
  facet normal 0.000000e+00 -1.000000e+00 0.000000e+00
    outer loop
      vertex   5.665471e+00 -9.729611e+00 -3.155784e+01
      vertex   9.525000e+00 -9.729611e+00 -3.457928e+01
      vertex   6.284961e+00 -9.729611e+00 -3.115311e+01
    endloop
  endfacet
  facet normal 0.000000e+00 -1.000000e+00 0.000000e+00
    outer loop
      vertex   6.284961e+00 -9.729611e+00 -3.115311e+01
      vertex   9.525000e+00 -9.729611e+00 -3.457928e+01
      vertex   6.739469e+00 -9.729611e+00 -3.056916e+01
    endloop
  endfacet
  facet normal 0.000000e+00 -1.000000e+00 0.000000e+00
    outer loop
      vertex   6.739469e+00 -9.729611e+00 -3.056916e+01
      vertex   9.525000e+00 -9.729611e+00 -3.457928e+01
      vertex   6.979741e+00 -9.729611e+00 -2.986927e+01
    endloop
  endfacet
  facet normal 0.000000e+00 -1.000000e+00 0.000000e+00
    outer loop
      vertex   6.979741e+00 -9.729611e+00 -2.986927e+01
      vertex   9.525000e+00 -9.729611e+00 -3.457928e+01
      vertex   9.525000e+00 -9.729611e+00 -2.505428e+01
    endloop
  endfacet
  facet normal 0.000000e+00 -1.000000e+00 0.000000e+00
    outer loop
      vertex   6.979741e+00 -9.729611e+00 -2.986927e+01
      vertex   9.525000e+00 -9.729611e+00 -2.505428e+01
      vertex   6.979741e+00 -9.729611e+00 -2.912929e+01
    endloop
  endfacet
  facet normal 0.000000e+00 -1.000000e+00 0.000000e+00
    outer loop
      vertex   6.979741e+00 -9.729611e+00 -2.912929e+01
      vertex   9.525000e+00 -9.729611e+00 -2.505428e+01
      vertex   6.739469e+00 -9.729611e+00 -2.842940e+01
    endloop
  endfacet
  facet normal 0.000000e+00 -1.000000e+00 0.000000e+00
    outer loop
      vertex   6.739469e+00 -9.729611e+00 -2.842940e+01
      vertex   9.525000e+00 -9.729611e+00 -2.505428e+01
      vertex   6.284961e+00 -9.729611e+00 -2.784544e+01
    endloop
  endfacet
  facet normal 0.000000e+00 -1.000000e+00 0.000000e+00
    outer loop
      vertex   6.284961e+00 -9.729611e+00 -2.784544e+01
      vertex   9.525000e+00 -9.729611e+00 -2.505428e+01
      vertex   5.665471e+00 -9.729611e+00 -2.744071e+01
    endloop
  endfacet
  facet normal 0.000000e+00 -1.000000e+00 0.000000e+00
    outer loop
      vertex   5.665471e+00 -9.729611e+00 -2.744071e+01
      vertex   9.525000e+00 -9.729611e+00 -2.505428e+01
      vertex   4.948130e+00 -9.729611e+00 -2.725906e+01
    endloop
  endfacet
  facet normal 0.000000e+00 -1.000000e+00 0.000000e+00
    outer loop
      vertex   4.948130e+00 -9.729611e+00 -2.725906e+01
      vertex   9.525000e+00 -9.729611e+00 -2.505428e+01
      vertex   0.000000e+00 -9.729611e+00 -2.505428e+01
    endloop
  endfacet
  facet normal -0.000000e+00 -1.000000e+00 0.000000e+00
    outer loop
      vertex   4.948130e+00 -9.729611e+00 -2.725906e+01
      vertex   0.000000e+00 -9.729611e+00 -2.505428e+01
      vertex   4.210673e+00 -9.729611e+00 -2.732016e+01
    endloop
  endfacet
  facet normal -0.000000e+00 -1.000000e+00 0.000000e+00
    outer loop
      vertex   4.210673e+00 -9.729611e+00 -2.732016e+01
      vertex   0.000000e+00 -9.729611e+00 -2.505428e+01
      vertex   3.533015e+00 -9.729611e+00 -2.761741e+01
    endloop
  endfacet
  facet normal -0.000000e+00 -1.000000e+00 0.000000e+00
    outer loop
      vertex   3.533015e+00 -9.729611e+00 -2.761741e+01
      vertex   0.000000e+00 -9.729611e+00 -2.505428e+01
      vertex   2.988591e+00 -9.729611e+00 -2.811859e+01
    endloop
  endfacet
  facet normal -0.000000e+00 -1.000000e+00 0.000000e+00
    outer loop
      vertex   2.988591e+00 -9.729611e+00 -2.811859e+01
      vertex   0.000000e+00 -9.729611e+00 -2.505428e+01
      vertex   2.636397e+00 -9.729611e+00 -2.876939e+01
    endloop
  endfacet
  facet normal -0.000000e+00 0.000000e+00 1.000000e+00
    outer loop
      vertex   0.000000e+00 1.211439e+01 -2.505428e+01
      vertex   0.000000e+00 -9.729611e+00 -2.505428e+01
      vertex   5.000000e+00 1.211439e+01 -2.505428e+01
    endloop
  endfacet
  facet normal 0.000000e+00 0.000000e+00 1.000000e+00
    outer loop
      vertex   5.000000e+00 1.211439e+01 -2.505428e+01
      vertex   0.000000e+00 -9.729611e+00 -2.505428e+01
      vertex   9.525000e+00 -9.729611e+00 -2.505428e+01
    endloop
  endfacet
  facet normal -0.000000e+00 0.000000e+00 1.000000e+00
    outer loop
      vertex   5.000000e+00 1.211439e+01 -2.505428e+01
      vertex   9.525000e+00 -9.729611e+00 -2.505428e+01
      vertex   9.525000e+00 1.567039e+01 -2.505428e+01
    endloop
  endfacet
  facet normal 0.000000e+00 0.000000e+00 1.000000e+00
    outer loop
      vertex   9.525000e+00 1.567039e+01 -2.505428e+01
      vertex   5.000000e+00 1.567039e+01 -2.505428e+01
      vertex   5.000000e+00 1.211439e+01 -2.505428e+01
    endloop
  endfacet
  facet normal 0.000000e+00 0.000000e+00 -1.000000e+00
    outer loop
      vertex   5.000000e+00 1.567039e+01 9.870722e+00
      vertex   9.525000e+00 1.567039e+01 9.870722e+00
      vertex   5.000000e+00 1.211439e+01 9.870722e+00
    endloop
  endfacet
  facet normal 0.000000e+00 0.000000e+00 -1.000000e+00
    outer loop
      vertex   5.000000e+00 1.211439e+01 9.870722e+00
      vertex   9.525000e+00 1.567039e+01 9.870722e+00
      vertex   9.525000e+00 -9.729611e+00 9.870722e+00
    endloop
  endfacet
  facet normal 0.000000e+00 -0.000000e+00 -1.000000e+00
    outer loop
      vertex   5.000000e+00 1.211439e+01 9.870722e+00
      vertex   9.525000e+00 -9.729611e+00 9.870722e+00
      vertex   0.000000e+00 -9.729611e+00 9.870722e+00
    endloop
  endfacet
  facet normal 0.000000e+00 0.000000e+00 -1.000000e+00
    outer loop
      vertex   0.000000e+00 -9.729611e+00 9.870722e+00
      vertex   0.000000e+00 1.211439e+01 9.870722e+00
      vertex   5.000000e+00 1.211439e+01 9.870722e+00
    endloop
  endfacet
  facet normal -0.000000e+00 -1.000000e+00 0.000000e+00
    outer loop
      vertex   2.636397e+00 -9.729611e+00 1.504561e+01
      vertex   0.000000e+00 -9.729611e+00 1.939572e+01
      vertex   2.514600e+00 -9.729611e+00 1.431572e+01
    endloop
  endfacet
  facet normal -0.000000e+00 -1.000000e+00 0.000000e+00
    outer loop
      vertex   2.514600e+00 -9.729611e+00 1.431572e+01
      vertex   0.000000e+00 -9.729611e+00 1.939572e+01
      vertex   0.000000e+00 -9.729611e+00 9.870722e+00
    endloop
  endfacet
  facet normal 0.000000e+00 -1.000000e+00 -0.000000e+00
    outer loop
      vertex   2.514600e+00 -9.729611e+00 1.431572e+01
      vertex   0.000000e+00 -9.729611e+00 9.870722e+00
      vertex   2.636397e+00 -9.729611e+00 1.358583e+01
    endloop
  endfacet
  facet normal 0.000000e+00 -1.000000e+00 -0.000000e+00
    outer loop
      vertex   2.636397e+00 -9.729611e+00 1.358583e+01
      vertex   0.000000e+00 -9.729611e+00 9.870722e+00
      vertex   2.988591e+00 -9.729611e+00 1.293503e+01
    endloop
  endfacet
  facet normal 0.000000e+00 -1.000000e+00 -0.000000e+00
    outer loop
      vertex   2.988591e+00 -9.729611e+00 1.293503e+01
      vertex   0.000000e+00 -9.729611e+00 9.870722e+00
      vertex   3.533015e+00 -9.729611e+00 1.243386e+01
    endloop
  endfacet
  facet normal 0.000000e+00 -1.000000e+00 -0.000000e+00
    outer loop
      vertex   3.533015e+00 -9.729611e+00 1.243386e+01
      vertex   0.000000e+00 -9.729611e+00 9.870722e+00
      vertex   4.210673e+00 -9.729611e+00 1.213661e+01
    endloop
  endfacet
  facet normal 0.000000e+00 -1.000000e+00 -0.000000e+00
    outer loop
      vertex   4.210673e+00 -9.729611e+00 1.213661e+01
      vertex   0.000000e+00 -9.729611e+00 9.870722e+00
      vertex   4.948130e+00 -9.729611e+00 1.207550e+01
    endloop
  endfacet
  facet normal 0.000000e+00 -1.000000e+00 -0.000000e+00
    outer loop
      vertex   4.948130e+00 -9.729611e+00 1.207550e+01
      vertex   0.000000e+00 -9.729611e+00 9.870722e+00
      vertex   9.525000e+00 -9.729611e+00 9.870722e+00
    endloop
  endfacet
  facet normal 0.000000e+00 -1.000000e+00 0.000000e+00
    outer loop
      vertex   4.948130e+00 -9.729611e+00 1.207550e+01
      vertex   9.525000e+00 -9.729611e+00 9.870722e+00
      vertex   5.665471e+00 -9.729611e+00 1.225716e+01
    endloop
  endfacet
  facet normal 0.000000e+00 -1.000000e+00 0.000000e+00
    outer loop
      vertex   5.665471e+00 -9.729611e+00 1.225716e+01
      vertex   9.525000e+00 -9.729611e+00 9.870722e+00
      vertex   6.284961e+00 -9.729611e+00 1.266189e+01
    endloop
  endfacet
  facet normal 0.000000e+00 -1.000000e+00 0.000000e+00
    outer loop
      vertex   6.284961e+00 -9.729611e+00 1.266189e+01
      vertex   9.525000e+00 -9.729611e+00 9.870722e+00
      vertex   6.739469e+00 -9.729611e+00 1.324584e+01
    endloop
  endfacet
  facet normal 0.000000e+00 -1.000000e+00 0.000000e+00
    outer loop
      vertex   6.739469e+00 -9.729611e+00 1.324584e+01
      vertex   9.525000e+00 -9.729611e+00 9.870722e+00
      vertex   6.979741e+00 -9.729611e+00 1.394573e+01
    endloop
  endfacet
  facet normal 0.000000e+00 -1.000000e+00 0.000000e+00
    outer loop
      vertex   6.979741e+00 -9.729611e+00 1.394573e+01
      vertex   9.525000e+00 -9.729611e+00 9.870722e+00
      vertex   6.979741e+00 -9.729611e+00 1.468571e+01
    endloop
  endfacet
  facet normal 0.000000e+00 -1.000000e+00 0.000000e+00
    outer loop
      vertex   6.979741e+00 -9.729611e+00 1.468571e+01
      vertex   9.525000e+00 -9.729611e+00 9.870722e+00
      vertex   9.525000e+00 -9.729611e+00 1.939572e+01
    endloop
  endfacet
  facet normal 0.000000e+00 -1.000000e+00 0.000000e+00
    outer loop
      vertex   6.979741e+00 -9.729611e+00 1.468571e+01
      vertex   9.525000e+00 -9.729611e+00 1.939572e+01
      vertex   6.739469e+00 -9.729611e+00 1.538560e+01
    endloop
  endfacet
  facet normal 0.000000e+00 -1.000000e+00 0.000000e+00
    outer loop
      vertex   6.739469e+00 -9.729611e+00 1.538560e+01
      vertex   9.525000e+00 -9.729611e+00 1.939572e+01
      vertex   6.284961e+00 -9.729611e+00 1.596956e+01
    endloop
  endfacet
  facet normal 0.000000e+00 -1.000000e+00 0.000000e+00
    outer loop
      vertex   6.284961e+00 -9.729611e+00 1.596956e+01
      vertex   9.525000e+00 -9.729611e+00 1.939572e+01
      vertex   5.665471e+00 -9.729611e+00 1.637429e+01
    endloop
  endfacet
  facet normal 0.000000e+00 -1.000000e+00 0.000000e+00
    outer loop
      vertex   5.665471e+00 -9.729611e+00 1.637429e+01
      vertex   9.525000e+00 -9.729611e+00 1.939572e+01
      vertex   4.948130e+00 -9.729611e+00 1.655594e+01
    endloop
  endfacet
  facet normal 0.000000e+00 -1.000000e+00 0.000000e+00
    outer loop
      vertex   4.948130e+00 -9.729611e+00 1.655594e+01
      vertex   9.525000e+00 -9.729611e+00 1.939572e+01
      vertex   0.000000e+00 -9.729611e+00 1.939572e+01
    endloop
  endfacet
  facet normal -0.000000e+00 -1.000000e+00 0.000000e+00
    outer loop
      vertex   4.948130e+00 -9.729611e+00 1.655594e+01
      vertex   0.000000e+00 -9.729611e+00 1.939572e+01
      vertex   4.210673e+00 -9.729611e+00 1.649484e+01
    endloop
  endfacet
  facet normal -0.000000e+00 -1.000000e+00 0.000000e+00
    outer loop
      vertex   4.210673e+00 -9.729611e+00 1.649484e+01
      vertex   0.000000e+00 -9.729611e+00 1.939572e+01
      vertex   3.533015e+00 -9.729611e+00 1.619759e+01
    endloop
  endfacet
  facet normal -0.000000e+00 -1.000000e+00 0.000000e+00
    outer loop
      vertex   3.533015e+00 -9.729611e+00 1.619759e+01
      vertex   0.000000e+00 -9.729611e+00 1.939572e+01
      vertex   2.988591e+00 -9.729611e+00 1.569641e+01
    endloop
  endfacet
  facet normal -0.000000e+00 -1.000000e+00 0.000000e+00
    outer loop
      vertex   2.988591e+00 -9.729611e+00 1.569641e+01
      vertex   0.000000e+00 -9.729611e+00 1.939572e+01
      vertex   2.636397e+00 -9.729611e+00 1.504561e+01
    endloop
  endfacet
  facet normal -0.000000e+00 0.000000e+00 1.000000e+00
    outer loop
      vertex   0.000000e+00 2.202039e+01 1.939572e+01
      vertex   0.000000e+00 -9.729611e+00 1.939572e+01
      vertex   9.525000e+00 2.202039e+01 1.939572e+01
    endloop
  endfacet
  facet normal 0.000000e+00 0.000000e+00 1.000000e+00
    outer loop
      vertex   9.525000e+00 2.202039e+01 1.939572e+01
      vertex   0.000000e+00 -9.729611e+00 1.939572e+01
      vertex   9.525000e+00 -9.729611e+00 1.939572e+01
    endloop
  endfacet
  facet normal 1.000000e+00 -0.000000e+00 0.000000e+00
    outer loop
      vertex   9.525000e+00 1.567039e+01 -1.552928e+01
      vertex   9.525000e+00 1.567039e+01 -2.505428e+01
      vertex   9.525000e+00 1.770239e+01 -1.552928e+01
    endloop
  endfacet
  facet normal 1.000000e+00 0.000000e+00 0.000000e+00
    outer loop
      vertex   9.525000e+00 1.770239e+01 -1.552928e+01
      vertex   9.525000e+00 1.567039e+01 -2.505428e+01
      vertex   9.525000e+00 2.202039e+01 -3.457928e+01
    endloop
  endfacet
  facet normal 1.000000e+00 -0.000000e+00 0.000000e+00
    outer loop
      vertex   9.525000e+00 1.770239e+01 -1.552928e+01
      vertex   9.525000e+00 2.202039e+01 -3.457928e+01
      vertex   9.525000e+00 2.202039e+01 1.939572e+01
    endloop
  endfacet
  facet normal 1.000000e+00 -0.000000e+00 0.000000e+00
    outer loop
      vertex   9.525000e+00 -9.729611e+00 -2.505428e+01
      vertex   9.525000e+00 -9.729611e+00 -3.457928e+01
      vertex   9.525000e+00 1.567039e+01 -2.505428e+01
    endloop
  endfacet
  facet normal 1.000000e+00 0.000000e+00 0.000000e+00
    outer loop
      vertex   9.525000e+00 1.567039e+01 -2.505428e+01
      vertex   9.525000e+00 -9.729611e+00 -3.457928e+01
      vertex   9.525000e+00 2.202039e+01 -3.457928e+01
    endloop
  endfacet
  facet normal 1.000000e+00 -0.000000e+00 0.000000e+00
    outer loop
      vertex   9.525000e+00 -9.729611e+00 1.939572e+01
      vertex   9.525000e+00 1.567039e+01 9.870722e+00
      vertex   9.525000e+00 2.202039e+01 1.939572e+01
    endloop
  endfacet
  facet normal 1.000000e+00 0.000000e+00 0.000000e+00
    outer loop
      vertex   9.525000e+00 2.202039e+01 1.939572e+01
      vertex   9.525000e+00 1.567039e+01 9.870722e+00
      vertex   9.525000e+00 1.770239e+01 3.457222e-01
    endloop
  endfacet
  facet normal 1.000000e+00 0.000000e+00 0.000000e+00
    outer loop
      vertex   9.525000e+00 2.202039e+01 1.939572e+01
      vertex   9.525000e+00 1.770239e+01 3.457222e-01
      vertex   9.525000e+00 1.770239e+01 -1.552928e+01
    endloop
  endfacet
  facet normal 1.000000e+00 0.000000e+00 0.000000e+00
    outer loop
      vertex   9.525000e+00 -9.729611e+00 1.939572e+01
      vertex   9.525000e+00 -9.729611e+00 9.870722e+00
      vertex   9.525000e+00 1.567039e+01 9.870722e+00
    endloop
  endfacet
  facet normal 1.000000e+00 0.000000e+00 0.000000e+00
    outer loop
      vertex   9.525000e+00 1.567039e+01 9.870722e+00
      vertex   9.525000e+00 1.567039e+01 3.457222e-01
      vertex   9.525000e+00 1.770239e+01 3.457222e-01
    endloop
  endfacet
endsolid
