solid ASCII
  facet normal 8.521723e-01 -1.164370e-01 5.101419e-01
    outer loop
      vertex   8.255000e+01 2.559155e+01 1.733365e+01
      vertex   8.140960e+01 2.476500e+01 1.905000e+01
      vertex   8.255000e+01 2.476500e+01 1.714500e+01
    endloop
  endfacet
  facet normal 8.521723e-01 -4.714420e-01 2.270347e-01
    outer loop
      vertex   8.255000e+01 2.662224e+01 1.862610e+01
      vertex   8.140960e+01 2.476500e+01 1.905000e+01
      vertex   8.255000e+01 2.625439e+01 1.786225e+01
    endloop
  endfacet
  facet normal 8.521723e-01 -4.714421e-01 -2.270344e-01
    outer loop
      vertex   8.255000e+01 2.625439e+01 2.023775e+01
      vertex   8.140960e+01 2.476500e+01 1.905000e+01
      vertex   8.255000e+01 2.662224e+01 1.947390e+01
    endloop
  endfacet
  facet normal 8.521724e-01 -1.164363e-01 -5.101420e-01
    outer loop
      vertex   8.255000e+01 2.476500e+01 2.095500e+01
      vertex   8.140960e+01 2.476500e+01 1.905000e+01
      vertex   8.255000e+01 2.559155e+01 2.076635e+01
    endloop
  endfacet
  facet normal 8.521725e-01 3.262483e-01 -4.091016e-01
    outer loop
      vertex   8.255000e+01 2.327561e+01 2.023775e+01
      vertex   8.140960e+01 2.476500e+01 1.905000e+01
      vertex   8.255000e+01 2.393845e+01 2.076635e+01
    endloop
  endfacet
  facet normal 8.521723e-01 5.232612e-01 -0.000000e+00
    outer loop
      vertex   8.255000e+01 2.290776e+01 1.862610e+01
      vertex   8.140960e+01 2.476500e+01 1.905000e+01
      vertex   8.255000e+01 2.290776e+01 1.947390e+01
    endloop
  endfacet
  facet normal 8.521723e-01 4.714420e-01 2.270347e-01
    outer loop
      vertex   8.255000e+01 2.327561e+01 1.786225e+01
      vertex   8.140960e+01 2.476500e+01 1.905000e+01
      vertex   8.255000e+01 2.290776e+01 1.862610e+01
    endloop
  endfacet
  facet normal 8.521723e-01 1.164366e-01 5.101420e-01
    outer loop
      vertex   8.255000e+01 2.476500e+01 1.714500e+01
      vertex   8.140960e+01 2.476500e+01 1.905000e+01
      vertex   8.255000e+01 2.393845e+01 1.733365e+01
    endloop
  endfacet
  facet normal 8.521724e-01 1.164359e-01 -5.101420e-01
    outer loop
      vertex   8.255000e+01 2.393845e+01 2.076635e+01
      vertex   8.140960e+01 2.476500e+01 1.905000e+01
      vertex   8.255000e+01 2.476500e+01 2.095500e+01
    endloop
  endfacet
  facet normal 8.521724e-01 -3.262477e-01 -4.091023e-01
    outer loop
      vertex   8.255000e+01 2.559155e+01 2.076635e+01
      vertex   8.140960e+01 2.476500e+01 1.905000e+01
      vertex   8.255000e+01 2.625439e+01 2.023775e+01
    endloop
  endfacet
  facet normal 8.521723e-01 -5.232612e-01 0.000000e+00
    outer loop
      vertex   8.255000e+01 2.662224e+01 1.947390e+01
      vertex   8.140960e+01 2.476500e+01 1.905000e+01
      vertex   8.255000e+01 2.662224e+01 1.862610e+01
    endloop
  endfacet
  facet normal 8.521722e-01 -3.262478e-01 4.091025e-01
    outer loop
      vertex   8.255000e+01 2.625439e+01 1.786225e+01
      vertex   8.140960e+01 2.476500e+01 1.905000e+01
      vertex   8.255000e+01 2.559155e+01 1.733365e+01
    endloop
  endfacet
  facet normal 8.521723e-01 3.262484e-01 4.091018e-01
    outer loop
      vertex   8.255000e+01 2.393845e+01 1.733365e+01
      vertex   8.140960e+01 2.476500e+01 1.905000e+01
      vertex   8.255000e+01 2.327561e+01 1.786225e+01
    endloop
  endfacet
  facet normal 8.521723e-01 4.714421e-01 -2.270344e-01
    outer loop
      vertex   8.255000e+01 2.290776e+01 1.947390e+01
      vertex   8.140960e+01 2.476500e+01 1.905000e+01
      vertex   8.255000e+01 2.327561e+01 2.023775e+01
    endloop
  endfacet
  facet normal 0.000000e+00 -2.225217e-01 9.749277e-01
    outer loop
      vertex   9.525000e+01 2.559155e+01 1.733365e+01
      vertex   8.255000e+01 2.559155e+01 1.733365e+01
      vertex   9.525000e+01 2.476500e+01 1.714500e+01
    endloop
  endfacet
  facet normal 0.000000e+00 -2.225217e-01 9.749277e-01
    outer loop
      vertex   9.525000e+01 2.476500e+01 1.714500e+01
      vertex   8.255000e+01 2.559155e+01 1.733365e+01
      vertex   8.255000e+01 2.476500e+01 1.714500e+01
    endloop
  endfacet
  facet normal 0.000000e+00 2.225211e-01 9.749279e-01
    outer loop
      vertex   9.525000e+01 2.476500e+01 1.714500e+01
      vertex   8.255000e+01 2.476500e+01 1.714500e+01
      vertex   9.525000e+01 2.393845e+01 1.733365e+01
    endloop
  endfacet
  facet normal 0.000000e+00 2.225211e-01 9.749279e-01
    outer loop
      vertex   9.525000e+01 2.393845e+01 1.733365e+01
      vertex   8.255000e+01 2.476500e+01 1.714500e+01
      vertex   8.255000e+01 2.393845e+01 1.733365e+01
    endloop
  endfacet
  facet normal 0.000000e+00 6.234906e-01 7.818309e-01
    outer loop
      vertex   9.525000e+01 2.393845e+01 1.733365e+01
      vertex   8.255000e+01 2.393845e+01 1.733365e+01
      vertex   9.525000e+01 2.327561e+01 1.786225e+01
    endloop
  endfacet
  facet normal 0.000000e+00 6.234906e-01 7.818309e-01
    outer loop
      vertex   9.525000e+01 2.327561e+01 1.786225e+01
      vertex   8.255000e+01 2.393845e+01 1.733365e+01
      vertex   8.255000e+01 2.327561e+01 1.786225e+01
    endloop
  endfacet
  facet normal 0.000000e+00 9.009687e-01 4.338840e-01
    outer loop
      vertex   9.525000e+01 2.327561e+01 1.786225e+01
      vertex   8.255000e+01 2.327561e+01 1.786225e+01
      vertex   9.525000e+01 2.290776e+01 1.862610e+01
    endloop
  endfacet
  facet normal 0.000000e+00 9.009687e-01 4.338840e-01
    outer loop
      vertex   9.525000e+01 2.290776e+01 1.862610e+01
      vertex   8.255000e+01 2.327561e+01 1.786225e+01
      vertex   8.255000e+01 2.290776e+01 1.862610e+01
    endloop
  endfacet
  facet normal 0.000000e+00 1.000000e+00 -0.000000e+00
    outer loop
      vertex   9.525000e+01 2.290776e+01 1.862610e+01
      vertex   8.255000e+01 2.290776e+01 1.862610e+01
      vertex   9.525000e+01 2.290776e+01 1.947390e+01
    endloop
  endfacet
  facet normal 0.000000e+00 1.000000e+00 0.000000e+00
    outer loop
      vertex   9.525000e+01 2.290776e+01 1.947390e+01
      vertex   8.255000e+01 2.290776e+01 1.862610e+01
      vertex   8.255000e+01 2.290776e+01 1.947390e+01
    endloop
  endfacet
  facet normal 0.000000e+00 9.009690e-01 -4.338835e-01
    outer loop
      vertex   9.525000e+01 2.290776e+01 1.947390e+01
      vertex   8.255000e+01 2.290776e+01 1.947390e+01
      vertex   9.525000e+01 2.327561e+01 2.023775e+01
    endloop
  endfacet
  facet normal 0.000000e+00 9.009690e-01 -4.338835e-01
    outer loop
      vertex   9.525000e+01 2.327561e+01 2.023775e+01
      vertex   8.255000e+01 2.290776e+01 1.947390e+01
      vertex   8.255000e+01 2.327561e+01 2.023775e+01
    endloop
  endfacet
  facet normal 0.000000e+00 6.234906e-01 -7.818309e-01
    outer loop
      vertex   9.525000e+01 2.327561e+01 2.023775e+01
      vertex   8.255000e+01 2.327561e+01 2.023775e+01
      vertex   9.525000e+01 2.393845e+01 2.076635e+01
    endloop
  endfacet
  facet normal 0.000000e+00 6.234906e-01 -7.818309e-01
    outer loop
      vertex   9.525000e+01 2.393845e+01 2.076635e+01
      vertex   8.255000e+01 2.327561e+01 2.023775e+01
      vertex   8.255000e+01 2.393845e+01 2.076635e+01
    endloop
  endfacet
  facet normal 0.000000e+00 2.225197e-01 -9.749282e-01
    outer loop
      vertex   9.525000e+01 2.393845e+01 2.076635e+01
      vertex   8.255000e+01 2.393845e+01 2.076635e+01
      vertex   9.525000e+01 2.476500e+01 2.095500e+01
    endloop
  endfacet
  facet normal 0.000000e+00 2.225197e-01 -9.749282e-01
    outer loop
      vertex   9.525000e+01 2.476500e+01 2.095500e+01
      vertex   8.255000e+01 2.393845e+01 2.076635e+01
      vertex   8.255000e+01 2.476500e+01 2.095500e+01
    endloop
  endfacet
  facet normal -0.000000e+00 -2.225203e-01 -9.749280e-01
    outer loop
      vertex   9.525000e+01 2.476500e+01 2.095500e+01
      vertex   8.255000e+01 2.476500e+01 2.095500e+01
      vertex   9.525000e+01 2.559155e+01 2.076635e+01
    endloop
  endfacet
  facet normal -0.000000e+00 -2.225203e-01 -9.749280e-01
    outer loop
      vertex   9.525000e+01 2.559155e+01 2.076635e+01
      vertex   8.255000e+01 2.476500e+01 2.095500e+01
      vertex   8.255000e+01 2.559155e+01 2.076635e+01
    endloop
  endfacet
  facet normal -0.000000e+00 -6.234892e-01 -7.818320e-01
    outer loop
      vertex   9.525000e+01 2.559155e+01 2.076635e+01
      vertex   8.255000e+01 2.559155e+01 2.076635e+01
      vertex   9.525000e+01 2.625439e+01 2.023775e+01
    endloop
  endfacet
  facet normal -0.000000e+00 -6.234892e-01 -7.818320e-01
    outer loop
      vertex   9.525000e+01 2.625439e+01 2.023775e+01
      vertex   8.255000e+01 2.559155e+01 2.076635e+01
      vertex   8.255000e+01 2.625439e+01 2.023775e+01
    endloop
  endfacet
  facet normal -0.000000e+00 -9.009690e-01 -4.338835e-01
    outer loop
      vertex   9.525000e+01 2.625439e+01 2.023775e+01
      vertex   8.255000e+01 2.625439e+01 2.023775e+01
      vertex   9.525000e+01 2.662224e+01 1.947390e+01
    endloop
  endfacet
  facet normal -0.000000e+00 -9.009690e-01 -4.338835e-01
    outer loop
      vertex   9.525000e+01 2.662224e+01 1.947390e+01
      vertex   8.255000e+01 2.625439e+01 2.023775e+01
      vertex   8.255000e+01 2.662224e+01 1.947390e+01
    endloop
  endfacet
  facet normal -0.000000e+00 -1.000000e+00 -0.000000e+00
    outer loop
      vertex   9.525000e+01 2.662224e+01 1.947390e+01
      vertex   8.255000e+01 2.662224e+01 1.947390e+01
      vertex   9.525000e+01 2.662224e+01 1.862610e+01
    endloop
  endfacet
  facet normal 0.000000e+00 -1.000000e+00 0.000000e+00
    outer loop
      vertex   9.525000e+01 2.662224e+01 1.862610e+01
      vertex   8.255000e+01 2.662224e+01 1.947390e+01
      vertex   8.255000e+01 2.662224e+01 1.862610e+01
    endloop
  endfacet
  facet normal 0.000000e+00 -9.009687e-01 4.338840e-01
    outer loop
      vertex   9.525000e+01 2.662224e+01 1.862610e+01
      vertex   8.255000e+01 2.662224e+01 1.862610e+01
      vertex   9.525000e+01 2.625439e+01 1.786225e+01
    endloop
  endfacet
  facet normal 0.000000e+00 -9.009687e-01 4.338840e-01
    outer loop
      vertex   9.525000e+01 2.625439e+01 1.786225e+01
      vertex   8.255000e+01 2.662224e+01 1.862610e+01
      vertex   8.255000e+01 2.625439e+01 1.786225e+01
    endloop
  endfacet
  facet normal 0.000000e+00 -6.234892e-01 7.818320e-01
    outer loop
      vertex   9.525000e+01 2.625439e+01 1.786225e+01
      vertex   8.255000e+01 2.625439e+01 1.786225e+01
      vertex   9.525000e+01 2.559155e+01 1.733365e+01
    endloop
  endfacet
  facet normal 0.000000e+00 -6.234892e-01 7.818320e-01
    outer loop
      vertex   9.525000e+01 2.559155e+01 1.733365e+01
      vertex   8.255000e+01 2.625439e+01 1.786225e+01
      vertex   8.255000e+01 2.559155e+01 1.733365e+01
    endloop
  endfacet
  facet normal 8.521723e-01 -1.164368e-01 5.101419e-01
    outer loop
      vertex   8.255000e+01 7.176548e+00 1.733365e+01
      vertex   8.140960e+01 6.350000e+00 1.905000e+01
      vertex   8.255000e+01 6.350000e+00 1.714500e+01
    endloop
  endfacet
  facet normal 8.521723e-01 -4.714420e-01 2.270347e-01
    outer loop
      vertex   8.255000e+01 8.207238e+00 1.862610e+01
      vertex   8.140960e+01 6.350000e+00 1.905000e+01
      vertex   8.255000e+01 7.839389e+00 1.786225e+01
    endloop
  endfacet
  facet normal 8.521723e-01 -4.714421e-01 -2.270344e-01
    outer loop
      vertex   8.255000e+01 7.839389e+00 2.023775e+01
      vertex   8.140960e+01 6.350000e+00 1.905000e+01
      vertex   8.255000e+01 8.207238e+00 1.947390e+01
    endloop
  endfacet
  facet normal 8.521724e-01 -1.164361e-01 -5.101420e-01
    outer loop
      vertex   8.255000e+01 6.350000e+00 2.095500e+01
      vertex   8.140960e+01 6.350000e+00 1.905000e+01
      vertex   8.255000e+01 7.176548e+00 2.076635e+01
    endloop
  endfacet
  facet normal 8.521724e-01 3.262480e-01 -4.091020e-01
    outer loop
      vertex   8.255000e+01 4.860611e+00 2.023775e+01
      vertex   8.140960e+01 6.350000e+00 1.905000e+01
      vertex   8.255000e+01 5.523452e+00 2.076635e+01
    endloop
  endfacet
  facet normal 8.521723e-01 5.232613e-01 -0.000000e+00
    outer loop
      vertex   8.255000e+01 4.492762e+00 1.862610e+01
      vertex   8.140960e+01 6.350000e+00 1.905000e+01
      vertex   8.255000e+01 4.492762e+00 1.947390e+01
    endloop
  endfacet
  facet normal 8.521723e-01 4.714421e-01 2.270346e-01
    outer loop
      vertex   8.255000e+01 4.860611e+00 1.786225e+01
      vertex   8.140960e+01 6.350000e+00 1.905000e+01
      vertex   8.255000e+01 4.492762e+00 1.862610e+01
    endloop
  endfacet
  facet normal 8.521723e-01 1.164368e-01 5.101419e-01
    outer loop
      vertex   8.255000e+01 6.350000e+00 1.714500e+01
      vertex   8.140960e+01 6.350000e+00 1.905000e+01
      vertex   8.255000e+01 5.523452e+00 1.733365e+01
    endloop
  endfacet
  facet normal 8.521724e-01 1.164361e-01 -5.101420e-01
    outer loop
      vertex   8.255000e+01 5.523452e+00 2.076635e+01
      vertex   8.140960e+01 6.350000e+00 1.905000e+01
      vertex   8.255000e+01 6.350000e+00 2.095500e+01
    endloop
  endfacet
  facet normal 8.521724e-01 -3.262480e-01 -4.091020e-01
    outer loop
      vertex   8.255000e+01 7.176548e+00 2.076635e+01
      vertex   8.140960e+01 6.350000e+00 1.905000e+01
      vertex   8.255000e+01 7.839389e+00 2.023775e+01
    endloop
  endfacet
  facet normal 8.521723e-01 -5.232612e-01 0.000000e+00
    outer loop
      vertex   8.255000e+01 8.207238e+00 1.947390e+01
      vertex   8.140960e+01 6.350000e+00 1.905000e+01
      vertex   8.255000e+01 8.207238e+00 1.862610e+01
    endloop
  endfacet
  facet normal 8.521723e-01 -3.262481e-01 4.091021e-01
    outer loop
      vertex   8.255000e+01 7.839389e+00 1.786225e+01
      vertex   8.140960e+01 6.350000e+00 1.905000e+01
      vertex   8.255000e+01 7.176548e+00 1.733365e+01
    endloop
  endfacet
  facet normal 8.521723e-01 3.262481e-01 4.091021e-01
    outer loop
      vertex   8.255000e+01 5.523452e+00 1.733365e+01
      vertex   8.140960e+01 6.350000e+00 1.905000e+01
      vertex   8.255000e+01 4.860611e+00 1.786225e+01
    endloop
  endfacet
  facet normal 8.521723e-01 4.714422e-01 -2.270343e-01
    outer loop
      vertex   8.255000e+01 4.492762e+00 1.947390e+01
      vertex   8.140960e+01 6.350000e+00 1.905000e+01
      vertex   8.255000e+01 4.860611e+00 2.023775e+01
    endloop
  endfacet
  facet normal 0.000000e+00 -2.225214e-01 9.749278e-01
    outer loop
      vertex   9.525000e+01 7.176548e+00 1.733365e+01
      vertex   8.255000e+01 7.176548e+00 1.733365e+01
      vertex   9.525000e+01 6.350000e+00 1.714500e+01
    endloop
  endfacet
  facet normal 0.000000e+00 -2.225214e-01 9.749278e-01
    outer loop
      vertex   9.525000e+01 6.350000e+00 1.714500e+01
      vertex   8.255000e+01 7.176548e+00 1.733365e+01
      vertex   8.255000e+01 6.350000e+00 1.714500e+01
    endloop
  endfacet
  facet normal 0.000000e+00 2.225214e-01 9.749278e-01
    outer loop
      vertex   9.525000e+01 6.350000e+00 1.714500e+01
      vertex   8.255000e+01 6.350000e+00 1.714500e+01
      vertex   9.525000e+01 5.523452e+00 1.733365e+01
    endloop
  endfacet
  facet normal 0.000000e+00 2.225214e-01 9.749278e-01
    outer loop
      vertex   9.525000e+01 5.523452e+00 1.733365e+01
      vertex   8.255000e+01 6.350000e+00 1.714500e+01
      vertex   8.255000e+01 5.523452e+00 1.733365e+01
    endloop
  endfacet
  facet normal 0.000000e+00 6.234899e-01 7.818314e-01
    outer loop
      vertex   9.525000e+01 5.523452e+00 1.733365e+01
      vertex   8.255000e+01 5.523452e+00 1.733365e+01
      vertex   9.525000e+01 4.860611e+00 1.786225e+01
    endloop
  endfacet
  facet normal 0.000000e+00 6.234899e-01 7.818314e-01
    outer loop
      vertex   9.525000e+01 4.860611e+00 1.786225e+01
      vertex   8.255000e+01 5.523452e+00 1.733365e+01
      vertex   8.255000e+01 4.860611e+00 1.786225e+01
    endloop
  endfacet
  facet normal 0.000000e+00 9.009689e-01 4.338837e-01
    outer loop
      vertex   9.525000e+01 4.860611e+00 1.786225e+01
      vertex   8.255000e+01 4.860611e+00 1.786225e+01
      vertex   9.525000e+01 4.492762e+00 1.862610e+01
    endloop
  endfacet
  facet normal 0.000000e+00 9.009689e-01 4.338837e-01
    outer loop
      vertex   9.525000e+01 4.492762e+00 1.862610e+01
      vertex   8.255000e+01 4.860611e+00 1.786225e+01
      vertex   8.255000e+01 4.492762e+00 1.862610e+01
    endloop
  endfacet
  facet normal 0.000000e+00 1.000000e+00 -0.000000e+00
    outer loop
      vertex   9.525000e+01 4.492762e+00 1.862610e+01
      vertex   8.255000e+01 4.492762e+00 1.862610e+01
      vertex   9.525000e+01 4.492762e+00 1.947390e+01
    endloop
  endfacet
  facet normal 0.000000e+00 1.000000e+00 0.000000e+00
    outer loop
      vertex   9.525000e+01 4.492762e+00 1.947390e+01
      vertex   8.255000e+01 4.492762e+00 1.862610e+01
      vertex   8.255000e+01 4.492762e+00 1.947390e+01
    endloop
  endfacet
  facet normal 0.000000e+00 9.009691e-01 -4.338832e-01
    outer loop
      vertex   9.525000e+01 4.492762e+00 1.947390e+01
      vertex   8.255000e+01 4.492762e+00 1.947390e+01
      vertex   9.525000e+01 4.860611e+00 2.023775e+01
    endloop
  endfacet
  facet normal 0.000000e+00 9.009691e-01 -4.338832e-01
    outer loop
      vertex   9.525000e+01 4.860611e+00 2.023775e+01
      vertex   8.255000e+01 4.492762e+00 1.947390e+01
      vertex   8.255000e+01 4.860611e+00 2.023775e+01
    endloop
  endfacet
  facet normal 0.000000e+00 6.234899e-01 -7.818314e-01
    outer loop
      vertex   9.525000e+01 4.860611e+00 2.023775e+01
      vertex   8.255000e+01 4.860611e+00 2.023775e+01
      vertex   9.525000e+01 5.523452e+00 2.076635e+01
    endloop
  endfacet
  facet normal 0.000000e+00 6.234899e-01 -7.818314e-01
    outer loop
      vertex   9.525000e+01 5.523452e+00 2.076635e+01
      vertex   8.255000e+01 4.860611e+00 2.023775e+01
      vertex   8.255000e+01 5.523452e+00 2.076635e+01
    endloop
  endfacet
  facet normal 0.000000e+00 2.225200e-01 -9.749281e-01
    outer loop
      vertex   9.525000e+01 5.523452e+00 2.076635e+01
      vertex   8.255000e+01 5.523452e+00 2.076635e+01
      vertex   9.525000e+01 6.350000e+00 2.095500e+01
    endloop
  endfacet
  facet normal 0.000000e+00 2.225200e-01 -9.749281e-01
    outer loop
      vertex   9.525000e+01 6.350000e+00 2.095500e+01
      vertex   8.255000e+01 5.523452e+00 2.076635e+01
      vertex   8.255000e+01 6.350000e+00 2.095500e+01
    endloop
  endfacet
  facet normal -0.000000e+00 -2.225200e-01 -9.749281e-01
    outer loop
      vertex   9.525000e+01 6.350000e+00 2.095500e+01
      vertex   8.255000e+01 6.350000e+00 2.095500e+01
      vertex   9.525000e+01 7.176548e+00 2.076635e+01
    endloop
  endfacet
  facet normal -0.000000e+00 -2.225200e-01 -9.749281e-01
    outer loop
      vertex   9.525000e+01 7.176548e+00 2.076635e+01
      vertex   8.255000e+01 6.350000e+00 2.095500e+01
      vertex   8.255000e+01 7.176548e+00 2.076635e+01
    endloop
  endfacet
  facet normal -0.000000e+00 -6.234899e-01 -7.818314e-01
    outer loop
      vertex   9.525000e+01 7.176548e+00 2.076635e+01
      vertex   8.255000e+01 7.176548e+00 2.076635e+01
      vertex   9.525000e+01 7.839389e+00 2.023775e+01
    endloop
  endfacet
  facet normal -0.000000e+00 -6.234899e-01 -7.818314e-01
    outer loop
      vertex   9.525000e+01 7.839389e+00 2.023775e+01
      vertex   8.255000e+01 7.176548e+00 2.076635e+01
      vertex   8.255000e+01 7.839389e+00 2.023775e+01
    endloop
  endfacet
  facet normal -0.000000e+00 -9.009690e-01 -4.338835e-01
    outer loop
      vertex   9.525000e+01 7.839389e+00 2.023775e+01
      vertex   8.255000e+01 7.839389e+00 2.023775e+01
      vertex   9.525000e+01 8.207238e+00 1.947390e+01
    endloop
  endfacet
  facet normal -0.000000e+00 -9.009690e-01 -4.338835e-01
    outer loop
      vertex   9.525000e+01 8.207238e+00 1.947390e+01
      vertex   8.255000e+01 7.839389e+00 2.023775e+01
      vertex   8.255000e+01 8.207238e+00 1.947390e+01
    endloop
  endfacet
  facet normal -0.000000e+00 -1.000000e+00 -0.000000e+00
    outer loop
      vertex   9.525000e+01 8.207238e+00 1.947390e+01
      vertex   8.255000e+01 8.207238e+00 1.947390e+01
      vertex   9.525000e+01 8.207238e+00 1.862610e+01
    endloop
  endfacet
  facet normal 0.000000e+00 -1.000000e+00 0.000000e+00
    outer loop
      vertex   9.525000e+01 8.207238e+00 1.862610e+01
      vertex   8.255000e+01 8.207238e+00 1.947390e+01
      vertex   8.255000e+01 8.207238e+00 1.862610e+01
    endloop
  endfacet
  facet normal 0.000000e+00 -9.009687e-01 4.338840e-01
    outer loop
      vertex   9.525000e+01 8.207238e+00 1.862610e+01
      vertex   8.255000e+01 8.207238e+00 1.862610e+01
      vertex   9.525000e+01 7.839389e+00 1.786225e+01
    endloop
  endfacet
  facet normal 0.000000e+00 -9.009687e-01 4.338840e-01
    outer loop
      vertex   9.525000e+01 7.839389e+00 1.786225e+01
      vertex   8.255000e+01 8.207238e+00 1.862610e+01
      vertex   8.255000e+01 7.839389e+00 1.786225e+01
    endloop
  endfacet
  facet normal 0.000000e+00 -6.234899e-01 7.818314e-01
    outer loop
      vertex   9.525000e+01 7.839389e+00 1.786225e+01
      vertex   8.255000e+01 7.839389e+00 1.786225e+01
      vertex   9.525000e+01 7.176548e+00 1.733365e+01
    endloop
  endfacet
  facet normal 0.000000e+00 -6.234899e-01 7.818314e-01
    outer loop
      vertex   9.525000e+01 7.176548e+00 1.733365e+01
      vertex   8.255000e+01 7.839389e+00 1.786225e+01
      vertex   8.255000e+01 7.176548e+00 1.733365e+01
    endloop
  endfacet
  facet normal 0.000000e+00 1.000000e+00 0.000000e+00
    outer loop
      vertex   8.890000e+01 1.295400e+01 1.566757e+01
      vertex   8.890000e+01 1.295400e+01 2.540000e+01
      vertex   9.525000e+01 1.295400e+01 1.566757e+01
    endloop
  endfacet
  facet normal 0.000000e+00 1.000000e+00 -0.000000e+00
    outer loop
      vertex   9.525000e+01 1.295400e+01 1.566757e+01
      vertex   8.890000e+01 1.295400e+01 2.540000e+01
      vertex   9.525000e+01 1.295400e+01 2.540000e+01
    endloop
  endfacet
  facet normal 0.000000e+00 -1.000000e+00 0.000000e+00
    outer loop
      vertex   9.525000e+01 2.057400e+01 1.470056e+01
      vertex   9.525000e+01 2.057400e+01 2.540000e+01
      vertex   8.890000e+01 2.057400e+01 1.470056e+01
    endloop
  endfacet
  facet normal 0.000000e+00 -1.000000e+00 0.000000e+00
    outer loop
      vertex   8.890000e+01 2.057400e+01 1.470056e+01
      vertex   9.525000e+01 2.057400e+01 2.540000e+01
      vertex   8.890000e+01 2.057400e+01 2.540000e+01
    endloop
  endfacet
  facet normal 1.000000e+00 0.000000e+00 0.000000e+00
    outer loop
      vertex   8.890000e+01 1.295400e+01 1.566757e+01
      vertex   8.890000e+01 1.489234e+01 1.587024e+01
      vertex   8.890000e+01 1.295400e+01 2.540000e+01
    endloop
  endfacet
  facet normal 1.000000e+00 0.000000e+00 0.000000e+00
    outer loop
      vertex   8.890000e+01 1.295400e+01 2.540000e+01
      vertex   8.890000e+01 1.489234e+01 1.587024e+01
      vertex   8.890000e+01 1.683886e+01 1.577395e+01
    endloop
  endfacet
  facet normal 1.000000e+00 -0.000000e+00 0.000000e+00
    outer loop
      vertex   8.890000e+01 1.295400e+01 2.540000e+01
      vertex   8.890000e+01 1.683886e+01 1.577395e+01
      vertex   8.890000e+01 2.057400e+01 2.540000e+01
    endloop
  endfacet
  facet normal 1.000000e+00 0.000000e+00 0.000000e+00
    outer loop
      vertex   8.890000e+01 2.057400e+01 2.540000e+01
      vertex   8.890000e+01 1.683886e+01 1.577395e+01
      vertex   8.890000e+01 1.874773e+01 1.538098e+01
    endloop
  endfacet
  facet normal 1.000000e+00 0.000000e+00 0.000000e+00
    outer loop
      vertex   8.890000e+01 2.057400e+01 2.540000e+01
      vertex   8.890000e+01 1.874773e+01 1.538098e+01
      vertex   8.890000e+01 2.057400e+01 1.470056e+01
    endloop
  endfacet
  facet normal 1.000000e+00 0.000000e+00 0.000000e+00
    outer loop
      vertex   9.525000e+01 2.559155e+01 1.733365e+01
      vertex   9.525000e+01 2.476500e+01 1.714500e+01
      vertex   9.525000e+01 2.397459e+01 1.239438e+01
    endloop
  endfacet
  facet normal 1.000000e+00 0.000000e+00 -0.000000e+00
    outer loop
      vertex   9.525000e+01 2.397459e+01 1.239438e+01
      vertex   9.525000e+01 2.476500e+01 1.714500e+01
      vertex   9.525000e+01 2.393845e+01 1.733365e+01
    endloop
  endfacet
  facet normal 1.000000e+00 0.000000e+00 0.000000e+00
    outer loop
      vertex   9.525000e+01 2.397459e+01 1.239438e+01
      vertex   9.525000e+01 2.393845e+01 1.733365e+01
      vertex   9.525000e+01 2.236818e+01 1.368590e+01
    endloop
  endfacet
  facet normal 1.000000e+00 0.000000e+00 0.000000e+00
    outer loop
      vertex   9.525000e+01 2.236818e+01 1.368590e+01
      vertex   9.525000e+01 2.393845e+01 1.733365e+01
      vertex   9.525000e+01 2.327561e+01 1.786225e+01
    endloop
  endfacet
  facet normal 1.000000e+00 0.000000e+00 -0.000000e+00
    outer loop
      vertex   9.525000e+01 2.236818e+01 1.368590e+01
      vertex   9.525000e+01 2.327561e+01 1.786225e+01
      vertex   9.525000e+01 2.057400e+01 1.470056e+01
    endloop
  endfacet
  facet normal 1.000000e+00 0.000000e+00 0.000000e+00
    outer loop
      vertex   9.525000e+01 2.057400e+01 1.470056e+01
      vertex   9.525000e+01 2.327561e+01 1.786225e+01
      vertex   9.525000e+01 2.290776e+01 1.862610e+01
    endloop
  endfacet
  facet normal 1.000000e+00 0.000000e+00 0.000000e+00
    outer loop
      vertex   9.525000e+01 2.057400e+01 1.470056e+01
      vertex   9.525000e+01 2.290776e+01 1.862610e+01
      vertex   9.525000e+01 2.290776e+01 1.947390e+01
    endloop
  endfacet
  facet normal 1.000000e+00 0.000000e+00 0.000000e+00
    outer loop
      vertex   9.525000e+01 2.057400e+01 1.470056e+01
      vertex   9.525000e+01 2.290776e+01 1.947390e+01
      vertex   9.525000e+01 2.057400e+01 2.540000e+01
    endloop
  endfacet
  facet normal 1.000000e+00 0.000000e+00 0.000000e+00
    outer loop
      vertex   9.525000e+01 2.057400e+01 2.540000e+01
      vertex   9.525000e+01 2.290776e+01 1.947390e+01
      vertex   9.525000e+01 2.327561e+01 2.023775e+01
    endloop
  endfacet
  facet normal 1.000000e+00 0.000000e+00 0.000000e+00
    outer loop
      vertex   9.525000e+01 2.057400e+01 2.540000e+01
      vertex   9.525000e+01 2.327561e+01 2.023775e+01
      vertex   9.525000e+01 2.393845e+01 2.076635e+01
    endloop
  endfacet
  facet normal 1.000000e+00 0.000000e+00 -0.000000e+00
    outer loop
      vertex   9.525000e+01 2.393845e+01 2.076635e+01
      vertex   9.525000e+01 2.476500e+01 2.095500e+01
      vertex   9.525000e+01 2.057400e+01 2.540000e+01
    endloop
  endfacet
  facet normal 1.000000e+00 -0.000000e+00 0.000000e+00
    outer loop
      vertex   9.525000e+01 2.057400e+01 2.540000e+01
      vertex   9.525000e+01 2.476500e+01 2.095500e+01
      vertex   9.525000e+01 3.111500e+01 2.540000e+01
    endloop
  endfacet
  facet normal 1.000000e+00 0.000000e+00 0.000000e+00
    outer loop
      vertex   9.525000e+01 3.111500e+01 2.540000e+01
      vertex   9.525000e+01 2.476500e+01 2.095500e+01
      vertex   9.525000e+01 2.559155e+01 2.076635e+01
    endloop
  endfacet
  facet normal 1.000000e+00 0.000000e+00 0.000000e+00
    outer loop
      vertex   9.525000e+01 3.111500e+01 2.540000e+01
      vertex   9.525000e+01 2.559155e+01 2.076635e+01
      vertex   9.525000e+01 2.625439e+01 2.023775e+01
    endloop
  endfacet
  facet normal 1.000000e+00 -0.000000e+00 0.000000e+00
    outer loop
      vertex   9.525000e+01 2.625439e+01 2.023775e+01
      vertex   9.525000e+01 2.662224e+01 1.947390e+01
      vertex   9.525000e+01 3.111500e+01 2.540000e+01
    endloop
  endfacet
  facet normal 1.000000e+00 0.000000e+00 0.000000e+00
    outer loop
      vertex   9.525000e+01 3.111500e+01 2.540000e+01
      vertex   9.525000e+01 2.662224e+01 1.947390e+01
      vertex   9.525000e+01 2.662224e+01 1.862610e+01
    endloop
  endfacet
  facet normal 1.000000e+00 0.000000e+00 0.000000e+00
    outer loop
      vertex   9.525000e+01 3.111500e+01 2.540000e+01
      vertex   9.525000e+01 2.662224e+01 1.862610e+01
      vertex   9.525000e+01 2.727534e+01 7.229709e+00
    endloop
  endfacet
  facet normal 1.000000e+00 0.000000e+00 0.000000e+00
    outer loop
      vertex   9.525000e+01 2.727534e+01 7.229709e+00
      vertex   9.525000e+01 2.662224e+01 1.862610e+01
      vertex   9.525000e+01 2.646091e+01 9.123200e+00
    endloop
  endfacet
  facet normal 1.000000e+00 0.000000e+00 -0.000000e+00
    outer loop
      vertex   9.525000e+01 2.646091e+01 9.123200e+00
      vertex   9.525000e+01 2.662224e+01 1.862610e+01
      vertex   9.525000e+01 2.625439e+01 1.786225e+01
    endloop
  endfacet
  facet normal 1.000000e+00 0.000000e+00 0.000000e+00
    outer loop
      vertex   9.525000e+01 2.646091e+01 9.123200e+00
      vertex   9.525000e+01 2.625439e+01 1.786225e+01
      vertex   9.525000e+01 2.535092e+01 1.086001e+01
    endloop
  endfacet
  facet normal 1.000000e+00 0.000000e+00 0.000000e+00
    outer loop
      vertex   9.525000e+01 2.535092e+01 1.086001e+01
      vertex   9.525000e+01 2.625439e+01 1.786225e+01
      vertex   9.525000e+01 2.559155e+01 1.733365e+01
    endloop
  endfacet
  facet normal 1.000000e+00 0.000000e+00 -0.000000e+00
    outer loop
      vertex   9.525000e+01 2.535092e+01 1.086001e+01
      vertex   9.525000e+01 2.559155e+01 1.733365e+01
      vertex   9.525000e+01 2.397459e+01 1.239438e+01
    endloop
  endfacet
  facet normal 1.000000e+00 0.000000e+00 0.000000e+00
    outer loop
      vertex   9.525000e+01 3.111500e+01 2.540000e+01
      vertex   9.525000e+01 2.727534e+01 7.229709e+00
      vertex   9.525000e+01 3.111500e+01 0.000000e+00
    endloop
  endfacet
  facet normal 1.000000e+00 0.000000e+00 0.000000e+00
    outer loop
      vertex   9.525000e+01 3.111500e+01 0.000000e+00
      vertex   9.525000e+01 2.727534e+01 7.229709e+00
      vertex   9.525000e+01 2.777273e+01 5.229412e+00
    endloop
  endfacet
  facet normal 1.000000e+00 0.000000e+00 0.000000e+00
    outer loop
      vertex   9.525000e+01 3.111500e+01 0.000000e+00
      vertex   9.525000e+01 2.777273e+01 5.229412e+00
      vertex   9.525000e+01 2.794000e+01 3.175000e+00
    endloop
  endfacet
  facet normal 1.000000e+00 0.000000e+00 0.000000e+00
    outer loop
      vertex   9.525000e+01 2.794000e+01 3.175000e+00
      vertex   9.525000e+01 2.794000e+01 0.000000e+00
      vertex   9.525000e+01 3.111500e+01 0.000000e+00
    endloop
  endfacet
  facet normal 1.000000e+00 0.000000e+00 0.000000e+00
    outer loop
      vertex   9.525000e+01 5.523452e+00 1.733365e+01
      vertex   9.525000e+01 7.037423e+00 1.287076e+01
      vertex   9.525000e+01 6.350000e+00 1.714500e+01
    endloop
  endfacet
  facet normal 1.000000e+00 0.000000e+00 0.000000e+00
    outer loop
      vertex   9.525000e+01 6.350000e+00 1.714500e+01
      vertex   9.525000e+01 7.037423e+00 1.287076e+01
      vertex   9.525000e+01 8.836840e+00 1.414266e+01
    endloop
  endfacet
  facet normal 1.000000e+00 -0.000000e+00 0.000000e+00
    outer loop
      vertex   9.525000e+01 6.350000e+00 1.714500e+01
      vertex   9.525000e+01 8.836840e+00 1.414266e+01
      vertex   9.525000e+01 7.176548e+00 1.733365e+01
    endloop
  endfacet
  facet normal 1.000000e+00 -0.000000e+00 0.000000e+00
    outer loop
      vertex   9.525000e+01 7.176548e+00 1.733365e+01
      vertex   9.525000e+01 8.836840e+00 1.414266e+01
      vertex   9.525000e+01 7.839389e+00 1.786225e+01
    endloop
  endfacet
  facet normal 1.000000e+00 0.000000e+00 0.000000e+00
    outer loop
      vertex   9.525000e+01 7.839389e+00 1.786225e+01
      vertex   9.525000e+01 8.836840e+00 1.414266e+01
      vertex   9.525000e+01 1.082902e+01 1.508438e+01
    endloop
  endfacet
  facet normal 1.000000e+00 -0.000000e+00 0.000000e+00
    outer loop
      vertex   9.525000e+01 7.839389e+00 1.786225e+01
      vertex   9.525000e+01 1.082902e+01 1.508438e+01
      vertex   9.525000e+01 8.207238e+00 1.862610e+01
    endloop
  endfacet
  facet normal 1.000000e+00 0.000000e+00 0.000000e+00
    outer loop
      vertex   9.525000e+01 8.207238e+00 1.862610e+01
      vertex   9.525000e+01 1.082902e+01 1.508438e+01
      vertex   9.525000e+01 1.295400e+01 1.566757e+01
    endloop
  endfacet
  facet normal 1.000000e+00 -0.000000e+00 0.000000e+00
    outer loop
      vertex   9.525000e+01 8.207238e+00 1.862610e+01
      vertex   9.525000e+01 1.295400e+01 1.566757e+01
      vertex   9.525000e+01 8.207238e+00 1.947390e+01
    endloop
  endfacet
  facet normal 1.000000e+00 -0.000000e+00 0.000000e+00
    outer loop
      vertex   9.525000e+01 8.207238e+00 1.947390e+01
      vertex   9.525000e+01 1.295400e+01 1.566757e+01
      vertex   9.525000e+01 1.295400e+01 2.540000e+01
    endloop
  endfacet
  facet normal 1.000000e+00 0.000000e+00 -0.000000e+00
    outer loop
      vertex   9.525000e+01 8.207238e+00 1.947390e+01
      vertex   9.525000e+01 1.295400e+01 2.540000e+01
      vertex   9.525000e+01 7.839389e+00 2.023775e+01
    endloop
  endfacet
  facet normal 1.000000e+00 0.000000e+00 -0.000000e+00
    outer loop
      vertex   9.525000e+01 7.839389e+00 2.023775e+01
      vertex   9.525000e+01 1.295400e+01 2.540000e+01
      vertex   9.525000e+01 7.176548e+00 2.076635e+01
    endloop
  endfacet
  facet normal 1.000000e+00 0.000000e+00 -0.000000e+00
    outer loop
      vertex   9.525000e+01 7.176548e+00 2.076635e+01
      vertex   9.525000e+01 1.295400e+01 2.540000e+01
      vertex   9.525000e+01 6.350000e+00 2.095500e+01
    endloop
  endfacet
  facet normal 1.000000e+00 0.000000e+00 -0.000000e+00
    outer loop
      vertex   9.525000e+01 6.350000e+00 2.095500e+01
      vertex   9.525000e+01 1.295400e+01 2.540000e+01
      vertex   9.525000e+01 0.000000e+00 2.540000e+01
    endloop
  endfacet
  facet normal 1.000000e+00 0.000000e+00 0.000000e+00
    outer loop
      vertex   9.525000e+01 6.350000e+00 2.095500e+01
      vertex   9.525000e+01 0.000000e+00 2.540000e+01
      vertex   9.525000e+01 5.523452e+00 2.076635e+01
    endloop
  endfacet
  facet normal 1.000000e+00 0.000000e+00 0.000000e+00
    outer loop
      vertex   9.525000e+01 5.523452e+00 2.076635e+01
      vertex   9.525000e+01 0.000000e+00 2.540000e+01
      vertex   9.525000e+01 4.860611e+00 2.023775e+01
    endloop
  endfacet
  facet normal 1.000000e+00 0.000000e+00 0.000000e+00
    outer loop
      vertex   9.525000e+01 4.860611e+00 2.023775e+01
      vertex   9.525000e+01 0.000000e+00 2.540000e+01
      vertex   9.525000e+01 4.492762e+00 1.947390e+01
    endloop
  endfacet
  facet normal 1.000000e+00 0.000000e+00 0.000000e+00
    outer loop
      vertex   9.525000e+01 4.492762e+00 1.947390e+01
      vertex   9.525000e+01 0.000000e+00 2.540000e+01
      vertex   9.525000e+01 4.492762e+00 1.862610e+01
    endloop
  endfacet
  facet normal 1.000000e+00 0.000000e+00 0.000000e+00
    outer loop
      vertex   9.525000e+01 4.492762e+00 1.862610e+01
      vertex   9.525000e+01 0.000000e+00 2.540000e+01
      vertex   9.525000e+01 4.226142e+00 9.498364e+00
    endloop
  endfacet
  facet normal 1.000000e+00 0.000000e+00 0.000000e+00
    outer loop
      vertex   9.525000e+01 4.492762e+00 1.862610e+01
      vertex   9.525000e+01 4.226142e+00 9.498364e+00
      vertex   9.525000e+01 4.860611e+00 1.786225e+01
    endloop
  endfacet
  facet normal 1.000000e+00 0.000000e+00 0.000000e+00
    outer loop
      vertex   9.525000e+01 4.860611e+00 1.786225e+01
      vertex   9.525000e+01 4.226142e+00 9.498364e+00
      vertex   9.525000e+01 5.484945e+00 1.130697e+01
    endloop
  endfacet
  facet normal 1.000000e+00 0.000000e+00 0.000000e+00
    outer loop
      vertex   9.525000e+01 4.860611e+00 1.786225e+01
      vertex   9.525000e+01 5.484945e+00 1.130697e+01
      vertex   9.525000e+01 5.523452e+00 1.733365e+01
    endloop
  endfacet
  facet normal 1.000000e+00 0.000000e+00 0.000000e+00
    outer loop
      vertex   9.525000e+01 5.523452e+00 1.733365e+01
      vertex   9.525000e+01 5.484945e+00 1.130697e+01
      vertex   9.525000e+01 7.037423e+00 1.287076e+01
    endloop
  endfacet
  facet normal 1.000000e+00 0.000000e+00 0.000000e+00
    outer loop
      vertex   9.525000e+01 4.226142e+00 9.498364e+00
      vertex   9.525000e+01 0.000000e+00 2.540000e+01
      vertex   9.525000e+01 3.298911e+00 7.499396e+00
    endloop
  endfacet
  facet normal 1.000000e+00 0.000000e+00 0.000000e+00
    outer loop
      vertex   9.525000e+01 3.298911e+00 7.499396e+00
      vertex   9.525000e+01 0.000000e+00 2.540000e+01
      vertex   9.525000e+01 0.000000e+00 0.000000e+00
    endloop
  endfacet
  facet normal 1.000000e+00 0.000000e+00 0.000000e+00
    outer loop
      vertex   9.525000e+01 3.298911e+00 7.499396e+00
      vertex   9.525000e+01 0.000000e+00 0.000000e+00
      vertex   9.525000e+01 2.731166e+00 5.370242e+00
    endloop
  endfacet
  facet normal 1.000000e+00 0.000000e+00 0.000000e+00
    outer loop
      vertex   9.525000e+01 2.731166e+00 5.370242e+00
      vertex   9.525000e+01 0.000000e+00 0.000000e+00
      vertex   9.525000e+01 2.540000e+00 3.175000e+00
    endloop
  endfacet
  facet normal 1.000000e+00 0.000000e+00 0.000000e+00
    outer loop
      vertex   9.525000e+01 2.540000e+00 3.175000e+00
      vertex   9.525000e+01 0.000000e+00 0.000000e+00
      vertex   9.525000e+01 2.540000e+00 0.000000e+00
    endloop
  endfacet
  facet normal 0.000000e+00 0.000000e+00 1.000000e+00
    outer loop
      vertex   9.525000e+01 1.295400e+01 2.540000e+01
      vertex   8.890000e+01 1.295400e+01 2.540000e+01
      vertex   9.525000e+01 0.000000e+00 2.540000e+01
    endloop
  endfacet
  facet normal 0.000000e+00 0.000000e+00 1.000000e+00
    outer loop
      vertex   9.525000e+01 0.000000e+00 2.540000e+01
      vertex   8.890000e+01 1.295400e+01 2.540000e+01
      vertex   0.000000e+00 0.000000e+00 2.540000e+01
    endloop
  endfacet
  facet normal 0.000000e+00 0.000000e+00 1.000000e+00
    outer loop
      vertex   0.000000e+00 0.000000e+00 2.540000e+01
      vertex   8.890000e+01 1.295400e+01 2.540000e+01
      vertex   0.000000e+00 3.111500e+01 2.540000e+01
    endloop
  endfacet
  facet normal 0.000000e+00 0.000000e+00 1.000000e+00
    outer loop
      vertex   0.000000e+00 3.111500e+01 2.540000e+01
      vertex   8.890000e+01 1.295400e+01 2.540000e+01
      vertex   8.890000e+01 2.057400e+01 2.540000e+01
    endloop
  endfacet
  facet normal -0.000000e+00 0.000000e+00 1.000000e+00
    outer loop
      vertex   0.000000e+00 3.111500e+01 2.540000e+01
      vertex   8.890000e+01 2.057400e+01 2.540000e+01
      vertex   9.525000e+01 3.111500e+01 2.540000e+01
    endloop
  endfacet
  facet normal 0.000000e+00 0.000000e+00 1.000000e+00
    outer loop
      vertex   9.525000e+01 3.111500e+01 2.540000e+01
      vertex   8.890000e+01 2.057400e+01 2.540000e+01
      vertex   9.525000e+01 2.057400e+01 2.540000e+01
    endloop
  endfacet
  facet normal 9.709408e-01 1.482568e-03 2.393150e-01
    outer loop
      vertex   1.129434e+01 0.000000e+00 1.831225e+01
      vertex   1.115863e+01 3.111500e+01 1.867009e+01
      vertex   1.111250e+01 0.000000e+00 1.905000e+01
    endloop
  endfacet
  facet normal 9.999989e-01 -1.482538e-03 0.000000e+00
    outer loop
      vertex   1.111250e+01 0.000000e+00 1.905000e+01
      vertex   1.115863e+01 3.111500e+01 1.867009e+01
      vertex   1.115863e+01 3.111500e+01 1.942991e+01
    endloop
  endfacet
  facet normal 9.709408e-01 1.482577e-03 -2.393150e-01
    outer loop
      vertex   1.111250e+01 0.000000e+00 1.905000e+01
      vertex   1.115863e+01 3.111500e+01 1.942991e+01
      vertex   1.129434e+01 0.000000e+00 1.978775e+01
    endloop
  endfacet
  facet normal 8.854551e-01 -1.482544e-03 -4.647227e-01
    outer loop
      vertex   1.129434e+01 0.000000e+00 1.978775e+01
      vertex   1.115863e+01 3.111500e+01 1.942991e+01
      vertex   1.151174e+01 3.111500e+01 2.010271e+01
    endloop
  endfacet
  facet normal 7.485096e-01 1.482588e-03 -6.631223e-01
    outer loop
      vertex   1.129434e+01 0.000000e+00 1.978775e+01
      vertex   1.151174e+01 3.111500e+01 2.010271e+01
      vertex   1.179820e+01 0.000000e+00 2.035649e+01
    endloop
  endfacet
  facet normal 5.680638e-01 -1.482515e-03 -8.229832e-01
    outer loop
      vertex   1.179820e+01 0.000000e+00 2.035649e+01
      vertex   1.151174e+01 3.111500e+01 2.010271e+01
      vertex   1.213706e+01 3.111500e+01 2.053434e+01
    endloop
  endfacet
  facet normal 3.546056e-01 1.482592e-03 -9.350148e-01
    outer loop
      vertex   1.179820e+01 0.000000e+00 2.035649e+01
      vertex   1.213706e+01 3.111500e+01 2.053434e+01
      vertex   1.250865e+01 0.000000e+00 2.062593e+01
    endloop
  endfacet
  facet normal 1.205353e-01 -1.482547e-03 -9.927079e-01
    outer loop
      vertex   1.250865e+01 0.000000e+00 2.062593e+01
      vertex   1.213706e+01 3.111500e+01 2.053434e+01
      vertex   1.289135e+01 3.111500e+01 2.062593e+01
    endloop
  endfacet
  facet normal -1.205353e-01 1.482547e-03 -9.927079e-01
    outer loop
      vertex   1.250865e+01 0.000000e+00 2.062593e+01
      vertex   1.289135e+01 3.111500e+01 2.062593e+01
      vertex   1.326293e+01 0.000000e+00 2.053434e+01
    endloop
  endfacet
  facet normal -3.546056e-01 -1.482592e-03 -9.350148e-01
    outer loop
      vertex   1.326293e+01 0.000000e+00 2.053434e+01
      vertex   1.289135e+01 3.111500e+01 2.062593e+01
      vertex   1.360180e+01 3.111500e+01 2.035649e+01
    endloop
  endfacet
  facet normal -5.680631e-01 1.482504e-03 -8.229837e-01
    outer loop
      vertex   1.326293e+01 0.000000e+00 2.053434e+01
      vertex   1.360180e+01 3.111500e+01 2.035649e+01
      vertex   1.388826e+01 0.000000e+00 2.010271e+01
    endloop
  endfacet
  facet normal -7.485096e-01 -1.482616e-03 -6.631223e-01
    outer loop
      vertex   1.388826e+01 0.000000e+00 2.010271e+01
      vertex   1.360180e+01 3.111500e+01 2.035649e+01
      vertex   1.410566e+01 3.111500e+01 1.978775e+01
    endloop
  endfacet
  facet normal -8.854557e-01 1.482527e-03 -4.647214e-01
    outer loop
      vertex   1.388826e+01 0.000000e+00 2.010271e+01
      vertex   1.410566e+01 3.111500e+01 1.978775e+01
      vertex   1.424137e+01 0.000000e+00 1.942991e+01
    endloop
  endfacet
  facet normal -9.709405e-01 -1.482558e-03 -2.393165e-01
    outer loop
      vertex   1.424137e+01 0.000000e+00 1.942991e+01
      vertex   1.410566e+01 3.111500e+01 1.978775e+01
      vertex   1.428750e+01 3.111500e+01 1.905000e+01
    endloop
  endfacet
  facet normal -9.999989e-01 1.482576e-03 0.000000e+00
    outer loop
      vertex   1.424137e+01 0.000000e+00 1.942991e+01
      vertex   1.428750e+01 3.111500e+01 1.905000e+01
      vertex   1.424137e+01 0.000000e+00 1.867009e+01
    endloop
  endfacet
  facet normal -9.709405e-01 -1.482549e-03 2.393165e-01
    outer loop
      vertex   1.424137e+01 0.000000e+00 1.867009e+01
      vertex   1.428750e+01 3.111500e+01 1.905000e+01
      vertex   1.410566e+01 3.111500e+01 1.831225e+01
    endloop
  endfacet
  facet normal -8.854557e-01 1.482545e-03 4.647214e-01
    outer loop
      vertex   1.424137e+01 0.000000e+00 1.867009e+01
      vertex   1.410566e+01 3.111500e+01 1.831225e+01
      vertex   1.388826e+01 0.000000e+00 1.799729e+01
    endloop
  endfacet
  facet normal -7.485096e-01 -1.482591e-03 6.631223e-01
    outer loop
      vertex   1.388826e+01 0.000000e+00 1.799729e+01
      vertex   1.410566e+01 3.111500e+01 1.831225e+01
      vertex   1.360180e+01 3.111500e+01 1.774351e+01
    endloop
  endfacet
  facet normal -5.680631e-01 1.482536e-03 8.229837e-01
    outer loop
      vertex   1.388826e+01 0.000000e+00 1.799729e+01
      vertex   1.360180e+01 3.111500e+01 1.774351e+01
      vertex   1.326293e+01 0.000000e+00 1.756566e+01
    endloop
  endfacet
  facet normal -3.546056e-01 -1.482556e-03 9.350148e-01
    outer loop
      vertex   1.326293e+01 0.000000e+00 1.756566e+01
      vertex   1.360180e+01 3.111500e+01 1.774351e+01
      vertex   1.289135e+01 3.111500e+01 1.747407e+01
    endloop
  endfacet
  facet normal -1.205369e-01 1.482566e-03 9.927077e-01
    outer loop
      vertex   1.326293e+01 0.000000e+00 1.756566e+01
      vertex   1.289135e+01 3.111500e+01 1.747407e+01
      vertex   1.250865e+01 0.000000e+00 1.747407e+01
    endloop
  endfacet
  facet normal 1.205369e-01 -1.482566e-03 9.927077e-01
    outer loop
      vertex   1.250865e+01 0.000000e+00 1.747407e+01
      vertex   1.289135e+01 3.111500e+01 1.747407e+01
      vertex   1.213706e+01 3.111500e+01 1.756566e+01
    endloop
  endfacet
  facet normal 3.546056e-01 1.482556e-03 9.350148e-01
    outer loop
      vertex   1.250865e+01 0.000000e+00 1.747407e+01
      vertex   1.213706e+01 3.111500e+01 1.756566e+01
      vertex   1.179820e+01 0.000000e+00 1.774351e+01
    endloop
  endfacet
  facet normal 5.680638e-01 -1.482547e-03 8.229832e-01
    outer loop
      vertex   1.179820e+01 0.000000e+00 1.774351e+01
      vertex   1.213706e+01 3.111500e+01 1.756566e+01
      vertex   1.151174e+01 3.111500e+01 1.799729e+01
    endloop
  endfacet
  facet normal 7.485096e-01 1.482562e-03 6.631223e-01
    outer loop
      vertex   1.179820e+01 0.000000e+00 1.774351e+01
      vertex   1.151174e+01 3.111500e+01 1.799729e+01
      vertex   1.129434e+01 0.000000e+00 1.831225e+01
    endloop
  endfacet
  facet normal 8.854551e-01 -1.482562e-03 4.647227e-01
    outer loop
      vertex   1.129434e+01 0.000000e+00 1.831225e+01
      vertex   1.151174e+01 3.111500e+01 1.799729e+01
      vertex   1.115863e+01 3.111500e+01 1.867009e+01
    endloop
  endfacet
  facet normal 9.709398e-01 1.482624e-03 2.393195e-01
    outer loop
      vertex   7.479434e+01 0.000000e+00 1.831225e+01
      vertex   7.465863e+01 3.111500e+01 1.867009e+01
      vertex   7.461250e+01 0.000000e+00 1.905000e+01
    endloop
  endfacet
  facet normal 9.999989e-01 -1.482538e-03 0.000000e+00
    outer loop
      vertex   7.461250e+01 0.000000e+00 1.905000e+01
      vertex   7.465863e+01 3.111500e+01 1.867009e+01
      vertex   7.465863e+01 3.111500e+01 1.942991e+01
    endloop
  endfacet
  facet normal 9.709398e-01 1.482633e-03 -2.393195e-01
    outer loop
      vertex   7.461250e+01 0.000000e+00 1.905000e+01
      vertex   7.465863e+01 3.111500e+01 1.942991e+01
      vertex   7.479434e+01 0.000000e+00 1.978775e+01
    endloop
  endfacet
  facet normal 8.854538e-01 -1.482476e-03 -4.647251e-01
    outer loop
      vertex   7.479434e+01 0.000000e+00 1.978775e+01
      vertex   7.465863e+01 3.111500e+01 1.942991e+01
      vertex   7.501174e+01 3.111500e+01 2.010271e+01
    endloop
  endfacet
  facet normal 7.485120e-01 1.482573e-03 -6.631196e-01
    outer loop
      vertex   7.479434e+01 0.000000e+00 1.978775e+01
      vertex   7.501174e+01 3.111500e+01 2.010271e+01
      vertex   7.529819e+01 0.000000e+00 2.035649e+01
    endloop
  endfacet
  facet normal 5.680645e-01 -1.482548e-03 -8.229827e-01
    outer loop
      vertex   7.529819e+01 0.000000e+00 2.035649e+01
      vertex   7.501174e+01 3.111500e+01 2.010271e+01
      vertex   7.563706e+01 3.111500e+01 2.053434e+01
    endloop
  endfacet
  facet normal 3.546040e-01 1.482599e-03 -9.350154e-01
    outer loop
      vertex   7.529819e+01 0.000000e+00 2.035649e+01
      vertex   7.563706e+01 3.111500e+01 2.053434e+01
      vertex   7.600865e+01 0.000000e+00 2.062593e+01
    endloop
  endfacet
  facet normal 1.205350e-01 -1.482542e-03 -9.927080e-01
    outer loop
      vertex   7.600865e+01 0.000000e+00 2.062593e+01
      vertex   7.563706e+01 3.111500e+01 2.053434e+01
      vertex   7.639135e+01 3.111500e+01 2.062593e+01
    endloop
  endfacet
  facet normal -1.205357e-01 1.482551e-03 -9.927079e-01
    outer loop
      vertex   7.600865e+01 0.000000e+00 2.062593e+01
      vertex   7.639135e+01 3.111500e+01 2.062593e+01
      vertex   7.676293e+01 0.000000e+00 2.053434e+01
    endloop
  endfacet
  facet normal -3.546061e-01 -1.482572e-03 -9.350146e-01
    outer loop
      vertex   7.676293e+01 0.000000e+00 2.053434e+01
      vertex   7.639135e+01 3.111500e+01 2.062593e+01
      vertex   7.710180e+01 3.111500e+01 2.035649e+01
    endloop
  endfacet
  facet normal -5.680616e-01 1.482504e-03 -8.229847e-01
    outer loop
      vertex   7.676293e+01 0.000000e+00 2.053434e+01
      vertex   7.710180e+01 3.111500e+01 2.035649e+01
      vertex   7.738826e+01 0.000000e+00 2.010271e+01
    endloop
  endfacet
  facet normal -7.485089e-01 -1.482631e-03 -6.631231e-01
    outer loop
      vertex   7.738826e+01 0.000000e+00 2.010271e+01
      vertex   7.710180e+01 3.111500e+01 2.035649e+01
      vertex   7.760566e+01 3.111500e+01 1.978775e+01
    endloop
  endfacet
  facet normal -8.854563e-01 1.482544e-03 -4.647202e-01
    outer loop
      vertex   7.738826e+01 0.000000e+00 2.010271e+01
      vertex   7.760566e+01 3.111500e+01 1.978775e+01
      vertex   7.774137e+01 0.000000e+00 1.942991e+01
    endloop
  endfacet
  facet normal -9.709412e-01 -1.482558e-03 -2.393135e-01
    outer loop
      vertex   7.774137e+01 0.000000e+00 1.942991e+01
      vertex   7.760566e+01 3.111500e+01 1.978775e+01
      vertex   7.778750e+01 3.111500e+01 1.905000e+01
    endloop
  endfacet
  facet normal -9.999989e-01 1.482538e-03 0.000000e+00
    outer loop
      vertex   7.774137e+01 0.000000e+00 1.942991e+01
      vertex   7.778750e+01 3.111500e+01 1.905000e+01
      vertex   7.774137e+01 0.000000e+00 1.867009e+01
    endloop
  endfacet
  facet normal -9.709412e-01 -1.482549e-03 2.393135e-01
    outer loop
      vertex   7.774137e+01 0.000000e+00 1.867009e+01
      vertex   7.778750e+01 3.111500e+01 1.905000e+01
      vertex   7.760566e+01 3.111500e+01 1.831225e+01
    endloop
  endfacet
  facet normal -8.854563e-01 1.482562e-03 4.647202e-01
    outer loop
      vertex   7.774137e+01 0.000000e+00 1.867009e+01
      vertex   7.760566e+01 3.111500e+01 1.831225e+01
      vertex   7.738826e+01 0.000000e+00 1.799729e+01
    endloop
  endfacet
  facet normal -7.485089e-01 -1.482605e-03 6.631231e-01
    outer loop
      vertex   7.738826e+01 0.000000e+00 1.799729e+01
      vertex   7.760566e+01 3.111500e+01 1.831225e+01
      vertex   7.710180e+01 3.111500e+01 1.774351e+01
    endloop
  endfacet
  facet normal -5.680616e-01 1.482536e-03 8.229847e-01
    outer loop
      vertex   7.738826e+01 0.000000e+00 1.799729e+01
      vertex   7.710180e+01 3.111500e+01 1.774351e+01
      vertex   7.676293e+01 0.000000e+00 1.756566e+01
    endloop
  endfacet
  facet normal -3.546061e-01 -1.482536e-03 9.350146e-01
    outer loop
      vertex   7.676293e+01 0.000000e+00 1.756566e+01
      vertex   7.710180e+01 3.111500e+01 1.774351e+01
      vertex   7.639135e+01 3.111500e+01 1.747407e+01
    endloop
  endfacet
  facet normal -1.205373e-01 1.482570e-03 9.927077e-01
    outer loop
      vertex   7.676293e+01 0.000000e+00 1.756566e+01
      vertex   7.639135e+01 3.111500e+01 1.747407e+01
      vertex   7.600865e+01 0.000000e+00 1.747407e+01
    endloop
  endfacet
  facet normal 1.205365e-01 -1.482561e-03 9.927078e-01
    outer loop
      vertex   7.600865e+01 0.000000e+00 1.747407e+01
      vertex   7.639135e+01 3.111500e+01 1.747407e+01
      vertex   7.563706e+01 3.111500e+01 1.756566e+01
    endloop
  endfacet
  facet normal 3.546040e-01 1.482563e-03 9.350154e-01
    outer loop
      vertex   7.600865e+01 0.000000e+00 1.747407e+01
      vertex   7.563706e+01 3.111500e+01 1.756566e+01
      vertex   7.529819e+01 0.000000e+00 1.774351e+01
    endloop
  endfacet
  facet normal 5.680645e-01 -1.482580e-03 8.229827e-01
    outer loop
      vertex   7.529819e+01 0.000000e+00 1.774351e+01
      vertex   7.563706e+01 3.111500e+01 1.756566e+01
      vertex   7.501174e+01 3.111500e+01 1.799729e+01
    endloop
  endfacet
  facet normal 7.485120e-01 1.482548e-03 6.631196e-01
    outer loop
      vertex   7.529819e+01 0.000000e+00 1.774351e+01
      vertex   7.501174e+01 3.111500e+01 1.799729e+01
      vertex   7.479434e+01 0.000000e+00 1.831225e+01
    endloop
  endfacet
  facet normal 8.854538e-01 -1.482494e-03 4.647251e-01
    outer loop
      vertex   7.479434e+01 0.000000e+00 1.831225e+01
      vertex   7.501174e+01 3.111500e+01 1.799729e+01
      vertex   7.465863e+01 3.111500e+01 1.867009e+01
    endloop
  endfacet
  facet normal 0.000000e+00 2.646582e-01 -9.643423e-01
    outer loop
      vertex   9.525000e+01 1.295400e+01 1.566757e+01
      vertex   9.525000e+01 1.082902e+01 1.508438e+01
      vertex   8.890000e+01 1.295400e+01 1.566757e+01
    endloop
  endfacet
  facet normal -6.787268e-05 2.644695e-01 -9.643940e-01
    outer loop
      vertex   8.890000e+01 1.295400e+01 1.566757e+01
      vertex   9.525000e+01 1.082902e+01 1.508438e+01
      vertex   6.350000e+00 1.089634e+01 1.510910e+01
    endloop
  endfacet
  facet normal 8.334179e-05 2.588188e-01 -9.659259e-01
    outer loop
      vertex   8.890000e+01 1.295400e+01 1.566757e+01
      vertex   6.350000e+00 1.089634e+01 1.510910e+01
      vertex   6.350000e+00 1.303467e+01 1.568206e+01
    endloop
  endfacet
  facet normal 6.803652e-05 4.226182e-01 -9.063078e-01
    outer loop
      vertex   6.350000e+00 1.089634e+01 1.510910e+01
      vertex   9.525000e+01 1.082902e+01 1.508438e+01
      vertex   6.350000e+00 8.890000e+00 1.417352e+01
    endloop
  endfacet
  facet normal -5.832832e-05 4.273649e-01 -9.040792e-01
    outer loop
      vertex   6.350000e+00 8.890000e+00 1.417352e+01
      vertex   9.525000e+01 1.082902e+01 1.508438e+01
      vertex   9.525000e+01 8.836840e+00 1.414266e+01
    endloop
  endfacet
  facet normal 5.858725e-05 5.735766e-01 -8.191519e-01
    outer loop
      vertex   6.350000e+00 8.890000e+00 1.417352e+01
      vertex   9.525000e+01 8.836840e+00 1.414266e+01
      vertex   6.350000e+00 7.076597e+00 1.290376e+01
    endloop
  endfacet
  facet normal -4.882837e-05 5.772050e-01 -8.165993e-01
    outer loop
      vertex   6.350000e+00 7.076597e+00 1.290376e+01
      vertex   9.525000e+01 8.836840e+00 1.414266e+01
      vertex   9.525000e+01 7.037423e+00 1.287076e+01
    endloop
  endfacet
  facet normal 4.906375e-05 7.071066e-01 -7.071069e-01
    outer loop
      vertex   6.350000e+00 7.076597e+00 1.290376e+01
      vertex   9.525000e+01 7.037423e+00 1.287076e+01
      vertex   6.350000e+00 5.511236e+00 1.133840e+01
    endloop
  endfacet
  facet normal -3.925659e-05 7.096691e-01 -7.045351e-01
    outer loop
      vertex   6.350000e+00 5.511236e+00 1.133840e+01
      vertex   9.525000e+01 7.037423e+00 1.287076e+01
      vertex   9.525000e+01 5.484945e+00 1.130697e+01
    endloop
  endfacet
  facet normal 3.942855e-05 8.191521e-01 -5.735763e-01
    outer loop
      vertex   6.350000e+00 5.511236e+00 1.133840e+01
      vertex   9.525000e+01 5.484945e+00 1.130697e+01
      vertex   6.350000e+00 4.241477e+00 9.525000e+00
    endloop
  endfacet
  facet normal -2.957596e-05 8.207681e-01 -5.712615e-01
    outer loop
      vertex   6.350000e+00 4.241477e+00 9.525000e+00
      vertex   9.525000e+01 5.484945e+00 1.130697e+01
      vertex   9.525000e+01 4.226142e+00 9.498364e+00
    endloop
  endfacet
  facet normal 2.971480e-05 9.063078e-01 -4.226182e-01
    outer loop
      vertex   6.350000e+00 4.241477e+00 9.525000e+00
      vertex   9.525000e+01 4.226142e+00 9.498364e+00
      vertex   6.350000e+00 3.305904e+00 7.518656e+00
    endloop
  endfacet
  facet normal -1.980719e-05 9.071582e-01 -4.207897e-01
    outer loop
      vertex   6.350000e+00 3.305904e+00 7.518656e+00
      vertex   9.525000e+01 4.226142e+00 9.498364e+00
      vertex   9.525000e+01 3.298911e+00 7.499396e+00
    endloop
  endfacet
  facet normal 1.990485e-05 9.659258e-01 -2.588191e-01
    outer loop
      vertex   6.350000e+00 3.305904e+00 7.518656e+00
      vertex   9.525000e+01 3.298911e+00 7.499396e+00
      vertex   6.350000e+00 2.732942e+00 5.380332e+00
    endloop
  endfacet
  facet normal -9.950034e-06 9.662383e-01 -2.576500e-01
    outer loop
      vertex   6.350000e+00 2.732942e+00 5.380332e+00
      vertex   9.525000e+01 3.298911e+00 7.499396e+00
      vertex   9.525000e+01 2.731166e+00 5.370242e+00
    endloop
  endfacet
  facet normal 9.998671e-06 9.961947e-01 -8.715569e-02
    outer loop
      vertex   6.350000e+00 2.732942e+00 5.380332e+00
      vertex   9.525000e+01 2.731166e+00 5.370242e+00
      vertex   6.350000e+00 2.540000e+00 3.175000e+00
    endloop
  endfacet
  facet normal 0.000000e+00 9.962298e-01 -8.675383e-02
    outer loop
      vertex   6.350000e+00 2.540000e+00 3.175000e+00
      vertex   9.525000e+01 2.731166e+00 5.370242e+00
      vertex   9.525000e+01 2.540000e+00 3.175000e+00
    endloop
  endfacet
  facet normal -7.298253e-05 1.039943e-01 -9.945779e-01
    outer loop
      vertex   8.890000e+01 1.295400e+01 1.566757e+01
      vertex   6.350000e+00 1.303467e+01 1.568206e+01
      vertex   8.890000e+01 1.489234e+01 1.587024e+01
    endloop
  endfacet
  facet normal 3.096328e-04 8.715566e-02 -9.961947e-01
    outer loop
      vertex   8.890000e+01 1.489234e+01 1.587024e+01
      vertex   6.350000e+00 1.303467e+01 1.568206e+01
      vertex   6.350000e+00 1.524000e+01 1.587500e+01
    endloop
  endfacet
  facet normal -2.656518e-04 -4.940550e-02 -9.987788e-01
    outer loop
      vertex   8.890000e+01 1.489234e+01 1.587024e+01
      vertex   6.350000e+00 1.524000e+01 1.587500e+01
      vertex   8.890000e+01 1.683886e+01 1.577395e+01
    endloop
  endfacet
  facet normal 4.686713e-04 -8.715570e-02 -9.961946e-01
    outer loop
      vertex   8.890000e+01 1.683886e+01 1.577395e+01
      vertex   6.350000e+00 1.524000e+01 1.587500e+01
      vertex   6.350000e+00 1.744533e+01 1.568206e+01
    endloop
  endfacet
  facet normal -3.910528e-04 -2.016412e-01 -9.794594e-01
    outer loop
      vertex   8.890000e+01 1.683886e+01 1.577395e+01
      vertex   6.350000e+00 1.744533e+01 1.568206e+01
      vertex   8.890000e+01 1.874773e+01 1.538098e+01
    endloop
  endfacet
  facet normal 5.604038e-04 -2.588188e-01 -9.659257e-01
    outer loop
      vertex   8.890000e+01 1.874773e+01 1.538098e+01
      vertex   6.350000e+00 1.744533e+01 1.568206e+01
      vertex   6.350000e+00 1.958366e+01 1.510910e+01
    endloop
  endfacet
  facet normal -4.491253e-04 -3.491291e-01 -9.370745e-01
    outer loop
      vertex   8.890000e+01 1.874773e+01 1.538098e+01
      vertex   6.350000e+00 1.958366e+01 1.510910e+01
      vertex   8.890000e+01 2.057400e+01 1.470056e+01
    endloop
  endfacet
  facet normal 5.847825e-04 -4.226183e-01 -9.063076e-01
    outer loop
      vertex   8.890000e+01 2.057400e+01 1.470056e+01
      vertex   6.350000e+00 1.958366e+01 1.510910e+01
      vertex   6.350000e+00 2.159000e+01 1.417352e+01
    endloop
  endfacet
  facet normal 0.000000e+00 -4.604674e-01 -8.876766e-01
    outer loop
      vertex   8.890000e+01 2.057400e+01 1.470056e+01
      vertex   6.350000e+00 2.159000e+01 1.417352e+01
      vertex   9.525000e+01 2.057400e+01 1.470056e+01
    endloop
  endfacet
  facet normal -4.654875e-04 -4.922604e-01 -8.704479e-01
    outer loop
      vertex   9.525000e+01 2.057400e+01 1.470056e+01
      vertex   6.350000e+00 2.159000e+01 1.417352e+01
      vertex   9.525000e+01 2.236818e+01 1.368590e+01
    endloop
  endfacet
  facet normal 5.276607e-04 -5.735762e-01 -8.191521e-01
    outer loop
      vertex   9.525000e+01 2.236818e+01 1.368590e+01
      vertex   6.350000e+00 2.159000e+01 1.417352e+01
      vertex   6.350000e+00 2.340340e+01 1.290376e+01
    endloop
  endfacet
  facet normal -4.397611e-04 -6.265845e-01 -7.793534e-01
    outer loop
      vertex   9.525000e+01 2.236818e+01 1.368590e+01
      vertex   6.350000e+00 2.340340e+01 1.290376e+01
      vertex   9.525000e+01 2.397459e+01 1.239438e+01
    endloop
  endfacet
  facet normal 4.915583e-04 -7.071067e-01 -7.071067e-01
    outer loop
      vertex   9.525000e+01 2.397459e+01 1.239438e+01
      vertex   6.350000e+00 2.340340e+01 1.290376e+01
      vertex   6.350000e+00 2.496876e+01 1.133840e+01
    endloop
  endfacet
  facet normal -3.932769e-04 -7.444041e-01 -6.677293e-01
    outer loop
      vertex   9.525000e+01 2.397459e+01 1.239438e+01
      vertex   6.350000e+00 2.496876e+01 1.133840e+01
      vertex   9.525000e+01 2.535092e+01 1.086001e+01
    endloop
  endfacet
  facet normal 4.347078e-04 -8.191522e-01 -5.735761e-01
    outer loop
      vertex   9.525000e+01 2.535092e+01 1.086001e+01
      vertex   6.350000e+00 2.496876e+01 1.133840e+01
      vertex   6.350000e+00 2.623852e+01 9.525000e+00
    endloop
  endfacet
  facet normal -3.260419e-04 -8.426150e-01 -5.385164e-01
    outer loop
      vertex   9.525000e+01 2.535092e+01 1.086001e+01
      vertex   6.350000e+00 2.623852e+01 9.525000e+00
      vertex   9.525000e+01 2.646091e+01 9.123200e+00
    endloop
  endfacet
  facet normal 3.571154e-04 -9.063077e-01 -4.226182e-01
    outer loop
      vertex   9.525000e+01 2.646091e+01 9.123200e+00
      vertex   6.350000e+00 2.623852e+01 9.525000e+00
      vertex   6.350000e+00 2.717410e+01 7.518656e+00
    endloop
  endfacet
  facet normal -2.380893e-04 -9.186304e-01 -3.951179e-01
    outer loop
      vertex   9.525000e+01 2.646091e+01 9.123200e+00
      vertex   6.350000e+00 2.717410e+01 7.518656e+00
      vertex   9.525000e+01 2.727534e+01 7.229709e+00
    endloop
  endfacet
  facet normal 2.587744e-04 -9.659257e-01 -2.588193e-01
    outer loop
      vertex   9.525000e+01 2.727534e+01 7.229709e+00
      vertex   6.350000e+00 2.717410e+01 7.518656e+00
      vertex   6.350000e+00 2.774706e+01 5.380332e+00
    endloop
  endfacet
  facet normal -1.294102e-04 -9.704474e-01 -2.413125e-01
    outer loop
      vertex   9.525000e+01 2.727534e+01 7.229709e+00
      vertex   6.350000e+00 2.774706e+01 5.380332e+00
      vertex   9.525000e+01 2.777273e+01 5.229412e+00
    endloop
  endfacet
  facet normal 1.397278e-04 -9.961947e-01 -8.715516e-02
    outer loop
      vertex   9.525000e+01 2.777273e+01 5.229412e+00
      vertex   6.350000e+00 2.774706e+01 5.380332e+00
      vertex   6.350000e+00 2.794000e+01 3.175000e+00
    endloop
  endfacet
  facet normal 0.000000e+00 -9.967019e-01 -8.115005e-02
    outer loop
      vertex   9.525000e+01 2.777273e+01 5.229412e+00
      vertex   6.350000e+00 2.794000e+01 3.175000e+00
      vertex   9.525000e+01 2.794000e+01 3.175000e+00
    endloop
  endfacet
  facet normal 0.000000e+00 1.000000e+00 0.000000e+00
    outer loop
      vertex   9.525000e+01 2.540000e+00 3.175000e+00
      vertex   9.525000e+01 2.540000e+00 0.000000e+00
      vertex   6.350000e+00 2.540000e+00 3.175000e+00
    endloop
  endfacet
  facet normal 0.000000e+00 1.000000e+00 0.000000e+00
    outer loop
      vertex   6.350000e+00 2.540000e+00 3.175000e+00
      vertex   9.525000e+01 2.540000e+00 0.000000e+00
      vertex   6.350000e+00 2.540000e+00 0.000000e+00
    endloop
  endfacet
  facet normal 0.000000e+00 -1.000000e+00 0.000000e+00
    outer loop
      vertex   9.525000e+01 2.794000e+01 0.000000e+00
      vertex   9.525000e+01 2.794000e+01 3.175000e+00
      vertex   6.350000e+00 2.794000e+01 0.000000e+00
    endloop
  endfacet
  facet normal 0.000000e+00 -1.000000e+00 0.000000e+00
    outer loop
      vertex   6.350000e+00 2.794000e+01 0.000000e+00
      vertex   9.525000e+01 2.794000e+01 3.175000e+00
      vertex   6.350000e+00 2.794000e+01 3.175000e+00
    endloop
  endfacet
  facet normal 1.000000e+00 0.000000e+00 -0.000000e+00
    outer loop
      vertex   6.350000e+00 2.794000e+01 0.000000e+00
      vertex   6.350000e+00 2.794000e+01 3.175000e+00
      vertex   6.350000e+00 2.540000e+00 0.000000e+00
    endloop
  endfacet
  facet normal 1.000000e+00 0.000000e+00 0.000000e+00
    outer loop
      vertex   6.350000e+00 2.540000e+00 0.000000e+00
      vertex   6.350000e+00 2.794000e+01 3.175000e+00
      vertex   6.350000e+00 2.732942e+00 5.380332e+00
    endloop
  endfacet
  facet normal 1.000000e+00 0.000000e+00 0.000000e+00
    outer loop
      vertex   6.350000e+00 2.540000e+00 0.000000e+00
      vertex   6.350000e+00 2.732942e+00 5.380332e+00
      vertex   6.350000e+00 2.540000e+00 3.175000e+00
    endloop
  endfacet
  facet normal 1.000000e+00 0.000000e+00 0.000000e+00
    outer loop
      vertex   6.350000e+00 2.794000e+01 3.175000e+00
      vertex   6.350000e+00 2.774706e+01 5.380332e+00
      vertex   6.350000e+00 2.732942e+00 5.380332e+00
    endloop
  endfacet
  facet normal 1.000000e+00 0.000000e+00 0.000000e+00
    outer loop
      vertex   6.350000e+00 2.732942e+00 5.380332e+00
      vertex   6.350000e+00 2.774706e+01 5.380332e+00
      vertex   6.350000e+00 2.717410e+01 7.518656e+00
    endloop
  endfacet
  facet normal 1.000000e+00 0.000000e+00 0.000000e+00
    outer loop
      vertex   6.350000e+00 2.732942e+00 5.380332e+00
      vertex   6.350000e+00 2.717410e+01 7.518656e+00
      vertex   6.350000e+00 3.305904e+00 7.518656e+00
    endloop
  endfacet
  facet normal 1.000000e+00 0.000000e+00 0.000000e+00
    outer loop
      vertex   6.350000e+00 3.305904e+00 7.518656e+00
      vertex   6.350000e+00 2.717410e+01 7.518656e+00
      vertex   6.350000e+00 2.623852e+01 9.525000e+00
    endloop
  endfacet
  facet normal 1.000000e+00 0.000000e+00 0.000000e+00
    outer loop
      vertex   6.350000e+00 3.305904e+00 7.518656e+00
      vertex   6.350000e+00 2.623852e+01 9.525000e+00
      vertex   6.350000e+00 4.241477e+00 9.525000e+00
    endloop
  endfacet
  facet normal 1.000000e+00 0.000000e+00 0.000000e+00
    outer loop
      vertex   6.350000e+00 4.241477e+00 9.525000e+00
      vertex   6.350000e+00 2.623852e+01 9.525000e+00
      vertex   6.350000e+00 2.496876e+01 1.133840e+01
    endloop
  endfacet
  facet normal 1.000000e+00 0.000000e+00 0.000000e+00
    outer loop
      vertex   6.350000e+00 4.241477e+00 9.525000e+00
      vertex   6.350000e+00 2.496876e+01 1.133840e+01
      vertex   6.350000e+00 5.511236e+00 1.133840e+01
    endloop
  endfacet
  facet normal 1.000000e+00 0.000000e+00 0.000000e+00
    outer loop
      vertex   6.350000e+00 5.511236e+00 1.133840e+01
      vertex   6.350000e+00 2.496876e+01 1.133840e+01
      vertex   6.350000e+00 2.340340e+01 1.290376e+01
    endloop
  endfacet
  facet normal 1.000000e+00 0.000000e+00 0.000000e+00
    outer loop
      vertex   6.350000e+00 5.511236e+00 1.133840e+01
      vertex   6.350000e+00 2.340340e+01 1.290376e+01
      vertex   6.350000e+00 7.076597e+00 1.290376e+01
    endloop
  endfacet
  facet normal 1.000000e+00 0.000000e+00 0.000000e+00
    outer loop
      vertex   6.350000e+00 7.076597e+00 1.290376e+01
      vertex   6.350000e+00 2.340340e+01 1.290376e+01
      vertex   6.350000e+00 2.159000e+01 1.417352e+01
    endloop
  endfacet
  facet normal 1.000000e+00 0.000000e+00 0.000000e+00
    outer loop
      vertex   6.350000e+00 7.076597e+00 1.290376e+01
      vertex   6.350000e+00 2.159000e+01 1.417352e+01
      vertex   6.350000e+00 8.890000e+00 1.417352e+01
    endloop
  endfacet
  facet normal 1.000000e+00 0.000000e+00 0.000000e+00
    outer loop
      vertex   6.350000e+00 8.890000e+00 1.417352e+01
      vertex   6.350000e+00 2.159000e+01 1.417352e+01
      vertex   6.350000e+00 1.958366e+01 1.510910e+01
    endloop
  endfacet
  facet normal 1.000000e+00 0.000000e+00 0.000000e+00
    outer loop
      vertex   6.350000e+00 8.890000e+00 1.417352e+01
      vertex   6.350000e+00 1.958366e+01 1.510910e+01
      vertex   6.350000e+00 1.744533e+01 1.568206e+01
    endloop
  endfacet
  facet normal 1.000000e+00 0.000000e+00 0.000000e+00
    outer loop
      vertex   6.350000e+00 1.744533e+01 1.568206e+01
      vertex   6.350000e+00 1.524000e+01 1.587500e+01
      vertex   6.350000e+00 8.890000e+00 1.417352e+01
    endloop
  endfacet
  facet normal 1.000000e+00 0.000000e+00 0.000000e+00
    outer loop
      vertex   6.350000e+00 8.890000e+00 1.417352e+01
      vertex   6.350000e+00 1.524000e+01 1.587500e+01
      vertex   6.350000e+00 1.303467e+01 1.568206e+01
    endloop
  endfacet
  facet normal 1.000000e+00 0.000000e+00 0.000000e+00
    outer loop
      vertex   6.350000e+00 8.890000e+00 1.417352e+01
      vertex   6.350000e+00 1.303467e+01 1.568206e+01
      vertex   6.350000e+00 1.089634e+01 1.510910e+01
    endloop
  endfacet
  facet normal 0.000000e+00 0.000000e+00 -1.000000e+00
    outer loop
      vertex   9.525000e+01 2.794000e+01 0.000000e+00
      vertex   6.350000e+00 2.794000e+01 0.000000e+00
      vertex   9.525000e+01 3.111500e+01 0.000000e+00
    endloop
  endfacet
  facet normal -0.000000e+00 0.000000e+00 -1.000000e+00
    outer loop
      vertex   9.525000e+01 3.111500e+01 0.000000e+00
      vertex   6.350000e+00 2.794000e+01 0.000000e+00
      vertex   0.000000e+00 3.111500e+01 0.000000e+00
    endloop
  endfacet
  facet normal 0.000000e+00 0.000000e+00 -1.000000e+00
    outer loop
      vertex   0.000000e+00 3.111500e+01 0.000000e+00
      vertex   6.350000e+00 2.794000e+01 0.000000e+00
      vertex   0.000000e+00 0.000000e+00 0.000000e+00
    endloop
  endfacet
  facet normal 0.000000e+00 0.000000e+00 -1.000000e+00
    outer loop
      vertex   0.000000e+00 0.000000e+00 0.000000e+00
      vertex   6.350000e+00 2.794000e+01 0.000000e+00
      vertex   6.350000e+00 2.540000e+00 0.000000e+00
    endloop
  endfacet
  facet normal 0.000000e+00 0.000000e+00 -1.000000e+00
    outer loop
      vertex   0.000000e+00 0.000000e+00 0.000000e+00
      vertex   6.350000e+00 2.540000e+00 0.000000e+00
      vertex   9.525000e+01 0.000000e+00 0.000000e+00
    endloop
  endfacet
  facet normal 0.000000e+00 0.000000e+00 -1.000000e+00
    outer loop
      vertex   9.525000e+01 0.000000e+00 0.000000e+00
      vertex   6.350000e+00 2.540000e+00 0.000000e+00
      vertex   9.525000e+01 2.540000e+00 0.000000e+00
    endloop
  endfacet
  facet normal 0.000000e+00 -1.000000e+00 0.000000e+00
    outer loop
      vertex   1.129434e+01 0.000000e+00 1.831225e+01
      vertex   1.111250e+01 0.000000e+00 1.905000e+01
      vertex   0.000000e+00 0.000000e+00 2.540000e+01
    endloop
  endfacet
  facet normal 0.000000e+00 -1.000000e+00 0.000000e+00
    outer loop
      vertex   0.000000e+00 0.000000e+00 2.540000e+01
      vertex   1.111250e+01 0.000000e+00 1.905000e+01
      vertex   1.129434e+01 0.000000e+00 1.978775e+01
    endloop
  endfacet
  facet normal 0.000000e+00 -1.000000e+00 0.000000e+00
    outer loop
      vertex   0.000000e+00 0.000000e+00 2.540000e+01
      vertex   1.129434e+01 0.000000e+00 1.978775e+01
      vertex   1.179820e+01 0.000000e+00 2.035649e+01
    endloop
  endfacet
  facet normal 0.000000e+00 -1.000000e+00 0.000000e+00
    outer loop
      vertex   1.179820e+01 0.000000e+00 2.035649e+01
      vertex   1.250865e+01 0.000000e+00 2.062593e+01
      vertex   0.000000e+00 0.000000e+00 2.540000e+01
    endloop
  endfacet
  facet normal 0.000000e+00 -1.000000e+00 0.000000e+00
    outer loop
      vertex   0.000000e+00 0.000000e+00 2.540000e+01
      vertex   1.250865e+01 0.000000e+00 2.062593e+01
      vertex   1.326293e+01 0.000000e+00 2.053434e+01
    endloop
  endfacet
  facet normal 0.000000e+00 -1.000000e+00 0.000000e+00
    outer loop
      vertex   0.000000e+00 0.000000e+00 2.540000e+01
      vertex   1.326293e+01 0.000000e+00 2.053434e+01
      vertex   7.600865e+01 0.000000e+00 2.062593e+01
    endloop
  endfacet
  facet normal 0.000000e+00 -1.000000e+00 0.000000e+00
    outer loop
      vertex   7.600865e+01 0.000000e+00 2.062593e+01
      vertex   1.326293e+01 0.000000e+00 2.053434e+01
      vertex   7.529819e+01 0.000000e+00 2.035649e+01
    endloop
  endfacet
  facet normal -0.000000e+00 -1.000000e+00 0.000000e+00
    outer loop
      vertex   7.529819e+01 0.000000e+00 2.035649e+01
      vertex   1.326293e+01 0.000000e+00 2.053434e+01
      vertex   1.388826e+01 0.000000e+00 2.010271e+01
    endloop
  endfacet
  facet normal 0.000000e+00 -1.000000e+00 0.000000e+00
    outer loop
      vertex   7.529819e+01 0.000000e+00 2.035649e+01
      vertex   1.388826e+01 0.000000e+00 2.010271e+01
      vertex   7.479434e+01 0.000000e+00 1.978775e+01
    endloop
  endfacet
  facet normal -0.000000e+00 -1.000000e+00 0.000000e+00
    outer loop
      vertex   7.479434e+01 0.000000e+00 1.978775e+01
      vertex   1.388826e+01 0.000000e+00 2.010271e+01
      vertex   1.424137e+01 0.000000e+00 1.942991e+01
    endloop
  endfacet
  facet normal 0.000000e+00 -1.000000e+00 0.000000e+00
    outer loop
      vertex   7.479434e+01 0.000000e+00 1.978775e+01
      vertex   1.424137e+01 0.000000e+00 1.942991e+01
      vertex   7.461250e+01 0.000000e+00 1.905000e+01
    endloop
  endfacet
  facet normal -0.000000e+00 -1.000000e+00 0.000000e+00
    outer loop
      vertex   7.461250e+01 0.000000e+00 1.905000e+01
      vertex   1.424137e+01 0.000000e+00 1.942991e+01
      vertex   1.424137e+01 0.000000e+00 1.867009e+01
    endloop
  endfacet
  facet normal 0.000000e+00 -1.000000e+00 -0.000000e+00
    outer loop
      vertex   7.461250e+01 0.000000e+00 1.905000e+01
      vertex   1.424137e+01 0.000000e+00 1.867009e+01
      vertex   7.479434e+01 0.000000e+00 1.831225e+01
    endloop
  endfacet
  facet normal -0.000000e+00 -1.000000e+00 0.000000e+00
    outer loop
      vertex   7.479434e+01 0.000000e+00 1.831225e+01
      vertex   1.424137e+01 0.000000e+00 1.867009e+01
      vertex   1.388826e+01 0.000000e+00 1.799729e+01
    endloop
  endfacet
  facet normal 0.000000e+00 -1.000000e+00 -0.000000e+00
    outer loop
      vertex   7.479434e+01 0.000000e+00 1.831225e+01
      vertex   1.388826e+01 0.000000e+00 1.799729e+01
      vertex   7.529819e+01 0.000000e+00 1.774351e+01
    endloop
  endfacet
  facet normal -0.000000e+00 -1.000000e+00 0.000000e+00
    outer loop
      vertex   7.529819e+01 0.000000e+00 1.774351e+01
      vertex   1.388826e+01 0.000000e+00 1.799729e+01
      vertex   1.326293e+01 0.000000e+00 1.756566e+01
    endloop
  endfacet
  facet normal 0.000000e+00 -1.000000e+00 -0.000000e+00
    outer loop
      vertex   7.529819e+01 0.000000e+00 1.774351e+01
      vertex   1.326293e+01 0.000000e+00 1.756566e+01
      vertex   7.600865e+01 0.000000e+00 1.747407e+01
    endloop
  endfacet
  facet normal -0.000000e+00 -1.000000e+00 0.000000e+00
    outer loop
      vertex   7.600865e+01 0.000000e+00 1.747407e+01
      vertex   1.326293e+01 0.000000e+00 1.756566e+01
      vertex   0.000000e+00 0.000000e+00 0.000000e+00
    endloop
  endfacet
  facet normal 0.000000e+00 -1.000000e+00 -0.000000e+00
    outer loop
      vertex   7.600865e+01 0.000000e+00 1.747407e+01
      vertex   0.000000e+00 0.000000e+00 0.000000e+00
      vertex   9.525000e+01 0.000000e+00 0.000000e+00
    endloop
  endfacet
  facet normal 0.000000e+00 -1.000000e+00 0.000000e+00
    outer loop
      vertex   1.326293e+01 0.000000e+00 1.756566e+01
      vertex   1.250865e+01 0.000000e+00 1.747407e+01
      vertex   0.000000e+00 0.000000e+00 0.000000e+00
    endloop
  endfacet
  facet normal 0.000000e+00 -1.000000e+00 0.000000e+00
    outer loop
      vertex   0.000000e+00 0.000000e+00 0.000000e+00
      vertex   1.250865e+01 0.000000e+00 1.747407e+01
      vertex   1.179820e+01 0.000000e+00 1.774351e+01
    endloop
  endfacet
  facet normal 0.000000e+00 -1.000000e+00 0.000000e+00
    outer loop
      vertex   0.000000e+00 0.000000e+00 0.000000e+00
      vertex   1.179820e+01 0.000000e+00 1.774351e+01
      vertex   1.129434e+01 0.000000e+00 1.831225e+01
    endloop
  endfacet
  facet normal 0.000000e+00 -1.000000e+00 0.000000e+00
    outer loop
      vertex   0.000000e+00 0.000000e+00 0.000000e+00
      vertex   1.129434e+01 0.000000e+00 1.831225e+01
      vertex   0.000000e+00 0.000000e+00 2.540000e+01
    endloop
  endfacet
  facet normal 0.000000e+00 -1.000000e+00 0.000000e+00
    outer loop
      vertex   0.000000e+00 0.000000e+00 2.540000e+01
      vertex   7.600865e+01 0.000000e+00 2.062593e+01
      vertex   9.525000e+01 0.000000e+00 2.540000e+01
    endloop
  endfacet
  facet normal 0.000000e+00 -1.000000e+00 0.000000e+00
    outer loop
      vertex   9.525000e+01 0.000000e+00 2.540000e+01
      vertex   7.600865e+01 0.000000e+00 2.062593e+01
      vertex   7.676293e+01 0.000000e+00 2.053434e+01
    endloop
  endfacet
  facet normal 0.000000e+00 -1.000000e+00 0.000000e+00
    outer loop
      vertex   9.525000e+01 0.000000e+00 2.540000e+01
      vertex   7.676293e+01 0.000000e+00 2.053434e+01
      vertex   7.738826e+01 0.000000e+00 2.010271e+01
    endloop
  endfacet
  facet normal 0.000000e+00 -1.000000e+00 0.000000e+00
    outer loop
      vertex   7.738826e+01 0.000000e+00 2.010271e+01
      vertex   7.774137e+01 0.000000e+00 1.942991e+01
      vertex   9.525000e+01 0.000000e+00 2.540000e+01
    endloop
  endfacet
  facet normal 0.000000e+00 -1.000000e+00 0.000000e+00
    outer loop
      vertex   9.525000e+01 0.000000e+00 2.540000e+01
      vertex   7.774137e+01 0.000000e+00 1.942991e+01
      vertex   7.774137e+01 0.000000e+00 1.867009e+01
    endloop
  endfacet
  facet normal 0.000000e+00 -1.000000e+00 0.000000e+00
    outer loop
      vertex   9.525000e+01 0.000000e+00 2.540000e+01
      vertex   7.774137e+01 0.000000e+00 1.867009e+01
      vertex   7.738826e+01 0.000000e+00 1.799729e+01
    endloop
  endfacet
  facet normal 0.000000e+00 -1.000000e+00 -0.000000e+00
    outer loop
      vertex   9.525000e+01 0.000000e+00 2.540000e+01
      vertex   7.738826e+01 0.000000e+00 1.799729e+01
      vertex   9.525000e+01 0.000000e+00 0.000000e+00
    endloop
  endfacet
  facet normal 0.000000e+00 -1.000000e+00 0.000000e+00
    outer loop
      vertex   9.525000e+01 0.000000e+00 0.000000e+00
      vertex   7.738826e+01 0.000000e+00 1.799729e+01
      vertex   7.676293e+01 0.000000e+00 1.756566e+01
    endloop
  endfacet
  facet normal 0.000000e+00 -1.000000e+00 0.000000e+00
    outer loop
      vertex   9.525000e+01 0.000000e+00 0.000000e+00
      vertex   7.676293e+01 0.000000e+00 1.756566e+01
      vertex   7.600865e+01 0.000000e+00 1.747407e+01
    endloop
  endfacet
  facet normal 0.000000e+00 1.000000e+00 0.000000e+00
    outer loop
      vertex   1.410566e+01 3.111500e+01 1.978775e+01
      vertex   7.465863e+01 3.111500e+01 1.942991e+01
      vertex   1.428750e+01 3.111500e+01 1.905000e+01
    endloop
  endfacet
  facet normal -0.000000e+00 1.000000e+00 0.000000e+00
    outer loop
      vertex   1.428750e+01 3.111500e+01 1.905000e+01
      vertex   7.465863e+01 3.111500e+01 1.942991e+01
      vertex   7.465863e+01 3.111500e+01 1.867009e+01
    endloop
  endfacet
  facet normal 0.000000e+00 1.000000e+00 0.000000e+00
    outer loop
      vertex   1.428750e+01 3.111500e+01 1.905000e+01
      vertex   7.465863e+01 3.111500e+01 1.867009e+01
      vertex   1.410566e+01 3.111500e+01 1.831225e+01
    endloop
  endfacet
  facet normal -0.000000e+00 1.000000e+00 0.000000e+00
    outer loop
      vertex   1.410566e+01 3.111500e+01 1.831225e+01
      vertex   7.465863e+01 3.111500e+01 1.867009e+01
      vertex   7.501174e+01 3.111500e+01 1.799729e+01
    endloop
  endfacet
  facet normal 0.000000e+00 1.000000e+00 0.000000e+00
    outer loop
      vertex   1.410566e+01 3.111500e+01 1.831225e+01
      vertex   7.501174e+01 3.111500e+01 1.799729e+01
      vertex   1.360180e+01 3.111500e+01 1.774351e+01
    endloop
  endfacet
  facet normal -0.000000e+00 1.000000e+00 0.000000e+00
    outer loop
      vertex   1.360180e+01 3.111500e+01 1.774351e+01
      vertex   7.501174e+01 3.111500e+01 1.799729e+01
      vertex   7.563706e+01 3.111500e+01 1.756566e+01
    endloop
  endfacet
  facet normal 0.000000e+00 1.000000e+00 0.000000e+00
    outer loop
      vertex   1.360180e+01 3.111500e+01 1.774351e+01
      vertex   7.563706e+01 3.111500e+01 1.756566e+01
      vertex   1.289135e+01 3.111500e+01 1.747407e+01
    endloop
  endfacet
  facet normal -0.000000e+00 1.000000e+00 0.000000e+00
    outer loop
      vertex   1.289135e+01 3.111500e+01 1.747407e+01
      vertex   7.563706e+01 3.111500e+01 1.756566e+01
      vertex   0.000000e+00 3.111500e+01 0.000000e+00
    endloop
  endfacet
  facet normal 0.000000e+00 1.000000e+00 0.000000e+00
    outer loop
      vertex   1.289135e+01 3.111500e+01 1.747407e+01
      vertex   0.000000e+00 3.111500e+01 0.000000e+00
      vertex   1.213706e+01 3.111500e+01 1.756566e+01
    endloop
  endfacet
  facet normal 0.000000e+00 1.000000e+00 0.000000e+00
    outer loop
      vertex   1.213706e+01 3.111500e+01 1.756566e+01
      vertex   0.000000e+00 3.111500e+01 0.000000e+00
      vertex   1.151174e+01 3.111500e+01 1.799729e+01
    endloop
  endfacet
  facet normal 0.000000e+00 1.000000e+00 0.000000e+00
    outer loop
      vertex   1.151174e+01 3.111500e+01 1.799729e+01
      vertex   0.000000e+00 3.111500e+01 0.000000e+00
      vertex   0.000000e+00 3.111500e+01 2.540000e+01
    endloop
  endfacet
  facet normal 0.000000e+00 1.000000e+00 0.000000e+00
    outer loop
      vertex   1.151174e+01 3.111500e+01 1.799729e+01
      vertex   0.000000e+00 3.111500e+01 2.540000e+01
      vertex   1.115863e+01 3.111500e+01 1.867009e+01
    endloop
  endfacet
  facet normal 0.000000e+00 1.000000e+00 -0.000000e+00
    outer loop
      vertex   1.115863e+01 3.111500e+01 1.867009e+01
      vertex   0.000000e+00 3.111500e+01 2.540000e+01
      vertex   1.115863e+01 3.111500e+01 1.942991e+01
    endloop
  endfacet
  facet normal 0.000000e+00 1.000000e+00 -0.000000e+00
    outer loop
      vertex   1.115863e+01 3.111500e+01 1.942991e+01
      vertex   0.000000e+00 3.111500e+01 2.540000e+01
      vertex   1.151174e+01 3.111500e+01 2.010271e+01
    endloop
  endfacet
  facet normal 0.000000e+00 1.000000e+00 -0.000000e+00
    outer loop
      vertex   1.151174e+01 3.111500e+01 2.010271e+01
      vertex   0.000000e+00 3.111500e+01 2.540000e+01
      vertex   1.213706e+01 3.111500e+01 2.053434e+01
    endloop
  endfacet
  facet normal 0.000000e+00 1.000000e+00 -0.000000e+00
    outer loop
      vertex   1.213706e+01 3.111500e+01 2.053434e+01
      vertex   0.000000e+00 3.111500e+01 2.540000e+01
      vertex   1.289135e+01 3.111500e+01 2.062593e+01
    endloop
  endfacet
  facet normal -0.000000e+00 1.000000e+00 -0.000000e+00
    outer loop
      vertex   1.289135e+01 3.111500e+01 2.062593e+01
      vertex   0.000000e+00 3.111500e+01 2.540000e+01
      vertex   7.563706e+01 3.111500e+01 2.053434e+01
    endloop
  endfacet
  facet normal 0.000000e+00 1.000000e+00 0.000000e+00
    outer loop
      vertex   1.289135e+01 3.111500e+01 2.062593e+01
      vertex   7.563706e+01 3.111500e+01 2.053434e+01
      vertex   1.360180e+01 3.111500e+01 2.035649e+01
    endloop
  endfacet
  facet normal -0.000000e+00 1.000000e+00 0.000000e+00
    outer loop
      vertex   1.360180e+01 3.111500e+01 2.035649e+01
      vertex   7.563706e+01 3.111500e+01 2.053434e+01
      vertex   7.501174e+01 3.111500e+01 2.010271e+01
    endloop
  endfacet
  facet normal 0.000000e+00 1.000000e+00 0.000000e+00
    outer loop
      vertex   1.360180e+01 3.111500e+01 2.035649e+01
      vertex   7.501174e+01 3.111500e+01 2.010271e+01
      vertex   1.410566e+01 3.111500e+01 1.978775e+01
    endloop
  endfacet
  facet normal -0.000000e+00 1.000000e+00 0.000000e+00
    outer loop
      vertex   1.410566e+01 3.111500e+01 1.978775e+01
      vertex   7.501174e+01 3.111500e+01 2.010271e+01
      vertex   7.465863e+01 3.111500e+01 1.942991e+01
    endloop
  endfacet
  facet normal 0.000000e+00 1.000000e+00 0.000000e+00
    outer loop
      vertex   7.760566e+01 3.111500e+01 1.831225e+01
      vertex   7.778750e+01 3.111500e+01 1.905000e+01
      vertex   9.525000e+01 3.111500e+01 2.540000e+01
    endloop
  endfacet
  facet normal 0.000000e+00 1.000000e+00 0.000000e+00
    outer loop
      vertex   9.525000e+01 3.111500e+01 2.540000e+01
      vertex   7.778750e+01 3.111500e+01 1.905000e+01
      vertex   7.760566e+01 3.111500e+01 1.978775e+01
    endloop
  endfacet
  facet normal 0.000000e+00 1.000000e+00 0.000000e+00
    outer loop
      vertex   9.525000e+01 3.111500e+01 2.540000e+01
      vertex   7.760566e+01 3.111500e+01 1.978775e+01
      vertex   7.710180e+01 3.111500e+01 2.035649e+01
    endloop
  endfacet
  facet normal 0.000000e+00 1.000000e+00 -0.000000e+00
    outer loop
      vertex   7.710180e+01 3.111500e+01 2.035649e+01
      vertex   7.639135e+01 3.111500e+01 2.062593e+01
      vertex   9.525000e+01 3.111500e+01 2.540000e+01
    endloop
  endfacet
  facet normal 0.000000e+00 1.000000e+00 0.000000e+00
    outer loop
      vertex   9.525000e+01 3.111500e+01 2.540000e+01
      vertex   7.639135e+01 3.111500e+01 2.062593e+01
      vertex   7.563706e+01 3.111500e+01 2.053434e+01
    endloop
  endfacet
  facet normal 0.000000e+00 1.000000e+00 0.000000e+00
    outer loop
      vertex   9.525000e+01 3.111500e+01 2.540000e+01
      vertex   7.563706e+01 3.111500e+01 2.053434e+01
      vertex   0.000000e+00 3.111500e+01 2.540000e+01
    endloop
  endfacet
  facet normal 0.000000e+00 1.000000e+00 0.000000e+00
    outer loop
      vertex   0.000000e+00 3.111500e+01 0.000000e+00
      vertex   7.563706e+01 3.111500e+01 1.756566e+01
      vertex   9.525000e+01 3.111500e+01 0.000000e+00
    endloop
  endfacet
  facet normal 0.000000e+00 1.000000e+00 0.000000e+00
    outer loop
      vertex   9.525000e+01 3.111500e+01 0.000000e+00
      vertex   7.563706e+01 3.111500e+01 1.756566e+01
      vertex   7.639135e+01 3.111500e+01 1.747407e+01
    endloop
  endfacet
  facet normal 0.000000e+00 1.000000e+00 0.000000e+00
    outer loop
      vertex   9.525000e+01 3.111500e+01 0.000000e+00
      vertex   7.639135e+01 3.111500e+01 1.747407e+01
      vertex   7.710180e+01 3.111500e+01 1.774351e+01
    endloop
  endfacet
  facet normal 0.000000e+00 1.000000e+00 -0.000000e+00
    outer loop
      vertex   9.525000e+01 3.111500e+01 0.000000e+00
      vertex   7.710180e+01 3.111500e+01 1.774351e+01
      vertex   9.525000e+01 3.111500e+01 2.540000e+01
    endloop
  endfacet
  facet normal 0.000000e+00 1.000000e+00 0.000000e+00
    outer loop
      vertex   9.525000e+01 3.111500e+01 2.540000e+01
      vertex   7.710180e+01 3.111500e+01 1.774351e+01
      vertex   7.760566e+01 3.111500e+01 1.831225e+01
    endloop
  endfacet
  facet normal -1.000000e+00 0.000000e+00 0.000000e+00
    outer loop
      vertex   0.000000e+00 0.000000e+00 0.000000e+00
      vertex   0.000000e+00 0.000000e+00 2.540000e+01
      vertex   0.000000e+00 3.111500e+01 0.000000e+00
    endloop
  endfacet
  facet normal -1.000000e+00 0.000000e+00 0.000000e+00
    outer loop
      vertex   0.000000e+00 3.111500e+01 0.000000e+00
      vertex   0.000000e+00 0.000000e+00 2.540000e+01
      vertex   0.000000e+00 3.111500e+01 2.540000e+01
    endloop
  endfacet
endsolid
