solid ASCII
  facet normal -1.000000e+00 0.000000e+00 0.000000e+00
    outer loop
      vertex   -1.943205e+01 0.000000e+00 -2.292089e+01
      vertex   -1.943205e+01 0.000000e+00 1.707911e+01
      vertex   -1.943205e+01 4.000000e+01 -2.292089e+01
    endloop
  endfacet
  facet normal -1.000000e+00 0.000000e+00 0.000000e+00
    outer loop
      vertex   -1.943205e+01 4.000000e+01 -2.292089e+01
      vertex   -1.943205e+01 0.000000e+00 1.707911e+01
      vertex   -1.943205e+01 4.000000e+01 1.707911e+01
    endloop
  endfacet
  facet normal 0.000000e+00 0.000000e+00 -1.000000e+00
    outer loop
      vertex   2.056795e+01 0.000000e+00 -2.292089e+01
      vertex   -1.943205e+01 0.000000e+00 -2.292089e+01
      vertex   2.056795e+01 4.000000e+01 -2.292089e+01
    endloop
  endfacet
  facet normal -0.000000e+00 0.000000e+00 -1.000000e+00
    outer loop
      vertex   2.056795e+01 4.000000e+01 -2.292089e+01
      vertex   -1.943205e+01 0.000000e+00 -2.292089e+01
      vertex   -1.943205e+01 4.000000e+01 -2.292089e+01
    endloop
  endfacet
  facet normal 1.000000e+00 -0.000000e+00 0.000000e+00
    outer loop
      vertex   2.056795e+01 0.000000e+00 1.707911e+01
      vertex   2.056795e+01 0.000000e+00 -2.292089e+01
      vertex   2.056795e+01 4.000000e+01 1.707911e+01
    endloop
  endfacet
  facet normal 1.000000e+00 0.000000e+00 0.000000e+00
    outer loop
      vertex   2.056795e+01 4.000000e+01 1.707911e+01
      vertex   2.056795e+01 0.000000e+00 -2.292089e+01
      vertex   2.056795e+01 4.000000e+01 -2.292089e+01
    endloop
  endfacet
  facet normal 0.000000e+00 0.000000e+00 1.000000e+00
    outer loop
      vertex   -1.943205e+01 0.000000e+00 1.707911e+01
      vertex   2.056795e+01 0.000000e+00 1.707911e+01
      vertex   -1.943205e+01 4.000000e+01 1.707911e+01
    endloop
  endfacet
  facet normal -0.000000e+00 0.000000e+00 1.000000e+00
    outer loop
      vertex   -1.943205e+01 4.000000e+01 1.707911e+01
      vertex   2.056795e+01 0.000000e+00 1.707911e+01
      vertex   2.056795e+01 4.000000e+01 1.707911e+01
    endloop
  endfacet
  facet normal -0.000000e+00 1.000000e+00 0.000000e+00
    outer loop
      vertex   1.175795e+01 4.000000e+01 -1.349397e+01
      vertex   1.188875e+01 4.000000e+01 -1.292089e+01
      vertex   2.056795e+01 4.000000e+01 -2.292089e+01
    endloop
  endfacet
  facet normal 0.000000e+00 1.000000e+00 0.000000e+00
    outer loop
      vertex   2.056795e+01 4.000000e+01 -2.292089e+01
      vertex   1.188875e+01 4.000000e+01 -1.292089e+01
      vertex   1.175795e+01 4.000000e+01 -1.234782e+01
    endloop
  endfacet
  facet normal 0.000000e+00 1.000000e+00 -0.000000e+00
    outer loop
      vertex   2.056795e+01 4.000000e+01 -2.292089e+01
      vertex   1.175795e+01 4.000000e+01 -1.234782e+01
      vertex   2.056795e+01 4.000000e+01 1.707911e+01
    endloop
  endfacet
  facet normal 0.000000e+00 1.000000e+00 0.000000e+00
    outer loop
      vertex   2.056795e+01 4.000000e+01 1.707911e+01
      vertex   1.175795e+01 4.000000e+01 -1.234782e+01
      vertex   1.139146e+01 4.000000e+01 -1.188825e+01
    endloop
  endfacet
  facet normal 0.000000e+00 1.000000e+00 0.000000e+00
    outer loop
      vertex   2.056795e+01 4.000000e+01 1.707911e+01
      vertex   1.139146e+01 4.000000e+01 -1.188825e+01
      vertex   1.086186e+01 4.000000e+01 -1.163321e+01
    endloop
  endfacet
  facet normal 0.000000e+00 1.000000e+00 -0.000000e+00
    outer loop
      vertex   1.086186e+01 4.000000e+01 -1.163321e+01
      vertex   1.027405e+01 4.000000e+01 -1.163321e+01
      vertex   2.056795e+01 4.000000e+01 1.707911e+01
    endloop
  endfacet
  facet normal 0.000000e+00 1.000000e+00 0.000000e+00
    outer loop
      vertex   2.056795e+01 4.000000e+01 1.707911e+01
      vertex   1.027405e+01 4.000000e+01 -1.163321e+01
      vertex   -1.943205e+01 4.000000e+01 1.707911e+01
    endloop
  endfacet
  facet normal 0.000000e+00 1.000000e+00 0.000000e+00
    outer loop
      vertex   -1.943205e+01 4.000000e+01 1.707911e+01
      vertex   1.027405e+01 4.000000e+01 -1.163321e+01
      vertex   9.744446e+00 4.000000e+01 -1.188825e+01
    endloop
  endfacet
  facet normal 0.000000e+00 1.000000e+00 0.000000e+00
    outer loop
      vertex   -1.943205e+01 4.000000e+01 1.707911e+01
      vertex   9.744446e+00 4.000000e+01 -1.188825e+01
      vertex   9.377952e+00 4.000000e+01 -1.234782e+01
    endloop
  endfacet
  facet normal 0.000000e+00 1.000000e+00 0.000000e+00
    outer loop
      vertex   -1.943205e+01 4.000000e+01 1.707911e+01
      vertex   9.377952e+00 4.000000e+01 -1.234782e+01
      vertex   -1.943205e+01 4.000000e+01 -2.292089e+01
    endloop
  endfacet
  facet normal 0.000000e+00 1.000000e+00 0.000000e+00
    outer loop
      vertex   -1.943205e+01 4.000000e+01 -2.292089e+01
      vertex   9.377952e+00 4.000000e+01 -1.234782e+01
      vertex   9.247152e+00 4.000000e+01 -1.292089e+01
    endloop
  endfacet
  facet normal 0.000000e+00 1.000000e+00 0.000000e+00
    outer loop
      vertex   -1.943205e+01 4.000000e+01 -2.292089e+01
      vertex   9.247152e+00 4.000000e+01 -1.292089e+01
      vertex   9.377952e+00 4.000000e+01 -1.349397e+01
    endloop
  endfacet
  facet normal 0.000000e+00 1.000000e+00 0.000000e+00
    outer loop
      vertex   9.377952e+00 4.000000e+01 -1.349397e+01
      vertex   9.744446e+00 4.000000e+01 -1.395354e+01
      vertex   -1.943205e+01 4.000000e+01 -2.292089e+01
    endloop
  endfacet
  facet normal 0.000000e+00 1.000000e+00 0.000000e+00
    outer loop
      vertex   -1.943205e+01 4.000000e+01 -2.292089e+01
      vertex   9.744446e+00 4.000000e+01 -1.395354e+01
      vertex   1.027405e+01 4.000000e+01 -1.420858e+01
    endloop
  endfacet
  facet normal 0.000000e+00 1.000000e+00 0.000000e+00
    outer loop
      vertex   -1.943205e+01 4.000000e+01 -2.292089e+01
      vertex   1.027405e+01 4.000000e+01 -1.420858e+01
      vertex   2.056795e+01 4.000000e+01 -2.292089e+01
    endloop
  endfacet
  facet normal 0.000000e+00 1.000000e+00 0.000000e+00
    outer loop
      vertex   2.056795e+01 4.000000e+01 -2.292089e+01
      vertex   1.027405e+01 4.000000e+01 -1.420858e+01
      vertex   1.086186e+01 4.000000e+01 -1.420858e+01
    endloop
  endfacet
  facet normal 0.000000e+00 1.000000e+00 0.000000e+00
    outer loop
      vertex   2.056795e+01 4.000000e+01 -2.292089e+01
      vertex   1.086186e+01 4.000000e+01 -1.420858e+01
      vertex   1.139146e+01 4.000000e+01 -1.395354e+01
    endloop
  endfacet
  facet normal -0.000000e+00 1.000000e+00 0.000000e+00
    outer loop
      vertex   1.139146e+01 4.000000e+01 -1.395354e+01
      vertex   1.175795e+01 4.000000e+01 -1.349397e+01
      vertex   2.056795e+01 4.000000e+01 -2.292089e+01
    endloop
  endfacet
  facet normal 0.000000e+00 -1.000000e+00 0.000000e+00
    outer loop
      vertex   -1.943205e+01 0.000000e+00 1.707911e+01
      vertex   -1.943205e+01 0.000000e+00 -2.292089e+01
      vertex   2.056795e+01 0.000000e+00 1.707911e+01
    endloop
  endfacet
  facet normal 0.000000e+00 -1.000000e+00 -0.000000e+00
    outer loop
      vertex   2.056795e+01 0.000000e+00 1.707911e+01
      vertex   -1.943205e+01 0.000000e+00 -2.292089e+01
      vertex   2.056795e+01 0.000000e+00 -2.292089e+01
    endloop
  endfacet
  facet normal -9.749280e-01 0.000000e+00 2.225204e-01
    outer loop
      vertex   1.175795e+01 4.000000e+01 -1.349397e+01
      vertex   1.175795e+01 3.000000e+01 -1.349397e+01
      vertex   1.188875e+01 4.000000e+01 -1.292089e+01
    endloop
  endfacet
  facet normal -9.749280e-01 0.000000e+00 2.225204e-01
    outer loop
      vertex   1.188875e+01 4.000000e+01 -1.292089e+01
      vertex   1.175795e+01 3.000000e+01 -1.349397e+01
      vertex   1.188875e+01 3.000000e+01 -1.292089e+01
    endloop
  endfacet
  facet normal -9.749280e-01 -0.000000e+00 -2.225204e-01
    outer loop
      vertex   1.188875e+01 4.000000e+01 -1.292089e+01
      vertex   1.188875e+01 3.000000e+01 -1.292089e+01
      vertex   1.175795e+01 4.000000e+01 -1.234782e+01
    endloop
  endfacet
  facet normal -9.749280e-01 -0.000000e+00 -2.225204e-01
    outer loop
      vertex   1.175795e+01 4.000000e+01 -1.234782e+01
      vertex   1.188875e+01 3.000000e+01 -1.292089e+01
      vertex   1.175795e+01 3.000000e+01 -1.234782e+01
    endloop
  endfacet
  facet normal -7.818314e-01 -0.000000e+00 -6.234899e-01
    outer loop
      vertex   1.175795e+01 4.000000e+01 -1.234782e+01
      vertex   1.175795e+01 3.000000e+01 -1.234782e+01
      vertex   1.139146e+01 4.000000e+01 -1.188825e+01
    endloop
  endfacet
  facet normal -7.818314e-01 -0.000000e+00 -6.234899e-01
    outer loop
      vertex   1.139146e+01 4.000000e+01 -1.188825e+01
      vertex   1.175795e+01 3.000000e+01 -1.234782e+01
      vertex   1.139146e+01 3.000000e+01 -1.188825e+01
    endloop
  endfacet
  facet normal -4.338824e-01 -0.000000e+00 -9.009695e-01
    outer loop
      vertex   1.139146e+01 4.000000e+01 -1.188825e+01
      vertex   1.139146e+01 3.000000e+01 -1.188825e+01
      vertex   1.086186e+01 4.000000e+01 -1.163321e+01
    endloop
  endfacet
  facet normal -4.338824e-01 -0.000000e+00 -9.009695e-01
    outer loop
      vertex   1.086186e+01 4.000000e+01 -1.163321e+01
      vertex   1.139146e+01 3.000000e+01 -1.188825e+01
      vertex   1.086186e+01 3.000000e+01 -1.163321e+01
    endloop
  endfacet
  facet normal -0.000000e+00 -0.000000e+00 -1.000000e+00
    outer loop
      vertex   1.086186e+01 4.000000e+01 -1.163321e+01
      vertex   1.086186e+01 3.000000e+01 -1.163321e+01
      vertex   1.027405e+01 4.000000e+01 -1.163321e+01
    endloop
  endfacet
  facet normal 0.000000e+00 0.000000e+00 -1.000000e+00
    outer loop
      vertex   1.027405e+01 4.000000e+01 -1.163321e+01
      vertex   1.086186e+01 3.000000e+01 -1.163321e+01
      vertex   1.027405e+01 3.000000e+01 -1.163321e+01
    endloop
  endfacet
  facet normal 4.338824e-01 0.000000e+00 -9.009695e-01
    outer loop
      vertex   1.027405e+01 4.000000e+01 -1.163321e+01
      vertex   1.027405e+01 3.000000e+01 -1.163321e+01
      vertex   9.744446e+00 4.000000e+01 -1.188825e+01
    endloop
  endfacet
  facet normal 4.338824e-01 0.000000e+00 -9.009695e-01
    outer loop
      vertex   9.744446e+00 4.000000e+01 -1.188825e+01
      vertex   1.027405e+01 3.000000e+01 -1.163321e+01
      vertex   9.744446e+00 3.000000e+01 -1.188825e+01
    endloop
  endfacet
  facet normal 7.818319e-01 0.000000e+00 -6.234892e-01
    outer loop
      vertex   9.744446e+00 4.000000e+01 -1.188825e+01
      vertex   9.744446e+00 3.000000e+01 -1.188825e+01
      vertex   9.377952e+00 4.000000e+01 -1.234782e+01
    endloop
  endfacet
  facet normal 7.818319e-01 0.000000e+00 -6.234892e-01
    outer loop
      vertex   9.377952e+00 4.000000e+01 -1.234782e+01
      vertex   9.744446e+00 3.000000e+01 -1.188825e+01
      vertex   9.377952e+00 3.000000e+01 -1.234782e+01
    endloop
  endfacet
  facet normal 9.749278e-01 0.000000e+00 -2.225214e-01
    outer loop
      vertex   9.377952e+00 4.000000e+01 -1.234782e+01
      vertex   9.377952e+00 3.000000e+01 -1.234782e+01
      vertex   9.247152e+00 4.000000e+01 -1.292089e+01
    endloop
  endfacet
  facet normal 9.749278e-01 0.000000e+00 -2.225214e-01
    outer loop
      vertex   9.247152e+00 4.000000e+01 -1.292089e+01
      vertex   9.377952e+00 3.000000e+01 -1.234782e+01
      vertex   9.247152e+00 3.000000e+01 -1.292089e+01
    endloop
  endfacet
  facet normal 9.749278e-01 0.000000e+00 2.225214e-01
    outer loop
      vertex   9.247152e+00 4.000000e+01 -1.292089e+01
      vertex   9.247152e+00 3.000000e+01 -1.292089e+01
      vertex   9.377952e+00 4.000000e+01 -1.349397e+01
    endloop
  endfacet
  facet normal 9.749278e-01 0.000000e+00 2.225214e-01
    outer loop
      vertex   9.377952e+00 4.000000e+01 -1.349397e+01
      vertex   9.247152e+00 3.000000e+01 -1.292089e+01
      vertex   9.377952e+00 3.000000e+01 -1.349397e+01
    endloop
  endfacet
  facet normal 7.818319e-01 0.000000e+00 6.234892e-01
    outer loop
      vertex   9.377952e+00 4.000000e+01 -1.349397e+01
      vertex   9.377952e+00 3.000000e+01 -1.349397e+01
      vertex   9.744446e+00 4.000000e+01 -1.395354e+01
    endloop
  endfacet
  facet normal 7.818319e-01 0.000000e+00 6.234892e-01
    outer loop
      vertex   9.744446e+00 4.000000e+01 -1.395354e+01
      vertex   9.377952e+00 3.000000e+01 -1.349397e+01
      vertex   9.744446e+00 3.000000e+01 -1.395354e+01
    endloop
  endfacet
  facet normal 4.338840e-01 0.000000e+00 9.009687e-01
    outer loop
      vertex   9.744446e+00 4.000000e+01 -1.395354e+01
      vertex   9.744446e+00 3.000000e+01 -1.395354e+01
      vertex   1.027405e+01 4.000000e+01 -1.420858e+01
    endloop
  endfacet
  facet normal 4.338840e-01 0.000000e+00 9.009687e-01
    outer loop
      vertex   1.027405e+01 4.000000e+01 -1.420858e+01
      vertex   9.744446e+00 3.000000e+01 -1.395354e+01
      vertex   1.027405e+01 3.000000e+01 -1.420858e+01
    endloop
  endfacet
  facet normal -0.000000e+00 0.000000e+00 1.000000e+00
    outer loop
      vertex   1.027405e+01 4.000000e+01 -1.420858e+01
      vertex   1.027405e+01 3.000000e+01 -1.420858e+01
      vertex   1.086186e+01 4.000000e+01 -1.420858e+01
    endloop
  endfacet
  facet normal 0.000000e+00 0.000000e+00 1.000000e+00
    outer loop
      vertex   1.086186e+01 4.000000e+01 -1.420858e+01
      vertex   1.027405e+01 3.000000e+01 -1.420858e+01
      vertex   1.086186e+01 3.000000e+01 -1.420858e+01
    endloop
  endfacet
  facet normal -4.338840e-01 0.000000e+00 9.009687e-01
    outer loop
      vertex   1.086186e+01 4.000000e+01 -1.420858e+01
      vertex   1.086186e+01 3.000000e+01 -1.420858e+01
      vertex   1.139146e+01 4.000000e+01 -1.395354e+01
    endloop
  endfacet
  facet normal -4.338840e-01 0.000000e+00 9.009687e-01
    outer loop
      vertex   1.139146e+01 4.000000e+01 -1.395354e+01
      vertex   1.086186e+01 3.000000e+01 -1.420858e+01
      vertex   1.139146e+01 3.000000e+01 -1.395354e+01
    endloop
  endfacet
  facet normal -7.818314e-01 0.000000e+00 6.234899e-01
    outer loop
      vertex   1.139146e+01 4.000000e+01 -1.395354e+01
      vertex   1.139146e+01 3.000000e+01 -1.395354e+01
      vertex   1.175795e+01 4.000000e+01 -1.349397e+01
    endloop
  endfacet
  facet normal -7.818314e-01 0.000000e+00 6.234899e-01
    outer loop
      vertex   1.175795e+01 4.000000e+01 -1.349397e+01
      vertex   1.139146e+01 3.000000e+01 -1.395354e+01
      vertex   1.175795e+01 3.000000e+01 -1.349397e+01
    endloop
  endfacet
  facet normal -5.101405e-01 8.521733e-01 1.164360e-01
    outer loop
      vertex   1.175795e+01 3.000000e+01 -1.349397e+01
      vertex   1.056795e+01 2.920932e+01 -1.292089e+01
      vertex   1.188875e+01 3.000000e+01 -1.292089e+01
    endloop
  endfacet
  facet normal -2.270340e-01 8.521733e-01 4.714406e-01
    outer loop
      vertex   1.086186e+01 3.000000e+01 -1.420858e+01
      vertex   1.056795e+01 2.920932e+01 -1.292089e+01
      vertex   1.139146e+01 3.000000e+01 -1.395354e+01
    endloop
  endfacet
  facet normal 2.270341e-01 8.521732e-01 4.714407e-01
    outer loop
      vertex   9.744446e+00 3.000000e+01 -1.395354e+01
      vertex   1.056795e+01 2.920932e+01 -1.292089e+01
      vertex   1.027405e+01 3.000000e+01 -1.420858e+01
    endloop
  endfacet
  facet normal 5.101408e-01 8.521731e-01 1.164366e-01
    outer loop
      vertex   9.247152e+00 3.000000e+01 -1.292089e+01
      vertex   1.056795e+01 2.920932e+01 -1.292089e+01
      vertex   9.377952e+00 3.000000e+01 -1.349397e+01
    endloop
  endfacet
  facet normal 4.091014e-01 8.521731e-01 -3.262470e-01
    outer loop
      vertex   9.744446e+00 3.000000e+01 -1.188825e+01
      vertex   1.056795e+01 2.920932e+01 -1.292089e+01
      vertex   9.377952e+00 3.000000e+01 -1.234782e+01
    endloop
  endfacet
  facet normal 0.000000e+00 8.521731e-01 -5.232600e-01
    outer loop
      vertex   1.086186e+01 3.000000e+01 -1.163321e+01
      vertex   1.056795e+01 2.920932e+01 -1.292089e+01
      vertex   1.027405e+01 3.000000e+01 -1.163321e+01
    endloop
  endfacet
  facet normal -2.270332e-01 8.521732e-01 -4.714412e-01
    outer loop
      vertex   1.139146e+01 3.000000e+01 -1.188825e+01
      vertex   1.056795e+01 2.920932e+01 -1.292089e+01
      vertex   1.086186e+01 3.000000e+01 -1.163321e+01
    endloop
  endfacet
  facet normal -5.101405e-01 8.521733e-01 -1.164360e-01
    outer loop
      vertex   1.188875e+01 3.000000e+01 -1.292089e+01
      vertex   1.056795e+01 2.920932e+01 -1.292089e+01
      vertex   1.175795e+01 3.000000e+01 -1.234782e+01
    endloop
  endfacet
  facet normal 5.101408e-01 8.521731e-01 -1.164366e-01
    outer loop
      vertex   9.377952e+00 3.000000e+01 -1.234782e+01
      vertex   1.056795e+01 2.920932e+01 -1.292089e+01
      vertex   9.247152e+00 3.000000e+01 -1.292089e+01
    endloop
  endfacet
  facet normal 4.091014e-01 8.521731e-01 3.262470e-01
    outer loop
      vertex   9.377952e+00 3.000000e+01 -1.349397e+01
      vertex   1.056795e+01 2.920932e+01 -1.292089e+01
      vertex   9.744446e+00 3.000000e+01 -1.395354e+01
    endloop
  endfacet
  facet normal -0.000000e+00 8.521733e-01 5.232596e-01
    outer loop
      vertex   1.027405e+01 3.000000e+01 -1.420858e+01
      vertex   1.056795e+01 2.920932e+01 -1.292089e+01
      vertex   1.086186e+01 3.000000e+01 -1.420858e+01
    endloop
  endfacet
  facet normal -4.091008e-01 8.521733e-01 3.262471e-01
    outer loop
      vertex   1.139146e+01 3.000000e+01 -1.395354e+01
      vertex   1.056795e+01 2.920932e+01 -1.292089e+01
      vertex   1.175795e+01 3.000000e+01 -1.349397e+01
    endloop
  endfacet
  facet normal -4.091008e-01 8.521733e-01 -3.262471e-01
    outer loop
      vertex   1.175795e+01 3.000000e+01 -1.234782e+01
      vertex   1.056795e+01 2.920932e+01 -1.292089e+01
      vertex   1.139146e+01 3.000000e+01 -1.188825e+01
    endloop
  endfacet
  facet normal 2.270333e-01 8.521731e-01 -4.714413e-01
    outer loop
      vertex   1.027405e+01 3.000000e+01 -1.163321e+01
      vertex   1.056795e+01 2.920932e+01 -1.292089e+01
      vertex   9.744446e+00 3.000000e+01 -1.188825e+01
    endloop
  endfacet
endsolid
