solid ASCII
  facet normal 4.188322e-03 -1.490409e-01 -9.888222e-01
    outer loop
      vertex   0.000000e+00 -5.652517e+00 1.736767e+01
      vertex   5.080000e+00 -5.930101e+00 1.743102e+01
      vertex   0.000000e+00 -6.214026e+00 1.745230e+01
    endloop
  endfacet
  facet normal -4.188480e-03 0.000000e+00 -9.999912e-01
    outer loop
      vertex   0.000000e+00 -6.214026e+00 1.745230e+01
      vertex   5.080000e+00 -5.930101e+00 1.743102e+01
      vertex   5.080000e+00 -6.497952e+00 1.743102e+01
    endloop
  endfacet
  facet normal 4.188331e-03 1.490410e-01 -9.888221e-01
    outer loop
      vertex   0.000000e+00 -6.214026e+00 1.745230e+01
      vertex   5.080000e+00 -6.497952e+00 1.743102e+01
      vertex   0.000000e+00 -6.775535e+00 1.736767e+01
    endloop
  endfacet
  facet normal -4.188470e-03 2.947526e-01 -9.555644e-01
    outer loop
      vertex   0.000000e+00 -6.775535e+00 1.736767e+01
      vertex   5.080000e+00 -6.497952e+00 1.743102e+01
      vertex   5.080000e+00 -7.040575e+00 1.726365e+01
    endloop
  endfacet
  facet normal 4.188383e-03 4.338807e-01 -9.009606e-01
    outer loop
      vertex   0.000000e+00 -6.775535e+00 1.736767e+01
      vertex   5.080000e+00 -7.040575e+00 1.726365e+01
      vertex   0.000000e+00 -7.287151e+00 1.712129e+01
    endloop
  endfacet
  facet normal -4.188350e-03 5.633148e-01 -8.262318e-01
    outer loop
      vertex   0.000000e+00 -7.287151e+00 1.712129e+01
      vertex   5.080000e+00 -7.040575e+00 1.726365e+01
      vertex   5.080000e+00 -7.509755e+00 1.694377e+01
    endloop
  endfacet
  facet normal 4.188460e-03 6.801666e-01 -7.330456e-01
    outer loop
      vertex   0.000000e+00 -7.287151e+00 1.712129e+01
      vertex   5.080000e+00 -7.509755e+00 1.694377e+01
      vertex   0.000000e+00 -7.703415e+00 1.673505e+01
    endloop
  endfacet
  facet normal -4.188399e-03 7.818249e-01 -6.234840e-01
    outer loop
      vertex   0.000000e+00 -7.703415e+00 1.673505e+01
      vertex   5.080000e+00 -7.509755e+00 1.694377e+01
      vertex   5.080000e+00 -7.863804e+00 1.649980e+01
    endloop
  endfacet
  facet normal 4.188340e-03 8.660176e-01 -4.999960e-01
    outer loop
      vertex   0.000000e+00 -7.703415e+00 1.673505e+01
      vertex   5.080000e+00 -7.863804e+00 1.649980e+01
      vertex   0.000000e+00 -7.987341e+00 1.624328e+01
    endloop
  endfacet
  facet normal -4.188501e-03 9.308656e-01 -3.653378e-01
    outer loop
      vertex   0.000000e+00 -7.987341e+00 1.624328e+01
      vertex   5.080000e+00 -7.863804e+00 1.649980e+01
      vertex   5.080000e+00 -8.071263e+00 1.597120e+01
    endloop
  endfacet
  facet normal 4.188354e-03 9.749195e-01 -2.225182e-01
    outer loop
      vertex   0.000000e+00 -7.987341e+00 1.624328e+01
      vertex   5.080000e+00 -8.071263e+00 1.597120e+01
      vertex   0.000000e+00 -8.113699e+00 1.568966e+01
    endloop
  endfacet
  facet normal -4.188403e-03 9.971951e-01 -7.472938e-02
    outer loop
      vertex   0.000000e+00 -8.113699e+00 1.568966e+01
      vertex   5.080000e+00 -8.071263e+00 1.597120e+01
      vertex   5.080000e+00 -8.113699e+00 1.540494e+01
    endloop
  endfacet
  facet normal 4.188403e-03 9.971951e-01 7.472938e-02
    outer loop
      vertex   0.000000e+00 -8.113699e+00 1.568966e+01
      vertex   5.080000e+00 -8.113699e+00 1.540494e+01
      vertex   0.000000e+00 -8.071263e+00 1.512340e+01
    endloop
  endfacet
  facet normal -4.188354e-03 9.749195e-01 2.225182e-01
    outer loop
      vertex   0.000000e+00 -8.071263e+00 1.512340e+01
      vertex   5.080000e+00 -8.113699e+00 1.540494e+01
      vertex   5.080000e+00 -7.987341e+00 1.485133e+01
    endloop
  endfacet
  facet normal 4.188501e-03 9.308656e-01 3.653378e-01
    outer loop
      vertex   0.000000e+00 -8.071263e+00 1.512340e+01
      vertex   5.080000e+00 -7.987341e+00 1.485133e+01
      vertex   0.000000e+00 -7.863804e+00 1.459480e+01
    endloop
  endfacet
  facet normal -4.188340e-03 8.660176e-01 4.999960e-01
    outer loop
      vertex   0.000000e+00 -7.863804e+00 1.459480e+01
      vertex   5.080000e+00 -7.987341e+00 1.485133e+01
      vertex   5.080000e+00 -7.703415e+00 1.435955e+01
    endloop
  endfacet
  facet normal 4.188399e-03 7.818249e-01 6.234840e-01
    outer loop
      vertex   0.000000e+00 -7.863804e+00 1.459480e+01
      vertex   5.080000e+00 -7.703415e+00 1.435955e+01
      vertex   0.000000e+00 -7.509755e+00 1.415084e+01
    endloop
  endfacet
  facet normal -4.188460e-03 6.801666e-01 7.330456e-01
    outer loop
      vertex   0.000000e+00 -7.509755e+00 1.415084e+01
      vertex   5.080000e+00 -7.703415e+00 1.435955e+01
      vertex   5.080000e+00 -7.287151e+00 1.397332e+01
    endloop
  endfacet
  facet normal 4.188350e-03 5.633148e-01 8.262318e-01
    outer loop
      vertex   0.000000e+00 -7.509755e+00 1.415084e+01
      vertex   5.080000e+00 -7.287151e+00 1.397332e+01
      vertex   0.000000e+00 -7.040575e+00 1.383096e+01
    endloop
  endfacet
  facet normal -4.188383e-03 4.338807e-01 9.009606e-01
    outer loop
      vertex   0.000000e+00 -7.040575e+00 1.383096e+01
      vertex   5.080000e+00 -7.287151e+00 1.397332e+01
      vertex   5.080000e+00 -6.775535e+00 1.372694e+01
    endloop
  endfacet
  facet normal 4.188470e-03 2.947526e-01 9.555644e-01
    outer loop
      vertex   0.000000e+00 -7.040575e+00 1.383096e+01
      vertex   5.080000e+00 -6.775535e+00 1.372694e+01
      vertex   0.000000e+00 -6.497952e+00 1.366358e+01
    endloop
  endfacet
  facet normal -4.188331e-03 1.490410e-01 9.888221e-01
    outer loop
      vertex   0.000000e+00 -6.497952e+00 1.366358e+01
      vertex   5.080000e+00 -6.775535e+00 1.372694e+01
      vertex   5.080000e+00 -6.214026e+00 1.364230e+01
    endloop
  endfacet
  facet normal 4.188480e-03 -0.000000e+00 9.999912e-01
    outer loop
      vertex   0.000000e+00 -6.497952e+00 1.366358e+01
      vertex   5.080000e+00 -6.214026e+00 1.364230e+01
      vertex   0.000000e+00 -5.930101e+00 1.366358e+01
    endloop
  endfacet
  facet normal -4.188322e-03 -1.490409e-01 9.888222e-01
    outer loop
      vertex   0.000000e+00 -5.930101e+00 1.366358e+01
      vertex   5.080000e+00 -6.214026e+00 1.364230e+01
      vertex   5.080000e+00 -5.652517e+00 1.372694e+01
    endloop
  endfacet
  facet normal 4.188487e-03 -2.947523e-01 9.555645e-01
    outer loop
      vertex   0.000000e+00 -5.930101e+00 1.366358e+01
      vertex   5.080000e+00 -5.652517e+00 1.372694e+01
      vertex   0.000000e+00 -5.387477e+00 1.383096e+01
    endloop
  endfacet
  facet normal -4.188383e-03 -4.338807e-01 9.009606e-01
    outer loop
      vertex   0.000000e+00 -5.387477e+00 1.383096e+01
      vertex   5.080000e+00 -5.652517e+00 1.372694e+01
      vertex   5.080000e+00 -5.140901e+00 1.397332e+01
    endloop
  endfacet
  facet normal 4.188350e-03 -5.633148e-01 8.262318e-01
    outer loop
      vertex   0.000000e+00 -5.387477e+00 1.383096e+01
      vertex   5.080000e+00 -5.140901e+00 1.397332e+01
      vertex   0.000000e+00 -4.918297e+00 1.415084e+01
    endloop
  endfacet
  facet normal -4.188480e-03 -6.801669e-01 7.330453e-01
    outer loop
      vertex   0.000000e+00 -4.918297e+00 1.415084e+01
      vertex   5.080000e+00 -5.140901e+00 1.397332e+01
      vertex   5.080000e+00 -4.724637e+00 1.435955e+01
    endloop
  endfacet
  facet normal 4.188330e-03 -7.818246e-01 6.234844e-01
    outer loop
      vertex   0.000000e+00 -4.918297e+00 1.415084e+01
      vertex   5.080000e+00 -4.724637e+00 1.435955e+01
      vertex   0.000000e+00 -4.564247e+00 1.459480e+01
    endloop
  endfacet
  facet normal -4.188442e-03 -8.660176e-01 4.999960e-01
    outer loop
      vertex   0.000000e+00 -4.564247e+00 1.459480e+01
      vertex   5.080000e+00 -4.724637e+00 1.435955e+01
      vertex   5.080000e+00 -4.440711e+00 1.485133e+01
    endloop
  endfacet
  facet normal 4.188419e-03 -9.308658e-01 3.653373e-01
    outer loop
      vertex   0.000000e+00 -4.564247e+00 1.459480e+01
      vertex   5.080000e+00 -4.440711e+00 1.485133e+01
      vertex   0.000000e+00 -4.356788e+00 1.512340e+01
    endloop
  endfacet
  facet normal -4.188354e-03 -9.749193e-01 2.225192e-01
    outer loop
      vertex   0.000000e+00 -4.356788e+00 1.512340e+01
      vertex   5.080000e+00 -4.440711e+00 1.485133e+01
      vertex   5.080000e+00 -4.314353e+00 1.540494e+01
    endloop
  endfacet
  facet normal 4.188432e-03 -9.971950e-01 7.472990e-02
    outer loop
      vertex   0.000000e+00 -4.356788e+00 1.512340e+01
      vertex   5.080000e+00 -4.314353e+00 1.540494e+01
      vertex   0.000000e+00 -4.314353e+00 1.568966e+01
    endloop
  endfacet
  facet normal -4.188432e-03 -9.971950e-01 -7.472990e-02
    outer loop
      vertex   0.000000e+00 -4.314353e+00 1.568966e+01
      vertex   5.080000e+00 -4.314353e+00 1.540494e+01
      vertex   5.080000e+00 -4.356788e+00 1.597120e+01
    endloop
  endfacet
  facet normal 4.188354e-03 -9.749193e-01 -2.225192e-01
    outer loop
      vertex   0.000000e+00 -4.314353e+00 1.568966e+01
      vertex   5.080000e+00 -4.356788e+00 1.597120e+01
      vertex   0.000000e+00 -4.440711e+00 1.624328e+01
    endloop
  endfacet
  facet normal -4.188419e-03 -9.308658e-01 -3.653373e-01
    outer loop
      vertex   0.000000e+00 -4.440711e+00 1.624328e+01
      vertex   5.080000e+00 -4.356788e+00 1.597120e+01
      vertex   5.080000e+00 -4.564247e+00 1.649980e+01
    endloop
  endfacet
  facet normal 4.188442e-03 -8.660176e-01 -4.999960e-01
    outer loop
      vertex   0.000000e+00 -4.440711e+00 1.624328e+01
      vertex   5.080000e+00 -4.564247e+00 1.649980e+01
      vertex   0.000000e+00 -4.724637e+00 1.673505e+01
    endloop
  endfacet
  facet normal -4.188330e-03 -7.818246e-01 -6.234844e-01
    outer loop
      vertex   0.000000e+00 -4.724637e+00 1.673505e+01
      vertex   5.080000e+00 -4.564247e+00 1.649980e+01
      vertex   5.080000e+00 -4.918297e+00 1.694377e+01
    endloop
  endfacet
  facet normal 4.188480e-03 -6.801669e-01 -7.330453e-01
    outer loop
      vertex   0.000000e+00 -4.724637e+00 1.673505e+01
      vertex   5.080000e+00 -4.918297e+00 1.694377e+01
      vertex   0.000000e+00 -5.140901e+00 1.712129e+01
    endloop
  endfacet
  facet normal -4.188350e-03 -5.633148e-01 -8.262318e-01
    outer loop
      vertex   0.000000e+00 -5.140901e+00 1.712129e+01
      vertex   5.080000e+00 -4.918297e+00 1.694377e+01
      vertex   5.080000e+00 -5.387477e+00 1.726365e+01
    endloop
  endfacet
  facet normal 4.188383e-03 -4.338807e-01 -9.009606e-01
    outer loop
      vertex   0.000000e+00 -5.140901e+00 1.712129e+01
      vertex   5.080000e+00 -5.387477e+00 1.726365e+01
      vertex   0.000000e+00 -5.652517e+00 1.736767e+01
    endloop
  endfacet
  facet normal -4.188487e-03 -2.947523e-01 -9.555645e-01
    outer loop
      vertex   0.000000e+00 -5.652517e+00 1.736767e+01
      vertex   5.080000e+00 -5.387477e+00 1.726365e+01
      vertex   5.080000e+00 -5.930101e+00 1.743102e+01
    endloop
  endfacet
  facet normal 4.188398e-03 -1.490412e-01 -9.888221e-01
    outer loop
      vertex   0.000000e+00 1.466748e+01 -2.952332e+00
      vertex   5.080000e+00 1.438990e+01 -2.888975e+00
      vertex   0.000000e+00 1.410597e+01 -2.867698e+00
    endloop
  endfacet
  facet normal -4.188421e-03 0.000000e+00 -9.999912e-01
    outer loop
      vertex   0.000000e+00 1.410597e+01 -2.867698e+00
      vertex   5.080000e+00 1.438990e+01 -2.888975e+00
      vertex   5.080000e+00 1.382205e+01 -2.888975e+00
    endloop
  endfacet
  facet normal 4.188380e-03 1.490409e-01 -9.888222e-01
    outer loop
      vertex   0.000000e+00 1.410597e+01 -2.867698e+00
      vertex   5.080000e+00 1.382205e+01 -2.888975e+00
      vertex   0.000000e+00 1.354447e+01 -2.952332e+00
    endloop
  endfacet
  facet normal -4.188448e-03 2.947526e-01 -9.555644e-01
    outer loop
      vertex   0.000000e+00 1.354447e+01 -2.952332e+00
      vertex   5.080000e+00 1.382205e+01 -2.888975e+00
      vertex   5.080000e+00 1.327943e+01 -3.056352e+00
    endloop
  endfacet
  facet normal 4.188306e-03 4.338794e-01 -9.009612e-01
    outer loop
      vertex   0.000000e+00 1.354447e+01 -2.952332e+00
      vertex   5.080000e+00 1.327943e+01 -3.056352e+00
      vertex   0.000000e+00 1.303285e+01 -3.198713e+00
    endloop
  endfacet
  facet normal -4.188489e-03 5.633141e-01 -8.262322e-01
    outer loop
      vertex   0.000000e+00 1.303285e+01 -3.198713e+00
      vertex   5.080000e+00 1.327943e+01 -3.056352e+00
      vertex   5.080000e+00 1.281024e+01 -3.376234e+00
    endloop
  endfacet
  facet normal 4.188454e-03 6.801677e-01 -7.330446e-01
    outer loop
      vertex   0.000000e+00 1.303285e+01 -3.198713e+00
      vertex   5.080000e+00 1.281024e+01 -3.376234e+00
      vertex   0.000000e+00 1.261659e+01 -3.584950e+00
    endloop
  endfacet
  facet normal -4.188288e-03 7.818249e-01 -6.234840e-01
    outer loop
      vertex   0.000000e+00 1.261659e+01 -3.584950e+00
      vertex   5.080000e+00 1.281024e+01 -3.376234e+00
      vertex   5.080000e+00 1.245620e+01 -3.820198e+00
    endloop
  endfacet
  facet normal 4.188514e-03 8.660178e-01 -4.999956e-01
    outer loop
      vertex   0.000000e+00 1.261659e+01 -3.584950e+00
      vertex   5.080000e+00 1.245620e+01 -3.820198e+00
      vertex   0.000000e+00 1.233266e+01 -4.076723e+00
    endloop
  endfacet
  facet normal -4.188326e-03 9.308659e-01 -3.653370e-01
    outer loop
      vertex   0.000000e+00 1.233266e+01 -4.076723e+00
      vertex   5.080000e+00 1.245620e+01 -3.820198e+00
      vertex   5.080000e+00 1.224874e+01 -4.348796e+00
    endloop
  endfacet
  facet normal 4.188367e-03 9.749191e-01 -2.225202e-01
    outer loop
      vertex   0.000000e+00 1.233266e+01 -4.076723e+00
      vertex   5.080000e+00 1.224874e+01 -4.348796e+00
      vertex   0.000000e+00 1.220630e+01 -4.630337e+00
    endloop
  endfacet
  facet normal -4.188457e-03 9.971950e-01 -7.473042e-02
    outer loop
      vertex   0.000000e+00 1.220630e+01 -4.630337e+00
      vertex   5.080000e+00 1.224874e+01 -4.348796e+00
      vertex   5.080000e+00 1.220630e+01 -4.915059e+00
    endloop
  endfacet
  facet normal 4.188457e-03 9.971950e-01 7.473042e-02
    outer loop
      vertex   0.000000e+00 1.220630e+01 -4.630337e+00
      vertex   5.080000e+00 1.220630e+01 -4.915059e+00
      vertex   0.000000e+00 1.224874e+01 -5.196601e+00
    endloop
  endfacet
  facet normal -4.188374e-03 9.749191e-01 2.225203e-01
    outer loop
      vertex   0.000000e+00 1.224874e+01 -5.196601e+00
      vertex   5.080000e+00 1.220630e+01 -4.915059e+00
      vertex   5.080000e+00 1.233266e+01 -5.468673e+00
    endloop
  endfacet
  facet normal 4.188316e-03 9.308658e-01 3.653372e-01
    outer loop
      vertex   0.000000e+00 1.224874e+01 -5.196601e+00
      vertex   5.080000e+00 1.233266e+01 -5.468673e+00
      vertex   0.000000e+00 1.245620e+01 -5.725198e+00
    endloop
  endfacet
  facet normal -4.188514e-03 8.660178e-01 4.999956e-01
    outer loop
      vertex   0.000000e+00 1.245620e+01 -5.725198e+00
      vertex   5.080000e+00 1.233266e+01 -5.468673e+00
      vertex   5.080000e+00 1.261659e+01 -5.960446e+00
    endloop
  endfacet
  facet normal 4.188288e-03 7.818249e-01 6.234840e-01
    outer loop
      vertex   0.000000e+00 1.245620e+01 -5.725198e+00
      vertex   5.080000e+00 1.261659e+01 -5.960446e+00
      vertex   0.000000e+00 1.281024e+01 -6.169162e+00
    endloop
  endfacet
  facet normal -4.188454e-03 6.801677e-01 7.330446e-01
    outer loop
      vertex   0.000000e+00 1.281024e+01 -6.169162e+00
      vertex   5.080000e+00 1.261659e+01 -5.960446e+00
      vertex   5.080000e+00 1.303285e+01 -6.346683e+00
    endloop
  endfacet
  facet normal 4.188464e-03 5.633145e-01 8.262320e-01
    outer loop
      vertex   0.000000e+00 1.281024e+01 -6.169162e+00
      vertex   5.080000e+00 1.303285e+01 -6.346683e+00
      vertex   0.000000e+00 1.327943e+01 -6.489044e+00
    endloop
  endfacet
  facet normal -4.188359e-03 4.338794e-01 9.009612e-01
    outer loop
      vertex   0.000000e+00 1.327943e+01 -6.489044e+00
      vertex   5.080000e+00 1.303285e+01 -6.346683e+00
      vertex   5.080000e+00 1.354447e+01 -6.593064e+00
    endloop
  endfacet
  facet normal 4.188392e-03 2.947526e-01 9.555644e-01
    outer loop
      vertex   0.000000e+00 1.327943e+01 -6.489044e+00
      vertex   5.080000e+00 1.354447e+01 -6.593064e+00
      vertex   0.000000e+00 1.382205e+01 -6.656421e+00
    endloop
  endfacet
  facet normal -4.188438e-03 1.490409e-01 9.888222e-01
    outer loop
      vertex   0.000000e+00 1.382205e+01 -6.656421e+00
      vertex   5.080000e+00 1.354447e+01 -6.593064e+00
      vertex   5.080000e+00 1.410597e+01 -6.677698e+00
    endloop
  endfacet
  facet normal 4.188363e-03 -0.000000e+00 9.999912e-01
    outer loop
      vertex   0.000000e+00 1.382205e+01 -6.656421e+00
      vertex   5.080000e+00 1.410597e+01 -6.677698e+00
      vertex   0.000000e+00 1.438990e+01 -6.656421e+00
    endloop
  endfacet
  facet normal -4.188456e-03 -1.490412e-01 9.888221e-01
    outer loop
      vertex   0.000000e+00 1.438990e+01 -6.656421e+00
      vertex   5.080000e+00 1.410597e+01 -6.677698e+00
      vertex   5.080000e+00 1.466748e+01 -6.593064e+00
    endloop
  endfacet
  facet normal 4.188323e-03 -2.947526e-01 9.555644e-01
    outer loop
      vertex   0.000000e+00 1.438990e+01 -6.656421e+00
      vertex   5.080000e+00 1.466748e+01 -6.593064e+00
      vertex   0.000000e+00 1.493252e+01 -6.489044e+00
    endloop
  endfacet
  facet normal -4.188461e-03 -4.338794e-01 9.009612e-01
    outer loop
      vertex   0.000000e+00 1.493252e+01 -6.489044e+00
      vertex   5.080000e+00 1.466748e+01 -6.593064e+00
      vertex   5.080000e+00 1.517910e+01 -6.346683e+00
    endloop
  endfacet
  facet normal 4.188398e-03 -5.633155e-01 8.262313e-01
    outer loop
      vertex   0.000000e+00 1.493252e+01 -6.489044e+00
      vertex   5.080000e+00 1.517910e+01 -6.346683e+00
      vertex   0.000000e+00 1.540170e+01 -6.169162e+00
    endloop
  endfacet
  facet normal -4.188374e-03 -6.801666e-01 7.330456e-01
    outer loop
      vertex   0.000000e+00 1.540170e+01 -6.169162e+00
      vertex   5.080000e+00 1.517910e+01 -6.346683e+00
      vertex   5.080000e+00 1.559536e+01 -5.960446e+00
    endloop
  endfacet
  facet normal 4.188472e-03 -7.818249e-01 6.234840e-01
    outer loop
      vertex   0.000000e+00 1.540170e+01 -6.169162e+00
      vertex   5.080000e+00 1.559536e+01 -5.960446e+00
      vertex   0.000000e+00 1.575575e+01 -5.725198e+00
    endloop
  endfacet
  facet normal -4.188311e-03 -8.660178e-01 4.999956e-01
    outer loop
      vertex   0.000000e+00 1.575575e+01 -5.725198e+00
      vertex   5.080000e+00 1.559536e+01 -5.960446e+00
      vertex   5.080000e+00 1.587929e+01 -5.468673e+00
    endloop
  endfacet
  facet normal 4.188425e-03 -9.308651e-01 3.653390e-01
    outer loop
      vertex   0.000000e+00 1.575575e+01 -5.725198e+00
      vertex   5.080000e+00 1.587929e+01 -5.468673e+00
      vertex   0.000000e+00 1.596321e+01 -5.196601e+00
    endloop
  endfacet
  facet normal -4.188488e-03 -9.749195e-01 2.225183e-01
    outer loop
      vertex   0.000000e+00 1.596321e+01 -5.196601e+00
      vertex   5.080000e+00 1.587929e+01 -5.468673e+00
      vertex   5.080000e+00 1.600565e+01 -4.915059e+00
    endloop
  endfacet
  facet normal 4.188340e-03 -9.971951e-01 7.472834e-02
    outer loop
      vertex   0.000000e+00 1.596321e+01 -5.196601e+00
      vertex   5.080000e+00 1.600565e+01 -4.915059e+00
      vertex   0.000000e+00 1.600565e+01 -4.630337e+00
    endloop
  endfacet
  facet normal -4.188340e-03 -9.971951e-01 -7.472834e-02
    outer loop
      vertex   0.000000e+00 1.600565e+01 -4.630337e+00
      vertex   5.080000e+00 1.600565e+01 -4.915059e+00
      vertex   5.080000e+00 1.596321e+01 -4.348796e+00
    endloop
  endfacet
  facet normal 4.188481e-03 -9.749195e-01 -2.225182e-01
    outer loop
      vertex   0.000000e+00 1.600565e+01 -4.630337e+00
      vertex   5.080000e+00 1.596321e+01 -4.348796e+00
      vertex   0.000000e+00 1.587929e+01 -4.076723e+00
    endloop
  endfacet
  facet normal -4.188436e-03 -9.308652e-01 -3.653389e-01
    outer loop
      vertex   0.000000e+00 1.587929e+01 -4.076723e+00
      vertex   5.080000e+00 1.596321e+01 -4.348796e+00
      vertex   5.080000e+00 1.575575e+01 -3.820198e+00
    endloop
  endfacet
  facet normal 4.188311e-03 -8.660178e-01 -4.999956e-01
    outer loop
      vertex   0.000000e+00 1.587929e+01 -4.076723e+00
      vertex   5.080000e+00 1.575575e+01 -3.820198e+00
      vertex   0.000000e+00 1.559536e+01 -3.584950e+00
    endloop
  endfacet
  facet normal -4.188472e-03 -7.818249e-01 -6.234840e-01
    outer loop
      vertex   0.000000e+00 1.559536e+01 -3.584950e+00
      vertex   5.080000e+00 1.575575e+01 -3.820198e+00
      vertex   5.080000e+00 1.540170e+01 -3.376234e+00
    endloop
  endfacet
  facet normal 4.188374e-03 -6.801666e-01 -7.330456e-01
    outer loop
      vertex   0.000000e+00 1.559536e+01 -3.584950e+00
      vertex   5.080000e+00 1.540170e+01 -3.376234e+00
      vertex   0.000000e+00 1.517910e+01 -3.198713e+00
    endloop
  endfacet
  facet normal -4.188422e-03 -5.633151e-01 -8.262315e-01
    outer loop
      vertex   0.000000e+00 1.517910e+01 -3.198713e+00
      vertex   5.080000e+00 1.540170e+01 -3.376234e+00
      vertex   5.080000e+00 1.493252e+01 -3.056352e+00
    endloop
  endfacet
  facet normal 4.188408e-03 -4.338794e-01 -9.009612e-01
    outer loop
      vertex   0.000000e+00 1.517910e+01 -3.198713e+00
      vertex   5.080000e+00 1.493252e+01 -3.056352e+00
      vertex   0.000000e+00 1.466748e+01 -2.952332e+00
    endloop
  endfacet
  facet normal -4.188379e-03 -2.947526e-01 -9.555644e-01
    outer loop
      vertex   0.000000e+00 1.466748e+01 -2.952332e+00
      vertex   5.080000e+00 1.493252e+01 -3.056352e+00
      vertex   5.080000e+00 1.438990e+01 -2.888975e+00
    endloop
  endfacet
  facet normal 4.188340e-03 -1.490412e-01 -9.888221e-01
    outer loop
      vertex   0.000000e+00 1.466748e+01 1.736767e+01
      vertex   5.080000e+00 1.438990e+01 1.743102e+01
      vertex   0.000000e+00 1.410597e+01 1.745230e+01
    endloop
  endfacet
  facet normal -4.188480e-03 0.000000e+00 -9.999912e-01
    outer loop
      vertex   0.000000e+00 1.410597e+01 1.745230e+01
      vertex   5.080000e+00 1.438990e+01 1.743102e+01
      vertex   5.080000e+00 1.382205e+01 1.743102e+01
    endloop
  endfacet
  facet normal 4.188322e-03 1.490409e-01 -9.888222e-01
    outer loop
      vertex   0.000000e+00 1.410597e+01 1.745230e+01
      vertex   5.080000e+00 1.382205e+01 1.743102e+01
      vertex   0.000000e+00 1.354447e+01 1.736767e+01
    endloop
  endfacet
  facet normal -4.188505e-03 2.947526e-01 -9.555644e-01
    outer loop
      vertex   0.000000e+00 1.354447e+01 1.736767e+01
      vertex   5.080000e+00 1.382205e+01 1.743102e+01
      vertex   5.080000e+00 1.327943e+01 1.726365e+01
    endloop
  endfacet
  facet normal 4.188306e-03 4.338803e-01 -9.009608e-01
    outer loop
      vertex   0.000000e+00 1.354447e+01 1.736767e+01
      vertex   5.080000e+00 1.327943e+01 1.726365e+01
      vertex   0.000000e+00 1.303285e+01 1.712129e+01
    endloop
  endfacet
  facet normal -4.188416e-03 5.633138e-01 -8.262324e-01
    outer loop
      vertex   0.000000e+00 1.303285e+01 1.712129e+01
      vertex   5.080000e+00 1.327943e+01 1.726365e+01
      vertex   5.080000e+00 1.281024e+01 1.694377e+01
    endloop
  endfacet
  facet normal 4.188540e-03 6.801677e-01 -7.330446e-01
    outer loop
      vertex   0.000000e+00 1.303285e+01 1.712129e+01
      vertex   5.080000e+00 1.281024e+01 1.694377e+01
      vertex   0.000000e+00 1.261659e+01 1.673505e+01
    endloop
  endfacet
  facet normal -4.188215e-03 7.818249e-01 -6.234840e-01
    outer loop
      vertex   0.000000e+00 1.261659e+01 1.673505e+01
      vertex   5.080000e+00 1.281024e+01 1.694377e+01
      vertex   5.080000e+00 1.245620e+01 1.649980e+01
    endloop
  endfacet
  facet normal 4.188544e-03 8.660176e-01 -4.999960e-01
    outer loop
      vertex   0.000000e+00 1.261659e+01 1.673505e+01
      vertex   5.080000e+00 1.245620e+01 1.649980e+01
      vertex   0.000000e+00 1.233266e+01 1.624328e+01
    endloop
  endfacet
  facet normal -4.188337e-03 9.308660e-01 -3.653369e-01
    outer loop
      vertex   0.000000e+00 1.233266e+01 1.624328e+01
      vertex   5.080000e+00 1.245620e+01 1.649980e+01
      vertex   5.080000e+00 1.224874e+01 1.597120e+01
    endloop
  endfacet
  facet normal 4.188354e-03 9.749191e-01 -2.225202e-01
    outer loop
      vertex   0.000000e+00 1.233266e+01 1.624328e+01
      vertex   5.080000e+00 1.224874e+01 1.597120e+01
      vertex   0.000000e+00 1.220630e+01 1.568966e+01
    endloop
  endfacet
  facet normal -4.188461e-03 9.971950e-01 -7.473042e-02
    outer loop
      vertex   0.000000e+00 1.220630e+01 1.568966e+01
      vertex   5.080000e+00 1.224874e+01 1.597120e+01
      vertex   5.080000e+00 1.220630e+01 1.540494e+01
    endloop
  endfacet
  facet normal 4.188461e-03 9.971950e-01 7.473042e-02
    outer loop
      vertex   0.000000e+00 1.220630e+01 1.568966e+01
      vertex   5.080000e+00 1.220630e+01 1.540494e+01
      vertex   0.000000e+00 1.224874e+01 1.512340e+01
    endloop
  endfacet
  facet normal -4.188354e-03 9.749191e-01 2.225202e-01
    outer loop
      vertex   0.000000e+00 1.224874e+01 1.512340e+01
      vertex   5.080000e+00 1.220630e+01 1.540494e+01
      vertex   5.080000e+00 1.233266e+01 1.485133e+01
    endloop
  endfacet
  facet normal 4.188337e-03 9.308660e-01 3.653369e-01
    outer loop
      vertex   0.000000e+00 1.224874e+01 1.512340e+01
      vertex   5.080000e+00 1.233266e+01 1.485133e+01
      vertex   0.000000e+00 1.245620e+01 1.459480e+01
    endloop
  endfacet
  facet normal -4.188544e-03 8.660176e-01 4.999960e-01
    outer loop
      vertex   0.000000e+00 1.245620e+01 1.459480e+01
      vertex   5.080000e+00 1.233266e+01 1.485133e+01
      vertex   5.080000e+00 1.261659e+01 1.435955e+01
    endloop
  endfacet
  facet normal 4.188215e-03 7.818249e-01 6.234840e-01
    outer loop
      vertex   0.000000e+00 1.245620e+01 1.459480e+01
      vertex   5.080000e+00 1.261659e+01 1.435955e+01
      vertex   0.000000e+00 1.281024e+01 1.415084e+01
    endloop
  endfacet
  facet normal -4.188540e-03 6.801677e-01 7.330446e-01
    outer loop
      vertex   0.000000e+00 1.281024e+01 1.415084e+01
      vertex   5.080000e+00 1.261659e+01 1.435955e+01
      vertex   5.080000e+00 1.303285e+01 1.397332e+01
    endloop
  endfacet
  facet normal 4.188416e-03 5.633138e-01 8.262324e-01
    outer loop
      vertex   0.000000e+00 1.281024e+01 1.415084e+01
      vertex   5.080000e+00 1.303285e+01 1.397332e+01
      vertex   0.000000e+00 1.327943e+01 1.383096e+01
    endloop
  endfacet
  facet normal -4.188306e-03 4.338803e-01 9.009608e-01
    outer loop
      vertex   0.000000e+00 1.327943e+01 1.383096e+01
      vertex   5.080000e+00 1.303285e+01 1.397332e+01
      vertex   5.080000e+00 1.354447e+01 1.372694e+01
    endloop
  endfacet
  facet normal 4.188505e-03 2.947526e-01 9.555644e-01
    outer loop
      vertex   0.000000e+00 1.327943e+01 1.383096e+01
      vertex   5.080000e+00 1.354447e+01 1.372694e+01
      vertex   0.000000e+00 1.382205e+01 1.366358e+01
    endloop
  endfacet
  facet normal -4.188322e-03 1.490409e-01 9.888222e-01
    outer loop
      vertex   0.000000e+00 1.382205e+01 1.366358e+01
      vertex   5.080000e+00 1.354447e+01 1.372694e+01
      vertex   5.080000e+00 1.410597e+01 1.364230e+01
    endloop
  endfacet
  facet normal 4.188480e-03 -0.000000e+00 9.999912e-01
    outer loop
      vertex   0.000000e+00 1.382205e+01 1.366358e+01
      vertex   5.080000e+00 1.410597e+01 1.364230e+01
      vertex   0.000000e+00 1.438990e+01 1.366358e+01
    endloop
  endfacet
  facet normal -4.188340e-03 -1.490412e-01 9.888221e-01
    outer loop
      vertex   0.000000e+00 1.438990e+01 1.366358e+01
      vertex   5.080000e+00 1.410597e+01 1.364230e+01
      vertex   5.080000e+00 1.466748e+01 1.372694e+01
    endloop
  endfacet
  facet normal 4.188435e-03 -2.947526e-01 9.555644e-01
    outer loop
      vertex   0.000000e+00 1.438990e+01 1.366358e+01
      vertex   5.080000e+00 1.466748e+01 1.372694e+01
      vertex   0.000000e+00 1.493252e+01 1.383096e+01
    endloop
  endfacet
  facet normal -4.188408e-03 -4.338803e-01 9.009608e-01
    outer loop
      vertex   0.000000e+00 1.493252e+01 1.383096e+01
      vertex   5.080000e+00 1.466748e+01 1.372694e+01
      vertex   5.080000e+00 1.517910e+01 1.397332e+01
    endloop
  endfacet
  facet normal 4.188350e-03 -5.633148e-01 8.262318e-01
    outer loop
      vertex   0.000000e+00 1.493252e+01 1.383096e+01
      vertex   5.080000e+00 1.517910e+01 1.397332e+01
      vertex   0.000000e+00 1.540170e+01 1.415084e+01
    endloop
  endfacet
  facet normal -4.188460e-03 -6.801666e-01 7.330456e-01
    outer loop
      vertex   0.000000e+00 1.540170e+01 1.415084e+01
      vertex   5.080000e+00 1.517910e+01 1.397332e+01
      vertex   5.080000e+00 1.559536e+01 1.435955e+01
    endloop
  endfacet
  facet normal 4.188399e-03 -7.818249e-01 6.234840e-01
    outer loop
      vertex   0.000000e+00 1.540170e+01 1.415084e+01
      vertex   5.080000e+00 1.559536e+01 1.435955e+01
      vertex   0.000000e+00 1.575575e+01 1.459480e+01
    endloop
  endfacet
  facet normal -4.188340e-03 -8.660176e-01 4.999960e-01
    outer loop
      vertex   0.000000e+00 1.575575e+01 1.459480e+01
      vertex   5.080000e+00 1.559536e+01 1.435955e+01
      vertex   5.080000e+00 1.587929e+01 1.485133e+01
    endloop
  endfacet
  facet normal 4.188446e-03 -9.308652e-01 3.653387e-01
    outer loop
      vertex   0.000000e+00 1.575575e+01 1.459480e+01
      vertex   5.080000e+00 1.587929e+01 1.485133e+01
      vertex   0.000000e+00 1.596321e+01 1.512340e+01
    endloop
  endfacet
  facet normal -4.188468e-03 -9.749195e-01 2.225182e-01
    outer loop
      vertex   0.000000e+00 1.596321e+01 1.512340e+01
      vertex   5.080000e+00 1.587929e+01 1.485133e+01
      vertex   5.080000e+00 1.600565e+01 1.540494e+01
    endloop
  endfacet
  facet normal 4.188344e-03 -9.971951e-01 7.472834e-02
    outer loop
      vertex   0.000000e+00 1.596321e+01 1.512340e+01
      vertex   5.080000e+00 1.600565e+01 1.540494e+01
      vertex   0.000000e+00 1.600565e+01 1.568966e+01
    endloop
  endfacet
  facet normal -4.188344e-03 -9.971951e-01 -7.472834e-02
    outer loop
      vertex   0.000000e+00 1.600565e+01 1.568966e+01
      vertex   5.080000e+00 1.600565e+01 1.540494e+01
      vertex   5.080000e+00 1.596321e+01 1.597120e+01
    endloop
  endfacet
  facet normal 4.188468e-03 -9.749195e-01 -2.225182e-01
    outer loop
      vertex   0.000000e+00 1.600565e+01 1.568966e+01
      vertex   5.080000e+00 1.596321e+01 1.597120e+01
      vertex   0.000000e+00 1.587929e+01 1.624328e+01
    endloop
  endfacet
  facet normal -4.188446e-03 -9.308652e-01 -3.653387e-01
    outer loop
      vertex   0.000000e+00 1.587929e+01 1.624328e+01
      vertex   5.080000e+00 1.596321e+01 1.597120e+01
      vertex   5.080000e+00 1.575575e+01 1.649980e+01
    endloop
  endfacet
  facet normal 4.188340e-03 -8.660176e-01 -4.999960e-01
    outer loop
      vertex   0.000000e+00 1.587929e+01 1.624328e+01
      vertex   5.080000e+00 1.575575e+01 1.649980e+01
      vertex   0.000000e+00 1.559536e+01 1.673505e+01
    endloop
  endfacet
  facet normal -4.188399e-03 -7.818249e-01 -6.234840e-01
    outer loop
      vertex   0.000000e+00 1.559536e+01 1.673505e+01
      vertex   5.080000e+00 1.575575e+01 1.649980e+01
      vertex   5.080000e+00 1.540170e+01 1.694377e+01
    endloop
  endfacet
  facet normal 4.188460e-03 -6.801666e-01 -7.330456e-01
    outer loop
      vertex   0.000000e+00 1.559536e+01 1.673505e+01
      vertex   5.080000e+00 1.540170e+01 1.694377e+01
      vertex   0.000000e+00 1.517910e+01 1.712129e+01
    endloop
  endfacet
  facet normal -4.188350e-03 -5.633148e-01 -8.262318e-01
    outer loop
      vertex   0.000000e+00 1.517910e+01 1.712129e+01
      vertex   5.080000e+00 1.540170e+01 1.694377e+01
      vertex   5.080000e+00 1.493252e+01 1.726365e+01
    endloop
  endfacet
  facet normal 4.188408e-03 -4.338803e-01 -9.009608e-01
    outer loop
      vertex   0.000000e+00 1.517910e+01 1.712129e+01
      vertex   5.080000e+00 1.493252e+01 1.726365e+01
      vertex   0.000000e+00 1.466748e+01 1.736767e+01
    endloop
  endfacet
  facet normal -4.188435e-03 -2.947526e-01 -9.555644e-01
    outer loop
      vertex   0.000000e+00 1.466748e+01 1.736767e+01
      vertex   5.080000e+00 1.493252e+01 1.726365e+01
      vertex   5.080000e+00 1.438990e+01 1.743102e+01
    endloop
  endfacet
  facet normal 4.188380e-03 -1.490409e-01 -9.888222e-01
    outer loop
      vertex   0.000000e+00 -5.652517e+00 -2.952332e+00
      vertex   5.080000e+00 -5.930101e+00 -2.888975e+00
      vertex   0.000000e+00 -6.214026e+00 -2.867698e+00
    endloop
  endfacet
  facet normal -4.188421e-03 0.000000e+00 -9.999912e-01
    outer loop
      vertex   0.000000e+00 -6.214026e+00 -2.867698e+00
      vertex   5.080000e+00 -5.930101e+00 -2.888975e+00
      vertex   5.080000e+00 -6.497952e+00 -2.888975e+00
    endloop
  endfacet
  facet normal 4.188389e-03 1.490410e-01 -9.888221e-01
    outer loop
      vertex   0.000000e+00 -6.214026e+00 -2.867698e+00
      vertex   5.080000e+00 -6.497952e+00 -2.888975e+00
      vertex   0.000000e+00 -6.775535e+00 -2.952332e+00
    endloop
  endfacet
  facet normal -4.188414e-03 2.947526e-01 -9.555644e-01
    outer loop
      vertex   0.000000e+00 -6.775535e+00 -2.952332e+00
      vertex   5.080000e+00 -6.497952e+00 -2.888975e+00
      vertex   5.080000e+00 -7.040575e+00 -3.056352e+00
    endloop
  endfacet
  facet normal 4.188383e-03 4.338799e-01 -9.009610e-01
    outer loop
      vertex   0.000000e+00 -6.775535e+00 -2.952332e+00
      vertex   5.080000e+00 -7.040575e+00 -3.056352e+00
      vertex   0.000000e+00 -7.287151e+00 -3.198713e+00
    endloop
  endfacet
  facet normal -4.188422e-03 5.633151e-01 -8.262315e-01
    outer loop
      vertex   0.000000e+00 -7.287151e+00 -3.198713e+00
      vertex   5.080000e+00 -7.040575e+00 -3.056352e+00
      vertex   5.080000e+00 -7.509755e+00 -3.376234e+00
    endloop
  endfacet
  facet normal 4.188374e-03 6.801666e-01 -7.330456e-01
    outer loop
      vertex   0.000000e+00 -7.287151e+00 -3.198713e+00
      vertex   5.080000e+00 -7.509755e+00 -3.376234e+00
      vertex   0.000000e+00 -7.703415e+00 -3.584950e+00
    endloop
  endfacet
  facet normal -4.188472e-03 7.818249e-01 -6.234840e-01
    outer loop
      vertex   0.000000e+00 -7.703415e+00 -3.584950e+00
      vertex   5.080000e+00 -7.509755e+00 -3.376234e+00
      vertex   5.080000e+00 -7.863804e+00 -3.820198e+00
    endloop
  endfacet
  facet normal 4.188311e-03 8.660178e-01 -4.999956e-01
    outer loop
      vertex   0.000000e+00 -7.703415e+00 -3.584950e+00
      vertex   5.080000e+00 -7.863804e+00 -3.820198e+00
      vertex   0.000000e+00 -7.987341e+00 -4.076723e+00
    endloop
  endfacet
  facet normal -4.188490e-03 9.308655e-01 -3.653380e-01
    outer loop
      vertex   0.000000e+00 -7.987341e+00 -4.076723e+00
      vertex   5.080000e+00 -7.863804e+00 -3.820198e+00
      vertex   5.080000e+00 -8.071263e+00 -4.348796e+00
    endloop
  endfacet
  facet normal 4.188367e-03 9.749195e-01 -2.225182e-01
    outer loop
      vertex   0.000000e+00 -7.987341e+00 -4.076723e+00
      vertex   5.080000e+00 -8.071263e+00 -4.348796e+00
      vertex   0.000000e+00 -8.113699e+00 -4.630337e+00
    endloop
  endfacet
  facet normal -4.188398e-03 9.971951e-01 -7.472938e-02
    outer loop
      vertex   0.000000e+00 -8.113699e+00 -4.630337e+00
      vertex   5.080000e+00 -8.071263e+00 -4.348796e+00
      vertex   5.080000e+00 -8.113699e+00 -4.915059e+00
    endloop
  endfacet
  facet normal 4.188398e-03 9.971951e-01 7.472938e-02
    outer loop
      vertex   0.000000e+00 -8.113699e+00 -4.630337e+00
      vertex   5.080000e+00 -8.113699e+00 -4.915059e+00
      vertex   0.000000e+00 -8.071263e+00 -5.196601e+00
    endloop
  endfacet
  facet normal -4.188374e-03 9.749195e-01 2.225183e-01
    outer loop
      vertex   0.000000e+00 -8.071263e+00 -5.196601e+00
      vertex   5.080000e+00 -8.113699e+00 -4.915059e+00
      vertex   5.080000e+00 -7.987341e+00 -5.468673e+00
    endloop
  endfacet
  facet normal 4.188479e-03 9.308655e-01 3.653381e-01
    outer loop
      vertex   0.000000e+00 -8.071263e+00 -5.196601e+00
      vertex   5.080000e+00 -7.987341e+00 -5.468673e+00
      vertex   0.000000e+00 -7.863804e+00 -5.725198e+00
    endloop
  endfacet
  facet normal -4.188311e-03 8.660178e-01 4.999956e-01
    outer loop
      vertex   0.000000e+00 -7.863804e+00 -5.725198e+00
      vertex   5.080000e+00 -7.987341e+00 -5.468673e+00
      vertex   5.080000e+00 -7.703415e+00 -5.960446e+00
    endloop
  endfacet
  facet normal 4.188472e-03 7.818249e-01 6.234840e-01
    outer loop
      vertex   0.000000e+00 -7.863804e+00 -5.725198e+00
      vertex   5.080000e+00 -7.703415e+00 -5.960446e+00
      vertex   0.000000e+00 -7.509755e+00 -6.169162e+00
    endloop
  endfacet
  facet normal -4.188374e-03 6.801666e-01 7.330456e-01
    outer loop
      vertex   0.000000e+00 -7.509755e+00 -6.169162e+00
      vertex   5.080000e+00 -7.703415e+00 -5.960446e+00
      vertex   5.080000e+00 -7.287151e+00 -6.346683e+00
    endloop
  endfacet
  facet normal 4.188398e-03 5.633155e-01 8.262313e-01
    outer loop
      vertex   0.000000e+00 -7.509755e+00 -6.169162e+00
      vertex   5.080000e+00 -7.287151e+00 -6.346683e+00
      vertex   0.000000e+00 -7.040575e+00 -6.489044e+00
    endloop
  endfacet
  facet normal -4.188435e-03 4.338799e-01 9.009610e-01
    outer loop
      vertex   0.000000e+00 -7.040575e+00 -6.489044e+00
      vertex   5.080000e+00 -7.287151e+00 -6.346683e+00
      vertex   5.080000e+00 -6.775535e+00 -6.593064e+00
    endloop
  endfacet
  facet normal 4.188358e-03 2.947526e-01 9.555644e-01
    outer loop
      vertex   0.000000e+00 -7.040575e+00 -6.489044e+00
      vertex   5.080000e+00 -6.775535e+00 -6.593064e+00
      vertex   0.000000e+00 -6.497952e+00 -6.656421e+00
    endloop
  endfacet
  facet normal -4.188447e-03 1.490410e-01 9.888221e-01
    outer loop
      vertex   0.000000e+00 -6.497952e+00 -6.656421e+00
      vertex   5.080000e+00 -6.775535e+00 -6.593064e+00
      vertex   5.080000e+00 -6.214026e+00 -6.677698e+00
    endloop
  endfacet
  facet normal 4.188363e-03 -0.000000e+00 9.999912e-01
    outer loop
      vertex   0.000000e+00 -6.497952e+00 -6.656421e+00
      vertex   5.080000e+00 -6.214026e+00 -6.677698e+00
      vertex   0.000000e+00 -5.930101e+00 -6.656421e+00
    endloop
  endfacet
  facet normal -4.188438e-03 -1.490409e-01 9.888222e-01
    outer loop
      vertex   0.000000e+00 -5.930101e+00 -6.656421e+00
      vertex   5.080000e+00 -6.214026e+00 -6.677698e+00
      vertex   5.080000e+00 -5.652517e+00 -6.593064e+00
    endloop
  endfacet
  facet normal 4.188375e-03 -2.947523e-01 9.555645e-01
    outer loop
      vertex   0.000000e+00 -5.930101e+00 -6.656421e+00
      vertex   5.080000e+00 -5.652517e+00 -6.593064e+00
      vertex   0.000000e+00 -5.387477e+00 -6.489044e+00
    endloop
  endfacet
  facet normal -4.188435e-03 -4.338799e-01 9.009610e-01
    outer loop
      vertex   0.000000e+00 -5.387477e+00 -6.489044e+00
      vertex   5.080000e+00 -5.652517e+00 -6.593064e+00
      vertex   5.080000e+00 -5.140901e+00 -6.346683e+00
    endloop
  endfacet
  facet normal 4.188398e-03 -5.633155e-01 8.262313e-01
    outer loop
      vertex   0.000000e+00 -5.387477e+00 -6.489044e+00
      vertex   5.080000e+00 -5.140901e+00 -6.346683e+00
      vertex   0.000000e+00 -4.918297e+00 -6.169162e+00
    endloop
  endfacet
  facet normal -4.188394e-03 -6.801669e-01 7.330453e-01
    outer loop
      vertex   0.000000e+00 -4.918297e+00 -6.169162e+00
      vertex   5.080000e+00 -5.140901e+00 -6.346683e+00
      vertex   5.080000e+00 -4.724637e+00 -5.960446e+00
    endloop
  endfacet
  facet normal 4.188403e-03 -7.818246e-01 6.234844e-01
    outer loop
      vertex   0.000000e+00 -4.918297e+00 -6.169162e+00
      vertex   5.080000e+00 -4.724637e+00 -5.960446e+00
      vertex   0.000000e+00 -4.564247e+00 -5.725198e+00
    endloop
  endfacet
  facet normal -4.188413e-03 -8.660178e-01 4.999956e-01
    outer loop
      vertex   0.000000e+00 -4.564247e+00 -5.725198e+00
      vertex   5.080000e+00 -4.724637e+00 -5.960446e+00
      vertex   5.080000e+00 -4.440711e+00 -5.468673e+00
    endloop
  endfacet
  facet normal 4.188398e-03 -9.308656e-01 3.653377e-01
    outer loop
      vertex   0.000000e+00 -4.564247e+00 -5.725198e+00
      vertex   5.080000e+00 -4.440711e+00 -5.468673e+00
      vertex   0.000000e+00 -4.356788e+00 -5.196601e+00
    endloop
  endfacet
  facet normal -4.188374e-03 -9.749193e-01 2.225193e-01
    outer loop
      vertex   0.000000e+00 -4.356788e+00 -5.196601e+00
      vertex   5.080000e+00 -4.440711e+00 -5.468673e+00
      vertex   5.080000e+00 -4.314353e+00 -4.915059e+00
    endloop
  endfacet
  facet normal 4.188428e-03 -9.971950e-01 7.472990e-02
    outer loop
      vertex   0.000000e+00 -4.356788e+00 -5.196601e+00
      vertex   5.080000e+00 -4.314353e+00 -4.915059e+00
      vertex   0.000000e+00 -4.314353e+00 -4.630337e+00
    endloop
  endfacet
  facet normal -4.188428e-03 -9.971950e-01 -7.472990e-02
    outer loop
      vertex   0.000000e+00 -4.314353e+00 -4.630337e+00
      vertex   5.080000e+00 -4.314353e+00 -4.915059e+00
      vertex   5.080000e+00 -4.356788e+00 -4.348796e+00
    endloop
  endfacet
  facet normal 4.188367e-03 -9.749193e-01 -2.225192e-01
    outer loop
      vertex   0.000000e+00 -4.314353e+00 -4.630337e+00
      vertex   5.080000e+00 -4.356788e+00 -4.348796e+00
      vertex   0.000000e+00 -4.440711e+00 -4.076723e+00
    endloop
  endfacet
  facet normal -4.188408e-03 -9.308657e-01 -3.653375e-01
    outer loop
      vertex   0.000000e+00 -4.440711e+00 -4.076723e+00
      vertex   5.080000e+00 -4.356788e+00 -4.348796e+00
      vertex   5.080000e+00 -4.564247e+00 -3.820198e+00
    endloop
  endfacet
  facet normal 4.188413e-03 -8.660178e-01 -4.999956e-01
    outer loop
      vertex   0.000000e+00 -4.440711e+00 -4.076723e+00
      vertex   5.080000e+00 -4.564247e+00 -3.820198e+00
      vertex   0.000000e+00 -4.724637e+00 -3.584950e+00
    endloop
  endfacet
  facet normal -4.188403e-03 -7.818246e-01 -6.234844e-01
    outer loop
      vertex   0.000000e+00 -4.724637e+00 -3.584950e+00
      vertex   5.080000e+00 -4.564247e+00 -3.820198e+00
      vertex   5.080000e+00 -4.918297e+00 -3.376234e+00
    endloop
  endfacet
  facet normal 4.188394e-03 -6.801669e-01 -7.330453e-01
    outer loop
      vertex   0.000000e+00 -4.724637e+00 -3.584950e+00
      vertex   5.080000e+00 -4.918297e+00 -3.376234e+00
      vertex   0.000000e+00 -5.140901e+00 -3.198713e+00
    endloop
  endfacet
  facet normal -4.188422e-03 -5.633151e-01 -8.262315e-01
    outer loop
      vertex   0.000000e+00 -5.140901e+00 -3.198713e+00
      vertex   5.080000e+00 -4.918297e+00 -3.376234e+00
      vertex   5.080000e+00 -5.387477e+00 -3.056352e+00
    endloop
  endfacet
  facet normal 4.188383e-03 -4.338799e-01 -9.009610e-01
    outer loop
      vertex   0.000000e+00 -5.140901e+00 -3.198713e+00
      vertex   5.080000e+00 -5.387477e+00 -3.056352e+00
      vertex   0.000000e+00 -5.652517e+00 -2.952332e+00
    endloop
  endfacet
  facet normal -4.188431e-03 -2.947523e-01 -9.555645e-01
    outer loop
      vertex   0.000000e+00 -5.652517e+00 -2.952332e+00
      vertex   5.080000e+00 -5.387477e+00 -3.056352e+00
      vertex   5.080000e+00 -5.930101e+00 -2.888975e+00
    endloop
  endfacet
  facet normal 0.000000e+00 -1.000000e+00 0.000000e+00
    outer loop
      vertex   0.000000e+00 -1.256403e+01 2.189730e+01
      vertex   0.000000e+00 -1.256403e+01 -8.582698e+00
      vertex   5.080000e+00 -1.256403e+01 2.189730e+01
    endloop
  endfacet
  facet normal 0.000000e+00 -1.000000e+00 -0.000000e+00
    outer loop
      vertex   5.080000e+00 -1.256403e+01 2.189730e+01
      vertex   0.000000e+00 -1.256403e+01 -8.582698e+00
      vertex   5.080000e+00 -1.256403e+01 -8.582698e+00
    endloop
  endfacet
  facet normal -0.000000e+00 0.000000e+00 1.000000e+00
    outer loop
      vertex   0.000000e+00 2.045597e+01 2.189730e+01
      vertex   0.000000e+00 -1.256403e+01 2.189730e+01
      vertex   5.080000e+00 2.045597e+01 2.189730e+01
    endloop
  endfacet
  facet normal 0.000000e+00 0.000000e+00 1.000000e+00
    outer loop
      vertex   5.080000e+00 2.045597e+01 2.189730e+01
      vertex   0.000000e+00 -1.256403e+01 2.189730e+01
      vertex   5.080000e+00 -1.256403e+01 2.189730e+01
    endloop
  endfacet
  facet normal 0.000000e+00 1.000000e+00 0.000000e+00
    outer loop
      vertex   0.000000e+00 2.045597e+01 -8.582698e+00
      vertex   0.000000e+00 2.045597e+01 2.189730e+01
      vertex   5.080000e+00 2.045597e+01 -8.582698e+00
    endloop
  endfacet
  facet normal 0.000000e+00 1.000000e+00 -0.000000e+00
    outer loop
      vertex   5.080000e+00 2.045597e+01 -8.582698e+00
      vertex   0.000000e+00 2.045597e+01 2.189730e+01
      vertex   5.080000e+00 2.045597e+01 2.189730e+01
    endloop
  endfacet
  facet normal 0.000000e+00 0.000000e+00 -1.000000e+00
    outer loop
      vertex   0.000000e+00 -1.256403e+01 -8.582698e+00
      vertex   0.000000e+00 2.045597e+01 -8.582698e+00
      vertex   5.080000e+00 -1.256403e+01 -8.582698e+00
    endloop
  endfacet
  facet normal 0.000000e+00 0.000000e+00 -1.000000e+00
    outer loop
      vertex   5.080000e+00 -1.256403e+01 -8.582698e+00
      vertex   0.000000e+00 2.045597e+01 -8.582698e+00
      vertex   5.080000e+00 2.045597e+01 -8.582698e+00
    endloop
  endfacet
  facet normal 1.000000e+00 0.000000e+00 0.000000e+00
    outer loop
      vertex   5.080000e+00 -6.775535e+00 1.372694e+01
      vertex   5.080000e+00 -6.497952e+00 -2.888975e+00
      vertex   5.080000e+00 -6.214026e+00 1.364230e+01
    endloop
  endfacet
  facet normal 1.000000e+00 0.000000e+00 0.000000e+00
    outer loop
      vertex   5.080000e+00 -6.214026e+00 1.364230e+01
      vertex   5.080000e+00 -6.497952e+00 -2.888975e+00
      vertex   5.080000e+00 -5.930101e+00 -2.888975e+00
    endloop
  endfacet
  facet normal 1.000000e+00 -0.000000e+00 0.000000e+00
    outer loop
      vertex   5.080000e+00 -6.214026e+00 1.364230e+01
      vertex   5.080000e+00 -5.930101e+00 -2.888975e+00
      vertex   5.080000e+00 -5.652517e+00 1.372694e+01
    endloop
  endfacet
  facet normal 1.000000e+00 0.000000e+00 0.000000e+00
    outer loop
      vertex   5.080000e+00 -5.652517e+00 1.372694e+01
      vertex   5.080000e+00 -5.930101e+00 -2.888975e+00
      vertex   5.080000e+00 -5.387477e+00 -3.056352e+00
    endloop
  endfacet
  facet normal 1.000000e+00 -0.000000e+00 0.000000e+00
    outer loop
      vertex   5.080000e+00 -5.652517e+00 1.372694e+01
      vertex   5.080000e+00 -5.387477e+00 -3.056352e+00
      vertex   5.080000e+00 -5.140901e+00 1.397332e+01
    endloop
  endfacet
  facet normal 1.000000e+00 0.000000e+00 0.000000e+00
    outer loop
      vertex   5.080000e+00 -5.140901e+00 1.397332e+01
      vertex   5.080000e+00 -5.387477e+00 -3.056352e+00
      vertex   5.080000e+00 -4.918297e+00 -3.376234e+00
    endloop
  endfacet
  facet normal 1.000000e+00 -0.000000e+00 0.000000e+00
    outer loop
      vertex   5.080000e+00 -5.140901e+00 1.397332e+01
      vertex   5.080000e+00 -4.918297e+00 -3.376234e+00
      vertex   5.080000e+00 1.303285e+01 1.397332e+01
    endloop
  endfacet
  facet normal 1.000000e+00 0.000000e+00 0.000000e+00
    outer loop
      vertex   5.080000e+00 1.303285e+01 1.397332e+01
      vertex   5.080000e+00 -4.918297e+00 -3.376234e+00
      vertex   5.080000e+00 1.281024e+01 -3.376234e+00
    endloop
  endfacet
  facet normal 1.000000e+00 0.000000e+00 0.000000e+00
    outer loop
      vertex   5.080000e+00 1.303285e+01 1.397332e+01
      vertex   5.080000e+00 1.281024e+01 -3.376234e+00
      vertex   5.080000e+00 1.327943e+01 -3.056352e+00
    endloop
  endfacet
  facet normal 1.000000e+00 0.000000e+00 0.000000e+00
    outer loop
      vertex   5.080000e+00 -6.497952e+00 -2.888975e+00
      vertex   5.080000e+00 -6.775535e+00 1.372694e+01
      vertex   5.080000e+00 -7.040575e+00 -3.056352e+00
    endloop
  endfacet
  facet normal 1.000000e+00 0.000000e+00 -0.000000e+00
    outer loop
      vertex   5.080000e+00 -7.040575e+00 -3.056352e+00
      vertex   5.080000e+00 -6.775535e+00 1.372694e+01
      vertex   5.080000e+00 -7.287151e+00 1.397332e+01
    endloop
  endfacet
  facet normal 1.000000e+00 0.000000e+00 0.000000e+00
    outer loop
      vertex   5.080000e+00 -7.040575e+00 -3.056352e+00
      vertex   5.080000e+00 -7.287151e+00 1.397332e+01
      vertex   5.080000e+00 -7.509755e+00 -3.376234e+00
    endloop
  endfacet
  facet normal 1.000000e+00 0.000000e+00 -0.000000e+00
    outer loop
      vertex   5.080000e+00 -7.509755e+00 -3.376234e+00
      vertex   5.080000e+00 -7.287151e+00 1.397332e+01
      vertex   5.080000e+00 -7.703415e+00 1.435955e+01
    endloop
  endfacet
  facet normal 1.000000e+00 0.000000e+00 0.000000e+00
    outer loop
      vertex   5.080000e+00 -7.509755e+00 -3.376234e+00
      vertex   5.080000e+00 -7.703415e+00 1.435955e+01
      vertex   5.080000e+00 -7.863804e+00 -3.820198e+00
    endloop
  endfacet
  facet normal 1.000000e+00 0.000000e+00 -0.000000e+00
    outer loop
      vertex   5.080000e+00 -7.863804e+00 -3.820198e+00
      vertex   5.080000e+00 -7.703415e+00 1.435955e+01
      vertex   5.080000e+00 -1.256403e+01 -8.582698e+00
    endloop
  endfacet
  facet normal 1.000000e+00 0.000000e+00 0.000000e+00
    outer loop
      vertex   5.080000e+00 -7.863804e+00 -3.820198e+00
      vertex   5.080000e+00 -1.256403e+01 -8.582698e+00
      vertex   5.080000e+00 -8.071263e+00 -4.348796e+00
    endloop
  endfacet
  facet normal 1.000000e+00 0.000000e+00 0.000000e+00
    outer loop
      vertex   5.080000e+00 -8.071263e+00 -4.348796e+00
      vertex   5.080000e+00 -1.256403e+01 -8.582698e+00
      vertex   5.080000e+00 -8.113699e+00 -4.915059e+00
    endloop
  endfacet
  facet normal 1.000000e+00 0.000000e+00 0.000000e+00
    outer loop
      vertex   5.080000e+00 -8.113699e+00 -4.915059e+00
      vertex   5.080000e+00 -1.256403e+01 -8.582698e+00
      vertex   5.080000e+00 -7.987341e+00 -5.468673e+00
    endloop
  endfacet
  facet normal 1.000000e+00 0.000000e+00 0.000000e+00
    outer loop
      vertex   5.080000e+00 -7.987341e+00 -5.468673e+00
      vertex   5.080000e+00 -1.256403e+01 -8.582698e+00
      vertex   5.080000e+00 -7.703415e+00 -5.960446e+00
    endloop
  endfacet
  facet normal 1.000000e+00 0.000000e+00 0.000000e+00
    outer loop
      vertex   5.080000e+00 -7.703415e+00 -5.960446e+00
      vertex   5.080000e+00 -1.256403e+01 -8.582698e+00
      vertex   5.080000e+00 -7.287151e+00 -6.346683e+00
    endloop
  endfacet
  facet normal 1.000000e+00 0.000000e+00 0.000000e+00
    outer loop
      vertex   5.080000e+00 -7.287151e+00 -6.346683e+00
      vertex   5.080000e+00 -1.256403e+01 -8.582698e+00
      vertex   5.080000e+00 -6.775535e+00 -6.593064e+00
    endloop
  endfacet
  facet normal 1.000000e+00 0.000000e+00 0.000000e+00
    outer loop
      vertex   5.080000e+00 -6.775535e+00 -6.593064e+00
      vertex   5.080000e+00 -1.256403e+01 -8.582698e+00
      vertex   5.080000e+00 -6.214026e+00 -6.677698e+00
    endloop
  endfacet
  facet normal 1.000000e+00 -0.000000e+00 0.000000e+00
    outer loop
      vertex   5.080000e+00 -6.214026e+00 -6.677698e+00
      vertex   5.080000e+00 -1.256403e+01 -8.582698e+00
      vertex   5.080000e+00 -5.652517e+00 -6.593064e+00
    endloop
  endfacet
  facet normal 1.000000e+00 -0.000000e+00 0.000000e+00
    outer loop
      vertex   5.080000e+00 -5.652517e+00 -6.593064e+00
      vertex   5.080000e+00 -1.256403e+01 -8.582698e+00
      vertex   5.080000e+00 1.354447e+01 -6.593064e+00
    endloop
  endfacet
  facet normal 1.000000e+00 0.000000e+00 0.000000e+00
    outer loop
      vertex   5.080000e+00 -5.652517e+00 -6.593064e+00
      vertex   5.080000e+00 1.354447e+01 -6.593064e+00
      vertex   5.080000e+00 1.303285e+01 -6.346683e+00
    endloop
  endfacet
  facet normal 1.000000e+00 0.000000e+00 0.000000e+00
    outer loop
      vertex   5.080000e+00 -7.703415e+00 1.435955e+01
      vertex   5.080000e+00 -7.987341e+00 1.485133e+01
      vertex   5.080000e+00 -1.256403e+01 -8.582698e+00
    endloop
  endfacet
  facet normal 1.000000e+00 0.000000e+00 0.000000e+00
    outer loop
      vertex   5.080000e+00 -1.256403e+01 -8.582698e+00
      vertex   5.080000e+00 -7.987341e+00 1.485133e+01
      vertex   5.080000e+00 -1.256403e+01 2.189730e+01
    endloop
  endfacet
  facet normal 1.000000e+00 0.000000e+00 0.000000e+00
    outer loop
      vertex   5.080000e+00 -1.256403e+01 2.189730e+01
      vertex   5.080000e+00 -7.987341e+00 1.485133e+01
      vertex   5.080000e+00 -8.113699e+00 1.540494e+01
    endloop
  endfacet
  facet normal 1.000000e+00 0.000000e+00 0.000000e+00
    outer loop
      vertex   5.080000e+00 -1.256403e+01 2.189730e+01
      vertex   5.080000e+00 -8.113699e+00 1.540494e+01
      vertex   5.080000e+00 -8.071263e+00 1.597120e+01
    endloop
  endfacet
  facet normal 1.000000e+00 0.000000e+00 -0.000000e+00
    outer loop
      vertex   5.080000e+00 -8.071263e+00 1.597120e+01
      vertex   5.080000e+00 -7.863804e+00 1.649980e+01
      vertex   5.080000e+00 -1.256403e+01 2.189730e+01
    endloop
  endfacet
  facet normal 1.000000e+00 0.000000e+00 0.000000e+00
    outer loop
      vertex   5.080000e+00 -1.256403e+01 2.189730e+01
      vertex   5.080000e+00 -7.863804e+00 1.649980e+01
      vertex   5.080000e+00 -7.509755e+00 1.694377e+01
    endloop
  endfacet
  facet normal 1.000000e+00 0.000000e+00 0.000000e+00
    outer loop
      vertex   5.080000e+00 -1.256403e+01 2.189730e+01
      vertex   5.080000e+00 -7.509755e+00 1.694377e+01
      vertex   5.080000e+00 -7.040575e+00 1.726365e+01
    endloop
  endfacet
  facet normal 1.000000e+00 0.000000e+00 -0.000000e+00
    outer loop
      vertex   5.080000e+00 -7.040575e+00 1.726365e+01
      vertex   5.080000e+00 -6.497952e+00 1.743102e+01
      vertex   5.080000e+00 -1.256403e+01 2.189730e+01
    endloop
  endfacet
  facet normal 1.000000e+00 0.000000e+00 0.000000e+00
    outer loop
      vertex   5.080000e+00 -1.256403e+01 2.189730e+01
      vertex   5.080000e+00 -6.497952e+00 1.743102e+01
      vertex   5.080000e+00 -5.930101e+00 1.743102e+01
    endloop
  endfacet
  facet normal 1.000000e+00 0.000000e+00 0.000000e+00
    outer loop
      vertex   5.080000e+00 -1.256403e+01 2.189730e+01
      vertex   5.080000e+00 -5.930101e+00 1.743102e+01
      vertex   5.080000e+00 -5.387477e+00 1.726365e+01
    endloop
  endfacet
  facet normal 1.000000e+00 0.000000e+00 -0.000000e+00
    outer loop
      vertex   5.080000e+00 -4.918297e+00 1.694377e+01
      vertex   5.080000e+00 1.281024e+01 1.694377e+01
      vertex   5.080000e+00 -5.387477e+00 1.726365e+01
    endloop
  endfacet
  facet normal 1.000000e+00 -0.000000e+00 0.000000e+00
    outer loop
      vertex   5.080000e+00 -5.387477e+00 1.726365e+01
      vertex   5.080000e+00 1.281024e+01 1.694377e+01
      vertex   5.080000e+00 1.327943e+01 1.726365e+01
    endloop
  endfacet
  facet normal 1.000000e+00 0.000000e+00 -0.000000e+00
    outer loop
      vertex   5.080000e+00 -5.387477e+00 1.726365e+01
      vertex   5.080000e+00 1.327943e+01 1.726365e+01
      vertex   5.080000e+00 -1.256403e+01 2.189730e+01
    endloop
  endfacet
  facet normal 1.000000e+00 -0.000000e+00 0.000000e+00
    outer loop
      vertex   5.080000e+00 -1.256403e+01 2.189730e+01
      vertex   5.080000e+00 1.327943e+01 1.726365e+01
      vertex   5.080000e+00 2.045597e+01 2.189730e+01
    endloop
  endfacet
  facet normal 1.000000e+00 0.000000e+00 0.000000e+00
    outer loop
      vertex   5.080000e+00 2.045597e+01 2.189730e+01
      vertex   5.080000e+00 1.327943e+01 1.726365e+01
      vertex   5.080000e+00 1.382205e+01 1.743102e+01
    endloop
  endfacet
  facet normal 1.000000e+00 0.000000e+00 0.000000e+00
    outer loop
      vertex   5.080000e+00 2.045597e+01 2.189730e+01
      vertex   5.080000e+00 1.382205e+01 1.743102e+01
      vertex   5.080000e+00 1.438990e+01 1.743102e+01
    endloop
  endfacet
  facet normal 1.000000e+00 0.000000e+00 0.000000e+00
    outer loop
      vertex   5.080000e+00 1.281024e+01 1.694377e+01
      vertex   5.080000e+00 -4.918297e+00 1.694377e+01
      vertex   5.080000e+00 1.245620e+01 1.649980e+01
    endloop
  endfacet
  facet normal 1.000000e+00 0.000000e+00 0.000000e+00
    outer loop
      vertex   5.080000e+00 1.245620e+01 1.649980e+01
      vertex   5.080000e+00 -4.918297e+00 1.694377e+01
      vertex   5.080000e+00 -4.564247e+00 1.649980e+01
    endloop
  endfacet
  facet normal 1.000000e+00 0.000000e+00 0.000000e+00
    outer loop
      vertex   5.080000e+00 1.245620e+01 1.649980e+01
      vertex   5.080000e+00 -4.564247e+00 1.649980e+01
      vertex   5.080000e+00 1.224874e+01 1.597120e+01
    endloop
  endfacet
  facet normal 1.000000e+00 0.000000e+00 0.000000e+00
    outer loop
      vertex   5.080000e+00 1.224874e+01 1.597120e+01
      vertex   5.080000e+00 -4.564247e+00 1.649980e+01
      vertex   5.080000e+00 -4.356788e+00 1.597120e+01
    endloop
  endfacet
  facet normal 1.000000e+00 0.000000e+00 0.000000e+00
    outer loop
      vertex   5.080000e+00 1.224874e+01 1.597120e+01
      vertex   5.080000e+00 -4.356788e+00 1.597120e+01
      vertex   5.080000e+00 1.220630e+01 1.540494e+01
    endloop
  endfacet
  facet normal 1.000000e+00 0.000000e+00 0.000000e+00
    outer loop
      vertex   5.080000e+00 1.220630e+01 1.540494e+01
      vertex   5.080000e+00 -4.356788e+00 1.597120e+01
      vertex   5.080000e+00 -4.314353e+00 1.540494e+01
    endloop
  endfacet
  facet normal 1.000000e+00 0.000000e+00 0.000000e+00
    outer loop
      vertex   5.080000e+00 1.220630e+01 1.540494e+01
      vertex   5.080000e+00 -4.314353e+00 1.540494e+01
      vertex   5.080000e+00 -4.440711e+00 1.485133e+01
    endloop
  endfacet
  facet normal 1.000000e+00 0.000000e+00 0.000000e+00
    outer loop
      vertex   5.080000e+00 1.220630e+01 1.540494e+01
      vertex   5.080000e+00 -4.440711e+00 1.485133e+01
      vertex   5.080000e+00 1.233266e+01 1.485133e+01
    endloop
  endfacet
  facet normal 1.000000e+00 0.000000e+00 0.000000e+00
    outer loop
      vertex   5.080000e+00 1.233266e+01 1.485133e+01
      vertex   5.080000e+00 -4.440711e+00 1.485133e+01
      vertex   5.080000e+00 -4.724637e+00 1.435955e+01
    endloop
  endfacet
  facet normal 1.000000e+00 0.000000e+00 0.000000e+00
    outer loop
      vertex   5.080000e+00 1.233266e+01 1.485133e+01
      vertex   5.080000e+00 -4.724637e+00 1.435955e+01
      vertex   5.080000e+00 1.261659e+01 1.435955e+01
    endloop
  endfacet
  facet normal 1.000000e+00 0.000000e+00 0.000000e+00
    outer loop
      vertex   5.080000e+00 1.261659e+01 1.435955e+01
      vertex   5.080000e+00 -4.724637e+00 1.435955e+01
      vertex   5.080000e+00 -5.140901e+00 1.397332e+01
    endloop
  endfacet
  facet normal 1.000000e+00 0.000000e+00 0.000000e+00
    outer loop
      vertex   5.080000e+00 1.261659e+01 1.435955e+01
      vertex   5.080000e+00 -5.140901e+00 1.397332e+01
      vertex   5.080000e+00 1.303285e+01 1.397332e+01
    endloop
  endfacet
  facet normal 1.000000e+00 0.000000e+00 0.000000e+00
    outer loop
      vertex   5.080000e+00 1.466748e+01 -6.593064e+00
      vertex   5.080000e+00 1.410597e+01 -6.677698e+00
      vertex   5.080000e+00 2.045597e+01 -8.582698e+00
    endloop
  endfacet
  facet normal 1.000000e+00 0.000000e+00 0.000000e+00
    outer loop
      vertex   5.080000e+00 2.045597e+01 -8.582698e+00
      vertex   5.080000e+00 1.410597e+01 -6.677698e+00
      vertex   5.080000e+00 1.354447e+01 -6.593064e+00
    endloop
  endfacet
  facet normal 1.000000e+00 0.000000e+00 0.000000e+00
    outer loop
      vertex   5.080000e+00 2.045597e+01 -8.582698e+00
      vertex   5.080000e+00 1.354447e+01 -6.593064e+00
      vertex   5.080000e+00 -1.256403e+01 -8.582698e+00
    endloop
  endfacet
  facet normal 1.000000e+00 0.000000e+00 0.000000e+00
    outer loop
      vertex   5.080000e+00 -5.652517e+00 -6.593064e+00
      vertex   5.080000e+00 1.303285e+01 -6.346683e+00
      vertex   5.080000e+00 -5.140901e+00 -6.346683e+00
    endloop
  endfacet
  facet normal 1.000000e+00 0.000000e+00 0.000000e+00
    outer loop
      vertex   5.080000e+00 -5.140901e+00 -6.346683e+00
      vertex   5.080000e+00 1.303285e+01 -6.346683e+00
      vertex   5.080000e+00 1.261659e+01 -5.960446e+00
    endloop
  endfacet
  facet normal 1.000000e+00 0.000000e+00 0.000000e+00
    outer loop
      vertex   5.080000e+00 -5.140901e+00 -6.346683e+00
      vertex   5.080000e+00 1.261659e+01 -5.960446e+00
      vertex   5.080000e+00 -4.724637e+00 -5.960446e+00
    endloop
  endfacet
  facet normal 1.000000e+00 0.000000e+00 0.000000e+00
    outer loop
      vertex   5.080000e+00 -4.724637e+00 -5.960446e+00
      vertex   5.080000e+00 1.261659e+01 -5.960446e+00
      vertex   5.080000e+00 1.233266e+01 -5.468673e+00
    endloop
  endfacet
  facet normal 1.000000e+00 0.000000e+00 0.000000e+00
    outer loop
      vertex   5.080000e+00 -4.724637e+00 -5.960446e+00
      vertex   5.080000e+00 1.233266e+01 -5.468673e+00
      vertex   5.080000e+00 -4.440711e+00 -5.468673e+00
    endloop
  endfacet
  facet normal 1.000000e+00 0.000000e+00 0.000000e+00
    outer loop
      vertex   5.080000e+00 -4.440711e+00 -5.468673e+00
      vertex   5.080000e+00 1.233266e+01 -5.468673e+00
      vertex   5.080000e+00 1.220630e+01 -4.915059e+00
    endloop
  endfacet
  facet normal 1.000000e+00 0.000000e+00 0.000000e+00
    outer loop
      vertex   5.080000e+00 -4.440711e+00 -5.468673e+00
      vertex   5.080000e+00 1.220630e+01 -4.915059e+00
      vertex   5.080000e+00 -4.314353e+00 -4.915059e+00
    endloop
  endfacet
  facet normal 1.000000e+00 0.000000e+00 -0.000000e+00
    outer loop
      vertex   5.080000e+00 -4.314353e+00 -4.915059e+00
      vertex   5.080000e+00 1.220630e+01 -4.915059e+00
      vertex   5.080000e+00 -4.356788e+00 -4.348796e+00
    endloop
  endfacet
  facet normal 1.000000e+00 -0.000000e+00 0.000000e+00
    outer loop
      vertex   5.080000e+00 -4.356788e+00 -4.348796e+00
      vertex   5.080000e+00 1.220630e+01 -4.915059e+00
      vertex   5.080000e+00 1.224874e+01 -4.348796e+00
    endloop
  endfacet
  facet normal 1.000000e+00 0.000000e+00 -0.000000e+00
    outer loop
      vertex   5.080000e+00 -4.356788e+00 -4.348796e+00
      vertex   5.080000e+00 1.224874e+01 -4.348796e+00
      vertex   5.080000e+00 -4.564247e+00 -3.820198e+00
    endloop
  endfacet
  facet normal 1.000000e+00 -0.000000e+00 0.000000e+00
    outer loop
      vertex   5.080000e+00 -4.564247e+00 -3.820198e+00
      vertex   5.080000e+00 1.224874e+01 -4.348796e+00
      vertex   5.080000e+00 1.245620e+01 -3.820198e+00
    endloop
  endfacet
  facet normal 1.000000e+00 0.000000e+00 -0.000000e+00
    outer loop
      vertex   5.080000e+00 -4.564247e+00 -3.820198e+00
      vertex   5.080000e+00 1.245620e+01 -3.820198e+00
      vertex   5.080000e+00 -4.918297e+00 -3.376234e+00
    endloop
  endfacet
  facet normal 1.000000e+00 -0.000000e+00 0.000000e+00
    outer loop
      vertex   5.080000e+00 -4.918297e+00 -3.376234e+00
      vertex   5.080000e+00 1.245620e+01 -3.820198e+00
      vertex   5.080000e+00 1.281024e+01 -3.376234e+00
    endloop
  endfacet
  facet normal 1.000000e+00 0.000000e+00 0.000000e+00
    outer loop
      vertex   5.080000e+00 1.303285e+01 1.397332e+01
      vertex   5.080000e+00 1.327943e+01 -3.056352e+00
      vertex   5.080000e+00 1.354447e+01 1.372694e+01
    endloop
  endfacet
  facet normal 1.000000e+00 0.000000e+00 0.000000e+00
    outer loop
      vertex   5.080000e+00 1.354447e+01 1.372694e+01
      vertex   5.080000e+00 1.327943e+01 -3.056352e+00
      vertex   5.080000e+00 1.382205e+01 -2.888975e+00
    endloop
  endfacet
  facet normal 1.000000e+00 0.000000e+00 0.000000e+00
    outer loop
      vertex   5.080000e+00 1.354447e+01 1.372694e+01
      vertex   5.080000e+00 1.382205e+01 -2.888975e+00
      vertex   5.080000e+00 1.410597e+01 1.364230e+01
    endloop
  endfacet
  facet normal 1.000000e+00 0.000000e+00 0.000000e+00
    outer loop
      vertex   5.080000e+00 1.410597e+01 1.364230e+01
      vertex   5.080000e+00 1.382205e+01 -2.888975e+00
      vertex   5.080000e+00 1.438990e+01 -2.888975e+00
    endloop
  endfacet
  facet normal 1.000000e+00 -0.000000e+00 0.000000e+00
    outer loop
      vertex   5.080000e+00 1.410597e+01 1.364230e+01
      vertex   5.080000e+00 1.438990e+01 -2.888975e+00
      vertex   5.080000e+00 1.466748e+01 1.372694e+01
    endloop
  endfacet
  facet normal 1.000000e+00 0.000000e+00 0.000000e+00
    outer loop
      vertex   5.080000e+00 1.466748e+01 1.372694e+01
      vertex   5.080000e+00 1.438990e+01 -2.888975e+00
      vertex   5.080000e+00 1.493252e+01 -3.056352e+00
    endloop
  endfacet
  facet normal 1.000000e+00 -0.000000e+00 0.000000e+00
    outer loop
      vertex   5.080000e+00 1.466748e+01 1.372694e+01
      vertex   5.080000e+00 1.493252e+01 -3.056352e+00
      vertex   5.080000e+00 1.517910e+01 1.397332e+01
    endloop
  endfacet
  facet normal 1.000000e+00 0.000000e+00 0.000000e+00
    outer loop
      vertex   5.080000e+00 1.517910e+01 1.397332e+01
      vertex   5.080000e+00 1.493252e+01 -3.056352e+00
      vertex   5.080000e+00 1.540170e+01 -3.376234e+00
    endloop
  endfacet
  facet normal 1.000000e+00 -0.000000e+00 0.000000e+00
    outer loop
      vertex   5.080000e+00 1.517910e+01 1.397332e+01
      vertex   5.080000e+00 1.540170e+01 -3.376234e+00
      vertex   5.080000e+00 1.559536e+01 1.435955e+01
    endloop
  endfacet
  facet normal 1.000000e+00 0.000000e+00 0.000000e+00
    outer loop
      vertex   5.080000e+00 1.559536e+01 1.435955e+01
      vertex   5.080000e+00 1.540170e+01 -3.376234e+00
      vertex   5.080000e+00 1.575575e+01 -3.820198e+00
    endloop
  endfacet
  facet normal 1.000000e+00 0.000000e+00 0.000000e+00
    outer loop
      vertex   5.080000e+00 1.559536e+01 1.435955e+01
      vertex   5.080000e+00 1.575575e+01 -3.820198e+00
      vertex   5.080000e+00 2.045597e+01 -8.582698e+00
    endloop
  endfacet
  facet normal 1.000000e+00 0.000000e+00 0.000000e+00
    outer loop
      vertex   5.080000e+00 2.045597e+01 -8.582698e+00
      vertex   5.080000e+00 1.575575e+01 -3.820198e+00
      vertex   5.080000e+00 1.596321e+01 -4.348796e+00
    endloop
  endfacet
  facet normal 1.000000e+00 0.000000e+00 0.000000e+00
    outer loop
      vertex   5.080000e+00 2.045597e+01 -8.582698e+00
      vertex   5.080000e+00 1.596321e+01 -4.348796e+00
      vertex   5.080000e+00 1.600565e+01 -4.915059e+00
    endloop
  endfacet
  facet normal 1.000000e+00 0.000000e+00 0.000000e+00
    outer loop
      vertex   5.080000e+00 1.600565e+01 -4.915059e+00
      vertex   5.080000e+00 1.587929e+01 -5.468673e+00
      vertex   5.080000e+00 2.045597e+01 -8.582698e+00
    endloop
  endfacet
  facet normal 1.000000e+00 0.000000e+00 0.000000e+00
    outer loop
      vertex   5.080000e+00 2.045597e+01 -8.582698e+00
      vertex   5.080000e+00 1.587929e+01 -5.468673e+00
      vertex   5.080000e+00 1.559536e+01 -5.960446e+00
    endloop
  endfacet
  facet normal 1.000000e+00 0.000000e+00 0.000000e+00
    outer loop
      vertex   5.080000e+00 2.045597e+01 -8.582698e+00
      vertex   5.080000e+00 1.559536e+01 -5.960446e+00
      vertex   5.080000e+00 1.517910e+01 -6.346683e+00
    endloop
  endfacet
  facet normal 1.000000e+00 0.000000e+00 0.000000e+00
    outer loop
      vertex   5.080000e+00 1.517910e+01 -6.346683e+00
      vertex   5.080000e+00 1.466748e+01 -6.593064e+00
      vertex   5.080000e+00 2.045597e+01 -8.582698e+00
    endloop
  endfacet
  facet normal 1.000000e+00 -0.000000e+00 0.000000e+00
    outer loop
      vertex   5.080000e+00 1.438990e+01 1.743102e+01
      vertex   5.080000e+00 1.493252e+01 1.726365e+01
      vertex   5.080000e+00 2.045597e+01 2.189730e+01
    endloop
  endfacet
  facet normal 1.000000e+00 0.000000e+00 0.000000e+00
    outer loop
      vertex   5.080000e+00 2.045597e+01 2.189730e+01
      vertex   5.080000e+00 1.493252e+01 1.726365e+01
      vertex   5.080000e+00 1.540170e+01 1.694377e+01
    endloop
  endfacet
  facet normal 1.000000e+00 0.000000e+00 0.000000e+00
    outer loop
      vertex   5.080000e+00 2.045597e+01 2.189730e+01
      vertex   5.080000e+00 1.540170e+01 1.694377e+01
      vertex   5.080000e+00 1.575575e+01 1.649980e+01
    endloop
  endfacet
  facet normal 1.000000e+00 -0.000000e+00 0.000000e+00
    outer loop
      vertex   5.080000e+00 1.575575e+01 1.649980e+01
      vertex   5.080000e+00 1.596321e+01 1.597120e+01
      vertex   5.080000e+00 2.045597e+01 2.189730e+01
    endloop
  endfacet
  facet normal 1.000000e+00 0.000000e+00 0.000000e+00
    outer loop
      vertex   5.080000e+00 2.045597e+01 2.189730e+01
      vertex   5.080000e+00 1.596321e+01 1.597120e+01
      vertex   5.080000e+00 1.600565e+01 1.540494e+01
    endloop
  endfacet
  facet normal 1.000000e+00 0.000000e+00 0.000000e+00
    outer loop
      vertex   5.080000e+00 2.045597e+01 2.189730e+01
      vertex   5.080000e+00 1.600565e+01 1.540494e+01
      vertex   5.080000e+00 1.587929e+01 1.485133e+01
    endloop
  endfacet
  facet normal 1.000000e+00 0.000000e+00 0.000000e+00
    outer loop
      vertex   5.080000e+00 2.045597e+01 2.189730e+01
      vertex   5.080000e+00 1.587929e+01 1.485133e+01
      vertex   5.080000e+00 2.045597e+01 -8.582698e+00
    endloop
  endfacet
  facet normal 1.000000e+00 0.000000e+00 0.000000e+00
    outer loop
      vertex   5.080000e+00 2.045597e+01 -8.582698e+00
      vertex   5.080000e+00 1.587929e+01 1.485133e+01
      vertex   5.080000e+00 1.559536e+01 1.435955e+01
    endloop
  endfacet
  facet normal -1.000000e+00 0.000000e+00 0.000000e+00
    outer loop
      vertex   0.000000e+00 -5.652517e+00 1.736767e+01
      vertex   0.000000e+00 -6.214026e+00 1.745230e+01
      vertex   0.000000e+00 -1.256403e+01 2.189730e+01
    endloop
  endfacet
  facet normal -1.000000e+00 0.000000e+00 0.000000e+00
    outer loop
      vertex   0.000000e+00 -1.256403e+01 2.189730e+01
      vertex   0.000000e+00 -6.214026e+00 1.745230e+01
      vertex   0.000000e+00 -6.775535e+00 1.736767e+01
    endloop
  endfacet
  facet normal -1.000000e+00 0.000000e+00 0.000000e+00
    outer loop
      vertex   0.000000e+00 -1.256403e+01 2.189730e+01
      vertex   0.000000e+00 -6.775535e+00 1.736767e+01
      vertex   0.000000e+00 -7.287151e+00 1.712129e+01
    endloop
  endfacet
  facet normal -1.000000e+00 -0.000000e+00 0.000000e+00
    outer loop
      vertex   0.000000e+00 -7.287151e+00 1.712129e+01
      vertex   0.000000e+00 -7.703415e+00 1.673505e+01
      vertex   0.000000e+00 -1.256403e+01 2.189730e+01
    endloop
  endfacet
  facet normal -1.000000e+00 0.000000e+00 0.000000e+00
    outer loop
      vertex   0.000000e+00 -1.256403e+01 2.189730e+01
      vertex   0.000000e+00 -7.703415e+00 1.673505e+01
      vertex   0.000000e+00 -7.987341e+00 1.624328e+01
    endloop
  endfacet
  facet normal -1.000000e+00 0.000000e+00 0.000000e+00
    outer loop
      vertex   0.000000e+00 -1.256403e+01 2.189730e+01
      vertex   0.000000e+00 -7.987341e+00 1.624328e+01
      vertex   0.000000e+00 -8.113699e+00 1.568966e+01
    endloop
  endfacet
  facet normal -1.000000e+00 -0.000000e+00 -0.000000e+00
    outer loop
      vertex   0.000000e+00 -8.113699e+00 1.568966e+01
      vertex   0.000000e+00 -8.071263e+00 1.512340e+01
      vertex   0.000000e+00 -1.256403e+01 2.189730e+01
    endloop
  endfacet
  facet normal -1.000000e+00 0.000000e+00 0.000000e+00
    outer loop
      vertex   0.000000e+00 -1.256403e+01 2.189730e+01
      vertex   0.000000e+00 -8.071263e+00 1.512340e+01
      vertex   0.000000e+00 -7.863804e+00 1.459480e+01
    endloop
  endfacet
  facet normal -1.000000e+00 0.000000e+00 0.000000e+00
    outer loop
      vertex   0.000000e+00 -1.256403e+01 2.189730e+01
      vertex   0.000000e+00 -7.863804e+00 1.459480e+01
      vertex   0.000000e+00 -1.256403e+01 -8.582698e+00
    endloop
  endfacet
  facet normal -1.000000e+00 0.000000e+00 0.000000e+00
    outer loop
      vertex   0.000000e+00 -1.256403e+01 -8.582698e+00
      vertex   0.000000e+00 -7.863804e+00 1.459480e+01
      vertex   0.000000e+00 -7.703415e+00 -3.584950e+00
    endloop
  endfacet
  facet normal -1.000000e+00 0.000000e+00 0.000000e+00
    outer loop
      vertex   0.000000e+00 -1.256403e+01 -8.582698e+00
      vertex   0.000000e+00 -7.703415e+00 -3.584950e+00
      vertex   0.000000e+00 -7.987341e+00 -4.076723e+00
    endloop
  endfacet
  facet normal -1.000000e+00 0.000000e+00 0.000000e+00
    outer loop
      vertex   0.000000e+00 -7.863804e+00 1.459480e+01
      vertex   0.000000e+00 -7.509755e+00 1.415084e+01
      vertex   0.000000e+00 -7.703415e+00 -3.584950e+00
    endloop
  endfacet
  facet normal -1.000000e+00 0.000000e+00 0.000000e+00
    outer loop
      vertex   0.000000e+00 -7.703415e+00 -3.584950e+00
      vertex   0.000000e+00 -7.509755e+00 1.415084e+01
      vertex   0.000000e+00 -7.287151e+00 -3.198713e+00
    endloop
  endfacet
  facet normal -1.000000e+00 0.000000e+00 0.000000e+00
    outer loop
      vertex   0.000000e+00 -7.287151e+00 -3.198713e+00
      vertex   0.000000e+00 -7.509755e+00 1.415084e+01
      vertex   0.000000e+00 -7.040575e+00 1.383096e+01
    endloop
  endfacet
  facet normal -1.000000e+00 0.000000e+00 0.000000e+00
    outer loop
      vertex   0.000000e+00 -7.287151e+00 -3.198713e+00
      vertex   0.000000e+00 -7.040575e+00 1.383096e+01
      vertex   0.000000e+00 -6.775535e+00 -2.952332e+00
    endloop
  endfacet
  facet normal -1.000000e+00 0.000000e+00 0.000000e+00
    outer loop
      vertex   0.000000e+00 -6.775535e+00 -2.952332e+00
      vertex   0.000000e+00 -7.040575e+00 1.383096e+01
      vertex   0.000000e+00 -6.497952e+00 1.366358e+01
    endloop
  endfacet
  facet normal -1.000000e+00 0.000000e+00 0.000000e+00
    outer loop
      vertex   0.000000e+00 -6.775535e+00 -2.952332e+00
      vertex   0.000000e+00 -6.497952e+00 1.366358e+01
      vertex   0.000000e+00 -6.214026e+00 -2.867698e+00
    endloop
  endfacet
  facet normal -1.000000e+00 0.000000e+00 0.000000e+00
    outer loop
      vertex   0.000000e+00 -6.214026e+00 -2.867698e+00
      vertex   0.000000e+00 -6.497952e+00 1.366358e+01
      vertex   0.000000e+00 -5.930101e+00 1.366358e+01
    endloop
  endfacet
  facet normal -1.000000e+00 0.000000e+00 0.000000e+00
    outer loop
      vertex   0.000000e+00 -6.214026e+00 -2.867698e+00
      vertex   0.000000e+00 -5.930101e+00 1.366358e+01
      vertex   0.000000e+00 -5.652517e+00 -2.952332e+00
    endloop
  endfacet
  facet normal -1.000000e+00 0.000000e+00 0.000000e+00
    outer loop
      vertex   0.000000e+00 -5.652517e+00 -2.952332e+00
      vertex   0.000000e+00 -5.930101e+00 1.366358e+01
      vertex   0.000000e+00 -5.387477e+00 1.383096e+01
    endloop
  endfacet
  facet normal -1.000000e+00 0.000000e+00 0.000000e+00
    outer loop
      vertex   0.000000e+00 -5.652517e+00 -2.952332e+00
      vertex   0.000000e+00 -5.387477e+00 1.383096e+01
      vertex   0.000000e+00 -5.140901e+00 -3.198713e+00
    endloop
  endfacet
  facet normal -1.000000e+00 0.000000e+00 0.000000e+00
    outer loop
      vertex   0.000000e+00 -5.140901e+00 -3.198713e+00
      vertex   0.000000e+00 -5.387477e+00 1.383096e+01
      vertex   0.000000e+00 -4.918297e+00 1.415084e+01
    endloop
  endfacet
  facet normal -1.000000e+00 0.000000e+00 0.000000e+00
    outer loop
      vertex   0.000000e+00 -5.140901e+00 -3.198713e+00
      vertex   0.000000e+00 -4.918297e+00 1.415084e+01
      vertex   0.000000e+00 1.303285e+01 -3.198713e+00
    endloop
  endfacet
  facet normal -1.000000e+00 0.000000e+00 0.000000e+00
    outer loop
      vertex   0.000000e+00 1.303285e+01 -3.198713e+00
      vertex   0.000000e+00 -4.918297e+00 1.415084e+01
      vertex   0.000000e+00 1.281024e+01 1.415084e+01
    endloop
  endfacet
  facet normal -1.000000e+00 0.000000e+00 0.000000e+00
    outer loop
      vertex   0.000000e+00 1.303285e+01 -3.198713e+00
      vertex   0.000000e+00 1.281024e+01 1.415084e+01
      vertex   0.000000e+00 1.327943e+01 1.383096e+01
    endloop
  endfacet
  facet normal -1.000000e+00 0.000000e+00 0.000000e+00
    outer loop
      vertex   0.000000e+00 1.281024e+01 1.415084e+01
      vertex   0.000000e+00 -4.918297e+00 1.415084e+01
      vertex   0.000000e+00 1.245620e+01 1.459480e+01
    endloop
  endfacet
  facet normal -1.000000e+00 -0.000000e+00 0.000000e+00
    outer loop
      vertex   0.000000e+00 1.245620e+01 1.459480e+01
      vertex   0.000000e+00 -4.918297e+00 1.415084e+01
      vertex   0.000000e+00 -4.564247e+00 1.459480e+01
    endloop
  endfacet
  facet normal -1.000000e+00 0.000000e+00 0.000000e+00
    outer loop
      vertex   0.000000e+00 1.245620e+01 1.459480e+01
      vertex   0.000000e+00 -4.564247e+00 1.459480e+01
      vertex   0.000000e+00 1.224874e+01 1.512340e+01
    endloop
  endfacet
  facet normal -1.000000e+00 -0.000000e+00 0.000000e+00
    outer loop
      vertex   0.000000e+00 1.224874e+01 1.512340e+01
      vertex   0.000000e+00 -4.564247e+00 1.459480e+01
      vertex   0.000000e+00 -4.356788e+00 1.512340e+01
    endloop
  endfacet
  facet normal -1.000000e+00 0.000000e+00 0.000000e+00
    outer loop
      vertex   0.000000e+00 1.224874e+01 1.512340e+01
      vertex   0.000000e+00 -4.356788e+00 1.512340e+01
      vertex   0.000000e+00 1.220630e+01 1.568966e+01
    endloop
  endfacet
  facet normal -1.000000e+00 -0.000000e+00 0.000000e+00
    outer loop
      vertex   0.000000e+00 1.220630e+01 1.568966e+01
      vertex   0.000000e+00 -4.356788e+00 1.512340e+01
      vertex   0.000000e+00 -4.314353e+00 1.568966e+01
    endloop
  endfacet
  facet normal -1.000000e+00 0.000000e+00 0.000000e+00
    outer loop
      vertex   0.000000e+00 1.220630e+01 1.568966e+01
      vertex   0.000000e+00 -4.314353e+00 1.568966e+01
      vertex   0.000000e+00 -4.440711e+00 1.624328e+01
    endloop
  endfacet
  facet normal -1.000000e+00 0.000000e+00 0.000000e+00
    outer loop
      vertex   0.000000e+00 1.220630e+01 1.568966e+01
      vertex   0.000000e+00 -4.440711e+00 1.624328e+01
      vertex   0.000000e+00 1.233266e+01 1.624328e+01
    endloop
  endfacet
  facet normal -1.000000e+00 0.000000e+00 0.000000e+00
    outer loop
      vertex   0.000000e+00 1.233266e+01 1.624328e+01
      vertex   0.000000e+00 -4.440711e+00 1.624328e+01
      vertex   0.000000e+00 -4.724637e+00 1.673505e+01
    endloop
  endfacet
  facet normal -1.000000e+00 0.000000e+00 0.000000e+00
    outer loop
      vertex   0.000000e+00 1.233266e+01 1.624328e+01
      vertex   0.000000e+00 -4.724637e+00 1.673505e+01
      vertex   0.000000e+00 1.261659e+01 1.673505e+01
    endloop
  endfacet
  facet normal -1.000000e+00 0.000000e+00 0.000000e+00
    outer loop
      vertex   0.000000e+00 1.261659e+01 1.673505e+01
      vertex   0.000000e+00 -4.724637e+00 1.673505e+01
      vertex   0.000000e+00 -5.140901e+00 1.712129e+01
    endloop
  endfacet
  facet normal -1.000000e+00 0.000000e+00 0.000000e+00
    outer loop
      vertex   0.000000e+00 1.261659e+01 1.673505e+01
      vertex   0.000000e+00 -5.140901e+00 1.712129e+01
      vertex   0.000000e+00 1.303285e+01 1.712129e+01
    endloop
  endfacet
  facet normal -1.000000e+00 0.000000e+00 0.000000e+00
    outer loop
      vertex   0.000000e+00 1.303285e+01 1.712129e+01
      vertex   0.000000e+00 -5.140901e+00 1.712129e+01
      vertex   0.000000e+00 1.354447e+01 1.736767e+01
    endloop
  endfacet
  facet normal -1.000000e+00 -0.000000e+00 0.000000e+00
    outer loop
      vertex   0.000000e+00 1.354447e+01 1.736767e+01
      vertex   0.000000e+00 -5.140901e+00 1.712129e+01
      vertex   0.000000e+00 -5.652517e+00 1.736767e+01
    endloop
  endfacet
  facet normal -1.000000e+00 0.000000e+00 0.000000e+00
    outer loop
      vertex   0.000000e+00 1.354447e+01 1.736767e+01
      vertex   0.000000e+00 -5.652517e+00 1.736767e+01
      vertex   0.000000e+00 -1.256403e+01 2.189730e+01
    endloop
  endfacet
  facet normal -1.000000e+00 0.000000e+00 0.000000e+00
    outer loop
      vertex   0.000000e+00 1.354447e+01 -2.952332e+00
      vertex   0.000000e+00 1.382205e+01 1.366358e+01
      vertex   0.000000e+00 1.410597e+01 -2.867698e+00
    endloop
  endfacet
  facet normal -1.000000e+00 0.000000e+00 0.000000e+00
    outer loop
      vertex   0.000000e+00 1.410597e+01 -2.867698e+00
      vertex   0.000000e+00 1.382205e+01 1.366358e+01
      vertex   0.000000e+00 1.438990e+01 1.366358e+01
    endloop
  endfacet
  facet normal -1.000000e+00 0.000000e+00 0.000000e+00
    outer loop
      vertex   0.000000e+00 1.410597e+01 -2.867698e+00
      vertex   0.000000e+00 1.438990e+01 1.366358e+01
      vertex   0.000000e+00 1.466748e+01 -2.952332e+00
    endloop
  endfacet
  facet normal -1.000000e+00 0.000000e+00 0.000000e+00
    outer loop
      vertex   0.000000e+00 1.466748e+01 -2.952332e+00
      vertex   0.000000e+00 1.438990e+01 1.366358e+01
      vertex   0.000000e+00 1.493252e+01 1.383096e+01
    endloop
  endfacet
  facet normal -1.000000e+00 0.000000e+00 0.000000e+00
    outer loop
      vertex   0.000000e+00 1.466748e+01 -2.952332e+00
      vertex   0.000000e+00 1.493252e+01 1.383096e+01
      vertex   0.000000e+00 1.517910e+01 -3.198713e+00
    endloop
  endfacet
  facet normal -1.000000e+00 0.000000e+00 0.000000e+00
    outer loop
      vertex   0.000000e+00 1.517910e+01 -3.198713e+00
      vertex   0.000000e+00 1.493252e+01 1.383096e+01
      vertex   0.000000e+00 1.540170e+01 1.415084e+01
    endloop
  endfacet
  facet normal -1.000000e+00 0.000000e+00 0.000000e+00
    outer loop
      vertex   0.000000e+00 1.517910e+01 -3.198713e+00
      vertex   0.000000e+00 1.540170e+01 1.415084e+01
      vertex   0.000000e+00 1.559536e+01 -3.584950e+00
    endloop
  endfacet
  facet normal -1.000000e+00 0.000000e+00 0.000000e+00
    outer loop
      vertex   0.000000e+00 1.559536e+01 -3.584950e+00
      vertex   0.000000e+00 1.540170e+01 1.415084e+01
      vertex   0.000000e+00 1.575575e+01 1.459480e+01
    endloop
  endfacet
  facet normal -1.000000e+00 0.000000e+00 0.000000e+00
    outer loop
      vertex   0.000000e+00 1.559536e+01 -3.584950e+00
      vertex   0.000000e+00 1.575575e+01 1.459480e+01
      vertex   0.000000e+00 2.045597e+01 -8.582698e+00
    endloop
  endfacet
  facet normal -1.000000e+00 0.000000e+00 0.000000e+00
    outer loop
      vertex   0.000000e+00 2.045597e+01 -8.582698e+00
      vertex   0.000000e+00 1.575575e+01 1.459480e+01
      vertex   0.000000e+00 2.045597e+01 2.189730e+01
    endloop
  endfacet
  facet normal -1.000000e+00 0.000000e+00 0.000000e+00
    outer loop
      vertex   0.000000e+00 2.045597e+01 2.189730e+01
      vertex   0.000000e+00 1.575575e+01 1.459480e+01
      vertex   0.000000e+00 1.596321e+01 1.512340e+01
    endloop
  endfacet
  facet normal -1.000000e+00 0.000000e+00 0.000000e+00
    outer loop
      vertex   0.000000e+00 2.045597e+01 2.189730e+01
      vertex   0.000000e+00 1.596321e+01 1.512340e+01
      vertex   0.000000e+00 1.600565e+01 1.568966e+01
    endloop
  endfacet
  facet normal -1.000000e+00 -0.000000e+00 0.000000e+00
    outer loop
      vertex   0.000000e+00 1.382205e+01 1.366358e+01
      vertex   0.000000e+00 1.354447e+01 -2.952332e+00
      vertex   0.000000e+00 1.327943e+01 1.383096e+01
    endloop
  endfacet
  facet normal -1.000000e+00 0.000000e+00 -0.000000e+00
    outer loop
      vertex   0.000000e+00 1.327943e+01 1.383096e+01
      vertex   0.000000e+00 1.354447e+01 -2.952332e+00
      vertex   0.000000e+00 1.303285e+01 -3.198713e+00
    endloop
  endfacet
  facet normal -1.000000e+00 -0.000000e+00 0.000000e+00
    outer loop
      vertex   0.000000e+00 1.303285e+01 -3.198713e+00
      vertex   0.000000e+00 1.261659e+01 -3.584950e+00
      vertex   0.000000e+00 -5.140901e+00 -3.198713e+00
    endloop
  endfacet
  facet normal -1.000000e+00 0.000000e+00 0.000000e+00
    outer loop
      vertex   0.000000e+00 -5.140901e+00 -3.198713e+00
      vertex   0.000000e+00 1.261659e+01 -3.584950e+00
      vertex   0.000000e+00 -4.724637e+00 -3.584950e+00
    endloop
  endfacet
  facet normal -1.000000e+00 0.000000e+00 0.000000e+00
    outer loop
      vertex   0.000000e+00 -4.724637e+00 -3.584950e+00
      vertex   0.000000e+00 1.261659e+01 -3.584950e+00
      vertex   0.000000e+00 1.233266e+01 -4.076723e+00
    endloop
  endfacet
  facet normal -1.000000e+00 0.000000e+00 0.000000e+00
    outer loop
      vertex   0.000000e+00 -4.724637e+00 -3.584950e+00
      vertex   0.000000e+00 1.233266e+01 -4.076723e+00
      vertex   0.000000e+00 -4.440711e+00 -4.076723e+00
    endloop
  endfacet
  facet normal -1.000000e+00 0.000000e+00 0.000000e+00
    outer loop
      vertex   0.000000e+00 -4.440711e+00 -4.076723e+00
      vertex   0.000000e+00 1.233266e+01 -4.076723e+00
      vertex   0.000000e+00 1.220630e+01 -4.630337e+00
    endloop
  endfacet
  facet normal -1.000000e+00 0.000000e+00 0.000000e+00
    outer loop
      vertex   0.000000e+00 -4.440711e+00 -4.076723e+00
      vertex   0.000000e+00 1.220630e+01 -4.630337e+00
      vertex   0.000000e+00 -4.314353e+00 -4.630337e+00
    endloop
  endfacet
  facet normal -1.000000e+00 0.000000e+00 -0.000000e+00
    outer loop
      vertex   0.000000e+00 -4.314353e+00 -4.630337e+00
      vertex   0.000000e+00 1.220630e+01 -4.630337e+00
      vertex   0.000000e+00 -4.356788e+00 -5.196601e+00
    endloop
  endfacet
  facet normal -1.000000e+00 0.000000e+00 0.000000e+00
    outer loop
      vertex   0.000000e+00 -4.356788e+00 -5.196601e+00
      vertex   0.000000e+00 1.220630e+01 -4.630337e+00
      vertex   0.000000e+00 1.224874e+01 -5.196601e+00
    endloop
  endfacet
  facet normal -1.000000e+00 0.000000e+00 -0.000000e+00
    outer loop
      vertex   0.000000e+00 -4.356788e+00 -5.196601e+00
      vertex   0.000000e+00 1.224874e+01 -5.196601e+00
      vertex   0.000000e+00 -4.564247e+00 -5.725198e+00
    endloop
  endfacet
  facet normal -1.000000e+00 0.000000e+00 0.000000e+00
    outer loop
      vertex   0.000000e+00 -4.564247e+00 -5.725198e+00
      vertex   0.000000e+00 1.224874e+01 -5.196601e+00
      vertex   0.000000e+00 1.245620e+01 -5.725198e+00
    endloop
  endfacet
  facet normal -1.000000e+00 0.000000e+00 -0.000000e+00
    outer loop
      vertex   0.000000e+00 -4.564247e+00 -5.725198e+00
      vertex   0.000000e+00 1.245620e+01 -5.725198e+00
      vertex   0.000000e+00 -4.918297e+00 -6.169162e+00
    endloop
  endfacet
  facet normal -1.000000e+00 0.000000e+00 0.000000e+00
    outer loop
      vertex   0.000000e+00 -4.918297e+00 -6.169162e+00
      vertex   0.000000e+00 1.245620e+01 -5.725198e+00
      vertex   0.000000e+00 1.281024e+01 -6.169162e+00
    endloop
  endfacet
  facet normal -1.000000e+00 0.000000e+00 -0.000000e+00
    outer loop
      vertex   0.000000e+00 -4.918297e+00 -6.169162e+00
      vertex   0.000000e+00 1.281024e+01 -6.169162e+00
      vertex   0.000000e+00 -5.387477e+00 -6.489044e+00
    endloop
  endfacet
  facet normal -1.000000e+00 0.000000e+00 0.000000e+00
    outer loop
      vertex   0.000000e+00 -5.387477e+00 -6.489044e+00
      vertex   0.000000e+00 1.281024e+01 -6.169162e+00
      vertex   0.000000e+00 1.327943e+01 -6.489044e+00
    endloop
  endfacet
  facet normal -1.000000e+00 0.000000e+00 -0.000000e+00
    outer loop
      vertex   0.000000e+00 -5.387477e+00 -6.489044e+00
      vertex   0.000000e+00 1.327943e+01 -6.489044e+00
      vertex   0.000000e+00 -5.930101e+00 -6.656421e+00
    endloop
  endfacet
  facet normal -1.000000e+00 0.000000e+00 0.000000e+00
    outer loop
      vertex   0.000000e+00 -5.930101e+00 -6.656421e+00
      vertex   0.000000e+00 1.327943e+01 -6.489044e+00
      vertex   0.000000e+00 1.382205e+01 -6.656421e+00
    endloop
  endfacet
  facet normal -1.000000e+00 0.000000e+00 -0.000000e+00
    outer loop
      vertex   0.000000e+00 -5.930101e+00 -6.656421e+00
      vertex   0.000000e+00 1.382205e+01 -6.656421e+00
      vertex   0.000000e+00 -1.256403e+01 -8.582698e+00
    endloop
  endfacet
  facet normal -1.000000e+00 0.000000e+00 0.000000e+00
    outer loop
      vertex   0.000000e+00 -1.256403e+01 -8.582698e+00
      vertex   0.000000e+00 1.382205e+01 -6.656421e+00
      vertex   0.000000e+00 2.045597e+01 -8.582698e+00
    endloop
  endfacet
  facet normal -1.000000e+00 0.000000e+00 0.000000e+00
    outer loop
      vertex   0.000000e+00 2.045597e+01 -8.582698e+00
      vertex   0.000000e+00 1.382205e+01 -6.656421e+00
      vertex   0.000000e+00 1.438990e+01 -6.656421e+00
    endloop
  endfacet
  facet normal -1.000000e+00 0.000000e+00 0.000000e+00
    outer loop
      vertex   0.000000e+00 2.045597e+01 -8.582698e+00
      vertex   0.000000e+00 1.438990e+01 -6.656421e+00
      vertex   0.000000e+00 1.493252e+01 -6.489044e+00
    endloop
  endfacet
  facet normal -1.000000e+00 0.000000e+00 0.000000e+00
    outer loop
      vertex   0.000000e+00 1.493252e+01 -6.489044e+00
      vertex   0.000000e+00 1.540170e+01 -6.169162e+00
      vertex   0.000000e+00 2.045597e+01 -8.582698e+00
    endloop
  endfacet
  facet normal -1.000000e+00 0.000000e+00 0.000000e+00
    outer loop
      vertex   0.000000e+00 2.045597e+01 -8.582698e+00
      vertex   0.000000e+00 1.540170e+01 -6.169162e+00
      vertex   0.000000e+00 1.575575e+01 -5.725198e+00
    endloop
  endfacet
  facet normal -1.000000e+00 0.000000e+00 0.000000e+00
    outer loop
      vertex   0.000000e+00 2.045597e+01 -8.582698e+00
      vertex   0.000000e+00 1.575575e+01 -5.725198e+00
      vertex   0.000000e+00 1.596321e+01 -5.196601e+00
    endloop
  endfacet
  facet normal -1.000000e+00 0.000000e+00 0.000000e+00
    outer loop
      vertex   0.000000e+00 1.596321e+01 -5.196601e+00
      vertex   0.000000e+00 1.600565e+01 -4.630337e+00
      vertex   0.000000e+00 2.045597e+01 -8.582698e+00
    endloop
  endfacet
  facet normal -1.000000e+00 0.000000e+00 0.000000e+00
    outer loop
      vertex   0.000000e+00 2.045597e+01 -8.582698e+00
      vertex   0.000000e+00 1.600565e+01 -4.630337e+00
      vertex   0.000000e+00 1.587929e+01 -4.076723e+00
    endloop
  endfacet
  facet normal -1.000000e+00 0.000000e+00 0.000000e+00
    outer loop
      vertex   0.000000e+00 2.045597e+01 -8.582698e+00
      vertex   0.000000e+00 1.587929e+01 -4.076723e+00
      vertex   0.000000e+00 1.559536e+01 -3.584950e+00
    endloop
  endfacet
  facet normal -1.000000e+00 0.000000e+00 0.000000e+00
    outer loop
      vertex   0.000000e+00 1.466748e+01 1.736767e+01
      vertex   0.000000e+00 1.410597e+01 1.745230e+01
      vertex   0.000000e+00 2.045597e+01 2.189730e+01
    endloop
  endfacet
  facet normal -1.000000e+00 0.000000e+00 0.000000e+00
    outer loop
      vertex   0.000000e+00 2.045597e+01 2.189730e+01
      vertex   0.000000e+00 1.410597e+01 1.745230e+01
      vertex   0.000000e+00 1.354447e+01 1.736767e+01
    endloop
  endfacet
  facet normal -1.000000e+00 -0.000000e+00 0.000000e+00
    outer loop
      vertex   0.000000e+00 2.045597e+01 2.189730e+01
      vertex   0.000000e+00 1.354447e+01 1.736767e+01
      vertex   0.000000e+00 -1.256403e+01 2.189730e+01
    endloop
  endfacet
  facet normal -1.000000e+00 0.000000e+00 0.000000e+00
    outer loop
      vertex   0.000000e+00 1.600565e+01 1.568966e+01
      vertex   0.000000e+00 1.587929e+01 1.624328e+01
      vertex   0.000000e+00 2.045597e+01 2.189730e+01
    endloop
  endfacet
  facet normal -1.000000e+00 0.000000e+00 0.000000e+00
    outer loop
      vertex   0.000000e+00 2.045597e+01 2.189730e+01
      vertex   0.000000e+00 1.587929e+01 1.624328e+01
      vertex   0.000000e+00 1.559536e+01 1.673505e+01
    endloop
  endfacet
  facet normal -1.000000e+00 0.000000e+00 0.000000e+00
    outer loop
      vertex   0.000000e+00 2.045597e+01 2.189730e+01
      vertex   0.000000e+00 1.559536e+01 1.673505e+01
      vertex   0.000000e+00 1.517910e+01 1.712129e+01
    endloop
  endfacet
  facet normal -1.000000e+00 0.000000e+00 0.000000e+00
    outer loop
      vertex   0.000000e+00 1.517910e+01 1.712129e+01
      vertex   0.000000e+00 1.466748e+01 1.736767e+01
      vertex   0.000000e+00 2.045597e+01 2.189730e+01
    endloop
  endfacet
  facet normal -1.000000e+00 0.000000e+00 0.000000e+00
    outer loop
      vertex   0.000000e+00 -7.987341e+00 -4.076723e+00
      vertex   0.000000e+00 -8.113699e+00 -4.630337e+00
      vertex   0.000000e+00 -1.256403e+01 -8.582698e+00
    endloop
  endfacet
  facet normal -1.000000e+00 0.000000e+00 0.000000e+00
    outer loop
      vertex   0.000000e+00 -1.256403e+01 -8.582698e+00
      vertex   0.000000e+00 -8.113699e+00 -4.630337e+00
      vertex   0.000000e+00 -8.071263e+00 -5.196601e+00
    endloop
  endfacet
  facet normal -1.000000e+00 0.000000e+00 0.000000e+00
    outer loop
      vertex   0.000000e+00 -1.256403e+01 -8.582698e+00
      vertex   0.000000e+00 -8.071263e+00 -5.196601e+00
      vertex   0.000000e+00 -7.863804e+00 -5.725198e+00
    endloop
  endfacet
  facet normal -1.000000e+00 0.000000e+00 -0.000000e+00
    outer loop
      vertex   0.000000e+00 -7.863804e+00 -5.725198e+00
      vertex   0.000000e+00 -7.509755e+00 -6.169162e+00
      vertex   0.000000e+00 -1.256403e+01 -8.582698e+00
    endloop
  endfacet
  facet normal -1.000000e+00 0.000000e+00 0.000000e+00
    outer loop
      vertex   0.000000e+00 -1.256403e+01 -8.582698e+00
      vertex   0.000000e+00 -7.509755e+00 -6.169162e+00
      vertex   0.000000e+00 -7.040575e+00 -6.489044e+00
    endloop
  endfacet
  facet normal -1.000000e+00 0.000000e+00 0.000000e+00
    outer loop
      vertex   0.000000e+00 -1.256403e+01 -8.582698e+00
      vertex   0.000000e+00 -7.040575e+00 -6.489044e+00
      vertex   0.000000e+00 -6.497952e+00 -6.656421e+00
    endloop
  endfacet
  facet normal -1.000000e+00 0.000000e+00 -0.000000e+00
    outer loop
      vertex   0.000000e+00 -6.497952e+00 -6.656421e+00
      vertex   0.000000e+00 -5.930101e+00 -6.656421e+00
      vertex   0.000000e+00 -1.256403e+01 -8.582698e+00
    endloop
  endfacet
endsolid
