solid ASCII
  facet normal 0.000000e+00 -1.205382e-01 -9.927087e-01
    outer loop
      vertex   0.000000e+00 7.362141e+00 1.662609e+01
      vertex   6.858000e+00 7.362141e+00 1.662609e+01
      vertex   0.000000e+00 6.982228e+00 1.667222e+01
    endloop
  endfacet
  facet normal 0.000000e+00 -1.205382e-01 -9.927087e-01
    outer loop
      vertex   0.000000e+00 6.982228e+00 1.667222e+01
      vertex   6.858000e+00 7.362141e+00 1.662609e+01
      vertex   6.858000e+00 6.982228e+00 1.667222e+01
    endloop
  endfacet
  facet normal 0.000000e+00 1.205380e-01 -9.927087e-01
    outer loop
      vertex   0.000000e+00 6.982228e+00 1.667222e+01
      vertex   6.858000e+00 6.982228e+00 1.667222e+01
      vertex   0.000000e+00 6.602314e+00 1.662609e+01
    endloop
  endfacet
  facet normal 0.000000e+00 1.205380e-01 -9.927087e-01
    outer loop
      vertex   0.000000e+00 6.602314e+00 1.662609e+01
      vertex   6.858000e+00 6.982228e+00 1.667222e+01
      vertex   6.858000e+00 6.602314e+00 1.662609e+01
    endloop
  endfacet
  facet normal 0.000000e+00 3.546060e-01 -9.350158e-01
    outer loop
      vertex   0.000000e+00 6.602314e+00 1.662609e+01
      vertex   6.858000e+00 6.602314e+00 1.662609e+01
      vertex   0.000000e+00 6.244479e+00 1.649038e+01
    endloop
  endfacet
  facet normal 0.000000e+00 3.546060e-01 -9.350158e-01
    outer loop
      vertex   0.000000e+00 6.244479e+00 1.649038e+01
      vertex   6.858000e+00 6.602314e+00 1.662609e+01
      vertex   6.858000e+00 6.244479e+00 1.649038e+01
    endloop
  endfacet
  facet normal 0.000000e+00 5.680649e-01 -8.229838e-01
    outer loop
      vertex   0.000000e+00 6.244479e+00 1.649038e+01
      vertex   6.858000e+00 6.244479e+00 1.649038e+01
      vertex   0.000000e+00 5.929520e+00 1.627298e+01
    endloop
  endfacet
  facet normal 0.000000e+00 5.680649e-01 -8.229838e-01
    outer loop
      vertex   0.000000e+00 5.929520e+00 1.627298e+01
      vertex   6.858000e+00 6.244479e+00 1.649038e+01
      vertex   6.858000e+00 5.929520e+00 1.627298e+01
    endloop
  endfacet
  facet normal 0.000000e+00 7.485099e-01 -6.631236e-01
    outer loop
      vertex   0.000000e+00 5.929520e+00 1.627298e+01
      vertex   6.858000e+00 5.929520e+00 1.627298e+01
      vertex   0.000000e+00 5.675740e+00 1.598652e+01
    endloop
  endfacet
  facet normal 0.000000e+00 7.485099e-01 -6.631236e-01
    outer loop
      vertex   0.000000e+00 5.675740e+00 1.598652e+01
      vertex   6.858000e+00 5.929520e+00 1.627298e+01
      vertex   6.858000e+00 5.675740e+00 1.598652e+01
    endloop
  endfacet
  facet normal 0.000000e+00 8.854563e-01 -4.647226e-01
    outer loop
      vertex   0.000000e+00 5.675740e+00 1.598652e+01
      vertex   6.858000e+00 5.675740e+00 1.598652e+01
      vertex   0.000000e+00 5.497889e+00 1.564765e+01
    endloop
  endfacet
  facet normal 0.000000e+00 8.854563e-01 -4.647226e-01
    outer loop
      vertex   0.000000e+00 5.497889e+00 1.564765e+01
      vertex   6.858000e+00 5.675740e+00 1.598652e+01
      vertex   6.858000e+00 5.497889e+00 1.564765e+01
    endloop
  endfacet
  facet normal 0.000000e+00 9.709419e-01 -2.393153e-01
    outer loop
      vertex   0.000000e+00 5.497889e+00 1.564765e+01
      vertex   6.858000e+00 5.497889e+00 1.564765e+01
      vertex   0.000000e+00 5.406302e+00 1.527607e+01
    endloop
  endfacet
  facet normal 0.000000e+00 9.709419e-01 -2.393153e-01
    outer loop
      vertex   0.000000e+00 5.406302e+00 1.527607e+01
      vertex   6.858000e+00 5.497889e+00 1.564765e+01
      vertex   6.858000e+00 5.406302e+00 1.527607e+01
    endloop
  endfacet
  facet normal -0.000000e+00 1.000000e+00 0.000000e+00
    outer loop
      vertex   0.000000e+00 5.406302e+00 1.527607e+01
      vertex   6.858000e+00 5.406302e+00 1.527607e+01
      vertex   0.000000e+00 5.406302e+00 1.489336e+01
    endloop
  endfacet
  facet normal 0.000000e+00 1.000000e+00 0.000000e+00
    outer loop
      vertex   0.000000e+00 5.406302e+00 1.489336e+01
      vertex   6.858000e+00 5.406302e+00 1.527607e+01
      vertex   6.858000e+00 5.406302e+00 1.489336e+01
    endloop
  endfacet
  facet normal -0.000000e+00 9.709419e-01 2.393153e-01
    outer loop
      vertex   0.000000e+00 5.406302e+00 1.489336e+01
      vertex   6.858000e+00 5.406302e+00 1.489336e+01
      vertex   0.000000e+00 5.497889e+00 1.452178e+01
    endloop
  endfacet
  facet normal -0.000000e+00 9.709419e-01 2.393153e-01
    outer loop
      vertex   0.000000e+00 5.497889e+00 1.452178e+01
      vertex   6.858000e+00 5.406302e+00 1.489336e+01
      vertex   6.858000e+00 5.497889e+00 1.452178e+01
    endloop
  endfacet
  facet normal -0.000000e+00 8.854563e-01 4.647226e-01
    outer loop
      vertex   0.000000e+00 5.497889e+00 1.452178e+01
      vertex   6.858000e+00 5.497889e+00 1.452178e+01
      vertex   0.000000e+00 5.675740e+00 1.418291e+01
    endloop
  endfacet
  facet normal -0.000000e+00 8.854563e-01 4.647226e-01
    outer loop
      vertex   0.000000e+00 5.675740e+00 1.418291e+01
      vertex   6.858000e+00 5.497889e+00 1.452178e+01
      vertex   6.858000e+00 5.675740e+00 1.418291e+01
    endloop
  endfacet
  facet normal -0.000000e+00 7.485099e-01 6.631236e-01
    outer loop
      vertex   0.000000e+00 5.675740e+00 1.418291e+01
      vertex   6.858000e+00 5.675740e+00 1.418291e+01
      vertex   0.000000e+00 5.929520e+00 1.389646e+01
    endloop
  endfacet
  facet normal -0.000000e+00 7.485099e-01 6.631236e-01
    outer loop
      vertex   0.000000e+00 5.929520e+00 1.389646e+01
      vertex   6.858000e+00 5.675740e+00 1.418291e+01
      vertex   6.858000e+00 5.929520e+00 1.389646e+01
    endloop
  endfacet
  facet normal -0.000000e+00 5.680649e-01 8.229838e-01
    outer loop
      vertex   0.000000e+00 5.929520e+00 1.389646e+01
      vertex   6.858000e+00 5.929520e+00 1.389646e+01
      vertex   0.000000e+00 6.244479e+00 1.367905e+01
    endloop
  endfacet
  facet normal -0.000000e+00 5.680649e-01 8.229838e-01
    outer loop
      vertex   0.000000e+00 6.244479e+00 1.367905e+01
      vertex   6.858000e+00 5.929520e+00 1.389646e+01
      vertex   6.858000e+00 6.244479e+00 1.367905e+01
    endloop
  endfacet
  facet normal -0.000000e+00 3.546060e-01 9.350158e-01
    outer loop
      vertex   0.000000e+00 6.244479e+00 1.367905e+01
      vertex   6.858000e+00 6.244479e+00 1.367905e+01
      vertex   0.000000e+00 6.602314e+00 1.354335e+01
    endloop
  endfacet
  facet normal -0.000000e+00 3.546060e-01 9.350158e-01
    outer loop
      vertex   0.000000e+00 6.602314e+00 1.354335e+01
      vertex   6.858000e+00 6.244479e+00 1.367905e+01
      vertex   6.858000e+00 6.602314e+00 1.354335e+01
    endloop
  endfacet
  facet normal -0.000000e+00 1.205349e-01 9.927091e-01
    outer loop
      vertex   0.000000e+00 6.602314e+00 1.354335e+01
      vertex   6.858000e+00 6.602314e+00 1.354335e+01
      vertex   0.000000e+00 6.982228e+00 1.349722e+01
    endloop
  endfacet
  facet normal -0.000000e+00 1.205349e-01 9.927091e-01
    outer loop
      vertex   0.000000e+00 6.982228e+00 1.349722e+01
      vertex   6.858000e+00 6.602314e+00 1.354335e+01
      vertex   6.858000e+00 6.982228e+00 1.349722e+01
    endloop
  endfacet
  facet normal 0.000000e+00 -1.205351e-01 9.927091e-01
    outer loop
      vertex   0.000000e+00 6.982228e+00 1.349722e+01
      vertex   6.858000e+00 6.982228e+00 1.349722e+01
      vertex   0.000000e+00 7.362141e+00 1.354335e+01
    endloop
  endfacet
  facet normal 0.000000e+00 -1.205351e-01 9.927091e-01
    outer loop
      vertex   0.000000e+00 7.362141e+00 1.354335e+01
      vertex   6.858000e+00 6.982228e+00 1.349722e+01
      vertex   6.858000e+00 7.362141e+00 1.354335e+01
    endloop
  endfacet
  facet normal 0.000000e+00 -3.546060e-01 9.350158e-01
    outer loop
      vertex   0.000000e+00 7.362141e+00 1.354335e+01
      vertex   6.858000e+00 7.362141e+00 1.354335e+01
      vertex   0.000000e+00 7.719975e+00 1.367905e+01
    endloop
  endfacet
  facet normal 0.000000e+00 -3.546060e-01 9.350158e-01
    outer loop
      vertex   0.000000e+00 7.719975e+00 1.367905e+01
      vertex   6.858000e+00 7.362141e+00 1.354335e+01
      vertex   6.858000e+00 7.719975e+00 1.367905e+01
    endloop
  endfacet
  facet normal 0.000000e+00 -5.680649e-01 8.229838e-01
    outer loop
      vertex   0.000000e+00 7.719975e+00 1.367905e+01
      vertex   6.858000e+00 7.719975e+00 1.367905e+01
      vertex   0.000000e+00 8.034934e+00 1.389646e+01
    endloop
  endfacet
  facet normal 0.000000e+00 -5.680649e-01 8.229838e-01
    outer loop
      vertex   0.000000e+00 8.034934e+00 1.389646e+01
      vertex   6.858000e+00 7.719975e+00 1.367905e+01
      vertex   6.858000e+00 8.034934e+00 1.389646e+01
    endloop
  endfacet
  facet normal 0.000000e+00 -7.485099e-01 6.631236e-01
    outer loop
      vertex   0.000000e+00 8.034934e+00 1.389646e+01
      vertex   6.858000e+00 8.034934e+00 1.389646e+01
      vertex   0.000000e+00 8.288714e+00 1.418291e+01
    endloop
  endfacet
  facet normal 0.000000e+00 -7.485099e-01 6.631236e-01
    outer loop
      vertex   0.000000e+00 8.288714e+00 1.418291e+01
      vertex   6.858000e+00 8.034934e+00 1.389646e+01
      vertex   6.858000e+00 8.288714e+00 1.418291e+01
    endloop
  endfacet
  facet normal 0.000000e+00 -8.854563e-01 4.647226e-01
    outer loop
      vertex   0.000000e+00 8.288714e+00 1.418291e+01
      vertex   6.858000e+00 8.288714e+00 1.418291e+01
      vertex   0.000000e+00 8.466566e+00 1.452178e+01
    endloop
  endfacet
  facet normal 0.000000e+00 -8.854563e-01 4.647226e-01
    outer loop
      vertex   0.000000e+00 8.466566e+00 1.452178e+01
      vertex   6.858000e+00 8.288714e+00 1.418291e+01
      vertex   6.858000e+00 8.466566e+00 1.452178e+01
    endloop
  endfacet
  facet normal 0.000000e+00 -9.709415e-01 2.393168e-01
    outer loop
      vertex   0.000000e+00 8.466566e+00 1.452178e+01
      vertex   6.858000e+00 8.466566e+00 1.452178e+01
      vertex   0.000000e+00 8.558153e+00 1.489336e+01
    endloop
  endfacet
  facet normal 0.000000e+00 -9.709415e-01 2.393168e-01
    outer loop
      vertex   0.000000e+00 8.558153e+00 1.489336e+01
      vertex   6.858000e+00 8.466566e+00 1.452178e+01
      vertex   6.858000e+00 8.558153e+00 1.489336e+01
    endloop
  endfacet
  facet normal 0.000000e+00 -1.000000e+00 0.000000e+00
    outer loop
      vertex   0.000000e+00 8.558153e+00 1.489336e+01
      vertex   6.858000e+00 8.558153e+00 1.489336e+01
      vertex   0.000000e+00 8.558153e+00 1.527607e+01
    endloop
  endfacet
  facet normal 0.000000e+00 -1.000000e+00 0.000000e+00
    outer loop
      vertex   0.000000e+00 8.558153e+00 1.527607e+01
      vertex   6.858000e+00 8.558153e+00 1.489336e+01
      vertex   6.858000e+00 8.558153e+00 1.527607e+01
    endloop
  endfacet
  facet normal 0.000000e+00 -9.709415e-01 -2.393168e-01
    outer loop
      vertex   0.000000e+00 8.558153e+00 1.527607e+01
      vertex   6.858000e+00 8.558153e+00 1.527607e+01
      vertex   0.000000e+00 8.466566e+00 1.564765e+01
    endloop
  endfacet
  facet normal 0.000000e+00 -9.709415e-01 -2.393168e-01
    outer loop
      vertex   0.000000e+00 8.466566e+00 1.564765e+01
      vertex   6.858000e+00 8.558153e+00 1.527607e+01
      vertex   6.858000e+00 8.466566e+00 1.564765e+01
    endloop
  endfacet
  facet normal 0.000000e+00 -8.854563e-01 -4.647226e-01
    outer loop
      vertex   0.000000e+00 8.466566e+00 1.564765e+01
      vertex   6.858000e+00 8.466566e+00 1.564765e+01
      vertex   0.000000e+00 8.288714e+00 1.598652e+01
    endloop
  endfacet
  facet normal 0.000000e+00 -8.854563e-01 -4.647226e-01
    outer loop
      vertex   0.000000e+00 8.288714e+00 1.598652e+01
      vertex   6.858000e+00 8.466566e+00 1.564765e+01
      vertex   6.858000e+00 8.288714e+00 1.598652e+01
    endloop
  endfacet
  facet normal 0.000000e+00 -7.485099e-01 -6.631236e-01
    outer loop
      vertex   0.000000e+00 8.288714e+00 1.598652e+01
      vertex   6.858000e+00 8.288714e+00 1.598652e+01
      vertex   0.000000e+00 8.034934e+00 1.627298e+01
    endloop
  endfacet
  facet normal 0.000000e+00 -7.485099e-01 -6.631236e-01
    outer loop
      vertex   0.000000e+00 8.034934e+00 1.627298e+01
      vertex   6.858000e+00 8.288714e+00 1.598652e+01
      vertex   6.858000e+00 8.034934e+00 1.627298e+01
    endloop
  endfacet
  facet normal 0.000000e+00 -5.680649e-01 -8.229838e-01
    outer loop
      vertex   0.000000e+00 8.034934e+00 1.627298e+01
      vertex   6.858000e+00 8.034934e+00 1.627298e+01
      vertex   0.000000e+00 7.719975e+00 1.649038e+01
    endloop
  endfacet
  facet normal 0.000000e+00 -5.680649e-01 -8.229838e-01
    outer loop
      vertex   0.000000e+00 7.719975e+00 1.649038e+01
      vertex   6.858000e+00 8.034934e+00 1.627298e+01
      vertex   6.858000e+00 7.719975e+00 1.649038e+01
    endloop
  endfacet
  facet normal 0.000000e+00 -3.546060e-01 -9.350158e-01
    outer loop
      vertex   0.000000e+00 7.719975e+00 1.649038e+01
      vertex   6.858000e+00 7.719975e+00 1.649038e+01
      vertex   0.000000e+00 7.362141e+00 1.662609e+01
    endloop
  endfacet
  facet normal 0.000000e+00 -3.546060e-01 -9.350158e-01
    outer loop
      vertex   0.000000e+00 7.362141e+00 1.662609e+01
      vertex   6.858000e+00 7.719975e+00 1.649038e+01
      vertex   6.858000e+00 7.362141e+00 1.662609e+01
    endloop
  endfacet
  facet normal 0.000000e+00 -1.205381e-01 -9.927087e-01
    outer loop
      vertex   0.000000e+00 -1.527859e+00 1.662609e+01
      vertex   6.858000e+00 -1.527859e+00 1.662609e+01
      vertex   0.000000e+00 -1.907773e+00 1.667222e+01
    endloop
  endfacet
  facet normal 0.000000e+00 -1.205381e-01 -9.927087e-01
    outer loop
      vertex   0.000000e+00 -1.907773e+00 1.667222e+01
      vertex   6.858000e+00 -1.527859e+00 1.662609e+01
      vertex   6.858000e+00 -1.907773e+00 1.667222e+01
    endloop
  endfacet
  facet normal 0.000000e+00 1.205381e-01 -9.927087e-01
    outer loop
      vertex   0.000000e+00 -1.907773e+00 1.667222e+01
      vertex   6.858000e+00 -1.907773e+00 1.667222e+01
      vertex   0.000000e+00 -2.287686e+00 1.662609e+01
    endloop
  endfacet
  facet normal 0.000000e+00 1.205381e-01 -9.927087e-01
    outer loop
      vertex   0.000000e+00 -2.287686e+00 1.662609e+01
      vertex   6.858000e+00 -1.907773e+00 1.667222e+01
      vertex   6.858000e+00 -2.287686e+00 1.662609e+01
    endloop
  endfacet
  facet normal 0.000000e+00 3.546056e-01 -9.350160e-01
    outer loop
      vertex   0.000000e+00 -2.287686e+00 1.662609e+01
      vertex   6.858000e+00 -2.287686e+00 1.662609e+01
      vertex   0.000000e+00 -2.645521e+00 1.649038e+01
    endloop
  endfacet
  facet normal 0.000000e+00 3.546056e-01 -9.350160e-01
    outer loop
      vertex   0.000000e+00 -2.645521e+00 1.649038e+01
      vertex   6.858000e+00 -2.287686e+00 1.662609e+01
      vertex   6.858000e+00 -2.645521e+00 1.649038e+01
    endloop
  endfacet
  facet normal 0.000000e+00 5.680653e-01 -8.229835e-01
    outer loop
      vertex   0.000000e+00 -2.645521e+00 1.649038e+01
      vertex   6.858000e+00 -2.645521e+00 1.649038e+01
      vertex   0.000000e+00 -2.960480e+00 1.627298e+01
    endloop
  endfacet
  facet normal 0.000000e+00 5.680653e-01 -8.229835e-01
    outer loop
      vertex   0.000000e+00 -2.960480e+00 1.627298e+01
      vertex   6.858000e+00 -2.645521e+00 1.649038e+01
      vertex   6.858000e+00 -2.960480e+00 1.627298e+01
    endloop
  endfacet
  facet normal 0.000000e+00 7.485103e-01 -6.631232e-01
    outer loop
      vertex   0.000000e+00 -2.960480e+00 1.627298e+01
      vertex   6.858000e+00 -2.960480e+00 1.627298e+01
      vertex   0.000000e+00 -3.214259e+00 1.598652e+01
    endloop
  endfacet
  facet normal 0.000000e+00 7.485103e-01 -6.631232e-01
    outer loop
      vertex   0.000000e+00 -3.214259e+00 1.598652e+01
      vertex   6.858000e+00 -2.960480e+00 1.627298e+01
      vertex   6.858000e+00 -3.214259e+00 1.598652e+01
    endloop
  endfacet
  facet normal 0.000000e+00 8.854560e-01 -4.647232e-01
    outer loop
      vertex   0.000000e+00 -3.214259e+00 1.598652e+01
      vertex   6.858000e+00 -3.214259e+00 1.598652e+01
      vertex   0.000000e+00 -3.392111e+00 1.564765e+01
    endloop
  endfacet
  facet normal 0.000000e+00 8.854560e-01 -4.647232e-01
    outer loop
      vertex   0.000000e+00 -3.392111e+00 1.564765e+01
      vertex   6.858000e+00 -3.214259e+00 1.598652e+01
      vertex   6.858000e+00 -3.392111e+00 1.564765e+01
    endloop
  endfacet
  facet normal 0.000000e+00 9.709417e-01 -2.393160e-01
    outer loop
      vertex   0.000000e+00 -3.392111e+00 1.564765e+01
      vertex   6.858000e+00 -3.392111e+00 1.564765e+01
      vertex   0.000000e+00 -3.483698e+00 1.527607e+01
    endloop
  endfacet
  facet normal 0.000000e+00 9.709417e-01 -2.393160e-01
    outer loop
      vertex   0.000000e+00 -3.483698e+00 1.527607e+01
      vertex   6.858000e+00 -3.392111e+00 1.564765e+01
      vertex   6.858000e+00 -3.483698e+00 1.527607e+01
    endloop
  endfacet
  facet normal -0.000000e+00 1.000000e+00 0.000000e+00
    outer loop
      vertex   0.000000e+00 -3.483698e+00 1.527607e+01
      vertex   6.858000e+00 -3.483698e+00 1.527607e+01
      vertex   0.000000e+00 -3.483698e+00 1.489336e+01
    endloop
  endfacet
  facet normal 0.000000e+00 1.000000e+00 0.000000e+00
    outer loop
      vertex   0.000000e+00 -3.483698e+00 1.489336e+01
      vertex   6.858000e+00 -3.483698e+00 1.527607e+01
      vertex   6.858000e+00 -3.483698e+00 1.489336e+01
    endloop
  endfacet
  facet normal -0.000000e+00 9.709417e-01 2.393160e-01
    outer loop
      vertex   0.000000e+00 -3.483698e+00 1.489336e+01
      vertex   6.858000e+00 -3.483698e+00 1.489336e+01
      vertex   0.000000e+00 -3.392111e+00 1.452178e+01
    endloop
  endfacet
  facet normal -0.000000e+00 9.709417e-01 2.393160e-01
    outer loop
      vertex   0.000000e+00 -3.392111e+00 1.452178e+01
      vertex   6.858000e+00 -3.483698e+00 1.489336e+01
      vertex   6.858000e+00 -3.392111e+00 1.452178e+01
    endloop
  endfacet
  facet normal -0.000000e+00 8.854560e-01 4.647232e-01
    outer loop
      vertex   0.000000e+00 -3.392111e+00 1.452178e+01
      vertex   6.858000e+00 -3.392111e+00 1.452178e+01
      vertex   0.000000e+00 -3.214259e+00 1.418291e+01
    endloop
  endfacet
  facet normal -0.000000e+00 8.854560e-01 4.647232e-01
    outer loop
      vertex   0.000000e+00 -3.214259e+00 1.418291e+01
      vertex   6.858000e+00 -3.392111e+00 1.452178e+01
      vertex   6.858000e+00 -3.214259e+00 1.418291e+01
    endloop
  endfacet
  facet normal -0.000000e+00 7.485103e-01 6.631232e-01
    outer loop
      vertex   0.000000e+00 -3.214259e+00 1.418291e+01
      vertex   6.858000e+00 -3.214259e+00 1.418291e+01
      vertex   0.000000e+00 -2.960480e+00 1.389646e+01
    endloop
  endfacet
  facet normal -0.000000e+00 7.485103e-01 6.631232e-01
    outer loop
      vertex   0.000000e+00 -2.960480e+00 1.389646e+01
      vertex   6.858000e+00 -3.214259e+00 1.418291e+01
      vertex   6.858000e+00 -2.960480e+00 1.389646e+01
    endloop
  endfacet
  facet normal -0.000000e+00 5.680653e-01 8.229835e-01
    outer loop
      vertex   0.000000e+00 -2.960480e+00 1.389646e+01
      vertex   6.858000e+00 -2.960480e+00 1.389646e+01
      vertex   0.000000e+00 -2.645521e+00 1.367905e+01
    endloop
  endfacet
  facet normal -0.000000e+00 5.680653e-01 8.229835e-01
    outer loop
      vertex   0.000000e+00 -2.645521e+00 1.367905e+01
      vertex   6.858000e+00 -2.960480e+00 1.389646e+01
      vertex   6.858000e+00 -2.645521e+00 1.367905e+01
    endloop
  endfacet
  facet normal -0.000000e+00 3.546056e-01 9.350160e-01
    outer loop
      vertex   0.000000e+00 -2.645521e+00 1.367905e+01
      vertex   6.858000e+00 -2.645521e+00 1.367905e+01
      vertex   0.000000e+00 -2.287686e+00 1.354335e+01
    endloop
  endfacet
  facet normal -0.000000e+00 3.546056e-01 9.350160e-01
    outer loop
      vertex   0.000000e+00 -2.287686e+00 1.354335e+01
      vertex   6.858000e+00 -2.645521e+00 1.367905e+01
      vertex   6.858000e+00 -2.287686e+00 1.354335e+01
    endloop
  endfacet
  facet normal -0.000000e+00 1.205350e-01 9.927091e-01
    outer loop
      vertex   0.000000e+00 -2.287686e+00 1.354335e+01
      vertex   6.858000e+00 -2.287686e+00 1.354335e+01
      vertex   0.000000e+00 -1.907773e+00 1.349722e+01
    endloop
  endfacet
  facet normal -0.000000e+00 1.205350e-01 9.927091e-01
    outer loop
      vertex   0.000000e+00 -1.907773e+00 1.349722e+01
      vertex   6.858000e+00 -2.287686e+00 1.354335e+01
      vertex   6.858000e+00 -1.907773e+00 1.349722e+01
    endloop
  endfacet
  facet normal 0.000000e+00 -1.205350e-01 9.927091e-01
    outer loop
      vertex   0.000000e+00 -1.907773e+00 1.349722e+01
      vertex   6.858000e+00 -1.907773e+00 1.349722e+01
      vertex   0.000000e+00 -1.527859e+00 1.354335e+01
    endloop
  endfacet
  facet normal 0.000000e+00 -1.205350e-01 9.927091e-01
    outer loop
      vertex   0.000000e+00 -1.527859e+00 1.354335e+01
      vertex   6.858000e+00 -1.907773e+00 1.349722e+01
      vertex   6.858000e+00 -1.527859e+00 1.354335e+01
    endloop
  endfacet
  facet normal 0.000000e+00 -3.546056e-01 9.350160e-01
    outer loop
      vertex   0.000000e+00 -1.527859e+00 1.354335e+01
      vertex   6.858000e+00 -1.527859e+00 1.354335e+01
      vertex   0.000000e+00 -1.170025e+00 1.367905e+01
    endloop
  endfacet
  facet normal 0.000000e+00 -3.546056e-01 9.350160e-01
    outer loop
      vertex   0.000000e+00 -1.170025e+00 1.367905e+01
      vertex   6.858000e+00 -1.527859e+00 1.354335e+01
      vertex   6.858000e+00 -1.170025e+00 1.367905e+01
    endloop
  endfacet
  facet normal 0.000000e+00 -5.680650e-01 8.229837e-01
    outer loop
      vertex   0.000000e+00 -1.170025e+00 1.367905e+01
      vertex   6.858000e+00 -1.170025e+00 1.367905e+01
      vertex   0.000000e+00 -8.550654e-01 1.389646e+01
    endloop
  endfacet
  facet normal 0.000000e+00 -5.680650e-01 8.229837e-01
    outer loop
      vertex   0.000000e+00 -8.550654e-01 1.389646e+01
      vertex   6.858000e+00 -1.170025e+00 1.367905e+01
      vertex   6.858000e+00 -8.550654e-01 1.389646e+01
    endloop
  endfacet
  facet normal 0.000000e+00 -7.485102e-01 6.631232e-01
    outer loop
      vertex   0.000000e+00 -8.550654e-01 1.389646e+01
      vertex   6.858000e+00 -8.550654e-01 1.389646e+01
      vertex   0.000000e+00 -6.012858e-01 1.418291e+01
    endloop
  endfacet
  facet normal 0.000000e+00 -7.485102e-01 6.631232e-01
    outer loop
      vertex   0.000000e+00 -6.012858e-01 1.418291e+01
      vertex   6.858000e+00 -8.550654e-01 1.389646e+01
      vertex   6.858000e+00 -6.012858e-01 1.418291e+01
    endloop
  endfacet
  facet normal 0.000000e+00 -8.854562e-01 4.647228e-01
    outer loop
      vertex   0.000000e+00 -6.012858e-01 1.418291e+01
      vertex   6.858000e+00 -6.012858e-01 1.418291e+01
      vertex   0.000000e+00 -4.234344e-01 1.452178e+01
    endloop
  endfacet
  facet normal 0.000000e+00 -8.854562e-01 4.647228e-01
    outer loop
      vertex   0.000000e+00 -4.234344e-01 1.452178e+01
      vertex   6.858000e+00 -6.012858e-01 1.418291e+01
      vertex   6.858000e+00 -4.234344e-01 1.452178e+01
    endloop
  endfacet
  facet normal 0.000000e+00 -9.709417e-01 2.393161e-01
    outer loop
      vertex   0.000000e+00 -4.234344e-01 1.452178e+01
      vertex   6.858000e+00 -4.234344e-01 1.452178e+01
      vertex   0.000000e+00 -3.318474e-01 1.489336e+01
    endloop
  endfacet
  facet normal 0.000000e+00 -9.709417e-01 2.393161e-01
    outer loop
      vertex   0.000000e+00 -3.318474e-01 1.489336e+01
      vertex   6.858000e+00 -4.234344e-01 1.452178e+01
      vertex   6.858000e+00 -3.318474e-01 1.489336e+01
    endloop
  endfacet
  facet normal 0.000000e+00 -1.000000e+00 0.000000e+00
    outer loop
      vertex   0.000000e+00 -3.318474e-01 1.489336e+01
      vertex   6.858000e+00 -3.318474e-01 1.489336e+01
      vertex   0.000000e+00 -3.318474e-01 1.527607e+01
    endloop
  endfacet
  facet normal 0.000000e+00 -1.000000e+00 0.000000e+00
    outer loop
      vertex   0.000000e+00 -3.318474e-01 1.527607e+01
      vertex   6.858000e+00 -3.318474e-01 1.489336e+01
      vertex   6.858000e+00 -3.318474e-01 1.527607e+01
    endloop
  endfacet
  facet normal 0.000000e+00 -9.709417e-01 -2.393161e-01
    outer loop
      vertex   0.000000e+00 -3.318474e-01 1.527607e+01
      vertex   6.858000e+00 -3.318474e-01 1.527607e+01
      vertex   0.000000e+00 -4.234344e-01 1.564765e+01
    endloop
  endfacet
  facet normal 0.000000e+00 -9.709417e-01 -2.393161e-01
    outer loop
      vertex   0.000000e+00 -4.234344e-01 1.564765e+01
      vertex   6.858000e+00 -3.318474e-01 1.527607e+01
      vertex   6.858000e+00 -4.234344e-01 1.564765e+01
    endloop
  endfacet
  facet normal 0.000000e+00 -8.854562e-01 -4.647228e-01
    outer loop
      vertex   0.000000e+00 -4.234344e-01 1.564765e+01
      vertex   6.858000e+00 -4.234344e-01 1.564765e+01
      vertex   0.000000e+00 -6.012858e-01 1.598652e+01
    endloop
  endfacet
  facet normal 0.000000e+00 -8.854562e-01 -4.647228e-01
    outer loop
      vertex   0.000000e+00 -6.012858e-01 1.598652e+01
      vertex   6.858000e+00 -4.234344e-01 1.564765e+01
      vertex   6.858000e+00 -6.012858e-01 1.598652e+01
    endloop
  endfacet
  facet normal 0.000000e+00 -7.485102e-01 -6.631232e-01
    outer loop
      vertex   0.000000e+00 -6.012858e-01 1.598652e+01
      vertex   6.858000e+00 -6.012858e-01 1.598652e+01
      vertex   0.000000e+00 -8.550654e-01 1.627298e+01
    endloop
  endfacet
  facet normal 0.000000e+00 -7.485102e-01 -6.631232e-01
    outer loop
      vertex   0.000000e+00 -8.550654e-01 1.627298e+01
      vertex   6.858000e+00 -6.012858e-01 1.598652e+01
      vertex   6.858000e+00 -8.550654e-01 1.627298e+01
    endloop
  endfacet
  facet normal 0.000000e+00 -5.680650e-01 -8.229837e-01
    outer loop
      vertex   0.000000e+00 -8.550654e-01 1.627298e+01
      vertex   6.858000e+00 -8.550654e-01 1.627298e+01
      vertex   0.000000e+00 -1.170025e+00 1.649038e+01
    endloop
  endfacet
  facet normal 0.000000e+00 -5.680650e-01 -8.229837e-01
    outer loop
      vertex   0.000000e+00 -1.170025e+00 1.649038e+01
      vertex   6.858000e+00 -8.550654e-01 1.627298e+01
      vertex   6.858000e+00 -1.170025e+00 1.649038e+01
    endloop
  endfacet
  facet normal 0.000000e+00 -3.546056e-01 -9.350160e-01
    outer loop
      vertex   0.000000e+00 -1.170025e+00 1.649038e+01
      vertex   6.858000e+00 -1.170025e+00 1.649038e+01
      vertex   0.000000e+00 -1.527859e+00 1.662609e+01
    endloop
  endfacet
  facet normal 0.000000e+00 -3.546056e-01 -9.350160e-01
    outer loop
      vertex   0.000000e+00 -1.527859e+00 1.662609e+01
      vertex   6.858000e+00 -1.170025e+00 1.649038e+01
      vertex   6.858000e+00 -1.527859e+00 1.662609e+01
    endloop
  endfacet
  facet normal 0.000000e+00 1.000000e+00 0.000000e+00
    outer loop
      vertex   0.000000e+00 1.206223e+01 8.734716e+00
      vertex   0.000000e+00 1.206223e+01 2.143472e+01
      vertex   6.858000e+00 1.206223e+01 8.734716e+00
    endloop
  endfacet
  facet normal 0.000000e+00 1.000000e+00 -0.000000e+00
    outer loop
      vertex   6.858000e+00 1.206223e+01 8.734716e+00
      vertex   0.000000e+00 1.206223e+01 2.143472e+01
      vertex   6.858000e+00 1.206223e+01 2.143472e+01
    endloop
  endfacet
  facet normal 0.000000e+00 0.000000e+00 -1.000000e+00
    outer loop
      vertex   0.000000e+00 -6.987773e+00 8.734716e+00
      vertex   0.000000e+00 1.206223e+01 8.734716e+00
      vertex   6.858000e+00 -6.987773e+00 8.734716e+00
    endloop
  endfacet
  facet normal 0.000000e+00 0.000000e+00 -1.000000e+00
    outer loop
      vertex   6.858000e+00 -6.987773e+00 8.734716e+00
      vertex   0.000000e+00 1.206223e+01 8.734716e+00
      vertex   6.858000e+00 1.206223e+01 8.734716e+00
    endloop
  endfacet
  facet normal 0.000000e+00 -1.000000e+00 0.000000e+00
    outer loop
      vertex   0.000000e+00 -6.987773e+00 2.143472e+01
      vertex   0.000000e+00 -6.987773e+00 8.734716e+00
      vertex   6.858000e+00 -6.987773e+00 2.143472e+01
    endloop
  endfacet
  facet normal 0.000000e+00 -1.000000e+00 -0.000000e+00
    outer loop
      vertex   6.858000e+00 -6.987773e+00 2.143472e+01
      vertex   0.000000e+00 -6.987773e+00 8.734716e+00
      vertex   6.858000e+00 -6.987773e+00 8.734716e+00
    endloop
  endfacet
  facet normal -0.000000e+00 0.000000e+00 1.000000e+00
    outer loop
      vertex   0.000000e+00 1.206223e+01 2.143472e+01
      vertex   0.000000e+00 -6.987773e+00 2.143472e+01
      vertex   6.858000e+00 1.206223e+01 2.143472e+01
    endloop
  endfacet
  facet normal 0.000000e+00 0.000000e+00 1.000000e+00
    outer loop
      vertex   6.858000e+00 1.206223e+01 2.143472e+01
      vertex   0.000000e+00 -6.987773e+00 2.143472e+01
      vertex   6.858000e+00 -6.987773e+00 2.143472e+01
    endloop
  endfacet
  facet normal 1.000000e+00 0.000000e+00 0.000000e+00
    outer loop
      vertex   6.858000e+00 7.362141e+00 1.354335e+01
      vertex   6.858000e+00 6.982228e+00 1.349722e+01
      vertex   6.858000e+00 1.206223e+01 8.734716e+00
    endloop
  endfacet
  facet normal 1.000000e+00 0.000000e+00 0.000000e+00
    outer loop
      vertex   6.858000e+00 1.206223e+01 8.734716e+00
      vertex   6.858000e+00 6.982228e+00 1.349722e+01
      vertex   6.858000e+00 6.602314e+00 1.354335e+01
    endloop
  endfacet
  facet normal 1.000000e+00 0.000000e+00 0.000000e+00
    outer loop
      vertex   6.858000e+00 1.206223e+01 8.734716e+00
      vertex   6.858000e+00 6.602314e+00 1.354335e+01
      vertex   6.858000e+00 -6.987773e+00 8.734716e+00
    endloop
  endfacet
  facet normal 1.000000e+00 0.000000e+00 0.000000e+00
    outer loop
      vertex   6.858000e+00 -6.987773e+00 8.734716e+00
      vertex   6.858000e+00 6.602314e+00 1.354335e+01
      vertex   6.858000e+00 -1.527859e+00 1.354335e+01
    endloop
  endfacet
  facet normal 1.000000e+00 0.000000e+00 0.000000e+00
    outer loop
      vertex   6.858000e+00 -6.987773e+00 8.734716e+00
      vertex   6.858000e+00 -1.527859e+00 1.354335e+01
      vertex   6.858000e+00 -1.907773e+00 1.349722e+01
    endloop
  endfacet
  facet normal 1.000000e+00 0.000000e+00 0.000000e+00
    outer loop
      vertex   6.858000e+00 -1.527859e+00 1.354335e+01
      vertex   6.858000e+00 6.602314e+00 1.354335e+01
      vertex   6.858000e+00 -1.170025e+00 1.367905e+01
    endloop
  endfacet
  facet normal 1.000000e+00 -0.000000e+00 0.000000e+00
    outer loop
      vertex   6.858000e+00 -1.170025e+00 1.367905e+01
      vertex   6.858000e+00 6.602314e+00 1.354335e+01
      vertex   6.858000e+00 6.244479e+00 1.367905e+01
    endloop
  endfacet
  facet normal 1.000000e+00 0.000000e+00 0.000000e+00
    outer loop
      vertex   6.858000e+00 -1.170025e+00 1.367905e+01
      vertex   6.858000e+00 6.244479e+00 1.367905e+01
      vertex   6.858000e+00 -8.550654e-01 1.389646e+01
    endloop
  endfacet
  facet normal 1.000000e+00 -0.000000e+00 0.000000e+00
    outer loop
      vertex   6.858000e+00 -8.550654e-01 1.389646e+01
      vertex   6.858000e+00 6.244479e+00 1.367905e+01
      vertex   6.858000e+00 5.929520e+00 1.389646e+01
    endloop
  endfacet
  facet normal 1.000000e+00 0.000000e+00 0.000000e+00
    outer loop
      vertex   6.858000e+00 -8.550654e-01 1.389646e+01
      vertex   6.858000e+00 5.929520e+00 1.389646e+01
      vertex   6.858000e+00 5.675740e+00 1.418291e+01
    endloop
  endfacet
  facet normal 1.000000e+00 0.000000e+00 0.000000e+00
    outer loop
      vertex   6.858000e+00 -8.550654e-01 1.389646e+01
      vertex   6.858000e+00 5.675740e+00 1.418291e+01
      vertex   6.858000e+00 -6.012858e-01 1.418291e+01
    endloop
  endfacet
  facet normal 1.000000e+00 0.000000e+00 0.000000e+00
    outer loop
      vertex   6.858000e+00 -6.012858e-01 1.418291e+01
      vertex   6.858000e+00 5.675740e+00 1.418291e+01
      vertex   6.858000e+00 5.497889e+00 1.452178e+01
    endloop
  endfacet
  facet normal 1.000000e+00 0.000000e+00 0.000000e+00
    outer loop
      vertex   6.858000e+00 -6.012858e-01 1.418291e+01
      vertex   6.858000e+00 5.497889e+00 1.452178e+01
      vertex   6.858000e+00 -4.234344e-01 1.452178e+01
    endloop
  endfacet
  facet normal 1.000000e+00 0.000000e+00 0.000000e+00
    outer loop
      vertex   6.858000e+00 -4.234344e-01 1.452178e+01
      vertex   6.858000e+00 5.497889e+00 1.452178e+01
      vertex   6.858000e+00 5.406302e+00 1.489336e+01
    endloop
  endfacet
  facet normal 1.000000e+00 0.000000e+00 0.000000e+00
    outer loop
      vertex   6.858000e+00 -4.234344e-01 1.452178e+01
      vertex   6.858000e+00 5.406302e+00 1.489336e+01
      vertex   6.858000e+00 -3.318474e-01 1.489336e+01
    endloop
  endfacet
  facet normal 1.000000e+00 0.000000e+00 0.000000e+00
    outer loop
      vertex   6.858000e+00 -3.318474e-01 1.489336e+01
      vertex   6.858000e+00 5.406302e+00 1.489336e+01
      vertex   6.858000e+00 5.406302e+00 1.527607e+01
    endloop
  endfacet
  facet normal 1.000000e+00 0.000000e+00 0.000000e+00
    outer loop
      vertex   6.858000e+00 -3.318474e-01 1.489336e+01
      vertex   6.858000e+00 5.406302e+00 1.527607e+01
      vertex   6.858000e+00 -3.318474e-01 1.527607e+01
    endloop
  endfacet
  facet normal 1.000000e+00 0.000000e+00 -0.000000e+00
    outer loop
      vertex   6.858000e+00 -3.318474e-01 1.527607e+01
      vertex   6.858000e+00 5.406302e+00 1.527607e+01
      vertex   6.858000e+00 -4.234344e-01 1.564765e+01
    endloop
  endfacet
  facet normal 1.000000e+00 -0.000000e+00 0.000000e+00
    outer loop
      vertex   6.858000e+00 -4.234344e-01 1.564765e+01
      vertex   6.858000e+00 5.406302e+00 1.527607e+01
      vertex   6.858000e+00 5.497889e+00 1.564765e+01
    endloop
  endfacet
  facet normal 1.000000e+00 0.000000e+00 -0.000000e+00
    outer loop
      vertex   6.858000e+00 -4.234344e-01 1.564765e+01
      vertex   6.858000e+00 5.497889e+00 1.564765e+01
      vertex   6.858000e+00 -6.012858e-01 1.598652e+01
    endloop
  endfacet
  facet normal 1.000000e+00 -0.000000e+00 0.000000e+00
    outer loop
      vertex   6.858000e+00 -6.012858e-01 1.598652e+01
      vertex   6.858000e+00 5.497889e+00 1.564765e+01
      vertex   6.858000e+00 5.675740e+00 1.598652e+01
    endloop
  endfacet
  facet normal 1.000000e+00 0.000000e+00 -0.000000e+00
    outer loop
      vertex   6.858000e+00 -6.012858e-01 1.598652e+01
      vertex   6.858000e+00 5.675740e+00 1.598652e+01
      vertex   6.858000e+00 -8.550654e-01 1.627298e+01
    endloop
  endfacet
  facet normal 1.000000e+00 -0.000000e+00 0.000000e+00
    outer loop
      vertex   6.858000e+00 -8.550654e-01 1.627298e+01
      vertex   6.858000e+00 5.675740e+00 1.598652e+01
      vertex   6.858000e+00 5.929520e+00 1.627298e+01
    endloop
  endfacet
  facet normal 1.000000e+00 0.000000e+00 0.000000e+00
    outer loop
      vertex   6.858000e+00 -8.550654e-01 1.627298e+01
      vertex   6.858000e+00 5.929520e+00 1.627298e+01
      vertex   6.858000e+00 6.244479e+00 1.649038e+01
    endloop
  endfacet
  facet normal 1.000000e+00 0.000000e+00 -0.000000e+00
    outer loop
      vertex   6.858000e+00 -8.550654e-01 1.627298e+01
      vertex   6.858000e+00 6.244479e+00 1.649038e+01
      vertex   6.858000e+00 -1.170025e+00 1.649038e+01
    endloop
  endfacet
  facet normal 1.000000e+00 0.000000e+00 0.000000e+00
    outer loop
      vertex   6.858000e+00 -1.170025e+00 1.649038e+01
      vertex   6.858000e+00 6.244479e+00 1.649038e+01
      vertex   6.858000e+00 6.602314e+00 1.662609e+01
    endloop
  endfacet
  facet normal 1.000000e+00 0.000000e+00 -0.000000e+00
    outer loop
      vertex   6.858000e+00 -1.170025e+00 1.649038e+01
      vertex   6.858000e+00 6.602314e+00 1.662609e+01
      vertex   6.858000e+00 -1.527859e+00 1.662609e+01
    endloop
  endfacet
  facet normal 1.000000e+00 0.000000e+00 -0.000000e+00
    outer loop
      vertex   6.858000e+00 -1.527859e+00 1.662609e+01
      vertex   6.858000e+00 6.602314e+00 1.662609e+01
      vertex   6.858000e+00 -6.987773e+00 2.143472e+01
    endloop
  endfacet
  facet normal 1.000000e+00 0.000000e+00 0.000000e+00
    outer loop
      vertex   6.858000e+00 -1.527859e+00 1.662609e+01
      vertex   6.858000e+00 -6.987773e+00 2.143472e+01
      vertex   6.858000e+00 -1.907773e+00 1.667222e+01
    endloop
  endfacet
  facet normal 1.000000e+00 0.000000e+00 0.000000e+00
    outer loop
      vertex   6.858000e+00 -1.907773e+00 1.667222e+01
      vertex   6.858000e+00 -6.987773e+00 2.143472e+01
      vertex   6.858000e+00 -2.287686e+00 1.662609e+01
    endloop
  endfacet
  facet normal 1.000000e+00 0.000000e+00 0.000000e+00
    outer loop
      vertex   6.858000e+00 -2.287686e+00 1.662609e+01
      vertex   6.858000e+00 -6.987773e+00 2.143472e+01
      vertex   6.858000e+00 -2.645521e+00 1.649038e+01
    endloop
  endfacet
  facet normal 1.000000e+00 0.000000e+00 0.000000e+00
    outer loop
      vertex   6.858000e+00 -2.645521e+00 1.649038e+01
      vertex   6.858000e+00 -6.987773e+00 2.143472e+01
      vertex   6.858000e+00 -2.960480e+00 1.627298e+01
    endloop
  endfacet
  facet normal 1.000000e+00 0.000000e+00 0.000000e+00
    outer loop
      vertex   6.858000e+00 -2.960480e+00 1.627298e+01
      vertex   6.858000e+00 -6.987773e+00 2.143472e+01
      vertex   6.858000e+00 -3.214259e+00 1.598652e+01
    endloop
  endfacet
  facet normal 1.000000e+00 0.000000e+00 0.000000e+00
    outer loop
      vertex   6.858000e+00 -3.214259e+00 1.598652e+01
      vertex   6.858000e+00 -6.987773e+00 2.143472e+01
      vertex   6.858000e+00 -3.392111e+00 1.564765e+01
    endloop
  endfacet
  facet normal 1.000000e+00 0.000000e+00 0.000000e+00
    outer loop
      vertex   6.858000e+00 -3.392111e+00 1.564765e+01
      vertex   6.858000e+00 -6.987773e+00 2.143472e+01
      vertex   6.858000e+00 -3.483698e+00 1.527607e+01
    endloop
  endfacet
  facet normal 1.000000e+00 0.000000e+00 0.000000e+00
    outer loop
      vertex   6.858000e+00 -3.483698e+00 1.527607e+01
      vertex   6.858000e+00 -6.987773e+00 2.143472e+01
      vertex   6.858000e+00 -6.987773e+00 8.734716e+00
    endloop
  endfacet
  facet normal 1.000000e+00 0.000000e+00 0.000000e+00
    outer loop
      vertex   6.858000e+00 -3.483698e+00 1.527607e+01
      vertex   6.858000e+00 -6.987773e+00 8.734716e+00
      vertex   6.858000e+00 -3.483698e+00 1.489336e+01
    endloop
  endfacet
  facet normal 1.000000e+00 0.000000e+00 0.000000e+00
    outer loop
      vertex   6.858000e+00 -3.483698e+00 1.489336e+01
      vertex   6.858000e+00 -6.987773e+00 8.734716e+00
      vertex   6.858000e+00 -3.392111e+00 1.452178e+01
    endloop
  endfacet
  facet normal 1.000000e+00 0.000000e+00 0.000000e+00
    outer loop
      vertex   6.858000e+00 -3.392111e+00 1.452178e+01
      vertex   6.858000e+00 -6.987773e+00 8.734716e+00
      vertex   6.858000e+00 -3.214259e+00 1.418291e+01
    endloop
  endfacet
  facet normal 1.000000e+00 0.000000e+00 0.000000e+00
    outer loop
      vertex   6.858000e+00 -3.214259e+00 1.418291e+01
      vertex   6.858000e+00 -6.987773e+00 8.734716e+00
      vertex   6.858000e+00 -2.960480e+00 1.389646e+01
    endloop
  endfacet
  facet normal 1.000000e+00 0.000000e+00 0.000000e+00
    outer loop
      vertex   6.858000e+00 -2.960480e+00 1.389646e+01
      vertex   6.858000e+00 -6.987773e+00 8.734716e+00
      vertex   6.858000e+00 -2.645521e+00 1.367905e+01
    endloop
  endfacet
  facet normal 1.000000e+00 0.000000e+00 0.000000e+00
    outer loop
      vertex   6.858000e+00 -2.645521e+00 1.367905e+01
      vertex   6.858000e+00 -6.987773e+00 8.734716e+00
      vertex   6.858000e+00 -2.287686e+00 1.354335e+01
    endloop
  endfacet
  facet normal 1.000000e+00 0.000000e+00 0.000000e+00
    outer loop
      vertex   6.858000e+00 -2.287686e+00 1.354335e+01
      vertex   6.858000e+00 -6.987773e+00 8.734716e+00
      vertex   6.858000e+00 -1.907773e+00 1.349722e+01
    endloop
  endfacet
  facet normal 1.000000e+00 -0.000000e+00 0.000000e+00
    outer loop
      vertex   6.858000e+00 -6.987773e+00 2.143472e+01
      vertex   6.858000e+00 6.602314e+00 1.662609e+01
      vertex   6.858000e+00 1.206223e+01 2.143472e+01
    endloop
  endfacet
  facet normal 1.000000e+00 0.000000e+00 0.000000e+00
    outer loop
      vertex   6.858000e+00 1.206223e+01 2.143472e+01
      vertex   6.858000e+00 6.602314e+00 1.662609e+01
      vertex   6.858000e+00 6.982228e+00 1.667222e+01
    endloop
  endfacet
  facet normal 1.000000e+00 0.000000e+00 0.000000e+00
    outer loop
      vertex   6.858000e+00 1.206223e+01 2.143472e+01
      vertex   6.858000e+00 6.982228e+00 1.667222e+01
      vertex   6.858000e+00 7.362141e+00 1.662609e+01
    endloop
  endfacet
  facet normal 1.000000e+00 -0.000000e+00 0.000000e+00
    outer loop
      vertex   6.858000e+00 7.362141e+00 1.662609e+01
      vertex   6.858000e+00 7.719975e+00 1.649038e+01
      vertex   6.858000e+00 1.206223e+01 2.143472e+01
    endloop
  endfacet
  facet normal 1.000000e+00 0.000000e+00 0.000000e+00
    outer loop
      vertex   6.858000e+00 1.206223e+01 2.143472e+01
      vertex   6.858000e+00 7.719975e+00 1.649038e+01
      vertex   6.858000e+00 8.034934e+00 1.627298e+01
    endloop
  endfacet
  facet normal 1.000000e+00 0.000000e+00 0.000000e+00
    outer loop
      vertex   6.858000e+00 1.206223e+01 2.143472e+01
      vertex   6.858000e+00 8.034934e+00 1.627298e+01
      vertex   6.858000e+00 8.288714e+00 1.598652e+01
    endloop
  endfacet
  facet normal 1.000000e+00 -0.000000e+00 0.000000e+00
    outer loop
      vertex   6.858000e+00 8.288714e+00 1.598652e+01
      vertex   6.858000e+00 8.466566e+00 1.564765e+01
      vertex   6.858000e+00 1.206223e+01 2.143472e+01
    endloop
  endfacet
  facet normal 1.000000e+00 0.000000e+00 0.000000e+00
    outer loop
      vertex   6.858000e+00 1.206223e+01 2.143472e+01
      vertex   6.858000e+00 8.466566e+00 1.564765e+01
      vertex   6.858000e+00 8.558153e+00 1.527607e+01
    endloop
  endfacet
  facet normal 1.000000e+00 0.000000e+00 0.000000e+00
    outer loop
      vertex   6.858000e+00 1.206223e+01 2.143472e+01
      vertex   6.858000e+00 8.558153e+00 1.527607e+01
      vertex   6.858000e+00 8.558153e+00 1.489336e+01
    endloop
  endfacet
  facet normal 1.000000e+00 0.000000e+00 0.000000e+00
    outer loop
      vertex   6.858000e+00 1.206223e+01 2.143472e+01
      vertex   6.858000e+00 8.558153e+00 1.489336e+01
      vertex   6.858000e+00 1.206223e+01 8.734716e+00
    endloop
  endfacet
  facet normal 1.000000e+00 0.000000e+00 0.000000e+00
    outer loop
      vertex   6.858000e+00 1.206223e+01 8.734716e+00
      vertex   6.858000e+00 8.558153e+00 1.489336e+01
      vertex   6.858000e+00 8.466566e+00 1.452178e+01
    endloop
  endfacet
  facet normal 1.000000e+00 0.000000e+00 0.000000e+00
    outer loop
      vertex   6.858000e+00 1.206223e+01 8.734716e+00
      vertex   6.858000e+00 8.466566e+00 1.452178e+01
      vertex   6.858000e+00 8.288714e+00 1.418291e+01
    endloop
  endfacet
  facet normal 1.000000e+00 0.000000e+00 0.000000e+00
    outer loop
      vertex   6.858000e+00 8.288714e+00 1.418291e+01
      vertex   6.858000e+00 8.034934e+00 1.389646e+01
      vertex   6.858000e+00 1.206223e+01 8.734716e+00
    endloop
  endfacet
  facet normal 1.000000e+00 0.000000e+00 0.000000e+00
    outer loop
      vertex   6.858000e+00 1.206223e+01 8.734716e+00
      vertex   6.858000e+00 8.034934e+00 1.389646e+01
      vertex   6.858000e+00 7.719975e+00 1.367905e+01
    endloop
  endfacet
  facet normal 1.000000e+00 0.000000e+00 0.000000e+00
    outer loop
      vertex   6.858000e+00 1.206223e+01 8.734716e+00
      vertex   6.858000e+00 7.719975e+00 1.367905e+01
      vertex   6.858000e+00 7.362141e+00 1.354335e+01
    endloop
  endfacet
  facet normal -1.000000e+00 0.000000e+00 0.000000e+00
    outer loop
      vertex   0.000000e+00 7.362141e+00 1.662609e+01
      vertex   0.000000e+00 6.982228e+00 1.667222e+01
      vertex   0.000000e+00 1.206223e+01 2.143472e+01
    endloop
  endfacet
  facet normal -1.000000e+00 0.000000e+00 0.000000e+00
    outer loop
      vertex   0.000000e+00 1.206223e+01 2.143472e+01
      vertex   0.000000e+00 6.982228e+00 1.667222e+01
      vertex   0.000000e+00 6.602314e+00 1.662609e+01
    endloop
  endfacet
  facet normal -1.000000e+00 -0.000000e+00 0.000000e+00
    outer loop
      vertex   0.000000e+00 1.206223e+01 2.143472e+01
      vertex   0.000000e+00 6.602314e+00 1.662609e+01
      vertex   0.000000e+00 -6.987773e+00 2.143472e+01
    endloop
  endfacet
  facet normal -1.000000e+00 0.000000e+00 0.000000e+00
    outer loop
      vertex   0.000000e+00 -6.987773e+00 2.143472e+01
      vertex   0.000000e+00 6.602314e+00 1.662609e+01
      vertex   0.000000e+00 -1.527859e+00 1.662609e+01
    endloop
  endfacet
  facet normal -1.000000e+00 0.000000e+00 0.000000e+00
    outer loop
      vertex   0.000000e+00 -6.987773e+00 2.143472e+01
      vertex   0.000000e+00 -1.527859e+00 1.662609e+01
      vertex   0.000000e+00 -1.907773e+00 1.667222e+01
    endloop
  endfacet
  facet normal -1.000000e+00 0.000000e+00 0.000000e+00
    outer loop
      vertex   0.000000e+00 -1.527859e+00 1.662609e+01
      vertex   0.000000e+00 6.602314e+00 1.662609e+01
      vertex   0.000000e+00 -1.170025e+00 1.649038e+01
    endloop
  endfacet
  facet normal -1.000000e+00 0.000000e+00 0.000000e+00
    outer loop
      vertex   0.000000e+00 -1.170025e+00 1.649038e+01
      vertex   0.000000e+00 6.602314e+00 1.662609e+01
      vertex   0.000000e+00 6.244479e+00 1.649038e+01
    endloop
  endfacet
  facet normal -1.000000e+00 0.000000e+00 0.000000e+00
    outer loop
      vertex   0.000000e+00 -1.170025e+00 1.649038e+01
      vertex   0.000000e+00 6.244479e+00 1.649038e+01
      vertex   0.000000e+00 -8.550654e-01 1.627298e+01
    endloop
  endfacet
  facet normal -1.000000e+00 0.000000e+00 0.000000e+00
    outer loop
      vertex   0.000000e+00 -8.550654e-01 1.627298e+01
      vertex   0.000000e+00 6.244479e+00 1.649038e+01
      vertex   0.000000e+00 5.929520e+00 1.627298e+01
    endloop
  endfacet
  facet normal -1.000000e+00 0.000000e+00 0.000000e+00
    outer loop
      vertex   0.000000e+00 -8.550654e-01 1.627298e+01
      vertex   0.000000e+00 5.929520e+00 1.627298e+01
      vertex   0.000000e+00 5.675740e+00 1.598652e+01
    endloop
  endfacet
  facet normal -1.000000e+00 0.000000e+00 0.000000e+00
    outer loop
      vertex   0.000000e+00 -8.550654e-01 1.627298e+01
      vertex   0.000000e+00 5.675740e+00 1.598652e+01
      vertex   0.000000e+00 -6.012858e-01 1.598652e+01
    endloop
  endfacet
  facet normal -1.000000e+00 0.000000e+00 0.000000e+00
    outer loop
      vertex   0.000000e+00 -6.012858e-01 1.598652e+01
      vertex   0.000000e+00 5.675740e+00 1.598652e+01
      vertex   0.000000e+00 5.497889e+00 1.564765e+01
    endloop
  endfacet
  facet normal -1.000000e+00 0.000000e+00 0.000000e+00
    outer loop
      vertex   0.000000e+00 -6.012858e-01 1.598652e+01
      vertex   0.000000e+00 5.497889e+00 1.564765e+01
      vertex   0.000000e+00 -4.234344e-01 1.564765e+01
    endloop
  endfacet
  facet normal -1.000000e+00 0.000000e+00 0.000000e+00
    outer loop
      vertex   0.000000e+00 -4.234344e-01 1.564765e+01
      vertex   0.000000e+00 5.497889e+00 1.564765e+01
      vertex   0.000000e+00 5.406302e+00 1.527607e+01
    endloop
  endfacet
  facet normal -1.000000e+00 0.000000e+00 0.000000e+00
    outer loop
      vertex   0.000000e+00 -4.234344e-01 1.564765e+01
      vertex   0.000000e+00 5.406302e+00 1.527607e+01
      vertex   0.000000e+00 -3.318474e-01 1.527607e+01
    endloop
  endfacet
  facet normal -1.000000e+00 0.000000e+00 0.000000e+00
    outer loop
      vertex   0.000000e+00 -3.318474e-01 1.527607e+01
      vertex   0.000000e+00 5.406302e+00 1.527607e+01
      vertex   0.000000e+00 5.406302e+00 1.489336e+01
    endloop
  endfacet
  facet normal -1.000000e+00 0.000000e+00 0.000000e+00
    outer loop
      vertex   0.000000e+00 -3.318474e-01 1.527607e+01
      vertex   0.000000e+00 5.406302e+00 1.489336e+01
      vertex   0.000000e+00 -3.318474e-01 1.489336e+01
    endloop
  endfacet
  facet normal -1.000000e+00 0.000000e+00 -0.000000e+00
    outer loop
      vertex   0.000000e+00 -3.318474e-01 1.489336e+01
      vertex   0.000000e+00 5.406302e+00 1.489336e+01
      vertex   0.000000e+00 -4.234344e-01 1.452178e+01
    endloop
  endfacet
  facet normal -1.000000e+00 0.000000e+00 0.000000e+00
    outer loop
      vertex   0.000000e+00 -4.234344e-01 1.452178e+01
      vertex   0.000000e+00 5.406302e+00 1.489336e+01
      vertex   0.000000e+00 5.497889e+00 1.452178e+01
    endloop
  endfacet
  facet normal -1.000000e+00 0.000000e+00 -0.000000e+00
    outer loop
      vertex   0.000000e+00 -4.234344e-01 1.452178e+01
      vertex   0.000000e+00 5.497889e+00 1.452178e+01
      vertex   0.000000e+00 -6.012858e-01 1.418291e+01
    endloop
  endfacet
  facet normal -1.000000e+00 0.000000e+00 0.000000e+00
    outer loop
      vertex   0.000000e+00 -6.012858e-01 1.418291e+01
      vertex   0.000000e+00 5.497889e+00 1.452178e+01
      vertex   0.000000e+00 5.675740e+00 1.418291e+01
    endloop
  endfacet
  facet normal -1.000000e+00 0.000000e+00 -0.000000e+00
    outer loop
      vertex   0.000000e+00 -6.012858e-01 1.418291e+01
      vertex   0.000000e+00 5.675740e+00 1.418291e+01
      vertex   0.000000e+00 -8.550654e-01 1.389646e+01
    endloop
  endfacet
  facet normal -1.000000e+00 0.000000e+00 0.000000e+00
    outer loop
      vertex   0.000000e+00 -8.550654e-01 1.389646e+01
      vertex   0.000000e+00 5.675740e+00 1.418291e+01
      vertex   0.000000e+00 5.929520e+00 1.389646e+01
    endloop
  endfacet
  facet normal -1.000000e+00 0.000000e+00 0.000000e+00
    outer loop
      vertex   0.000000e+00 -8.550654e-01 1.389646e+01
      vertex   0.000000e+00 5.929520e+00 1.389646e+01
      vertex   0.000000e+00 6.244479e+00 1.367905e+01
    endloop
  endfacet
  facet normal -1.000000e+00 0.000000e+00 -0.000000e+00
    outer loop
      vertex   0.000000e+00 -8.550654e-01 1.389646e+01
      vertex   0.000000e+00 6.244479e+00 1.367905e+01
      vertex   0.000000e+00 -1.170025e+00 1.367905e+01
    endloop
  endfacet
  facet normal -1.000000e+00 0.000000e+00 0.000000e+00
    outer loop
      vertex   0.000000e+00 -1.170025e+00 1.367905e+01
      vertex   0.000000e+00 6.244479e+00 1.367905e+01
      vertex   0.000000e+00 6.602314e+00 1.354335e+01
    endloop
  endfacet
  facet normal -1.000000e+00 0.000000e+00 -0.000000e+00
    outer loop
      vertex   0.000000e+00 -1.170025e+00 1.367905e+01
      vertex   0.000000e+00 6.602314e+00 1.354335e+01
      vertex   0.000000e+00 -1.527859e+00 1.354335e+01
    endloop
  endfacet
  facet normal -1.000000e+00 0.000000e+00 -0.000000e+00
    outer loop
      vertex   0.000000e+00 -1.527859e+00 1.354335e+01
      vertex   0.000000e+00 6.602314e+00 1.354335e+01
      vertex   0.000000e+00 -6.987773e+00 8.734716e+00
    endloop
  endfacet
  facet normal -1.000000e+00 0.000000e+00 0.000000e+00
    outer loop
      vertex   0.000000e+00 -1.527859e+00 1.354335e+01
      vertex   0.000000e+00 -6.987773e+00 8.734716e+00
      vertex   0.000000e+00 -1.907773e+00 1.349722e+01
    endloop
  endfacet
  facet normal -1.000000e+00 -0.000000e+00 0.000000e+00
    outer loop
      vertex   0.000000e+00 -1.907773e+00 1.349722e+01
      vertex   0.000000e+00 -6.987773e+00 8.734716e+00
      vertex   0.000000e+00 -2.287686e+00 1.354335e+01
    endloop
  endfacet
  facet normal -1.000000e+00 -0.000000e+00 0.000000e+00
    outer loop
      vertex   0.000000e+00 -2.287686e+00 1.354335e+01
      vertex   0.000000e+00 -6.987773e+00 8.734716e+00
      vertex   0.000000e+00 -2.645521e+00 1.367905e+01
    endloop
  endfacet
  facet normal -1.000000e+00 -0.000000e+00 0.000000e+00
    outer loop
      vertex   0.000000e+00 -2.645521e+00 1.367905e+01
      vertex   0.000000e+00 -6.987773e+00 8.734716e+00
      vertex   0.000000e+00 -2.960480e+00 1.389646e+01
    endloop
  endfacet
  facet normal -1.000000e+00 -0.000000e+00 0.000000e+00
    outer loop
      vertex   0.000000e+00 -2.960480e+00 1.389646e+01
      vertex   0.000000e+00 -6.987773e+00 8.734716e+00
      vertex   0.000000e+00 -3.214259e+00 1.418291e+01
    endloop
  endfacet
  facet normal -1.000000e+00 -0.000000e+00 0.000000e+00
    outer loop
      vertex   0.000000e+00 -3.214259e+00 1.418291e+01
      vertex   0.000000e+00 -6.987773e+00 8.734716e+00
      vertex   0.000000e+00 -3.392111e+00 1.452178e+01
    endloop
  endfacet
  facet normal -1.000000e+00 -0.000000e+00 0.000000e+00
    outer loop
      vertex   0.000000e+00 -3.392111e+00 1.452178e+01
      vertex   0.000000e+00 -6.987773e+00 8.734716e+00
      vertex   0.000000e+00 -3.483698e+00 1.489336e+01
    endloop
  endfacet
  facet normal -1.000000e+00 -0.000000e+00 0.000000e+00
    outer loop
      vertex   0.000000e+00 -3.483698e+00 1.489336e+01
      vertex   0.000000e+00 -6.987773e+00 8.734716e+00
      vertex   0.000000e+00 -6.987773e+00 2.143472e+01
    endloop
  endfacet
  facet normal -1.000000e+00 0.000000e+00 0.000000e+00
    outer loop
      vertex   0.000000e+00 -3.483698e+00 1.489336e+01
      vertex   0.000000e+00 -6.987773e+00 2.143472e+01
      vertex   0.000000e+00 -3.483698e+00 1.527607e+01
    endloop
  endfacet
  facet normal -1.000000e+00 0.000000e+00 0.000000e+00
    outer loop
      vertex   0.000000e+00 -3.483698e+00 1.527607e+01
      vertex   0.000000e+00 -6.987773e+00 2.143472e+01
      vertex   0.000000e+00 -3.392111e+00 1.564765e+01
    endloop
  endfacet
  facet normal -1.000000e+00 0.000000e+00 0.000000e+00
    outer loop
      vertex   0.000000e+00 -3.392111e+00 1.564765e+01
      vertex   0.000000e+00 -6.987773e+00 2.143472e+01
      vertex   0.000000e+00 -3.214259e+00 1.598652e+01
    endloop
  endfacet
  facet normal -1.000000e+00 0.000000e+00 0.000000e+00
    outer loop
      vertex   0.000000e+00 -3.214259e+00 1.598652e+01
      vertex   0.000000e+00 -6.987773e+00 2.143472e+01
      vertex   0.000000e+00 -2.960480e+00 1.627298e+01
    endloop
  endfacet
  facet normal -1.000000e+00 0.000000e+00 0.000000e+00
    outer loop
      vertex   0.000000e+00 -2.960480e+00 1.627298e+01
      vertex   0.000000e+00 -6.987773e+00 2.143472e+01
      vertex   0.000000e+00 -2.645521e+00 1.649038e+01
    endloop
  endfacet
  facet normal -1.000000e+00 0.000000e+00 0.000000e+00
    outer loop
      vertex   0.000000e+00 -2.645521e+00 1.649038e+01
      vertex   0.000000e+00 -6.987773e+00 2.143472e+01
      vertex   0.000000e+00 -2.287686e+00 1.662609e+01
    endloop
  endfacet
  facet normal -1.000000e+00 0.000000e+00 0.000000e+00
    outer loop
      vertex   0.000000e+00 -2.287686e+00 1.662609e+01
      vertex   0.000000e+00 -6.987773e+00 2.143472e+01
      vertex   0.000000e+00 -1.907773e+00 1.667222e+01
    endloop
  endfacet
  facet normal -1.000000e+00 0.000000e+00 0.000000e+00
    outer loop
      vertex   0.000000e+00 -6.987773e+00 8.734716e+00
      vertex   0.000000e+00 6.602314e+00 1.354335e+01
      vertex   0.000000e+00 1.206223e+01 8.734716e+00
    endloop
  endfacet
  facet normal -1.000000e+00 0.000000e+00 0.000000e+00
    outer loop
      vertex   0.000000e+00 1.206223e+01 8.734716e+00
      vertex   0.000000e+00 6.602314e+00 1.354335e+01
      vertex   0.000000e+00 6.982228e+00 1.349722e+01
    endloop
  endfacet
  facet normal -1.000000e+00 0.000000e+00 0.000000e+00
    outer loop
      vertex   0.000000e+00 1.206223e+01 8.734716e+00
      vertex   0.000000e+00 6.982228e+00 1.349722e+01
      vertex   0.000000e+00 7.362141e+00 1.354335e+01
    endloop
  endfacet
  facet normal -1.000000e+00 0.000000e+00 0.000000e+00
    outer loop
      vertex   0.000000e+00 7.362141e+00 1.354335e+01
      vertex   0.000000e+00 7.719975e+00 1.367905e+01
      vertex   0.000000e+00 1.206223e+01 8.734716e+00
    endloop
  endfacet
  facet normal -1.000000e+00 0.000000e+00 0.000000e+00
    outer loop
      vertex   0.000000e+00 1.206223e+01 8.734716e+00
      vertex   0.000000e+00 7.719975e+00 1.367905e+01
      vertex   0.000000e+00 8.034934e+00 1.389646e+01
    endloop
  endfacet
  facet normal -1.000000e+00 0.000000e+00 0.000000e+00
    outer loop
      vertex   0.000000e+00 1.206223e+01 8.734716e+00
      vertex   0.000000e+00 8.034934e+00 1.389646e+01
      vertex   0.000000e+00 8.288714e+00 1.418291e+01
    endloop
  endfacet
  facet normal -1.000000e+00 0.000000e+00 0.000000e+00
    outer loop
      vertex   0.000000e+00 8.288714e+00 1.418291e+01
      vertex   0.000000e+00 8.466566e+00 1.452178e+01
      vertex   0.000000e+00 1.206223e+01 8.734716e+00
    endloop
  endfacet
  facet normal -1.000000e+00 0.000000e+00 0.000000e+00
    outer loop
      vertex   0.000000e+00 1.206223e+01 8.734716e+00
      vertex   0.000000e+00 8.466566e+00 1.452178e+01
      vertex   0.000000e+00 8.558153e+00 1.489336e+01
    endloop
  endfacet
  facet normal -1.000000e+00 0.000000e+00 0.000000e+00
    outer loop
      vertex   0.000000e+00 1.206223e+01 8.734716e+00
      vertex   0.000000e+00 8.558153e+00 1.489336e+01
      vertex   0.000000e+00 8.558153e+00 1.527607e+01
    endloop
  endfacet
  facet normal -1.000000e+00 0.000000e+00 0.000000e+00
    outer loop
      vertex   0.000000e+00 1.206223e+01 8.734716e+00
      vertex   0.000000e+00 8.558153e+00 1.527607e+01
      vertex   0.000000e+00 1.206223e+01 2.143472e+01
    endloop
  endfacet
  facet normal -1.000000e+00 0.000000e+00 0.000000e+00
    outer loop
      vertex   0.000000e+00 1.206223e+01 2.143472e+01
      vertex   0.000000e+00 8.558153e+00 1.527607e+01
      vertex   0.000000e+00 8.466566e+00 1.564765e+01
    endloop
  endfacet
  facet normal -1.000000e+00 0.000000e+00 0.000000e+00
    outer loop
      vertex   0.000000e+00 1.206223e+01 2.143472e+01
      vertex   0.000000e+00 8.466566e+00 1.564765e+01
      vertex   0.000000e+00 8.288714e+00 1.598652e+01
    endloop
  endfacet
  facet normal -1.000000e+00 0.000000e+00 0.000000e+00
    outer loop
      vertex   0.000000e+00 8.288714e+00 1.598652e+01
      vertex   0.000000e+00 8.034934e+00 1.627298e+01
      vertex   0.000000e+00 1.206223e+01 2.143472e+01
    endloop
  endfacet
  facet normal -1.000000e+00 0.000000e+00 0.000000e+00
    outer loop
      vertex   0.000000e+00 1.206223e+01 2.143472e+01
      vertex   0.000000e+00 8.034934e+00 1.627298e+01
      vertex   0.000000e+00 7.719975e+00 1.649038e+01
    endloop
  endfacet
  facet normal -1.000000e+00 0.000000e+00 0.000000e+00
    outer loop
      vertex   0.000000e+00 1.206223e+01 2.143472e+01
      vertex   0.000000e+00 7.719975e+00 1.649038e+01
      vertex   0.000000e+00 7.362141e+00 1.662609e+01
    endloop
  endfacet
endsolid
