solid ASCII
  facet normal 0.000000e+00 -7.092538e-01 7.049533e-01
    outer loop
      vertex   -1.702340e+01 0.000000e+00 5.053316e+01
      vertex   -1.702340e+01 5.315085e+00 5.588067e+01
      vertex   -4.242341e+01 0.000000e+00 5.053316e+01
    endloop
  endfacet
  facet normal 0.000000e+00 -7.092538e-01 7.049533e-01
    outer loop
      vertex   -4.242341e+01 0.000000e+00 5.053316e+01
      vertex   -1.702340e+01 5.315085e+00 5.588067e+01
      vertex   -4.242341e+01 5.315085e+00 5.588067e+01
    endloop
  endfacet
  facet normal 0.000000e+00 1.000000e+00 0.000000e+00
    outer loop
      vertex   -1.702340e+01 0.000000e+00 5.067300e+01
      vertex   -1.702340e+01 0.000000e+00 5.053316e+01
      vertex   -4.242341e+01 0.000000e+00 5.067300e+01
    endloop
  endfacet
  facet normal 0.000000e+00 1.000000e+00 0.000000e+00
    outer loop
      vertex   -4.242341e+01 0.000000e+00 5.067300e+01
      vertex   -1.702340e+01 0.000000e+00 5.053316e+01
      vertex   -4.242341e+01 0.000000e+00 5.053316e+01
    endloop
  endfacet
  facet normal -1.000000e+00 -0.000000e+00 -0.000000e+00
    outer loop
      vertex   -4.242341e+01 0.000000e+00 5.067300e+01
      vertex   -4.242341e+01 0.000000e+00 5.053316e+01
      vertex   -4.242341e+01 -2.304915e+00 5.067300e+01
    endloop
  endfacet
  facet normal -1.000000e+00 0.000000e+00 0.000000e+00
    outer loop
      vertex   -4.242341e+01 -2.304915e+00 5.067300e+01
      vertex   -4.242341e+01 0.000000e+00 5.053316e+01
      vertex   -4.242341e+01 3.483641e-01 3.905257e+01
    endloop
  endfacet
  facet normal -1.000000e+00 0.000000e+00 0.000000e+00
    outer loop
      vertex   -4.242341e+01 -2.304915e+00 5.067300e+01
      vertex   -4.242341e+01 3.483641e-01 3.905257e+01
      vertex   -4.242341e+01 1.588851e-01 3.810000e+01
    endloop
  endfacet
  facet normal -1.000000e+00 0.000000e+00 0.000000e+00
    outer loop
      vertex   -4.242341e+01 5.315085e+00 5.588067e+01
      vertex   -4.242341e+01 2.648085e+00 4.058920e+01
      vertex   -4.242341e+01 0.000000e+00 5.053316e+01
    endloop
  endfacet
  facet normal -1.000000e+00 0.000000e+00 0.000000e+00
    outer loop
      vertex   -4.242341e+01 0.000000e+00 5.053316e+01
      vertex   -4.242341e+01 2.648085e+00 4.058920e+01
      vertex   -4.242341e+01 1.695509e+00 4.039972e+01
    endloop
  endfacet
  facet normal -1.000000e+00 0.000000e+00 0.000000e+00
    outer loop
      vertex   -4.242341e+01 0.000000e+00 5.053316e+01
      vertex   -4.242341e+01 1.695509e+00 4.039972e+01
      vertex   -4.242341e+01 8.879548e-01 3.986013e+01
    endloop
  endfacet
  facet normal -1.000000e+00 0.000000e+00 0.000000e+00
    outer loop
      vertex   -4.242341e+01 5.315085e+00 7.607300e+01
      vertex   -4.242341e+01 1.522109e+01 5.588826e+01
      vertex   -4.242341e+01 5.315085e+00 5.588067e+01
    endloop
  endfacet
  facet normal -1.000000e+00 0.000000e+00 -0.000000e+00
    outer loop
      vertex   -4.242341e+01 5.315085e+00 5.588067e+01
      vertex   -4.242341e+01 1.522109e+01 5.588826e+01
      vertex   -4.242341e+01 5.137285e+00 3.810000e+01
    endloop
  endfacet
  facet normal -1.000000e+00 0.000000e+00 0.000000e+00
    outer loop
      vertex   -4.242341e+01 5.315085e+00 5.588067e+01
      vertex   -4.242341e+01 5.137285e+00 3.810000e+01
      vertex   -4.242341e+01 4.947806e+00 3.905257e+01
    endloop
  endfacet
  facet normal -1.000000e+00 0.000000e+00 0.000000e+00
    outer loop
      vertex   -4.242341e+01 5.315085e+00 7.607300e+01
      vertex   -4.242341e+01 1.522109e+01 7.607300e+01
      vertex   -4.242341e+01 1.522109e+01 5.588826e+01
    endloop
  endfacet
  facet normal -1.000000e+00 0.000000e+00 0.000000e+00
    outer loop
      vertex   -4.242341e+01 5.137285e+00 3.810000e+01
      vertex   -4.242341e+01 1.522109e+01 5.588826e+01
      vertex   -4.242341e+01 1.522109e+01 -5.078716e+00
    endloop
  endfacet
  facet normal -1.000000e+00 0.000000e+00 0.000000e+00
    outer loop
      vertex   -4.242341e+01 1.522109e+01 -5.078716e+00
      vertex   -4.242341e+01 1.522109e+01 5.588826e+01
      vertex   -4.242341e+01 2.037559e+01 5.067300e+01
    endloop
  endfacet
  facet normal -1.000000e+00 0.000000e+00 0.000000e+00
    outer loop
      vertex   -4.242341e+01 1.522109e+01 -5.078716e+00
      vertex   -4.242341e+01 2.037559e+01 5.067300e+01
      vertex   -4.242341e+01 2.037559e+01 1.270000e-01
    endloop
  endfacet
  facet normal -1.000000e+00 0.000000e+00 0.000000e+00
    outer loop
      vertex   -4.242341e+01 2.037559e+01 1.270000e-01
      vertex   -4.242341e+01 2.037559e+01 5.067300e+01
      vertex   -4.242341e+01 2.284108e+01 1.270000e-01
    endloop
  endfacet
  facet normal -1.000000e+00 0.000000e+00 0.000000e+00
    outer loop
      vertex   -4.242341e+01 2.284108e+01 1.270000e-01
      vertex   -4.242341e+01 2.037559e+01 5.067300e+01
      vertex   -4.242341e+01 2.284108e+01 5.067300e+01
    endloop
  endfacet
  facet normal -1.000000e+00 0.000000e+00 0.000000e+00
    outer loop
      vertex   -4.242341e+01 1.522109e+01 -2.527300e+01
      vertex   -4.242341e+01 5.315085e+00 -2.527300e+01
      vertex   -4.242341e+01 1.522109e+01 -5.078716e+00
    endloop
  endfacet
  facet normal -1.000000e+00 -0.000000e+00 0.000000e+00
    outer loop
      vertex   -4.242341e+01 1.522109e+01 -5.078716e+00
      vertex   -4.242341e+01 5.315085e+00 -2.527300e+01
      vertex   -4.242341e+01 5.315085e+00 -5.078716e+00
    endloop
  endfacet
  facet normal -1.000000e+00 0.000000e+00 0.000000e+00
    outer loop
      vertex   -4.242341e+01 1.522109e+01 -5.078716e+00
      vertex   -4.242341e+01 5.315085e+00 -5.078716e+00
      vertex   -4.242341e+01 5.137285e+00 1.270000e+01
    endloop
  endfacet
  facet normal -1.000000e+00 0.000000e+00 -0.000000e+00
    outer loop
      vertex   -4.242341e+01 5.137285e+00 1.270000e+01
      vertex   -4.242341e+01 5.315085e+00 -5.078716e+00
      vertex   -4.242341e+01 4.947806e+00 1.174742e+01
    endloop
  endfacet
  facet normal -1.000000e+00 0.000000e+00 -0.000000e+00
    outer loop
      vertex   -4.242341e+01 4.947806e+00 1.174742e+01
      vertex   -4.242341e+01 5.315085e+00 -5.078716e+00
      vertex   -4.242341e+01 4.408215e+00 1.093987e+01
    endloop
  endfacet
  facet normal -1.000000e+00 0.000000e+00 -0.000000e+00
    outer loop
      vertex   -4.242341e+01 4.408215e+00 1.093987e+01
      vertex   -4.242341e+01 5.315085e+00 -5.078716e+00
      vertex   -4.242341e+01 3.600661e+00 1.040028e+01
    endloop
  endfacet
  facet normal -1.000000e+00 0.000000e+00 -0.000000e+00
    outer loop
      vertex   -4.242341e+01 3.600661e+00 1.040028e+01
      vertex   -4.242341e+01 5.315085e+00 -5.078716e+00
      vertex   -4.242341e+01 2.648085e+00 1.021080e+01
    endloop
  endfacet
  facet normal -1.000000e+00 0.000000e+00 -0.000000e+00
    outer loop
      vertex   -4.242341e+01 2.648085e+00 1.021080e+01
      vertex   -4.242341e+01 5.315085e+00 -5.078716e+00
      vertex   -4.242341e+01 1.088762e-01 1.270000e-01
    endloop
  endfacet
  facet normal -1.000000e+00 -0.000000e+00 0.000000e+00
    outer loop
      vertex   -4.242341e+01 2.648085e+00 1.021080e+01
      vertex   -4.242341e+01 1.088762e-01 1.270000e-01
      vertex   -4.242341e+01 1.695509e+00 1.040028e+01
    endloop
  endfacet
  facet normal -1.000000e+00 -0.000000e+00 0.000000e+00
    outer loop
      vertex   -4.242341e+01 1.695509e+00 1.040028e+01
      vertex   -4.242341e+01 1.088762e-01 1.270000e-01
      vertex   -4.242341e+01 8.879548e-01 1.093987e+01
    endloop
  endfacet
  facet normal -1.000000e+00 -0.000000e+00 0.000000e+00
    outer loop
      vertex   -4.242341e+01 8.879548e-01 1.093987e+01
      vertex   -4.242341e+01 1.088762e-01 1.270000e-01
      vertex   -4.242341e+01 3.483641e-01 1.174742e+01
    endloop
  endfacet
  facet normal -1.000000e+00 0.000000e+00 0.000000e+00
    outer loop
      vertex   -4.242341e+01 3.483641e-01 1.174742e+01
      vertex   -4.242341e+01 1.088762e-01 1.270000e-01
      vertex   -4.242341e+01 -2.304915e+00 1.270000e-01
    endloop
  endfacet
  facet normal -1.000000e+00 -0.000000e+00 0.000000e+00
    outer loop
      vertex   -4.242341e+01 3.483641e-01 1.174742e+01
      vertex   -4.242341e+01 -2.304915e+00 1.270000e-01
      vertex   -4.242341e+01 1.588851e-01 1.270000e+01
    endloop
  endfacet
  facet normal -1.000000e+00 -0.000000e+00 0.000000e+00
    outer loop
      vertex   -4.242341e+01 1.588851e-01 1.270000e+01
      vertex   -4.242341e+01 -2.304915e+00 1.270000e-01
      vertex   -4.242341e+01 1.588851e-01 3.810000e+01
    endloop
  endfacet
  facet normal -1.000000e+00 0.000000e+00 0.000000e+00
    outer loop
      vertex   -4.242341e+01 1.588851e-01 1.270000e+01
      vertex   -4.242341e+01 1.588851e-01 3.810000e+01
      vertex   -4.242341e+01 3.483641e-01 3.714742e+01
    endloop
  endfacet
  facet normal -1.000000e+00 0.000000e+00 0.000000e+00
    outer loop
      vertex   -4.242341e+01 -2.304915e+00 1.270000e-01
      vertex   -4.242341e+01 -2.304915e+00 5.067300e+01
      vertex   -4.242341e+01 1.588851e-01 3.810000e+01
    endloop
  endfacet
  facet normal -1.000000e+00 -0.000000e+00 0.000000e+00
    outer loop
      vertex   -4.242341e+01 8.879548e-01 3.986013e+01
      vertex   -4.242341e+01 3.483641e-01 3.905257e+01
      vertex   -4.242341e+01 0.000000e+00 5.053316e+01
    endloop
  endfacet
  facet normal -1.000000e+00 0.000000e+00 0.000000e+00
    outer loop
      vertex   -4.242341e+01 1.588851e-01 1.270000e+01
      vertex   -4.242341e+01 3.483641e-01 3.714742e+01
      vertex   -4.242341e+01 3.483641e-01 1.365258e+01
    endloop
  endfacet
  facet normal -1.000000e+00 0.000000e+00 0.000000e+00
    outer loop
      vertex   -4.242341e+01 3.483641e-01 1.365258e+01
      vertex   -4.242341e+01 3.483641e-01 3.714742e+01
      vertex   -4.242341e+01 8.879548e-01 3.633987e+01
    endloop
  endfacet
  facet normal -1.000000e+00 0.000000e+00 0.000000e+00
    outer loop
      vertex   -4.242341e+01 3.483641e-01 1.365258e+01
      vertex   -4.242341e+01 8.879548e-01 3.633987e+01
      vertex   -4.242341e+01 8.879548e-01 1.446013e+01
    endloop
  endfacet
  facet normal -1.000000e+00 0.000000e+00 0.000000e+00
    outer loop
      vertex   -4.242341e+01 8.879548e-01 1.446013e+01
      vertex   -4.242341e+01 8.879548e-01 3.633987e+01
      vertex   -4.242341e+01 1.695509e+00 3.580028e+01
    endloop
  endfacet
  facet normal -1.000000e+00 0.000000e+00 0.000000e+00
    outer loop
      vertex   -4.242341e+01 8.879548e-01 1.446013e+01
      vertex   -4.242341e+01 1.695509e+00 3.580028e+01
      vertex   -4.242341e+01 1.695509e+00 1.499972e+01
    endloop
  endfacet
  facet normal -1.000000e+00 0.000000e+00 0.000000e+00
    outer loop
      vertex   -4.242341e+01 1.695509e+00 1.499972e+01
      vertex   -4.242341e+01 1.695509e+00 3.580028e+01
      vertex   -4.242341e+01 2.648085e+00 3.561080e+01
    endloop
  endfacet
  facet normal -1.000000e+00 0.000000e+00 0.000000e+00
    outer loop
      vertex   -4.242341e+01 1.695509e+00 1.499972e+01
      vertex   -4.242341e+01 2.648085e+00 3.561080e+01
      vertex   -4.242341e+01 2.648085e+00 1.518920e+01
    endloop
  endfacet
  facet normal -1.000000e+00 0.000000e+00 0.000000e+00
    outer loop
      vertex   -4.242341e+01 2.648085e+00 1.518920e+01
      vertex   -4.242341e+01 2.648085e+00 3.561080e+01
      vertex   -4.242341e+01 3.600661e+00 1.499972e+01
    endloop
  endfacet
  facet normal -1.000000e+00 0.000000e+00 0.000000e+00
    outer loop
      vertex   -4.242341e+01 3.600661e+00 1.499972e+01
      vertex   -4.242341e+01 2.648085e+00 3.561080e+01
      vertex   -4.242341e+01 3.600661e+00 3.580028e+01
    endloop
  endfacet
  facet normal -1.000000e+00 0.000000e+00 0.000000e+00
    outer loop
      vertex   -4.242341e+01 3.600661e+00 1.499972e+01
      vertex   -4.242341e+01 3.600661e+00 3.580028e+01
      vertex   -4.242341e+01 4.408215e+00 1.446013e+01
    endloop
  endfacet
  facet normal -1.000000e+00 0.000000e+00 0.000000e+00
    outer loop
      vertex   -4.242341e+01 4.408215e+00 1.446013e+01
      vertex   -4.242341e+01 3.600661e+00 3.580028e+01
      vertex   -4.242341e+01 4.408215e+00 3.633987e+01
    endloop
  endfacet
  facet normal -1.000000e+00 0.000000e+00 0.000000e+00
    outer loop
      vertex   -4.242341e+01 4.408215e+00 1.446013e+01
      vertex   -4.242341e+01 4.408215e+00 3.633987e+01
      vertex   -4.242341e+01 4.947806e+00 3.714742e+01
    endloop
  endfacet
  facet normal -1.000000e+00 0.000000e+00 0.000000e+00
    outer loop
      vertex   -4.242341e+01 4.408215e+00 1.446013e+01
      vertex   -4.242341e+01 4.947806e+00 3.714742e+01
      vertex   -4.242341e+01 4.947806e+00 1.365258e+01
    endloop
  endfacet
  facet normal -1.000000e+00 0.000000e+00 0.000000e+00
    outer loop
      vertex   -4.242341e+01 4.947806e+00 1.365258e+01
      vertex   -4.242341e+01 4.947806e+00 3.714742e+01
      vertex   -4.242341e+01 5.137285e+00 3.810000e+01
    endloop
  endfacet
  facet normal -1.000000e+00 0.000000e+00 0.000000e+00
    outer loop
      vertex   -4.242341e+01 4.947806e+00 1.365258e+01
      vertex   -4.242341e+01 5.137285e+00 3.810000e+01
      vertex   -4.242341e+01 5.137285e+00 1.270000e+01
    endloop
  endfacet
  facet normal -1.000000e+00 0.000000e+00 0.000000e+00
    outer loop
      vertex   -4.242341e+01 5.137285e+00 1.270000e+01
      vertex   -4.242341e+01 5.137285e+00 3.810000e+01
      vertex   -4.242341e+01 1.522109e+01 -5.078716e+00
    endloop
  endfacet
  facet normal -1.000000e+00 0.000000e+00 0.000000e+00
    outer loop
      vertex   -4.242341e+01 4.947806e+00 3.905257e+01
      vertex   -4.242341e+01 4.408215e+00 3.986013e+01
      vertex   -4.242341e+01 5.315085e+00 5.588067e+01
    endloop
  endfacet
  facet normal -1.000000e+00 0.000000e+00 0.000000e+00
    outer loop
      vertex   -4.242341e+01 5.315085e+00 5.588067e+01
      vertex   -4.242341e+01 4.408215e+00 3.986013e+01
      vertex   -4.242341e+01 3.600661e+00 4.039972e+01
    endloop
  endfacet
  facet normal -1.000000e+00 0.000000e+00 0.000000e+00
    outer loop
      vertex   -4.242341e+01 5.315085e+00 5.588067e+01
      vertex   -4.242341e+01 3.600661e+00 4.039972e+01
      vertex   -4.242341e+01 2.648085e+00 4.058920e+01
    endloop
  endfacet
  facet normal 0.000000e+00 7.112380e-01 7.029513e-01
    outer loop
      vertex   -1.702340e+01 1.522109e+01 5.588826e+01
      vertex   -1.702340e+01 2.037559e+01 5.067300e+01
      vertex   -4.242341e+01 1.522109e+01 5.588826e+01
    endloop
  endfacet
  facet normal 0.000000e+00 7.112380e-01 7.029513e-01
    outer loop
      vertex   -4.242341e+01 1.522109e+01 5.588826e+01
      vertex   -1.702340e+01 2.037559e+01 5.067300e+01
      vertex   -4.242341e+01 2.037559e+01 5.067300e+01
    endloop
  endfacet
  facet normal 0.000000e+00 7.105937e-01 -7.036026e-01
    outer loop
      vertex   -1.702340e+01 2.037559e+01 1.270000e-01
      vertex   -1.702340e+01 1.522109e+01 -5.078716e+00
      vertex   -4.242341e+01 2.037559e+01 1.270000e-01
    endloop
  endfacet
  facet normal 0.000000e+00 7.105937e-01 -7.036026e-01
    outer loop
      vertex   -4.242341e+01 2.037559e+01 1.270000e-01
      vertex   -1.702340e+01 1.522109e+01 -5.078716e+00
      vertex   -4.242341e+01 1.522109e+01 -5.078716e+00
    endloop
  endfacet
  facet normal 1.000000e+00 0.000000e+00 0.000000e+00
    outer loop
      vertex   -1.702340e+01 0.000000e+00 5.067300e+01
      vertex   -1.702340e+01 -2.304915e+00 5.067300e+01
      vertex   -1.702340e+01 0.000000e+00 5.053316e+01
    endloop
  endfacet
  facet normal 1.000000e+00 0.000000e+00 0.000000e+00
    outer loop
      vertex   -1.702340e+01 0.000000e+00 5.053316e+01
      vertex   -1.702340e+01 -2.304915e+00 5.067300e+01
      vertex   -1.702340e+01 3.483641e-01 3.905257e+01
    endloop
  endfacet
  facet normal 1.000000e+00 0.000000e+00 0.000000e+00
    outer loop
      vertex   -1.702340e+01 0.000000e+00 5.053316e+01
      vertex   -1.702340e+01 3.483641e-01 3.905257e+01
      vertex   -1.702340e+01 8.879548e-01 3.986013e+01
    endloop
  endfacet
  facet normal 1.000000e+00 0.000000e+00 0.000000e+00
    outer loop
      vertex   -1.702340e+01 3.483641e-01 3.905257e+01
      vertex   -1.702340e+01 -2.304915e+00 5.067300e+01
      vertex   -1.702340e+01 1.588851e-01 3.810000e+01
    endloop
  endfacet
  facet normal 1.000000e+00 0.000000e+00 0.000000e+00
    outer loop
      vertex   -1.702340e+01 1.588851e-01 3.810000e+01
      vertex   -1.702340e+01 -2.304915e+00 5.067300e+01
      vertex   -1.702340e+01 -2.304915e+00 1.270000e-01
    endloop
  endfacet
  facet normal 1.000000e+00 0.000000e+00 0.000000e+00
    outer loop
      vertex   -1.702340e+01 1.588851e-01 3.810000e+01
      vertex   -1.702340e+01 -2.304915e+00 1.270000e-01
      vertex   -1.702340e+01 1.588851e-01 1.270000e+01
    endloop
  endfacet
  facet normal 1.000000e+00 0.000000e+00 0.000000e+00
    outer loop
      vertex   -1.702340e+01 1.588851e-01 1.270000e+01
      vertex   -1.702340e+01 -2.304915e+00 1.270000e-01
      vertex   -1.702340e+01 3.483641e-01 1.174742e+01
    endloop
  endfacet
  facet normal 1.000000e+00 0.000000e+00 0.000000e+00
    outer loop
      vertex   -1.702340e+01 3.483641e-01 1.174742e+01
      vertex   -1.702340e+01 -2.304915e+00 1.270000e-01
      vertex   -1.702340e+01 1.088762e-01 1.270000e-01
    endloop
  endfacet
  facet normal 1.000000e+00 0.000000e+00 0.000000e+00
    outer loop
      vertex   -1.702340e+01 3.483641e-01 1.174742e+01
      vertex   -1.702340e+01 1.088762e-01 1.270000e-01
      vertex   -1.702340e+01 8.879548e-01 1.093987e+01
    endloop
  endfacet
  facet normal 1.000000e+00 0.000000e+00 0.000000e+00
    outer loop
      vertex   -1.702340e+01 8.879548e-01 1.093987e+01
      vertex   -1.702340e+01 1.088762e-01 1.270000e-01
      vertex   -1.702340e+01 1.695509e+00 1.040028e+01
    endloop
  endfacet
  facet normal 1.000000e+00 0.000000e+00 0.000000e+00
    outer loop
      vertex   -1.702340e+01 1.695509e+00 1.040028e+01
      vertex   -1.702340e+01 1.088762e-01 1.270000e-01
      vertex   -1.702340e+01 2.648085e+00 1.021080e+01
    endloop
  endfacet
  facet normal 1.000000e+00 0.000000e+00 0.000000e+00
    outer loop
      vertex   -1.702340e+01 2.648085e+00 1.021080e+01
      vertex   -1.702340e+01 1.088762e-01 1.270000e-01
      vertex   -1.702340e+01 5.315085e+00 -5.078716e+00
    endloop
  endfacet
  facet normal 1.000000e+00 -0.000000e+00 0.000000e+00
    outer loop
      vertex   -1.702340e+01 2.648085e+00 1.021080e+01
      vertex   -1.702340e+01 5.315085e+00 -5.078716e+00
      vertex   -1.702340e+01 3.600661e+00 1.040028e+01
    endloop
  endfacet
  facet normal 1.000000e+00 -0.000000e+00 0.000000e+00
    outer loop
      vertex   -1.702340e+01 3.600661e+00 1.040028e+01
      vertex   -1.702340e+01 5.315085e+00 -5.078716e+00
      vertex   -1.702340e+01 4.408215e+00 1.093987e+01
    endloop
  endfacet
  facet normal 1.000000e+00 -0.000000e+00 0.000000e+00
    outer loop
      vertex   -1.702340e+01 4.408215e+00 1.093987e+01
      vertex   -1.702340e+01 5.315085e+00 -5.078716e+00
      vertex   -1.702340e+01 4.947806e+00 1.174742e+01
    endloop
  endfacet
  facet normal 1.000000e+00 -0.000000e+00 0.000000e+00
    outer loop
      vertex   -1.702340e+01 4.947806e+00 1.174742e+01
      vertex   -1.702340e+01 5.315085e+00 -5.078716e+00
      vertex   -1.702340e+01 5.137285e+00 1.270000e+01
    endloop
  endfacet
  facet normal 1.000000e+00 0.000000e+00 0.000000e+00
    outer loop
      vertex   -1.702340e+01 5.137285e+00 1.270000e+01
      vertex   -1.702340e+01 5.315085e+00 -5.078716e+00
      vertex   -1.702340e+01 1.522109e+01 -5.078716e+00
    endloop
  endfacet
  facet normal 1.000000e+00 -0.000000e+00 0.000000e+00
    outer loop
      vertex   -1.702340e+01 5.137285e+00 1.270000e+01
      vertex   -1.702340e+01 1.522109e+01 -5.078716e+00
      vertex   -1.702340e+01 5.137285e+00 3.810000e+01
    endloop
  endfacet
  facet normal 1.000000e+00 -0.000000e+00 0.000000e+00
    outer loop
      vertex   -1.702340e+01 5.137285e+00 3.810000e+01
      vertex   -1.702340e+01 1.522109e+01 -5.078716e+00
      vertex   -1.702340e+01 1.522109e+01 5.588826e+01
    endloop
  endfacet
  facet normal 1.000000e+00 0.000000e+00 0.000000e+00
    outer loop
      vertex   -1.702340e+01 5.137285e+00 3.810000e+01
      vertex   -1.702340e+01 1.522109e+01 5.588826e+01
      vertex   -1.702340e+01 5.315085e+00 5.588067e+01
    endloop
  endfacet
  facet normal 1.000000e+00 0.000000e+00 0.000000e+00
    outer loop
      vertex   -1.702340e+01 5.315085e+00 5.588067e+01
      vertex   -1.702340e+01 1.522109e+01 5.588826e+01
      vertex   -1.702340e+01 5.315085e+00 7.607300e+01
    endloop
  endfacet
  facet normal 1.000000e+00 -0.000000e+00 0.000000e+00
    outer loop
      vertex   -1.702340e+01 5.315085e+00 7.607300e+01
      vertex   -1.702340e+01 1.522109e+01 5.588826e+01
      vertex   -1.702340e+01 1.522109e+01 7.607300e+01
    endloop
  endfacet
  facet normal 1.000000e+00 0.000000e+00 0.000000e+00
    outer loop
      vertex   -1.702340e+01 5.315085e+00 -2.527300e+01
      vertex   -1.702340e+01 1.522109e+01 -2.527300e+01
      vertex   -1.702340e+01 5.315085e+00 -5.078716e+00
    endloop
  endfacet
  facet normal 1.000000e+00 -0.000000e+00 0.000000e+00
    outer loop
      vertex   -1.702340e+01 5.315085e+00 -5.078716e+00
      vertex   -1.702340e+01 1.522109e+01 -2.527300e+01
      vertex   -1.702340e+01 1.522109e+01 -5.078716e+00
    endloop
  endfacet
  facet normal 1.000000e+00 0.000000e+00 0.000000e+00
    outer loop
      vertex   -1.702340e+01 1.522109e+01 5.588826e+01
      vertex   -1.702340e+01 1.522109e+01 -5.078716e+00
      vertex   -1.702340e+01 2.037559e+01 5.067300e+01
    endloop
  endfacet
  facet normal 1.000000e+00 0.000000e+00 0.000000e+00
    outer loop
      vertex   -1.702340e+01 2.037559e+01 5.067300e+01
      vertex   -1.702340e+01 1.522109e+01 -5.078716e+00
      vertex   -1.702340e+01 2.037559e+01 1.270000e-01
    endloop
  endfacet
  facet normal 1.000000e+00 0.000000e+00 0.000000e+00
    outer loop
      vertex   -1.702340e+01 2.037559e+01 5.067300e+01
      vertex   -1.702340e+01 2.037559e+01 1.270000e-01
      vertex   -1.702340e+01 2.284108e+01 1.270000e-01
    endloop
  endfacet
  facet normal 1.000000e+00 0.000000e+00 -0.000000e+00
    outer loop
      vertex   -1.702340e+01 2.284108e+01 1.270000e-01
      vertex   -1.702340e+01 2.284108e+01 5.067300e+01
      vertex   -1.702340e+01 2.037559e+01 5.067300e+01
    endloop
  endfacet
  facet normal 1.000000e+00 -0.000000e+00 0.000000e+00
    outer loop
      vertex   -1.702340e+01 0.000000e+00 5.053316e+01
      vertex   -1.702340e+01 2.648085e+00 4.058920e+01
      vertex   -1.702340e+01 5.315085e+00 5.588067e+01
    endloop
  endfacet
  facet normal 1.000000e+00 0.000000e+00 0.000000e+00
    outer loop
      vertex   -1.702340e+01 5.315085e+00 5.588067e+01
      vertex   -1.702340e+01 2.648085e+00 4.058920e+01
      vertex   -1.702340e+01 3.600661e+00 4.039972e+01
    endloop
  endfacet
  facet normal 1.000000e+00 0.000000e+00 0.000000e+00
    outer loop
      vertex   -1.702340e+01 5.315085e+00 5.588067e+01
      vertex   -1.702340e+01 3.600661e+00 4.039972e+01
      vertex   -1.702340e+01 4.408215e+00 3.986013e+01
    endloop
  endfacet
  facet normal 1.000000e+00 0.000000e+00 0.000000e+00
    outer loop
      vertex   -1.702340e+01 1.588851e-01 3.810000e+01
      vertex   -1.702340e+01 1.588851e-01 1.270000e+01
      vertex   -1.702340e+01 3.483641e-01 3.714742e+01
    endloop
  endfacet
  facet normal 1.000000e+00 0.000000e+00 0.000000e+00
    outer loop
      vertex   -1.702340e+01 3.483641e-01 3.714742e+01
      vertex   -1.702340e+01 1.588851e-01 1.270000e+01
      vertex   -1.702340e+01 3.483641e-01 1.365258e+01
    endloop
  endfacet
  facet normal 1.000000e+00 0.000000e+00 0.000000e+00
    outer loop
      vertex   -1.702340e+01 3.483641e-01 3.714742e+01
      vertex   -1.702340e+01 3.483641e-01 1.365258e+01
      vertex   -1.702340e+01 8.879548e-01 3.633987e+01
    endloop
  endfacet
  facet normal 1.000000e+00 0.000000e+00 0.000000e+00
    outer loop
      vertex   -1.702340e+01 8.879548e-01 3.633987e+01
      vertex   -1.702340e+01 3.483641e-01 1.365258e+01
      vertex   -1.702340e+01 8.879548e-01 1.446013e+01
    endloop
  endfacet
  facet normal 1.000000e+00 0.000000e+00 0.000000e+00
    outer loop
      vertex   -1.702340e+01 8.879548e-01 3.633987e+01
      vertex   -1.702340e+01 8.879548e-01 1.446013e+01
      vertex   -1.702340e+01 1.695509e+00 3.580028e+01
    endloop
  endfacet
  facet normal 1.000000e+00 0.000000e+00 0.000000e+00
    outer loop
      vertex   -1.702340e+01 1.695509e+00 3.580028e+01
      vertex   -1.702340e+01 8.879548e-01 1.446013e+01
      vertex   -1.702340e+01 1.695509e+00 1.499972e+01
    endloop
  endfacet
  facet normal 1.000000e+00 0.000000e+00 0.000000e+00
    outer loop
      vertex   -1.702340e+01 1.695509e+00 3.580028e+01
      vertex   -1.702340e+01 1.695509e+00 1.499972e+01
      vertex   -1.702340e+01 2.648085e+00 3.561080e+01
    endloop
  endfacet
  facet normal 1.000000e+00 0.000000e+00 0.000000e+00
    outer loop
      vertex   -1.702340e+01 2.648085e+00 3.561080e+01
      vertex   -1.702340e+01 1.695509e+00 1.499972e+01
      vertex   -1.702340e+01 2.648085e+00 1.518920e+01
    endloop
  endfacet
  facet normal 1.000000e+00 0.000000e+00 0.000000e+00
    outer loop
      vertex   -1.702340e+01 2.648085e+00 3.561080e+01
      vertex   -1.702340e+01 2.648085e+00 1.518920e+01
      vertex   -1.702340e+01 3.600661e+00 1.499972e+01
    endloop
  endfacet
  facet normal 1.000000e+00 -0.000000e+00 0.000000e+00
    outer loop
      vertex   -1.702340e+01 2.648085e+00 3.561080e+01
      vertex   -1.702340e+01 3.600661e+00 1.499972e+01
      vertex   -1.702340e+01 3.600661e+00 3.580028e+01
    endloop
  endfacet
  facet normal 1.000000e+00 0.000000e+00 0.000000e+00
    outer loop
      vertex   -1.702340e+01 3.600661e+00 3.580028e+01
      vertex   -1.702340e+01 3.600661e+00 1.499972e+01
      vertex   -1.702340e+01 4.408215e+00 1.446013e+01
    endloop
  endfacet
  facet normal 1.000000e+00 -0.000000e+00 0.000000e+00
    outer loop
      vertex   -1.702340e+01 3.600661e+00 3.580028e+01
      vertex   -1.702340e+01 4.408215e+00 1.446013e+01
      vertex   -1.702340e+01 4.408215e+00 3.633987e+01
    endloop
  endfacet
  facet normal 1.000000e+00 -0.000000e+00 0.000000e+00
    outer loop
      vertex   -1.702340e+01 4.408215e+00 3.633987e+01
      vertex   -1.702340e+01 4.408215e+00 1.446013e+01
      vertex   -1.702340e+01 4.947806e+00 3.714742e+01
    endloop
  endfacet
  facet normal 1.000000e+00 0.000000e+00 0.000000e+00
    outer loop
      vertex   -1.702340e+01 4.947806e+00 3.714742e+01
      vertex   -1.702340e+01 4.408215e+00 1.446013e+01
      vertex   -1.702340e+01 4.947806e+00 1.365258e+01
    endloop
  endfacet
  facet normal 1.000000e+00 -0.000000e+00 0.000000e+00
    outer loop
      vertex   -1.702340e+01 4.947806e+00 3.714742e+01
      vertex   -1.702340e+01 4.947806e+00 1.365258e+01
      vertex   -1.702340e+01 5.137285e+00 3.810000e+01
    endloop
  endfacet
  facet normal 1.000000e+00 0.000000e+00 0.000000e+00
    outer loop
      vertex   -1.702340e+01 5.137285e+00 3.810000e+01
      vertex   -1.702340e+01 4.947806e+00 1.365258e+01
      vertex   -1.702340e+01 5.137285e+00 1.270000e+01
    endloop
  endfacet
  facet normal 1.000000e+00 0.000000e+00 -0.000000e+00
    outer loop
      vertex   -1.702340e+01 8.879548e-01 3.986013e+01
      vertex   -1.702340e+01 1.695509e+00 4.039972e+01
      vertex   -1.702340e+01 0.000000e+00 5.053316e+01
    endloop
  endfacet
  facet normal 1.000000e+00 0.000000e+00 0.000000e+00
    outer loop
      vertex   -1.702340e+01 0.000000e+00 5.053316e+01
      vertex   -1.702340e+01 1.695509e+00 4.039972e+01
      vertex   -1.702340e+01 2.648085e+00 4.058920e+01
    endloop
  endfacet
  facet normal 1.000000e+00 -0.000000e+00 0.000000e+00
    outer loop
      vertex   -1.702340e+01 4.408215e+00 3.986013e+01
      vertex   -1.702340e+01 4.947806e+00 3.905257e+01
      vertex   -1.702340e+01 5.315085e+00 5.588067e+01
    endloop
  endfacet
  facet normal 1.000000e+00 0.000000e+00 0.000000e+00
    outer loop
      vertex   -1.702340e+01 5.315085e+00 5.588067e+01
      vertex   -1.702340e+01 4.947806e+00 3.905257e+01
      vertex   -1.702340e+01 5.137285e+00 3.810000e+01
    endloop
  endfacet
  facet normal -0.000000e+00 -7.070733e-01 -7.071402e-01
    outer loop
      vertex   -1.702340e+01 5.315085e+00 -5.078716e+00
      vertex   -1.702340e+01 1.088762e-01 1.270000e-01
      vertex   -4.242341e+01 5.315085e+00 -5.078716e+00
    endloop
  endfacet
  facet normal 0.000000e+00 -7.070733e-01 -7.071402e-01
    outer loop
      vertex   -4.242341e+01 5.315085e+00 -5.078716e+00
      vertex   -1.702340e+01 1.088762e-01 1.270000e-01
      vertex   -4.242341e+01 1.088762e-01 1.270000e-01
    endloop
  endfacet
  facet normal 0.000000e+00 1.000000e+00 0.000000e+00
    outer loop
      vertex   -1.702340e+01 2.284108e+01 5.067300e+01
      vertex   -1.702340e+01 2.284108e+01 1.270000e-01
      vertex   -4.242341e+01 2.284108e+01 5.067300e+01
    endloop
  endfacet
  facet normal 0.000000e+00 1.000000e+00 0.000000e+00
    outer loop
      vertex   -4.242341e+01 2.284108e+01 5.067300e+01
      vertex   -1.702340e+01 2.284108e+01 1.270000e-01
      vertex   -4.242341e+01 2.284108e+01 1.270000e-01
    endloop
  endfacet
  facet normal -0.000000e+00 -0.000000e+00 -1.000000e+00
    outer loop
      vertex   -1.702340e+01 2.284108e+01 1.270000e-01
      vertex   -1.702340e+01 2.037559e+01 1.270000e-01
      vertex   -4.242341e+01 2.284108e+01 1.270000e-01
    endloop
  endfacet
  facet normal 0.000000e+00 0.000000e+00 -1.000000e+00
    outer loop
      vertex   -4.242341e+01 2.284108e+01 1.270000e-01
      vertex   -1.702340e+01 2.037559e+01 1.270000e-01
      vertex   -4.242341e+01 2.037559e+01 1.270000e-01
    endloop
  endfacet
  facet normal 0.000000e+00 -0.000000e+00 1.000000e+00
    outer loop
      vertex   -1.702340e+01 2.037559e+01 5.067300e+01
      vertex   -1.702340e+01 2.284108e+01 5.067300e+01
      vertex   -4.242341e+01 2.037559e+01 5.067300e+01
    endloop
  endfacet
  facet normal 0.000000e+00 0.000000e+00 1.000000e+00
    outer loop
      vertex   -4.242341e+01 2.037559e+01 5.067300e+01
      vertex   -1.702340e+01 2.284108e+01 5.067300e+01
      vertex   -4.242341e+01 2.284108e+01 5.067300e+01
    endloop
  endfacet
  facet normal -0.000000e+00 -0.000000e+00 -1.000000e+00
    outer loop
      vertex   -1.702340e+01 1.088762e-01 1.270000e-01
      vertex   -1.702340e+01 -2.304915e+00 1.270000e-01
      vertex   -4.242341e+01 1.088762e-01 1.270000e-01
    endloop
  endfacet
  facet normal 0.000000e+00 0.000000e+00 -1.000000e+00
    outer loop
      vertex   -4.242341e+01 1.088762e-01 1.270000e-01
      vertex   -1.702340e+01 -2.304915e+00 1.270000e-01
      vertex   -4.242341e+01 -2.304915e+00 1.270000e-01
    endloop
  endfacet
  facet normal 0.000000e+00 -1.000000e+00 0.000000e+00
    outer loop
      vertex   -1.702340e+01 -2.304915e+00 1.270000e-01
      vertex   -1.702340e+01 -2.304915e+00 5.067300e+01
      vertex   -4.242341e+01 -2.304915e+00 1.270000e-01
    endloop
  endfacet
  facet normal 0.000000e+00 -1.000000e+00 0.000000e+00
    outer loop
      vertex   -4.242341e+01 -2.304915e+00 1.270000e-01
      vertex   -1.702340e+01 -2.304915e+00 5.067300e+01
      vertex   -4.242341e+01 -2.304915e+00 5.067300e+01
    endloop
  endfacet
  facet normal 0.000000e+00 -0.000000e+00 1.000000e+00
    outer loop
      vertex   -1.702340e+01 -2.304915e+00 5.067300e+01
      vertex   -1.702340e+01 0.000000e+00 5.067300e+01
      vertex   -4.242341e+01 -2.304915e+00 5.067300e+01
    endloop
  endfacet
  facet normal 0.000000e+00 0.000000e+00 1.000000e+00
    outer loop
      vertex   -4.242341e+01 -2.304915e+00 5.067300e+01
      vertex   -1.702340e+01 0.000000e+00 5.067300e+01
      vertex   -4.242341e+01 0.000000e+00 5.067300e+01
    endloop
  endfacet
  facet normal 0.000000e+00 -1.000000e+00 0.000000e+00
    outer loop
      vertex   -1.702340e+01 5.315085e+00 -2.527300e+01
      vertex   -1.702340e+01 5.315085e+00 -5.078716e+00
      vertex   -4.242341e+01 5.315085e+00 -2.527300e+01
    endloop
  endfacet
  facet normal 0.000000e+00 -1.000000e+00 0.000000e+00
    outer loop
      vertex   -4.242341e+01 5.315085e+00 -2.527300e+01
      vertex   -1.702340e+01 5.315085e+00 -5.078716e+00
      vertex   -4.242341e+01 5.315085e+00 -5.078716e+00
    endloop
  endfacet
  facet normal 0.000000e+00 0.000000e+00 -1.000000e+00
    outer loop
      vertex   -1.702340e+01 5.315085e+00 -2.527300e+01
      vertex   -2.648490e+01 1.026809e+01 -2.527300e+01
      vertex   -1.702340e+01 1.522109e+01 -2.527300e+01
    endloop
  endfacet
  facet normal 0.000000e+00 0.000000e+00 -1.000000e+00
    outer loop
      vertex   -1.702340e+01 1.522109e+01 -2.527300e+01
      vertex   -2.648490e+01 1.026809e+01 -2.527300e+01
      vertex   -2.668021e+01 1.137572e+01 -2.527300e+01
    endloop
  endfacet
  facet normal 0.000000e+00 0.000000e+00 -1.000000e+00
    outer loop
      vertex   -1.702340e+01 1.522109e+01 -2.527300e+01
      vertex   -2.668021e+01 1.137572e+01 -2.527300e+01
      vertex   -2.724257e+01 1.234975e+01 -2.527300e+01
    endloop
  endfacet
  facet normal 0.000000e+00 0.000000e+00 -1.000000e+00
    outer loop
      vertex   -4.242341e+01 5.315085e+00 -2.527300e+01
      vertex   -2.916105e+01 7.078785e+00 -2.527300e+01
      vertex   -1.702340e+01 5.315085e+00 -2.527300e+01
    endloop
  endfacet
  facet normal 0.000000e+00 0.000000e+00 -1.000000e+00
    outer loop
      vertex   -1.702340e+01 5.315085e+00 -2.527300e+01
      vertex   -2.916105e+01 7.078785e+00 -2.527300e+01
      vertex   -2.810416e+01 7.463462e+00 -2.527300e+01
    endloop
  endfacet
  facet normal 0.000000e+00 0.000000e+00 -1.000000e+00
    outer loop
      vertex   -1.702340e+01 5.315085e+00 -2.527300e+01
      vertex   -2.810416e+01 7.463462e+00 -2.527300e+01
      vertex   -2.724257e+01 8.186417e+00 -2.527300e+01
    endloop
  endfacet
  facet normal 0.000000e+00 0.000000e+00 -1.000000e+00
    outer loop
      vertex   -4.242341e+01 1.522109e+01 -2.527300e+01
      vertex   -3.296191e+01 1.026809e+01 -2.527300e+01
      vertex   -4.242341e+01 5.315085e+00 -2.527300e+01
    endloop
  endfacet
  facet normal 0.000000e+00 0.000000e+00 -1.000000e+00
    outer loop
      vertex   -4.242341e+01 5.315085e+00 -2.527300e+01
      vertex   -3.296191e+01 1.026809e+01 -2.527300e+01
      vertex   -3.276660e+01 9.160453e+00 -2.527300e+01
    endloop
  endfacet
  facet normal 0.000000e+00 0.000000e+00 -1.000000e+00
    outer loop
      vertex   -4.242341e+01 5.315085e+00 -2.527300e+01
      vertex   -3.276660e+01 9.160453e+00 -2.527300e+01
      vertex   -3.220424e+01 8.186417e+00 -2.527300e+01
    endloop
  endfacet
  facet normal -0.000000e+00 0.000000e+00 -1.000000e+00
    outer loop
      vertex   -1.702340e+01 1.522109e+01 -2.527300e+01
      vertex   -2.916105e+01 1.345739e+01 -2.527300e+01
      vertex   -4.242341e+01 1.522109e+01 -2.527300e+01
    endloop
  endfacet
  facet normal 0.000000e+00 0.000000e+00 -1.000000e+00
    outer loop
      vertex   -4.242341e+01 1.522109e+01 -2.527300e+01
      vertex   -2.916105e+01 1.345739e+01 -2.527300e+01
      vertex   -3.028576e+01 1.345739e+01 -2.527300e+01
    endloop
  endfacet
  facet normal 0.000000e+00 0.000000e+00 -1.000000e+00
    outer loop
      vertex   -4.242341e+01 1.522109e+01 -2.527300e+01
      vertex   -3.028576e+01 1.345739e+01 -2.527300e+01
      vertex   -3.134265e+01 1.307271e+01 -2.527300e+01
    endloop
  endfacet
  facet normal 0.000000e+00 -0.000000e+00 -1.000000e+00
    outer loop
      vertex   -3.220424e+01 8.186417e+00 -2.527300e+01
      vertex   -3.134265e+01 7.463462e+00 -2.527300e+01
      vertex   -4.242341e+01 5.315085e+00 -2.527300e+01
    endloop
  endfacet
  facet normal 0.000000e+00 0.000000e+00 -1.000000e+00
    outer loop
      vertex   -4.242341e+01 5.315085e+00 -2.527300e+01
      vertex   -3.134265e+01 7.463462e+00 -2.527300e+01
      vertex   -3.028576e+01 7.078785e+00 -2.527300e+01
    endloop
  endfacet
  facet normal 0.000000e+00 0.000000e+00 -1.000000e+00
    outer loop
      vertex   -4.242341e+01 5.315085e+00 -2.527300e+01
      vertex   -3.028576e+01 7.078785e+00 -2.527300e+01
      vertex   -2.916105e+01 7.078785e+00 -2.527300e+01
    endloop
  endfacet
  facet normal 0.000000e+00 0.000000e+00 -1.000000e+00
    outer loop
      vertex   -2.724257e+01 8.186417e+00 -2.527300e+01
      vertex   -2.668021e+01 9.160453e+00 -2.527300e+01
      vertex   -1.702340e+01 5.315085e+00 -2.527300e+01
    endloop
  endfacet
  facet normal 0.000000e+00 0.000000e+00 -1.000000e+00
    outer loop
      vertex   -1.702340e+01 5.315085e+00 -2.527300e+01
      vertex   -2.668021e+01 9.160453e+00 -2.527300e+01
      vertex   -2.648490e+01 1.026809e+01 -2.527300e+01
    endloop
  endfacet
  facet normal 0.000000e+00 0.000000e+00 -1.000000e+00
    outer loop
      vertex   -2.724257e+01 1.234975e+01 -2.527300e+01
      vertex   -2.810416e+01 1.307271e+01 -2.527300e+01
      vertex   -1.702340e+01 1.522109e+01 -2.527300e+01
    endloop
  endfacet
  facet normal 0.000000e+00 0.000000e+00 -1.000000e+00
    outer loop
      vertex   -1.702340e+01 1.522109e+01 -2.527300e+01
      vertex   -2.810416e+01 1.307271e+01 -2.527300e+01
      vertex   -2.916105e+01 1.345739e+01 -2.527300e+01
    endloop
  endfacet
  facet normal -0.000000e+00 0.000000e+00 -1.000000e+00
    outer loop
      vertex   -3.134265e+01 1.307271e+01 -2.527300e+01
      vertex   -3.220424e+01 1.234975e+01 -2.527300e+01
      vertex   -4.242341e+01 1.522109e+01 -2.527300e+01
    endloop
  endfacet
  facet normal 0.000000e+00 0.000000e+00 -1.000000e+00
    outer loop
      vertex   -4.242341e+01 1.522109e+01 -2.527300e+01
      vertex   -3.220424e+01 1.234975e+01 -2.527300e+01
      vertex   -3.276660e+01 1.137572e+01 -2.527300e+01
    endloop
  endfacet
  facet normal 0.000000e+00 0.000000e+00 -1.000000e+00
    outer loop
      vertex   -4.242341e+01 1.522109e+01 -2.527300e+01
      vertex   -3.276660e+01 1.137572e+01 -2.527300e+01
      vertex   -3.296191e+01 1.026809e+01 -2.527300e+01
    endloop
  endfacet
  facet normal 0.000000e+00 1.000000e+00 0.000000e+00
    outer loop
      vertex   -1.702340e+01 1.522109e+01 -5.078716e+00
      vertex   -1.702340e+01 1.522109e+01 -2.527300e+01
      vertex   -4.242341e+01 1.522109e+01 -5.078716e+00
    endloop
  endfacet
  facet normal 0.000000e+00 1.000000e+00 0.000000e+00
    outer loop
      vertex   -4.242341e+01 1.522109e+01 -5.078716e+00
      vertex   -1.702340e+01 1.522109e+01 -2.527300e+01
      vertex   -4.242341e+01 1.522109e+01 -2.527300e+01
    endloop
  endfacet
  facet normal 0.000000e+00 -1.000000e+00 0.000000e+00
    outer loop
      vertex   -4.242341e+01 5.315085e+00 7.607300e+01
      vertex   -4.242341e+01 5.315085e+00 5.588067e+01
      vertex   -1.702340e+01 5.315085e+00 7.607300e+01
    endloop
  endfacet
  facet normal 0.000000e+00 -1.000000e+00 -0.000000e+00
    outer loop
      vertex   -1.702340e+01 5.315085e+00 7.607300e+01
      vertex   -4.242341e+01 5.315085e+00 5.588067e+01
      vertex   -1.702340e+01 5.315085e+00 5.588067e+01
    endloop
  endfacet
  facet normal 0.000000e+00 1.000000e+00 0.000000e+00
    outer loop
      vertex   -1.702340e+01 1.522109e+01 7.607300e+01
      vertex   -1.702340e+01 1.522109e+01 5.588826e+01
      vertex   -4.242341e+01 1.522109e+01 7.607300e+01
    endloop
  endfacet
  facet normal 0.000000e+00 1.000000e+00 0.000000e+00
    outer loop
      vertex   -4.242341e+01 1.522109e+01 7.607300e+01
      vertex   -1.702340e+01 1.522109e+01 5.588826e+01
      vertex   -4.242341e+01 1.522109e+01 5.588826e+01
    endloop
  endfacet
  facet normal 0.000000e+00 0.000000e+00 1.000000e+00
    outer loop
      vertex   -1.702340e+01 5.315085e+00 7.607300e+01
      vertex   -3.028576e+01 7.078785e+00 7.607300e+01
      vertex   -4.242341e+01 5.315085e+00 7.607300e+01
    endloop
  endfacet
  facet normal 0.000000e+00 0.000000e+00 1.000000e+00
    outer loop
      vertex   -4.242341e+01 5.315085e+00 7.607300e+01
      vertex   -3.028576e+01 7.078785e+00 7.607300e+01
      vertex   -3.134265e+01 7.463462e+00 7.607300e+01
    endloop
  endfacet
  facet normal 0.000000e+00 0.000000e+00 1.000000e+00
    outer loop
      vertex   -4.242341e+01 5.315085e+00 7.607300e+01
      vertex   -3.134265e+01 7.463462e+00 7.607300e+01
      vertex   -3.220424e+01 8.186417e+00 7.607300e+01
    endloop
  endfacet
  facet normal 0.000000e+00 0.000000e+00 1.000000e+00
    outer loop
      vertex   -1.702340e+01 1.522109e+01 7.607300e+01
      vertex   -2.648490e+01 1.026809e+01 7.607300e+01
      vertex   -1.702340e+01 5.315085e+00 7.607300e+01
    endloop
  endfacet
  facet normal 0.000000e+00 0.000000e+00 1.000000e+00
    outer loop
      vertex   -1.702340e+01 5.315085e+00 7.607300e+01
      vertex   -2.648490e+01 1.026809e+01 7.607300e+01
      vertex   -2.668021e+01 9.160453e+00 7.607300e+01
    endloop
  endfacet
  facet normal 0.000000e+00 0.000000e+00 1.000000e+00
    outer loop
      vertex   -1.702340e+01 5.315085e+00 7.607300e+01
      vertex   -2.668021e+01 9.160453e+00 7.607300e+01
      vertex   -2.724257e+01 8.186417e+00 7.607300e+01
    endloop
  endfacet
  facet normal -0.000000e+00 0.000000e+00 1.000000e+00
    outer loop
      vertex   -4.242341e+01 1.522109e+01 7.607300e+01
      vertex   -3.028576e+01 1.345739e+01 7.607300e+01
      vertex   -1.702340e+01 1.522109e+01 7.607300e+01
    endloop
  endfacet
  facet normal 0.000000e+00 0.000000e+00 1.000000e+00
    outer loop
      vertex   -1.702340e+01 1.522109e+01 7.607300e+01
      vertex   -3.028576e+01 1.345739e+01 7.607300e+01
      vertex   -2.916105e+01 1.345739e+01 7.607300e+01
    endloop
  endfacet
  facet normal 0.000000e+00 0.000000e+00 1.000000e+00
    outer loop
      vertex   -1.702340e+01 1.522109e+01 7.607300e+01
      vertex   -2.916105e+01 1.345739e+01 7.607300e+01
      vertex   -2.810416e+01 1.307271e+01 7.607300e+01
    endloop
  endfacet
  facet normal 0.000000e+00 0.000000e+00 1.000000e+00
    outer loop
      vertex   -4.242341e+01 5.315085e+00 7.607300e+01
      vertex   -3.296191e+01 1.026809e+01 7.607300e+01
      vertex   -4.242341e+01 1.522109e+01 7.607300e+01
    endloop
  endfacet
  facet normal 0.000000e+00 0.000000e+00 1.000000e+00
    outer loop
      vertex   -4.242341e+01 1.522109e+01 7.607300e+01
      vertex   -3.296191e+01 1.026809e+01 7.607300e+01
      vertex   -3.276660e+01 1.137572e+01 7.607300e+01
    endloop
  endfacet
  facet normal 0.000000e+00 0.000000e+00 1.000000e+00
    outer loop
      vertex   -4.242341e+01 1.522109e+01 7.607300e+01
      vertex   -3.276660e+01 1.137572e+01 7.607300e+01
      vertex   -3.220424e+01 1.234975e+01 7.607300e+01
    endloop
  endfacet
  facet normal 0.000000e+00 -0.000000e+00 1.000000e+00
    outer loop
      vertex   -3.220424e+01 1.234975e+01 7.607300e+01
      vertex   -3.134265e+01 1.307271e+01 7.607300e+01
      vertex   -4.242341e+01 1.522109e+01 7.607300e+01
    endloop
  endfacet
  facet normal 0.000000e+00 0.000000e+00 1.000000e+00
    outer loop
      vertex   -4.242341e+01 1.522109e+01 7.607300e+01
      vertex   -3.134265e+01 1.307271e+01 7.607300e+01
      vertex   -3.028576e+01 1.345739e+01 7.607300e+01
    endloop
  endfacet
  facet normal -0.000000e+00 0.000000e+00 1.000000e+00
    outer loop
      vertex   -2.810416e+01 1.307271e+01 7.607300e+01
      vertex   -2.724257e+01 1.234975e+01 7.607300e+01
      vertex   -1.702340e+01 1.522109e+01 7.607300e+01
    endloop
  endfacet
  facet normal 0.000000e+00 0.000000e+00 1.000000e+00
    outer loop
      vertex   -1.702340e+01 1.522109e+01 7.607300e+01
      vertex   -2.724257e+01 1.234975e+01 7.607300e+01
      vertex   -2.668021e+01 1.137572e+01 7.607300e+01
    endloop
  endfacet
  facet normal 0.000000e+00 0.000000e+00 1.000000e+00
    outer loop
      vertex   -1.702340e+01 1.522109e+01 7.607300e+01
      vertex   -2.668021e+01 1.137572e+01 7.607300e+01
      vertex   -2.648490e+01 1.026809e+01 7.607300e+01
    endloop
  endfacet
  facet normal 0.000000e+00 0.000000e+00 1.000000e+00
    outer loop
      vertex   -2.724257e+01 8.186417e+00 7.607300e+01
      vertex   -2.810416e+01 7.463462e+00 7.607300e+01
      vertex   -1.702340e+01 5.315085e+00 7.607300e+01
    endloop
  endfacet
  facet normal 0.000000e+00 0.000000e+00 1.000000e+00
    outer loop
      vertex   -1.702340e+01 5.315085e+00 7.607300e+01
      vertex   -2.810416e+01 7.463462e+00 7.607300e+01
      vertex   -2.916105e+01 7.078785e+00 7.607300e+01
    endloop
  endfacet
  facet normal 0.000000e+00 0.000000e+00 1.000000e+00
    outer loop
      vertex   -1.702340e+01 5.315085e+00 7.607300e+01
      vertex   -2.916105e+01 7.078785e+00 7.607300e+01
      vertex   -3.028576e+01 7.078785e+00 7.607300e+01
    endloop
  endfacet
  facet normal 0.000000e+00 0.000000e+00 1.000000e+00
    outer loop
      vertex   -3.220424e+01 8.186417e+00 7.607300e+01
      vertex   -3.276660e+01 9.160453e+00 7.607300e+01
      vertex   -4.242341e+01 5.315085e+00 7.607300e+01
    endloop
  endfacet
  facet normal 0.000000e+00 0.000000e+00 1.000000e+00
    outer loop
      vertex   -4.242341e+01 5.315085e+00 7.607300e+01
      vertex   -3.276660e+01 9.160453e+00 7.607300e+01
      vertex   -3.296191e+01 1.026809e+01 7.607300e+01
    endloop
  endfacet
  facet normal 0.000000e+00 -1.950873e-01 -9.807859e-01
    outer loop
      vertex   -4.242341e+01 3.600661e+00 4.039972e+01
      vertex   -1.702340e+01 3.600661e+00 4.039972e+01
      vertex   -4.242341e+01 2.648085e+00 4.058920e+01
    endloop
  endfacet
  facet normal 0.000000e+00 -1.950873e-01 -9.807859e-01
    outer loop
      vertex   -4.242341e+01 2.648085e+00 4.058920e+01
      vertex   -1.702340e+01 3.600661e+00 4.039972e+01
      vertex   -1.702340e+01 2.648085e+00 4.058920e+01
    endloop
  endfacet
  facet normal 0.000000e+00 1.950873e-01 -9.807859e-01
    outer loop
      vertex   -4.242341e+01 2.648085e+00 4.058920e+01
      vertex   -1.702340e+01 2.648085e+00 4.058920e+01
      vertex   -4.242341e+01 1.695509e+00 4.039972e+01
    endloop
  endfacet
  facet normal 0.000000e+00 1.950873e-01 -9.807859e-01
    outer loop
      vertex   -4.242341e+01 1.695509e+00 4.039972e+01
      vertex   -1.702340e+01 2.648085e+00 4.058920e+01
      vertex   -1.702340e+01 1.695509e+00 4.039972e+01
    endloop
  endfacet
  facet normal 0.000000e+00 5.555724e-01 -8.314682e-01
    outer loop
      vertex   -4.242341e+01 1.695509e+00 4.039972e+01
      vertex   -1.702340e+01 1.695509e+00 4.039972e+01
      vertex   -1.702340e+01 8.879548e-01 3.986013e+01
    endloop
  endfacet
  facet normal 0.000000e+00 -5.555723e-01 -8.314682e-01
    outer loop
      vertex   -4.242341e+01 3.600661e+00 4.039972e+01
      vertex   -4.242341e+01 4.408215e+00 3.986013e+01
      vertex   -1.702340e+01 3.600661e+00 4.039972e+01
    endloop
  endfacet
  facet normal 0.000000e+00 -5.555723e-01 -8.314682e-01
    outer loop
      vertex   -1.702340e+01 3.600661e+00 4.039972e+01
      vertex   -4.242341e+01 4.408215e+00 3.986013e+01
      vertex   -1.702340e+01 4.408215e+00 3.986013e+01
    endloop
  endfacet
  facet normal -0.000000e+00 -8.314697e-01 -5.555702e-01
    outer loop
      vertex   -1.702340e+01 4.408215e+00 3.986013e+01
      vertex   -4.242341e+01 4.408215e+00 3.986013e+01
      vertex   -4.242341e+01 4.947806e+00 3.905257e+01
    endloop
  endfacet
  facet normal 0.000000e+00 -8.314697e-01 -5.555702e-01
    outer loop
      vertex   -1.702340e+01 4.408215e+00 3.986013e+01
      vertex   -4.242341e+01 4.947806e+00 3.905257e+01
      vertex   -1.702340e+01 4.947806e+00 3.905257e+01
    endloop
  endfacet
  facet normal -0.000000e+00 -9.807853e-01 -1.950903e-01
    outer loop
      vertex   -1.702340e+01 4.947806e+00 3.905257e+01
      vertex   -4.242341e+01 4.947806e+00 3.905257e+01
      vertex   -4.242341e+01 5.137285e+00 3.810000e+01
    endloop
  endfacet
  facet normal 0.000000e+00 -9.807853e-01 -1.950903e-01
    outer loop
      vertex   -1.702340e+01 4.947806e+00 3.905257e+01
      vertex   -4.242341e+01 5.137285e+00 3.810000e+01
      vertex   -1.702340e+01 5.137285e+00 3.810000e+01
    endloop
  endfacet
  facet normal 0.000000e+00 -9.807853e-01 1.950903e-01
    outer loop
      vertex   -1.702340e+01 5.137285e+00 3.810000e+01
      vertex   -4.242341e+01 5.137285e+00 3.810000e+01
      vertex   -4.242341e+01 4.947806e+00 3.714742e+01
    endloop
  endfacet
  facet normal 0.000000e+00 -9.807853e-01 1.950903e-01
    outer loop
      vertex   -1.702340e+01 5.137285e+00 3.810000e+01
      vertex   -4.242341e+01 4.947806e+00 3.714742e+01
      vertex   -1.702340e+01 4.947806e+00 3.714742e+01
    endloop
  endfacet
  facet normal 0.000000e+00 -8.314697e-01 5.555702e-01
    outer loop
      vertex   -1.702340e+01 4.947806e+00 3.714742e+01
      vertex   -4.242341e+01 4.947806e+00 3.714742e+01
      vertex   -4.242341e+01 4.408215e+00 3.633987e+01
    endloop
  endfacet
  facet normal 0.000000e+00 -8.314697e-01 5.555702e-01
    outer loop
      vertex   -1.702340e+01 4.947806e+00 3.714742e+01
      vertex   -4.242341e+01 4.408215e+00 3.633987e+01
      vertex   -1.702340e+01 4.408215e+00 3.633987e+01
    endloop
  endfacet
  facet normal 0.000000e+00 -5.555706e-01 8.314694e-01
    outer loop
      vertex   -1.702340e+01 4.408215e+00 3.633987e+01
      vertex   -4.242341e+01 4.408215e+00 3.633987e+01
      vertex   -4.242341e+01 3.600661e+00 3.580028e+01
    endloop
  endfacet
  facet normal 0.000000e+00 -5.555706e-01 8.314694e-01
    outer loop
      vertex   -1.702340e+01 4.408215e+00 3.633987e+01
      vertex   -4.242341e+01 3.600661e+00 3.580028e+01
      vertex   -1.702340e+01 3.600661e+00 3.580028e+01
    endloop
  endfacet
  facet normal 0.000000e+00 -1.950897e-01 9.807854e-01
    outer loop
      vertex   -1.702340e+01 3.600661e+00 3.580028e+01
      vertex   -4.242341e+01 3.600661e+00 3.580028e+01
      vertex   -4.242341e+01 2.648085e+00 3.561080e+01
    endloop
  endfacet
  facet normal 0.000000e+00 -1.950897e-01 9.807854e-01
    outer loop
      vertex   -1.702340e+01 3.600661e+00 3.580028e+01
      vertex   -4.242341e+01 2.648085e+00 3.561080e+01
      vertex   -1.702340e+01 2.648085e+00 3.561080e+01
    endloop
  endfacet
  facet normal 0.000000e+00 1.950896e-01 9.807854e-01
    outer loop
      vertex   -1.702340e+01 2.648085e+00 3.561080e+01
      vertex   -4.242341e+01 2.648085e+00 3.561080e+01
      vertex   -4.242341e+01 1.695509e+00 3.580028e+01
    endloop
  endfacet
  facet normal 0.000000e+00 1.950896e-01 9.807854e-01
    outer loop
      vertex   -1.702340e+01 2.648085e+00 3.561080e+01
      vertex   -4.242341e+01 1.695509e+00 3.580028e+01
      vertex   -1.702340e+01 1.695509e+00 3.580028e+01
    endloop
  endfacet
  facet normal 0.000000e+00 5.555707e-01 8.314693e-01
    outer loop
      vertex   -1.702340e+01 1.695509e+00 3.580028e+01
      vertex   -4.242341e+01 1.695509e+00 3.580028e+01
      vertex   -4.242341e+01 8.879548e-01 3.633987e+01
    endloop
  endfacet
  facet normal 0.000000e+00 5.555707e-01 8.314693e-01
    outer loop
      vertex   -1.702340e+01 1.695509e+00 3.580028e+01
      vertex   -4.242341e+01 8.879548e-01 3.633987e+01
      vertex   -1.702340e+01 8.879548e-01 3.633987e+01
    endloop
  endfacet
  facet normal 0.000000e+00 8.314697e-01 5.555702e-01
    outer loop
      vertex   -1.702340e+01 8.879548e-01 3.633987e+01
      vertex   -4.242341e+01 8.879548e-01 3.633987e+01
      vertex   -4.242341e+01 3.483641e-01 3.714742e+01
    endloop
  endfacet
  facet normal 0.000000e+00 8.314697e-01 5.555702e-01
    outer loop
      vertex   -1.702340e+01 8.879548e-01 3.633987e+01
      vertex   -4.242341e+01 3.483641e-01 3.714742e+01
      vertex   -1.702340e+01 3.483641e-01 3.714742e+01
    endloop
  endfacet
  facet normal 0.000000e+00 9.807853e-01 1.950904e-01
    outer loop
      vertex   -1.702340e+01 3.483641e-01 3.714742e+01
      vertex   -4.242341e+01 3.483641e-01 3.714742e+01
      vertex   -4.242341e+01 1.588851e-01 3.810000e+01
    endloop
  endfacet
  facet normal 0.000000e+00 9.807853e-01 1.950904e-01
    outer loop
      vertex   -1.702340e+01 3.483641e-01 3.714742e+01
      vertex   -4.242341e+01 1.588851e-01 3.810000e+01
      vertex   -1.702340e+01 1.588851e-01 3.810000e+01
    endloop
  endfacet
  facet normal 0.000000e+00 9.807853e-01 -1.950904e-01
    outer loop
      vertex   -1.702340e+01 1.588851e-01 3.810000e+01
      vertex   -4.242341e+01 1.588851e-01 3.810000e+01
      vertex   -4.242341e+01 3.483641e-01 3.905257e+01
    endloop
  endfacet
  facet normal 0.000000e+00 9.807853e-01 -1.950904e-01
    outer loop
      vertex   -1.702340e+01 1.588851e-01 3.810000e+01
      vertex   -4.242341e+01 3.483641e-01 3.905257e+01
      vertex   -1.702340e+01 3.483641e-01 3.905257e+01
    endloop
  endfacet
  facet normal 0.000000e+00 8.314697e-01 -5.555702e-01
    outer loop
      vertex   -1.702340e+01 3.483641e-01 3.905257e+01
      vertex   -4.242341e+01 3.483641e-01 3.905257e+01
      vertex   -4.242341e+01 8.879548e-01 3.986013e+01
    endloop
  endfacet
  facet normal 0.000000e+00 8.314697e-01 -5.555702e-01
    outer loop
      vertex   -1.702340e+01 3.483641e-01 3.905257e+01
      vertex   -4.242341e+01 8.879548e-01 3.986013e+01
      vertex   -1.702340e+01 8.879548e-01 3.986013e+01
    endloop
  endfacet
  facet normal 0.000000e+00 5.555724e-01 -8.314682e-01
    outer loop
      vertex   -1.702340e+01 8.879548e-01 3.986013e+01
      vertex   -4.242341e+01 8.879548e-01 3.986013e+01
      vertex   -4.242341e+01 1.695509e+00 4.039972e+01
    endloop
  endfacet
  facet normal 0.000000e+00 -1.950897e-01 -9.807854e-01
    outer loop
      vertex   -4.242341e+01 3.600661e+00 1.499972e+01
      vertex   -1.702340e+01 3.600661e+00 1.499972e+01
      vertex   -4.242341e+01 2.648085e+00 1.518920e+01
    endloop
  endfacet
  facet normal 0.000000e+00 -1.950897e-01 -9.807854e-01
    outer loop
      vertex   -4.242341e+01 2.648085e+00 1.518920e+01
      vertex   -1.702340e+01 3.600661e+00 1.499972e+01
      vertex   -1.702340e+01 2.648085e+00 1.518920e+01
    endloop
  endfacet
  facet normal 0.000000e+00 1.950896e-01 -9.807854e-01
    outer loop
      vertex   -4.242341e+01 2.648085e+00 1.518920e+01
      vertex   -1.702340e+01 2.648085e+00 1.518920e+01
      vertex   -4.242341e+01 1.695509e+00 1.499972e+01
    endloop
  endfacet
  facet normal 0.000000e+00 1.950896e-01 -9.807854e-01
    outer loop
      vertex   -4.242341e+01 1.695509e+00 1.499972e+01
      vertex   -1.702340e+01 2.648085e+00 1.518920e+01
      vertex   -1.702340e+01 1.695509e+00 1.499972e+01
    endloop
  endfacet
  facet normal 0.000000e+00 5.555707e-01 -8.314693e-01
    outer loop
      vertex   -4.242341e+01 1.695509e+00 1.499972e+01
      vertex   -1.702340e+01 1.695509e+00 1.499972e+01
      vertex   -1.702340e+01 8.879548e-01 1.446013e+01
    endloop
  endfacet
  facet normal 0.000000e+00 -5.555706e-01 -8.314694e-01
    outer loop
      vertex   -4.242341e+01 3.600661e+00 1.499972e+01
      vertex   -4.242341e+01 4.408215e+00 1.446013e+01
      vertex   -1.702340e+01 3.600661e+00 1.499972e+01
    endloop
  endfacet
  facet normal 0.000000e+00 -5.555706e-01 -8.314694e-01
    outer loop
      vertex   -1.702340e+01 3.600661e+00 1.499972e+01
      vertex   -4.242341e+01 4.408215e+00 1.446013e+01
      vertex   -1.702340e+01 4.408215e+00 1.446013e+01
    endloop
  endfacet
  facet normal -0.000000e+00 -8.314697e-01 -5.555702e-01
    outer loop
      vertex   -1.702340e+01 4.408215e+00 1.446013e+01
      vertex   -4.242341e+01 4.408215e+00 1.446013e+01
      vertex   -4.242341e+01 4.947806e+00 1.365258e+01
    endloop
  endfacet
  facet normal 0.000000e+00 -8.314697e-01 -5.555702e-01
    outer loop
      vertex   -1.702340e+01 4.408215e+00 1.446013e+01
      vertex   -4.242341e+01 4.947806e+00 1.365258e+01
      vertex   -1.702340e+01 4.947806e+00 1.365258e+01
    endloop
  endfacet
  facet normal -0.000000e+00 -9.807853e-01 -1.950903e-01
    outer loop
      vertex   -1.702340e+01 4.947806e+00 1.365258e+01
      vertex   -4.242341e+01 4.947806e+00 1.365258e+01
      vertex   -4.242341e+01 5.137285e+00 1.270000e+01
    endloop
  endfacet
  facet normal 0.000000e+00 -9.807853e-01 -1.950903e-01
    outer loop
      vertex   -1.702340e+01 4.947806e+00 1.365258e+01
      vertex   -4.242341e+01 5.137285e+00 1.270000e+01
      vertex   -1.702340e+01 5.137285e+00 1.270000e+01
    endloop
  endfacet
  facet normal 0.000000e+00 -9.807853e-01 1.950903e-01
    outer loop
      vertex   -1.702340e+01 5.137285e+00 1.270000e+01
      vertex   -4.242341e+01 5.137285e+00 1.270000e+01
      vertex   -4.242341e+01 4.947806e+00 1.174742e+01
    endloop
  endfacet
  facet normal 0.000000e+00 -9.807853e-01 1.950903e-01
    outer loop
      vertex   -1.702340e+01 5.137285e+00 1.270000e+01
      vertex   -4.242341e+01 4.947806e+00 1.174742e+01
      vertex   -1.702340e+01 4.947806e+00 1.174742e+01
    endloop
  endfacet
  facet normal 0.000000e+00 -8.314697e-01 5.555702e-01
    outer loop
      vertex   -1.702340e+01 4.947806e+00 1.174742e+01
      vertex   -4.242341e+01 4.947806e+00 1.174742e+01
      vertex   -4.242341e+01 4.408215e+00 1.093987e+01
    endloop
  endfacet
  facet normal 0.000000e+00 -8.314697e-01 5.555702e-01
    outer loop
      vertex   -1.702340e+01 4.947806e+00 1.174742e+01
      vertex   -4.242341e+01 4.408215e+00 1.093987e+01
      vertex   -1.702340e+01 4.408215e+00 1.093987e+01
    endloop
  endfacet
  facet normal 0.000000e+00 -5.555706e-01 8.314694e-01
    outer loop
      vertex   -1.702340e+01 4.408215e+00 1.093987e+01
      vertex   -4.242341e+01 4.408215e+00 1.093987e+01
      vertex   -4.242341e+01 3.600661e+00 1.040028e+01
    endloop
  endfacet
  facet normal 0.000000e+00 -5.555706e-01 8.314694e-01
    outer loop
      vertex   -1.702340e+01 4.408215e+00 1.093987e+01
      vertex   -4.242341e+01 3.600661e+00 1.040028e+01
      vertex   -1.702340e+01 3.600661e+00 1.040028e+01
    endloop
  endfacet
  facet normal 0.000000e+00 -1.950897e-01 9.807854e-01
    outer loop
      vertex   -1.702340e+01 3.600661e+00 1.040028e+01
      vertex   -4.242341e+01 3.600661e+00 1.040028e+01
      vertex   -4.242341e+01 2.648085e+00 1.021080e+01
    endloop
  endfacet
  facet normal 0.000000e+00 -1.950897e-01 9.807854e-01
    outer loop
      vertex   -1.702340e+01 3.600661e+00 1.040028e+01
      vertex   -4.242341e+01 2.648085e+00 1.021080e+01
      vertex   -1.702340e+01 2.648085e+00 1.021080e+01
    endloop
  endfacet
  facet normal 0.000000e+00 1.950896e-01 9.807854e-01
    outer loop
      vertex   -1.702340e+01 2.648085e+00 1.021080e+01
      vertex   -4.242341e+01 2.648085e+00 1.021080e+01
      vertex   -4.242341e+01 1.695509e+00 1.040028e+01
    endloop
  endfacet
  facet normal 0.000000e+00 1.950896e-01 9.807854e-01
    outer loop
      vertex   -1.702340e+01 2.648085e+00 1.021080e+01
      vertex   -4.242341e+01 1.695509e+00 1.040028e+01
      vertex   -1.702340e+01 1.695509e+00 1.040028e+01
    endloop
  endfacet
  facet normal 0.000000e+00 5.555707e-01 8.314693e-01
    outer loop
      vertex   -1.702340e+01 1.695509e+00 1.040028e+01
      vertex   -4.242341e+01 1.695509e+00 1.040028e+01
      vertex   -4.242341e+01 8.879548e-01 1.093987e+01
    endloop
  endfacet
  facet normal 0.000000e+00 5.555707e-01 8.314693e-01
    outer loop
      vertex   -1.702340e+01 1.695509e+00 1.040028e+01
      vertex   -4.242341e+01 8.879548e-01 1.093987e+01
      vertex   -1.702340e+01 8.879548e-01 1.093987e+01
    endloop
  endfacet
  facet normal 0.000000e+00 8.314697e-01 5.555702e-01
    outer loop
      vertex   -1.702340e+01 8.879548e-01 1.093987e+01
      vertex   -4.242341e+01 8.879548e-01 1.093987e+01
      vertex   -4.242341e+01 3.483641e-01 1.174742e+01
    endloop
  endfacet
  facet normal 0.000000e+00 8.314697e-01 5.555702e-01
    outer loop
      vertex   -1.702340e+01 8.879548e-01 1.093987e+01
      vertex   -4.242341e+01 3.483641e-01 1.174742e+01
      vertex   -1.702340e+01 3.483641e-01 1.174742e+01
    endloop
  endfacet
  facet normal 0.000000e+00 9.807853e-01 1.950904e-01
    outer loop
      vertex   -1.702340e+01 3.483641e-01 1.174742e+01
      vertex   -4.242341e+01 3.483641e-01 1.174742e+01
      vertex   -4.242341e+01 1.588851e-01 1.270000e+01
    endloop
  endfacet
  facet normal 0.000000e+00 9.807853e-01 1.950904e-01
    outer loop
      vertex   -1.702340e+01 3.483641e-01 1.174742e+01
      vertex   -4.242341e+01 1.588851e-01 1.270000e+01
      vertex   -1.702340e+01 1.588851e-01 1.270000e+01
    endloop
  endfacet
  facet normal 0.000000e+00 9.807853e-01 -1.950904e-01
    outer loop
      vertex   -1.702340e+01 1.588851e-01 1.270000e+01
      vertex   -4.242341e+01 1.588851e-01 1.270000e+01
      vertex   -4.242341e+01 3.483641e-01 1.365258e+01
    endloop
  endfacet
  facet normal 0.000000e+00 9.807853e-01 -1.950904e-01
    outer loop
      vertex   -1.702340e+01 1.588851e-01 1.270000e+01
      vertex   -4.242341e+01 3.483641e-01 1.365258e+01
      vertex   -1.702340e+01 3.483641e-01 1.365258e+01
    endloop
  endfacet
  facet normal 0.000000e+00 8.314697e-01 -5.555702e-01
    outer loop
      vertex   -1.702340e+01 3.483641e-01 1.365258e+01
      vertex   -4.242341e+01 3.483641e-01 1.365258e+01
      vertex   -4.242341e+01 8.879548e-01 1.446013e+01
    endloop
  endfacet
  facet normal 0.000000e+00 8.314697e-01 -5.555702e-01
    outer loop
      vertex   -1.702340e+01 3.483641e-01 1.365258e+01
      vertex   -4.242341e+01 8.879548e-01 1.446013e+01
      vertex   -1.702340e+01 8.879548e-01 1.446013e+01
    endloop
  endfacet
  facet normal 0.000000e+00 5.555707e-01 -8.314693e-01
    outer loop
      vertex   -1.702340e+01 8.879548e-01 1.446013e+01
      vertex   -4.242341e+01 8.879548e-01 1.446013e+01
      vertex   -4.242341e+01 1.695509e+00 1.499972e+01
    endloop
  endfacet
  facet normal 9.848078e-01 -1.736481e-01 0.000000e+00
    outer loop
      vertex   -3.276660e+01 1.137572e+01 -2.527300e+01
      vertex   -3.276660e+01 1.137572e+01 7.607300e+01
      vertex   -3.296191e+01 1.026809e+01 -2.527300e+01
    endloop
  endfacet
  facet normal 9.848078e-01 -1.736481e-01 0.000000e+00
    outer loop
      vertex   -3.296191e+01 1.026809e+01 -2.527300e+01
      vertex   -3.276660e+01 1.137572e+01 7.607300e+01
      vertex   -3.296191e+01 1.026809e+01 7.607300e+01
    endloop
  endfacet
  facet normal 9.848078e-01 1.736481e-01 -0.000000e+00
    outer loop
      vertex   -3.296191e+01 1.026809e+01 -2.527300e+01
      vertex   -3.296191e+01 1.026809e+01 7.607300e+01
      vertex   -3.276660e+01 9.160453e+00 -2.527300e+01
    endloop
  endfacet
  facet normal 9.848078e-01 1.736481e-01 -0.000000e+00
    outer loop
      vertex   -3.276660e+01 9.160453e+00 -2.527300e+01
      vertex   -3.296191e+01 1.026809e+01 7.607300e+01
      vertex   -3.276660e+01 9.160453e+00 7.607300e+01
    endloop
  endfacet
  facet normal 8.660252e-01 5.000003e-01 -0.000000e+00
    outer loop
      vertex   -3.276660e+01 9.160453e+00 -2.527300e+01
      vertex   -3.276660e+01 9.160453e+00 7.607300e+01
      vertex   -3.220424e+01 8.186417e+00 -2.527300e+01
    endloop
  endfacet
  facet normal 8.660252e-01 5.000003e-01 -0.000000e+00
    outer loop
      vertex   -3.220424e+01 8.186417e+00 -2.527300e+01
      vertex   -3.276660e+01 9.160453e+00 7.607300e+01
      vertex   -3.220424e+01 8.186417e+00 7.607300e+01
    endloop
  endfacet
  facet normal 6.427874e-01 7.660446e-01 -0.000000e+00
    outer loop
      vertex   -3.220424e+01 8.186417e+00 -2.527300e+01
      vertex   -3.220424e+01 8.186417e+00 7.607300e+01
      vertex   -3.134265e+01 7.463462e+00 -2.527300e+01
    endloop
  endfacet
  facet normal 6.427874e-01 7.660446e-01 -0.000000e+00
    outer loop
      vertex   -3.134265e+01 7.463462e+00 -2.527300e+01
      vertex   -3.220424e+01 8.186417e+00 7.607300e+01
      vertex   -3.134265e+01 7.463462e+00 7.607300e+01
    endloop
  endfacet
  facet normal 3.420200e-01 9.396927e-01 -0.000000e+00
    outer loop
      vertex   -3.134265e+01 7.463462e+00 -2.527300e+01
      vertex   -3.134265e+01 7.463462e+00 7.607300e+01
      vertex   -3.028576e+01 7.078785e+00 -2.527300e+01
    endloop
  endfacet
  facet normal 3.420200e-01 9.396927e-01 -0.000000e+00
    outer loop
      vertex   -3.028576e+01 7.078785e+00 -2.527300e+01
      vertex   -3.134265e+01 7.463462e+00 7.607300e+01
      vertex   -3.028576e+01 7.078785e+00 7.607300e+01
    endloop
  endfacet
  facet normal 0.000000e+00 1.000000e+00 0.000000e+00
    outer loop
      vertex   -3.028576e+01 7.078785e+00 -2.527300e+01
      vertex   -3.028576e+01 7.078785e+00 7.607300e+01
      vertex   -2.916105e+01 7.078785e+00 -2.527300e+01
    endloop
  endfacet
  facet normal 0.000000e+00 1.000000e+00 -0.000000e+00
    outer loop
      vertex   -2.916105e+01 7.078785e+00 -2.527300e+01
      vertex   -3.028576e+01 7.078785e+00 7.607300e+01
      vertex   -2.916105e+01 7.078785e+00 7.607300e+01
    endloop
  endfacet
  facet normal -3.420200e-01 9.396927e-01 0.000000e+00
    outer loop
      vertex   -2.916105e+01 7.078785e+00 -2.527300e+01
      vertex   -2.916105e+01 7.078785e+00 7.607300e+01
      vertex   -2.810416e+01 7.463462e+00 -2.527300e+01
    endloop
  endfacet
  facet normal -3.420200e-01 9.396927e-01 0.000000e+00
    outer loop
      vertex   -2.810416e+01 7.463462e+00 -2.527300e+01
      vertex   -2.916105e+01 7.078785e+00 7.607300e+01
      vertex   -2.810416e+01 7.463462e+00 7.607300e+01
    endloop
  endfacet
  facet normal -6.427874e-01 7.660446e-01 0.000000e+00
    outer loop
      vertex   -2.810416e+01 7.463462e+00 -2.527300e+01
      vertex   -2.810416e+01 7.463462e+00 7.607300e+01
      vertex   -2.724257e+01 8.186417e+00 -2.527300e+01
    endloop
  endfacet
  facet normal -6.427874e-01 7.660446e-01 0.000000e+00
    outer loop
      vertex   -2.724257e+01 8.186417e+00 -2.527300e+01
      vertex   -2.810416e+01 7.463462e+00 7.607300e+01
      vertex   -2.724257e+01 8.186417e+00 7.607300e+01
    endloop
  endfacet
  facet normal -8.660252e-01 5.000003e-01 0.000000e+00
    outer loop
      vertex   -2.724257e+01 8.186417e+00 -2.527300e+01
      vertex   -2.724257e+01 8.186417e+00 7.607300e+01
      vertex   -2.668021e+01 9.160453e+00 -2.527300e+01
    endloop
  endfacet
  facet normal -8.660252e-01 5.000003e-01 0.000000e+00
    outer loop
      vertex   -2.668021e+01 9.160453e+00 -2.527300e+01
      vertex   -2.724257e+01 8.186417e+00 7.607300e+01
      vertex   -2.668021e+01 9.160453e+00 7.607300e+01
    endloop
  endfacet
  facet normal -9.848078e-01 1.736481e-01 0.000000e+00
    outer loop
      vertex   -2.668021e+01 9.160453e+00 -2.527300e+01
      vertex   -2.668021e+01 9.160453e+00 7.607300e+01
      vertex   -2.648490e+01 1.026809e+01 -2.527300e+01
    endloop
  endfacet
  facet normal -9.848078e-01 1.736481e-01 0.000000e+00
    outer loop
      vertex   -2.648490e+01 1.026809e+01 -2.527300e+01
      vertex   -2.668021e+01 9.160453e+00 7.607300e+01
      vertex   -2.648490e+01 1.026809e+01 7.607300e+01
    endloop
  endfacet
  facet normal -9.848078e-01 -1.736481e-01 0.000000e+00
    outer loop
      vertex   -2.648490e+01 1.026809e+01 -2.527300e+01
      vertex   -2.648490e+01 1.026809e+01 7.607300e+01
      vertex   -2.668021e+01 1.137572e+01 -2.527300e+01
    endloop
  endfacet
  facet normal -9.848078e-01 -1.736481e-01 0.000000e+00
    outer loop
      vertex   -2.668021e+01 1.137572e+01 -2.527300e+01
      vertex   -2.648490e+01 1.026809e+01 7.607300e+01
      vertex   -2.668021e+01 1.137572e+01 7.607300e+01
    endloop
  endfacet
  facet normal -8.660251e-01 -5.000005e-01 0.000000e+00
    outer loop
      vertex   -2.668021e+01 1.137572e+01 -2.527300e+01
      vertex   -2.668021e+01 1.137572e+01 7.607300e+01
      vertex   -2.724257e+01 1.234975e+01 -2.527300e+01
    endloop
  endfacet
  facet normal -8.660251e-01 -5.000005e-01 0.000000e+00
    outer loop
      vertex   -2.724257e+01 1.234975e+01 -2.527300e+01
      vertex   -2.668021e+01 1.137572e+01 7.607300e+01
      vertex   -2.724257e+01 1.234975e+01 7.607300e+01
    endloop
  endfacet
  facet normal -6.427881e-01 -7.660441e-01 0.000000e+00
    outer loop
      vertex   -2.724257e+01 1.234975e+01 -2.527300e+01
      vertex   -2.724257e+01 1.234975e+01 7.607300e+01
      vertex   -2.810416e+01 1.307271e+01 -2.527300e+01
    endloop
  endfacet
  facet normal -6.427881e-01 -7.660441e-01 0.000000e+00
    outer loop
      vertex   -2.810416e+01 1.307271e+01 -2.527300e+01
      vertex   -2.724257e+01 1.234975e+01 7.607300e+01
      vertex   -2.810416e+01 1.307271e+01 7.607300e+01
    endloop
  endfacet
  facet normal -3.420200e-01 -9.396927e-01 0.000000e+00
    outer loop
      vertex   -2.810416e+01 1.307271e+01 -2.527300e+01
      vertex   -2.810416e+01 1.307271e+01 7.607300e+01
      vertex   -2.916105e+01 1.345739e+01 -2.527300e+01
    endloop
  endfacet
  facet normal -3.420200e-01 -9.396927e-01 0.000000e+00
    outer loop
      vertex   -2.916105e+01 1.345739e+01 -2.527300e+01
      vertex   -2.810416e+01 1.307271e+01 7.607300e+01
      vertex   -2.916105e+01 1.345739e+01 7.607300e+01
    endloop
  endfacet
  facet normal 0.000000e+00 -1.000000e+00 0.000000e+00
    outer loop
      vertex   -2.916105e+01 1.345739e+01 -2.527300e+01
      vertex   -2.916105e+01 1.345739e+01 7.607300e+01
      vertex   -3.028576e+01 1.345739e+01 -2.527300e+01
    endloop
  endfacet
  facet normal 0.000000e+00 -1.000000e+00 0.000000e+00
    outer loop
      vertex   -3.028576e+01 1.345739e+01 -2.527300e+01
      vertex   -2.916105e+01 1.345739e+01 7.607300e+01
      vertex   -3.028576e+01 1.345739e+01 7.607300e+01
    endloop
  endfacet
  facet normal 3.420200e-01 -9.396927e-01 0.000000e+00
    outer loop
      vertex   -3.028576e+01 1.345739e+01 -2.527300e+01
      vertex   -3.028576e+01 1.345739e+01 7.607300e+01
      vertex   -3.134265e+01 1.307271e+01 -2.527300e+01
    endloop
  endfacet
  facet normal 3.420200e-01 -9.396927e-01 0.000000e+00
    outer loop
      vertex   -3.134265e+01 1.307271e+01 -2.527300e+01
      vertex   -3.028576e+01 1.345739e+01 7.607300e+01
      vertex   -3.134265e+01 1.307271e+01 7.607300e+01
    endloop
  endfacet
  facet normal 6.427881e-01 -7.660441e-01 0.000000e+00
    outer loop
      vertex   -3.134265e+01 1.307271e+01 -2.527300e+01
      vertex   -3.134265e+01 1.307271e+01 7.607300e+01
      vertex   -3.220424e+01 1.234975e+01 -2.527300e+01
    endloop
  endfacet
  facet normal 6.427881e-01 -7.660441e-01 0.000000e+00
    outer loop
      vertex   -3.220424e+01 1.234975e+01 -2.527300e+01
      vertex   -3.134265e+01 1.307271e+01 7.607300e+01
      vertex   -3.220424e+01 1.234975e+01 7.607300e+01
    endloop
  endfacet
  facet normal 8.660251e-01 -5.000005e-01 0.000000e+00
    outer loop
      vertex   -3.220424e+01 1.234975e+01 -2.527300e+01
      vertex   -3.220424e+01 1.234975e+01 7.607300e+01
      vertex   -3.276660e+01 1.137572e+01 -2.527300e+01
    endloop
  endfacet
  facet normal 8.660251e-01 -5.000005e-01 0.000000e+00
    outer loop
      vertex   -3.276660e+01 1.137572e+01 -2.527300e+01
      vertex   -3.220424e+01 1.234975e+01 7.607300e+01
      vertex   -3.276660e+01 1.137572e+01 7.607300e+01
    endloop
  endfacet
endsolid
