solid ASCII
  facet normal 0.000000e+00 1.000000e+00 0.000000e+00
    outer loop
      vertex   0.000000e+00 1.582119e+01 1.036808e+01
      vertex   0.000000e+00 1.582119e+01 3.576808e+01
      vertex   1.016000e+01 1.582119e+01 1.036808e+01
    endloop
  endfacet
  facet normal 0.000000e+00 1.000000e+00 -0.000000e+00
    outer loop
      vertex   1.016000e+01 1.582119e+01 1.036808e+01
      vertex   0.000000e+00 1.582119e+01 3.576808e+01
      vertex   1.016000e+01 1.582119e+01 3.576808e+01
    endloop
  endfacet
  facet normal 0.000000e+00 0.000000e+00 -1.000000e+00
    outer loop
      vertex   0.000000e+00 -9.578813e+00 1.036808e+01
      vertex   0.000000e+00 1.582119e+01 1.036808e+01
      vertex   1.016000e+01 -9.578813e+00 1.036808e+01
    endloop
  endfacet
  facet normal 0.000000e+00 0.000000e+00 -1.000000e+00
    outer loop
      vertex   1.016000e+01 -9.578813e+00 1.036808e+01
      vertex   0.000000e+00 1.582119e+01 1.036808e+01
      vertex   1.016000e+01 1.582119e+01 1.036808e+01
    endloop
  endfacet
  facet normal 0.000000e+00 -1.000000e+00 0.000000e+00
    outer loop
      vertex   0.000000e+00 -9.578813e+00 3.576808e+01
      vertex   0.000000e+00 -9.578813e+00 1.036808e+01
      vertex   1.016000e+01 -9.578813e+00 3.576808e+01
    endloop
  endfacet
  facet normal 0.000000e+00 -1.000000e+00 -0.000000e+00
    outer loop
      vertex   1.016000e+01 -9.578813e+00 3.576808e+01
      vertex   0.000000e+00 -9.578813e+00 1.036808e+01
      vertex   1.016000e+01 -9.578813e+00 1.036808e+01
    endloop
  endfacet
  facet normal -0.000000e+00 0.000000e+00 1.000000e+00
    outer loop
      vertex   0.000000e+00 1.582119e+01 3.576808e+01
      vertex   0.000000e+00 -9.578813e+00 3.576808e+01
      vertex   1.016000e+01 1.582119e+01 3.576808e+01
    endloop
  endfacet
  facet normal 0.000000e+00 0.000000e+00 1.000000e+00
    outer loop
      vertex   1.016000e+01 1.582119e+01 3.576808e+01
      vertex   0.000000e+00 -9.578813e+00 3.576808e+01
      vertex   1.016000e+01 -9.578813e+00 3.576808e+01
    endloop
  endfacet
  facet normal -1.000000e+00 0.000000e+00 0.000000e+00
    outer loop
      vertex   0.000000e+00 -2.714850e+00 3.125244e+01
      vertex   0.000000e+00 -3.228813e+00 3.132308e+01
      vertex   0.000000e+00 -9.578813e+00 3.576808e+01
    endloop
  endfacet
  facet normal -1.000000e+00 0.000000e+00 0.000000e+00
    outer loop
      vertex   0.000000e+00 -9.578813e+00 3.576808e+01
      vertex   0.000000e+00 -3.228813e+00 3.132308e+01
      vertex   0.000000e+00 -3.742776e+00 3.125244e+01
    endloop
  endfacet
  facet normal -1.000000e+00 0.000000e+00 0.000000e+00
    outer loop
      vertex   0.000000e+00 -9.578813e+00 3.576808e+01
      vertex   0.000000e+00 -3.742776e+00 3.125244e+01
      vertex   0.000000e+00 -4.218621e+00 3.104575e+01
    endloop
  endfacet
  facet normal -1.000000e+00 -0.000000e+00 0.000000e+00
    outer loop
      vertex   0.000000e+00 -4.218621e+00 3.104575e+01
      vertex   0.000000e+00 -4.621056e+00 3.071834e+01
      vertex   0.000000e+00 -9.578813e+00 3.576808e+01
    endloop
  endfacet
  facet normal -1.000000e+00 0.000000e+00 0.000000e+00
    outer loop
      vertex   0.000000e+00 -9.578813e+00 3.576808e+01
      vertex   0.000000e+00 -4.621056e+00 3.071834e+01
      vertex   0.000000e+00 -4.920235e+00 3.029450e+01
    endloop
  endfacet
  facet normal -1.000000e+00 0.000000e+00 0.000000e+00
    outer loop
      vertex   0.000000e+00 -9.578813e+00 3.576808e+01
      vertex   0.000000e+00 -4.920235e+00 3.029450e+01
      vertex   0.000000e+00 -5.093969e+00 2.980566e+01
    endloop
  endfacet
  facet normal -1.000000e+00 -0.000000e+00 0.000000e+00
    outer loop
      vertex   0.000000e+00 -5.093969e+00 2.980566e+01
      vertex   0.000000e+00 -5.129372e+00 2.928808e+01
      vertex   0.000000e+00 -9.578813e+00 3.576808e+01
    endloop
  endfacet
  facet normal -1.000000e+00 0.000000e+00 0.000000e+00
    outer loop
      vertex   0.000000e+00 -9.578813e+00 3.576808e+01
      vertex   0.000000e+00 -5.129372e+00 2.928808e+01
      vertex   0.000000e+00 -5.023820e+00 2.878013e+01
    endloop
  endfacet
  facet normal -1.000000e+00 0.000000e+00 0.000000e+00
    outer loop
      vertex   0.000000e+00 -9.578813e+00 3.576808e+01
      vertex   0.000000e+00 -5.023820e+00 2.878013e+01
      vertex   0.000000e+00 -9.578813e+00 1.036808e+01
    endloop
  endfacet
  facet normal -1.000000e+00 0.000000e+00 0.000000e+00
    outer loop
      vertex   0.000000e+00 -9.578813e+00 1.036808e+01
      vertex   0.000000e+00 -5.023820e+00 2.878013e+01
      vertex   0.000000e+00 -4.785141e+00 2.831950e+01
    endloop
  endfacet
  facet normal -1.000000e+00 0.000000e+00 0.000000e+00
    outer loop
      vertex   0.000000e+00 -9.578813e+00 1.036808e+01
      vertex   0.000000e+00 -4.785141e+00 2.831950e+01
      vertex   0.000000e+00 -4.431036e+00 2.794035e+01
    endloop
  endfacet
  facet normal -1.000000e+00 0.000000e+00 -0.000000e+00
    outer loop
      vertex   0.000000e+00 -4.431036e+00 2.794035e+01
      vertex   0.000000e+00 -3.987767e+00 2.767079e+01
      vertex   0.000000e+00 -9.578813e+00 1.036808e+01
    endloop
  endfacet
  facet normal -1.000000e+00 0.000000e+00 0.000000e+00
    outer loop
      vertex   0.000000e+00 -9.578813e+00 1.036808e+01
      vertex   0.000000e+00 -3.987767e+00 2.767079e+01
      vertex   0.000000e+00 1.256032e+00 1.710566e+01
    endloop
  endfacet
  facet normal -1.000000e+00 0.000000e+00 0.000000e+00
    outer loop
      vertex   0.000000e+00 -9.578813e+00 1.036808e+01
      vertex   0.000000e+00 1.256032e+00 1.710566e+01
      vertex   0.000000e+00 1.220628e+00 1.658808e+01
    endloop
  endfacet
  facet normal -1.000000e+00 0.000000e+00 0.000000e+00
    outer loop
      vertex   0.000000e+00 1.256032e+00 1.710566e+01
      vertex   0.000000e+00 -3.987767e+00 2.767079e+01
      vertex   0.000000e+00 1.429765e+00 1.759450e+01
    endloop
  endfacet
  facet normal -1.000000e+00 0.000000e+00 0.000000e+00
    outer loop
      vertex   0.000000e+00 1.429765e+00 1.759450e+01
      vertex   0.000000e+00 -3.987767e+00 2.767079e+01
      vertex   0.000000e+00 -3.488211e+00 2.753082e+01
    endloop
  endfacet
  facet normal -1.000000e+00 0.000000e+00 0.000000e+00
    outer loop
      vertex   0.000000e+00 1.429765e+00 1.759450e+01
      vertex   0.000000e+00 -3.488211e+00 2.753082e+01
      vertex   0.000000e+00 1.728944e+00 1.801834e+01
    endloop
  endfacet
  facet normal -1.000000e+00 0.000000e+00 0.000000e+00
    outer loop
      vertex   0.000000e+00 1.728944e+00 1.801834e+01
      vertex   0.000000e+00 -3.488211e+00 2.753082e+01
      vertex   0.000000e+00 -2.969416e+00 2.753082e+01
    endloop
  endfacet
  facet normal -1.000000e+00 0.000000e+00 0.000000e+00
    outer loop
      vertex   0.000000e+00 1.728944e+00 1.801834e+01
      vertex   0.000000e+00 -2.969416e+00 2.753082e+01
      vertex   0.000000e+00 2.131379e+00 1.834575e+01
    endloop
  endfacet
  facet normal -1.000000e+00 0.000000e+00 0.000000e+00
    outer loop
      vertex   0.000000e+00 2.131379e+00 1.834575e+01
      vertex   0.000000e+00 -2.969416e+00 2.753082e+01
      vertex   0.000000e+00 -2.469859e+00 2.767079e+01
    endloop
  endfacet
  facet normal -1.000000e+00 0.000000e+00 0.000000e+00
    outer loop
      vertex   0.000000e+00 2.131379e+00 1.834575e+01
      vertex   0.000000e+00 -2.469859e+00 2.767079e+01
      vertex   0.000000e+00 2.607224e+00 1.855244e+01
    endloop
  endfacet
  facet normal -1.000000e+00 0.000000e+00 0.000000e+00
    outer loop
      vertex   0.000000e+00 2.607224e+00 1.855244e+01
      vertex   0.000000e+00 -2.469859e+00 2.767079e+01
      vertex   0.000000e+00 -2.026591e+00 2.794035e+01
    endloop
  endfacet
  facet normal -1.000000e+00 0.000000e+00 0.000000e+00
    outer loop
      vertex   0.000000e+00 2.607224e+00 1.855244e+01
      vertex   0.000000e+00 -2.026591e+00 2.794035e+01
      vertex   0.000000e+00 3.121187e+00 1.862308e+01
    endloop
  endfacet
  facet normal -1.000000e+00 0.000000e+00 0.000000e+00
    outer loop
      vertex   0.000000e+00 3.121187e+00 1.862308e+01
      vertex   0.000000e+00 -2.026591e+00 2.794035e+01
      vertex   0.000000e+00 -1.672486e+00 2.831950e+01
    endloop
  endfacet
  facet normal -1.000000e+00 0.000000e+00 0.000000e+00
    outer loop
      vertex   0.000000e+00 3.121187e+00 1.862308e+01
      vertex   0.000000e+00 -1.672486e+00 2.831950e+01
      vertex   0.000000e+00 7.914859e+00 2.831950e+01
    endloop
  endfacet
  facet normal -1.000000e+00 0.000000e+00 0.000000e+00
    outer loop
      vertex   0.000000e+00 7.914859e+00 2.831950e+01
      vertex   0.000000e+00 -1.672486e+00 2.831950e+01
      vertex   0.000000e+00 -1.433806e+00 2.878013e+01
    endloop
  endfacet
  facet normal -1.000000e+00 0.000000e+00 0.000000e+00
    outer loop
      vertex   0.000000e+00 7.914859e+00 2.831950e+01
      vertex   0.000000e+00 -1.433806e+00 2.878013e+01
      vertex   0.000000e+00 7.676179e+00 2.878013e+01
    endloop
  endfacet
  facet normal -1.000000e+00 0.000000e+00 0.000000e+00
    outer loop
      vertex   0.000000e+00 7.676179e+00 2.878013e+01
      vertex   0.000000e+00 -1.433806e+00 2.878013e+01
      vertex   0.000000e+00 -1.328254e+00 2.928808e+01
    endloop
  endfacet
  facet normal -1.000000e+00 0.000000e+00 0.000000e+00
    outer loop
      vertex   0.000000e+00 7.676179e+00 2.878013e+01
      vertex   0.000000e+00 -1.328254e+00 2.928808e+01
      vertex   0.000000e+00 7.570628e+00 2.928808e+01
    endloop
  endfacet
  facet normal -1.000000e+00 0.000000e+00 0.000000e+00
    outer loop
      vertex   0.000000e+00 7.570628e+00 2.928808e+01
      vertex   0.000000e+00 -1.328254e+00 2.928808e+01
      vertex   0.000000e+00 -1.363658e+00 2.980566e+01
    endloop
  endfacet
  facet normal -1.000000e+00 0.000000e+00 0.000000e+00
    outer loop
      vertex   0.000000e+00 7.570628e+00 2.928808e+01
      vertex   0.000000e+00 -1.363658e+00 2.980566e+01
      vertex   0.000000e+00 7.606031e+00 2.980566e+01
    endloop
  endfacet
  facet normal -1.000000e+00 0.000000e+00 0.000000e+00
    outer loop
      vertex   0.000000e+00 7.606031e+00 2.980566e+01
      vertex   0.000000e+00 -1.363658e+00 2.980566e+01
      vertex   0.000000e+00 -1.537392e+00 3.029450e+01
    endloop
  endfacet
  facet normal -1.000000e+00 0.000000e+00 0.000000e+00
    outer loop
      vertex   0.000000e+00 7.606031e+00 2.980566e+01
      vertex   0.000000e+00 -1.537392e+00 3.029450e+01
      vertex   0.000000e+00 7.779765e+00 3.029450e+01
    endloop
  endfacet
  facet normal -1.000000e+00 0.000000e+00 0.000000e+00
    outer loop
      vertex   0.000000e+00 7.779765e+00 3.029450e+01
      vertex   0.000000e+00 -1.537392e+00 3.029450e+01
      vertex   0.000000e+00 -1.836571e+00 3.071834e+01
    endloop
  endfacet
  facet normal -1.000000e+00 0.000000e+00 0.000000e+00
    outer loop
      vertex   0.000000e+00 7.779765e+00 3.029450e+01
      vertex   0.000000e+00 -1.836571e+00 3.071834e+01
      vertex   0.000000e+00 8.078944e+00 3.071834e+01
    endloop
  endfacet
  facet normal -1.000000e+00 0.000000e+00 0.000000e+00
    outer loop
      vertex   0.000000e+00 8.078944e+00 3.071834e+01
      vertex   0.000000e+00 -1.836571e+00 3.071834e+01
      vertex   0.000000e+00 -2.239006e+00 3.104575e+01
    endloop
  endfacet
  facet normal -1.000000e+00 0.000000e+00 0.000000e+00
    outer loop
      vertex   0.000000e+00 8.078944e+00 3.071834e+01
      vertex   0.000000e+00 -2.239006e+00 3.104575e+01
      vertex   0.000000e+00 8.481379e+00 3.104575e+01
    endloop
  endfacet
  facet normal -1.000000e+00 0.000000e+00 0.000000e+00
    outer loop
      vertex   0.000000e+00 8.481379e+00 3.104575e+01
      vertex   0.000000e+00 -2.239006e+00 3.104575e+01
      vertex   0.000000e+00 8.957224e+00 3.125244e+01
    endloop
  endfacet
  facet normal -1.000000e+00 -0.000000e+00 0.000000e+00
    outer loop
      vertex   0.000000e+00 8.957224e+00 3.125244e+01
      vertex   0.000000e+00 -2.239006e+00 3.104575e+01
      vertex   0.000000e+00 -2.714850e+00 3.125244e+01
    endloop
  endfacet
  facet normal -1.000000e+00 0.000000e+00 0.000000e+00
    outer loop
      vertex   0.000000e+00 8.957224e+00 3.125244e+01
      vertex   0.000000e+00 -2.714850e+00 3.125244e+01
      vertex   0.000000e+00 -9.578813e+00 3.576808e+01
    endloop
  endfacet
  facet normal -1.000000e+00 0.000000e+00 0.000000e+00
    outer loop
      vertex   0.000000e+00 9.985150e+00 3.125244e+01
      vertex   0.000000e+00 9.471187e+00 3.132308e+01
      vertex   0.000000e+00 1.582119e+01 3.576808e+01
    endloop
  endfacet
  facet normal -1.000000e+00 0.000000e+00 0.000000e+00
    outer loop
      vertex   0.000000e+00 1.582119e+01 3.576808e+01
      vertex   0.000000e+00 9.471187e+00 3.132308e+01
      vertex   0.000000e+00 8.957224e+00 3.125244e+01
    endloop
  endfacet
  facet normal -1.000000e+00 -0.000000e+00 0.000000e+00
    outer loop
      vertex   0.000000e+00 1.582119e+01 3.576808e+01
      vertex   0.000000e+00 8.957224e+00 3.125244e+01
      vertex   0.000000e+00 -9.578813e+00 3.576808e+01
    endloop
  endfacet
  facet normal -1.000000e+00 0.000000e+00 -0.000000e+00
    outer loop
      vertex   0.000000e+00 7.914859e+00 2.831950e+01
      vertex   0.000000e+00 8.268964e+00 2.794035e+01
      vertex   0.000000e+00 3.121187e+00 1.862308e+01
    endloop
  endfacet
  facet normal -1.000000e+00 0.000000e+00 0.000000e+00
    outer loop
      vertex   0.000000e+00 3.121187e+00 1.862308e+01
      vertex   0.000000e+00 8.268964e+00 2.794035e+01
      vertex   0.000000e+00 3.635150e+00 1.855244e+01
    endloop
  endfacet
  facet normal -1.000000e+00 0.000000e+00 0.000000e+00
    outer loop
      vertex   0.000000e+00 3.635150e+00 1.855244e+01
      vertex   0.000000e+00 8.268964e+00 2.794035e+01
      vertex   0.000000e+00 8.712233e+00 2.767079e+01
    endloop
  endfacet
  facet normal -1.000000e+00 0.000000e+00 0.000000e+00
    outer loop
      vertex   0.000000e+00 3.635150e+00 1.855244e+01
      vertex   0.000000e+00 8.712233e+00 2.767079e+01
      vertex   0.000000e+00 4.110994e+00 1.834575e+01
    endloop
  endfacet
  facet normal -1.000000e+00 0.000000e+00 0.000000e+00
    outer loop
      vertex   0.000000e+00 4.110994e+00 1.834575e+01
      vertex   0.000000e+00 8.712233e+00 2.767079e+01
      vertex   0.000000e+00 9.211789e+00 2.753082e+01
    endloop
  endfacet
  facet normal -1.000000e+00 0.000000e+00 0.000000e+00
    outer loop
      vertex   0.000000e+00 4.110994e+00 1.834575e+01
      vertex   0.000000e+00 9.211789e+00 2.753082e+01
      vertex   0.000000e+00 4.513429e+00 1.801834e+01
    endloop
  endfacet
  facet normal -1.000000e+00 0.000000e+00 0.000000e+00
    outer loop
      vertex   0.000000e+00 4.513429e+00 1.801834e+01
      vertex   0.000000e+00 9.211789e+00 2.753082e+01
      vertex   0.000000e+00 9.730584e+00 2.753082e+01
    endloop
  endfacet
  facet normal -1.000000e+00 0.000000e+00 0.000000e+00
    outer loop
      vertex   0.000000e+00 4.513429e+00 1.801834e+01
      vertex   0.000000e+00 9.730584e+00 2.753082e+01
      vertex   0.000000e+00 4.812608e+00 1.759450e+01
    endloop
  endfacet
  facet normal -1.000000e+00 0.000000e+00 0.000000e+00
    outer loop
      vertex   0.000000e+00 4.812608e+00 1.759450e+01
      vertex   0.000000e+00 9.730584e+00 2.753082e+01
      vertex   0.000000e+00 1.023014e+01 2.767079e+01
    endloop
  endfacet
  facet normal -1.000000e+00 0.000000e+00 0.000000e+00
    outer loop
      vertex   0.000000e+00 4.812608e+00 1.759450e+01
      vertex   0.000000e+00 1.023014e+01 2.767079e+01
      vertex   0.000000e+00 4.986342e+00 1.710566e+01
    endloop
  endfacet
  facet normal -1.000000e+00 0.000000e+00 0.000000e+00
    outer loop
      vertex   0.000000e+00 4.986342e+00 1.710566e+01
      vertex   0.000000e+00 1.023014e+01 2.767079e+01
      vertex   0.000000e+00 1.582119e+01 1.036808e+01
    endloop
  endfacet
  facet normal -1.000000e+00 0.000000e+00 0.000000e+00
    outer loop
      vertex   0.000000e+00 4.986342e+00 1.710566e+01
      vertex   0.000000e+00 1.582119e+01 1.036808e+01
      vertex   0.000000e+00 5.021746e+00 1.658808e+01
    endloop
  endfacet
  facet normal -1.000000e+00 0.000000e+00 -0.000000e+00
    outer loop
      vertex   0.000000e+00 5.021746e+00 1.658808e+01
      vertex   0.000000e+00 1.582119e+01 1.036808e+01
      vertex   0.000000e+00 4.916194e+00 1.608013e+01
    endloop
  endfacet
  facet normal -1.000000e+00 0.000000e+00 -0.000000e+00
    outer loop
      vertex   0.000000e+00 4.916194e+00 1.608013e+01
      vertex   0.000000e+00 1.582119e+01 1.036808e+01
      vertex   0.000000e+00 4.677514e+00 1.561950e+01
    endloop
  endfacet
  facet normal -1.000000e+00 0.000000e+00 -0.000000e+00
    outer loop
      vertex   0.000000e+00 4.677514e+00 1.561950e+01
      vertex   0.000000e+00 1.582119e+01 1.036808e+01
      vertex   0.000000e+00 4.323409e+00 1.524035e+01
    endloop
  endfacet
  facet normal -1.000000e+00 0.000000e+00 -0.000000e+00
    outer loop
      vertex   0.000000e+00 4.323409e+00 1.524035e+01
      vertex   0.000000e+00 1.582119e+01 1.036808e+01
      vertex   0.000000e+00 3.880141e+00 1.497079e+01
    endloop
  endfacet
  facet normal -1.000000e+00 0.000000e+00 -0.000000e+00
    outer loop
      vertex   0.000000e+00 3.880141e+00 1.497079e+01
      vertex   0.000000e+00 1.582119e+01 1.036808e+01
      vertex   0.000000e+00 3.380584e+00 1.483082e+01
    endloop
  endfacet
  facet normal -1.000000e+00 0.000000e+00 -0.000000e+00
    outer loop
      vertex   0.000000e+00 3.380584e+00 1.483082e+01
      vertex   0.000000e+00 1.582119e+01 1.036808e+01
      vertex   0.000000e+00 -9.578813e+00 1.036808e+01
    endloop
  endfacet
  facet normal -1.000000e+00 -0.000000e+00 0.000000e+00
    outer loop
      vertex   0.000000e+00 3.380584e+00 1.483082e+01
      vertex   0.000000e+00 -9.578813e+00 1.036808e+01
      vertex   0.000000e+00 2.861789e+00 1.483082e+01
    endloop
  endfacet
  facet normal -1.000000e+00 -0.000000e+00 0.000000e+00
    outer loop
      vertex   0.000000e+00 2.861789e+00 1.483082e+01
      vertex   0.000000e+00 -9.578813e+00 1.036808e+01
      vertex   0.000000e+00 2.362233e+00 1.497079e+01
    endloop
  endfacet
  facet normal -1.000000e+00 -0.000000e+00 0.000000e+00
    outer loop
      vertex   0.000000e+00 2.362233e+00 1.497079e+01
      vertex   0.000000e+00 -9.578813e+00 1.036808e+01
      vertex   0.000000e+00 1.918964e+00 1.524035e+01
    endloop
  endfacet
  facet normal -1.000000e+00 -0.000000e+00 0.000000e+00
    outer loop
      vertex   0.000000e+00 1.918964e+00 1.524035e+01
      vertex   0.000000e+00 -9.578813e+00 1.036808e+01
      vertex   0.000000e+00 1.564859e+00 1.561950e+01
    endloop
  endfacet
  facet normal -1.000000e+00 -0.000000e+00 0.000000e+00
    outer loop
      vertex   0.000000e+00 1.564859e+00 1.561950e+01
      vertex   0.000000e+00 -9.578813e+00 1.036808e+01
      vertex   0.000000e+00 1.326180e+00 1.608013e+01
    endloop
  endfacet
  facet normal -1.000000e+00 -0.000000e+00 0.000000e+00
    outer loop
      vertex   0.000000e+00 1.326180e+00 1.608013e+01
      vertex   0.000000e+00 -9.578813e+00 1.036808e+01
      vertex   0.000000e+00 1.220628e+00 1.658808e+01
    endloop
  endfacet
  facet normal -1.000000e+00 0.000000e+00 0.000000e+00
    outer loop
      vertex   0.000000e+00 1.023014e+01 2.767079e+01
      vertex   0.000000e+00 1.067341e+01 2.794035e+01
      vertex   0.000000e+00 1.582119e+01 1.036808e+01
    endloop
  endfacet
  facet normal -1.000000e+00 0.000000e+00 0.000000e+00
    outer loop
      vertex   0.000000e+00 1.582119e+01 1.036808e+01
      vertex   0.000000e+00 1.067341e+01 2.794035e+01
      vertex   0.000000e+00 1.102751e+01 2.831950e+01
    endloop
  endfacet
  facet normal -1.000000e+00 0.000000e+00 0.000000e+00
    outer loop
      vertex   0.000000e+00 1.582119e+01 1.036808e+01
      vertex   0.000000e+00 1.102751e+01 2.831950e+01
      vertex   0.000000e+00 1.126619e+01 2.878013e+01
    endloop
  endfacet
  facet normal -1.000000e+00 0.000000e+00 0.000000e+00
    outer loop
      vertex   0.000000e+00 1.582119e+01 1.036808e+01
      vertex   0.000000e+00 1.126619e+01 2.878013e+01
      vertex   0.000000e+00 1.582119e+01 3.576808e+01
    endloop
  endfacet
  facet normal -1.000000e+00 0.000000e+00 0.000000e+00
    outer loop
      vertex   0.000000e+00 1.582119e+01 3.576808e+01
      vertex   0.000000e+00 1.126619e+01 2.878013e+01
      vertex   0.000000e+00 1.137175e+01 2.928808e+01
    endloop
  endfacet
  facet normal -1.000000e+00 0.000000e+00 0.000000e+00
    outer loop
      vertex   0.000000e+00 1.582119e+01 3.576808e+01
      vertex   0.000000e+00 1.137175e+01 2.928808e+01
      vertex   0.000000e+00 1.133634e+01 2.980566e+01
    endloop
  endfacet
  facet normal -1.000000e+00 0.000000e+00 0.000000e+00
    outer loop
      vertex   0.000000e+00 1.133634e+01 2.980566e+01
      vertex   0.000000e+00 1.116261e+01 3.029450e+01
      vertex   0.000000e+00 1.582119e+01 3.576808e+01
    endloop
  endfacet
  facet normal -1.000000e+00 0.000000e+00 0.000000e+00
    outer loop
      vertex   0.000000e+00 1.582119e+01 3.576808e+01
      vertex   0.000000e+00 1.116261e+01 3.029450e+01
      vertex   0.000000e+00 1.086343e+01 3.071834e+01
    endloop
  endfacet
  facet normal -1.000000e+00 0.000000e+00 0.000000e+00
    outer loop
      vertex   0.000000e+00 1.582119e+01 3.576808e+01
      vertex   0.000000e+00 1.086343e+01 3.071834e+01
      vertex   0.000000e+00 1.046099e+01 3.104575e+01
    endloop
  endfacet
  facet normal -1.000000e+00 0.000000e+00 0.000000e+00
    outer loop
      vertex   0.000000e+00 1.046099e+01 3.104575e+01
      vertex   0.000000e+00 9.985150e+00 3.125244e+01
      vertex   0.000000e+00 1.582119e+01 3.576808e+01
    endloop
  endfacet
  facet normal 1.000000e+00 0.000000e+00 0.000000e+00
    outer loop
      vertex   1.016000e+01 -3.742776e+00 2.758372e+01
      vertex   1.016000e+01 1.564859e+00 1.781666e+01
      vertex   1.016000e+01 -3.228813e+00 2.751308e+01
    endloop
  endfacet
  facet normal 1.000000e+00 0.000000e+00 0.000000e+00
    outer loop
      vertex   1.016000e+01 -3.228813e+00 2.751308e+01
      vertex   1.016000e+01 1.564859e+00 1.781666e+01
      vertex   1.016000e+01 1.918964e+00 1.819581e+01
    endloop
  endfacet
  facet normal 1.000000e+00 -0.000000e+00 0.000000e+00
    outer loop
      vertex   1.016000e+01 -3.228813e+00 2.751308e+01
      vertex   1.016000e+01 1.918964e+00 1.819581e+01
      vertex   1.016000e+01 -2.714850e+00 2.758372e+01
    endloop
  endfacet
  facet normal 1.000000e+00 0.000000e+00 0.000000e+00
    outer loop
      vertex   1.016000e+01 -2.714850e+00 2.758372e+01
      vertex   1.016000e+01 1.918964e+00 1.819581e+01
      vertex   1.016000e+01 2.362233e+00 1.846537e+01
    endloop
  endfacet
  facet normal 1.000000e+00 -0.000000e+00 0.000000e+00
    outer loop
      vertex   1.016000e+01 -2.714850e+00 2.758372e+01
      vertex   1.016000e+01 2.362233e+00 1.846537e+01
      vertex   1.016000e+01 -2.239006e+00 2.779041e+01
    endloop
  endfacet
  facet normal 1.000000e+00 0.000000e+00 0.000000e+00
    outer loop
      vertex   1.016000e+01 -2.239006e+00 2.779041e+01
      vertex   1.016000e+01 2.362233e+00 1.846537e+01
      vertex   1.016000e+01 2.861789e+00 1.860534e+01
    endloop
  endfacet
  facet normal 1.000000e+00 -0.000000e+00 0.000000e+00
    outer loop
      vertex   1.016000e+01 -2.239006e+00 2.779041e+01
      vertex   1.016000e+01 2.861789e+00 1.860534e+01
      vertex   1.016000e+01 -1.836571e+00 2.811782e+01
    endloop
  endfacet
  facet normal 1.000000e+00 -0.000000e+00 0.000000e+00
    outer loop
      vertex   1.016000e+01 -1.836571e+00 2.811782e+01
      vertex   1.016000e+01 2.861789e+00 1.860534e+01
      vertex   1.016000e+01 8.078944e+00 2.811782e+01
    endloop
  endfacet
  facet normal 1.000000e+00 0.000000e+00 0.000000e+00
    outer loop
      vertex   1.016000e+01 -1.836571e+00 2.811782e+01
      vertex   1.016000e+01 8.078944e+00 2.811782e+01
      vertex   1.016000e+01 -1.537392e+00 2.854166e+01
    endloop
  endfacet
  facet normal 1.000000e+00 -0.000000e+00 0.000000e+00
    outer loop
      vertex   1.016000e+01 -1.537392e+00 2.854166e+01
      vertex   1.016000e+01 8.078944e+00 2.811782e+01
      vertex   1.016000e+01 7.779765e+00 2.854166e+01
    endloop
  endfacet
  facet normal 1.000000e+00 0.000000e+00 0.000000e+00
    outer loop
      vertex   1.016000e+01 -1.537392e+00 2.854166e+01
      vertex   1.016000e+01 7.779765e+00 2.854166e+01
      vertex   1.016000e+01 -1.363658e+00 2.903049e+01
    endloop
  endfacet
  facet normal 1.000000e+00 -0.000000e+00 0.000000e+00
    outer loop
      vertex   1.016000e+01 -1.363658e+00 2.903049e+01
      vertex   1.016000e+01 7.779765e+00 2.854166e+01
      vertex   1.016000e+01 7.606031e+00 2.903049e+01
    endloop
  endfacet
  facet normal 1.000000e+00 0.000000e+00 0.000000e+00
    outer loop
      vertex   1.016000e+01 -1.363658e+00 2.903049e+01
      vertex   1.016000e+01 7.606031e+00 2.903049e+01
      vertex   1.016000e+01 -1.328254e+00 2.954808e+01
    endloop
  endfacet
  facet normal 1.000000e+00 -0.000000e+00 0.000000e+00
    outer loop
      vertex   1.016000e+01 -1.328254e+00 2.954808e+01
      vertex   1.016000e+01 7.606031e+00 2.903049e+01
      vertex   1.016000e+01 7.570628e+00 2.954808e+01
    endloop
  endfacet
  facet normal 1.000000e+00 0.000000e+00 -0.000000e+00
    outer loop
      vertex   1.016000e+01 -1.328254e+00 2.954808e+01
      vertex   1.016000e+01 7.570628e+00 2.954808e+01
      vertex   1.016000e+01 -1.433806e+00 3.005602e+01
    endloop
  endfacet
  facet normal 1.000000e+00 -0.000000e+00 0.000000e+00
    outer loop
      vertex   1.016000e+01 -1.433806e+00 3.005602e+01
      vertex   1.016000e+01 7.570628e+00 2.954808e+01
      vertex   1.016000e+01 7.676179e+00 3.005602e+01
    endloop
  endfacet
  facet normal 1.000000e+00 0.000000e+00 -0.000000e+00
    outer loop
      vertex   1.016000e+01 -1.433806e+00 3.005602e+01
      vertex   1.016000e+01 7.676179e+00 3.005602e+01
      vertex   1.016000e+01 -1.672486e+00 3.051666e+01
    endloop
  endfacet
  facet normal 1.000000e+00 -0.000000e+00 0.000000e+00
    outer loop
      vertex   1.016000e+01 -1.672486e+00 3.051666e+01
      vertex   1.016000e+01 7.676179e+00 3.005602e+01
      vertex   1.016000e+01 7.914859e+00 3.051666e+01
    endloop
  endfacet
  facet normal 1.000000e+00 0.000000e+00 -0.000000e+00
    outer loop
      vertex   1.016000e+01 -1.672486e+00 3.051666e+01
      vertex   1.016000e+01 7.914859e+00 3.051666e+01
      vertex   1.016000e+01 -2.026591e+00 3.089581e+01
    endloop
  endfacet
  facet normal 1.000000e+00 -0.000000e+00 0.000000e+00
    outer loop
      vertex   1.016000e+01 -2.026591e+00 3.089581e+01
      vertex   1.016000e+01 7.914859e+00 3.051666e+01
      vertex   1.016000e+01 8.268964e+00 3.089581e+01
    endloop
  endfacet
  facet normal 1.000000e+00 0.000000e+00 0.000000e+00
    outer loop
      vertex   1.016000e+01 -2.026591e+00 3.089581e+01
      vertex   1.016000e+01 8.268964e+00 3.089581e+01
      vertex   1.016000e+01 8.712233e+00 3.116537e+01
    endloop
  endfacet
  facet normal 1.000000e+00 0.000000e+00 0.000000e+00
    outer loop
      vertex   1.016000e+01 -4.218621e+00 2.779041e+01
      vertex   1.016000e+01 -9.578813e+00 1.036808e+01
      vertex   1.016000e+01 -3.742776e+00 2.758372e+01
    endloop
  endfacet
  facet normal 1.000000e+00 0.000000e+00 0.000000e+00
    outer loop
      vertex   1.016000e+01 -3.742776e+00 2.758372e+01
      vertex   1.016000e+01 -9.578813e+00 1.036808e+01
      vertex   1.016000e+01 1.326180e+00 1.735602e+01
    endloop
  endfacet
  facet normal 1.000000e+00 0.000000e+00 0.000000e+00
    outer loop
      vertex   1.016000e+01 -3.742776e+00 2.758372e+01
      vertex   1.016000e+01 1.326180e+00 1.735602e+01
      vertex   1.016000e+01 1.564859e+00 1.781666e+01
    endloop
  endfacet
  facet normal 1.000000e+00 0.000000e+00 0.000000e+00
    outer loop
      vertex   1.016000e+01 -4.218621e+00 2.779041e+01
      vertex   1.016000e+01 -4.621056e+00 2.811782e+01
      vertex   1.016000e+01 -9.578813e+00 1.036808e+01
    endloop
  endfacet
  facet normal 1.000000e+00 0.000000e+00 0.000000e+00
    outer loop
      vertex   1.016000e+01 -9.578813e+00 1.036808e+01
      vertex   1.016000e+01 -4.621056e+00 2.811782e+01
      vertex   1.016000e+01 -4.920235e+00 2.854166e+01
    endloop
  endfacet
  facet normal 1.000000e+00 0.000000e+00 0.000000e+00
    outer loop
      vertex   1.016000e+01 -9.578813e+00 1.036808e+01
      vertex   1.016000e+01 -4.920235e+00 2.854166e+01
      vertex   1.016000e+01 -5.093969e+00 2.903049e+01
    endloop
  endfacet
  facet normal 1.000000e+00 0.000000e+00 0.000000e+00
    outer loop
      vertex   1.016000e+01 -9.578813e+00 1.036808e+01
      vertex   1.016000e+01 -5.093969e+00 2.903049e+01
      vertex   1.016000e+01 -9.578813e+00 3.576808e+01
    endloop
  endfacet
  facet normal 1.000000e+00 0.000000e+00 0.000000e+00
    outer loop
      vertex   1.016000e+01 -9.578813e+00 3.576808e+01
      vertex   1.016000e+01 -5.093969e+00 2.903049e+01
      vertex   1.016000e+01 -5.129372e+00 2.954808e+01
    endloop
  endfacet
  facet normal 1.000000e+00 0.000000e+00 0.000000e+00
    outer loop
      vertex   1.016000e+01 -9.578813e+00 3.576808e+01
      vertex   1.016000e+01 -5.129372e+00 2.954808e+01
      vertex   1.016000e+01 -5.023820e+00 3.005602e+01
    endloop
  endfacet
  facet normal 1.000000e+00 0.000000e+00 -0.000000e+00
    outer loop
      vertex   1.016000e+01 -5.023820e+00 3.005602e+01
      vertex   1.016000e+01 -4.785141e+00 3.051666e+01
      vertex   1.016000e+01 -9.578813e+00 3.576808e+01
    endloop
  endfacet
  facet normal 1.000000e+00 0.000000e+00 0.000000e+00
    outer loop
      vertex   1.016000e+01 -9.578813e+00 3.576808e+01
      vertex   1.016000e+01 -4.785141e+00 3.051666e+01
      vertex   1.016000e+01 -4.431036e+00 3.089581e+01
    endloop
  endfacet
  facet normal 1.000000e+00 0.000000e+00 0.000000e+00
    outer loop
      vertex   1.016000e+01 -9.578813e+00 3.576808e+01
      vertex   1.016000e+01 -4.431036e+00 3.089581e+01
      vertex   1.016000e+01 -3.987767e+00 3.116537e+01
    endloop
  endfacet
  facet normal 1.000000e+00 0.000000e+00 -0.000000e+00
    outer loop
      vertex   1.016000e+01 -3.987767e+00 3.116537e+01
      vertex   1.016000e+01 -3.488211e+00 3.130534e+01
      vertex   1.016000e+01 -9.578813e+00 3.576808e+01
    endloop
  endfacet
  facet normal 1.000000e+00 0.000000e+00 0.000000e+00
    outer loop
      vertex   1.016000e+01 -9.578813e+00 3.576808e+01
      vertex   1.016000e+01 -3.488211e+00 3.130534e+01
      vertex   1.016000e+01 -2.969416e+00 3.130534e+01
    endloop
  endfacet
  facet normal 1.000000e+00 0.000000e+00 0.000000e+00
    outer loop
      vertex   1.016000e+01 -9.578813e+00 3.576808e+01
      vertex   1.016000e+01 -2.969416e+00 3.130534e+01
      vertex   1.016000e+01 -2.469859e+00 3.116537e+01
    endloop
  endfacet
  facet normal 1.000000e+00 0.000000e+00 0.000000e+00
    outer loop
      vertex   1.016000e+01 -9.578813e+00 3.576808e+01
      vertex   1.016000e+01 -2.469859e+00 3.116537e+01
      vertex   1.016000e+01 8.712233e+00 3.116537e+01
    endloop
  endfacet
  facet normal 1.000000e+00 0.000000e+00 0.000000e+00
    outer loop
      vertex   1.016000e+01 8.712233e+00 3.116537e+01
      vertex   1.016000e+01 -2.469859e+00 3.116537e+01
      vertex   1.016000e+01 -2.026591e+00 3.089581e+01
    endloop
  endfacet
  facet normal 1.000000e+00 0.000000e+00 0.000000e+00
    outer loop
      vertex   1.016000e+01 8.957224e+00 2.758372e+01
      vertex   1.016000e+01 4.323409e+00 1.819581e+01
      vertex   1.016000e+01 9.471187e+00 2.751308e+01
    endloop
  endfacet
  facet normal 1.000000e+00 0.000000e+00 0.000000e+00
    outer loop
      vertex   1.016000e+01 9.471187e+00 2.751308e+01
      vertex   1.016000e+01 4.323409e+00 1.819581e+01
      vertex   1.016000e+01 4.677514e+00 1.781666e+01
    endloop
  endfacet
  facet normal 1.000000e+00 -0.000000e+00 0.000000e+00
    outer loop
      vertex   1.016000e+01 9.471187e+00 2.751308e+01
      vertex   1.016000e+01 4.677514e+00 1.781666e+01
      vertex   1.016000e+01 9.985150e+00 2.758372e+01
    endloop
  endfacet
  facet normal 1.000000e+00 0.000000e+00 0.000000e+00
    outer loop
      vertex   1.016000e+01 9.985150e+00 2.758372e+01
      vertex   1.016000e+01 4.677514e+00 1.781666e+01
      vertex   1.016000e+01 4.916194e+00 1.735602e+01
    endloop
  endfacet
  facet normal 1.000000e+00 0.000000e+00 0.000000e+00
    outer loop
      vertex   1.016000e+01 9.985150e+00 2.758372e+01
      vertex   1.016000e+01 4.916194e+00 1.735602e+01
      vertex   1.016000e+01 1.582119e+01 1.036808e+01
    endloop
  endfacet
  facet normal 1.000000e+00 0.000000e+00 0.000000e+00
    outer loop
      vertex   1.016000e+01 1.582119e+01 1.036808e+01
      vertex   1.016000e+01 4.916194e+00 1.735602e+01
      vertex   1.016000e+01 5.021746e+00 1.684808e+01
    endloop
  endfacet
  facet normal 1.000000e+00 0.000000e+00 0.000000e+00
    outer loop
      vertex   1.016000e+01 1.582119e+01 1.036808e+01
      vertex   1.016000e+01 5.021746e+00 1.684808e+01
      vertex   1.016000e+01 4.986342e+00 1.633049e+01
    endloop
  endfacet
  facet normal 1.000000e+00 0.000000e+00 -0.000000e+00
    outer loop
      vertex   1.016000e+01 4.323409e+00 1.819581e+01
      vertex   1.016000e+01 8.957224e+00 2.758372e+01
      vertex   1.016000e+01 3.880141e+00 1.846537e+01
    endloop
  endfacet
  facet normal 1.000000e+00 0.000000e+00 0.000000e+00
    outer loop
      vertex   1.016000e+01 3.880141e+00 1.846537e+01
      vertex   1.016000e+01 8.957224e+00 2.758372e+01
      vertex   1.016000e+01 8.481379e+00 2.779041e+01
    endloop
  endfacet
  facet normal 1.000000e+00 0.000000e+00 -0.000000e+00
    outer loop
      vertex   1.016000e+01 3.880141e+00 1.846537e+01
      vertex   1.016000e+01 8.481379e+00 2.779041e+01
      vertex   1.016000e+01 3.380584e+00 1.860534e+01
    endloop
  endfacet
  facet normal 1.000000e+00 0.000000e+00 0.000000e+00
    outer loop
      vertex   1.016000e+01 3.380584e+00 1.860534e+01
      vertex   1.016000e+01 8.481379e+00 2.779041e+01
      vertex   1.016000e+01 8.078944e+00 2.811782e+01
    endloop
  endfacet
  facet normal 1.000000e+00 0.000000e+00 -0.000000e+00
    outer loop
      vertex   1.016000e+01 3.380584e+00 1.860534e+01
      vertex   1.016000e+01 8.078944e+00 2.811782e+01
      vertex   1.016000e+01 2.861789e+00 1.860534e+01
    endloop
  endfacet
  facet normal 1.000000e+00 -0.000000e+00 0.000000e+00
    outer loop
      vertex   1.016000e+01 -9.578813e+00 3.576808e+01
      vertex   1.016000e+01 8.712233e+00 3.116537e+01
      vertex   1.016000e+01 1.582119e+01 3.576808e+01
    endloop
  endfacet
  facet normal 1.000000e+00 0.000000e+00 0.000000e+00
    outer loop
      vertex   1.016000e+01 1.582119e+01 3.576808e+01
      vertex   1.016000e+01 8.712233e+00 3.116537e+01
      vertex   1.016000e+01 9.211789e+00 3.130534e+01
    endloop
  endfacet
  facet normal 1.000000e+00 0.000000e+00 0.000000e+00
    outer loop
      vertex   1.016000e+01 1.582119e+01 3.576808e+01
      vertex   1.016000e+01 9.211789e+00 3.130534e+01
      vertex   1.016000e+01 9.730584e+00 3.130534e+01
    endloop
  endfacet
  facet normal 1.000000e+00 -0.000000e+00 0.000000e+00
    outer loop
      vertex   1.016000e+01 9.730584e+00 3.130534e+01
      vertex   1.016000e+01 1.023014e+01 3.116537e+01
      vertex   1.016000e+01 1.582119e+01 3.576808e+01
    endloop
  endfacet
  facet normal 1.000000e+00 0.000000e+00 0.000000e+00
    outer loop
      vertex   1.016000e+01 1.582119e+01 3.576808e+01
      vertex   1.016000e+01 1.023014e+01 3.116537e+01
      vertex   1.016000e+01 1.067341e+01 3.089581e+01
    endloop
  endfacet
  facet normal 1.000000e+00 0.000000e+00 0.000000e+00
    outer loop
      vertex   1.016000e+01 1.582119e+01 3.576808e+01
      vertex   1.016000e+01 1.067341e+01 3.089581e+01
      vertex   1.016000e+01 1.102751e+01 3.051666e+01
    endloop
  endfacet
  facet normal 1.000000e+00 -0.000000e+00 0.000000e+00
    outer loop
      vertex   1.016000e+01 1.102751e+01 3.051666e+01
      vertex   1.016000e+01 1.126619e+01 3.005602e+01
      vertex   1.016000e+01 1.582119e+01 3.576808e+01
    endloop
  endfacet
  facet normal 1.000000e+00 0.000000e+00 0.000000e+00
    outer loop
      vertex   1.016000e+01 1.582119e+01 3.576808e+01
      vertex   1.016000e+01 1.126619e+01 3.005602e+01
      vertex   1.016000e+01 1.137175e+01 2.954808e+01
    endloop
  endfacet
  facet normal 1.000000e+00 0.000000e+00 0.000000e+00
    outer loop
      vertex   1.016000e+01 1.582119e+01 3.576808e+01
      vertex   1.016000e+01 1.137175e+01 2.954808e+01
      vertex   1.016000e+01 1.133634e+01 2.903049e+01
    endloop
  endfacet
  facet normal 1.000000e+00 0.000000e+00 0.000000e+00
    outer loop
      vertex   1.016000e+01 1.582119e+01 3.576808e+01
      vertex   1.016000e+01 1.133634e+01 2.903049e+01
      vertex   1.016000e+01 1.582119e+01 1.036808e+01
    endloop
  endfacet
  facet normal 1.000000e+00 0.000000e+00 0.000000e+00
    outer loop
      vertex   1.016000e+01 1.582119e+01 1.036808e+01
      vertex   1.016000e+01 1.133634e+01 2.903049e+01
      vertex   1.016000e+01 1.116261e+01 2.854166e+01
    endloop
  endfacet
  facet normal 1.000000e+00 0.000000e+00 0.000000e+00
    outer loop
      vertex   1.016000e+01 1.582119e+01 1.036808e+01
      vertex   1.016000e+01 1.116261e+01 2.854166e+01
      vertex   1.016000e+01 1.086343e+01 2.811782e+01
    endloop
  endfacet
  facet normal 1.000000e+00 0.000000e+00 0.000000e+00
    outer loop
      vertex   1.016000e+01 1.086343e+01 2.811782e+01
      vertex   1.016000e+01 1.046099e+01 2.779041e+01
      vertex   1.016000e+01 1.582119e+01 1.036808e+01
    endloop
  endfacet
  facet normal 1.000000e+00 0.000000e+00 0.000000e+00
    outer loop
      vertex   1.016000e+01 1.582119e+01 1.036808e+01
      vertex   1.016000e+01 1.046099e+01 2.779041e+01
      vertex   1.016000e+01 9.985150e+00 2.758372e+01
    endloop
  endfacet
  facet normal 1.000000e+00 0.000000e+00 0.000000e+00
    outer loop
      vertex   1.016000e+01 2.607224e+00 1.488372e+01
      vertex   1.016000e+01 -9.578813e+00 1.036808e+01
      vertex   1.016000e+01 3.121187e+00 1.481308e+01
    endloop
  endfacet
  facet normal 1.000000e+00 0.000000e+00 0.000000e+00
    outer loop
      vertex   1.016000e+01 3.121187e+00 1.481308e+01
      vertex   1.016000e+01 -9.578813e+00 1.036808e+01
      vertex   1.016000e+01 1.582119e+01 1.036808e+01
    endloop
  endfacet
  facet normal 1.000000e+00 -0.000000e+00 0.000000e+00
    outer loop
      vertex   1.016000e+01 3.121187e+00 1.481308e+01
      vertex   1.016000e+01 1.582119e+01 1.036808e+01
      vertex   1.016000e+01 3.635150e+00 1.488372e+01
    endloop
  endfacet
  facet normal 1.000000e+00 -0.000000e+00 0.000000e+00
    outer loop
      vertex   1.016000e+01 3.635150e+00 1.488372e+01
      vertex   1.016000e+01 1.582119e+01 1.036808e+01
      vertex   1.016000e+01 4.110994e+00 1.509041e+01
    endloop
  endfacet
  facet normal 1.000000e+00 -0.000000e+00 0.000000e+00
    outer loop
      vertex   1.016000e+01 4.110994e+00 1.509041e+01
      vertex   1.016000e+01 1.582119e+01 1.036808e+01
      vertex   1.016000e+01 4.513429e+00 1.541782e+01
    endloop
  endfacet
  facet normal 1.000000e+00 -0.000000e+00 0.000000e+00
    outer loop
      vertex   1.016000e+01 4.513429e+00 1.541782e+01
      vertex   1.016000e+01 1.582119e+01 1.036808e+01
      vertex   1.016000e+01 4.812608e+00 1.584166e+01
    endloop
  endfacet
  facet normal 1.000000e+00 -0.000000e+00 0.000000e+00
    outer loop
      vertex   1.016000e+01 4.812608e+00 1.584166e+01
      vertex   1.016000e+01 1.582119e+01 1.036808e+01
      vertex   1.016000e+01 4.986342e+00 1.633049e+01
    endloop
  endfacet
  facet normal 1.000000e+00 0.000000e+00 0.000000e+00
    outer loop
      vertex   1.016000e+01 2.607224e+00 1.488372e+01
      vertex   1.016000e+01 2.131379e+00 1.509041e+01
      vertex   1.016000e+01 -9.578813e+00 1.036808e+01
    endloop
  endfacet
  facet normal 1.000000e+00 0.000000e+00 0.000000e+00
    outer loop
      vertex   1.016000e+01 -9.578813e+00 1.036808e+01
      vertex   1.016000e+01 2.131379e+00 1.509041e+01
      vertex   1.016000e+01 1.728944e+00 1.541782e+01
    endloop
  endfacet
  facet normal 1.000000e+00 0.000000e+00 0.000000e+00
    outer loop
      vertex   1.016000e+01 -9.578813e+00 1.036808e+01
      vertex   1.016000e+01 1.728944e+00 1.541782e+01
      vertex   1.016000e+01 1.429765e+00 1.584166e+01
    endloop
  endfacet
  facet normal 1.000000e+00 0.000000e+00 0.000000e+00
    outer loop
      vertex   1.016000e+01 1.429765e+00 1.584166e+01
      vertex   1.016000e+01 1.256032e+00 1.633049e+01
      vertex   1.016000e+01 -9.578813e+00 1.036808e+01
    endloop
  endfacet
  facet normal 1.000000e+00 0.000000e+00 0.000000e+00
    outer loop
      vertex   1.016000e+01 -9.578813e+00 1.036808e+01
      vertex   1.016000e+01 1.256032e+00 1.633049e+01
      vertex   1.016000e+01 1.220628e+00 1.684808e+01
    endloop
  endfacet
  facet normal 1.000000e+00 0.000000e+00 0.000000e+00
    outer loop
      vertex   1.016000e+01 -9.578813e+00 1.036808e+01
      vertex   1.016000e+01 1.220628e+00 1.684808e+01
      vertex   1.016000e+01 1.326180e+00 1.735602e+01
    endloop
  endfacet
  facet normal 1.746380e-03 -1.361658e-01 -9.906845e-01
    outer loop
      vertex   0.000000e+00 3.635150e+00 1.855244e+01
      vertex   1.016000e+01 3.380584e+00 1.860534e+01
      vertex   0.000000e+00 3.121187e+00 1.862308e+01
    endloop
  endfacet
  facet normal -1.746366e-03 0.000000e+00 -9.999985e-01
    outer loop
      vertex   0.000000e+00 3.121187e+00 1.862308e+01
      vertex   1.016000e+01 3.380584e+00 1.860534e+01
      vertex   1.016000e+01 2.861789e+00 1.860534e+01
    endloop
  endfacet
  facet normal 1.746384e-03 1.361658e-01 -9.906845e-01
    outer loop
      vertex   0.000000e+00 3.121187e+00 1.862308e+01
      vertex   1.016000e+01 2.861789e+00 1.860534e+01
      vertex   0.000000e+00 2.607224e+00 1.855244e+01
    endloop
  endfacet
  facet normal -1.746413e-03 2.697971e-01 -9.629156e-01
    outer loop
      vertex   0.000000e+00 2.607224e+00 1.855244e+01
      vertex   1.016000e+01 2.861789e+00 1.860534e+01
      vertex   1.016000e+01 2.362233e+00 1.846537e+01
    endloop
  endfacet
  facet normal 1.746343e-03 3.984008e-01 -9.172098e-01
    outer loop
      vertex   0.000000e+00 2.607224e+00 1.855244e+01
      vertex   1.016000e+01 2.362233e+00 1.846537e+01
      vertex   0.000000e+00 2.131379e+00 1.834575e+01
    endloop
  endfacet
  facet normal -1.746399e-03 5.195828e-01 -8.544183e-01
    outer loop
      vertex   0.000000e+00 2.131379e+00 1.834575e+01
      vertex   1.016000e+01 2.362233e+00 1.846537e+01
      vertex   1.016000e+01 1.918964e+00 1.819581e+01
    endloop
  endfacet
  facet normal 1.746400e-03 6.310877e-01 -7.757095e-01
    outer loop
      vertex   0.000000e+00 2.131379e+00 1.834575e+01
      vertex   1.016000e+01 1.918964e+00 1.819581e+01
      vertex   0.000000e+00 1.728944e+00 1.801834e+01
    endloop
  endfacet
  facet normal -1.746332e-03 7.308344e-01 -6.825526e-01
    outer loop
      vertex   0.000000e+00 1.728944e+00 1.801834e+01
      vertex   1.016000e+01 1.918964e+00 1.819581e+01
      vertex   1.016000e+01 1.564859e+00 1.781666e+01
    endloop
  endfacet
  facet normal 1.746416e-03 8.169682e-01 -5.766801e-01
    outer loop
      vertex   0.000000e+00 1.728944e+00 1.801834e+01
      vertex   1.016000e+01 1.564859e+00 1.781666e+01
      vertex   0.000000e+00 1.429765e+00 1.759450e+01
    endloop
  endfacet
  facet normal -1.746377e-03 8.878839e-01 -4.600642e-01
    outer loop
      vertex   0.000000e+00 1.429765e+00 1.759450e+01
      vertex   1.016000e+01 1.564859e+00 1.781666e+01
      vertex   1.016000e+01 1.326180e+00 1.735602e+01
    endloop
  endfacet
  facet normal 1.746388e-03 9.422595e-01 -3.348790e-01
    outer loop
      vertex   0.000000e+00 1.429765e+00 1.759450e+01
      vertex   1.016000e+01 1.326180e+00 1.735602e+01
      vertex   0.000000e+00 1.256032e+00 1.710566e+01
    endloop
  endfacet
  facet normal -1.746375e-03 9.790826e-01 -2.034558e-01
    outer loop
      vertex   0.000000e+00 1.256032e+00 1.710566e+01
      vertex   1.016000e+01 1.326180e+00 1.735602e+01
      vertex   1.016000e+01 1.220628e+00 1.684808e+01
    endloop
  endfacet
  facet normal 1.746385e-03 9.976672e-01 -6.824234e-02
    outer loop
      vertex   0.000000e+00 1.256032e+00 1.710566e+01
      vertex   1.016000e+01 1.220628e+00 1.684808e+01
      vertex   0.000000e+00 1.220628e+00 1.658808e+01
    endloop
  endfacet
  facet normal -1.746381e-03 9.976673e-01 6.824218e-02
    outer loop
      vertex   0.000000e+00 1.220628e+00 1.658808e+01
      vertex   1.016000e+01 1.220628e+00 1.684808e+01
      vertex   1.016000e+01 1.256032e+00 1.633049e+01
    endloop
  endfacet
  facet normal 1.746399e-03 9.790826e-01 2.034558e-01
    outer loop
      vertex   0.000000e+00 1.220628e+00 1.658808e+01
      vertex   1.016000e+01 1.256032e+00 1.633049e+01
      vertex   0.000000e+00 1.326180e+00 1.608013e+01
    endloop
  endfacet
  facet normal -1.746368e-03 9.422593e-01 3.348797e-01
    outer loop
      vertex   0.000000e+00 1.326180e+00 1.608013e+01
      vertex   1.016000e+01 1.256032e+00 1.633049e+01
      vertex   1.016000e+01 1.429765e+00 1.584166e+01
    endloop
  endfacet
  facet normal 1.746377e-03 8.878839e-01 4.600642e-01
    outer loop
      vertex   0.000000e+00 1.326180e+00 1.608013e+01
      vertex   1.016000e+01 1.429765e+00 1.584166e+01
      vertex   0.000000e+00 1.564859e+00 1.561950e+01
    endloop
  endfacet
  facet normal -1.746382e-03 8.169689e-01 5.766790e-01
    outer loop
      vertex   0.000000e+00 1.564859e+00 1.561950e+01
      vertex   1.016000e+01 1.429765e+00 1.584166e+01
      vertex   1.016000e+01 1.728944e+00 1.541782e+01
    endloop
  endfacet
  facet normal 1.746372e-03 7.308355e-01 6.825514e-01
    outer loop
      vertex   0.000000e+00 1.564859e+00 1.561950e+01
      vertex   1.016000e+01 1.728944e+00 1.541782e+01
      vertex   0.000000e+00 1.918964e+00 1.524035e+01
    endloop
  endfacet
  facet normal -1.746446e-03 6.310863e-01 7.757107e-01
    outer loop
      vertex   0.000000e+00 1.918964e+00 1.524035e+01
      vertex   1.016000e+01 1.728944e+00 1.541782e+01
      vertex   1.016000e+01 2.131379e+00 1.509041e+01
    endloop
  endfacet
  facet normal 1.746299e-03 5.195828e-01 8.544183e-01
    outer loop
      vertex   0.000000e+00 1.918964e+00 1.524035e+01
      vertex   1.016000e+01 2.131379e+00 1.509041e+01
      vertex   0.000000e+00 2.362233e+00 1.497079e+01
    endloop
  endfacet
  facet normal -1.746451e-03 3.984008e-01 9.172098e-01
    outer loop
      vertex   0.000000e+00 2.362233e+00 1.497079e+01
      vertex   1.016000e+01 2.131379e+00 1.509041e+01
      vertex   1.016000e+01 2.607224e+00 1.488372e+01
    endloop
  endfacet
  facet normal 1.746357e-03 2.697950e-01 9.629162e-01
    outer loop
      vertex   0.000000e+00 2.362233e+00 1.497079e+01
      vertex   1.016000e+01 2.607224e+00 1.488372e+01
      vertex   0.000000e+00 2.861789e+00 1.483082e+01
    endloop
  endfacet
  facet normal -1.746326e-03 1.361681e-01 9.906842e-01
    outer loop
      vertex   0.000000e+00 2.861789e+00 1.483082e+01
      vertex   1.016000e+01 2.607224e+00 1.488372e+01
      vertex   1.016000e+01 3.121187e+00 1.481308e+01
    endloop
  endfacet
  facet normal 1.746484e-03 -0.000000e+00 9.999985e-01
    outer loop
      vertex   0.000000e+00 2.861789e+00 1.483082e+01
      vertex   1.016000e+01 3.121187e+00 1.481308e+01
      vertex   0.000000e+00 3.380584e+00 1.483082e+01
    endloop
  endfacet
  facet normal -1.746322e-03 -1.361681e-01 9.906842e-01
    outer loop
      vertex   0.000000e+00 3.380584e+00 1.483082e+01
      vertex   1.016000e+01 3.121187e+00 1.481308e+01
      vertex   1.016000e+01 3.635150e+00 1.488372e+01
    endloop
  endfacet
  facet normal 1.746363e-03 -2.697949e-01 9.629162e-01
    outer loop
      vertex   0.000000e+00 3.380584e+00 1.483082e+01
      vertex   1.016000e+01 3.635150e+00 1.488372e+01
      vertex   0.000000e+00 3.880141e+00 1.497079e+01
    endloop
  endfacet
  facet normal -1.746448e-03 -3.984009e-01 9.172097e-01
    outer loop
      vertex   0.000000e+00 3.880141e+00 1.497079e+01
      vertex   1.016000e+01 3.635150e+00 1.488372e+01
      vertex   1.016000e+01 4.110994e+00 1.509041e+01
    endloop
  endfacet
  facet normal 1.746299e-03 -5.195828e-01 8.544183e-01
    outer loop
      vertex   0.000000e+00 3.880141e+00 1.497079e+01
      vertex   1.016000e+01 4.110994e+00 1.509041e+01
      vertex   0.000000e+00 4.323409e+00 1.524035e+01
    endloop
  endfacet
  facet normal -1.746441e-03 -6.310862e-01 7.757108e-01
    outer loop
      vertex   0.000000e+00 4.323409e+00 1.524035e+01
      vertex   1.016000e+01 4.110994e+00 1.509041e+01
      vertex   1.016000e+01 4.513429e+00 1.541782e+01
    endloop
  endfacet
  facet normal 1.746377e-03 -7.308353e-01 6.825516e-01
    outer loop
      vertex   0.000000e+00 4.323409e+00 1.524035e+01
      vertex   1.016000e+01 4.513429e+00 1.541782e+01
      vertex   0.000000e+00 4.677514e+00 1.561950e+01
    endloop
  endfacet
  facet normal -1.746388e-03 -8.169691e-01 5.766788e-01
    outer loop
      vertex   0.000000e+00 4.677514e+00 1.561950e+01
      vertex   1.016000e+01 4.513429e+00 1.541782e+01
      vertex   1.016000e+01 4.812608e+00 1.584166e+01
    endloop
  endfacet
  facet normal 1.746370e-03 -8.878840e-01 4.600640e-01
    outer loop
      vertex   0.000000e+00 4.677514e+00 1.561950e+01
      vertex   1.016000e+01 4.812608e+00 1.584166e+01
      vertex   0.000000e+00 4.916194e+00 1.608013e+01
    endloop
  endfacet
  facet normal -1.746368e-03 -9.422593e-01 3.348797e-01
    outer loop
      vertex   0.000000e+00 4.916194e+00 1.608013e+01
      vertex   1.016000e+01 4.812608e+00 1.584166e+01
      vertex   1.016000e+01 4.986342e+00 1.633049e+01
    endloop
  endfacet
  facet normal 1.746406e-03 -9.790826e-01 2.034555e-01
    outer loop
      vertex   0.000000e+00 4.916194e+00 1.608013e+01
      vertex   1.016000e+01 4.986342e+00 1.633049e+01
      vertex   0.000000e+00 5.021746e+00 1.658808e+01
    endloop
  endfacet
  facet normal -1.746373e-03 -9.976673e-01 6.824190e-02
    outer loop
      vertex   0.000000e+00 5.021746e+00 1.658808e+01
      vertex   1.016000e+01 4.986342e+00 1.633049e+01
      vertex   1.016000e+01 5.021746e+00 1.684808e+01
    endloop
  endfacet
  facet normal 1.746377e-03 -9.976673e-01 -6.824205e-02
    outer loop
      vertex   0.000000e+00 5.021746e+00 1.658808e+01
      vertex   1.016000e+01 5.021746e+00 1.684808e+01
      vertex   0.000000e+00 4.986342e+00 1.710566e+01
    endloop
  endfacet
  facet normal -1.746382e-03 -9.790826e-01 -2.034555e-01
    outer loop
      vertex   0.000000e+00 4.986342e+00 1.710566e+01
      vertex   1.016000e+01 5.021746e+00 1.684808e+01
      vertex   1.016000e+01 4.916194e+00 1.735602e+01
    endloop
  endfacet
  facet normal 1.746388e-03 -9.422595e-01 -3.348790e-01
    outer loop
      vertex   0.000000e+00 4.986342e+00 1.710566e+01
      vertex   1.016000e+01 4.916194e+00 1.735602e+01
      vertex   0.000000e+00 4.812608e+00 1.759450e+01
    endloop
  endfacet
  facet normal -1.746370e-03 -8.878840e-01 -4.600640e-01
    outer loop
      vertex   0.000000e+00 4.812608e+00 1.759450e+01
      vertex   1.016000e+01 4.916194e+00 1.735602e+01
      vertex   1.016000e+01 4.677514e+00 1.781666e+01
    endloop
  endfacet
  facet normal 1.746422e-03 -8.169683e-01 -5.766799e-01
    outer loop
      vertex   0.000000e+00 4.812608e+00 1.759450e+01
      vertex   1.016000e+01 4.677514e+00 1.781666e+01
      vertex   0.000000e+00 4.513429e+00 1.801834e+01
    endloop
  endfacet
  facet normal -1.746337e-03 -7.308343e-01 -6.825527e-01
    outer loop
      vertex   0.000000e+00 4.513429e+00 1.801834e+01
      vertex   1.016000e+01 4.677514e+00 1.781666e+01
      vertex   1.016000e+01 4.323409e+00 1.819581e+01
    endloop
  endfacet
  facet normal 1.746396e-03 -6.310875e-01 -7.757097e-01
    outer loop
      vertex   0.000000e+00 4.513429e+00 1.801834e+01
      vertex   1.016000e+01 4.323409e+00 1.819581e+01
      vertex   0.000000e+00 4.110994e+00 1.834575e+01
    endloop
  endfacet
  facet normal -1.746399e-03 -5.195828e-01 -8.544183e-01
    outer loop
      vertex   0.000000e+00 4.110994e+00 1.834575e+01
      vertex   1.016000e+01 4.323409e+00 1.819581e+01
      vertex   1.016000e+01 3.880141e+00 1.846537e+01
    endloop
  endfacet
  facet normal 1.746340e-03 -3.984009e-01 -9.172097e-01
    outer loop
      vertex   0.000000e+00 4.110994e+00 1.834575e+01
      vertex   1.016000e+01 3.880141e+00 1.846537e+01
      vertex   0.000000e+00 3.635150e+00 1.855244e+01
    endloop
  endfacet
  facet normal -1.746419e-03 -2.697970e-01 -9.629156e-01
    outer loop
      vertex   0.000000e+00 3.635150e+00 1.855244e+01
      vertex   1.016000e+01 3.880141e+00 1.846537e+01
      vertex   1.016000e+01 3.380584e+00 1.860534e+01
    endloop
  endfacet
  facet normal 1.746436e-03 -1.361682e-01 -9.906842e-01
    outer loop
      vertex   0.000000e+00 9.985150e+00 3.125244e+01
      vertex   1.016000e+01 9.730584e+00 3.130534e+01
      vertex   0.000000e+00 9.471187e+00 3.132308e+01
    endloop
  endfacet
  facet normal -1.746366e-03 0.000000e+00 -9.999985e-01
    outer loop
      vertex   0.000000e+00 9.471187e+00 3.132308e+01
      vertex   1.016000e+01 9.730584e+00 3.130534e+01
      vertex   1.016000e+01 9.211789e+00 3.130534e+01
    endloop
  endfacet
  facet normal 1.746440e-03 1.361680e-01 -9.906842e-01
    outer loop
      vertex   0.000000e+00 9.471187e+00 3.132308e+01
      vertex   1.016000e+01 9.211789e+00 3.130534e+01
      vertex   0.000000e+00 8.957224e+00 3.125244e+01
    endloop
  endfacet
  facet normal -1.746363e-03 2.697992e-01 -9.629150e-01
    outer loop
      vertex   0.000000e+00 8.957224e+00 3.125244e+01
      vertex   1.016000e+01 9.211789e+00 3.130534e+01
      vertex   1.016000e+01 8.712233e+00 3.116537e+01
    endloop
  endfacet
  facet normal 1.746281e-03 3.983987e-01 -9.172107e-01
    outer loop
      vertex   0.000000e+00 8.957224e+00 3.125244e+01
      vertex   1.016000e+01 8.712233e+00 3.116537e+01
      vertex   0.000000e+00 8.481379e+00 3.104575e+01
    endloop
  endfacet
  facet normal -1.746465e-03 5.195811e-01 -8.544193e-01
    outer loop
      vertex   0.000000e+00 8.481379e+00 3.104575e+01
      vertex   1.016000e+01 8.712233e+00 3.116537e+01
      vertex   1.016000e+01 8.268964e+00 3.089581e+01
    endloop
  endfacet
  facet normal 1.746387e-03 6.310878e-01 -7.757094e-01
    outer loop
      vertex   0.000000e+00 8.481379e+00 3.104575e+01
      vertex   1.016000e+01 8.268964e+00 3.089581e+01
      vertex   0.000000e+00 8.078944e+00 3.071834e+01
    endloop
  endfacet
  facet normal -1.746377e-03 7.308353e-01 -6.825516e-01
    outer loop
      vertex   0.000000e+00 8.078944e+00 3.071834e+01
      vertex   1.016000e+01 8.268964e+00 3.089581e+01
      vertex   1.016000e+01 7.914859e+00 3.051666e+01
    endloop
  endfacet
  facet normal 1.746343e-03 8.169681e-01 -5.766803e-01
    outer loop
      vertex   0.000000e+00 8.078944e+00 3.071834e+01
      vertex   1.016000e+01 7.914859e+00 3.051666e+01
      vertex   0.000000e+00 7.779765e+00 3.029450e+01
    endloop
  endfacet
  facet normal -1.746464e-03 8.878843e-01 -4.600635e-01
    outer loop
      vertex   0.000000e+00 7.779765e+00 3.029450e+01
      vertex   1.016000e+01 7.914859e+00 3.051666e+01
      vertex   1.016000e+01 7.676179e+00 3.005602e+01
    endloop
  endfacet
  facet normal 1.746329e-03 9.422598e-01 -3.348783e-01
    outer loop
      vertex   0.000000e+00 7.779765e+00 3.029450e+01
      vertex   1.016000e+01 7.676179e+00 3.005602e+01
      vertex   0.000000e+00 7.606031e+00 2.980566e+01
    endloop
  endfacet
  facet normal -1.746420e-03 9.790828e-01 -2.034549e-01
    outer loop
      vertex   0.000000e+00 7.606031e+00 2.980566e+01
      vertex   1.016000e+01 7.676179e+00 3.005602e+01
      vertex   1.016000e+01 7.570628e+00 2.954808e+01
    endloop
  endfacet
  facet normal 1.746355e-03 9.976673e-01 -6.824148e-02
    outer loop
      vertex   0.000000e+00 7.606031e+00 2.980566e+01
      vertex   1.016000e+01 7.570628e+00 2.954808e+01
      vertex   0.000000e+00 7.570628e+00 2.928808e+01
    endloop
  endfacet
  facet normal -1.746355e-03 9.976673e-01 6.824148e-02
    outer loop
      vertex   0.000000e+00 7.570628e+00 2.928808e+01
      vertex   1.016000e+01 7.570628e+00 2.954808e+01
      vertex   1.016000e+01 7.606031e+00 2.903049e+01
    endloop
  endfacet
  facet normal 1.746420e-03 9.790828e-01 2.034549e-01
    outer loop
      vertex   0.000000e+00 7.570628e+00 2.928808e+01
      vertex   1.016000e+01 7.606031e+00 2.903049e+01
      vertex   0.000000e+00 7.676179e+00 2.878013e+01
    endloop
  endfacet
  facet normal -1.746368e-03 9.422593e-01 3.348797e-01
    outer loop
      vertex   0.000000e+00 7.676179e+00 2.878013e+01
      vertex   1.016000e+01 7.606031e+00 2.903049e+01
      vertex   1.016000e+01 7.779765e+00 2.854166e+01
    endloop
  endfacet
  facet normal 1.746410e-03 8.878833e-01 4.600654e-01
    outer loop
      vertex   0.000000e+00 7.676179e+00 2.878013e+01
      vertex   1.016000e+01 7.779765e+00 2.854166e+01
      vertex   0.000000e+00 7.914859e+00 2.831950e+01
    endloop
  endfacet
  facet normal -1.746343e-03 8.169681e-01 5.766803e-01
    outer loop
      vertex   0.000000e+00 7.914859e+00 2.831950e+01
      vertex   1.016000e+01 7.779765e+00 2.854166e+01
      vertex   1.016000e+01 8.078944e+00 2.811782e+01
    endloop
  endfacet
  facet normal 1.746377e-03 7.308353e-01 6.825516e-01
    outer loop
      vertex   0.000000e+00 7.914859e+00 2.831950e+01
      vertex   1.016000e+01 8.078944e+00 2.811782e+01
      vertex   0.000000e+00 8.268964e+00 2.794035e+01
    endloop
  endfacet
  facet normal -1.746387e-03 6.310878e-01 7.757094e-01
    outer loop
      vertex   0.000000e+00 8.268964e+00 2.794035e+01
      vertex   1.016000e+01 8.078944e+00 2.811782e+01
      vertex   1.016000e+01 8.481379e+00 2.779041e+01
    endloop
  endfacet
  facet normal 1.746365e-03 5.195845e-01 8.544173e-01
    outer loop
      vertex   0.000000e+00 8.268964e+00 2.794035e+01
      vertex   1.016000e+01 8.481379e+00 2.779041e+01
      vertex   0.000000e+00 8.712233e+00 2.767079e+01
    endloop
  endfacet
  facet normal -1.746388e-03 3.984026e-01 9.172090e-01
    outer loop
      vertex   0.000000e+00 8.712233e+00 2.767079e+01
      vertex   1.016000e+01 8.481379e+00 2.779041e+01
      vertex   1.016000e+01 8.957224e+00 2.758372e+01
    endloop
  endfacet
  facet normal 1.746476e-03 2.697949e-01 9.629162e-01
    outer loop
      vertex   0.000000e+00 8.712233e+00 2.767079e+01
      vertex   1.016000e+01 8.957224e+00 2.758372e+01
      vertex   0.000000e+00 9.211789e+00 2.753082e+01
    endloop
  endfacet
  facet normal -1.746324e-03 1.361635e-01 9.906848e-01
    outer loop
      vertex   0.000000e+00 9.211789e+00 2.753082e+01
      vertex   1.016000e+01 8.957224e+00 2.758372e+01
      vertex   1.016000e+01 9.471187e+00 2.751308e+01
    endloop
  endfacet
  facet normal 1.746366e-03 -0.000000e+00 9.999985e-01
    outer loop
      vertex   0.000000e+00 9.211789e+00 2.753082e+01
      vertex   1.016000e+01 9.471187e+00 2.751308e+01
      vertex   0.000000e+00 9.730584e+00 2.753082e+01
    endloop
  endfacet
  facet normal -1.746320e-03 -1.361636e-01 9.906848e-01
    outer loop
      vertex   0.000000e+00 9.730584e+00 2.753082e+01
      vertex   1.016000e+01 9.471187e+00 2.751308e+01
      vertex   1.016000e+01 9.985150e+00 2.758372e+01
    endloop
  endfacet
  facet normal 1.746476e-03 -2.697949e-01 9.629162e-01
    outer loop
      vertex   0.000000e+00 9.730584e+00 2.753082e+01
      vertex   1.016000e+01 9.985150e+00 2.758372e+01
      vertex   0.000000e+00 1.023014e+01 2.767079e+01
    endloop
  endfacet
  facet normal -1.746388e-03 -3.984026e-01 9.172090e-01
    outer loop
      vertex   0.000000e+00 1.023014e+01 2.767079e+01
      vertex   1.016000e+01 9.985150e+00 2.758372e+01
      vertex   1.016000e+01 1.046099e+01 2.779041e+01
    endloop
  endfacet
  facet normal 1.746349e-03 -5.195840e-01 8.544176e-01
    outer loop
      vertex   0.000000e+00 1.023014e+01 2.767079e+01
      vertex   1.016000e+01 1.046099e+01 2.779041e+01
      vertex   0.000000e+00 1.067341e+01 2.794035e+01
    endloop
  endfacet
  facet normal -1.746424e-03 -6.310878e-01 7.757094e-01
    outer loop
      vertex   0.000000e+00 1.067341e+01 2.794035e+01
      vertex   1.016000e+01 1.046099e+01 2.779041e+01
      vertex   1.016000e+01 1.086343e+01 2.811782e+01
    endloop
  endfacet
  facet normal 1.746334e-03 -7.308353e-01 6.825516e-01
    outer loop
      vertex   0.000000e+00 1.067341e+01 2.794035e+01
      vertex   1.016000e+01 1.086343e+01 2.811782e+01
      vertex   0.000000e+00 1.102751e+01 2.831950e+01
    endloop
  endfacet
  facet normal -1.746414e-03 -8.169686e-01 5.766795e-01
    outer loop
      vertex   0.000000e+00 1.102751e+01 2.831950e+01
      vertex   1.016000e+01 1.086343e+01 2.811782e+01
      vertex   1.016000e+01 1.116261e+01 2.854166e+01
    endloop
  endfacet
  facet normal 1.746358e-03 -8.878843e-01 4.600636e-01
    outer loop
      vertex   0.000000e+00 1.102751e+01 2.831950e+01
      vertex   1.016000e+01 1.116261e+01 2.854166e+01
      vertex   0.000000e+00 1.126619e+01 2.878013e+01
    endloop
  endfacet
  facet normal -1.746340e-03 -9.422589e-01 3.348807e-01
    outer loop
      vertex   0.000000e+00 1.126619e+01 2.878013e+01
      vertex   1.016000e+01 1.116261e+01 2.854166e+01
      vertex   1.016000e+01 1.133634e+01 2.903049e+01
    endloop
  endfacet
  facet normal 1.746420e-03 -9.790823e-01 2.034571e-01
    outer loop
      vertex   0.000000e+00 1.126619e+01 2.878013e+01
      vertex   1.016000e+01 1.133634e+01 2.903049e+01
      vertex   0.000000e+00 1.137175e+01 2.928808e+01
    endloop
  endfacet
  facet normal -1.746384e-03 -9.976672e-01 6.824262e-02
    outer loop
      vertex   0.000000e+00 1.137175e+01 2.928808e+01
      vertex   1.016000e+01 1.133634e+01 2.903049e+01
      vertex   1.016000e+01 1.137175e+01 2.954808e+01
    endloop
  endfacet
  facet normal 1.746384e-03 -9.976672e-01 -6.824262e-02
    outer loop
      vertex   0.000000e+00 1.137175e+01 2.928808e+01
      vertex   1.016000e+01 1.137175e+01 2.954808e+01
      vertex   0.000000e+00 1.133634e+01 2.980566e+01
    endloop
  endfacet
  facet normal -1.746420e-03 -9.790823e-01 -2.034571e-01
    outer loop
      vertex   0.000000e+00 1.133634e+01 2.980566e+01
      vertex   1.016000e+01 1.137175e+01 2.954808e+01
      vertex   1.016000e+01 1.126619e+01 3.005602e+01
    endloop
  endfacet
  facet normal 1.746301e-03 -9.422594e-01 -3.348793e-01
    outer loop
      vertex   0.000000e+00 1.133634e+01 2.980566e+01
      vertex   1.016000e+01 1.126619e+01 3.005602e+01
      vertex   0.000000e+00 1.116261e+01 3.029450e+01
    endloop
  endfacet
  facet normal -1.746412e-03 -8.878852e-01 -4.600617e-01
    outer loop
      vertex   0.000000e+00 1.116261e+01 3.029450e+01
      vertex   1.016000e+01 1.126619e+01 3.005602e+01
      vertex   1.016000e+01 1.102751e+01 3.051666e+01
    endloop
  endfacet
  facet normal 1.746414e-03 -8.169686e-01 -5.766795e-01
    outer loop
      vertex   0.000000e+00 1.116261e+01 3.029450e+01
      vertex   1.016000e+01 1.102751e+01 3.051666e+01
      vertex   0.000000e+00 1.086343e+01 3.071834e+01
    endloop
  endfacet
  facet normal -1.746334e-03 -7.308353e-01 -6.825516e-01
    outer loop
      vertex   0.000000e+00 1.086343e+01 3.071834e+01
      vertex   1.016000e+01 1.102751e+01 3.051666e+01
      vertex   1.016000e+01 1.067341e+01 3.089581e+01
    endloop
  endfacet
  facet normal 1.746424e-03 -6.310878e-01 -7.757094e-01
    outer loop
      vertex   0.000000e+00 1.086343e+01 3.071834e+01
      vertex   1.016000e+01 1.067341e+01 3.089581e+01
      vertex   0.000000e+00 1.046099e+01 3.104575e+01
    endloop
  endfacet
  facet normal -1.746450e-03 -5.195806e-01 -8.544197e-01
    outer loop
      vertex   0.000000e+00 1.046099e+01 3.104575e+01
      vertex   1.016000e+01 1.067341e+01 3.089581e+01
      vertex   1.016000e+01 1.023014e+01 3.116537e+01
    endloop
  endfacet
  facet normal 1.746281e-03 -3.983987e-01 -9.172107e-01
    outer loop
      vertex   0.000000e+00 1.046099e+01 3.104575e+01
      vertex   1.016000e+01 1.023014e+01 3.116537e+01
      vertex   0.000000e+00 9.985150e+00 3.125244e+01
    endloop
  endfacet
  facet normal -1.746363e-03 -2.697992e-01 -9.629150e-01
    outer loop
      vertex   0.000000e+00 9.985150e+00 3.125244e+01
      vertex   1.016000e+01 1.023014e+01 3.116537e+01
      vertex   1.016000e+01 9.730584e+00 3.130534e+01
    endloop
  endfacet
  facet normal 1.746438e-03 -1.361681e-01 -9.906842e-01
    outer loop
      vertex   0.000000e+00 -2.714850e+00 3.125244e+01
      vertex   1.016000e+01 -2.969416e+00 3.130534e+01
      vertex   0.000000e+00 -3.228813e+00 3.132308e+01
    endloop
  endfacet
  facet normal -1.746366e-03 0.000000e+00 -9.999985e-01
    outer loop
      vertex   0.000000e+00 -3.228813e+00 3.132308e+01
      vertex   1.016000e+01 -2.969416e+00 3.130534e+01
      vertex   1.016000e+01 -3.488211e+00 3.130534e+01
    endloop
  endfacet
  facet normal 1.746440e-03 1.361680e-01 -9.906842e-01
    outer loop
      vertex   0.000000e+00 -3.228813e+00 3.132308e+01
      vertex   1.016000e+01 -3.488211e+00 3.130534e+01
      vertex   0.000000e+00 -3.742776e+00 3.125244e+01
    endloop
  endfacet
  facet normal -1.746363e-03 2.697992e-01 -9.629150e-01
    outer loop
      vertex   0.000000e+00 -3.742776e+00 3.125244e+01
      vertex   1.016000e+01 -3.488211e+00 3.130534e+01
      vertex   1.016000e+01 -3.987767e+00 3.116537e+01
    endloop
  endfacet
  facet normal 1.746287e-03 3.983989e-01 -9.172106e-01
    outer loop
      vertex   0.000000e+00 -3.742776e+00 3.125244e+01
      vertex   1.016000e+01 -3.987767e+00 3.116537e+01
      vertex   0.000000e+00 -4.218621e+00 3.104575e+01
    endloop
  endfacet
  facet normal -1.746450e-03 5.195811e-01 -8.544193e-01
    outer loop
      vertex   0.000000e+00 -4.218621e+00 3.104575e+01
      vertex   1.016000e+01 -3.987767e+00 3.116537e+01
      vertex   1.016000e+01 -4.431036e+00 3.089581e+01
    endloop
  endfacet
  facet normal 1.746405e-03 6.310878e-01 -7.757094e-01
    outer loop
      vertex   0.000000e+00 -4.218621e+00 3.104575e+01
      vertex   1.016000e+01 -4.431036e+00 3.089581e+01
      vertex   0.000000e+00 -4.621056e+00 3.071834e+01
    endloop
  endfacet
  facet normal -1.746366e-03 7.308356e-01 -6.825513e-01
    outer loop
      vertex   0.000000e+00 -4.621056e+00 3.071834e+01
      vertex   1.016000e+01 -4.431036e+00 3.089581e+01
      vertex   1.016000e+01 -4.785141e+00 3.051666e+01
    endloop
  endfacet
  facet normal 1.746343e-03 8.169681e-01 -5.766803e-01
    outer loop
      vertex   0.000000e+00 -4.621056e+00 3.071834e+01
      vertex   1.016000e+01 -4.785141e+00 3.051666e+01
      vertex   0.000000e+00 -4.920235e+00 3.029450e+01
    endloop
  endfacet
  facet normal -1.746464e-03 8.878843e-01 -4.600635e-01
    outer loop
      vertex   0.000000e+00 -4.920235e+00 3.029450e+01
      vertex   1.016000e+01 -4.785141e+00 3.051666e+01
      vertex   1.016000e+01 -5.023820e+00 3.005602e+01
    endloop
  endfacet
  facet normal 1.746329e-03 9.422598e-01 -3.348783e-01
    outer loop
      vertex   0.000000e+00 -4.920235e+00 3.029450e+01
      vertex   1.016000e+01 -5.023820e+00 3.005602e+01
      vertex   0.000000e+00 -5.093969e+00 2.980566e+01
    endloop
  endfacet
  facet normal -1.746392e-03 9.790825e-01 -2.034560e-01
    outer loop
      vertex   0.000000e+00 -5.093969e+00 2.980566e+01
      vertex   1.016000e+01 -5.023820e+00 3.005602e+01
      vertex   1.016000e+01 -5.129372e+00 2.954808e+01
    endloop
  endfacet
  facet normal 1.746384e-03 9.976672e-01 -6.824262e-02
    outer loop
      vertex   0.000000e+00 -5.093969e+00 2.980566e+01
      vertex   1.016000e+01 -5.129372e+00 2.954808e+01
      vertex   0.000000e+00 -5.129372e+00 2.928808e+01
    endloop
  endfacet
  facet normal -1.746384e-03 9.976672e-01 6.824262e-02
    outer loop
      vertex   0.000000e+00 -5.129372e+00 2.928808e+01
      vertex   1.016000e+01 -5.129372e+00 2.954808e+01
      vertex   1.016000e+01 -5.093969e+00 2.903049e+01
    endloop
  endfacet
  facet normal 1.746392e-03 9.790825e-01 2.034560e-01
    outer loop
      vertex   0.000000e+00 -5.129372e+00 2.928808e+01
      vertex   1.016000e+01 -5.093969e+00 2.903049e+01
      vertex   0.000000e+00 -5.023820e+00 2.878013e+01
    endloop
  endfacet
  facet normal -1.746368e-03 9.422593e-01 3.348797e-01
    outer loop
      vertex   0.000000e+00 -5.023820e+00 2.878013e+01
      vertex   1.016000e+01 -5.093969e+00 2.903049e+01
      vertex   1.016000e+01 -4.920235e+00 2.854166e+01
    endloop
  endfacet
  facet normal 1.746410e-03 8.878833e-01 4.600654e-01
    outer loop
      vertex   0.000000e+00 -5.023820e+00 2.878013e+01
      vertex   1.016000e+01 -4.920235e+00 2.854166e+01
      vertex   0.000000e+00 -4.785141e+00 2.831950e+01
    endloop
  endfacet
  facet normal -1.746343e-03 8.169681e-01 5.766803e-01
    outer loop
      vertex   0.000000e+00 -4.785141e+00 2.831950e+01
      vertex   1.016000e+01 -4.920235e+00 2.854166e+01
      vertex   1.016000e+01 -4.621056e+00 2.811782e+01
    endloop
  endfacet
  facet normal 1.746366e-03 7.308356e-01 6.825513e-01
    outer loop
      vertex   0.000000e+00 -4.785141e+00 2.831950e+01
      vertex   1.016000e+01 -4.621056e+00 2.811782e+01
      vertex   0.000000e+00 -4.431036e+00 2.794035e+01
    endloop
  endfacet
  facet normal -1.746405e-03 6.310878e-01 7.757094e-01
    outer loop
      vertex   0.000000e+00 -4.431036e+00 2.794035e+01
      vertex   1.016000e+01 -4.621056e+00 2.811782e+01
      vertex   1.016000e+01 -4.218621e+00 2.779041e+01
    endloop
  endfacet
  facet normal 1.746349e-03 5.195845e-01 8.544173e-01
    outer loop
      vertex   0.000000e+00 -4.431036e+00 2.794035e+01
      vertex   1.016000e+01 -4.218621e+00 2.779041e+01
      vertex   0.000000e+00 -3.987767e+00 2.767079e+01
    endloop
  endfacet
  facet normal -1.746394e-03 3.984028e-01 9.172089e-01
    outer loop
      vertex   0.000000e+00 -3.987767e+00 2.767079e+01
      vertex   1.016000e+01 -4.218621e+00 2.779041e+01
      vertex   1.016000e+01 -3.742776e+00 2.758372e+01
    endloop
  endfacet
  facet normal 1.746476e-03 2.697949e-01 9.629162e-01
    outer loop
      vertex   0.000000e+00 -3.987767e+00 2.767079e+01
      vertex   1.016000e+01 -3.742776e+00 2.758372e+01
      vertex   0.000000e+00 -3.488211e+00 2.753082e+01
    endloop
  endfacet
  facet normal -1.746324e-03 1.361635e-01 9.906848e-01
    outer loop
      vertex   0.000000e+00 -3.488211e+00 2.753082e+01
      vertex   1.016000e+01 -3.742776e+00 2.758372e+01
      vertex   1.016000e+01 -3.228813e+00 2.751308e+01
    endloop
  endfacet
  facet normal 1.746366e-03 -0.000000e+00 9.999985e-01
    outer loop
      vertex   0.000000e+00 -3.488211e+00 2.753082e+01
      vertex   1.016000e+01 -3.228813e+00 2.751308e+01
      vertex   0.000000e+00 -2.969416e+00 2.753082e+01
    endloop
  endfacet
  facet normal -1.746322e-03 -1.361636e-01 9.906848e-01
    outer loop
      vertex   0.000000e+00 -2.969416e+00 2.753082e+01
      vertex   1.016000e+01 -3.228813e+00 2.751308e+01
      vertex   1.016000e+01 -2.714850e+00 2.758372e+01
    endloop
  endfacet
  facet normal 1.746476e-03 -2.697949e-01 9.629162e-01
    outer loop
      vertex   0.000000e+00 -2.969416e+00 2.753082e+01
      vertex   1.016000e+01 -2.714850e+00 2.758372e+01
      vertex   0.000000e+00 -2.469859e+00 2.767079e+01
    endloop
  endfacet
  facet normal -1.746394e-03 -3.984028e-01 9.172089e-01
    outer loop
      vertex   0.000000e+00 -2.469859e+00 2.767079e+01
      vertex   1.016000e+01 -2.714850e+00 2.758372e+01
      vertex   1.016000e+01 -2.239006e+00 2.779041e+01
    endloop
  endfacet
  facet normal 1.746349e-03 -5.195845e-01 8.544173e-01
    outer loop
      vertex   0.000000e+00 -2.469859e+00 2.767079e+01
      vertex   1.016000e+01 -2.239006e+00 2.779041e+01
      vertex   0.000000e+00 -2.026591e+00 2.794035e+01
    endloop
  endfacet
  facet normal -1.746405e-03 -6.310878e-01 7.757094e-01
    outer loop
      vertex   0.000000e+00 -2.026591e+00 2.794035e+01
      vertex   1.016000e+01 -2.239006e+00 2.779041e+01
      vertex   1.016000e+01 -1.836571e+00 2.811782e+01
    endloop
  endfacet
  facet normal 1.746361e-03 -7.308355e-01 6.825514e-01
    outer loop
      vertex   0.000000e+00 -2.026591e+00 2.794035e+01
      vertex   1.016000e+01 -1.836571e+00 2.811782e+01
      vertex   0.000000e+00 -1.672486e+00 2.831950e+01
    endloop
  endfacet
  facet normal -1.746355e-03 -8.169681e-01 5.766803e-01
    outer loop
      vertex   0.000000e+00 -1.672486e+00 2.831950e+01
      vertex   1.016000e+01 -1.836571e+00 2.811782e+01
      vertex   1.016000e+01 -1.537392e+00 2.854166e+01
    endloop
  endfacet
  facet normal 1.746404e-03 -8.878834e-01 4.600652e-01
    outer loop
      vertex   0.000000e+00 -1.672486e+00 2.831950e+01
      vertex   1.016000e+01 -1.537392e+00 2.854166e+01
      vertex   0.000000e+00 -1.433806e+00 2.878013e+01
    endloop
  endfacet
  facet normal -1.746368e-03 -9.422593e-01 3.348797e-01
    outer loop
      vertex   0.000000e+00 -1.433806e+00 2.878013e+01
      vertex   1.016000e+01 -1.537392e+00 2.854166e+01
      vertex   1.016000e+01 -1.363658e+00 2.903049e+01
    endloop
  endfacet
  facet normal 1.746399e-03 -9.790826e-01 2.034558e-01
    outer loop
      vertex   0.000000e+00 -1.433806e+00 2.878013e+01
      vertex   1.016000e+01 -1.363658e+00 2.903049e+01
      vertex   0.000000e+00 -1.328254e+00 2.928808e+01
    endloop
  endfacet
  facet normal -1.746377e-03 -9.976672e-01 6.824234e-02
    outer loop
      vertex   0.000000e+00 -1.328254e+00 2.928808e+01
      vertex   1.016000e+01 -1.363658e+00 2.903049e+01
      vertex   1.016000e+01 -1.328254e+00 2.954808e+01
    endloop
  endfacet
  facet normal 1.746377e-03 -9.976672e-01 -6.824234e-02
    outer loop
      vertex   0.000000e+00 -1.328254e+00 2.928808e+01
      vertex   1.016000e+01 -1.328254e+00 2.954808e+01
      vertex   0.000000e+00 -1.363658e+00 2.980566e+01
    endloop
  endfacet
  facet normal -1.746399e-03 -9.790826e-01 -2.034558e-01
    outer loop
      vertex   0.000000e+00 -1.363658e+00 2.980566e+01
      vertex   1.016000e+01 -1.328254e+00 2.954808e+01
      vertex   1.016000e+01 -1.433806e+00 3.005602e+01
    endloop
  endfacet
  facet normal 1.746329e-03 -9.422598e-01 -3.348783e-01
    outer loop
      vertex   0.000000e+00 -1.363658e+00 2.980566e+01
      vertex   1.016000e+01 -1.433806e+00 3.005602e+01
      vertex   0.000000e+00 -1.537392e+00 3.029450e+01
    endloop
  endfacet
  facet normal -1.746458e-03 -8.878844e-01 -4.600633e-01
    outer loop
      vertex   0.000000e+00 -1.537392e+00 3.029450e+01
      vertex   1.016000e+01 -1.433806e+00 3.005602e+01
      vertex   1.016000e+01 -1.672486e+00 3.051666e+01
    endloop
  endfacet
  facet normal 1.746355e-03 -8.169681e-01 -5.766803e-01
    outer loop
      vertex   0.000000e+00 -1.537392e+00 3.029450e+01
      vertex   1.016000e+01 -1.672486e+00 3.051666e+01
      vertex   0.000000e+00 -1.836571e+00 3.071834e+01
    endloop
  endfacet
  facet normal -1.746361e-03 -7.308355e-01 -6.825514e-01
    outer loop
      vertex   0.000000e+00 -1.836571e+00 3.071834e+01
      vertex   1.016000e+01 -1.672486e+00 3.051666e+01
      vertex   1.016000e+01 -2.026591e+00 3.089581e+01
    endloop
  endfacet
  facet normal 1.746405e-03 -6.310878e-01 -7.757094e-01
    outer loop
      vertex   0.000000e+00 -1.836571e+00 3.071834e+01
      vertex   1.016000e+01 -2.026591e+00 3.089581e+01
      vertex   0.000000e+00 -2.239006e+00 3.104575e+01
    endloop
  endfacet
  facet normal -1.746450e-03 -5.195811e-01 -8.544193e-01
    outer loop
      vertex   0.000000e+00 -2.239006e+00 3.104575e+01
      vertex   1.016000e+01 -2.026591e+00 3.089581e+01
      vertex   1.016000e+01 -2.469859e+00 3.116537e+01
    endloop
  endfacet
  facet normal 1.746287e-03 -3.983989e-01 -9.172106e-01
    outer loop
      vertex   0.000000e+00 -2.239006e+00 3.104575e+01
      vertex   1.016000e+01 -2.469859e+00 3.116537e+01
      vertex   0.000000e+00 -2.714850e+00 3.125244e+01
    endloop
  endfacet
  facet normal -1.746363e-03 -2.697992e-01 -9.629150e-01
    outer loop
      vertex   0.000000e+00 -2.714850e+00 3.125244e+01
      vertex   1.016000e+01 -2.469859e+00 3.116537e+01
      vertex   1.016000e+01 -2.969416e+00 3.130534e+01
    endloop
  endfacet
endsolid
