solid ASCII
  facet normal -3.489949e-02 -0.000000e+00 -9.993908e-01
    outer loop
      vertex   -1.065924e+01 1.016000e+02 -1.205250e+01
      vertex   7.882758e+00 1.016000e+02 -1.270000e+01
      vertex   -1.065924e+01 0.000000e+00 -1.205250e+01
    endloop
  endfacet
  facet normal -3.489949e-02 0.000000e+00 -9.993908e-01
    outer loop
      vertex   -1.065924e+01 0.000000e+00 -1.205250e+01
      vertex   7.882758e+00 1.016000e+02 -1.270000e+01
      vertex   7.882758e+00 0.000000e+00 -1.270000e+01
    endloop
  endfacet
  facet normal -0.000000e+00 1.000000e+00 0.000000e+00
    outer loop
      vertex   -1.065924e+01 1.016000e+02 -1.205250e+01
      vertex   3.421336e-01 1.016000e+02 -6.350000e+00
      vertex   7.882758e+00 1.016000e+02 -1.270000e+01
    endloop
  endfacet
  facet normal 0.000000e+00 1.000000e+00 0.000000e+00
    outer loop
      vertex   7.882758e+00 1.016000e+02 -1.270000e+01
      vertex   3.421336e-01 1.016000e+02 -6.350000e+00
      vertex   3.421336e-01 1.016000e+02 1.905000e+01
    endloop
  endfacet
  facet normal 0.000000e+00 1.000000e+00 0.000000e+00
    outer loop
      vertex   7.882758e+00 1.016000e+02 -1.270000e+01
      vertex   3.421336e-01 1.016000e+02 1.905000e+01
      vertex   1.532759e+00 1.016000e+02 2.540000e+01
    endloop
  endfacet
  facet normal 0.000000e+00 1.000000e+00 0.000000e+00
    outer loop
      vertex   1.532759e+00 1.016000e+02 2.540000e+01
      vertex   3.421336e-01 1.016000e+02 1.905000e+01
      vertex   -1.065924e+01 1.016000e+02 2.497425e+01
    endloop
  endfacet
  facet normal 0.000000e+00 1.000000e+00 0.000000e+00
    outer loop
      vertex   -1.065924e+01 1.016000e+02 2.497425e+01
      vertex   3.421336e-01 1.016000e+02 1.905000e+01
      vertex   -1.065924e+01 1.016000e+02 1.905000e+01
    endloop
  endfacet
  facet normal 0.000000e+00 1.000000e+00 0.000000e+00
    outer loop
      vertex   -1.065924e+01 1.016000e+02 -1.205250e+01
      vertex   -1.065924e+01 1.016000e+02 -6.350000e+00
      vertex   3.421336e-01 1.016000e+02 -6.350000e+00
    endloop
  endfacet
  facet normal 0.000000e+00 1.000000e+00 -0.000000e+00
    outer loop
      vertex   7.882758e+00 1.016000e+02 -1.270000e+01
      vertex   1.532759e+00 1.016000e+02 2.540000e+01
      vertex   7.882758e+00 1.016000e+02 5.715000e+01
    endloop
  endfacet
  facet normal 0.000000e+00 1.000000e+00 0.000000e+00
    outer loop
      vertex   7.882758e+00 1.016000e+02 5.715000e+01
      vertex   1.532759e+00 1.016000e+02 2.540000e+01
      vertex   1.532759e+00 1.016000e+02 5.143500e+01
    endloop
  endfacet
  facet normal 0.000000e+00 1.000000e+00 0.000000e+00
    outer loop
      vertex   7.882758e+00 1.016000e+02 5.715000e+01
      vertex   1.532759e+00 1.016000e+02 5.143500e+01
      vertex   -1.065924e+01 1.016000e+02 5.650250e+01
    endloop
  endfacet
  facet normal 0.000000e+00 1.000000e+00 0.000000e+00
    outer loop
      vertex   -1.065924e+01 1.016000e+02 5.650250e+01
      vertex   1.532759e+00 1.016000e+02 5.143500e+01
      vertex   -1.065924e+01 1.016000e+02 5.186075e+01
    endloop
  endfacet
  facet normal -1.000000e+00 0.000000e+00 0.000000e+00
    outer loop
      vertex   -1.065924e+01 0.000000e+00 -1.205250e+01
      vertex   -1.065924e+01 0.000000e+00 -6.350000e+00
      vertex   -1.065924e+01 1.016000e+02 -1.205250e+01
    endloop
  endfacet
  facet normal -1.000000e+00 0.000000e+00 0.000000e+00
    outer loop
      vertex   -1.065924e+01 1.016000e+02 -1.205250e+01
      vertex   -1.065924e+01 0.000000e+00 -6.350000e+00
      vertex   -1.065924e+01 1.016000e+02 -6.350000e+00
    endloop
  endfacet
  facet normal -3.489955e-02 0.000000e+00 9.993908e-01
    outer loop
      vertex   -1.065924e+01 0.000000e+00 5.650250e+01
      vertex   7.882758e+00 0.000000e+00 5.715000e+01
      vertex   -1.065924e+01 1.016000e+02 5.650250e+01
    endloop
  endfacet
  facet normal -3.489955e-02 0.000000e+00 9.993908e-01
    outer loop
      vertex   -1.065924e+01 1.016000e+02 5.650250e+01
      vertex   7.882758e+00 0.000000e+00 5.715000e+01
      vertex   7.882758e+00 1.016000e+02 5.715000e+01
    endloop
  endfacet
  facet normal -1.000000e+00 -0.000000e+00 -0.000000e+00
    outer loop
      vertex   -1.065924e+01 1.016000e+02 5.650250e+01
      vertex   -1.065924e+01 1.016000e+02 5.186075e+01
      vertex   -1.065924e+01 0.000000e+00 5.650250e+01
    endloop
  endfacet
  facet normal -1.000000e+00 0.000000e+00 0.000000e+00
    outer loop
      vertex   -1.065924e+01 0.000000e+00 5.650250e+01
      vertex   -1.065924e+01 1.016000e+02 5.186075e+01
      vertex   -1.065924e+01 0.000000e+00 5.186075e+01
    endloop
  endfacet
  facet normal -3.489946e-02 -0.000000e+00 -9.993908e-01
    outer loop
      vertex   -1.065924e+01 1.016000e+02 5.186075e+01
      vertex   1.532759e+00 1.016000e+02 5.143500e+01
      vertex   -1.065924e+01 0.000000e+00 5.186075e+01
    endloop
  endfacet
  facet normal -3.489946e-02 0.000000e+00 -9.993908e-01
    outer loop
      vertex   -1.065924e+01 0.000000e+00 5.186075e+01
      vertex   1.532759e+00 1.016000e+02 5.143500e+01
      vertex   1.532759e+00 0.000000e+00 5.143500e+01
    endloop
  endfacet
  facet normal -3.489946e-02 0.000000e+00 9.993908e-01
    outer loop
      vertex   -1.065924e+01 0.000000e+00 2.497425e+01
      vertex   1.532759e+00 0.000000e+00 2.540000e+01
      vertex   -1.065924e+01 1.016000e+02 2.497425e+01
    endloop
  endfacet
  facet normal -3.489946e-02 0.000000e+00 9.993908e-01
    outer loop
      vertex   -1.065924e+01 1.016000e+02 2.497425e+01
      vertex   1.532759e+00 0.000000e+00 2.540000e+01
      vertex   1.532759e+00 1.016000e+02 2.540000e+01
    endloop
  endfacet
  facet normal 0.000000e+00 -1.000000e+00 0.000000e+00
    outer loop
      vertex   -1.065924e+01 0.000000e+00 -6.350000e+00
      vertex   -1.065924e+01 0.000000e+00 -1.205250e+01
      vertex   3.421336e-01 0.000000e+00 -6.350000e+00
    endloop
  endfacet
  facet normal 0.000000e+00 -1.000000e+00 -0.000000e+00
    outer loop
      vertex   3.421336e-01 0.000000e+00 -6.350000e+00
      vertex   -1.065924e+01 0.000000e+00 -1.205250e+01
      vertex   7.882758e+00 0.000000e+00 -1.270000e+01
    endloop
  endfacet
  facet normal 0.000000e+00 -1.000000e+00 0.000000e+00
    outer loop
      vertex   3.421336e-01 0.000000e+00 -6.350000e+00
      vertex   7.882758e+00 0.000000e+00 -1.270000e+01
      vertex   3.421336e-01 0.000000e+00 1.905000e+01
    endloop
  endfacet
  facet normal 0.000000e+00 -1.000000e+00 0.000000e+00
    outer loop
      vertex   3.421336e-01 0.000000e+00 1.905000e+01
      vertex   7.882758e+00 0.000000e+00 -1.270000e+01
      vertex   1.532759e+00 0.000000e+00 2.540000e+01
    endloop
  endfacet
  facet normal 0.000000e+00 -1.000000e+00 0.000000e+00
    outer loop
      vertex   3.421336e-01 0.000000e+00 1.905000e+01
      vertex   1.532759e+00 0.000000e+00 2.540000e+01
      vertex   -1.065924e+01 0.000000e+00 2.497425e+01
    endloop
  endfacet
  facet normal 0.000000e+00 -1.000000e+00 0.000000e+00
    outer loop
      vertex   7.882758e+00 0.000000e+00 -1.270000e+01
      vertex   7.882758e+00 0.000000e+00 5.715000e+01
      vertex   1.532759e+00 0.000000e+00 2.540000e+01
    endloop
  endfacet
  facet normal 0.000000e+00 -1.000000e+00 0.000000e+00
    outer loop
      vertex   1.532759e+00 0.000000e+00 2.540000e+01
      vertex   7.882758e+00 0.000000e+00 5.715000e+01
      vertex   1.532759e+00 0.000000e+00 5.143500e+01
    endloop
  endfacet
  facet normal 0.000000e+00 -1.000000e+00 0.000000e+00
    outer loop
      vertex   1.532759e+00 0.000000e+00 5.143500e+01
      vertex   7.882758e+00 0.000000e+00 5.715000e+01
      vertex   -1.065924e+01 0.000000e+00 5.650250e+01
    endloop
  endfacet
  facet normal 0.000000e+00 -1.000000e+00 0.000000e+00
    outer loop
      vertex   1.532759e+00 0.000000e+00 5.143500e+01
      vertex   -1.065924e+01 0.000000e+00 5.650250e+01
      vertex   -1.065924e+01 0.000000e+00 5.186075e+01
    endloop
  endfacet
  facet normal 0.000000e+00 -1.000000e+00 0.000000e+00
    outer loop
      vertex   -1.065924e+01 0.000000e+00 2.497425e+01
      vertex   -1.065924e+01 0.000000e+00 1.905000e+01
      vertex   3.421336e-01 0.000000e+00 1.905000e+01
    endloop
  endfacet
  facet normal 0.000000e+00 -2.225207e-01 -9.749280e-01
    outer loop
      vertex   3.421336e-01 7.724696e+01 8.524038e+00
      vertex   7.882758e+00 7.724696e+01 8.524038e+00
      vertex   3.421336e-01 7.620000e+01 8.763000e+00
    endloop
  endfacet
  facet normal 0.000000e+00 -2.225207e-01 -9.749280e-01
    outer loop
      vertex   3.421336e-01 7.620000e+01 8.763000e+00
      vertex   7.882758e+00 7.724696e+01 8.524038e+00
      vertex   7.882758e+00 7.620000e+01 8.763000e+00
    endloop
  endfacet
  facet normal 0.000000e+00 2.225217e-01 -9.749277e-01
    outer loop
      vertex   3.421336e-01 7.620000e+01 8.763000e+00
      vertex   7.882758e+00 7.620000e+01 8.763000e+00
      vertex   3.421336e-01 7.515304e+01 8.524038e+00
    endloop
  endfacet
  facet normal 0.000000e+00 2.225217e-01 -9.749277e-01
    outer loop
      vertex   3.421336e-01 7.515304e+01 8.524038e+00
      vertex   7.882758e+00 7.620000e+01 8.763000e+00
      vertex   7.882758e+00 7.515304e+01 8.524038e+00
    endloop
  endfacet
  facet normal 0.000000e+00 6.234885e-01 -7.818325e-01
    outer loop
      vertex   3.421336e-01 7.515304e+01 8.524038e+00
      vertex   7.882758e+00 7.515304e+01 8.524038e+00
      vertex   3.421336e-01 7.431344e+01 7.854481e+00
    endloop
  endfacet
  facet normal 0.000000e+00 6.234885e-01 -7.818325e-01
    outer loop
      vertex   3.421336e-01 7.431344e+01 7.854481e+00
      vertex   7.882758e+00 7.515304e+01 8.524038e+00
      vertex   7.882758e+00 7.431344e+01 7.854481e+00
    endloop
  endfacet
  facet normal 0.000000e+00 9.009689e-01 -4.338836e-01
    outer loop
      vertex   3.421336e-01 7.431344e+01 7.854481e+00
      vertex   7.882758e+00 7.431344e+01 7.854481e+00
      vertex   3.421336e-01 7.384750e+01 6.886943e+00
    endloop
  endfacet
  facet normal 0.000000e+00 9.009689e-01 -4.338836e-01
    outer loop
      vertex   3.421336e-01 7.384750e+01 6.886943e+00
      vertex   7.882758e+00 7.431344e+01 7.854481e+00
      vertex   7.882758e+00 7.384750e+01 6.886943e+00
    endloop
  endfacet
  facet normal -0.000000e+00 1.000000e+00 0.000000e+00
    outer loop
      vertex   3.421336e-01 7.384750e+01 6.886943e+00
      vertex   7.882758e+00 7.384750e+01 6.886943e+00
      vertex   3.421336e-01 7.384750e+01 5.813057e+00
    endloop
  endfacet
  facet normal 0.000000e+00 1.000000e+00 0.000000e+00
    outer loop
      vertex   3.421336e-01 7.384750e+01 5.813057e+00
      vertex   7.882758e+00 7.384750e+01 6.886943e+00
      vertex   7.882758e+00 7.384750e+01 5.813057e+00
    endloop
  endfacet
  facet normal -0.000000e+00 9.009689e-01 4.338836e-01
    outer loop
      vertex   3.421336e-01 7.384750e+01 5.813057e+00
      vertex   7.882758e+00 7.384750e+01 5.813057e+00
      vertex   3.421336e-01 7.431344e+01 4.845519e+00
    endloop
  endfacet
  facet normal -0.000000e+00 9.009689e-01 4.338836e-01
    outer loop
      vertex   3.421336e-01 7.431344e+01 4.845519e+00
      vertex   7.882758e+00 7.384750e+01 5.813057e+00
      vertex   7.882758e+00 7.431344e+01 4.845519e+00
    endloop
  endfacet
  facet normal -0.000000e+00 6.234885e-01 7.818325e-01
    outer loop
      vertex   3.421336e-01 7.431344e+01 4.845519e+00
      vertex   7.882758e+00 7.431344e+01 4.845519e+00
      vertex   3.421336e-01 7.515304e+01 4.175962e+00
    endloop
  endfacet
  facet normal -0.000000e+00 6.234885e-01 7.818325e-01
    outer loop
      vertex   3.421336e-01 7.515304e+01 4.175962e+00
      vertex   7.882758e+00 7.431344e+01 4.845519e+00
      vertex   7.882758e+00 7.515304e+01 4.175962e+00
    endloop
  endfacet
  facet normal -0.000000e+00 2.225217e-01 9.749277e-01
    outer loop
      vertex   3.421336e-01 7.515304e+01 4.175962e+00
      vertex   7.882758e+00 7.515304e+01 4.175962e+00
      vertex   3.421336e-01 7.620000e+01 3.937000e+00
    endloop
  endfacet
  facet normal -0.000000e+00 2.225217e-01 9.749277e-01
    outer loop
      vertex   3.421336e-01 7.620000e+01 3.937000e+00
      vertex   7.882758e+00 7.515304e+01 4.175962e+00
      vertex   7.882758e+00 7.620000e+01 3.937000e+00
    endloop
  endfacet
  facet normal 0.000000e+00 -2.225207e-01 9.749280e-01
    outer loop
      vertex   3.421336e-01 7.620000e+01 3.937000e+00
      vertex   7.882758e+00 7.620000e+01 3.937000e+00
      vertex   3.421336e-01 7.724696e+01 4.175962e+00
    endloop
  endfacet
  facet normal 0.000000e+00 -2.225207e-01 9.749280e-01
    outer loop
      vertex   3.421336e-01 7.724696e+01 4.175962e+00
      vertex   7.882758e+00 7.620000e+01 3.937000e+00
      vertex   7.882758e+00 7.724696e+01 4.175962e+00
    endloop
  endfacet
  facet normal 0.000000e+00 -6.234907e-01 7.818308e-01
    outer loop
      vertex   3.421336e-01 7.724696e+01 4.175962e+00
      vertex   7.882758e+00 7.724696e+01 4.175962e+00
      vertex   3.421336e-01 7.808656e+01 4.845519e+00
    endloop
  endfacet
  facet normal 0.000000e+00 -6.234907e-01 7.818308e-01
    outer loop
      vertex   3.421336e-01 7.808656e+01 4.845519e+00
      vertex   7.882758e+00 7.724696e+01 4.175962e+00
      vertex   7.882758e+00 7.808656e+01 4.845519e+00
    endloop
  endfacet
  facet normal 0.000000e+00 -9.009689e-01 4.338836e-01
    outer loop
      vertex   3.421336e-01 7.808656e+01 4.845519e+00
      vertex   7.882758e+00 7.808656e+01 4.845519e+00
      vertex   3.421336e-01 7.855250e+01 5.813057e+00
    endloop
  endfacet
  facet normal 0.000000e+00 -9.009689e-01 4.338836e-01
    outer loop
      vertex   3.421336e-01 7.855250e+01 5.813057e+00
      vertex   7.882758e+00 7.808656e+01 4.845519e+00
      vertex   7.882758e+00 7.855250e+01 5.813057e+00
    endloop
  endfacet
  facet normal 0.000000e+00 -1.000000e+00 0.000000e+00
    outer loop
      vertex   3.421336e-01 7.855250e+01 5.813057e+00
      vertex   7.882758e+00 7.855250e+01 5.813057e+00
      vertex   3.421336e-01 7.855250e+01 6.886943e+00
    endloop
  endfacet
  facet normal 0.000000e+00 -1.000000e+00 0.000000e+00
    outer loop
      vertex   3.421336e-01 7.855250e+01 6.886943e+00
      vertex   7.882758e+00 7.855250e+01 5.813057e+00
      vertex   7.882758e+00 7.855250e+01 6.886943e+00
    endloop
  endfacet
  facet normal 0.000000e+00 -9.009689e-01 -4.338836e-01
    outer loop
      vertex   3.421336e-01 7.855250e+01 6.886943e+00
      vertex   7.882758e+00 7.855250e+01 6.886943e+00
      vertex   3.421336e-01 7.808656e+01 7.854481e+00
    endloop
  endfacet
  facet normal 0.000000e+00 -9.009689e-01 -4.338836e-01
    outer loop
      vertex   3.421336e-01 7.808656e+01 7.854481e+00
      vertex   7.882758e+00 7.855250e+01 6.886943e+00
      vertex   7.882758e+00 7.808656e+01 7.854481e+00
    endloop
  endfacet
  facet normal 0.000000e+00 -6.234907e-01 -7.818308e-01
    outer loop
      vertex   3.421336e-01 7.808656e+01 7.854481e+00
      vertex   7.882758e+00 7.808656e+01 7.854481e+00
      vertex   3.421336e-01 7.724696e+01 8.524038e+00
    endloop
  endfacet
  facet normal 0.000000e+00 -6.234907e-01 -7.818308e-01
    outer loop
      vertex   3.421336e-01 7.724696e+01 8.524038e+00
      vertex   7.882758e+00 7.808656e+01 7.854481e+00
      vertex   7.882758e+00 7.724696e+01 8.524038e+00
    endloop
  endfacet
  facet normal 0.000000e+00 -2.225207e-01 -9.749280e-01
    outer loop
      vertex   3.421336e-01 5.184696e+01 8.524038e+00
      vertex   7.882758e+00 5.184696e+01 8.524038e+00
      vertex   3.421336e-01 5.080000e+01 8.763000e+00
    endloop
  endfacet
  facet normal 0.000000e+00 -2.225207e-01 -9.749280e-01
    outer loop
      vertex   3.421336e-01 5.080000e+01 8.763000e+00
      vertex   7.882758e+00 5.184696e+01 8.524038e+00
      vertex   7.882758e+00 5.080000e+01 8.763000e+00
    endloop
  endfacet
  facet normal 0.000000e+00 2.225207e-01 -9.749280e-01
    outer loop
      vertex   3.421336e-01 5.080000e+01 8.763000e+00
      vertex   7.882758e+00 5.080000e+01 8.763000e+00
      vertex   3.421336e-01 4.975304e+01 8.524038e+00
    endloop
  endfacet
  facet normal 0.000000e+00 2.225207e-01 -9.749280e-01
    outer loop
      vertex   3.421336e-01 4.975304e+01 8.524038e+00
      vertex   7.882758e+00 5.080000e+01 8.763000e+00
      vertex   7.882758e+00 4.975304e+01 8.524038e+00
    endloop
  endfacet
  facet normal 0.000000e+00 6.234907e-01 -7.818308e-01
    outer loop
      vertex   3.421336e-01 4.975304e+01 8.524038e+00
      vertex   7.882758e+00 4.975304e+01 8.524038e+00
      vertex   3.421336e-01 4.891344e+01 7.854481e+00
    endloop
  endfacet
  facet normal 0.000000e+00 6.234907e-01 -7.818308e-01
    outer loop
      vertex   3.421336e-01 4.891344e+01 7.854481e+00
      vertex   7.882758e+00 4.975304e+01 8.524038e+00
      vertex   7.882758e+00 4.891344e+01 7.854481e+00
    endloop
  endfacet
  facet normal 0.000000e+00 9.009689e-01 -4.338836e-01
    outer loop
      vertex   3.421336e-01 4.891344e+01 7.854481e+00
      vertex   7.882758e+00 4.891344e+01 7.854481e+00
      vertex   3.421336e-01 4.844750e+01 6.886943e+00
    endloop
  endfacet
  facet normal 0.000000e+00 9.009689e-01 -4.338836e-01
    outer loop
      vertex   3.421336e-01 4.844750e+01 6.886943e+00
      vertex   7.882758e+00 4.891344e+01 7.854481e+00
      vertex   7.882758e+00 4.844750e+01 6.886943e+00
    endloop
  endfacet
  facet normal -0.000000e+00 1.000000e+00 0.000000e+00
    outer loop
      vertex   3.421336e-01 4.844750e+01 6.886943e+00
      vertex   7.882758e+00 4.844750e+01 6.886943e+00
      vertex   3.421336e-01 4.844750e+01 5.813057e+00
    endloop
  endfacet
  facet normal 0.000000e+00 1.000000e+00 0.000000e+00
    outer loop
      vertex   3.421336e-01 4.844750e+01 5.813057e+00
      vertex   7.882758e+00 4.844750e+01 6.886943e+00
      vertex   7.882758e+00 4.844750e+01 5.813057e+00
    endloop
  endfacet
  facet normal -0.000000e+00 9.009689e-01 4.338836e-01
    outer loop
      vertex   3.421336e-01 4.844750e+01 5.813057e+00
      vertex   7.882758e+00 4.844750e+01 5.813057e+00
      vertex   3.421336e-01 4.891344e+01 4.845519e+00
    endloop
  endfacet
  facet normal -0.000000e+00 9.009689e-01 4.338836e-01
    outer loop
      vertex   3.421336e-01 4.891344e+01 4.845519e+00
      vertex   7.882758e+00 4.844750e+01 5.813057e+00
      vertex   7.882758e+00 4.891344e+01 4.845519e+00
    endloop
  endfacet
  facet normal -0.000000e+00 6.234907e-01 7.818308e-01
    outer loop
      vertex   3.421336e-01 4.891344e+01 4.845519e+00
      vertex   7.882758e+00 4.891344e+01 4.845519e+00
      vertex   3.421336e-01 4.975304e+01 4.175962e+00
    endloop
  endfacet
  facet normal -0.000000e+00 6.234907e-01 7.818308e-01
    outer loop
      vertex   3.421336e-01 4.975304e+01 4.175962e+00
      vertex   7.882758e+00 4.891344e+01 4.845519e+00
      vertex   7.882758e+00 4.975304e+01 4.175962e+00
    endloop
  endfacet
  facet normal -0.000000e+00 2.225207e-01 9.749280e-01
    outer loop
      vertex   3.421336e-01 4.975304e+01 4.175962e+00
      vertex   7.882758e+00 4.975304e+01 4.175962e+00
      vertex   3.421336e-01 5.080000e+01 3.937000e+00
    endloop
  endfacet
  facet normal -0.000000e+00 2.225207e-01 9.749280e-01
    outer loop
      vertex   3.421336e-01 5.080000e+01 3.937000e+00
      vertex   7.882758e+00 4.975304e+01 4.175962e+00
      vertex   7.882758e+00 5.080000e+01 3.937000e+00
    endloop
  endfacet
  facet normal 0.000000e+00 -2.225207e-01 9.749280e-01
    outer loop
      vertex   3.421336e-01 5.080000e+01 3.937000e+00
      vertex   7.882758e+00 5.080000e+01 3.937000e+00
      vertex   3.421336e-01 5.184696e+01 4.175962e+00
    endloop
  endfacet
  facet normal 0.000000e+00 -2.225207e-01 9.749280e-01
    outer loop
      vertex   3.421336e-01 5.184696e+01 4.175962e+00
      vertex   7.882758e+00 5.080000e+01 3.937000e+00
      vertex   7.882758e+00 5.184696e+01 4.175962e+00
    endloop
  endfacet
  facet normal 0.000000e+00 -6.234907e-01 7.818308e-01
    outer loop
      vertex   3.421336e-01 5.184696e+01 4.175962e+00
      vertex   7.882758e+00 5.184696e+01 4.175962e+00
      vertex   3.421336e-01 5.268656e+01 4.845519e+00
    endloop
  endfacet
  facet normal 0.000000e+00 -6.234907e-01 7.818308e-01
    outer loop
      vertex   3.421336e-01 5.268656e+01 4.845519e+00
      vertex   7.882758e+00 5.184696e+01 4.175962e+00
      vertex   7.882758e+00 5.268656e+01 4.845519e+00
    endloop
  endfacet
  facet normal 0.000000e+00 -9.009689e-01 4.338836e-01
    outer loop
      vertex   3.421336e-01 5.268656e+01 4.845519e+00
      vertex   7.882758e+00 5.268656e+01 4.845519e+00
      vertex   3.421336e-01 5.315250e+01 5.813057e+00
    endloop
  endfacet
  facet normal 0.000000e+00 -9.009689e-01 4.338836e-01
    outer loop
      vertex   3.421336e-01 5.315250e+01 5.813057e+00
      vertex   7.882758e+00 5.268656e+01 4.845519e+00
      vertex   7.882758e+00 5.315250e+01 5.813057e+00
    endloop
  endfacet
  facet normal 0.000000e+00 -1.000000e+00 0.000000e+00
    outer loop
      vertex   3.421336e-01 5.315250e+01 5.813057e+00
      vertex   7.882758e+00 5.315250e+01 5.813057e+00
      vertex   3.421336e-01 5.315250e+01 6.886943e+00
    endloop
  endfacet
  facet normal 0.000000e+00 -1.000000e+00 0.000000e+00
    outer loop
      vertex   3.421336e-01 5.315250e+01 6.886943e+00
      vertex   7.882758e+00 5.315250e+01 5.813057e+00
      vertex   7.882758e+00 5.315250e+01 6.886943e+00
    endloop
  endfacet
  facet normal 0.000000e+00 -9.009689e-01 -4.338836e-01
    outer loop
      vertex   3.421336e-01 5.315250e+01 6.886943e+00
      vertex   7.882758e+00 5.315250e+01 6.886943e+00
      vertex   3.421336e-01 5.268656e+01 7.854481e+00
    endloop
  endfacet
  facet normal 0.000000e+00 -9.009689e-01 -4.338836e-01
    outer loop
      vertex   3.421336e-01 5.268656e+01 7.854481e+00
      vertex   7.882758e+00 5.315250e+01 6.886943e+00
      vertex   7.882758e+00 5.268656e+01 7.854481e+00
    endloop
  endfacet
  facet normal 0.000000e+00 -6.234907e-01 -7.818308e-01
    outer loop
      vertex   3.421336e-01 5.268656e+01 7.854481e+00
      vertex   7.882758e+00 5.268656e+01 7.854481e+00
      vertex   3.421336e-01 5.184696e+01 8.524038e+00
    endloop
  endfacet
  facet normal 0.000000e+00 -6.234907e-01 -7.818308e-01
    outer loop
      vertex   3.421336e-01 5.184696e+01 8.524038e+00
      vertex   7.882758e+00 5.268656e+01 7.854481e+00
      vertex   7.882758e+00 5.184696e+01 8.524038e+00
    endloop
  endfacet
  facet normal 0.000000e+00 -2.225207e-01 -9.749280e-01
    outer loop
      vertex   3.421336e-01 2.644696e+01 8.524038e+00
      vertex   7.882758e+00 2.644696e+01 8.524038e+00
      vertex   3.421336e-01 2.540000e+01 8.763000e+00
    endloop
  endfacet
  facet normal 0.000000e+00 -2.225207e-01 -9.749280e-01
    outer loop
      vertex   3.421336e-01 2.540000e+01 8.763000e+00
      vertex   7.882758e+00 2.644696e+01 8.524038e+00
      vertex   7.882758e+00 2.540000e+01 8.763000e+00
    endloop
  endfacet
  facet normal 0.000000e+00 2.225212e-01 -9.749279e-01
    outer loop
      vertex   3.421336e-01 2.540000e+01 8.763000e+00
      vertex   7.882758e+00 2.540000e+01 8.763000e+00
      vertex   3.421336e-01 2.435304e+01 8.524038e+00
    endloop
  endfacet
  facet normal 0.000000e+00 2.225212e-01 -9.749279e-01
    outer loop
      vertex   3.421336e-01 2.435304e+01 8.524038e+00
      vertex   7.882758e+00 2.540000e+01 8.763000e+00
      vertex   7.882758e+00 2.435304e+01 8.524038e+00
    endloop
  endfacet
  facet normal 0.000000e+00 6.234896e-01 -7.818316e-01
    outer loop
      vertex   3.421336e-01 2.435304e+01 8.524038e+00
      vertex   7.882758e+00 2.435304e+01 8.524038e+00
      vertex   3.421336e-01 2.351344e+01 7.854481e+00
    endloop
  endfacet
  facet normal 0.000000e+00 6.234896e-01 -7.818316e-01
    outer loop
      vertex   3.421336e-01 2.351344e+01 7.854481e+00
      vertex   7.882758e+00 2.435304e+01 8.524038e+00
      vertex   7.882758e+00 2.351344e+01 7.854481e+00
    endloop
  endfacet
  facet normal 0.000000e+00 9.009689e-01 -4.338836e-01
    outer loop
      vertex   3.421336e-01 2.351344e+01 7.854481e+00
      vertex   7.882758e+00 2.351344e+01 7.854481e+00
      vertex   3.421336e-01 2.304750e+01 6.886943e+00
    endloop
  endfacet
  facet normal 0.000000e+00 9.009689e-01 -4.338836e-01
    outer loop
      vertex   3.421336e-01 2.304750e+01 6.886943e+00
      vertex   7.882758e+00 2.351344e+01 7.854481e+00
      vertex   7.882758e+00 2.304750e+01 6.886943e+00
    endloop
  endfacet
  facet normal -0.000000e+00 1.000000e+00 0.000000e+00
    outer loop
      vertex   3.421336e-01 2.304750e+01 6.886943e+00
      vertex   7.882758e+00 2.304750e+01 6.886943e+00
      vertex   3.421336e-01 2.304750e+01 5.813057e+00
    endloop
  endfacet
  facet normal 0.000000e+00 1.000000e+00 0.000000e+00
    outer loop
      vertex   3.421336e-01 2.304750e+01 5.813057e+00
      vertex   7.882758e+00 2.304750e+01 6.886943e+00
      vertex   7.882758e+00 2.304750e+01 5.813057e+00
    endloop
  endfacet
  facet normal -0.000000e+00 9.009689e-01 4.338836e-01
    outer loop
      vertex   3.421336e-01 2.304750e+01 5.813057e+00
      vertex   7.882758e+00 2.304750e+01 5.813057e+00
      vertex   3.421336e-01 2.351344e+01 4.845519e+00
    endloop
  endfacet
  facet normal -0.000000e+00 9.009689e-01 4.338836e-01
    outer loop
      vertex   3.421336e-01 2.351344e+01 4.845519e+00
      vertex   7.882758e+00 2.304750e+01 5.813057e+00
      vertex   7.882758e+00 2.351344e+01 4.845519e+00
    endloop
  endfacet
  facet normal -0.000000e+00 6.234896e-01 7.818316e-01
    outer loop
      vertex   3.421336e-01 2.351344e+01 4.845519e+00
      vertex   7.882758e+00 2.351344e+01 4.845519e+00
      vertex   3.421336e-01 2.435304e+01 4.175962e+00
    endloop
  endfacet
  facet normal -0.000000e+00 6.234896e-01 7.818316e-01
    outer loop
      vertex   3.421336e-01 2.435304e+01 4.175962e+00
      vertex   7.882758e+00 2.351344e+01 4.845519e+00
      vertex   7.882758e+00 2.435304e+01 4.175962e+00
    endloop
  endfacet
  facet normal -0.000000e+00 2.225212e-01 9.749279e-01
    outer loop
      vertex   3.421336e-01 2.435304e+01 4.175962e+00
      vertex   7.882758e+00 2.435304e+01 4.175962e+00
      vertex   3.421336e-01 2.540000e+01 3.937000e+00
    endloop
  endfacet
  facet normal -0.000000e+00 2.225212e-01 9.749279e-01
    outer loop
      vertex   3.421336e-01 2.540000e+01 3.937000e+00
      vertex   7.882758e+00 2.435304e+01 4.175962e+00
      vertex   7.882758e+00 2.540000e+01 3.937000e+00
    endloop
  endfacet
  facet normal 0.000000e+00 -2.225207e-01 9.749280e-01
    outer loop
      vertex   3.421336e-01 2.540000e+01 3.937000e+00
      vertex   7.882758e+00 2.540000e+01 3.937000e+00
      vertex   3.421336e-01 2.644696e+01 4.175962e+00
    endloop
  endfacet
  facet normal 0.000000e+00 -2.225207e-01 9.749280e-01
    outer loop
      vertex   3.421336e-01 2.644696e+01 4.175962e+00
      vertex   7.882758e+00 2.540000e+01 3.937000e+00
      vertex   7.882758e+00 2.644696e+01 4.175962e+00
    endloop
  endfacet
  facet normal 0.000000e+00 -6.234896e-01 7.818316e-01
    outer loop
      vertex   3.421336e-01 2.644696e+01 4.175962e+00
      vertex   7.882758e+00 2.644696e+01 4.175962e+00
      vertex   3.421336e-01 2.728656e+01 4.845519e+00
    endloop
  endfacet
  facet normal 0.000000e+00 -6.234896e-01 7.818316e-01
    outer loop
      vertex   3.421336e-01 2.728656e+01 4.845519e+00
      vertex   7.882758e+00 2.644696e+01 4.175962e+00
      vertex   7.882758e+00 2.728656e+01 4.845519e+00
    endloop
  endfacet
  facet normal 0.000000e+00 -9.009689e-01 4.338836e-01
    outer loop
      vertex   3.421336e-01 2.728656e+01 4.845519e+00
      vertex   7.882758e+00 2.728656e+01 4.845519e+00
      vertex   3.421336e-01 2.775250e+01 5.813057e+00
    endloop
  endfacet
  facet normal 0.000000e+00 -9.009689e-01 4.338836e-01
    outer loop
      vertex   3.421336e-01 2.775250e+01 5.813057e+00
      vertex   7.882758e+00 2.728656e+01 4.845519e+00
      vertex   7.882758e+00 2.775250e+01 5.813057e+00
    endloop
  endfacet
  facet normal 0.000000e+00 -1.000000e+00 0.000000e+00
    outer loop
      vertex   3.421336e-01 2.775250e+01 5.813057e+00
      vertex   7.882758e+00 2.775250e+01 5.813057e+00
      vertex   3.421336e-01 2.775250e+01 6.886943e+00
    endloop
  endfacet
  facet normal 0.000000e+00 -1.000000e+00 0.000000e+00
    outer loop
      vertex   3.421336e-01 2.775250e+01 6.886943e+00
      vertex   7.882758e+00 2.775250e+01 5.813057e+00
      vertex   7.882758e+00 2.775250e+01 6.886943e+00
    endloop
  endfacet
  facet normal 0.000000e+00 -9.009689e-01 -4.338836e-01
    outer loop
      vertex   3.421336e-01 2.775250e+01 6.886943e+00
      vertex   7.882758e+00 2.775250e+01 6.886943e+00
      vertex   3.421336e-01 2.728656e+01 7.854481e+00
    endloop
  endfacet
  facet normal 0.000000e+00 -9.009689e-01 -4.338836e-01
    outer loop
      vertex   3.421336e-01 2.728656e+01 7.854481e+00
      vertex   7.882758e+00 2.775250e+01 6.886943e+00
      vertex   7.882758e+00 2.728656e+01 7.854481e+00
    endloop
  endfacet
  facet normal 0.000000e+00 -6.234896e-01 -7.818316e-01
    outer loop
      vertex   3.421336e-01 2.728656e+01 7.854481e+00
      vertex   7.882758e+00 2.728656e+01 7.854481e+00
      vertex   3.421336e-01 2.644696e+01 8.524038e+00
    endloop
  endfacet
  facet normal 0.000000e+00 -6.234896e-01 -7.818316e-01
    outer loop
      vertex   3.421336e-01 2.644696e+01 8.524038e+00
      vertex   7.882758e+00 2.728656e+01 7.854481e+00
      vertex   7.882758e+00 2.644696e+01 8.524038e+00
    endloop
  endfacet
  facet normal 1.000000e+00 0.000000e+00 -0.000000e+00
    outer loop
      vertex   7.882758e+00 4.826000e+01 3.556000e+01
      vertex   7.882758e+00 4.826000e+01 4.064000e+01
      vertex   7.882758e+00 0.000000e+00 5.715000e+01
    endloop
  endfacet
  facet normal 1.000000e+00 0.000000e+00 0.000000e+00
    outer loop
      vertex   7.882758e+00 0.000000e+00 5.715000e+01
      vertex   7.882758e+00 4.826000e+01 4.064000e+01
      vertex   7.882758e+00 5.334000e+01 4.064000e+01
    endloop
  endfacet
  facet normal 1.000000e+00 -0.000000e+00 0.000000e+00
    outer loop
      vertex   7.882758e+00 0.000000e+00 5.715000e+01
      vertex   7.882758e+00 5.334000e+01 4.064000e+01
      vertex   7.882758e+00 1.016000e+02 5.715000e+01
    endloop
  endfacet
  facet normal 1.000000e+00 0.000000e+00 0.000000e+00
    outer loop
      vertex   7.882758e+00 1.016000e+02 5.715000e+01
      vertex   7.882758e+00 5.334000e+01 4.064000e+01
      vertex   7.882758e+00 5.334000e+01 3.556000e+01
    endloop
  endfacet
  facet normal 1.000000e+00 0.000000e+00 0.000000e+00
    outer loop
      vertex   7.882758e+00 1.016000e+02 5.715000e+01
      vertex   7.882758e+00 5.334000e+01 3.556000e+01
      vertex   7.882758e+00 7.724696e+01 8.524038e+00
    endloop
  endfacet
  facet normal 1.000000e+00 0.000000e+00 0.000000e+00
    outer loop
      vertex   7.882758e+00 7.724696e+01 8.524038e+00
      vertex   7.882758e+00 5.334000e+01 3.556000e+01
      vertex   7.882758e+00 7.620000e+01 8.763000e+00
    endloop
  endfacet
  facet normal 1.000000e+00 0.000000e+00 0.000000e+00
    outer loop
      vertex   7.882758e+00 7.620000e+01 8.763000e+00
      vertex   7.882758e+00 5.334000e+01 3.556000e+01
      vertex   7.882758e+00 7.515304e+01 8.524038e+00
    endloop
  endfacet
  facet normal 1.000000e+00 0.000000e+00 0.000000e+00
    outer loop
      vertex   7.882758e+00 7.515304e+01 8.524038e+00
      vertex   7.882758e+00 5.334000e+01 3.556000e+01
      vertex   7.882758e+00 5.184696e+01 8.524038e+00
    endloop
  endfacet
  facet normal 1.000000e+00 0.000000e+00 0.000000e+00
    outer loop
      vertex   7.882758e+00 7.515304e+01 8.524038e+00
      vertex   7.882758e+00 5.184696e+01 8.524038e+00
      vertex   7.882758e+00 7.431344e+01 7.854481e+00
    endloop
  endfacet
  facet normal 1.000000e+00 0.000000e+00 0.000000e+00
    outer loop
      vertex   7.882758e+00 7.431344e+01 7.854481e+00
      vertex   7.882758e+00 5.184696e+01 8.524038e+00
      vertex   7.882758e+00 5.268656e+01 7.854481e+00
    endloop
  endfacet
  facet normal 1.000000e+00 0.000000e+00 0.000000e+00
    outer loop
      vertex   7.882758e+00 7.431344e+01 7.854481e+00
      vertex   7.882758e+00 5.268656e+01 7.854481e+00
      vertex   7.882758e+00 7.384750e+01 6.886943e+00
    endloop
  endfacet
  facet normal 1.000000e+00 0.000000e+00 0.000000e+00
    outer loop
      vertex   7.882758e+00 7.384750e+01 6.886943e+00
      vertex   7.882758e+00 5.268656e+01 7.854481e+00
      vertex   7.882758e+00 5.315250e+01 6.886943e+00
    endloop
  endfacet
  facet normal 1.000000e+00 0.000000e+00 0.000000e+00
    outer loop
      vertex   7.882758e+00 7.384750e+01 6.886943e+00
      vertex   7.882758e+00 5.315250e+01 6.886943e+00
      vertex   7.882758e+00 5.315250e+01 5.813057e+00
    endloop
  endfacet
  facet normal 1.000000e+00 0.000000e+00 -0.000000e+00
    outer loop
      vertex   7.882758e+00 5.184696e+01 8.524038e+00
      vertex   7.882758e+00 5.334000e+01 3.556000e+01
      vertex   7.882758e+00 5.080000e+01 8.763000e+00
    endloop
  endfacet
  facet normal 1.000000e+00 0.000000e+00 -0.000000e+00
    outer loop
      vertex   7.882758e+00 5.080000e+01 8.763000e+00
      vertex   7.882758e+00 5.334000e+01 3.556000e+01
      vertex   7.882758e+00 4.826000e+01 3.556000e+01
    endloop
  endfacet
  facet normal 1.000000e+00 0.000000e+00 0.000000e+00
    outer loop
      vertex   7.882758e+00 5.080000e+01 8.763000e+00
      vertex   7.882758e+00 4.826000e+01 3.556000e+01
      vertex   7.882758e+00 4.975304e+01 8.524038e+00
    endloop
  endfacet
  facet normal 1.000000e+00 0.000000e+00 0.000000e+00
    outer loop
      vertex   7.882758e+00 4.975304e+01 8.524038e+00
      vertex   7.882758e+00 4.826000e+01 3.556000e+01
      vertex   7.882758e+00 2.644696e+01 8.524038e+00
    endloop
  endfacet
  facet normal 1.000000e+00 0.000000e+00 0.000000e+00
    outer loop
      vertex   7.882758e+00 4.975304e+01 8.524038e+00
      vertex   7.882758e+00 2.644696e+01 8.524038e+00
      vertex   7.882758e+00 2.728656e+01 7.854481e+00
    endloop
  endfacet
  facet normal 1.000000e+00 0.000000e+00 0.000000e+00
    outer loop
      vertex   7.882758e+00 4.975304e+01 4.175962e+00
      vertex   7.882758e+00 2.644696e+01 4.175962e+00
      vertex   7.882758e+00 5.080000e+01 3.937000e+00
    endloop
  endfacet
  facet normal 1.000000e+00 0.000000e+00 0.000000e+00
    outer loop
      vertex   7.882758e+00 5.080000e+01 3.937000e+00
      vertex   7.882758e+00 2.644696e+01 4.175962e+00
      vertex   7.882758e+00 2.540000e+01 3.937000e+00
    endloop
  endfacet
  facet normal 1.000000e+00 0.000000e+00 0.000000e+00
    outer loop
      vertex   7.882758e+00 5.080000e+01 3.937000e+00
      vertex   7.882758e+00 2.540000e+01 3.937000e+00
      vertex   7.882758e+00 0.000000e+00 -1.270000e+01
    endloop
  endfacet
  facet normal 1.000000e+00 0.000000e+00 0.000000e+00
    outer loop
      vertex   7.882758e+00 0.000000e+00 -1.270000e+01
      vertex   7.882758e+00 2.540000e+01 3.937000e+00
      vertex   7.882758e+00 2.435304e+01 4.175962e+00
    endloop
  endfacet
  facet normal 1.000000e+00 0.000000e+00 0.000000e+00
    outer loop
      vertex   7.882758e+00 0.000000e+00 -1.270000e+01
      vertex   7.882758e+00 2.435304e+01 4.175962e+00
      vertex   7.882758e+00 2.351344e+01 4.845519e+00
    endloop
  endfacet
  facet normal 1.000000e+00 0.000000e+00 0.000000e+00
    outer loop
      vertex   7.882758e+00 4.975304e+01 4.175962e+00
      vertex   7.882758e+00 4.891344e+01 4.845519e+00
      vertex   7.882758e+00 2.644696e+01 4.175962e+00
    endloop
  endfacet
  facet normal 1.000000e+00 0.000000e+00 0.000000e+00
    outer loop
      vertex   7.882758e+00 2.644696e+01 4.175962e+00
      vertex   7.882758e+00 4.891344e+01 4.845519e+00
      vertex   7.882758e+00 2.728656e+01 4.845519e+00
    endloop
  endfacet
  facet normal 1.000000e+00 0.000000e+00 0.000000e+00
    outer loop
      vertex   7.882758e+00 2.728656e+01 4.845519e+00
      vertex   7.882758e+00 4.891344e+01 4.845519e+00
      vertex   7.882758e+00 4.844750e+01 5.813057e+00
    endloop
  endfacet
  facet normal 1.000000e+00 0.000000e+00 0.000000e+00
    outer loop
      vertex   7.882758e+00 2.728656e+01 4.845519e+00
      vertex   7.882758e+00 4.844750e+01 5.813057e+00
      vertex   7.882758e+00 2.775250e+01 5.813057e+00
    endloop
  endfacet
  facet normal 1.000000e+00 0.000000e+00 0.000000e+00
    outer loop
      vertex   7.882758e+00 2.775250e+01 5.813057e+00
      vertex   7.882758e+00 4.844750e+01 5.813057e+00
      vertex   7.882758e+00 4.844750e+01 6.886943e+00
    endloop
  endfacet
  facet normal 1.000000e+00 0.000000e+00 0.000000e+00
    outer loop
      vertex   7.882758e+00 2.775250e+01 5.813057e+00
      vertex   7.882758e+00 4.844750e+01 6.886943e+00
      vertex   7.882758e+00 2.775250e+01 6.886943e+00
    endloop
  endfacet
  facet normal 1.000000e+00 0.000000e+00 0.000000e+00
    outer loop
      vertex   7.882758e+00 2.775250e+01 6.886943e+00
      vertex   7.882758e+00 4.844750e+01 6.886943e+00
      vertex   7.882758e+00 4.891344e+01 7.854481e+00
    endloop
  endfacet
  facet normal 1.000000e+00 0.000000e+00 -0.000000e+00
    outer loop
      vertex   7.882758e+00 2.775250e+01 6.886943e+00
      vertex   7.882758e+00 4.891344e+01 7.854481e+00
      vertex   7.882758e+00 2.728656e+01 7.854481e+00
    endloop
  endfacet
  facet normal 1.000000e+00 0.000000e+00 0.000000e+00
    outer loop
      vertex   7.882758e+00 2.728656e+01 7.854481e+00
      vertex   7.882758e+00 4.891344e+01 7.854481e+00
      vertex   7.882758e+00 4.975304e+01 8.524038e+00
    endloop
  endfacet
  facet normal 1.000000e+00 0.000000e+00 0.000000e+00
    outer loop
      vertex   7.882758e+00 7.384750e+01 6.886943e+00
      vertex   7.882758e+00 5.315250e+01 5.813057e+00
      vertex   7.882758e+00 7.384750e+01 5.813057e+00
    endloop
  endfacet
  facet normal 1.000000e+00 0.000000e+00 0.000000e+00
    outer loop
      vertex   7.882758e+00 7.384750e+01 5.813057e+00
      vertex   7.882758e+00 5.315250e+01 5.813057e+00
      vertex   7.882758e+00 5.268656e+01 4.845519e+00
    endloop
  endfacet
  facet normal 1.000000e+00 0.000000e+00 0.000000e+00
    outer loop
      vertex   7.882758e+00 7.384750e+01 5.813057e+00
      vertex   7.882758e+00 5.268656e+01 4.845519e+00
      vertex   7.882758e+00 7.431344e+01 4.845519e+00
    endloop
  endfacet
  facet normal 1.000000e+00 0.000000e+00 0.000000e+00
    outer loop
      vertex   7.882758e+00 7.431344e+01 4.845519e+00
      vertex   7.882758e+00 5.268656e+01 4.845519e+00
      vertex   7.882758e+00 5.184696e+01 4.175962e+00
    endloop
  endfacet
  facet normal 1.000000e+00 0.000000e+00 0.000000e+00
    outer loop
      vertex   7.882758e+00 7.431344e+01 4.845519e+00
      vertex   7.882758e+00 5.184696e+01 4.175962e+00
      vertex   7.882758e+00 7.515304e+01 4.175962e+00
    endloop
  endfacet
  facet normal 1.000000e+00 0.000000e+00 0.000000e+00
    outer loop
      vertex   7.882758e+00 7.515304e+01 4.175962e+00
      vertex   7.882758e+00 5.184696e+01 4.175962e+00
      vertex   7.882758e+00 7.620000e+01 3.937000e+00
    endloop
  endfacet
  facet normal 1.000000e+00 0.000000e+00 0.000000e+00
    outer loop
      vertex   7.882758e+00 7.620000e+01 3.937000e+00
      vertex   7.882758e+00 5.184696e+01 4.175962e+00
      vertex   7.882758e+00 5.080000e+01 3.937000e+00
    endloop
  endfacet
  facet normal 1.000000e+00 0.000000e+00 0.000000e+00
    outer loop
      vertex   7.882758e+00 7.620000e+01 3.937000e+00
      vertex   7.882758e+00 5.080000e+01 3.937000e+00
      vertex   7.882758e+00 1.016000e+02 -1.270000e+01
    endloop
  endfacet
  facet normal 1.000000e+00 0.000000e+00 0.000000e+00
    outer loop
      vertex   7.882758e+00 1.016000e+02 -1.270000e+01
      vertex   7.882758e+00 5.080000e+01 3.937000e+00
      vertex   7.882758e+00 0.000000e+00 -1.270000e+01
    endloop
  endfacet
  facet normal 1.000000e+00 0.000000e+00 0.000000e+00
    outer loop
      vertex   7.882758e+00 2.351344e+01 4.845519e+00
      vertex   7.882758e+00 2.304750e+01 5.813057e+00
      vertex   7.882758e+00 0.000000e+00 -1.270000e+01
    endloop
  endfacet
  facet normal 1.000000e+00 0.000000e+00 0.000000e+00
    outer loop
      vertex   7.882758e+00 0.000000e+00 -1.270000e+01
      vertex   7.882758e+00 2.304750e+01 5.813057e+00
      vertex   7.882758e+00 2.304750e+01 6.886943e+00
    endloop
  endfacet
  facet normal 1.000000e+00 0.000000e+00 0.000000e+00
    outer loop
      vertex   7.882758e+00 0.000000e+00 -1.270000e+01
      vertex   7.882758e+00 2.304750e+01 6.886943e+00
      vertex   7.882758e+00 2.351344e+01 7.854481e+00
    endloop
  endfacet
  facet normal 1.000000e+00 0.000000e+00 0.000000e+00
    outer loop
      vertex   7.882758e+00 0.000000e+00 -1.270000e+01
      vertex   7.882758e+00 2.351344e+01 7.854481e+00
      vertex   7.882758e+00 0.000000e+00 5.715000e+01
    endloop
  endfacet
  facet normal 1.000000e+00 0.000000e+00 0.000000e+00
    outer loop
      vertex   7.882758e+00 0.000000e+00 5.715000e+01
      vertex   7.882758e+00 2.351344e+01 7.854481e+00
      vertex   7.882758e+00 2.435304e+01 8.524038e+00
    endloop
  endfacet
  facet normal 1.000000e+00 0.000000e+00 0.000000e+00
    outer loop
      vertex   7.882758e+00 0.000000e+00 5.715000e+01
      vertex   7.882758e+00 2.435304e+01 8.524038e+00
      vertex   7.882758e+00 4.826000e+01 3.556000e+01
    endloop
  endfacet
  facet normal 1.000000e+00 0.000000e+00 0.000000e+00
    outer loop
      vertex   7.882758e+00 4.826000e+01 3.556000e+01
      vertex   7.882758e+00 2.435304e+01 8.524038e+00
      vertex   7.882758e+00 2.540000e+01 8.763000e+00
    endloop
  endfacet
  facet normal 1.000000e+00 0.000000e+00 0.000000e+00
    outer loop
      vertex   7.882758e+00 4.826000e+01 3.556000e+01
      vertex   7.882758e+00 2.540000e+01 8.763000e+00
      vertex   7.882758e+00 2.644696e+01 8.524038e+00
    endloop
  endfacet
  facet normal 1.000000e+00 -0.000000e+00 0.000000e+00
    outer loop
      vertex   7.882758e+00 7.724696e+01 8.524038e+00
      vertex   7.882758e+00 7.808656e+01 7.854481e+00
      vertex   7.882758e+00 1.016000e+02 5.715000e+01
    endloop
  endfacet
  facet normal 1.000000e+00 0.000000e+00 0.000000e+00
    outer loop
      vertex   7.882758e+00 1.016000e+02 5.715000e+01
      vertex   7.882758e+00 7.808656e+01 7.854481e+00
      vertex   7.882758e+00 1.016000e+02 -1.270000e+01
    endloop
  endfacet
  facet normal 1.000000e+00 0.000000e+00 0.000000e+00
    outer loop
      vertex   7.882758e+00 1.016000e+02 -1.270000e+01
      vertex   7.882758e+00 7.808656e+01 7.854481e+00
      vertex   7.882758e+00 7.855250e+01 6.886943e+00
    endloop
  endfacet
  facet normal 1.000000e+00 0.000000e+00 0.000000e+00
    outer loop
      vertex   7.882758e+00 1.016000e+02 -1.270000e+01
      vertex   7.882758e+00 7.855250e+01 6.886943e+00
      vertex   7.882758e+00 7.855250e+01 5.813057e+00
    endloop
  endfacet
  facet normal 1.000000e+00 0.000000e+00 0.000000e+00
    outer loop
      vertex   7.882758e+00 7.855250e+01 5.813057e+00
      vertex   7.882758e+00 7.808656e+01 4.845519e+00
      vertex   7.882758e+00 1.016000e+02 -1.270000e+01
    endloop
  endfacet
  facet normal 1.000000e+00 0.000000e+00 0.000000e+00
    outer loop
      vertex   7.882758e+00 1.016000e+02 -1.270000e+01
      vertex   7.882758e+00 7.808656e+01 4.845519e+00
      vertex   7.882758e+00 7.724696e+01 4.175962e+00
    endloop
  endfacet
  facet normal 1.000000e+00 0.000000e+00 0.000000e+00
    outer loop
      vertex   7.882758e+00 1.016000e+02 -1.270000e+01
      vertex   7.882758e+00 7.724696e+01 4.175962e+00
      vertex   7.882758e+00 7.620000e+01 3.937000e+00
    endloop
  endfacet
  facet normal -1.000000e+00 -0.000000e+00 -0.000000e+00
    outer loop
      vertex   -1.065924e+01 1.016000e+02 2.497425e+01
      vertex   -1.065924e+01 1.016000e+02 1.905000e+01
      vertex   -1.065924e+01 0.000000e+00 2.497425e+01
    endloop
  endfacet
  facet normal -1.000000e+00 0.000000e+00 0.000000e+00
    outer loop
      vertex   -1.065924e+01 0.000000e+00 2.497425e+01
      vertex   -1.065924e+01 1.016000e+02 1.905000e+01
      vertex   -1.065924e+01 0.000000e+00 1.905000e+01
    endloop
  endfacet
  facet normal 0.000000e+00 0.000000e+00 1.000000e+00
    outer loop
      vertex   3.421336e-01 1.016000e+02 -6.350000e+00
      vertex   -1.065924e+01 1.016000e+02 -6.350000e+00
      vertex   3.421336e-01 0.000000e+00 -6.350000e+00
    endloop
  endfacet
  facet normal 0.000000e+00 0.000000e+00 1.000000e+00
    outer loop
      vertex   3.421336e-01 0.000000e+00 -6.350000e+00
      vertex   -1.065924e+01 1.016000e+02 -6.350000e+00
      vertex   -1.065924e+01 0.000000e+00 -6.350000e+00
    endloop
  endfacet
  facet normal 0.000000e+00 0.000000e+00 -1.000000e+00
    outer loop
      vertex   3.421336e-01 0.000000e+00 1.905000e+01
      vertex   -1.065924e+01 0.000000e+00 1.905000e+01
      vertex   3.421336e-01 1.016000e+02 1.905000e+01
    endloop
  endfacet
  facet normal -0.000000e+00 0.000000e+00 -1.000000e+00
    outer loop
      vertex   3.421336e-01 1.016000e+02 1.905000e+01
      vertex   -1.065924e+01 0.000000e+00 1.905000e+01
      vertex   -1.065924e+01 1.016000e+02 1.905000e+01
    endloop
  endfacet
  facet normal -1.000000e+00 0.000000e+00 0.000000e+00
    outer loop
      vertex   3.421336e-01 7.515304e+01 8.524038e+00
      vertex   3.421336e-01 5.080000e+01 8.763000e+00
      vertex   3.421336e-01 7.620000e+01 8.763000e+00
    endloop
  endfacet
  facet normal -1.000000e+00 0.000000e+00 0.000000e+00
    outer loop
      vertex   3.421336e-01 7.620000e+01 8.763000e+00
      vertex   3.421336e-01 5.080000e+01 8.763000e+00
      vertex   3.421336e-01 1.016000e+02 1.905000e+01
    endloop
  endfacet
  facet normal -1.000000e+00 0.000000e+00 0.000000e+00
    outer loop
      vertex   3.421336e-01 7.620000e+01 8.763000e+00
      vertex   3.421336e-01 1.016000e+02 1.905000e+01
      vertex   3.421336e-01 7.724696e+01 8.524038e+00
    endloop
  endfacet
  facet normal -1.000000e+00 0.000000e+00 0.000000e+00
    outer loop
      vertex   3.421336e-01 7.724696e+01 8.524038e+00
      vertex   3.421336e-01 1.016000e+02 1.905000e+01
      vertex   3.421336e-01 7.808656e+01 7.854481e+00
    endloop
  endfacet
  facet normal -1.000000e+00 0.000000e+00 0.000000e+00
    outer loop
      vertex   3.421336e-01 7.808656e+01 7.854481e+00
      vertex   3.421336e-01 1.016000e+02 1.905000e+01
      vertex   3.421336e-01 7.855250e+01 6.886943e+00
    endloop
  endfacet
  facet normal -1.000000e+00 0.000000e+00 0.000000e+00
    outer loop
      vertex   3.421336e-01 7.855250e+01 6.886943e+00
      vertex   3.421336e-01 1.016000e+02 1.905000e+01
      vertex   3.421336e-01 1.016000e+02 -6.350000e+00
    endloop
  endfacet
  facet normal -1.000000e+00 0.000000e+00 0.000000e+00
    outer loop
      vertex   3.421336e-01 7.855250e+01 6.886943e+00
      vertex   3.421336e-01 1.016000e+02 -6.350000e+00
      vertex   3.421336e-01 7.855250e+01 5.813057e+00
    endloop
  endfacet
  facet normal -1.000000e+00 0.000000e+00 -0.000000e+00
    outer loop
      vertex   3.421336e-01 7.855250e+01 5.813057e+00
      vertex   3.421336e-01 1.016000e+02 -6.350000e+00
      vertex   3.421336e-01 7.808656e+01 4.845519e+00
    endloop
  endfacet
  facet normal -1.000000e+00 0.000000e+00 -0.000000e+00
    outer loop
      vertex   3.421336e-01 7.808656e+01 4.845519e+00
      vertex   3.421336e-01 1.016000e+02 -6.350000e+00
      vertex   3.421336e-01 7.724696e+01 4.175962e+00
    endloop
  endfacet
  facet normal -1.000000e+00 0.000000e+00 -0.000000e+00
    outer loop
      vertex   3.421336e-01 7.724696e+01 4.175962e+00
      vertex   3.421336e-01 1.016000e+02 -6.350000e+00
      vertex   3.421336e-01 7.620000e+01 3.937000e+00
    endloop
  endfacet
  facet normal -1.000000e+00 -0.000000e+00 -0.000000e+00
    outer loop
      vertex   3.421336e-01 7.620000e+01 3.937000e+00
      vertex   3.421336e-01 1.016000e+02 -6.350000e+00
      vertex   3.421336e-01 5.080000e+01 3.937000e+00
    endloop
  endfacet
  facet normal -1.000000e+00 0.000000e+00 0.000000e+00
    outer loop
      vertex   3.421336e-01 7.620000e+01 3.937000e+00
      vertex   3.421336e-01 5.080000e+01 3.937000e+00
      vertex   3.421336e-01 7.515304e+01 4.175962e+00
    endloop
  endfacet
  facet normal -1.000000e+00 -0.000000e+00 0.000000e+00
    outer loop
      vertex   3.421336e-01 7.515304e+01 4.175962e+00
      vertex   3.421336e-01 5.080000e+01 3.937000e+00
      vertex   3.421336e-01 5.184696e+01 4.175962e+00
    endloop
  endfacet
  facet normal -1.000000e+00 0.000000e+00 0.000000e+00
    outer loop
      vertex   3.421336e-01 7.515304e+01 4.175962e+00
      vertex   3.421336e-01 5.184696e+01 4.175962e+00
      vertex   3.421336e-01 7.431344e+01 4.845519e+00
    endloop
  endfacet
  facet normal -1.000000e+00 -0.000000e+00 0.000000e+00
    outer loop
      vertex   3.421336e-01 7.431344e+01 4.845519e+00
      vertex   3.421336e-01 5.184696e+01 4.175962e+00
      vertex   3.421336e-01 5.268656e+01 4.845519e+00
    endloop
  endfacet
  facet normal -1.000000e+00 0.000000e+00 0.000000e+00
    outer loop
      vertex   3.421336e-01 7.431344e+01 4.845519e+00
      vertex   3.421336e-01 5.268656e+01 4.845519e+00
      vertex   3.421336e-01 7.384750e+01 5.813057e+00
    endloop
  endfacet
  facet normal -1.000000e+00 -0.000000e+00 0.000000e+00
    outer loop
      vertex   3.421336e-01 7.384750e+01 5.813057e+00
      vertex   3.421336e-01 5.268656e+01 4.845519e+00
      vertex   3.421336e-01 5.315250e+01 5.813057e+00
    endloop
  endfacet
  facet normal -1.000000e+00 0.000000e+00 0.000000e+00
    outer loop
      vertex   3.421336e-01 7.384750e+01 5.813057e+00
      vertex   3.421336e-01 5.315250e+01 5.813057e+00
      vertex   3.421336e-01 5.315250e+01 6.886943e+00
    endloop
  endfacet
  facet normal -1.000000e+00 0.000000e+00 0.000000e+00
    outer loop
      vertex   3.421336e-01 5.080000e+01 8.763000e+00
      vertex   3.421336e-01 7.515304e+01 8.524038e+00
      vertex   3.421336e-01 5.184696e+01 8.524038e+00
    endloop
  endfacet
  facet normal -1.000000e+00 0.000000e+00 0.000000e+00
    outer loop
      vertex   3.421336e-01 5.184696e+01 8.524038e+00
      vertex   3.421336e-01 7.515304e+01 8.524038e+00
      vertex   3.421336e-01 7.431344e+01 7.854481e+00
    endloop
  endfacet
  facet normal -1.000000e+00 0.000000e+00 0.000000e+00
    outer loop
      vertex   3.421336e-01 5.184696e+01 8.524038e+00
      vertex   3.421336e-01 7.431344e+01 7.854481e+00
      vertex   3.421336e-01 5.268656e+01 7.854481e+00
    endloop
  endfacet
  facet normal -1.000000e+00 0.000000e+00 0.000000e+00
    outer loop
      vertex   3.421336e-01 5.268656e+01 7.854481e+00
      vertex   3.421336e-01 7.431344e+01 7.854481e+00
      vertex   3.421336e-01 7.384750e+01 6.886943e+00
    endloop
  endfacet
  facet normal -1.000000e+00 0.000000e+00 0.000000e+00
    outer loop
      vertex   3.421336e-01 5.268656e+01 7.854481e+00
      vertex   3.421336e-01 7.384750e+01 6.886943e+00
      vertex   3.421336e-01 5.315250e+01 6.886943e+00
    endloop
  endfacet
  facet normal -1.000000e+00 0.000000e+00 0.000000e+00
    outer loop
      vertex   3.421336e-01 5.315250e+01 6.886943e+00
      vertex   3.421336e-01 7.384750e+01 6.886943e+00
      vertex   3.421336e-01 7.384750e+01 5.813057e+00
    endloop
  endfacet
  facet normal -1.000000e+00 0.000000e+00 0.000000e+00
    outer loop
      vertex   3.421336e-01 4.975304e+01 8.524038e+00
      vertex   3.421336e-01 2.644696e+01 8.524038e+00
      vertex   3.421336e-01 5.080000e+01 8.763000e+00
    endloop
  endfacet
  facet normal -1.000000e+00 -0.000000e+00 0.000000e+00
    outer loop
      vertex   3.421336e-01 5.080000e+01 8.763000e+00
      vertex   3.421336e-01 2.644696e+01 8.524038e+00
      vertex   3.421336e-01 2.540000e+01 8.763000e+00
    endloop
  endfacet
  facet normal -1.000000e+00 0.000000e+00 0.000000e+00
    outer loop
      vertex   3.421336e-01 5.080000e+01 8.763000e+00
      vertex   3.421336e-01 2.540000e+01 8.763000e+00
      vertex   3.421336e-01 0.000000e+00 1.905000e+01
    endloop
  endfacet
  facet normal -1.000000e+00 0.000000e+00 0.000000e+00
    outer loop
      vertex   3.421336e-01 0.000000e+00 1.905000e+01
      vertex   3.421336e-01 2.540000e+01 8.763000e+00
      vertex   3.421336e-01 2.435304e+01 8.524038e+00
    endloop
  endfacet
  facet normal -1.000000e+00 0.000000e+00 0.000000e+00
    outer loop
      vertex   3.421336e-01 0.000000e+00 1.905000e+01
      vertex   3.421336e-01 2.435304e+01 8.524038e+00
      vertex   3.421336e-01 2.351344e+01 7.854481e+00
    endloop
  endfacet
  facet normal -1.000000e+00 -0.000000e+00 0.000000e+00
    outer loop
      vertex   3.421336e-01 4.975304e+01 8.524038e+00
      vertex   3.421336e-01 4.891344e+01 7.854481e+00
      vertex   3.421336e-01 2.644696e+01 8.524038e+00
    endloop
  endfacet
  facet normal -1.000000e+00 0.000000e+00 0.000000e+00
    outer loop
      vertex   3.421336e-01 2.644696e+01 8.524038e+00
      vertex   3.421336e-01 4.891344e+01 7.854481e+00
      vertex   3.421336e-01 2.728656e+01 7.854481e+00
    endloop
  endfacet
  facet normal -1.000000e+00 0.000000e+00 0.000000e+00
    outer loop
      vertex   3.421336e-01 2.728656e+01 7.854481e+00
      vertex   3.421336e-01 4.891344e+01 7.854481e+00
      vertex   3.421336e-01 4.844750e+01 6.886943e+00
    endloop
  endfacet
  facet normal -1.000000e+00 0.000000e+00 0.000000e+00
    outer loop
      vertex   3.421336e-01 2.728656e+01 7.854481e+00
      vertex   3.421336e-01 4.844750e+01 6.886943e+00
      vertex   3.421336e-01 2.775250e+01 6.886943e+00
    endloop
  endfacet
  facet normal -1.000000e+00 0.000000e+00 0.000000e+00
    outer loop
      vertex   3.421336e-01 2.775250e+01 6.886943e+00
      vertex   3.421336e-01 4.844750e+01 6.886943e+00
      vertex   3.421336e-01 4.844750e+01 5.813057e+00
    endloop
  endfacet
  facet normal -1.000000e+00 0.000000e+00 0.000000e+00
    outer loop
      vertex   3.421336e-01 2.775250e+01 6.886943e+00
      vertex   3.421336e-01 4.844750e+01 5.813057e+00
      vertex   3.421336e-01 2.775250e+01 5.813057e+00
    endloop
  endfacet
  facet normal -1.000000e+00 0.000000e+00 -0.000000e+00
    outer loop
      vertex   3.421336e-01 2.775250e+01 5.813057e+00
      vertex   3.421336e-01 4.844750e+01 5.813057e+00
      vertex   3.421336e-01 2.728656e+01 4.845519e+00
    endloop
  endfacet
  facet normal -1.000000e+00 0.000000e+00 0.000000e+00
    outer loop
      vertex   3.421336e-01 2.728656e+01 4.845519e+00
      vertex   3.421336e-01 4.844750e+01 5.813057e+00
      vertex   3.421336e-01 4.891344e+01 4.845519e+00
    endloop
  endfacet
  facet normal -1.000000e+00 0.000000e+00 -0.000000e+00
    outer loop
      vertex   3.421336e-01 2.728656e+01 4.845519e+00
      vertex   3.421336e-01 4.891344e+01 4.845519e+00
      vertex   3.421336e-01 2.644696e+01 4.175962e+00
    endloop
  endfacet
  facet normal -1.000000e+00 0.000000e+00 0.000000e+00
    outer loop
      vertex   3.421336e-01 2.644696e+01 4.175962e+00
      vertex   3.421336e-01 4.891344e+01 4.845519e+00
      vertex   3.421336e-01 4.975304e+01 4.175962e+00
    endloop
  endfacet
  facet normal -1.000000e+00 0.000000e+00 0.000000e+00
    outer loop
      vertex   3.421336e-01 2.644696e+01 4.175962e+00
      vertex   3.421336e-01 4.975304e+01 4.175962e+00
      vertex   3.421336e-01 5.080000e+01 3.937000e+00
    endloop
  endfacet
  facet normal -1.000000e+00 -0.000000e+00 0.000000e+00
    outer loop
      vertex   3.421336e-01 2.351344e+01 7.854481e+00
      vertex   3.421336e-01 2.304750e+01 6.886943e+00
      vertex   3.421336e-01 0.000000e+00 1.905000e+01
    endloop
  endfacet
  facet normal -1.000000e+00 0.000000e+00 0.000000e+00
    outer loop
      vertex   3.421336e-01 0.000000e+00 1.905000e+01
      vertex   3.421336e-01 2.304750e+01 6.886943e+00
      vertex   3.421336e-01 2.304750e+01 5.813057e+00
    endloop
  endfacet
  facet normal -1.000000e+00 0.000000e+00 0.000000e+00
    outer loop
      vertex   3.421336e-01 0.000000e+00 1.905000e+01
      vertex   3.421336e-01 2.304750e+01 5.813057e+00
      vertex   3.421336e-01 0.000000e+00 -6.350000e+00
    endloop
  endfacet
  facet normal -1.000000e+00 0.000000e+00 0.000000e+00
    outer loop
      vertex   3.421336e-01 0.000000e+00 -6.350000e+00
      vertex   3.421336e-01 2.304750e+01 5.813057e+00
      vertex   3.421336e-01 2.351344e+01 4.845519e+00
    endloop
  endfacet
  facet normal -1.000000e+00 0.000000e+00 0.000000e+00
    outer loop
      vertex   3.421336e-01 0.000000e+00 -6.350000e+00
      vertex   3.421336e-01 2.351344e+01 4.845519e+00
      vertex   3.421336e-01 2.435304e+01 4.175962e+00
    endloop
  endfacet
  facet normal -1.000000e+00 0.000000e+00 -0.000000e+00
    outer loop
      vertex   3.421336e-01 2.435304e+01 4.175962e+00
      vertex   3.421336e-01 2.540000e+01 3.937000e+00
      vertex   3.421336e-01 0.000000e+00 -6.350000e+00
    endloop
  endfacet
  facet normal -1.000000e+00 0.000000e+00 0.000000e+00
    outer loop
      vertex   3.421336e-01 0.000000e+00 -6.350000e+00
      vertex   3.421336e-01 2.540000e+01 3.937000e+00
      vertex   3.421336e-01 5.080000e+01 3.937000e+00
    endloop
  endfacet
  facet normal -1.000000e+00 0.000000e+00 0.000000e+00
    outer loop
      vertex   3.421336e-01 0.000000e+00 -6.350000e+00
      vertex   3.421336e-01 5.080000e+01 3.937000e+00
      vertex   3.421336e-01 1.016000e+02 -6.350000e+00
    endloop
  endfacet
  facet normal -1.000000e+00 0.000000e+00 0.000000e+00
    outer loop
      vertex   3.421336e-01 2.540000e+01 3.937000e+00
      vertex   3.421336e-01 2.644696e+01 4.175962e+00
      vertex   3.421336e-01 5.080000e+01 3.937000e+00
    endloop
  endfacet
  facet normal -1.000000e+00 0.000000e+00 0.000000e+00
    outer loop
      vertex   3.421336e-01 0.000000e+00 1.905000e+01
      vertex   3.421336e-01 1.016000e+02 1.905000e+01
      vertex   3.421336e-01 5.080000e+01 8.763000e+00
    endloop
  endfacet
  facet normal -1.000000e+00 0.000000e+00 0.000000e+00
    outer loop
      vertex   1.532759e+00 4.826000e+01 4.064000e+01
      vertex   1.532759e+00 0.000000e+00 5.143500e+01
      vertex   1.532759e+00 5.334000e+01 4.064000e+01
    endloop
  endfacet
  facet normal -1.000000e+00 0.000000e+00 0.000000e+00
    outer loop
      vertex   1.532759e+00 5.334000e+01 4.064000e+01
      vertex   1.532759e+00 0.000000e+00 5.143500e+01
      vertex   1.532759e+00 1.016000e+02 5.143500e+01
    endloop
  endfacet
  facet normal -1.000000e+00 0.000000e+00 0.000000e+00
    outer loop
      vertex   1.532759e+00 5.334000e+01 4.064000e+01
      vertex   1.532759e+00 1.016000e+02 5.143500e+01
      vertex   1.532759e+00 1.016000e+02 2.540000e+01
    endloop
  endfacet
  facet normal -1.000000e+00 0.000000e+00 0.000000e+00
    outer loop
      vertex   1.532759e+00 0.000000e+00 5.143500e+01
      vertex   1.532759e+00 4.826000e+01 4.064000e+01
      vertex   1.532759e+00 0.000000e+00 2.540000e+01
    endloop
  endfacet
  facet normal -1.000000e+00 0.000000e+00 0.000000e+00
    outer loop
      vertex   1.532759e+00 0.000000e+00 2.540000e+01
      vertex   1.532759e+00 4.826000e+01 4.064000e+01
      vertex   1.532759e+00 4.826000e+01 3.556000e+01
    endloop
  endfacet
  facet normal -1.000000e+00 0.000000e+00 0.000000e+00
    outer loop
      vertex   1.532759e+00 0.000000e+00 2.540000e+01
      vertex   1.532759e+00 4.826000e+01 3.556000e+01
      vertex   1.532759e+00 5.334000e+01 3.556000e+01
    endloop
  endfacet
  facet normal -1.000000e+00 0.000000e+00 0.000000e+00
    outer loop
      vertex   1.532759e+00 0.000000e+00 2.540000e+01
      vertex   1.532759e+00 5.334000e+01 3.556000e+01
      vertex   1.532759e+00 1.016000e+02 2.540000e+01
    endloop
  endfacet
  facet normal -1.000000e+00 0.000000e+00 0.000000e+00
    outer loop
      vertex   1.532759e+00 1.016000e+02 2.540000e+01
      vertex   1.532759e+00 5.334000e+01 3.556000e+01
      vertex   1.532759e+00 5.334000e+01 4.064000e+01
    endloop
  endfacet
  facet normal -0.000000e+00 -0.000000e+00 -1.000000e+00
    outer loop
      vertex   7.882758e+00 5.334000e+01 4.064000e+01
      vertex   7.882758e+00 4.826000e+01 4.064000e+01
      vertex   1.532759e+00 5.334000e+01 4.064000e+01
    endloop
  endfacet
  facet normal 0.000000e+00 0.000000e+00 -1.000000e+00
    outer loop
      vertex   1.532759e+00 5.334000e+01 4.064000e+01
      vertex   7.882758e+00 4.826000e+01 4.064000e+01
      vertex   1.532759e+00 4.826000e+01 4.064000e+01
    endloop
  endfacet
  facet normal 0.000000e+00 -1.000000e+00 0.000000e+00
    outer loop
      vertex   7.882758e+00 5.334000e+01 3.556000e+01
      vertex   7.882758e+00 5.334000e+01 4.064000e+01
      vertex   1.532759e+00 5.334000e+01 3.556000e+01
    endloop
  endfacet
  facet normal 0.000000e+00 -1.000000e+00 0.000000e+00
    outer loop
      vertex   1.532759e+00 5.334000e+01 3.556000e+01
      vertex   7.882758e+00 5.334000e+01 4.064000e+01
      vertex   1.532759e+00 5.334000e+01 4.064000e+01
    endloop
  endfacet
  facet normal 0.000000e+00 1.000000e+00 0.000000e+00
    outer loop
      vertex   7.882758e+00 4.826000e+01 4.064000e+01
      vertex   7.882758e+00 4.826000e+01 3.556000e+01
      vertex   1.532759e+00 4.826000e+01 4.064000e+01
    endloop
  endfacet
  facet normal 0.000000e+00 1.000000e+00 0.000000e+00
    outer loop
      vertex   1.532759e+00 4.826000e+01 4.064000e+01
      vertex   7.882758e+00 4.826000e+01 3.556000e+01
      vertex   1.532759e+00 4.826000e+01 3.556000e+01
    endloop
  endfacet
  facet normal 0.000000e+00 -0.000000e+00 1.000000e+00
    outer loop
      vertex   7.882758e+00 4.826000e+01 3.556000e+01
      vertex   7.882758e+00 5.334000e+01 3.556000e+01
      vertex   1.532759e+00 4.826000e+01 3.556000e+01
    endloop
  endfacet
  facet normal 0.000000e+00 0.000000e+00 1.000000e+00
    outer loop
      vertex   1.532759e+00 4.826000e+01 3.556000e+01
      vertex   7.882758e+00 5.334000e+01 3.556000e+01
      vertex   1.532759e+00 5.334000e+01 3.556000e+01
    endloop
  endfacet
endsolid
