solid ASCII
  facet normal 0.000000e+00 1.000000e+00 0.000000e+00
    outer loop
      vertex   -1.065924e+01 9.842500e+01 1.905000e+01
      vertex   -1.065924e+01 9.842500e+01 2.814924e+01
      vertex   7.390086e-01 9.842500e+01 1.905000e+01
    endloop
  endfacet
  facet normal 0.000000e+00 1.000000e+00 -0.000000e+00
    outer loop
      vertex   7.390086e-01 9.842500e+01 1.905000e+01
      vertex   -1.065924e+01 9.842500e+01 2.814924e+01
      vertex   1.532759e+00 9.842500e+01 2.857500e+01
    endloop
  endfacet
  facet normal -0.000000e+00 1.000000e+00 0.000000e+00
    outer loop
      vertex   7.390086e-01 9.842500e+01 1.905000e+01
      vertex   1.532759e+00 9.842500e+01 2.857500e+01
      vertex   7.882758e+00 9.842500e+01 -1.270000e+01
    endloop
  endfacet
  facet normal 0.000000e+00 1.000000e+00 -0.000000e+00
    outer loop
      vertex   7.882758e+00 9.842500e+01 -1.270000e+01
      vertex   1.532759e+00 9.842500e+01 2.857500e+01
      vertex   7.882758e+00 9.842500e+01 6.032500e+01
    endloop
  endfacet
  facet normal 0.000000e+00 1.000000e+00 0.000000e+00
    outer loop
      vertex   7.882758e+00 9.842500e+01 6.032500e+01
      vertex   1.532759e+00 9.842500e+01 2.857500e+01
      vertex   1.532759e+00 9.842500e+01 5.461000e+01
    endloop
  endfacet
  facet normal 0.000000e+00 1.000000e+00 0.000000e+00
    outer loop
      vertex   7.882758e+00 9.842500e+01 6.032500e+01
      vertex   1.532759e+00 9.842500e+01 5.461000e+01
      vertex   -1.065924e+01 9.842500e+01 5.967750e+01
    endloop
  endfacet
  facet normal 0.000000e+00 1.000000e+00 0.000000e+00
    outer loop
      vertex   -1.065924e+01 9.842500e+01 5.967750e+01
      vertex   1.532759e+00 9.842500e+01 5.461000e+01
      vertex   -1.065924e+01 9.842500e+01 5.503575e+01
    endloop
  endfacet
  facet normal 0.000000e+00 1.000000e+00 0.000000e+00
    outer loop
      vertex   7.390086e-01 9.842500e+01 1.905000e+01
      vertex   7.882758e+00 9.842500e+01 -1.270000e+01
      vertex   7.390086e-01 9.842500e+01 -6.350000e+00
    endloop
  endfacet
  facet normal 0.000000e+00 1.000000e+00 0.000000e+00
    outer loop
      vertex   7.390086e-01 9.842500e+01 -6.350000e+00
      vertex   7.882758e+00 9.842500e+01 -1.270000e+01
      vertex   -1.065924e+01 9.842500e+01 -1.205250e+01
    endloop
  endfacet
  facet normal 0.000000e+00 1.000000e+00 0.000000e+00
    outer loop
      vertex   7.390086e-01 9.842500e+01 -6.350000e+00
      vertex   -1.065924e+01 9.842500e+01 -1.205250e+01
      vertex   -1.065924e+01 9.842500e+01 -6.350000e+00
    endloop
  endfacet
  facet normal 0.000000e+00 -1.000000e+00 0.000000e+00
    outer loop
      vertex   -1.065924e+01 3.175000e+00 -6.350000e+00
      vertex   -1.065924e+01 3.175000e+00 -1.205250e+01
      vertex   7.390086e-01 3.175000e+00 -6.350000e+00
    endloop
  endfacet
  facet normal 0.000000e+00 -1.000000e+00 -0.000000e+00
    outer loop
      vertex   7.390086e-01 3.175000e+00 -6.350000e+00
      vertex   -1.065924e+01 3.175000e+00 -1.205250e+01
      vertex   7.882758e+00 3.175000e+00 -1.270000e+01
    endloop
  endfacet
  facet normal 0.000000e+00 -1.000000e+00 0.000000e+00
    outer loop
      vertex   7.390086e-01 3.175000e+00 -6.350000e+00
      vertex   7.882758e+00 3.175000e+00 -1.270000e+01
      vertex   7.390086e-01 3.175000e+00 1.905000e+01
    endloop
  endfacet
  facet normal 0.000000e+00 -1.000000e+00 0.000000e+00
    outer loop
      vertex   7.390086e-01 3.175000e+00 1.905000e+01
      vertex   7.882758e+00 3.175000e+00 -1.270000e+01
      vertex   1.532759e+00 3.175000e+00 2.857500e+01
    endloop
  endfacet
  facet normal 0.000000e+00 -1.000000e+00 0.000000e+00
    outer loop
      vertex   7.390086e-01 3.175000e+00 1.905000e+01
      vertex   1.532759e+00 3.175000e+00 2.857500e+01
      vertex   -1.065924e+01 3.175000e+00 2.814924e+01
    endloop
  endfacet
  facet normal 0.000000e+00 -1.000000e+00 0.000000e+00
    outer loop
      vertex   7.882758e+00 3.175000e+00 -1.270000e+01
      vertex   7.882758e+00 3.175000e+00 6.032500e+01
      vertex   1.532759e+00 3.175000e+00 2.857500e+01
    endloop
  endfacet
  facet normal 0.000000e+00 -1.000000e+00 0.000000e+00
    outer loop
      vertex   1.532759e+00 3.175000e+00 2.857500e+01
      vertex   7.882758e+00 3.175000e+00 6.032500e+01
      vertex   1.532759e+00 3.175000e+00 5.461000e+01
    endloop
  endfacet
  facet normal 0.000000e+00 -1.000000e+00 0.000000e+00
    outer loop
      vertex   1.532759e+00 3.175000e+00 5.461000e+01
      vertex   7.882758e+00 3.175000e+00 6.032500e+01
      vertex   -1.065924e+01 3.175000e+00 5.967750e+01
    endloop
  endfacet
  facet normal 0.000000e+00 -1.000000e+00 0.000000e+00
    outer loop
      vertex   1.532759e+00 3.175000e+00 5.461000e+01
      vertex   -1.065924e+01 3.175000e+00 5.967750e+01
      vertex   -1.065924e+01 3.175000e+00 5.503575e+01
    endloop
  endfacet
  facet normal 0.000000e+00 -1.000000e+00 0.000000e+00
    outer loop
      vertex   -1.065924e+01 3.175000e+00 2.814924e+01
      vertex   -1.065924e+01 3.175000e+00 1.905000e+01
      vertex   7.390086e-01 3.175000e+00 1.905000e+01
    endloop
  endfacet
  facet normal 1.000000e+00 0.000000e+00 0.000000e+00
    outer loop
      vertex   7.882758e+00 7.464895e+01 4.501535e+00
      vertex   7.882758e+00 5.080000e+01 3.937000e+00
      vertex   7.882758e+00 7.620000e+01 3.937000e+00
    endloop
  endfacet
  facet normal 1.000000e+00 0.000000e+00 0.000000e+00
    outer loop
      vertex   7.882758e+00 7.620000e+01 3.937000e+00
      vertex   7.882758e+00 5.080000e+01 3.937000e+00
      vertex   7.882758e+00 9.842500e+01 -1.270000e+01
    endloop
  endfacet
  facet normal 1.000000e+00 -0.000000e+00 0.000000e+00
    outer loop
      vertex   7.882758e+00 7.620000e+01 3.937000e+00
      vertex   7.882758e+00 9.842500e+01 -1.270000e+01
      vertex   7.882758e+00 7.775105e+01 4.501535e+00
    endloop
  endfacet
  facet normal 1.000000e+00 -0.000000e+00 0.000000e+00
    outer loop
      vertex   7.882758e+00 7.775105e+01 4.501535e+00
      vertex   7.882758e+00 9.842500e+01 -1.270000e+01
      vertex   7.882758e+00 7.857634e+01 5.930987e+00
    endloop
  endfacet
  facet normal 1.000000e+00 -0.000000e+00 -0.000000e+00
    outer loop
      vertex   7.882758e+00 7.857634e+01 5.930987e+00
      vertex   7.882758e+00 9.842500e+01 -1.270000e+01
      vertex   7.882758e+00 7.828972e+01 7.556500e+00
    endloop
  endfacet
  facet normal 1.000000e+00 -0.000000e+00 0.000000e+00
    outer loop
      vertex   7.882758e+00 7.828972e+01 7.556500e+00
      vertex   7.882758e+00 9.842500e+01 -1.270000e+01
      vertex   7.882758e+00 9.842500e+01 6.032500e+01
    endloop
  endfacet
  facet normal 1.000000e+00 0.000000e+00 -0.000000e+00
    outer loop
      vertex   7.882758e+00 7.828972e+01 7.556500e+00
      vertex   7.882758e+00 9.842500e+01 6.032500e+01
      vertex   7.882758e+00 7.702529e+01 8.617478e+00
    endloop
  endfacet
  facet normal 1.000000e+00 0.000000e+00 -0.000000e+00
    outer loop
      vertex   7.882758e+00 7.702529e+01 8.617478e+00
      vertex   7.882758e+00 9.842500e+01 6.032500e+01
      vertex   7.882758e+00 5.260616e+01 3.832290e+01
    endloop
  endfacet
  facet normal 1.000000e+00 0.000000e+00 0.000000e+00
    outer loop
      vertex   7.882758e+00 7.702529e+01 8.617478e+00
      vertex   7.882758e+00 5.260616e+01 3.832290e+01
      vertex   7.882758e+00 7.537470e+01 8.617478e+00
    endloop
  endfacet
  facet normal 1.000000e+00 0.000000e+00 0.000000e+00
    outer loop
      vertex   7.882758e+00 7.537470e+01 8.617478e+00
      vertex   7.882758e+00 5.260616e+01 3.832290e+01
      vertex   7.882758e+00 5.162529e+01 8.617478e+00
    endloop
  endfacet
  facet normal 1.000000e+00 0.000000e+00 0.000000e+00
    outer loop
      vertex   7.882758e+00 7.537470e+01 8.617478e+00
      vertex   7.882758e+00 5.162529e+01 8.617478e+00
      vertex   7.882758e+00 5.288972e+01 7.556500e+00
    endloop
  endfacet
  facet normal 1.000000e+00 0.000000e+00 0.000000e+00
    outer loop
      vertex   7.882758e+00 5.080000e+01 3.937000e+00
      vertex   7.882758e+00 7.464895e+01 4.501535e+00
      vertex   7.882758e+00 5.235105e+01 4.501535e+00
    endloop
  endfacet
  facet normal 1.000000e+00 0.000000e+00 0.000000e+00
    outer loop
      vertex   7.882758e+00 5.235105e+01 4.501535e+00
      vertex   7.882758e+00 7.464895e+01 4.501535e+00
      vertex   7.882758e+00 7.382366e+01 5.930987e+00
    endloop
  endfacet
  facet normal 1.000000e+00 0.000000e+00 0.000000e+00
    outer loop
      vertex   7.882758e+00 5.235105e+01 4.501535e+00
      vertex   7.882758e+00 7.382366e+01 5.930987e+00
      vertex   7.882758e+00 5.317634e+01 5.930987e+00
    endloop
  endfacet
  facet normal 1.000000e+00 0.000000e+00 0.000000e+00
    outer loop
      vertex   7.882758e+00 5.317634e+01 5.930987e+00
      vertex   7.882758e+00 7.382366e+01 5.930987e+00
      vertex   7.882758e+00 7.411028e+01 7.556500e+00
    endloop
  endfacet
  facet normal 1.000000e+00 0.000000e+00 -0.000000e+00
    outer loop
      vertex   7.882758e+00 5.317634e+01 5.930987e+00
      vertex   7.882758e+00 7.411028e+01 7.556500e+00
      vertex   7.882758e+00 5.288972e+01 7.556500e+00
    endloop
  endfacet
  facet normal 1.000000e+00 0.000000e+00 0.000000e+00
    outer loop
      vertex   7.882758e+00 5.288972e+01 7.556500e+00
      vertex   7.882758e+00 7.411028e+01 7.556500e+00
      vertex   7.882758e+00 7.537470e+01 8.617478e+00
    endloop
  endfacet
  facet normal 1.000000e+00 0.000000e+00 0.000000e+00
    outer loop
      vertex   7.882758e+00 2.384895e+01 4.501535e+00
      vertex   7.882758e+00 3.175000e+00 -1.270000e+01
      vertex   7.882758e+00 2.540000e+01 3.937000e+00
    endloop
  endfacet
  facet normal 1.000000e+00 -0.000000e+00 0.000000e+00
    outer loop
      vertex   7.882758e+00 2.540000e+01 3.937000e+00
      vertex   7.882758e+00 3.175000e+00 -1.270000e+01
      vertex   7.882758e+00 5.080000e+01 3.937000e+00
    endloop
  endfacet
  facet normal 1.000000e+00 0.000000e+00 0.000000e+00
    outer loop
      vertex   7.882758e+00 2.540000e+01 3.937000e+00
      vertex   7.882758e+00 5.080000e+01 3.937000e+00
      vertex   7.882758e+00 2.695105e+01 4.501535e+00
    endloop
  endfacet
  facet normal 1.000000e+00 -0.000000e+00 0.000000e+00
    outer loop
      vertex   7.882758e+00 2.695105e+01 4.501535e+00
      vertex   7.882758e+00 5.080000e+01 3.937000e+00
      vertex   7.882758e+00 4.924895e+01 4.501535e+00
    endloop
  endfacet
  facet normal 1.000000e+00 0.000000e+00 0.000000e+00
    outer loop
      vertex   7.882758e+00 2.695105e+01 4.501535e+00
      vertex   7.882758e+00 4.924895e+01 4.501535e+00
      vertex   7.882758e+00 4.842366e+01 5.930987e+00
    endloop
  endfacet
  facet normal 1.000000e+00 0.000000e+00 0.000000e+00
    outer loop
      vertex   7.882758e+00 2.384895e+01 4.501535e+00
      vertex   7.882758e+00 2.302366e+01 5.930987e+00
      vertex   7.882758e+00 3.175000e+00 -1.270000e+01
    endloop
  endfacet
  facet normal 1.000000e+00 0.000000e+00 0.000000e+00
    outer loop
      vertex   7.882758e+00 3.175000e+00 -1.270000e+01
      vertex   7.882758e+00 2.302366e+01 5.930987e+00
      vertex   7.882758e+00 2.331028e+01 7.556500e+00
    endloop
  endfacet
  facet normal 1.000000e+00 0.000000e+00 0.000000e+00
    outer loop
      vertex   7.882758e+00 3.175000e+00 -1.270000e+01
      vertex   7.882758e+00 2.331028e+01 7.556500e+00
      vertex   7.882758e+00 1.550057e+01 4.053224e+01
    endloop
  endfacet
  facet normal 1.000000e+00 0.000000e+00 0.000000e+00
    outer loop
      vertex   7.882758e+00 1.550057e+01 4.053224e+01
      vertex   7.882758e+00 2.331028e+01 7.556500e+00
      vertex   7.882758e+00 1.781446e+01 3.859066e+01
    endloop
  endfacet
  facet normal 1.000000e+00 0.000000e+00 0.000000e+00
    outer loop
      vertex   7.882758e+00 1.781446e+01 3.859066e+01
      vertex   7.882758e+00 2.331028e+01 7.556500e+00
      vertex   7.882758e+00 2.457471e+01 8.617478e+00
    endloop
  endfacet
  facet normal 1.000000e+00 -0.000000e+00 0.000000e+00
    outer loop
      vertex   7.882758e+00 1.781446e+01 3.859066e+01
      vertex   7.882758e+00 2.457471e+01 8.617478e+00
      vertex   7.882758e+00 2.083502e+01 3.859066e+01
    endloop
  endfacet
  facet normal 1.000000e+00 0.000000e+00 0.000000e+00
    outer loop
      vertex   7.882758e+00 2.083502e+01 3.859066e+01
      vertex   7.882758e+00 2.457471e+01 8.617478e+00
      vertex   7.882758e+00 2.622530e+01 8.617478e+00
    endloop
  endfacet
  facet normal 1.000000e+00 0.000000e+00 0.000000e+00
    outer loop
      vertex   7.882758e+00 2.083502e+01 3.859066e+01
      vertex   7.882758e+00 2.622530e+01 8.617478e+00
      vertex   7.882758e+00 4.077377e+01 3.832290e+01
    endloop
  endfacet
  facet normal 1.000000e+00 0.000000e+00 0.000000e+00
    outer loop
      vertex   7.882758e+00 4.077377e+01 3.832290e+01
      vertex   7.882758e+00 2.622530e+01 8.617478e+00
      vertex   7.882758e+00 4.997470e+01 8.617478e+00
    endloop
  endfacet
  facet normal 1.000000e+00 -0.000000e+00 0.000000e+00
    outer loop
      vertex   7.882758e+00 4.077377e+01 3.832290e+01
      vertex   7.882758e+00 4.997470e+01 8.617478e+00
      vertex   7.882758e+00 5.260616e+01 3.832290e+01
    endloop
  endfacet
  facet normal 1.000000e+00 0.000000e+00 0.000000e+00
    outer loop
      vertex   7.882758e+00 5.260616e+01 3.832290e+01
      vertex   7.882758e+00 4.997470e+01 8.617478e+00
      vertex   7.882758e+00 5.162529e+01 8.617478e+00
    endloop
  endfacet
  facet normal 1.000000e+00 -0.000000e+00 0.000000e+00
    outer loop
      vertex   7.882758e+00 2.622530e+01 8.617478e+00
      vertex   7.882758e+00 2.748972e+01 7.556500e+00
      vertex   7.882758e+00 4.997470e+01 8.617478e+00
    endloop
  endfacet
  facet normal 1.000000e+00 0.000000e+00 0.000000e+00
    outer loop
      vertex   7.882758e+00 4.997470e+01 8.617478e+00
      vertex   7.882758e+00 2.748972e+01 7.556500e+00
      vertex   7.882758e+00 4.871028e+01 7.556500e+00
    endloop
  endfacet
  facet normal 1.000000e+00 0.000000e+00 0.000000e+00
    outer loop
      vertex   7.882758e+00 4.871028e+01 7.556500e+00
      vertex   7.882758e+00 2.748972e+01 7.556500e+00
      vertex   7.882758e+00 2.777634e+01 5.930987e+00
    endloop
  endfacet
  facet normal 1.000000e+00 0.000000e+00 0.000000e+00
    outer loop
      vertex   7.882758e+00 4.871028e+01 7.556500e+00
      vertex   7.882758e+00 2.777634e+01 5.930987e+00
      vertex   7.882758e+00 4.842366e+01 5.930987e+00
    endloop
  endfacet
  facet normal 1.000000e+00 0.000000e+00 0.000000e+00
    outer loop
      vertex   7.882758e+00 4.842366e+01 5.930987e+00
      vertex   7.882758e+00 2.777634e+01 5.930987e+00
      vertex   7.882758e+00 2.695105e+01 4.501535e+00
    endloop
  endfacet
  facet normal 1.000000e+00 0.000000e+00 -0.000000e+00
    outer loop
      vertex   7.882758e+00 5.260616e+01 3.832290e+01
      vertex   7.882758e+00 9.842500e+01 6.032500e+01
      vertex   7.882758e+00 4.668996e+01 4.857005e+01
    endloop
  endfacet
  facet normal 1.000000e+00 0.000000e+00 -0.000000e+00
    outer loop
      vertex   7.882758e+00 4.668996e+01 4.857005e+01
      vertex   7.882758e+00 9.842500e+01 6.032500e+01
      vertex   7.882758e+00 3.175000e+00 6.032500e+01
    endloop
  endfacet
  facet normal 1.000000e+00 0.000000e+00 0.000000e+00
    outer loop
      vertex   7.882758e+00 4.668996e+01 4.857005e+01
      vertex   7.882758e+00 3.175000e+00 6.032500e+01
      vertex   7.882758e+00 1.932474e+01 4.715589e+01
    endloop
  endfacet
  facet normal 1.000000e+00 0.000000e+00 0.000000e+00
    outer loop
      vertex   7.882758e+00 1.932474e+01 4.715589e+01
      vertex   7.882758e+00 3.175000e+00 6.032500e+01
      vertex   7.882758e+00 1.648634e+01 4.612279e+01
    endloop
  endfacet
  facet normal 1.000000e+00 0.000000e+00 0.000000e+00
    outer loop
      vertex   7.882758e+00 1.648634e+01 4.612279e+01
      vertex   7.882758e+00 3.175000e+00 6.032500e+01
      vertex   7.882758e+00 1.497606e+01 4.350691e+01
    endloop
  endfacet
  facet normal 1.000000e+00 0.000000e+00 0.000000e+00
    outer loop
      vertex   7.882758e+00 1.497606e+01 4.350691e+01
      vertex   7.882758e+00 3.175000e+00 6.032500e+01
      vertex   7.882758e+00 1.550057e+01 4.053224e+01
    endloop
  endfacet
  facet normal 1.000000e+00 0.000000e+00 0.000000e+00
    outer loop
      vertex   7.882758e+00 1.550057e+01 4.053224e+01
      vertex   7.882758e+00 3.175000e+00 6.032500e+01
      vertex   7.882758e+00 3.175000e+00 -1.270000e+01
    endloop
  endfacet
  facet normal 1.000000e+00 0.000000e+00 0.000000e+00
    outer loop
      vertex   7.882758e+00 4.668996e+01 4.857005e+01
      vertex   7.882758e+00 2.367342e+01 4.350691e+01
      vertex   7.882758e+00 4.077377e+01 3.832290e+01
    endloop
  endfacet
  facet normal 1.000000e+00 0.000000e+00 0.000000e+00
    outer loop
      vertex   7.882758e+00 4.077377e+01 3.832290e+01
      vertex   7.882758e+00 2.367342e+01 4.350691e+01
      vertex   7.882758e+00 2.314890e+01 4.053224e+01
    endloop
  endfacet
  facet normal 1.000000e+00 0.000000e+00 0.000000e+00
    outer loop
      vertex   7.882758e+00 4.077377e+01 3.832290e+01
      vertex   7.882758e+00 2.314890e+01 4.053224e+01
      vertex   7.882758e+00 2.083502e+01 3.859066e+01
    endloop
  endfacet
  facet normal 1.000000e+00 -0.000000e+00 0.000000e+00
    outer loop
      vertex   7.882758e+00 1.932474e+01 4.715589e+01
      vertex   7.882758e+00 2.216314e+01 4.612279e+01
      vertex   7.882758e+00 4.668996e+01 4.857005e+01
    endloop
  endfacet
  facet normal 1.000000e+00 0.000000e+00 0.000000e+00
    outer loop
      vertex   7.882758e+00 4.668996e+01 4.857005e+01
      vertex   7.882758e+00 2.216314e+01 4.612279e+01
      vertex   7.882758e+00 2.367342e+01 4.350691e+01
    endloop
  endfacet
  facet normal 1.000000e+00 0.000000e+00 0.000000e+00
    outer loop
      vertex   7.882758e+00 3.175000e+00 -1.270000e+01
      vertex   7.882758e+00 9.842500e+01 -1.270000e+01
      vertex   7.882758e+00 5.080000e+01 3.937000e+00
    endloop
  endfacet
  facet normal -3.489949e-02 -0.000000e+00 -9.993908e-01
    outer loop
      vertex   -1.065924e+01 9.842500e+01 -1.205250e+01
      vertex   7.882758e+00 9.842500e+01 -1.270000e+01
      vertex   -1.065924e+01 3.175000e+00 -1.205250e+01
    endloop
  endfacet
  facet normal -3.489949e-02 0.000000e+00 -9.993908e-01
    outer loop
      vertex   -1.065924e+01 3.175000e+00 -1.205250e+01
      vertex   7.882758e+00 9.842500e+01 -1.270000e+01
      vertex   7.882758e+00 3.175000e+00 -1.270000e+01
    endloop
  endfacet
  facet normal -1.000000e+00 -0.000000e+00 -0.000000e+00
    outer loop
      vertex   -1.065924e+01 9.842500e+01 -6.350000e+00
      vertex   -1.065924e+01 9.842500e+01 -1.205250e+01
      vertex   -1.065924e+01 3.175000e+00 -6.350000e+00
    endloop
  endfacet
  facet normal -1.000000e+00 0.000000e+00 0.000000e+00
    outer loop
      vertex   -1.065924e+01 3.175000e+00 -6.350000e+00
      vertex   -1.065924e+01 9.842500e+01 -1.205250e+01
      vertex   -1.065924e+01 3.175000e+00 -1.205250e+01
    endloop
  endfacet
  facet normal -3.489930e-02 0.000000e+00 9.993908e-01
    outer loop
      vertex   7.882758e+00 9.842500e+01 6.032500e+01
      vertex   -1.065924e+01 9.842500e+01 5.967750e+01
      vertex   7.882758e+00 3.175000e+00 6.032500e+01
    endloop
  endfacet
  facet normal -3.489930e-02 0.000000e+00 9.993908e-01
    outer loop
      vertex   7.882758e+00 3.175000e+00 6.032500e+01
      vertex   -1.065924e+01 9.842500e+01 5.967750e+01
      vertex   -1.065924e+01 3.175000e+00 5.967750e+01
    endloop
  endfacet
  facet normal 0.000000e+00 0.000000e+00 1.000000e+00
    outer loop
      vertex   7.390086e-01 9.842500e+01 -6.350000e+00
      vertex   -1.065924e+01 9.842500e+01 -6.350000e+00
      vertex   7.390086e-01 3.175000e+00 -6.350000e+00
    endloop
  endfacet
  facet normal 0.000000e+00 0.000000e+00 1.000000e+00
    outer loop
      vertex   7.390086e-01 3.175000e+00 -6.350000e+00
      vertex   -1.065924e+01 9.842500e+01 -6.350000e+00
      vertex   -1.065924e+01 3.175000e+00 -6.350000e+00
    endloop
  endfacet
  facet normal -1.000000e+00 0.000000e+00 0.000000e+00
    outer loop
      vertex   7.390086e-01 9.842500e+01 -6.350000e+00
      vertex   7.390086e-01 7.857634e+01 6.769013e+00
      vertex   7.390086e-01 9.842500e+01 1.905000e+01
    endloop
  endfacet
  facet normal -1.000000e+00 0.000000e+00 0.000000e+00
    outer loop
      vertex   7.390086e-01 9.842500e+01 1.905000e+01
      vertex   7.390086e-01 7.857634e+01 6.769013e+00
      vertex   7.390086e-01 7.775105e+01 8.198465e+00
    endloop
  endfacet
  facet normal -1.000000e+00 0.000000e+00 0.000000e+00
    outer loop
      vertex   7.390086e-01 9.842500e+01 1.905000e+01
      vertex   7.390086e-01 7.775105e+01 8.198465e+00
      vertex   7.390086e-01 7.620000e+01 8.763000e+00
    endloop
  endfacet
  facet normal -1.000000e+00 0.000000e+00 0.000000e+00
    outer loop
      vertex   7.390086e-01 3.175000e+00 -6.350000e+00
      vertex   7.390086e-01 5.162529e+01 4.082522e+00
      vertex   7.390086e-01 9.842500e+01 -6.350000e+00
    endloop
  endfacet
  facet normal -1.000000e+00 0.000000e+00 0.000000e+00
    outer loop
      vertex   7.390086e-01 9.842500e+01 -6.350000e+00
      vertex   7.390086e-01 5.162529e+01 4.082522e+00
      vertex   7.390086e-01 7.537470e+01 4.082522e+00
    endloop
  endfacet
  facet normal -1.000000e+00 0.000000e+00 0.000000e+00
    outer loop
      vertex   7.390086e-01 9.842500e+01 -6.350000e+00
      vertex   7.390086e-01 7.537470e+01 4.082522e+00
      vertex   7.390086e-01 7.702529e+01 4.082522e+00
    endloop
  endfacet
  facet normal -1.000000e+00 0.000000e+00 0.000000e+00
    outer loop
      vertex   7.390086e-01 3.175000e+00 1.905000e+01
      vertex   7.390086e-01 2.302366e+01 6.769013e+00
      vertex   7.390086e-01 3.175000e+00 -6.350000e+00
    endloop
  endfacet
  facet normal -1.000000e+00 0.000000e+00 0.000000e+00
    outer loop
      vertex   7.390086e-01 3.175000e+00 -6.350000e+00
      vertex   7.390086e-01 2.302366e+01 6.769013e+00
      vertex   7.390086e-01 2.331028e+01 5.143500e+00
    endloop
  endfacet
  facet normal -1.000000e+00 0.000000e+00 0.000000e+00
    outer loop
      vertex   7.390086e-01 3.175000e+00 -6.350000e+00
      vertex   7.390086e-01 2.331028e+01 5.143500e+00
      vertex   7.390086e-01 2.457471e+01 4.082522e+00
    endloop
  endfacet
  facet normal -1.000000e+00 -0.000000e+00 0.000000e+00
    outer loop
      vertex   7.390086e-01 9.842500e+01 1.905000e+01
      vertex   7.390086e-01 5.080000e+01 8.763000e+00
      vertex   7.390086e-01 3.175000e+00 1.905000e+01
    endloop
  endfacet
  facet normal -1.000000e+00 0.000000e+00 0.000000e+00
    outer loop
      vertex   7.390086e-01 3.175000e+00 1.905000e+01
      vertex   7.390086e-01 5.080000e+01 8.763000e+00
      vertex   7.390086e-01 2.540000e+01 8.763000e+00
    endloop
  endfacet
  facet normal -1.000000e+00 0.000000e+00 0.000000e+00
    outer loop
      vertex   7.390086e-01 3.175000e+00 1.905000e+01
      vertex   7.390086e-01 2.540000e+01 8.763000e+00
      vertex   7.390086e-01 2.384895e+01 8.198465e+00
    endloop
  endfacet
  facet normal -1.000000e+00 -0.000000e+00 0.000000e+00
    outer loop
      vertex   7.390086e-01 2.384895e+01 8.198465e+00
      vertex   7.390086e-01 2.302366e+01 6.769013e+00
      vertex   7.390086e-01 3.175000e+00 1.905000e+01
    endloop
  endfacet
  facet normal -1.000000e+00 0.000000e+00 -0.000000e+00
    outer loop
      vertex   7.390086e-01 2.457471e+01 4.082522e+00
      vertex   7.390086e-01 2.622530e+01 4.082522e+00
      vertex   7.390086e-01 3.175000e+00 -6.350000e+00
    endloop
  endfacet
  facet normal -1.000000e+00 0.000000e+00 0.000000e+00
    outer loop
      vertex   7.390086e-01 3.175000e+00 -6.350000e+00
      vertex   7.390086e-01 2.622530e+01 4.082522e+00
      vertex   7.390086e-01 4.997470e+01 4.082522e+00
    endloop
  endfacet
  facet normal -1.000000e+00 0.000000e+00 0.000000e+00
    outer loop
      vertex   7.390086e-01 3.175000e+00 -6.350000e+00
      vertex   7.390086e-01 4.997470e+01 4.082522e+00
      vertex   7.390086e-01 5.162529e+01 4.082522e+00
    endloop
  endfacet
  facet normal -1.000000e+00 0.000000e+00 0.000000e+00
    outer loop
      vertex   7.390086e-01 4.997470e+01 4.082522e+00
      vertex   7.390086e-01 2.622530e+01 4.082522e+00
      vertex   7.390086e-01 4.871028e+01 5.143500e+00
    endloop
  endfacet
  facet normal -1.000000e+00 -0.000000e+00 0.000000e+00
    outer loop
      vertex   7.390086e-01 4.871028e+01 5.143500e+00
      vertex   7.390086e-01 2.622530e+01 4.082522e+00
      vertex   7.390086e-01 2.748972e+01 5.143500e+00
    endloop
  endfacet
  facet normal -1.000000e+00 0.000000e+00 0.000000e+00
    outer loop
      vertex   7.390086e-01 4.871028e+01 5.143500e+00
      vertex   7.390086e-01 2.748972e+01 5.143500e+00
      vertex   7.390086e-01 4.842366e+01 6.769013e+00
    endloop
  endfacet
  facet normal -1.000000e+00 -0.000000e+00 0.000000e+00
    outer loop
      vertex   7.390086e-01 4.842366e+01 6.769013e+00
      vertex   7.390086e-01 2.748972e+01 5.143500e+00
      vertex   7.390086e-01 2.777634e+01 6.769013e+00
    endloop
  endfacet
  facet normal -1.000000e+00 0.000000e+00 0.000000e+00
    outer loop
      vertex   7.390086e-01 4.842366e+01 6.769013e+00
      vertex   7.390086e-01 2.777634e+01 6.769013e+00
      vertex   7.390086e-01 2.695105e+01 8.198465e+00
    endloop
  endfacet
  facet normal -1.000000e+00 0.000000e+00 0.000000e+00
    outer loop
      vertex   7.390086e-01 2.540000e+01 8.763000e+00
      vertex   7.390086e-01 5.080000e+01 8.763000e+00
      vertex   7.390086e-01 2.695105e+01 8.198465e+00
    endloop
  endfacet
  facet normal -1.000000e+00 0.000000e+00 0.000000e+00
    outer loop
      vertex   7.390086e-01 2.695105e+01 8.198465e+00
      vertex   7.390086e-01 5.080000e+01 8.763000e+00
      vertex   7.390086e-01 4.924895e+01 8.198465e+00
    endloop
  endfacet
  facet normal -1.000000e+00 0.000000e+00 0.000000e+00
    outer loop
      vertex   7.390086e-01 2.695105e+01 8.198465e+00
      vertex   7.390086e-01 4.924895e+01 8.198465e+00
      vertex   7.390086e-01 4.842366e+01 6.769013e+00
    endloop
  endfacet
  facet normal -1.000000e+00 0.000000e+00 0.000000e+00
    outer loop
      vertex   7.390086e-01 7.537470e+01 4.082522e+00
      vertex   7.390086e-01 5.162529e+01 4.082522e+00
      vertex   7.390086e-01 7.411028e+01 5.143500e+00
    endloop
  endfacet
  facet normal -1.000000e+00 -0.000000e+00 0.000000e+00
    outer loop
      vertex   7.390086e-01 7.411028e+01 5.143500e+00
      vertex   7.390086e-01 5.162529e+01 4.082522e+00
      vertex   7.390086e-01 5.288972e+01 5.143500e+00
    endloop
  endfacet
  facet normal -1.000000e+00 0.000000e+00 0.000000e+00
    outer loop
      vertex   7.390086e-01 7.411028e+01 5.143500e+00
      vertex   7.390086e-01 5.288972e+01 5.143500e+00
      vertex   7.390086e-01 7.382366e+01 6.769013e+00
    endloop
  endfacet
  facet normal -1.000000e+00 -0.000000e+00 0.000000e+00
    outer loop
      vertex   7.390086e-01 7.382366e+01 6.769013e+00
      vertex   7.390086e-01 5.288972e+01 5.143500e+00
      vertex   7.390086e-01 5.317634e+01 6.769013e+00
    endloop
  endfacet
  facet normal -1.000000e+00 0.000000e+00 0.000000e+00
    outer loop
      vertex   7.390086e-01 7.382366e+01 6.769013e+00
      vertex   7.390086e-01 5.317634e+01 6.769013e+00
      vertex   7.390086e-01 5.235105e+01 8.198465e+00
    endloop
  endfacet
  facet normal -1.000000e+00 0.000000e+00 0.000000e+00
    outer loop
      vertex   7.390086e-01 7.382366e+01 6.769013e+00
      vertex   7.390086e-01 5.235105e+01 8.198465e+00
      vertex   7.390086e-01 7.464895e+01 8.198465e+00
    endloop
  endfacet
  facet normal -1.000000e+00 0.000000e+00 0.000000e+00
    outer loop
      vertex   7.390086e-01 7.464895e+01 8.198465e+00
      vertex   7.390086e-01 5.235105e+01 8.198465e+00
      vertex   7.390086e-01 5.080000e+01 8.763000e+00
    endloop
  endfacet
  facet normal -1.000000e+00 0.000000e+00 0.000000e+00
    outer loop
      vertex   7.390086e-01 7.464895e+01 8.198465e+00
      vertex   7.390086e-01 5.080000e+01 8.763000e+00
      vertex   7.390086e-01 7.620000e+01 8.763000e+00
    endloop
  endfacet
  facet normal -1.000000e+00 0.000000e+00 0.000000e+00
    outer loop
      vertex   7.390086e-01 7.620000e+01 8.763000e+00
      vertex   7.390086e-01 5.080000e+01 8.763000e+00
      vertex   7.390086e-01 9.842500e+01 1.905000e+01
    endloop
  endfacet
  facet normal -1.000000e+00 0.000000e+00 0.000000e+00
    outer loop
      vertex   7.390086e-01 7.702529e+01 4.082522e+00
      vertex   7.390086e-01 7.828972e+01 5.143500e+00
      vertex   7.390086e-01 9.842500e+01 -6.350000e+00
    endloop
  endfacet
  facet normal -1.000000e+00 0.000000e+00 0.000000e+00
    outer loop
      vertex   7.390086e-01 9.842500e+01 -6.350000e+00
      vertex   7.390086e-01 7.828972e+01 5.143500e+00
      vertex   7.390086e-01 7.857634e+01 6.769013e+00
    endloop
  endfacet
  facet normal 0.000000e+00 3.420211e-01 -9.396923e-01
    outer loop
      vertex   7.882758e+00 1.648634e+01 4.612279e+01
      vertex   1.532759e+00 1.648634e+01 4.612279e+01
      vertex   7.882758e+00 1.932474e+01 4.715589e+01
    endloop
  endfacet
  facet normal 0.000000e+00 3.420211e-01 -9.396923e-01
    outer loop
      vertex   7.882758e+00 1.932474e+01 4.715589e+01
      vertex   1.532759e+00 1.648634e+01 4.612279e+01
      vertex   1.532759e+00 1.932474e+01 4.715589e+01
    endloop
  endfacet
  facet normal -0.000000e+00 -3.420210e-01 -9.396923e-01
    outer loop
      vertex   7.882758e+00 1.932474e+01 4.715589e+01
      vertex   1.532759e+00 1.932474e+01 4.715589e+01
      vertex   7.882758e+00 2.216314e+01 4.612279e+01
    endloop
  endfacet
  facet normal -0.000000e+00 -3.420210e-01 -9.396923e-01
    outer loop
      vertex   7.882758e+00 2.216314e+01 4.612279e+01
      vertex   1.532759e+00 1.932474e+01 4.715589e+01
      vertex   1.532759e+00 2.216314e+01 4.612279e+01
    endloop
  endfacet
  facet normal -0.000000e+00 -8.660251e-01 -5.000005e-01
    outer loop
      vertex   7.882758e+00 2.216314e+01 4.612279e+01
      vertex   1.532759e+00 2.216314e+01 4.612279e+01
      vertex   7.882758e+00 2.367342e+01 4.350691e+01
    endloop
  endfacet
  facet normal -0.000000e+00 -8.660251e-01 -5.000005e-01
    outer loop
      vertex   7.882758e+00 2.367342e+01 4.350691e+01
      vertex   1.532759e+00 2.216314e+01 4.612279e+01
      vertex   1.532759e+00 2.367342e+01 4.350691e+01
    endloop
  endfacet
  facet normal 0.000000e+00 -9.848077e-01 1.736485e-01
    outer loop
      vertex   7.882758e+00 2.367342e+01 4.350691e+01
      vertex   1.532759e+00 2.367342e+01 4.350691e+01
      vertex   7.882758e+00 2.314890e+01 4.053224e+01
    endloop
  endfacet
  facet normal 0.000000e+00 -9.848077e-01 1.736485e-01
    outer loop
      vertex   7.882758e+00 2.314890e+01 4.053224e+01
      vertex   1.532759e+00 2.367342e+01 4.350691e+01
      vertex   1.532759e+00 2.314890e+01 4.053224e+01
    endloop
  endfacet
  facet normal 0.000000e+00 -6.427876e-01 7.660444e-01
    outer loop
      vertex   7.882758e+00 2.314890e+01 4.053224e+01
      vertex   1.532759e+00 2.314890e+01 4.053224e+01
      vertex   7.882758e+00 2.083502e+01 3.859066e+01
    endloop
  endfacet
  facet normal 0.000000e+00 -6.427876e-01 7.660444e-01
    outer loop
      vertex   7.882758e+00 2.083502e+01 3.859066e+01
      vertex   1.532759e+00 2.314890e+01 4.053224e+01
      vertex   1.532759e+00 2.083502e+01 3.859066e+01
    endloop
  endfacet
  facet normal 0.000000e+00 0.000000e+00 1.000000e+00
    outer loop
      vertex   7.882758e+00 2.083502e+01 3.859066e+01
      vertex   1.532759e+00 2.083502e+01 3.859066e+01
      vertex   7.882758e+00 1.781446e+01 3.859066e+01
    endloop
  endfacet
  facet normal 0.000000e+00 0.000000e+00 1.000000e+00
    outer loop
      vertex   7.882758e+00 1.781446e+01 3.859066e+01
      vertex   1.532759e+00 2.083502e+01 3.859066e+01
      vertex   1.532759e+00 1.781446e+01 3.859066e+01
    endloop
  endfacet
  facet normal 0.000000e+00 6.427878e-01 7.660443e-01
    outer loop
      vertex   7.882758e+00 1.781446e+01 3.859066e+01
      vertex   1.532759e+00 1.781446e+01 3.859066e+01
      vertex   7.882758e+00 1.550057e+01 4.053224e+01
    endloop
  endfacet
  facet normal 0.000000e+00 6.427878e-01 7.660443e-01
    outer loop
      vertex   7.882758e+00 1.550057e+01 4.053224e+01
      vertex   1.532759e+00 1.781446e+01 3.859066e+01
      vertex   1.532759e+00 1.550057e+01 4.053224e+01
    endloop
  endfacet
  facet normal 0.000000e+00 9.848078e-01 1.736482e-01
    outer loop
      vertex   7.882758e+00 1.550057e+01 4.053224e+01
      vertex   1.532759e+00 1.550057e+01 4.053224e+01
      vertex   7.882758e+00 1.497606e+01 4.350691e+01
    endloop
  endfacet
  facet normal 0.000000e+00 9.848078e-01 1.736482e-01
    outer loop
      vertex   7.882758e+00 1.497606e+01 4.350691e+01
      vertex   1.532759e+00 1.550057e+01 4.053224e+01
      vertex   1.532759e+00 1.497606e+01 4.350691e+01
    endloop
  endfacet
  facet normal 0.000000e+00 8.660251e-01 -5.000005e-01
    outer loop
      vertex   7.882758e+00 1.497606e+01 4.350691e+01
      vertex   1.532759e+00 1.497606e+01 4.350691e+01
      vertex   7.882758e+00 1.648634e+01 4.612279e+01
    endloop
  endfacet
  facet normal 0.000000e+00 8.660251e-01 -5.000005e-01
    outer loop
      vertex   7.882758e+00 1.648634e+01 4.612279e+01
      vertex   1.532759e+00 1.497606e+01 4.350691e+01
      vertex   1.532759e+00 1.648634e+01 4.612279e+01
    endloop
  endfacet
  facet normal 0.000000e+00 8.660255e-01 -4.999998e-01
    outer loop
      vertex   7.882758e+00 4.668996e+01 4.857005e+01
      vertex   7.882758e+00 4.077377e+01 3.832290e+01
      vertex   1.532759e+00 4.668996e+01 4.857005e+01
    endloop
  endfacet
  facet normal 0.000000e+00 8.660255e-01 -4.999998e-01
    outer loop
      vertex   1.532759e+00 4.668996e+01 4.857005e+01
      vertex   7.882758e+00 4.077377e+01 3.832290e+01
      vertex   1.532759e+00 4.077377e+01 3.832290e+01
    endloop
  endfacet
  facet normal -0.000000e+00 -8.660253e-01 -5.000001e-01
    outer loop
      vertex   7.882758e+00 5.260616e+01 3.832290e+01
      vertex   7.882758e+00 4.668996e+01 4.857005e+01
      vertex   1.532759e+00 5.260616e+01 3.832290e+01
    endloop
  endfacet
  facet normal 0.000000e+00 -8.660253e-01 -5.000001e-01
    outer loop
      vertex   1.532759e+00 5.260616e+01 3.832290e+01
      vertex   7.882758e+00 4.668996e+01 4.857005e+01
      vertex   1.532759e+00 4.668996e+01 4.857005e+01
    endloop
  endfacet
  facet normal 0.000000e+00 -0.000000e+00 1.000000e+00
    outer loop
      vertex   7.882758e+00 4.077377e+01 3.832290e+01
      vertex   7.882758e+00 5.260616e+01 3.832290e+01
      vertex   1.532759e+00 4.077377e+01 3.832290e+01
    endloop
  endfacet
  facet normal 0.000000e+00 0.000000e+00 1.000000e+00
    outer loop
      vertex   1.532759e+00 4.077377e+01 3.832290e+01
      vertex   7.882758e+00 5.260616e+01 3.832290e+01
      vertex   1.532759e+00 5.260616e+01 3.832290e+01
    endloop
  endfacet
  facet normal 0.000000e+00 0.000000e+00 -1.000000e+00
    outer loop
      vertex   -1.065924e+01 9.842500e+01 1.905000e+01
      vertex   7.390086e-01 9.842500e+01 1.905000e+01
      vertex   -1.065924e+01 3.175000e+00 1.905000e+01
    endloop
  endfacet
  facet normal 0.000000e+00 0.000000e+00 -1.000000e+00
    outer loop
      vertex   -1.065924e+01 3.175000e+00 1.905000e+01
      vertex   7.390086e-01 9.842500e+01 1.905000e+01
      vertex   7.390086e-01 3.175000e+00 1.905000e+01
    endloop
  endfacet
  facet normal -1.000000e+00 -0.000000e+00 -0.000000e+00
    outer loop
      vertex   -1.065924e+01 9.842500e+01 5.967750e+01
      vertex   -1.065924e+01 9.842500e+01 5.503575e+01
      vertex   -1.065924e+01 3.175000e+00 5.967750e+01
    endloop
  endfacet
  facet normal -1.000000e+00 0.000000e+00 0.000000e+00
    outer loop
      vertex   -1.065924e+01 3.175000e+00 5.967750e+01
      vertex   -1.065924e+01 9.842500e+01 5.503575e+01
      vertex   -1.065924e+01 3.175000e+00 5.503575e+01
    endloop
  endfacet
  facet normal -3.489946e-02 -0.000000e+00 -9.993908e-01
    outer loop
      vertex   -1.065924e+01 9.842500e+01 5.503575e+01
      vertex   1.532759e+00 9.842500e+01 5.461000e+01
      vertex   -1.065924e+01 3.175000e+00 5.503575e+01
    endloop
  endfacet
  facet normal -3.489946e-02 0.000000e+00 -9.993908e-01
    outer loop
      vertex   -1.065924e+01 3.175000e+00 5.503575e+01
      vertex   1.532759e+00 9.842500e+01 5.461000e+01
      vertex   1.532759e+00 3.175000e+00 5.461000e+01
    endloop
  endfacet
  facet normal -3.489966e-02 0.000000e+00 9.993908e-01
    outer loop
      vertex   1.532759e+00 9.842500e+01 2.857500e+01
      vertex   -1.065924e+01 9.842500e+01 2.814924e+01
      vertex   1.532759e+00 3.175000e+00 2.857500e+01
    endloop
  endfacet
  facet normal -3.489966e-02 0.000000e+00 9.993908e-01
    outer loop
      vertex   1.532759e+00 3.175000e+00 2.857500e+01
      vertex   -1.065924e+01 9.842500e+01 2.814924e+01
      vertex   -1.065924e+01 3.175000e+00 2.814924e+01
    endloop
  endfacet
  facet normal 2.036630e-02 -3.419492e-01 -9.394977e-01
    outer loop
      vertex   7.390086e-01 5.235105e+01 8.198465e+00
      vertex   7.882758e+00 5.162529e+01 8.617478e+00
      vertex   7.390086e-01 5.080000e+01 8.763000e+00
    endloop
  endfacet
  facet normal -2.036628e-02 0.000000e+00 -9.997926e-01
    outer loop
      vertex   7.390086e-01 5.080000e+01 8.763000e+00
      vertex   7.882758e+00 5.162529e+01 8.617478e+00
      vertex   7.882758e+00 4.997470e+01 8.617478e+00
    endloop
  endfacet
  facet normal 2.036630e-02 3.419492e-01 -9.394977e-01
    outer loop
      vertex   7.390086e-01 5.080000e+01 8.763000e+00
      vertex   7.882758e+00 4.997470e+01 8.617478e+00
      vertex   7.390086e-01 4.924895e+01 8.198465e+00
    endloop
  endfacet
  facet normal -2.036621e-02 6.426544e-01 -7.658855e-01
    outer loop
      vertex   7.390086e-01 4.924895e+01 8.198465e+00
      vertex   7.882758e+00 4.997470e+01 8.617478e+00
      vertex   7.882758e+00 4.871028e+01 7.556500e+00
    endloop
  endfacet
  facet normal 2.036629e-02 8.658456e-01 -4.998966e-01
    outer loop
      vertex   7.390086e-01 4.924895e+01 8.198465e+00
      vertex   7.882758e+00 4.871028e+01 7.556500e+00
      vertex   7.390086e-01 4.842366e+01 6.769013e+00
    endloop
  endfacet
  facet normal -2.036628e-02 9.846035e-01 -1.736123e-01
    outer loop
      vertex   7.390086e-01 4.842366e+01 6.769013e+00
      vertex   7.882758e+00 4.871028e+01 7.556500e+00
      vertex   7.882758e+00 4.842366e+01 5.930987e+00
    endloop
  endfacet
  facet normal 2.036628e-02 9.846035e-01 1.736123e-01
    outer loop
      vertex   7.390086e-01 4.842366e+01 6.769013e+00
      vertex   7.882758e+00 4.842366e+01 5.930987e+00
      vertex   7.390086e-01 4.871028e+01 5.143500e+00
    endloop
  endfacet
  facet normal -2.036629e-02 8.658456e-01 4.998966e-01
    outer loop
      vertex   7.390086e-01 4.871028e+01 5.143500e+00
      vertex   7.882758e+00 4.842366e+01 5.930987e+00
      vertex   7.882758e+00 4.924895e+01 4.501535e+00
    endloop
  endfacet
  facet normal 2.036621e-02 6.426544e-01 7.658855e-01
    outer loop
      vertex   7.390086e-01 4.871028e+01 5.143500e+00
      vertex   7.882758e+00 4.924895e+01 4.501535e+00
      vertex   7.390086e-01 4.997470e+01 4.082522e+00
    endloop
  endfacet
  facet normal -2.036630e-02 3.419492e-01 9.394977e-01
    outer loop
      vertex   7.390086e-01 4.997470e+01 4.082522e+00
      vertex   7.882758e+00 4.924895e+01 4.501535e+00
      vertex   7.882758e+00 5.080000e+01 3.937000e+00
    endloop
  endfacet
  facet normal 2.036628e-02 -0.000000e+00 9.997926e-01
    outer loop
      vertex   7.390086e-01 4.997470e+01 4.082522e+00
      vertex   7.882758e+00 5.080000e+01 3.937000e+00
      vertex   7.390086e-01 5.162529e+01 4.082522e+00
    endloop
  endfacet
  facet normal -2.036630e-02 -3.419492e-01 9.394977e-01
    outer loop
      vertex   7.390086e-01 5.162529e+01 4.082522e+00
      vertex   7.882758e+00 5.080000e+01 3.937000e+00
      vertex   7.882758e+00 5.235105e+01 4.501535e+00
    endloop
  endfacet
  facet normal 2.036621e-02 -6.426544e-01 7.658855e-01
    outer loop
      vertex   7.390086e-01 5.162529e+01 4.082522e+00
      vertex   7.882758e+00 5.235105e+01 4.501535e+00
      vertex   7.390086e-01 5.288972e+01 5.143500e+00
    endloop
  endfacet
  facet normal -2.036629e-02 -8.658456e-01 4.998966e-01
    outer loop
      vertex   7.390086e-01 5.288972e+01 5.143500e+00
      vertex   7.882758e+00 5.235105e+01 4.501535e+00
      vertex   7.882758e+00 5.317634e+01 5.930987e+00
    endloop
  endfacet
  facet normal 2.036628e-02 -9.846035e-01 1.736123e-01
    outer loop
      vertex   7.390086e-01 5.288972e+01 5.143500e+00
      vertex   7.882758e+00 5.317634e+01 5.930987e+00
      vertex   7.390086e-01 5.317634e+01 6.769013e+00
    endloop
  endfacet
  facet normal -2.036628e-02 -9.846035e-01 -1.736123e-01
    outer loop
      vertex   7.390086e-01 5.317634e+01 6.769013e+00
      vertex   7.882758e+00 5.317634e+01 5.930987e+00
      vertex   7.882758e+00 5.288972e+01 7.556500e+00
    endloop
  endfacet
  facet normal 2.036629e-02 -8.658456e-01 -4.998966e-01
    outer loop
      vertex   7.390086e-01 5.317634e+01 6.769013e+00
      vertex   7.882758e+00 5.288972e+01 7.556500e+00
      vertex   7.390086e-01 5.235105e+01 8.198465e+00
    endloop
  endfacet
  facet normal -2.036621e-02 -6.426544e-01 -7.658855e-01
    outer loop
      vertex   7.390086e-01 5.235105e+01 8.198465e+00
      vertex   7.882758e+00 5.288972e+01 7.556500e+00
      vertex   7.882758e+00 5.162529e+01 8.617478e+00
    endloop
  endfacet
  facet normal 2.036630e-02 -3.419492e-01 -9.394977e-01
    outer loop
      vertex   7.390086e-01 2.695105e+01 8.198465e+00
      vertex   7.882758e+00 2.622530e+01 8.617478e+00
      vertex   7.390086e-01 2.540000e+01 8.763000e+00
    endloop
  endfacet
  facet normal -2.036628e-02 0.000000e+00 -9.997926e-01
    outer loop
      vertex   7.390086e-01 2.540000e+01 8.763000e+00
      vertex   7.882758e+00 2.622530e+01 8.617478e+00
      vertex   7.882758e+00 2.457471e+01 8.617478e+00
    endloop
  endfacet
  facet normal 2.036618e-02 3.419492e-01 -9.394977e-01
    outer loop
      vertex   7.390086e-01 2.540000e+01 8.763000e+00
      vertex   7.882758e+00 2.457471e+01 8.617478e+00
      vertex   7.390086e-01 2.384895e+01 8.198465e+00
    endloop
  endfacet
  facet normal -2.036631e-02 6.426536e-01 -7.658861e-01
    outer loop
      vertex   7.390086e-01 2.384895e+01 8.198465e+00
      vertex   7.882758e+00 2.457471e+01 8.617478e+00
      vertex   7.882758e+00 2.331028e+01 7.556500e+00
    endloop
  endfacet
  facet normal 2.036629e-02 8.658456e-01 -4.998966e-01
    outer loop
      vertex   7.390086e-01 2.384895e+01 8.198465e+00
      vertex   7.882758e+00 2.331028e+01 7.556500e+00
      vertex   7.390086e-01 2.302366e+01 6.769013e+00
    endloop
  endfacet
  facet normal -2.036628e-02 9.846035e-01 -1.736123e-01
    outer loop
      vertex   7.390086e-01 2.302366e+01 6.769013e+00
      vertex   7.882758e+00 2.331028e+01 7.556500e+00
      vertex   7.882758e+00 2.302366e+01 5.930987e+00
    endloop
  endfacet
  facet normal 2.036628e-02 9.846035e-01 1.736123e-01
    outer loop
      vertex   7.390086e-01 2.302366e+01 6.769013e+00
      vertex   7.882758e+00 2.302366e+01 5.930987e+00
      vertex   7.390086e-01 2.331028e+01 5.143500e+00
    endloop
  endfacet
  facet normal -2.036629e-02 8.658456e-01 4.998966e-01
    outer loop
      vertex   7.390086e-01 2.331028e+01 5.143500e+00
      vertex   7.882758e+00 2.302366e+01 5.930987e+00
      vertex   7.882758e+00 2.384895e+01 4.501535e+00
    endloop
  endfacet
  facet normal 2.036631e-02 6.426536e-01 7.658861e-01
    outer loop
      vertex   7.390086e-01 2.331028e+01 5.143500e+00
      vertex   7.882758e+00 2.384895e+01 4.501535e+00
      vertex   7.390086e-01 2.457471e+01 4.082522e+00
    endloop
  endfacet
  facet normal -2.036618e-02 3.419492e-01 9.394977e-01
    outer loop
      vertex   7.390086e-01 2.457471e+01 4.082522e+00
      vertex   7.882758e+00 2.384895e+01 4.501535e+00
      vertex   7.882758e+00 2.540000e+01 3.937000e+00
    endloop
  endfacet
  facet normal 2.036628e-02 -0.000000e+00 9.997926e-01
    outer loop
      vertex   7.390086e-01 2.457471e+01 4.082522e+00
      vertex   7.882758e+00 2.540000e+01 3.937000e+00
      vertex   7.390086e-01 2.622530e+01 4.082522e+00
    endloop
  endfacet
  facet normal -2.036630e-02 -3.419492e-01 9.394977e-01
    outer loop
      vertex   7.390086e-01 2.622530e+01 4.082522e+00
      vertex   7.882758e+00 2.540000e+01 3.937000e+00
      vertex   7.882758e+00 2.695105e+01 4.501535e+00
    endloop
  endfacet
  facet normal 2.036621e-02 -6.426544e-01 7.658855e-01
    outer loop
      vertex   7.390086e-01 2.622530e+01 4.082522e+00
      vertex   7.882758e+00 2.695105e+01 4.501535e+00
      vertex   7.390086e-01 2.748972e+01 5.143500e+00
    endloop
  endfacet
  facet normal -2.036629e-02 -8.658456e-01 4.998966e-01
    outer loop
      vertex   7.390086e-01 2.748972e+01 5.143500e+00
      vertex   7.882758e+00 2.695105e+01 4.501535e+00
      vertex   7.882758e+00 2.777634e+01 5.930987e+00
    endloop
  endfacet
  facet normal 2.036628e-02 -9.846035e-01 1.736123e-01
    outer loop
      vertex   7.390086e-01 2.748972e+01 5.143500e+00
      vertex   7.882758e+00 2.777634e+01 5.930987e+00
      vertex   7.390086e-01 2.777634e+01 6.769013e+00
    endloop
  endfacet
  facet normal -2.036628e-02 -9.846035e-01 -1.736123e-01
    outer loop
      vertex   7.390086e-01 2.777634e+01 6.769013e+00
      vertex   7.882758e+00 2.777634e+01 5.930987e+00
      vertex   7.882758e+00 2.748972e+01 7.556500e+00
    endloop
  endfacet
  facet normal 2.036629e-02 -8.658456e-01 -4.998966e-01
    outer loop
      vertex   7.390086e-01 2.777634e+01 6.769013e+00
      vertex   7.882758e+00 2.748972e+01 7.556500e+00
      vertex   7.390086e-01 2.695105e+01 8.198465e+00
    endloop
  endfacet
  facet normal -2.036621e-02 -6.426544e-01 -7.658855e-01
    outer loop
      vertex   7.390086e-01 2.695105e+01 8.198465e+00
      vertex   7.882758e+00 2.748972e+01 7.556500e+00
      vertex   7.882758e+00 2.622530e+01 8.617478e+00
    endloop
  endfacet
  facet normal 2.036630e-02 -3.419492e-01 -9.394977e-01
    outer loop
      vertex   7.390086e-01 7.775105e+01 8.198465e+00
      vertex   7.882758e+00 7.702529e+01 8.617478e+00
      vertex   7.390086e-01 7.620000e+01 8.763000e+00
    endloop
  endfacet
  facet normal -2.036628e-02 0.000000e+00 -9.997926e-01
    outer loop
      vertex   7.390086e-01 7.620000e+01 8.763000e+00
      vertex   7.882758e+00 7.702529e+01 8.617478e+00
      vertex   7.882758e+00 7.537470e+01 8.617478e+00
    endloop
  endfacet
  facet normal 2.036630e-02 3.419492e-01 -9.394977e-01
    outer loop
      vertex   7.390086e-01 7.620000e+01 8.763000e+00
      vertex   7.882758e+00 7.537470e+01 8.617478e+00
      vertex   7.390086e-01 7.464895e+01 8.198465e+00
    endloop
  endfacet
  facet normal -2.036621e-02 6.426544e-01 -7.658855e-01
    outer loop
      vertex   7.390086e-01 7.464895e+01 8.198465e+00
      vertex   7.882758e+00 7.537470e+01 8.617478e+00
      vertex   7.882758e+00 7.411028e+01 7.556500e+00
    endloop
  endfacet
  facet normal 2.036629e-02 8.658456e-01 -4.998966e-01
    outer loop
      vertex   7.390086e-01 7.464895e+01 8.198465e+00
      vertex   7.882758e+00 7.411028e+01 7.556500e+00
      vertex   7.390086e-01 7.382366e+01 6.769013e+00
    endloop
  endfacet
  facet normal -2.036628e-02 9.846035e-01 -1.736123e-01
    outer loop
      vertex   7.390086e-01 7.382366e+01 6.769013e+00
      vertex   7.882758e+00 7.411028e+01 7.556500e+00
      vertex   7.882758e+00 7.382366e+01 5.930987e+00
    endloop
  endfacet
  facet normal 2.036628e-02 9.846035e-01 1.736123e-01
    outer loop
      vertex   7.390086e-01 7.382366e+01 6.769013e+00
      vertex   7.882758e+00 7.382366e+01 5.930987e+00
      vertex   7.390086e-01 7.411028e+01 5.143500e+00
    endloop
  endfacet
  facet normal -2.036629e-02 8.658456e-01 4.998966e-01
    outer loop
      vertex   7.390086e-01 7.411028e+01 5.143500e+00
      vertex   7.882758e+00 7.382366e+01 5.930987e+00
      vertex   7.882758e+00 7.464895e+01 4.501535e+00
    endloop
  endfacet
  facet normal 2.036621e-02 6.426544e-01 7.658855e-01
    outer loop
      vertex   7.390086e-01 7.411028e+01 5.143500e+00
      vertex   7.882758e+00 7.464895e+01 4.501535e+00
      vertex   7.390086e-01 7.537470e+01 4.082522e+00
    endloop
  endfacet
  facet normal -2.036630e-02 3.419492e-01 9.394977e-01
    outer loop
      vertex   7.390086e-01 7.537470e+01 4.082522e+00
      vertex   7.882758e+00 7.464895e+01 4.501535e+00
      vertex   7.882758e+00 7.620000e+01 3.937000e+00
    endloop
  endfacet
  facet normal 2.036628e-02 -0.000000e+00 9.997926e-01
    outer loop
      vertex   7.390086e-01 7.537470e+01 4.082522e+00
      vertex   7.882758e+00 7.620000e+01 3.937000e+00
      vertex   7.390086e-01 7.702529e+01 4.082522e+00
    endloop
  endfacet
  facet normal -2.036630e-02 -3.419492e-01 9.394977e-01
    outer loop
      vertex   7.390086e-01 7.702529e+01 4.082522e+00
      vertex   7.882758e+00 7.620000e+01 3.937000e+00
      vertex   7.882758e+00 7.775105e+01 4.501535e+00
    endloop
  endfacet
  facet normal 2.036621e-02 -6.426544e-01 7.658855e-01
    outer loop
      vertex   7.390086e-01 7.702529e+01 4.082522e+00
      vertex   7.882758e+00 7.775105e+01 4.501535e+00
      vertex   7.390086e-01 7.828972e+01 5.143500e+00
    endloop
  endfacet
  facet normal -2.036629e-02 -8.658456e-01 4.998966e-01
    outer loop
      vertex   7.390086e-01 7.828972e+01 5.143500e+00
      vertex   7.882758e+00 7.775105e+01 4.501535e+00
      vertex   7.882758e+00 7.857634e+01 5.930987e+00
    endloop
  endfacet
  facet normal 2.036628e-02 -9.846035e-01 1.736123e-01
    outer loop
      vertex   7.390086e-01 7.828972e+01 5.143500e+00
      vertex   7.882758e+00 7.857634e+01 5.930987e+00
      vertex   7.390086e-01 7.857634e+01 6.769013e+00
    endloop
  endfacet
  facet normal -2.036628e-02 -9.846035e-01 -1.736123e-01
    outer loop
      vertex   7.390086e-01 7.857634e+01 6.769013e+00
      vertex   7.882758e+00 7.857634e+01 5.930987e+00
      vertex   7.882758e+00 7.828972e+01 7.556500e+00
    endloop
  endfacet
  facet normal 2.036629e-02 -8.658456e-01 -4.998966e-01
    outer loop
      vertex   7.390086e-01 7.857634e+01 6.769013e+00
      vertex   7.882758e+00 7.828972e+01 7.556500e+00
      vertex   7.390086e-01 7.775105e+01 8.198465e+00
    endloop
  endfacet
  facet normal -2.036621e-02 -6.426544e-01 -7.658855e-01
    outer loop
      vertex   7.390086e-01 7.775105e+01 8.198465e+00
      vertex   7.882758e+00 7.828972e+01 7.556500e+00
      vertex   7.882758e+00 7.702529e+01 8.617478e+00
    endloop
  endfacet
  facet normal -1.000000e+00 0.000000e+00 0.000000e+00
    outer loop
      vertex   1.532759e+00 9.842500e+01 2.857500e+01
      vertex   1.532759e+00 5.260616e+01 3.832290e+01
      vertex   1.532759e+00 9.842500e+01 5.461000e+01
    endloop
  endfacet
  facet normal -1.000000e+00 0.000000e+00 0.000000e+00
    outer loop
      vertex   1.532759e+00 9.842500e+01 5.461000e+01
      vertex   1.532759e+00 5.260616e+01 3.832290e+01
      vertex   1.532759e+00 4.668996e+01 4.857005e+01
    endloop
  endfacet
  facet normal -1.000000e+00 -0.000000e+00 0.000000e+00
    outer loop
      vertex   1.532759e+00 9.842500e+01 5.461000e+01
      vertex   1.532759e+00 4.668996e+01 4.857005e+01
      vertex   1.532759e+00 3.175000e+00 5.461000e+01
    endloop
  endfacet
  facet normal -1.000000e+00 0.000000e+00 0.000000e+00
    outer loop
      vertex   1.532759e+00 3.175000e+00 5.461000e+01
      vertex   1.532759e+00 4.668996e+01 4.857005e+01
      vertex   1.532759e+00 1.932474e+01 4.715589e+01
    endloop
  endfacet
  facet normal -1.000000e+00 0.000000e+00 0.000000e+00
    outer loop
      vertex   1.532759e+00 3.175000e+00 5.461000e+01
      vertex   1.532759e+00 1.932474e+01 4.715589e+01
      vertex   1.532759e+00 1.648634e+01 4.612279e+01
    endloop
  endfacet
  facet normal -1.000000e+00 0.000000e+00 0.000000e+00
    outer loop
      vertex   1.532759e+00 9.842500e+01 2.857500e+01
      vertex   1.532759e+00 3.175000e+00 2.857500e+01
      vertex   1.532759e+00 5.260616e+01 3.832290e+01
    endloop
  endfacet
  facet normal -1.000000e+00 -0.000000e+00 0.000000e+00
    outer loop
      vertex   1.532759e+00 5.260616e+01 3.832290e+01
      vertex   1.532759e+00 3.175000e+00 2.857500e+01
      vertex   1.532759e+00 4.077377e+01 3.832290e+01
    endloop
  endfacet
  facet normal -1.000000e+00 -0.000000e+00 0.000000e+00
    outer loop
      vertex   1.532759e+00 4.077377e+01 3.832290e+01
      vertex   1.532759e+00 3.175000e+00 2.857500e+01
      vertex   1.532759e+00 2.083502e+01 3.859066e+01
    endloop
  endfacet
  facet normal -1.000000e+00 0.000000e+00 0.000000e+00
    outer loop
      vertex   1.532759e+00 4.077377e+01 3.832290e+01
      vertex   1.532759e+00 2.083502e+01 3.859066e+01
      vertex   1.532759e+00 2.314890e+01 4.053224e+01
    endloop
  endfacet
  facet normal -1.000000e+00 0.000000e+00 0.000000e+00
    outer loop
      vertex   1.532759e+00 3.175000e+00 5.461000e+01
      vertex   1.532759e+00 1.497606e+01 4.350691e+01
      vertex   1.532759e+00 3.175000e+00 2.857500e+01
    endloop
  endfacet
  facet normal -1.000000e+00 0.000000e+00 0.000000e+00
    outer loop
      vertex   1.532759e+00 3.175000e+00 2.857500e+01
      vertex   1.532759e+00 1.497606e+01 4.350691e+01
      vertex   1.532759e+00 1.550057e+01 4.053224e+01
    endloop
  endfacet
  facet normal -1.000000e+00 0.000000e+00 0.000000e+00
    outer loop
      vertex   1.532759e+00 3.175000e+00 2.857500e+01
      vertex   1.532759e+00 1.550057e+01 4.053224e+01
      vertex   1.532759e+00 1.781446e+01 3.859066e+01
    endloop
  endfacet
  facet normal -1.000000e+00 -0.000000e+00 0.000000e+00
    outer loop
      vertex   1.532759e+00 1.648634e+01 4.612279e+01
      vertex   1.532759e+00 1.497606e+01 4.350691e+01
      vertex   1.532759e+00 3.175000e+00 5.461000e+01
    endloop
  endfacet
  facet normal -1.000000e+00 0.000000e+00 -0.000000e+00
    outer loop
      vertex   1.532759e+00 1.781446e+01 3.859066e+01
      vertex   1.532759e+00 2.083502e+01 3.859066e+01
      vertex   1.532759e+00 3.175000e+00 2.857500e+01
    endloop
  endfacet
  facet normal -1.000000e+00 0.000000e+00 0.000000e+00
    outer loop
      vertex   1.532759e+00 2.314890e+01 4.053224e+01
      vertex   1.532759e+00 2.367342e+01 4.350691e+01
      vertex   1.532759e+00 4.077377e+01 3.832290e+01
    endloop
  endfacet
  facet normal -1.000000e+00 0.000000e+00 0.000000e+00
    outer loop
      vertex   1.532759e+00 4.077377e+01 3.832290e+01
      vertex   1.532759e+00 2.367342e+01 4.350691e+01
      vertex   1.532759e+00 4.668996e+01 4.857005e+01
    endloop
  endfacet
  facet normal -1.000000e+00 0.000000e+00 0.000000e+00
    outer loop
      vertex   1.532759e+00 4.668996e+01 4.857005e+01
      vertex   1.532759e+00 2.367342e+01 4.350691e+01
      vertex   1.532759e+00 2.216314e+01 4.612279e+01
    endloop
  endfacet
  facet normal -1.000000e+00 0.000000e+00 0.000000e+00
    outer loop
      vertex   1.532759e+00 4.668996e+01 4.857005e+01
      vertex   1.532759e+00 2.216314e+01 4.612279e+01
      vertex   1.532759e+00 1.932474e+01 4.715589e+01
    endloop
  endfacet
  facet normal -1.000000e+00 -0.000000e+00 -0.000000e+00
    outer loop
      vertex   -1.065924e+01 9.842500e+01 2.814924e+01
      vertex   -1.065924e+01 9.842500e+01 1.905000e+01
      vertex   -1.065924e+01 3.175000e+00 2.814924e+01
    endloop
  endfacet
  facet normal -1.000000e+00 0.000000e+00 0.000000e+00
    outer loop
      vertex   -1.065924e+01 3.175000e+00 2.814924e+01
      vertex   -1.065924e+01 9.842500e+01 1.905000e+01
      vertex   -1.065924e+01 3.175000e+00 1.905000e+01
    endloop
  endfacet
endsolid
