solid ASCII
  facet normal -1.000000e+00 -0.000000e+00 -0.000000e+00
    outer loop
      vertex   -1.065924e+01 9.842500e+01 6.285250e+01
      vertex   -1.065924e+01 9.842500e+01 5.821075e+01
      vertex   -1.065924e+01 3.175000e+00 6.285250e+01
    endloop
  endfacet
  facet normal -1.000000e+00 0.000000e+00 0.000000e+00
    outer loop
      vertex   -1.065924e+01 3.175000e+00 6.285250e+01
      vertex   -1.065924e+01 9.842500e+01 5.821075e+01
      vertex   -1.065924e+01 3.175000e+00 5.821075e+01
    endloop
  endfacet
  facet normal -3.489946e-02 -0.000000e+00 -9.993908e-01
    outer loop
      vertex   -1.065924e+01 9.842500e+01 5.821075e+01
      vertex   1.532759e+00 9.842500e+01 5.778500e+01
      vertex   -1.065924e+01 3.175000e+00 5.821075e+01
    endloop
  endfacet
  facet normal -3.489946e-02 0.000000e+00 -9.993908e-01
    outer loop
      vertex   -1.065924e+01 3.175000e+00 5.821075e+01
      vertex   1.532759e+00 9.842500e+01 5.778500e+01
      vertex   1.532759e+00 3.175000e+00 5.778500e+01
    endloop
  endfacet
  facet normal 0.000000e+00 0.000000e+00 -1.000000e+00
    outer loop
      vertex   -1.065924e+01 9.842500e+01 1.905000e+01
      vertex   3.421336e-01 9.842500e+01 1.905000e+01
      vertex   -1.065924e+01 3.175000e+00 1.905000e+01
    endloop
  endfacet
  facet normal 0.000000e+00 0.000000e+00 -1.000000e+00
    outer loop
      vertex   -1.065924e+01 3.175000e+00 1.905000e+01
      vertex   3.421336e-01 9.842500e+01 1.905000e+01
      vertex   3.421336e-01 3.175000e+00 1.905000e+01
    endloop
  endfacet
  facet normal -1.000000e+00 0.000000e+00 0.000000e+00
    outer loop
      vertex   1.532759e+00 9.842500e+01 3.175000e+01
      vertex   1.532759e+00 7.460032e+01 4.539450e+01
      vertex   1.532759e+00 9.842500e+01 5.778500e+01
    endloop
  endfacet
  facet normal -1.000000e+00 0.000000e+00 0.000000e+00
    outer loop
      vertex   1.532759e+00 9.842500e+01 5.778500e+01
      vertex   1.532759e+00 7.460032e+01 4.539450e+01
      vertex   1.532759e+00 7.460032e+01 4.669111e+01
    endloop
  endfacet
  facet normal -1.000000e+00 0.000000e+00 0.000000e+00
    outer loop
      vertex   1.532759e+00 9.842500e+01 5.778500e+01
      vertex   1.532759e+00 7.460032e+01 4.669111e+01
      vertex   1.532759e+00 7.415685e+01 4.790953e+01
    endloop
  endfacet
  facet normal -1.000000e+00 0.000000e+00 0.000000e+00
    outer loop
      vertex   1.532759e+00 3.175000e+00 3.175000e+01
      vertex   1.532759e+00 7.092359e+01 4.230936e+01
      vertex   1.532759e+00 9.842500e+01 3.175000e+01
    endloop
  endfacet
  facet normal -1.000000e+00 0.000000e+00 0.000000e+00
    outer loop
      vertex   1.532759e+00 9.842500e+01 3.175000e+01
      vertex   1.532759e+00 7.092359e+01 4.230936e+01
      vertex   1.532759e+00 7.220050e+01 4.253451e+01
    endloop
  endfacet
  facet normal -1.000000e+00 0.000000e+00 0.000000e+00
    outer loop
      vertex   1.532759e+00 9.842500e+01 3.175000e+01
      vertex   1.532759e+00 7.220050e+01 4.253451e+01
      vertex   1.532759e+00 7.332340e+01 4.318282e+01
    endloop
  endfacet
  facet normal -1.000000e+00 0.000000e+00 0.000000e+00
    outer loop
      vertex   1.532759e+00 3.175000e+00 5.778500e+01
      vertex   1.532759e+00 2.003593e+01 4.506103e+01
      vertex   1.532759e+00 3.175000e+00 3.175000e+01
    endloop
  endfacet
  facet normal -1.000000e+00 0.000000e+00 0.000000e+00
    outer loop
      vertex   1.532759e+00 3.175000e+00 3.175000e+01
      vertex   1.532759e+00 2.003593e+01 4.506103e+01
      vertex   1.532759e+00 2.062361e+01 4.388082e+01
    endloop
  endfacet
  facet normal -1.000000e+00 0.000000e+00 0.000000e+00
    outer loop
      vertex   1.532759e+00 3.175000e+00 3.175000e+01
      vertex   1.532759e+00 2.062361e+01 4.388082e+01
      vertex   1.532759e+00 2.159793e+01 4.299261e+01
    endloop
  endfacet
  facet normal -1.000000e+00 -0.000000e+00 0.000000e+00
    outer loop
      vertex   1.532759e+00 9.842500e+01 5.778500e+01
      vertex   1.532759e+00 7.092359e+01 4.977626e+01
      vertex   1.532759e+00 3.175000e+00 5.778500e+01
    endloop
  endfacet
  facet normal -1.000000e+00 0.000000e+00 0.000000e+00
    outer loop
      vertex   1.532759e+00 3.175000e+00 5.778500e+01
      vertex   1.532759e+00 7.092359e+01 4.977626e+01
      vertex   1.532759e+00 2.348654e+01 4.963036e+01
    endloop
  endfacet
  facet normal -1.000000e+00 0.000000e+00 0.000000e+00
    outer loop
      vertex   1.532759e+00 3.175000e+00 5.778500e+01
      vertex   1.532759e+00 2.348654e+01 4.963036e+01
      vertex   1.532759e+00 2.219056e+01 4.938810e+01
    endloop
  endfacet
  facet normal -1.000000e+00 -0.000000e+00 0.000000e+00
    outer loop
      vertex   1.532759e+00 2.219056e+01 4.938810e+01
      vertex   1.532759e+00 2.106961e+01 4.869404e+01
      vertex   1.532759e+00 3.175000e+00 5.778500e+01
    endloop
  endfacet
  facet normal -1.000000e+00 0.000000e+00 0.000000e+00
    outer loop
      vertex   1.532759e+00 3.175000e+00 5.778500e+01
      vertex   1.532759e+00 2.106961e+01 4.869404e+01
      vertex   1.532759e+00 2.027509e+01 4.764192e+01
    endloop
  endfacet
  facet normal -1.000000e+00 0.000000e+00 0.000000e+00
    outer loop
      vertex   1.532759e+00 3.175000e+00 5.778500e+01
      vertex   1.532759e+00 2.027509e+01 4.764192e+01
      vertex   1.532759e+00 1.991428e+01 4.637383e+01
    endloop
  endfacet
  facet normal -1.000000e+00 -0.000000e+00 -0.000000e+00
    outer loop
      vertex   1.532759e+00 1.991428e+01 4.637383e+01
      vertex   1.532759e+00 2.003593e+01 4.506103e+01
      vertex   1.532759e+00 3.175000e+00 5.778500e+01
    endloop
  endfacet
  facet normal -1.000000e+00 0.000000e+00 -0.000000e+00
    outer loop
      vertex   1.532759e+00 2.159793e+01 4.299261e+01
      vertex   1.532759e+00 2.282732e+01 4.251634e+01
      vertex   1.532759e+00 3.175000e+00 3.175000e+01
    endloop
  endfacet
  facet normal -1.000000e+00 0.000000e+00 0.000000e+00
    outer loop
      vertex   1.532759e+00 3.175000e+00 3.175000e+01
      vertex   1.532759e+00 2.282732e+01 4.251634e+01
      vertex   1.532759e+00 2.414575e+01 4.251634e+01
    endloop
  endfacet
  facet normal -1.000000e+00 0.000000e+00 0.000000e+00
    outer loop
      vertex   1.532759e+00 3.175000e+00 3.175000e+01
      vertex   1.532759e+00 2.414575e+01 4.251634e+01
      vertex   1.532759e+00 7.092359e+01 4.230936e+01
    endloop
  endfacet
  facet normal -1.000000e+00 0.000000e+00 0.000000e+00
    outer loop
      vertex   1.532759e+00 7.092359e+01 4.230936e+01
      vertex   1.532759e+00 2.414575e+01 4.251634e+01
      vertex   1.532759e+00 6.964667e+01 4.253451e+01
    endloop
  endfacet
  facet normal -1.000000e+00 -0.000000e+00 0.000000e+00
    outer loop
      vertex   1.532759e+00 6.964667e+01 4.253451e+01
      vertex   1.532759e+00 2.414575e+01 4.251634e+01
      vertex   1.532759e+00 2.537514e+01 4.299261e+01
    endloop
  endfacet
  facet normal -1.000000e+00 0.000000e+00 0.000000e+00
    outer loop
      vertex   1.532759e+00 6.964667e+01 4.253451e+01
      vertex   1.532759e+00 2.537514e+01 4.299261e+01
      vertex   1.532759e+00 6.852377e+01 4.318282e+01
    endloop
  endfacet
  facet normal -1.000000e+00 -0.000000e+00 0.000000e+00
    outer loop
      vertex   1.532759e+00 6.852377e+01 4.318282e+01
      vertex   1.532759e+00 2.537514e+01 4.299261e+01
      vertex   1.532759e+00 2.634947e+01 4.388082e+01
    endloop
  endfacet
  facet normal -1.000000e+00 0.000000e+00 0.000000e+00
    outer loop
      vertex   1.532759e+00 6.852377e+01 4.318282e+01
      vertex   1.532759e+00 2.634947e+01 4.388082e+01
      vertex   1.532759e+00 6.769032e+01 4.417608e+01
    endloop
  endfacet
  facet normal -1.000000e+00 -0.000000e+00 0.000000e+00
    outer loop
      vertex   1.532759e+00 6.769032e+01 4.417608e+01
      vertex   1.532759e+00 2.634947e+01 4.388082e+01
      vertex   1.532759e+00 2.693714e+01 4.506103e+01
    endloop
  endfacet
  facet normal -1.000000e+00 0.000000e+00 0.000000e+00
    outer loop
      vertex   1.532759e+00 6.769032e+01 4.417608e+01
      vertex   1.532759e+00 2.693714e+01 4.506103e+01
      vertex   1.532759e+00 6.724686e+01 4.539450e+01
    endloop
  endfacet
  facet normal -1.000000e+00 -0.000000e+00 0.000000e+00
    outer loop
      vertex   1.532759e+00 6.724686e+01 4.539450e+01
      vertex   1.532759e+00 2.693714e+01 4.506103e+01
      vertex   1.532759e+00 2.705879e+01 4.637383e+01
    endloop
  endfacet
  facet normal -1.000000e+00 0.000000e+00 0.000000e+00
    outer loop
      vertex   1.532759e+00 6.724686e+01 4.539450e+01
      vertex   1.532759e+00 2.705879e+01 4.637383e+01
      vertex   1.532759e+00 6.724686e+01 4.669111e+01
    endloop
  endfacet
  facet normal -1.000000e+00 -0.000000e+00 0.000000e+00
    outer loop
      vertex   1.532759e+00 6.724686e+01 4.669111e+01
      vertex   1.532759e+00 2.705879e+01 4.637383e+01
      vertex   1.532759e+00 2.669798e+01 4.764192e+01
    endloop
  endfacet
  facet normal -1.000000e+00 0.000000e+00 0.000000e+00
    outer loop
      vertex   1.532759e+00 6.724686e+01 4.669111e+01
      vertex   1.532759e+00 2.669798e+01 4.764192e+01
      vertex   1.532759e+00 6.769032e+01 4.790953e+01
    endloop
  endfacet
  facet normal -1.000000e+00 -0.000000e+00 0.000000e+00
    outer loop
      vertex   1.532759e+00 6.769032e+01 4.790953e+01
      vertex   1.532759e+00 2.669798e+01 4.764192e+01
      vertex   1.532759e+00 2.590346e+01 4.869404e+01
    endloop
  endfacet
  facet normal -1.000000e+00 0.000000e+00 0.000000e+00
    outer loop
      vertex   1.532759e+00 6.769032e+01 4.790953e+01
      vertex   1.532759e+00 2.590346e+01 4.869404e+01
      vertex   1.532759e+00 6.852377e+01 4.890279e+01
    endloop
  endfacet
  facet normal -1.000000e+00 -0.000000e+00 0.000000e+00
    outer loop
      vertex   1.532759e+00 6.852377e+01 4.890279e+01
      vertex   1.532759e+00 2.590346e+01 4.869404e+01
      vertex   1.532759e+00 2.478251e+01 4.938810e+01
    endloop
  endfacet
  facet normal -1.000000e+00 0.000000e+00 0.000000e+00
    outer loop
      vertex   1.532759e+00 6.852377e+01 4.890279e+01
      vertex   1.532759e+00 2.478251e+01 4.938810e+01
      vertex   1.532759e+00 6.964667e+01 4.955110e+01
    endloop
  endfacet
  facet normal -1.000000e+00 -0.000000e+00 0.000000e+00
    outer loop
      vertex   1.532759e+00 6.964667e+01 4.955110e+01
      vertex   1.532759e+00 2.478251e+01 4.938810e+01
      vertex   1.532759e+00 2.348654e+01 4.963036e+01
    endloop
  endfacet
  facet normal -1.000000e+00 0.000000e+00 0.000000e+00
    outer loop
      vertex   1.532759e+00 6.964667e+01 4.955110e+01
      vertex   1.532759e+00 2.348654e+01 4.963036e+01
      vertex   1.532759e+00 7.092359e+01 4.977626e+01
    endloop
  endfacet
  facet normal -1.000000e+00 0.000000e+00 0.000000e+00
    outer loop
      vertex   1.532759e+00 7.332340e+01 4.318282e+01
      vertex   1.532759e+00 7.415685e+01 4.417608e+01
      vertex   1.532759e+00 9.842500e+01 3.175000e+01
    endloop
  endfacet
  facet normal -1.000000e+00 0.000000e+00 0.000000e+00
    outer loop
      vertex   1.532759e+00 9.842500e+01 3.175000e+01
      vertex   1.532759e+00 7.415685e+01 4.417608e+01
      vertex   1.532759e+00 7.460032e+01 4.539450e+01
    endloop
  endfacet
  facet normal -1.000000e+00 0.000000e+00 0.000000e+00
    outer loop
      vertex   1.532759e+00 7.415685e+01 4.790953e+01
      vertex   1.532759e+00 7.332340e+01 4.890279e+01
      vertex   1.532759e+00 9.842500e+01 5.778500e+01
    endloop
  endfacet
  facet normal -1.000000e+00 0.000000e+00 0.000000e+00
    outer loop
      vertex   1.532759e+00 9.842500e+01 5.778500e+01
      vertex   1.532759e+00 7.332340e+01 4.890279e+01
      vertex   1.532759e+00 7.220050e+01 4.955110e+01
    endloop
  endfacet
  facet normal -1.000000e+00 0.000000e+00 0.000000e+00
    outer loop
      vertex   1.532759e+00 9.842500e+01 5.778500e+01
      vertex   1.532759e+00 7.220050e+01 4.955110e+01
      vertex   1.532759e+00 7.092359e+01 4.977626e+01
    endloop
  endfacet
  facet normal -3.489946e-02 0.000000e+00 9.993908e-01
    outer loop
      vertex   1.532759e+00 9.842500e+01 3.175000e+01
      vertex   -1.065924e+01 9.842500e+01 3.132425e+01
      vertex   1.532759e+00 3.175000e+00 3.175000e+01
    endloop
  endfacet
  facet normal -3.489946e-02 0.000000e+00 9.993908e-01
    outer loop
      vertex   1.532759e+00 3.175000e+00 3.175000e+01
      vertex   -1.065924e+01 9.842500e+01 3.132425e+01
      vertex   -1.065924e+01 3.175000e+00 3.132425e+01
    endloop
  endfacet
  facet normal -1.000000e+00 -0.000000e+00 -0.000000e+00
    outer loop
      vertex   -1.065924e+01 9.842500e+01 3.132425e+01
      vertex   -1.065924e+01 9.842500e+01 1.905000e+01
      vertex   -1.065924e+01 3.175000e+00 3.132425e+01
    endloop
  endfacet
  facet normal -1.000000e+00 0.000000e+00 0.000000e+00
    outer loop
      vertex   -1.065924e+01 3.175000e+00 3.132425e+01
      vertex   -1.065924e+01 9.842500e+01 1.905000e+01
      vertex   -1.065924e+01 3.175000e+00 1.905000e+01
    endloop
  endfacet
  facet normal 1.000000e+00 0.000000e+00 0.000000e+00
    outer loop
      vertex   7.882758e+00 7.724696e+01 4.175962e+00
      vertex   7.882758e+00 7.620000e+01 3.937000e+00
      vertex   7.882758e+00 9.842500e+01 -1.270000e+01
    endloop
  endfacet
  facet normal 1.000000e+00 0.000000e+00 0.000000e+00
    outer loop
      vertex   7.882758e+00 9.842500e+01 -1.270000e+01
      vertex   7.882758e+00 7.620000e+01 3.937000e+00
      vertex   7.882758e+00 7.515304e+01 4.175962e+00
    endloop
  endfacet
  facet normal 1.000000e+00 0.000000e+00 0.000000e+00
    outer loop
      vertex   7.882758e+00 9.842500e+01 -1.270000e+01
      vertex   7.882758e+00 7.515304e+01 4.175962e+00
      vertex   7.882758e+00 5.184696e+01 4.175962e+00
    endloop
  endfacet
  facet normal 1.000000e+00 0.000000e+00 0.000000e+00
    outer loop
      vertex   7.882758e+00 5.184696e+01 4.175962e+00
      vertex   7.882758e+00 7.515304e+01 4.175962e+00
      vertex   7.882758e+00 7.431344e+01 4.845519e+00
    endloop
  endfacet
  facet normal 1.000000e+00 0.000000e+00 0.000000e+00
    outer loop
      vertex   7.882758e+00 5.184696e+01 4.175962e+00
      vertex   7.882758e+00 7.431344e+01 4.845519e+00
      vertex   7.882758e+00 5.268656e+01 4.845519e+00
    endloop
  endfacet
  facet normal 1.000000e+00 0.000000e+00 0.000000e+00
    outer loop
      vertex   7.882758e+00 5.268656e+01 4.845519e+00
      vertex   7.882758e+00 7.431344e+01 4.845519e+00
      vertex   7.882758e+00 7.384750e+01 5.813057e+00
    endloop
  endfacet
  facet normal 1.000000e+00 0.000000e+00 0.000000e+00
    outer loop
      vertex   7.882758e+00 5.268656e+01 4.845519e+00
      vertex   7.882758e+00 7.384750e+01 5.813057e+00
      vertex   7.882758e+00 5.315250e+01 5.813057e+00
    endloop
  endfacet
  facet normal 1.000000e+00 0.000000e+00 0.000000e+00
    outer loop
      vertex   7.882758e+00 5.315250e+01 5.813057e+00
      vertex   7.882758e+00 7.384750e+01 5.813057e+00
      vertex   7.882758e+00 7.384750e+01 6.886943e+00
    endloop
  endfacet
  facet normal 1.000000e+00 0.000000e+00 0.000000e+00
    outer loop
      vertex   7.882758e+00 5.315250e+01 5.813057e+00
      vertex   7.882758e+00 7.384750e+01 6.886943e+00
      vertex   7.882758e+00 5.315250e+01 6.886943e+00
    endloop
  endfacet
  facet normal 1.000000e+00 0.000000e+00 0.000000e+00
    outer loop
      vertex   7.882758e+00 5.315250e+01 6.886943e+00
      vertex   7.882758e+00 7.384750e+01 6.886943e+00
      vertex   7.882758e+00 7.431344e+01 7.854481e+00
    endloop
  endfacet
  facet normal 1.000000e+00 0.000000e+00 -0.000000e+00
    outer loop
      vertex   7.882758e+00 5.315250e+01 6.886943e+00
      vertex   7.882758e+00 7.431344e+01 7.854481e+00
      vertex   7.882758e+00 5.268656e+01 7.854481e+00
    endloop
  endfacet
  facet normal 1.000000e+00 0.000000e+00 0.000000e+00
    outer loop
      vertex   7.882758e+00 5.268656e+01 7.854481e+00
      vertex   7.882758e+00 7.431344e+01 7.854481e+00
      vertex   7.882758e+00 7.515304e+01 8.524038e+00
    endloop
  endfacet
  facet normal 1.000000e+00 0.000000e+00 -0.000000e+00
    outer loop
      vertex   7.882758e+00 5.268656e+01 7.854481e+00
      vertex   7.882758e+00 7.515304e+01 8.524038e+00
      vertex   7.882758e+00 5.184696e+01 8.524038e+00
    endloop
  endfacet
  facet normal 1.000000e+00 0.000000e+00 0.000000e+00
    outer loop
      vertex   7.882758e+00 5.184696e+01 8.524038e+00
      vertex   7.882758e+00 7.515304e+01 8.524038e+00
      vertex   7.882758e+00 6.964667e+01 4.253451e+01
    endloop
  endfacet
  facet normal 1.000000e+00 0.000000e+00 -0.000000e+00
    outer loop
      vertex   7.882758e+00 5.184696e+01 8.524038e+00
      vertex   7.882758e+00 6.964667e+01 4.253451e+01
      vertex   7.882758e+00 5.080000e+01 8.763000e+00
    endloop
  endfacet
  facet normal 1.000000e+00 0.000000e+00 0.000000e+00
    outer loop
      vertex   7.882758e+00 5.080000e+01 8.763000e+00
      vertex   7.882758e+00 6.964667e+01 4.253451e+01
      vertex   7.882758e+00 6.852377e+01 4.318282e+01
    endloop
  endfacet
  facet normal 1.000000e+00 0.000000e+00 -0.000000e+00
    outer loop
      vertex   7.882758e+00 5.080000e+01 8.763000e+00
      vertex   7.882758e+00 6.852377e+01 4.318282e+01
      vertex   7.882758e+00 2.634947e+01 4.388082e+01
    endloop
  endfacet
  facet normal 1.000000e+00 -0.000000e+00 0.000000e+00
    outer loop
      vertex   7.882758e+00 2.634947e+01 4.388082e+01
      vertex   7.882758e+00 6.852377e+01 4.318282e+01
      vertex   7.882758e+00 6.769032e+01 4.417608e+01
    endloop
  endfacet
  facet normal 1.000000e+00 0.000000e+00 0.000000e+00
    outer loop
      vertex   7.882758e+00 2.634947e+01 4.388082e+01
      vertex   7.882758e+00 6.769032e+01 4.417608e+01
      vertex   7.882758e+00 2.693714e+01 4.506103e+01
    endloop
  endfacet
  facet normal 1.000000e+00 -0.000000e+00 0.000000e+00
    outer loop
      vertex   7.882758e+00 2.693714e+01 4.506103e+01
      vertex   7.882758e+00 6.769032e+01 4.417608e+01
      vertex   7.882758e+00 6.724686e+01 4.539450e+01
    endloop
  endfacet
  facet normal 1.000000e+00 0.000000e+00 0.000000e+00
    outer loop
      vertex   7.882758e+00 2.693714e+01 4.506103e+01
      vertex   7.882758e+00 6.724686e+01 4.539450e+01
      vertex   7.882758e+00 2.705879e+01 4.637383e+01
    endloop
  endfacet
  facet normal 1.000000e+00 -0.000000e+00 0.000000e+00
    outer loop
      vertex   7.882758e+00 2.705879e+01 4.637383e+01
      vertex   7.882758e+00 6.724686e+01 4.539450e+01
      vertex   7.882758e+00 6.724686e+01 4.669111e+01
    endloop
  endfacet
  facet normal 1.000000e+00 0.000000e+00 -0.000000e+00
    outer loop
      vertex   7.882758e+00 2.705879e+01 4.637383e+01
      vertex   7.882758e+00 6.724686e+01 4.669111e+01
      vertex   7.882758e+00 2.669798e+01 4.764192e+01
    endloop
  endfacet
  facet normal 1.000000e+00 -0.000000e+00 0.000000e+00
    outer loop
      vertex   7.882758e+00 2.669798e+01 4.764192e+01
      vertex   7.882758e+00 6.724686e+01 4.669111e+01
      vertex   7.882758e+00 6.769032e+01 4.790953e+01
    endloop
  endfacet
  facet normal 1.000000e+00 0.000000e+00 -0.000000e+00
    outer loop
      vertex   7.882758e+00 2.669798e+01 4.764192e+01
      vertex   7.882758e+00 6.769032e+01 4.790953e+01
      vertex   7.882758e+00 2.590346e+01 4.869404e+01
    endloop
  endfacet
  facet normal 1.000000e+00 -0.000000e+00 0.000000e+00
    outer loop
      vertex   7.882758e+00 2.590346e+01 4.869404e+01
      vertex   7.882758e+00 6.769032e+01 4.790953e+01
      vertex   7.882758e+00 6.852377e+01 4.890279e+01
    endloop
  endfacet
  facet normal 1.000000e+00 0.000000e+00 -0.000000e+00
    outer loop
      vertex   7.882758e+00 2.590346e+01 4.869404e+01
      vertex   7.882758e+00 6.852377e+01 4.890279e+01
      vertex   7.882758e+00 2.478251e+01 4.938810e+01
    endloop
  endfacet
  facet normal 1.000000e+00 -0.000000e+00 0.000000e+00
    outer loop
      vertex   7.882758e+00 2.478251e+01 4.938810e+01
      vertex   7.882758e+00 6.852377e+01 4.890279e+01
      vertex   7.882758e+00 6.964667e+01 4.955110e+01
    endloop
  endfacet
  facet normal 1.000000e+00 0.000000e+00 -0.000000e+00
    outer loop
      vertex   7.882758e+00 2.478251e+01 4.938810e+01
      vertex   7.882758e+00 6.964667e+01 4.955110e+01
      vertex   7.882758e+00 3.175000e+00 6.350000e+01
    endloop
  endfacet
  facet normal 1.000000e+00 -0.000000e+00 0.000000e+00
    outer loop
      vertex   7.882758e+00 3.175000e+00 6.350000e+01
      vertex   7.882758e+00 6.964667e+01 4.955110e+01
      vertex   7.882758e+00 9.842500e+01 6.350000e+01
    endloop
  endfacet
  facet normal 1.000000e+00 0.000000e+00 0.000000e+00
    outer loop
      vertex   7.882758e+00 9.842500e+01 6.350000e+01
      vertex   7.882758e+00 6.964667e+01 4.955110e+01
      vertex   7.882758e+00 7.092359e+01 4.977626e+01
    endloop
  endfacet
  facet normal 1.000000e+00 0.000000e+00 0.000000e+00
    outer loop
      vertex   7.882758e+00 9.842500e+01 6.350000e+01
      vertex   7.882758e+00 7.092359e+01 4.977626e+01
      vertex   7.882758e+00 7.220050e+01 4.955110e+01
    endloop
  endfacet
  facet normal 1.000000e+00 0.000000e+00 0.000000e+00
    outer loop
      vertex   7.882758e+00 6.964667e+01 4.253451e+01
      vertex   7.882758e+00 7.515304e+01 8.524038e+00
      vertex   7.882758e+00 7.092359e+01 4.230936e+01
    endloop
  endfacet
  facet normal 1.000000e+00 0.000000e+00 0.000000e+00
    outer loop
      vertex   7.882758e+00 7.092359e+01 4.230936e+01
      vertex   7.882758e+00 7.515304e+01 8.524038e+00
      vertex   7.882758e+00 7.620000e+01 8.763000e+00
    endloop
  endfacet
  facet normal 1.000000e+00 -0.000000e+00 0.000000e+00
    outer loop
      vertex   7.882758e+00 7.092359e+01 4.230936e+01
      vertex   7.882758e+00 7.620000e+01 8.763000e+00
      vertex   7.882758e+00 7.220050e+01 4.253451e+01
    endloop
  endfacet
  facet normal 1.000000e+00 0.000000e+00 0.000000e+00
    outer loop
      vertex   7.882758e+00 7.220050e+01 4.253451e+01
      vertex   7.882758e+00 7.620000e+01 8.763000e+00
      vertex   7.882758e+00 7.724696e+01 8.524038e+00
    endloop
  endfacet
  facet normal 1.000000e+00 -0.000000e+00 0.000000e+00
    outer loop
      vertex   7.882758e+00 7.220050e+01 4.253451e+01
      vertex   7.882758e+00 7.724696e+01 8.524038e+00
      vertex   7.882758e+00 7.332340e+01 4.318282e+01
    endloop
  endfacet
  facet normal 1.000000e+00 0.000000e+00 0.000000e+00
    outer loop
      vertex   7.882758e+00 7.332340e+01 4.318282e+01
      vertex   7.882758e+00 7.724696e+01 8.524038e+00
      vertex   7.882758e+00 7.808656e+01 7.854481e+00
    endloop
  endfacet
  facet normal 1.000000e+00 -0.000000e+00 0.000000e+00
    outer loop
      vertex   7.882758e+00 7.332340e+01 4.318282e+01
      vertex   7.882758e+00 7.808656e+01 7.854481e+00
      vertex   7.882758e+00 7.415685e+01 4.417608e+01
    endloop
  endfacet
  facet normal 1.000000e+00 -0.000000e+00 0.000000e+00
    outer loop
      vertex   7.882758e+00 7.415685e+01 4.417608e+01
      vertex   7.882758e+00 7.808656e+01 7.854481e+00
      vertex   7.882758e+00 9.842500e+01 6.350000e+01
    endloop
  endfacet
  facet normal 1.000000e+00 0.000000e+00 0.000000e+00
    outer loop
      vertex   7.882758e+00 7.415685e+01 4.417608e+01
      vertex   7.882758e+00 9.842500e+01 6.350000e+01
      vertex   7.882758e+00 7.460032e+01 4.539450e+01
    endloop
  endfacet
  facet normal 1.000000e+00 0.000000e+00 0.000000e+00
    outer loop
      vertex   7.882758e+00 7.460032e+01 4.539450e+01
      vertex   7.882758e+00 9.842500e+01 6.350000e+01
      vertex   7.882758e+00 7.460032e+01 4.669111e+01
    endloop
  endfacet
  facet normal 1.000000e+00 0.000000e+00 -0.000000e+00
    outer loop
      vertex   7.882758e+00 7.460032e+01 4.669111e+01
      vertex   7.882758e+00 9.842500e+01 6.350000e+01
      vertex   7.882758e+00 7.415685e+01 4.790953e+01
    endloop
  endfacet
  facet normal 1.000000e+00 0.000000e+00 -0.000000e+00
    outer loop
      vertex   7.882758e+00 7.415685e+01 4.790953e+01
      vertex   7.882758e+00 9.842500e+01 6.350000e+01
      vertex   7.882758e+00 7.332340e+01 4.890279e+01
    endloop
  endfacet
  facet normal 1.000000e+00 0.000000e+00 -0.000000e+00
    outer loop
      vertex   7.882758e+00 7.332340e+01 4.890279e+01
      vertex   7.882758e+00 9.842500e+01 6.350000e+01
      vertex   7.882758e+00 7.220050e+01 4.955110e+01
    endloop
  endfacet
  facet normal 1.000000e+00 0.000000e+00 0.000000e+00
    outer loop
      vertex   7.882758e+00 9.842500e+01 6.350000e+01
      vertex   7.882758e+00 7.808656e+01 7.854481e+00
      vertex   7.882758e+00 9.842500e+01 -1.270000e+01
    endloop
  endfacet
  facet normal 1.000000e+00 0.000000e+00 0.000000e+00
    outer loop
      vertex   7.882758e+00 9.842500e+01 -1.270000e+01
      vertex   7.882758e+00 7.808656e+01 7.854481e+00
      vertex   7.882758e+00 7.855250e+01 6.886943e+00
    endloop
  endfacet
  facet normal 1.000000e+00 0.000000e+00 0.000000e+00
    outer loop
      vertex   7.882758e+00 9.842500e+01 -1.270000e+01
      vertex   7.882758e+00 7.855250e+01 6.886943e+00
      vertex   7.882758e+00 7.855250e+01 5.813057e+00
    endloop
  endfacet
  facet normal 1.000000e+00 0.000000e+00 0.000000e+00
    outer loop
      vertex   7.882758e+00 7.855250e+01 5.813057e+00
      vertex   7.882758e+00 7.808656e+01 4.845519e+00
      vertex   7.882758e+00 9.842500e+01 -1.270000e+01
    endloop
  endfacet
  facet normal 1.000000e+00 0.000000e+00 0.000000e+00
    outer loop
      vertex   7.882758e+00 9.842500e+01 -1.270000e+01
      vertex   7.882758e+00 7.808656e+01 4.845519e+00
      vertex   7.882758e+00 7.724696e+01 4.175962e+00
    endloop
  endfacet
  facet normal 1.000000e+00 0.000000e+00 0.000000e+00
    outer loop
      vertex   7.882758e+00 2.644696e+01 4.175962e+00
      vertex   7.882758e+00 2.540000e+01 3.937000e+00
      vertex   7.882758e+00 3.175000e+00 -1.270000e+01
    endloop
  endfacet
  facet normal 1.000000e+00 0.000000e+00 0.000000e+00
    outer loop
      vertex   7.882758e+00 3.175000e+00 -1.270000e+01
      vertex   7.882758e+00 2.540000e+01 3.937000e+00
      vertex   7.882758e+00 2.435304e+01 4.175962e+00
    endloop
  endfacet
  facet normal 1.000000e+00 0.000000e+00 0.000000e+00
    outer loop
      vertex   7.882758e+00 3.175000e+00 -1.270000e+01
      vertex   7.882758e+00 2.435304e+01 4.175962e+00
      vertex   7.882758e+00 2.351344e+01 4.845519e+00
    endloop
  endfacet
  facet normal 1.000000e+00 0.000000e+00 0.000000e+00
    outer loop
      vertex   7.882758e+00 2.351344e+01 4.845519e+00
      vertex   7.882758e+00 2.304750e+01 5.813057e+00
      vertex   7.882758e+00 3.175000e+00 -1.270000e+01
    endloop
  endfacet
  facet normal 1.000000e+00 0.000000e+00 0.000000e+00
    outer loop
      vertex   7.882758e+00 3.175000e+00 -1.270000e+01
      vertex   7.882758e+00 2.304750e+01 5.813057e+00
      vertex   7.882758e+00 2.304750e+01 6.886943e+00
    endloop
  endfacet
  facet normal 1.000000e+00 0.000000e+00 0.000000e+00
    outer loop
      vertex   7.882758e+00 3.175000e+00 -1.270000e+01
      vertex   7.882758e+00 2.304750e+01 6.886943e+00
      vertex   7.882758e+00 2.351344e+01 7.854481e+00
    endloop
  endfacet
  facet normal 1.000000e+00 0.000000e+00 0.000000e+00
    outer loop
      vertex   7.882758e+00 2.435304e+01 8.524038e+00
      vertex   7.882758e+00 2.159793e+01 4.299261e+01
      vertex   7.882758e+00 2.351344e+01 7.854481e+00
    endloop
  endfacet
  facet normal 1.000000e+00 0.000000e+00 0.000000e+00
    outer loop
      vertex   7.882758e+00 2.351344e+01 7.854481e+00
      vertex   7.882758e+00 2.159793e+01 4.299261e+01
      vertex   7.882758e+00 2.062361e+01 4.388082e+01
    endloop
  endfacet
  facet normal 1.000000e+00 0.000000e+00 0.000000e+00
    outer loop
      vertex   7.882758e+00 2.351344e+01 7.854481e+00
      vertex   7.882758e+00 2.062361e+01 4.388082e+01
      vertex   7.882758e+00 3.175000e+00 -1.270000e+01
    endloop
  endfacet
  facet normal 1.000000e+00 0.000000e+00 0.000000e+00
    outer loop
      vertex   7.882758e+00 3.175000e+00 -1.270000e+01
      vertex   7.882758e+00 2.062361e+01 4.388082e+01
      vertex   7.882758e+00 3.175000e+00 6.350000e+01
    endloop
  endfacet
  facet normal 1.000000e+00 0.000000e+00 0.000000e+00
    outer loop
      vertex   7.882758e+00 3.175000e+00 6.350000e+01
      vertex   7.882758e+00 2.062361e+01 4.388082e+01
      vertex   7.882758e+00 2.003593e+01 4.506103e+01
    endloop
  endfacet
  facet normal 1.000000e+00 0.000000e+00 0.000000e+00
    outer loop
      vertex   7.882758e+00 3.175000e+00 6.350000e+01
      vertex   7.882758e+00 2.003593e+01 4.506103e+01
      vertex   7.882758e+00 1.991428e+01 4.637383e+01
    endloop
  endfacet
  facet normal 1.000000e+00 0.000000e+00 0.000000e+00
    outer loop
      vertex   7.882758e+00 2.159793e+01 4.299261e+01
      vertex   7.882758e+00 2.435304e+01 8.524038e+00
      vertex   7.882758e+00 2.282732e+01 4.251634e+01
    endloop
  endfacet
  facet normal 1.000000e+00 0.000000e+00 0.000000e+00
    outer loop
      vertex   7.882758e+00 2.282732e+01 4.251634e+01
      vertex   7.882758e+00 2.435304e+01 8.524038e+00
      vertex   7.882758e+00 2.540000e+01 8.763000e+00
    endloop
  endfacet
  facet normal 1.000000e+00 -0.000000e+00 0.000000e+00
    outer loop
      vertex   7.882758e+00 2.282732e+01 4.251634e+01
      vertex   7.882758e+00 2.540000e+01 8.763000e+00
      vertex   7.882758e+00 2.414575e+01 4.251634e+01
    endloop
  endfacet
  facet normal 1.000000e+00 0.000000e+00 0.000000e+00
    outer loop
      vertex   7.882758e+00 2.414575e+01 4.251634e+01
      vertex   7.882758e+00 2.540000e+01 8.763000e+00
      vertex   7.882758e+00 2.644696e+01 8.524038e+00
    endloop
  endfacet
  facet normal 1.000000e+00 -0.000000e+00 0.000000e+00
    outer loop
      vertex   7.882758e+00 2.414575e+01 4.251634e+01
      vertex   7.882758e+00 2.644696e+01 8.524038e+00
      vertex   7.882758e+00 2.537514e+01 4.299261e+01
    endloop
  endfacet
  facet normal 1.000000e+00 0.000000e+00 0.000000e+00
    outer loop
      vertex   7.882758e+00 2.537514e+01 4.299261e+01
      vertex   7.882758e+00 2.644696e+01 8.524038e+00
      vertex   7.882758e+00 4.975304e+01 8.524038e+00
    endloop
  endfacet
  facet normal 1.000000e+00 0.000000e+00 0.000000e+00
    outer loop
      vertex   7.882758e+00 2.537514e+01 4.299261e+01
      vertex   7.882758e+00 4.975304e+01 8.524038e+00
      vertex   7.882758e+00 5.080000e+01 8.763000e+00
    endloop
  endfacet
  facet normal 1.000000e+00 -0.000000e+00 0.000000e+00
    outer loop
      vertex   7.882758e+00 2.644696e+01 8.524038e+00
      vertex   7.882758e+00 2.728656e+01 7.854481e+00
      vertex   7.882758e+00 4.975304e+01 8.524038e+00
    endloop
  endfacet
  facet normal 1.000000e+00 0.000000e+00 0.000000e+00
    outer loop
      vertex   7.882758e+00 4.975304e+01 8.524038e+00
      vertex   7.882758e+00 2.728656e+01 7.854481e+00
      vertex   7.882758e+00 4.891344e+01 7.854481e+00
    endloop
  endfacet
  facet normal 1.000000e+00 0.000000e+00 0.000000e+00
    outer loop
      vertex   7.882758e+00 4.891344e+01 7.854481e+00
      vertex   7.882758e+00 2.728656e+01 7.854481e+00
      vertex   7.882758e+00 2.775250e+01 6.886943e+00
    endloop
  endfacet
  facet normal 1.000000e+00 0.000000e+00 0.000000e+00
    outer loop
      vertex   7.882758e+00 4.891344e+01 7.854481e+00
      vertex   7.882758e+00 2.775250e+01 6.886943e+00
      vertex   7.882758e+00 4.844750e+01 6.886943e+00
    endloop
  endfacet
  facet normal 1.000000e+00 0.000000e+00 0.000000e+00
    outer loop
      vertex   7.882758e+00 4.844750e+01 6.886943e+00
      vertex   7.882758e+00 2.775250e+01 6.886943e+00
      vertex   7.882758e+00 2.775250e+01 5.813057e+00
    endloop
  endfacet
  facet normal 1.000000e+00 0.000000e+00 0.000000e+00
    outer loop
      vertex   7.882758e+00 4.844750e+01 6.886943e+00
      vertex   7.882758e+00 2.775250e+01 5.813057e+00
      vertex   7.882758e+00 4.844750e+01 5.813057e+00
    endloop
  endfacet
  facet normal 1.000000e+00 0.000000e+00 0.000000e+00
    outer loop
      vertex   7.882758e+00 4.844750e+01 5.813057e+00
      vertex   7.882758e+00 2.775250e+01 5.813057e+00
      vertex   7.882758e+00 2.728656e+01 4.845519e+00
    endloop
  endfacet
  facet normal 1.000000e+00 0.000000e+00 0.000000e+00
    outer loop
      vertex   7.882758e+00 4.844750e+01 5.813057e+00
      vertex   7.882758e+00 2.728656e+01 4.845519e+00
      vertex   7.882758e+00 4.891344e+01 4.845519e+00
    endloop
  endfacet
  facet normal 1.000000e+00 0.000000e+00 0.000000e+00
    outer loop
      vertex   7.882758e+00 4.891344e+01 4.845519e+00
      vertex   7.882758e+00 2.728656e+01 4.845519e+00
      vertex   7.882758e+00 2.644696e+01 4.175962e+00
    endloop
  endfacet
  facet normal 1.000000e+00 0.000000e+00 0.000000e+00
    outer loop
      vertex   7.882758e+00 4.891344e+01 4.845519e+00
      vertex   7.882758e+00 2.644696e+01 4.175962e+00
      vertex   7.882758e+00 4.975304e+01 4.175962e+00
    endloop
  endfacet
  facet normal 1.000000e+00 0.000000e+00 0.000000e+00
    outer loop
      vertex   7.882758e+00 4.975304e+01 4.175962e+00
      vertex   7.882758e+00 2.644696e+01 4.175962e+00
      vertex   7.882758e+00 3.175000e+00 -1.270000e+01
    endloop
  endfacet
  facet normal 1.000000e+00 0.000000e+00 0.000000e+00
    outer loop
      vertex   7.882758e+00 4.975304e+01 4.175962e+00
      vertex   7.882758e+00 3.175000e+00 -1.270000e+01
      vertex   7.882758e+00 5.080000e+01 3.937000e+00
    endloop
  endfacet
  facet normal 1.000000e+00 0.000000e+00 0.000000e+00
    outer loop
      vertex   7.882758e+00 5.080000e+01 3.937000e+00
      vertex   7.882758e+00 3.175000e+00 -1.270000e+01
      vertex   7.882758e+00 9.842500e+01 -1.270000e+01
    endloop
  endfacet
  facet normal 1.000000e+00 -0.000000e+00 0.000000e+00
    outer loop
      vertex   7.882758e+00 5.080000e+01 3.937000e+00
      vertex   7.882758e+00 9.842500e+01 -1.270000e+01
      vertex   7.882758e+00 5.184696e+01 4.175962e+00
    endloop
  endfacet
  facet normal 1.000000e+00 0.000000e+00 -0.000000e+00
    outer loop
      vertex   7.882758e+00 2.219056e+01 4.938810e+01
      vertex   7.882758e+00 2.348654e+01 4.963036e+01
      vertex   7.882758e+00 3.175000e+00 6.350000e+01
    endloop
  endfacet
  facet normal 1.000000e+00 0.000000e+00 0.000000e+00
    outer loop
      vertex   7.882758e+00 3.175000e+00 6.350000e+01
      vertex   7.882758e+00 2.348654e+01 4.963036e+01
      vertex   7.882758e+00 2.478251e+01 4.938810e+01
    endloop
  endfacet
  facet normal 1.000000e+00 0.000000e+00 0.000000e+00
    outer loop
      vertex   7.882758e+00 2.634947e+01 4.388082e+01
      vertex   7.882758e+00 2.537514e+01 4.299261e+01
      vertex   7.882758e+00 5.080000e+01 8.763000e+00
    endloop
  endfacet
  facet normal 1.000000e+00 0.000000e+00 -0.000000e+00
    outer loop
      vertex   7.882758e+00 1.991428e+01 4.637383e+01
      vertex   7.882758e+00 2.027509e+01 4.764192e+01
      vertex   7.882758e+00 3.175000e+00 6.350000e+01
    endloop
  endfacet
  facet normal 1.000000e+00 0.000000e+00 0.000000e+00
    outer loop
      vertex   7.882758e+00 3.175000e+00 6.350000e+01
      vertex   7.882758e+00 2.027509e+01 4.764192e+01
      vertex   7.882758e+00 2.106961e+01 4.869404e+01
    endloop
  endfacet
  facet normal 1.000000e+00 0.000000e+00 0.000000e+00
    outer loop
      vertex   7.882758e+00 3.175000e+00 6.350000e+01
      vertex   7.882758e+00 2.106961e+01 4.869404e+01
      vertex   7.882758e+00 2.219056e+01 4.938810e+01
    endloop
  endfacet
  facet normal -3.489949e-02 -0.000000e+00 -9.993908e-01
    outer loop
      vertex   -1.065924e+01 9.842500e+01 -1.205250e+01
      vertex   7.882758e+00 9.842500e+01 -1.270000e+01
      vertex   -1.065924e+01 3.175000e+00 -1.205250e+01
    endloop
  endfacet
  facet normal -3.489949e-02 0.000000e+00 -9.993908e-01
    outer loop
      vertex   -1.065924e+01 3.175000e+00 -1.205250e+01
      vertex   7.882758e+00 9.842500e+01 -1.270000e+01
      vertex   7.882758e+00 3.175000e+00 -1.270000e+01
    endloop
  endfacet
  facet normal -1.000000e+00 -0.000000e+00 -0.000000e+00
    outer loop
      vertex   -1.065924e+01 9.842500e+01 -6.350000e+00
      vertex   -1.065924e+01 9.842500e+01 -1.205250e+01
      vertex   -1.065924e+01 3.175000e+00 -6.350000e+00
    endloop
  endfacet
  facet normal -1.000000e+00 0.000000e+00 0.000000e+00
    outer loop
      vertex   -1.065924e+01 3.175000e+00 -6.350000e+00
      vertex   -1.065924e+01 9.842500e+01 -1.205250e+01
      vertex   -1.065924e+01 3.175000e+00 -1.205250e+01
    endloop
  endfacet
  facet normal -3.489955e-02 0.000000e+00 9.993908e-01
    outer loop
      vertex   7.882758e+00 9.842500e+01 6.350000e+01
      vertex   -1.065924e+01 9.842500e+01 6.285250e+01
      vertex   7.882758e+00 3.175000e+00 6.350000e+01
    endloop
  endfacet
  facet normal -3.489955e-02 0.000000e+00 9.993908e-01
    outer loop
      vertex   7.882758e+00 3.175000e+00 6.350000e+01
      vertex   -1.065924e+01 9.842500e+01 6.285250e+01
      vertex   -1.065924e+01 3.175000e+00 6.285250e+01
    endloop
  endfacet
  facet normal 0.000000e+00 -2.225207e-01 -9.749280e-01
    outer loop
      vertex   3.421336e-01 5.184696e+01 8.524038e+00
      vertex   7.882758e+00 5.184696e+01 8.524038e+00
      vertex   3.421336e-01 5.080000e+01 8.763000e+00
    endloop
  endfacet
  facet normal 0.000000e+00 -2.225207e-01 -9.749280e-01
    outer loop
      vertex   3.421336e-01 5.080000e+01 8.763000e+00
      vertex   7.882758e+00 5.184696e+01 8.524038e+00
      vertex   7.882758e+00 5.080000e+01 8.763000e+00
    endloop
  endfacet
  facet normal 0.000000e+00 2.225207e-01 -9.749280e-01
    outer loop
      vertex   3.421336e-01 5.080000e+01 8.763000e+00
      vertex   7.882758e+00 5.080000e+01 8.763000e+00
      vertex   3.421336e-01 4.975304e+01 8.524038e+00
    endloop
  endfacet
  facet normal 0.000000e+00 2.225207e-01 -9.749280e-01
    outer loop
      vertex   3.421336e-01 4.975304e+01 8.524038e+00
      vertex   7.882758e+00 5.080000e+01 8.763000e+00
      vertex   7.882758e+00 4.975304e+01 8.524038e+00
    endloop
  endfacet
  facet normal 0.000000e+00 6.234907e-01 -7.818308e-01
    outer loop
      vertex   3.421336e-01 4.975304e+01 8.524038e+00
      vertex   7.882758e+00 4.975304e+01 8.524038e+00
      vertex   3.421336e-01 4.891344e+01 7.854481e+00
    endloop
  endfacet
  facet normal 0.000000e+00 6.234907e-01 -7.818308e-01
    outer loop
      vertex   3.421336e-01 4.891344e+01 7.854481e+00
      vertex   7.882758e+00 4.975304e+01 8.524038e+00
      vertex   7.882758e+00 4.891344e+01 7.854481e+00
    endloop
  endfacet
  facet normal 0.000000e+00 9.009689e-01 -4.338836e-01
    outer loop
      vertex   3.421336e-01 4.891344e+01 7.854481e+00
      vertex   7.882758e+00 4.891344e+01 7.854481e+00
      vertex   3.421336e-01 4.844750e+01 6.886943e+00
    endloop
  endfacet
  facet normal 0.000000e+00 9.009689e-01 -4.338836e-01
    outer loop
      vertex   3.421336e-01 4.844750e+01 6.886943e+00
      vertex   7.882758e+00 4.891344e+01 7.854481e+00
      vertex   7.882758e+00 4.844750e+01 6.886943e+00
    endloop
  endfacet
  facet normal -0.000000e+00 1.000000e+00 0.000000e+00
    outer loop
      vertex   3.421336e-01 4.844750e+01 6.886943e+00
      vertex   7.882758e+00 4.844750e+01 6.886943e+00
      vertex   3.421336e-01 4.844750e+01 5.813057e+00
    endloop
  endfacet
  facet normal 0.000000e+00 1.000000e+00 0.000000e+00
    outer loop
      vertex   3.421336e-01 4.844750e+01 5.813057e+00
      vertex   7.882758e+00 4.844750e+01 6.886943e+00
      vertex   7.882758e+00 4.844750e+01 5.813057e+00
    endloop
  endfacet
  facet normal -0.000000e+00 9.009689e-01 4.338836e-01
    outer loop
      vertex   3.421336e-01 4.844750e+01 5.813057e+00
      vertex   7.882758e+00 4.844750e+01 5.813057e+00
      vertex   3.421336e-01 4.891344e+01 4.845519e+00
    endloop
  endfacet
  facet normal -0.000000e+00 9.009689e-01 4.338836e-01
    outer loop
      vertex   3.421336e-01 4.891344e+01 4.845519e+00
      vertex   7.882758e+00 4.844750e+01 5.813057e+00
      vertex   7.882758e+00 4.891344e+01 4.845519e+00
    endloop
  endfacet
  facet normal -0.000000e+00 6.234907e-01 7.818308e-01
    outer loop
      vertex   3.421336e-01 4.891344e+01 4.845519e+00
      vertex   7.882758e+00 4.891344e+01 4.845519e+00
      vertex   3.421336e-01 4.975304e+01 4.175962e+00
    endloop
  endfacet
  facet normal -0.000000e+00 6.234907e-01 7.818308e-01
    outer loop
      vertex   3.421336e-01 4.975304e+01 4.175962e+00
      vertex   7.882758e+00 4.891344e+01 4.845519e+00
      vertex   7.882758e+00 4.975304e+01 4.175962e+00
    endloop
  endfacet
  facet normal -0.000000e+00 2.225207e-01 9.749280e-01
    outer loop
      vertex   3.421336e-01 4.975304e+01 4.175962e+00
      vertex   7.882758e+00 4.975304e+01 4.175962e+00
      vertex   3.421336e-01 5.080000e+01 3.937000e+00
    endloop
  endfacet
  facet normal -0.000000e+00 2.225207e-01 9.749280e-01
    outer loop
      vertex   3.421336e-01 5.080000e+01 3.937000e+00
      vertex   7.882758e+00 4.975304e+01 4.175962e+00
      vertex   7.882758e+00 5.080000e+01 3.937000e+00
    endloop
  endfacet
  facet normal 0.000000e+00 -2.225207e-01 9.749280e-01
    outer loop
      vertex   3.421336e-01 5.080000e+01 3.937000e+00
      vertex   7.882758e+00 5.080000e+01 3.937000e+00
      vertex   3.421336e-01 5.184696e+01 4.175962e+00
    endloop
  endfacet
  facet normal 0.000000e+00 -2.225207e-01 9.749280e-01
    outer loop
      vertex   3.421336e-01 5.184696e+01 4.175962e+00
      vertex   7.882758e+00 5.080000e+01 3.937000e+00
      vertex   7.882758e+00 5.184696e+01 4.175962e+00
    endloop
  endfacet
  facet normal 0.000000e+00 -6.234907e-01 7.818308e-01
    outer loop
      vertex   3.421336e-01 5.184696e+01 4.175962e+00
      vertex   7.882758e+00 5.184696e+01 4.175962e+00
      vertex   3.421336e-01 5.268656e+01 4.845519e+00
    endloop
  endfacet
  facet normal 0.000000e+00 -6.234907e-01 7.818308e-01
    outer loop
      vertex   3.421336e-01 5.268656e+01 4.845519e+00
      vertex   7.882758e+00 5.184696e+01 4.175962e+00
      vertex   7.882758e+00 5.268656e+01 4.845519e+00
    endloop
  endfacet
  facet normal 0.000000e+00 -9.009689e-01 4.338836e-01
    outer loop
      vertex   3.421336e-01 5.268656e+01 4.845519e+00
      vertex   7.882758e+00 5.268656e+01 4.845519e+00
      vertex   3.421336e-01 5.315250e+01 5.813057e+00
    endloop
  endfacet
  facet normal 0.000000e+00 -9.009689e-01 4.338836e-01
    outer loop
      vertex   3.421336e-01 5.315250e+01 5.813057e+00
      vertex   7.882758e+00 5.268656e+01 4.845519e+00
      vertex   7.882758e+00 5.315250e+01 5.813057e+00
    endloop
  endfacet
  facet normal 0.000000e+00 -1.000000e+00 0.000000e+00
    outer loop
      vertex   3.421336e-01 5.315250e+01 5.813057e+00
      vertex   7.882758e+00 5.315250e+01 5.813057e+00
      vertex   3.421336e-01 5.315250e+01 6.886943e+00
    endloop
  endfacet
  facet normal 0.000000e+00 -1.000000e+00 0.000000e+00
    outer loop
      vertex   3.421336e-01 5.315250e+01 6.886943e+00
      vertex   7.882758e+00 5.315250e+01 5.813057e+00
      vertex   7.882758e+00 5.315250e+01 6.886943e+00
    endloop
  endfacet
  facet normal 0.000000e+00 -9.009689e-01 -4.338836e-01
    outer loop
      vertex   3.421336e-01 5.315250e+01 6.886943e+00
      vertex   7.882758e+00 5.315250e+01 6.886943e+00
      vertex   3.421336e-01 5.268656e+01 7.854481e+00
    endloop
  endfacet
  facet normal 0.000000e+00 -9.009689e-01 -4.338836e-01
    outer loop
      vertex   3.421336e-01 5.268656e+01 7.854481e+00
      vertex   7.882758e+00 5.315250e+01 6.886943e+00
      vertex   7.882758e+00 5.268656e+01 7.854481e+00
    endloop
  endfacet
  facet normal 0.000000e+00 -6.234907e-01 -7.818308e-01
    outer loop
      vertex   3.421336e-01 5.268656e+01 7.854481e+00
      vertex   7.882758e+00 5.268656e+01 7.854481e+00
      vertex   3.421336e-01 5.184696e+01 8.524038e+00
    endloop
  endfacet
  facet normal 0.000000e+00 -6.234907e-01 -7.818308e-01
    outer loop
      vertex   3.421336e-01 5.184696e+01 8.524038e+00
      vertex   7.882758e+00 5.268656e+01 7.854481e+00
      vertex   7.882758e+00 5.184696e+01 8.524038e+00
    endloop
  endfacet
  facet normal 0.000000e+00 -2.225207e-01 -9.749280e-01
    outer loop
      vertex   3.421336e-01 2.644696e+01 8.524038e+00
      vertex   7.882758e+00 2.644696e+01 8.524038e+00
      vertex   3.421336e-01 2.540000e+01 8.763000e+00
    endloop
  endfacet
  facet normal 0.000000e+00 -2.225207e-01 -9.749280e-01
    outer loop
      vertex   3.421336e-01 2.540000e+01 8.763000e+00
      vertex   7.882758e+00 2.644696e+01 8.524038e+00
      vertex   7.882758e+00 2.540000e+01 8.763000e+00
    endloop
  endfacet
  facet normal 0.000000e+00 2.225212e-01 -9.749279e-01
    outer loop
      vertex   3.421336e-01 2.540000e+01 8.763000e+00
      vertex   7.882758e+00 2.540000e+01 8.763000e+00
      vertex   3.421336e-01 2.435304e+01 8.524038e+00
    endloop
  endfacet
  facet normal 0.000000e+00 2.225212e-01 -9.749279e-01
    outer loop
      vertex   3.421336e-01 2.435304e+01 8.524038e+00
      vertex   7.882758e+00 2.540000e+01 8.763000e+00
      vertex   7.882758e+00 2.435304e+01 8.524038e+00
    endloop
  endfacet
  facet normal 0.000000e+00 6.234896e-01 -7.818316e-01
    outer loop
      vertex   3.421336e-01 2.435304e+01 8.524038e+00
      vertex   7.882758e+00 2.435304e+01 8.524038e+00
      vertex   3.421336e-01 2.351344e+01 7.854481e+00
    endloop
  endfacet
  facet normal 0.000000e+00 6.234896e-01 -7.818316e-01
    outer loop
      vertex   3.421336e-01 2.351344e+01 7.854481e+00
      vertex   7.882758e+00 2.435304e+01 8.524038e+00
      vertex   7.882758e+00 2.351344e+01 7.854481e+00
    endloop
  endfacet
  facet normal 0.000000e+00 9.009689e-01 -4.338836e-01
    outer loop
      vertex   3.421336e-01 2.351344e+01 7.854481e+00
      vertex   7.882758e+00 2.351344e+01 7.854481e+00
      vertex   3.421336e-01 2.304750e+01 6.886943e+00
    endloop
  endfacet
  facet normal 0.000000e+00 9.009689e-01 -4.338836e-01
    outer loop
      vertex   3.421336e-01 2.304750e+01 6.886943e+00
      vertex   7.882758e+00 2.351344e+01 7.854481e+00
      vertex   7.882758e+00 2.304750e+01 6.886943e+00
    endloop
  endfacet
  facet normal -0.000000e+00 1.000000e+00 0.000000e+00
    outer loop
      vertex   3.421336e-01 2.304750e+01 6.886943e+00
      vertex   7.882758e+00 2.304750e+01 6.886943e+00
      vertex   3.421336e-01 2.304750e+01 5.813057e+00
    endloop
  endfacet
  facet normal 0.000000e+00 1.000000e+00 0.000000e+00
    outer loop
      vertex   3.421336e-01 2.304750e+01 5.813057e+00
      vertex   7.882758e+00 2.304750e+01 6.886943e+00
      vertex   7.882758e+00 2.304750e+01 5.813057e+00
    endloop
  endfacet
  facet normal -0.000000e+00 9.009689e-01 4.338836e-01
    outer loop
      vertex   3.421336e-01 2.304750e+01 5.813057e+00
      vertex   7.882758e+00 2.304750e+01 5.813057e+00
      vertex   3.421336e-01 2.351344e+01 4.845519e+00
    endloop
  endfacet
  facet normal -0.000000e+00 9.009689e-01 4.338836e-01
    outer loop
      vertex   3.421336e-01 2.351344e+01 4.845519e+00
      vertex   7.882758e+00 2.304750e+01 5.813057e+00
      vertex   7.882758e+00 2.351344e+01 4.845519e+00
    endloop
  endfacet
  facet normal -0.000000e+00 6.234896e-01 7.818316e-01
    outer loop
      vertex   3.421336e-01 2.351344e+01 4.845519e+00
      vertex   7.882758e+00 2.351344e+01 4.845519e+00
      vertex   3.421336e-01 2.435304e+01 4.175962e+00
    endloop
  endfacet
  facet normal -0.000000e+00 6.234896e-01 7.818316e-01
    outer loop
      vertex   3.421336e-01 2.435304e+01 4.175962e+00
      vertex   7.882758e+00 2.351344e+01 4.845519e+00
      vertex   7.882758e+00 2.435304e+01 4.175962e+00
    endloop
  endfacet
  facet normal -0.000000e+00 2.225212e-01 9.749279e-01
    outer loop
      vertex   3.421336e-01 2.435304e+01 4.175962e+00
      vertex   7.882758e+00 2.435304e+01 4.175962e+00
      vertex   3.421336e-01 2.540000e+01 3.937000e+00
    endloop
  endfacet
  facet normal -0.000000e+00 2.225212e-01 9.749279e-01
    outer loop
      vertex   3.421336e-01 2.540000e+01 3.937000e+00
      vertex   7.882758e+00 2.435304e+01 4.175962e+00
      vertex   7.882758e+00 2.540000e+01 3.937000e+00
    endloop
  endfacet
  facet normal 0.000000e+00 -2.225207e-01 9.749280e-01
    outer loop
      vertex   3.421336e-01 2.540000e+01 3.937000e+00
      vertex   7.882758e+00 2.540000e+01 3.937000e+00
      vertex   3.421336e-01 2.644696e+01 4.175962e+00
    endloop
  endfacet
  facet normal 0.000000e+00 -2.225207e-01 9.749280e-01
    outer loop
      vertex   3.421336e-01 2.644696e+01 4.175962e+00
      vertex   7.882758e+00 2.540000e+01 3.937000e+00
      vertex   7.882758e+00 2.644696e+01 4.175962e+00
    endloop
  endfacet
  facet normal 0.000000e+00 -6.234896e-01 7.818316e-01
    outer loop
      vertex   3.421336e-01 2.644696e+01 4.175962e+00
      vertex   7.882758e+00 2.644696e+01 4.175962e+00
      vertex   3.421336e-01 2.728656e+01 4.845519e+00
    endloop
  endfacet
  facet normal 0.000000e+00 -6.234896e-01 7.818316e-01
    outer loop
      vertex   3.421336e-01 2.728656e+01 4.845519e+00
      vertex   7.882758e+00 2.644696e+01 4.175962e+00
      vertex   7.882758e+00 2.728656e+01 4.845519e+00
    endloop
  endfacet
  facet normal 0.000000e+00 -9.009689e-01 4.338836e-01
    outer loop
      vertex   3.421336e-01 2.728656e+01 4.845519e+00
      vertex   7.882758e+00 2.728656e+01 4.845519e+00
      vertex   3.421336e-01 2.775250e+01 5.813057e+00
    endloop
  endfacet
  facet normal 0.000000e+00 -9.009689e-01 4.338836e-01
    outer loop
      vertex   3.421336e-01 2.775250e+01 5.813057e+00
      vertex   7.882758e+00 2.728656e+01 4.845519e+00
      vertex   7.882758e+00 2.775250e+01 5.813057e+00
    endloop
  endfacet
  facet normal 0.000000e+00 -1.000000e+00 0.000000e+00
    outer loop
      vertex   3.421336e-01 2.775250e+01 5.813057e+00
      vertex   7.882758e+00 2.775250e+01 5.813057e+00
      vertex   3.421336e-01 2.775250e+01 6.886943e+00
    endloop
  endfacet
  facet normal 0.000000e+00 -1.000000e+00 0.000000e+00
    outer loop
      vertex   3.421336e-01 2.775250e+01 6.886943e+00
      vertex   7.882758e+00 2.775250e+01 5.813057e+00
      vertex   7.882758e+00 2.775250e+01 6.886943e+00
    endloop
  endfacet
  facet normal 0.000000e+00 -9.009689e-01 -4.338836e-01
    outer loop
      vertex   3.421336e-01 2.775250e+01 6.886943e+00
      vertex   7.882758e+00 2.775250e+01 6.886943e+00
      vertex   3.421336e-01 2.728656e+01 7.854481e+00
    endloop
  endfacet
  facet normal 0.000000e+00 -9.009689e-01 -4.338836e-01
    outer loop
      vertex   3.421336e-01 2.728656e+01 7.854481e+00
      vertex   7.882758e+00 2.775250e+01 6.886943e+00
      vertex   7.882758e+00 2.728656e+01 7.854481e+00
    endloop
  endfacet
  facet normal 0.000000e+00 -6.234896e-01 -7.818316e-01
    outer loop
      vertex   3.421336e-01 2.728656e+01 7.854481e+00
      vertex   7.882758e+00 2.728656e+01 7.854481e+00
      vertex   3.421336e-01 2.644696e+01 8.524038e+00
    endloop
  endfacet
  facet normal 0.000000e+00 -6.234896e-01 -7.818316e-01
    outer loop
      vertex   3.421336e-01 2.644696e+01 8.524038e+00
      vertex   7.882758e+00 2.728656e+01 7.854481e+00
      vertex   7.882758e+00 2.644696e+01 8.524038e+00
    endloop
  endfacet
  facet normal 0.000000e+00 -2.225207e-01 -9.749280e-01
    outer loop
      vertex   3.421336e-01 7.724696e+01 8.524038e+00
      vertex   7.882758e+00 7.724696e+01 8.524038e+00
      vertex   3.421336e-01 7.620000e+01 8.763000e+00
    endloop
  endfacet
  facet normal 0.000000e+00 -2.225207e-01 -9.749280e-01
    outer loop
      vertex   3.421336e-01 7.620000e+01 8.763000e+00
      vertex   7.882758e+00 7.724696e+01 8.524038e+00
      vertex   7.882758e+00 7.620000e+01 8.763000e+00
    endloop
  endfacet
  facet normal 0.000000e+00 2.225217e-01 -9.749277e-01
    outer loop
      vertex   3.421336e-01 7.620000e+01 8.763000e+00
      vertex   7.882758e+00 7.620000e+01 8.763000e+00
      vertex   3.421336e-01 7.515304e+01 8.524038e+00
    endloop
  endfacet
  facet normal 0.000000e+00 2.225217e-01 -9.749277e-01
    outer loop
      vertex   3.421336e-01 7.515304e+01 8.524038e+00
      vertex   7.882758e+00 7.620000e+01 8.763000e+00
      vertex   7.882758e+00 7.515304e+01 8.524038e+00
    endloop
  endfacet
  facet normal 0.000000e+00 6.234885e-01 -7.818325e-01
    outer loop
      vertex   3.421336e-01 7.515304e+01 8.524038e+00
      vertex   7.882758e+00 7.515304e+01 8.524038e+00
      vertex   3.421336e-01 7.431344e+01 7.854481e+00
    endloop
  endfacet
  facet normal 0.000000e+00 6.234885e-01 -7.818325e-01
    outer loop
      vertex   3.421336e-01 7.431344e+01 7.854481e+00
      vertex   7.882758e+00 7.515304e+01 8.524038e+00
      vertex   7.882758e+00 7.431344e+01 7.854481e+00
    endloop
  endfacet
  facet normal 0.000000e+00 9.009689e-01 -4.338836e-01
    outer loop
      vertex   3.421336e-01 7.431344e+01 7.854481e+00
      vertex   7.882758e+00 7.431344e+01 7.854481e+00
      vertex   3.421336e-01 7.384750e+01 6.886943e+00
    endloop
  endfacet
  facet normal 0.000000e+00 9.009689e-01 -4.338836e-01
    outer loop
      vertex   3.421336e-01 7.384750e+01 6.886943e+00
      vertex   7.882758e+00 7.431344e+01 7.854481e+00
      vertex   7.882758e+00 7.384750e+01 6.886943e+00
    endloop
  endfacet
  facet normal -0.000000e+00 1.000000e+00 0.000000e+00
    outer loop
      vertex   3.421336e-01 7.384750e+01 6.886943e+00
      vertex   7.882758e+00 7.384750e+01 6.886943e+00
      vertex   3.421336e-01 7.384750e+01 5.813057e+00
    endloop
  endfacet
  facet normal 0.000000e+00 1.000000e+00 0.000000e+00
    outer loop
      vertex   3.421336e-01 7.384750e+01 5.813057e+00
      vertex   7.882758e+00 7.384750e+01 6.886943e+00
      vertex   7.882758e+00 7.384750e+01 5.813057e+00
    endloop
  endfacet
  facet normal -0.000000e+00 9.009689e-01 4.338836e-01
    outer loop
      vertex   3.421336e-01 7.384750e+01 5.813057e+00
      vertex   7.882758e+00 7.384750e+01 5.813057e+00
      vertex   3.421336e-01 7.431344e+01 4.845519e+00
    endloop
  endfacet
  facet normal -0.000000e+00 9.009689e-01 4.338836e-01
    outer loop
      vertex   3.421336e-01 7.431344e+01 4.845519e+00
      vertex   7.882758e+00 7.384750e+01 5.813057e+00
      vertex   7.882758e+00 7.431344e+01 4.845519e+00
    endloop
  endfacet
  facet normal -0.000000e+00 6.234885e-01 7.818325e-01
    outer loop
      vertex   3.421336e-01 7.431344e+01 4.845519e+00
      vertex   7.882758e+00 7.431344e+01 4.845519e+00
      vertex   3.421336e-01 7.515304e+01 4.175962e+00
    endloop
  endfacet
  facet normal -0.000000e+00 6.234885e-01 7.818325e-01
    outer loop
      vertex   3.421336e-01 7.515304e+01 4.175962e+00
      vertex   7.882758e+00 7.431344e+01 4.845519e+00
      vertex   7.882758e+00 7.515304e+01 4.175962e+00
    endloop
  endfacet
  facet normal -0.000000e+00 2.225217e-01 9.749277e-01
    outer loop
      vertex   3.421336e-01 7.515304e+01 4.175962e+00
      vertex   7.882758e+00 7.515304e+01 4.175962e+00
      vertex   3.421336e-01 7.620000e+01 3.937000e+00
    endloop
  endfacet
  facet normal -0.000000e+00 2.225217e-01 9.749277e-01
    outer loop
      vertex   3.421336e-01 7.620000e+01 3.937000e+00
      vertex   7.882758e+00 7.515304e+01 4.175962e+00
      vertex   7.882758e+00 7.620000e+01 3.937000e+00
    endloop
  endfacet
  facet normal 0.000000e+00 -2.225207e-01 9.749280e-01
    outer loop
      vertex   3.421336e-01 7.620000e+01 3.937000e+00
      vertex   7.882758e+00 7.620000e+01 3.937000e+00
      vertex   3.421336e-01 7.724696e+01 4.175962e+00
    endloop
  endfacet
  facet normal 0.000000e+00 -2.225207e-01 9.749280e-01
    outer loop
      vertex   3.421336e-01 7.724696e+01 4.175962e+00
      vertex   7.882758e+00 7.620000e+01 3.937000e+00
      vertex   7.882758e+00 7.724696e+01 4.175962e+00
    endloop
  endfacet
  facet normal 0.000000e+00 -6.234907e-01 7.818308e-01
    outer loop
      vertex   3.421336e-01 7.724696e+01 4.175962e+00
      vertex   7.882758e+00 7.724696e+01 4.175962e+00
      vertex   3.421336e-01 7.808656e+01 4.845519e+00
    endloop
  endfacet
  facet normal 0.000000e+00 -6.234907e-01 7.818308e-01
    outer loop
      vertex   3.421336e-01 7.808656e+01 4.845519e+00
      vertex   7.882758e+00 7.724696e+01 4.175962e+00
      vertex   7.882758e+00 7.808656e+01 4.845519e+00
    endloop
  endfacet
  facet normal 0.000000e+00 -9.009689e-01 4.338836e-01
    outer loop
      vertex   3.421336e-01 7.808656e+01 4.845519e+00
      vertex   7.882758e+00 7.808656e+01 4.845519e+00
      vertex   3.421336e-01 7.855250e+01 5.813057e+00
    endloop
  endfacet
  facet normal 0.000000e+00 -9.009689e-01 4.338836e-01
    outer loop
      vertex   3.421336e-01 7.855250e+01 5.813057e+00
      vertex   7.882758e+00 7.808656e+01 4.845519e+00
      vertex   7.882758e+00 7.855250e+01 5.813057e+00
    endloop
  endfacet
  facet normal 0.000000e+00 -1.000000e+00 0.000000e+00
    outer loop
      vertex   3.421336e-01 7.855250e+01 5.813057e+00
      vertex   7.882758e+00 7.855250e+01 5.813057e+00
      vertex   3.421336e-01 7.855250e+01 6.886943e+00
    endloop
  endfacet
  facet normal 0.000000e+00 -1.000000e+00 0.000000e+00
    outer loop
      vertex   3.421336e-01 7.855250e+01 6.886943e+00
      vertex   7.882758e+00 7.855250e+01 5.813057e+00
      vertex   7.882758e+00 7.855250e+01 6.886943e+00
    endloop
  endfacet
  facet normal 0.000000e+00 -9.009689e-01 -4.338836e-01
    outer loop
      vertex   3.421336e-01 7.855250e+01 6.886943e+00
      vertex   7.882758e+00 7.855250e+01 6.886943e+00
      vertex   3.421336e-01 7.808656e+01 7.854481e+00
    endloop
  endfacet
  facet normal 0.000000e+00 -9.009689e-01 -4.338836e-01
    outer loop
      vertex   3.421336e-01 7.808656e+01 7.854481e+00
      vertex   7.882758e+00 7.855250e+01 6.886943e+00
      vertex   7.882758e+00 7.808656e+01 7.854481e+00
    endloop
  endfacet
  facet normal 0.000000e+00 -6.234907e-01 -7.818308e-01
    outer loop
      vertex   3.421336e-01 7.808656e+01 7.854481e+00
      vertex   7.882758e+00 7.808656e+01 7.854481e+00
      vertex   3.421336e-01 7.724696e+01 8.524038e+00
    endloop
  endfacet
  facet normal 0.000000e+00 -6.234907e-01 -7.818308e-01
    outer loop
      vertex   3.421336e-01 7.724696e+01 8.524038e+00
      vertex   7.882758e+00 7.808656e+01 7.854481e+00
      vertex   7.882758e+00 7.724696e+01 8.524038e+00
    endloop
  endfacet
  facet normal 0.000000e+00 0.000000e+00 1.000000e+00
    outer loop
      vertex   3.421336e-01 9.842500e+01 -6.350000e+00
      vertex   -1.065924e+01 9.842500e+01 -6.350000e+00
      vertex   3.421336e-01 3.175000e+00 -6.350000e+00
    endloop
  endfacet
  facet normal 0.000000e+00 0.000000e+00 1.000000e+00
    outer loop
      vertex   3.421336e-01 3.175000e+00 -6.350000e+00
      vertex   -1.065924e+01 9.842500e+01 -6.350000e+00
      vertex   -1.065924e+01 3.175000e+00 -6.350000e+00
    endloop
  endfacet
  facet normal -1.000000e+00 0.000000e+00 0.000000e+00
    outer loop
      vertex   3.421336e-01 9.842500e+01 -6.350000e+00
      vertex   3.421336e-01 7.855250e+01 6.886943e+00
      vertex   3.421336e-01 9.842500e+01 1.905000e+01
    endloop
  endfacet
  facet normal -1.000000e+00 0.000000e+00 0.000000e+00
    outer loop
      vertex   3.421336e-01 9.842500e+01 1.905000e+01
      vertex   3.421336e-01 7.855250e+01 6.886943e+00
      vertex   3.421336e-01 7.808656e+01 7.854481e+00
    endloop
  endfacet
  facet normal -1.000000e+00 0.000000e+00 0.000000e+00
    outer loop
      vertex   3.421336e-01 9.842500e+01 1.905000e+01
      vertex   3.421336e-01 7.808656e+01 7.854481e+00
      vertex   3.421336e-01 7.724696e+01 8.524038e+00
    endloop
  endfacet
  facet normal -1.000000e+00 0.000000e+00 0.000000e+00
    outer loop
      vertex   3.421336e-01 3.175000e+00 -6.350000e+00
      vertex   3.421336e-01 5.080000e+01 3.937000e+00
      vertex   3.421336e-01 9.842500e+01 -6.350000e+00
    endloop
  endfacet
  facet normal -1.000000e+00 0.000000e+00 0.000000e+00
    outer loop
      vertex   3.421336e-01 9.842500e+01 -6.350000e+00
      vertex   3.421336e-01 5.080000e+01 3.937000e+00
      vertex   3.421336e-01 7.620000e+01 3.937000e+00
    endloop
  endfacet
  facet normal -1.000000e+00 0.000000e+00 0.000000e+00
    outer loop
      vertex   3.421336e-01 9.842500e+01 -6.350000e+00
      vertex   3.421336e-01 7.620000e+01 3.937000e+00
      vertex   3.421336e-01 7.724696e+01 4.175962e+00
    endloop
  endfacet
  facet normal -1.000000e+00 0.000000e+00 0.000000e+00
    outer loop
      vertex   3.421336e-01 3.175000e+00 1.905000e+01
      vertex   3.421336e-01 2.304750e+01 5.813057e+00
      vertex   3.421336e-01 3.175000e+00 -6.350000e+00
    endloop
  endfacet
  facet normal -1.000000e+00 0.000000e+00 0.000000e+00
    outer loop
      vertex   3.421336e-01 3.175000e+00 -6.350000e+00
      vertex   3.421336e-01 2.304750e+01 5.813057e+00
      vertex   3.421336e-01 2.351344e+01 4.845519e+00
    endloop
  endfacet
  facet normal -1.000000e+00 0.000000e+00 0.000000e+00
    outer loop
      vertex   3.421336e-01 3.175000e+00 -6.350000e+00
      vertex   3.421336e-01 2.351344e+01 4.845519e+00
      vertex   3.421336e-01 2.435304e+01 4.175962e+00
    endloop
  endfacet
  facet normal -1.000000e+00 -0.000000e+00 0.000000e+00
    outer loop
      vertex   3.421336e-01 9.842500e+01 1.905000e+01
      vertex   3.421336e-01 5.080000e+01 8.763000e+00
      vertex   3.421336e-01 3.175000e+00 1.905000e+01
    endloop
  endfacet
  facet normal -1.000000e+00 0.000000e+00 0.000000e+00
    outer loop
      vertex   3.421336e-01 3.175000e+00 1.905000e+01
      vertex   3.421336e-01 5.080000e+01 8.763000e+00
      vertex   3.421336e-01 2.540000e+01 8.763000e+00
    endloop
  endfacet
  facet normal -1.000000e+00 0.000000e+00 0.000000e+00
    outer loop
      vertex   3.421336e-01 3.175000e+00 1.905000e+01
      vertex   3.421336e-01 2.540000e+01 8.763000e+00
      vertex   3.421336e-01 2.435304e+01 8.524038e+00
    endloop
  endfacet
  facet normal -1.000000e+00 -0.000000e+00 0.000000e+00
    outer loop
      vertex   3.421336e-01 2.435304e+01 8.524038e+00
      vertex   3.421336e-01 2.351344e+01 7.854481e+00
      vertex   3.421336e-01 3.175000e+00 1.905000e+01
    endloop
  endfacet
  facet normal -1.000000e+00 0.000000e+00 0.000000e+00
    outer loop
      vertex   3.421336e-01 3.175000e+00 1.905000e+01
      vertex   3.421336e-01 2.351344e+01 7.854481e+00
      vertex   3.421336e-01 2.304750e+01 6.886943e+00
    endloop
  endfacet
  facet normal -1.000000e+00 0.000000e+00 0.000000e+00
    outer loop
      vertex   3.421336e-01 3.175000e+00 1.905000e+01
      vertex   3.421336e-01 2.304750e+01 6.886943e+00
      vertex   3.421336e-01 2.304750e+01 5.813057e+00
    endloop
  endfacet
  facet normal -1.000000e+00 0.000000e+00 -0.000000e+00
    outer loop
      vertex   3.421336e-01 2.435304e+01 4.175962e+00
      vertex   3.421336e-01 2.540000e+01 3.937000e+00
      vertex   3.421336e-01 3.175000e+00 -6.350000e+00
    endloop
  endfacet
  facet normal -1.000000e+00 0.000000e+00 0.000000e+00
    outer loop
      vertex   3.421336e-01 3.175000e+00 -6.350000e+00
      vertex   3.421336e-01 2.540000e+01 3.937000e+00
      vertex   3.421336e-01 5.080000e+01 3.937000e+00
    endloop
  endfacet
  facet normal -1.000000e+00 0.000000e+00 0.000000e+00
    outer loop
      vertex   3.421336e-01 2.540000e+01 3.937000e+00
      vertex   3.421336e-01 2.644696e+01 4.175962e+00
      vertex   3.421336e-01 5.080000e+01 3.937000e+00
    endloop
  endfacet
  facet normal -1.000000e+00 0.000000e+00 0.000000e+00
    outer loop
      vertex   3.421336e-01 5.080000e+01 3.937000e+00
      vertex   3.421336e-01 2.644696e+01 4.175962e+00
      vertex   3.421336e-01 4.975304e+01 4.175962e+00
    endloop
  endfacet
  facet normal -1.000000e+00 0.000000e+00 0.000000e+00
    outer loop
      vertex   3.421336e-01 4.975304e+01 4.175962e+00
      vertex   3.421336e-01 2.644696e+01 4.175962e+00
      vertex   3.421336e-01 4.891344e+01 4.845519e+00
    endloop
  endfacet
  facet normal -1.000000e+00 -0.000000e+00 0.000000e+00
    outer loop
      vertex   3.421336e-01 4.891344e+01 4.845519e+00
      vertex   3.421336e-01 2.644696e+01 4.175962e+00
      vertex   3.421336e-01 2.728656e+01 4.845519e+00
    endloop
  endfacet
  facet normal -1.000000e+00 0.000000e+00 0.000000e+00
    outer loop
      vertex   3.421336e-01 4.891344e+01 4.845519e+00
      vertex   3.421336e-01 2.728656e+01 4.845519e+00
      vertex   3.421336e-01 4.844750e+01 5.813057e+00
    endloop
  endfacet
  facet normal -1.000000e+00 -0.000000e+00 0.000000e+00
    outer loop
      vertex   3.421336e-01 4.844750e+01 5.813057e+00
      vertex   3.421336e-01 2.728656e+01 4.845519e+00
      vertex   3.421336e-01 2.775250e+01 5.813057e+00
    endloop
  endfacet
  facet normal -1.000000e+00 0.000000e+00 0.000000e+00
    outer loop
      vertex   3.421336e-01 4.844750e+01 5.813057e+00
      vertex   3.421336e-01 2.775250e+01 5.813057e+00
      vertex   3.421336e-01 2.775250e+01 6.886943e+00
    endloop
  endfacet
  facet normal -1.000000e+00 0.000000e+00 0.000000e+00
    outer loop
      vertex   3.421336e-01 4.844750e+01 5.813057e+00
      vertex   3.421336e-01 2.775250e+01 6.886943e+00
      vertex   3.421336e-01 4.844750e+01 6.886943e+00
    endloop
  endfacet
  facet normal -1.000000e+00 0.000000e+00 0.000000e+00
    outer loop
      vertex   3.421336e-01 4.844750e+01 6.886943e+00
      vertex   3.421336e-01 2.775250e+01 6.886943e+00
      vertex   3.421336e-01 2.728656e+01 7.854481e+00
    endloop
  endfacet
  facet normal -1.000000e+00 0.000000e+00 0.000000e+00
    outer loop
      vertex   3.421336e-01 4.844750e+01 6.886943e+00
      vertex   3.421336e-01 2.728656e+01 7.854481e+00
      vertex   3.421336e-01 4.891344e+01 7.854481e+00
    endloop
  endfacet
  facet normal -1.000000e+00 0.000000e+00 0.000000e+00
    outer loop
      vertex   3.421336e-01 4.891344e+01 7.854481e+00
      vertex   3.421336e-01 2.728656e+01 7.854481e+00
      vertex   3.421336e-01 2.644696e+01 8.524038e+00
    endloop
  endfacet
  facet normal -1.000000e+00 0.000000e+00 0.000000e+00
    outer loop
      vertex   3.421336e-01 4.891344e+01 7.854481e+00
      vertex   3.421336e-01 2.644696e+01 8.524038e+00
      vertex   3.421336e-01 4.975304e+01 8.524038e+00
    endloop
  endfacet
  facet normal -1.000000e+00 0.000000e+00 0.000000e+00
    outer loop
      vertex   3.421336e-01 4.975304e+01 8.524038e+00
      vertex   3.421336e-01 2.644696e+01 8.524038e+00
      vertex   3.421336e-01 5.080000e+01 8.763000e+00
    endloop
  endfacet
  facet normal -1.000000e+00 -0.000000e+00 0.000000e+00
    outer loop
      vertex   3.421336e-01 5.080000e+01 8.763000e+00
      vertex   3.421336e-01 2.644696e+01 8.524038e+00
      vertex   3.421336e-01 2.540000e+01 8.763000e+00
    endloop
  endfacet
  facet normal -1.000000e+00 0.000000e+00 0.000000e+00
    outer loop
      vertex   3.421336e-01 7.620000e+01 3.937000e+00
      vertex   3.421336e-01 5.080000e+01 3.937000e+00
      vertex   3.421336e-01 7.515304e+01 4.175962e+00
    endloop
  endfacet
  facet normal -1.000000e+00 -0.000000e+00 0.000000e+00
    outer loop
      vertex   3.421336e-01 7.515304e+01 4.175962e+00
      vertex   3.421336e-01 5.080000e+01 3.937000e+00
      vertex   3.421336e-01 5.184696e+01 4.175962e+00
    endloop
  endfacet
  facet normal -1.000000e+00 0.000000e+00 0.000000e+00
    outer loop
      vertex   3.421336e-01 7.515304e+01 4.175962e+00
      vertex   3.421336e-01 5.184696e+01 4.175962e+00
      vertex   3.421336e-01 7.431344e+01 4.845519e+00
    endloop
  endfacet
  facet normal -1.000000e+00 -0.000000e+00 0.000000e+00
    outer loop
      vertex   3.421336e-01 7.431344e+01 4.845519e+00
      vertex   3.421336e-01 5.184696e+01 4.175962e+00
      vertex   3.421336e-01 5.268656e+01 4.845519e+00
    endloop
  endfacet
  facet normal -1.000000e+00 0.000000e+00 0.000000e+00
    outer loop
      vertex   3.421336e-01 7.431344e+01 4.845519e+00
      vertex   3.421336e-01 5.268656e+01 4.845519e+00
      vertex   3.421336e-01 7.384750e+01 5.813057e+00
    endloop
  endfacet
  facet normal -1.000000e+00 -0.000000e+00 0.000000e+00
    outer loop
      vertex   3.421336e-01 7.384750e+01 5.813057e+00
      vertex   3.421336e-01 5.268656e+01 4.845519e+00
      vertex   3.421336e-01 5.315250e+01 5.813057e+00
    endloop
  endfacet
  facet normal -1.000000e+00 0.000000e+00 0.000000e+00
    outer loop
      vertex   3.421336e-01 7.384750e+01 5.813057e+00
      vertex   3.421336e-01 5.315250e+01 5.813057e+00
      vertex   3.421336e-01 5.315250e+01 6.886943e+00
    endloop
  endfacet
  facet normal -1.000000e+00 0.000000e+00 0.000000e+00
    outer loop
      vertex   3.421336e-01 7.384750e+01 5.813057e+00
      vertex   3.421336e-01 5.315250e+01 6.886943e+00
      vertex   3.421336e-01 7.384750e+01 6.886943e+00
    endloop
  endfacet
  facet normal -1.000000e+00 0.000000e+00 0.000000e+00
    outer loop
      vertex   3.421336e-01 7.384750e+01 6.886943e+00
      vertex   3.421336e-01 5.315250e+01 6.886943e+00
      vertex   3.421336e-01 5.268656e+01 7.854481e+00
    endloop
  endfacet
  facet normal -1.000000e+00 0.000000e+00 0.000000e+00
    outer loop
      vertex   3.421336e-01 7.384750e+01 6.886943e+00
      vertex   3.421336e-01 5.268656e+01 7.854481e+00
      vertex   3.421336e-01 7.431344e+01 7.854481e+00
    endloop
  endfacet
  facet normal -1.000000e+00 0.000000e+00 0.000000e+00
    outer loop
      vertex   3.421336e-01 7.431344e+01 7.854481e+00
      vertex   3.421336e-01 5.268656e+01 7.854481e+00
      vertex   3.421336e-01 5.184696e+01 8.524038e+00
    endloop
  endfacet
  facet normal -1.000000e+00 0.000000e+00 0.000000e+00
    outer loop
      vertex   3.421336e-01 7.431344e+01 7.854481e+00
      vertex   3.421336e-01 5.184696e+01 8.524038e+00
      vertex   3.421336e-01 7.515304e+01 8.524038e+00
    endloop
  endfacet
  facet normal -1.000000e+00 0.000000e+00 0.000000e+00
    outer loop
      vertex   3.421336e-01 7.515304e+01 8.524038e+00
      vertex   3.421336e-01 5.184696e+01 8.524038e+00
      vertex   3.421336e-01 5.080000e+01 8.763000e+00
    endloop
  endfacet
  facet normal -1.000000e+00 0.000000e+00 0.000000e+00
    outer loop
      vertex   3.421336e-01 7.515304e+01 8.524038e+00
      vertex   3.421336e-01 5.080000e+01 8.763000e+00
      vertex   3.421336e-01 7.620000e+01 8.763000e+00
    endloop
  endfacet
  facet normal -1.000000e+00 0.000000e+00 0.000000e+00
    outer loop
      vertex   3.421336e-01 7.620000e+01 8.763000e+00
      vertex   3.421336e-01 5.080000e+01 8.763000e+00
      vertex   3.421336e-01 9.842500e+01 1.905000e+01
    endloop
  endfacet
  facet normal -1.000000e+00 0.000000e+00 0.000000e+00
    outer loop
      vertex   3.421336e-01 7.620000e+01 8.763000e+00
      vertex   3.421336e-01 9.842500e+01 1.905000e+01
      vertex   3.421336e-01 7.724696e+01 8.524038e+00
    endloop
  endfacet
  facet normal -1.000000e+00 0.000000e+00 0.000000e+00
    outer loop
      vertex   3.421336e-01 7.724696e+01 4.175962e+00
      vertex   3.421336e-01 7.808656e+01 4.845519e+00
      vertex   3.421336e-01 9.842500e+01 -6.350000e+00
    endloop
  endfacet
  facet normal -1.000000e+00 0.000000e+00 0.000000e+00
    outer loop
      vertex   3.421336e-01 9.842500e+01 -6.350000e+00
      vertex   3.421336e-01 7.808656e+01 4.845519e+00
      vertex   3.421336e-01 7.855250e+01 5.813057e+00
    endloop
  endfacet
  facet normal -1.000000e+00 0.000000e+00 0.000000e+00
    outer loop
      vertex   3.421336e-01 9.842500e+01 -6.350000e+00
      vertex   3.421336e-01 7.855250e+01 5.813057e+00
      vertex   3.421336e-01 7.855250e+01 6.886943e+00
    endloop
  endfacet
  facet normal 0.000000e+00 1.000000e+00 0.000000e+00
    outer loop
      vertex   -1.065924e+01 9.842500e+01 1.905000e+01
      vertex   -1.065924e+01 9.842500e+01 3.132425e+01
      vertex   3.421336e-01 9.842500e+01 1.905000e+01
    endloop
  endfacet
  facet normal 0.000000e+00 1.000000e+00 -0.000000e+00
    outer loop
      vertex   3.421336e-01 9.842500e+01 1.905000e+01
      vertex   -1.065924e+01 9.842500e+01 3.132425e+01
      vertex   1.532759e+00 9.842500e+01 3.175000e+01
    endloop
  endfacet
  facet normal -0.000000e+00 1.000000e+00 0.000000e+00
    outer loop
      vertex   3.421336e-01 9.842500e+01 1.905000e+01
      vertex   1.532759e+00 9.842500e+01 3.175000e+01
      vertex   7.882758e+00 9.842500e+01 -1.270000e+01
    endloop
  endfacet
  facet normal 0.000000e+00 1.000000e+00 -0.000000e+00
    outer loop
      vertex   7.882758e+00 9.842500e+01 -1.270000e+01
      vertex   1.532759e+00 9.842500e+01 3.175000e+01
      vertex   7.882758e+00 9.842500e+01 6.350000e+01
    endloop
  endfacet
  facet normal 0.000000e+00 1.000000e+00 0.000000e+00
    outer loop
      vertex   7.882758e+00 9.842500e+01 6.350000e+01
      vertex   1.532759e+00 9.842500e+01 3.175000e+01
      vertex   1.532759e+00 9.842500e+01 5.778500e+01
    endloop
  endfacet
  facet normal 0.000000e+00 1.000000e+00 0.000000e+00
    outer loop
      vertex   7.882758e+00 9.842500e+01 6.350000e+01
      vertex   1.532759e+00 9.842500e+01 5.778500e+01
      vertex   -1.065924e+01 9.842500e+01 6.285250e+01
    endloop
  endfacet
  facet normal 0.000000e+00 1.000000e+00 0.000000e+00
    outer loop
      vertex   -1.065924e+01 9.842500e+01 6.285250e+01
      vertex   1.532759e+00 9.842500e+01 5.778500e+01
      vertex   -1.065924e+01 9.842500e+01 5.821075e+01
    endloop
  endfacet
  facet normal 0.000000e+00 1.000000e+00 0.000000e+00
    outer loop
      vertex   3.421336e-01 9.842500e+01 1.905000e+01
      vertex   7.882758e+00 9.842500e+01 -1.270000e+01
      vertex   3.421336e-01 9.842500e+01 -6.350000e+00
    endloop
  endfacet
  facet normal 0.000000e+00 1.000000e+00 0.000000e+00
    outer loop
      vertex   3.421336e-01 9.842500e+01 -6.350000e+00
      vertex   7.882758e+00 9.842500e+01 -1.270000e+01
      vertex   -1.065924e+01 9.842500e+01 -1.205250e+01
    endloop
  endfacet
  facet normal 0.000000e+00 1.000000e+00 0.000000e+00
    outer loop
      vertex   3.421336e-01 9.842500e+01 -6.350000e+00
      vertex   -1.065924e+01 9.842500e+01 -1.205250e+01
      vertex   -1.065924e+01 9.842500e+01 -6.350000e+00
    endloop
  endfacet
  facet normal 0.000000e+00 -1.000000e+00 0.000000e+00
    outer loop
      vertex   -1.065924e+01 3.175000e+00 -6.350000e+00
      vertex   -1.065924e+01 3.175000e+00 -1.205250e+01
      vertex   3.421336e-01 3.175000e+00 -6.350000e+00
    endloop
  endfacet
  facet normal 0.000000e+00 -1.000000e+00 -0.000000e+00
    outer loop
      vertex   3.421336e-01 3.175000e+00 -6.350000e+00
      vertex   -1.065924e+01 3.175000e+00 -1.205250e+01
      vertex   7.882758e+00 3.175000e+00 -1.270000e+01
    endloop
  endfacet
  facet normal 0.000000e+00 -1.000000e+00 0.000000e+00
    outer loop
      vertex   3.421336e-01 3.175000e+00 -6.350000e+00
      vertex   7.882758e+00 3.175000e+00 -1.270000e+01
      vertex   3.421336e-01 3.175000e+00 1.905000e+01
    endloop
  endfacet
  facet normal 0.000000e+00 -1.000000e+00 0.000000e+00
    outer loop
      vertex   3.421336e-01 3.175000e+00 1.905000e+01
      vertex   7.882758e+00 3.175000e+00 -1.270000e+01
      vertex   1.532759e+00 3.175000e+00 3.175000e+01
    endloop
  endfacet
  facet normal 0.000000e+00 -1.000000e+00 0.000000e+00
    outer loop
      vertex   3.421336e-01 3.175000e+00 1.905000e+01
      vertex   1.532759e+00 3.175000e+00 3.175000e+01
      vertex   -1.065924e+01 3.175000e+00 3.132425e+01
    endloop
  endfacet
  facet normal 0.000000e+00 -1.000000e+00 0.000000e+00
    outer loop
      vertex   7.882758e+00 3.175000e+00 -1.270000e+01
      vertex   7.882758e+00 3.175000e+00 6.350000e+01
      vertex   1.532759e+00 3.175000e+00 3.175000e+01
    endloop
  endfacet
  facet normal 0.000000e+00 -1.000000e+00 0.000000e+00
    outer loop
      vertex   1.532759e+00 3.175000e+00 3.175000e+01
      vertex   7.882758e+00 3.175000e+00 6.350000e+01
      vertex   1.532759e+00 3.175000e+00 5.778500e+01
    endloop
  endfacet
  facet normal 0.000000e+00 -1.000000e+00 0.000000e+00
    outer loop
      vertex   1.532759e+00 3.175000e+00 5.778500e+01
      vertex   7.882758e+00 3.175000e+00 6.350000e+01
      vertex   -1.065924e+01 3.175000e+00 6.285250e+01
    endloop
  endfacet
  facet normal 0.000000e+00 -1.000000e+00 0.000000e+00
    outer loop
      vertex   1.532759e+00 3.175000e+00 5.778500e+01
      vertex   -1.065924e+01 3.175000e+00 6.285250e+01
      vertex   -1.065924e+01 3.175000e+00 5.821075e+01
    endloop
  endfacet
  facet normal 0.000000e+00 -1.000000e+00 0.000000e+00
    outer loop
      vertex   -1.065924e+01 3.175000e+00 3.132425e+01
      vertex   -1.065924e+01 3.175000e+00 1.905000e+01
      vertex   3.421336e-01 3.175000e+00 1.905000e+01
    endloop
  endfacet
  facet normal 0.000000e+00 1.837477e-01 -9.829734e-01
    outer loop
      vertex   7.882758e+00 2.219056e+01 4.938810e+01
      vertex   1.532759e+00 2.219056e+01 4.938810e+01
      vertex   7.882758e+00 2.348654e+01 4.963036e+01
    endloop
  endfacet
  facet normal 0.000000e+00 1.837477e-01 -9.829734e-01
    outer loop
      vertex   7.882758e+00 2.348654e+01 4.963036e+01
      vertex   1.532759e+00 2.219056e+01 4.938810e+01
      vertex   1.532759e+00 2.348654e+01 4.963036e+01
    endloop
  endfacet
  facet normal -0.000000e+00 -1.837477e-01 -9.829734e-01
    outer loop
      vertex   7.882758e+00 2.348654e+01 4.963036e+01
      vertex   1.532759e+00 2.348654e+01 4.963036e+01
      vertex   7.882758e+00 2.478251e+01 4.938810e+01
    endloop
  endfacet
  facet normal -0.000000e+00 -1.837477e-01 -9.829734e-01
    outer loop
      vertex   7.882758e+00 2.478251e+01 4.938810e+01
      vertex   1.532759e+00 2.348654e+01 4.963036e+01
      vertex   1.532759e+00 2.478251e+01 4.938810e+01
    endloop
  endfacet
  facet normal -0.000000e+00 -5.264320e-01 -8.502172e-01
    outer loop
      vertex   7.882758e+00 2.478251e+01 4.938810e+01
      vertex   1.532759e+00 2.478251e+01 4.938810e+01
      vertex   7.882758e+00 2.590346e+01 4.869404e+01
    endloop
  endfacet
  facet normal -0.000000e+00 -5.264320e-01 -8.502172e-01
    outer loop
      vertex   7.882758e+00 2.590346e+01 4.869404e+01
      vertex   1.532759e+00 2.478251e+01 4.938810e+01
      vertex   1.532759e+00 2.590346e+01 4.869404e+01
    endloop
  endfacet
  facet normal -0.000000e+00 -7.980179e-01 -6.026338e-01
    outer loop
      vertex   7.882758e+00 2.590346e+01 4.869404e+01
      vertex   1.532759e+00 2.590346e+01 4.869404e+01
      vertex   7.882758e+00 2.669798e+01 4.764192e+01
    endloop
  endfacet
  facet normal -0.000000e+00 -7.980179e-01 -6.026338e-01
    outer loop
      vertex   7.882758e+00 2.669798e+01 4.764192e+01
      vertex   1.532759e+00 2.590346e+01 4.869404e+01
      vertex   1.532759e+00 2.669798e+01 4.764192e+01
    endloop
  endfacet
  facet normal -0.000000e+00 -9.618255e-01 -2.736634e-01
    outer loop
      vertex   7.882758e+00 2.669798e+01 4.764192e+01
      vertex   1.532759e+00 2.669798e+01 4.764192e+01
      vertex   7.882758e+00 2.705879e+01 4.637383e+01
    endloop
  endfacet
  facet normal -0.000000e+00 -9.618255e-01 -2.736634e-01
    outer loop
      vertex   7.882758e+00 2.705879e+01 4.637383e+01
      vertex   1.532759e+00 2.669798e+01 4.764192e+01
      vertex   1.532759e+00 2.705879e+01 4.637383e+01
    endloop
  endfacet
  facet normal 0.000000e+00 -9.957340e-01 9.226980e-02
    outer loop
      vertex   7.882758e+00 2.705879e+01 4.637383e+01
      vertex   1.532759e+00 2.705879e+01 4.637383e+01
      vertex   7.882758e+00 2.693714e+01 4.506103e+01
    endloop
  endfacet
  facet normal 0.000000e+00 -9.957340e-01 9.226980e-02
    outer loop
      vertex   7.882758e+00 2.693714e+01 4.506103e+01
      vertex   1.532759e+00 2.705879e+01 4.637383e+01
      vertex   1.532759e+00 2.693714e+01 4.506103e+01
    endloop
  endfacet
  facet normal 0.000000e+00 -8.951638e-01 4.457374e-01
    outer loop
      vertex   7.882758e+00 2.693714e+01 4.506103e+01
      vertex   1.532759e+00 2.693714e+01 4.506103e+01
      vertex   7.882758e+00 2.634947e+01 4.388082e+01
    endloop
  endfacet
  facet normal 0.000000e+00 -8.951638e-01 4.457374e-01
    outer loop
      vertex   7.882758e+00 2.634947e+01 4.388082e+01
      vertex   1.532759e+00 2.693714e+01 4.506103e+01
      vertex   1.532759e+00 2.634947e+01 4.388082e+01
    endloop
  endfacet
  facet normal 0.000000e+00 -6.736950e-01 7.390095e-01
    outer loop
      vertex   7.882758e+00 2.634947e+01 4.388082e+01
      vertex   1.532759e+00 2.634947e+01 4.388082e+01
      vertex   7.882758e+00 2.537514e+01 4.299261e+01
    endloop
  endfacet
  facet normal 0.000000e+00 -6.736950e-01 7.390095e-01
    outer loop
      vertex   7.882758e+00 2.537514e+01 4.299261e+01
      vertex   1.532759e+00 2.634947e+01 4.388082e+01
      vertex   1.532759e+00 2.537514e+01 4.299261e+01
    endloop
  endfacet
  facet normal 0.000000e+00 -3.612418e-01 9.324722e-01
    outer loop
      vertex   7.882758e+00 2.537514e+01 4.299261e+01
      vertex   1.532759e+00 2.537514e+01 4.299261e+01
      vertex   7.882758e+00 2.414575e+01 4.251634e+01
    endloop
  endfacet
  facet normal 0.000000e+00 -3.612418e-01 9.324722e-01
    outer loop
      vertex   7.882758e+00 2.414575e+01 4.251634e+01
      vertex   1.532759e+00 2.537514e+01 4.299261e+01
      vertex   1.532759e+00 2.414575e+01 4.251634e+01
    endloop
  endfacet
  facet normal 0.000000e+00 0.000000e+00 1.000000e+00
    outer loop
      vertex   7.882758e+00 2.414575e+01 4.251634e+01
      vertex   1.532759e+00 2.414575e+01 4.251634e+01
      vertex   7.882758e+00 2.282732e+01 4.251634e+01
    endloop
  endfacet
  facet normal 0.000000e+00 0.000000e+00 1.000000e+00
    outer loop
      vertex   7.882758e+00 2.282732e+01 4.251634e+01
      vertex   1.532759e+00 2.414575e+01 4.251634e+01
      vertex   1.532759e+00 2.282732e+01 4.251634e+01
    endloop
  endfacet
  facet normal 0.000000e+00 3.612418e-01 9.324722e-01
    outer loop
      vertex   7.882758e+00 2.282732e+01 4.251634e+01
      vertex   1.532759e+00 2.282732e+01 4.251634e+01
      vertex   7.882758e+00 2.159793e+01 4.299261e+01
    endloop
  endfacet
  facet normal 0.000000e+00 3.612418e-01 9.324722e-01
    outer loop
      vertex   7.882758e+00 2.159793e+01 4.299261e+01
      vertex   1.532759e+00 2.282732e+01 4.251634e+01
      vertex   1.532759e+00 2.159793e+01 4.299261e+01
    endloop
  endfacet
  facet normal 0.000000e+00 6.736950e-01 7.390095e-01
    outer loop
      vertex   7.882758e+00 2.159793e+01 4.299261e+01
      vertex   1.532759e+00 2.159793e+01 4.299261e+01
      vertex   7.882758e+00 2.062361e+01 4.388082e+01
    endloop
  endfacet
  facet normal 0.000000e+00 6.736950e-01 7.390095e-01
    outer loop
      vertex   7.882758e+00 2.062361e+01 4.388082e+01
      vertex   1.532759e+00 2.159793e+01 4.299261e+01
      vertex   1.532759e+00 2.062361e+01 4.388082e+01
    endloop
  endfacet
  facet normal 0.000000e+00 8.951638e-01 4.457374e-01
    outer loop
      vertex   7.882758e+00 2.062361e+01 4.388082e+01
      vertex   1.532759e+00 2.062361e+01 4.388082e+01
      vertex   7.882758e+00 2.003593e+01 4.506103e+01
    endloop
  endfacet
  facet normal 0.000000e+00 8.951638e-01 4.457374e-01
    outer loop
      vertex   7.882758e+00 2.003593e+01 4.506103e+01
      vertex   1.532759e+00 2.062361e+01 4.388082e+01
      vertex   1.532759e+00 2.003593e+01 4.506103e+01
    endloop
  endfacet
  facet normal 0.000000e+00 9.957341e-01 9.226890e-02
    outer loop
      vertex   7.882758e+00 2.003593e+01 4.506103e+01
      vertex   1.532759e+00 2.003593e+01 4.506103e+01
      vertex   7.882758e+00 1.991428e+01 4.637383e+01
    endloop
  endfacet
  facet normal 0.000000e+00 9.957341e-01 9.226890e-02
    outer loop
      vertex   7.882758e+00 1.991428e+01 4.637383e+01
      vertex   1.532759e+00 2.003593e+01 4.506103e+01
      vertex   1.532759e+00 1.991428e+01 4.637383e+01
    endloop
  endfacet
  facet normal 0.000000e+00 9.618258e-01 -2.736625e-01
    outer loop
      vertex   7.882758e+00 1.991428e+01 4.637383e+01
      vertex   1.532759e+00 1.991428e+01 4.637383e+01
      vertex   7.882758e+00 2.027509e+01 4.764192e+01
    endloop
  endfacet
  facet normal 0.000000e+00 9.618258e-01 -2.736625e-01
    outer loop
      vertex   7.882758e+00 2.027509e+01 4.764192e+01
      vertex   1.532759e+00 1.991428e+01 4.637383e+01
      vertex   1.532759e+00 2.027509e+01 4.764192e+01
    endloop
  endfacet
  facet normal 0.000000e+00 7.980179e-01 -6.026338e-01
    outer loop
      vertex   7.882758e+00 2.027509e+01 4.764192e+01
      vertex   1.532759e+00 2.027509e+01 4.764192e+01
      vertex   7.882758e+00 2.106961e+01 4.869404e+01
    endloop
  endfacet
  facet normal 0.000000e+00 7.980179e-01 -6.026338e-01
    outer loop
      vertex   7.882758e+00 2.106961e+01 4.869404e+01
      vertex   1.532759e+00 2.027509e+01 4.764192e+01
      vertex   1.532759e+00 2.106961e+01 4.869404e+01
    endloop
  endfacet
  facet normal 0.000000e+00 5.264320e-01 -8.502172e-01
    outer loop
      vertex   7.882758e+00 2.106961e+01 4.869404e+01
      vertex   1.532759e+00 2.106961e+01 4.869404e+01
      vertex   7.882758e+00 2.219056e+01 4.938810e+01
    endloop
  endfacet
  facet normal 0.000000e+00 5.264320e-01 -8.502172e-01
    outer loop
      vertex   7.882758e+00 2.219056e+01 4.938810e+01
      vertex   1.532759e+00 2.106961e+01 4.869404e+01
      vertex   1.532759e+00 2.219056e+01 4.938810e+01
    endloop
  endfacet
  facet normal 0.000000e+00 1.837503e-01 -9.829730e-01
    outer loop
      vertex   7.882758e+00 6.957491e+01 4.952415e+01
      vertex   1.532759e+00 6.957491e+01 4.952415e+01
      vertex   7.882758e+00 7.092359e+01 4.977626e+01
    endloop
  endfacet
  facet normal 0.000000e+00 1.837503e-01 -9.829730e-01
    outer loop
      vertex   7.882758e+00 7.092359e+01 4.977626e+01
      vertex   1.532759e+00 6.957491e+01 4.952415e+01
      vertex   1.532759e+00 7.092359e+01 4.977626e+01
    endloop
  endfacet
  facet normal -0.000000e+00 -1.837509e-01 -9.829728e-01
    outer loop
      vertex   7.882758e+00 7.092359e+01 4.977626e+01
      vertex   1.532759e+00 7.092359e+01 4.977626e+01
      vertex   7.882758e+00 7.227227e+01 4.952415e+01
    endloop
  endfacet
  facet normal -0.000000e+00 -1.837509e-01 -9.829728e-01
    outer loop
      vertex   7.882758e+00 7.227227e+01 4.952415e+01
      vertex   1.532759e+00 7.092359e+01 4.977626e+01
      vertex   1.532759e+00 7.227227e+01 4.952415e+01
    endloop
  endfacet
  facet normal -0.000000e+00 -5.264320e-01 -8.502172e-01
    outer loop
      vertex   7.882758e+00 7.227227e+01 4.952415e+01
      vertex   1.532759e+00 7.227227e+01 4.952415e+01
      vertex   7.882758e+00 7.343880e+01 4.880186e+01
    endloop
  endfacet
  facet normal -0.000000e+00 -5.264320e-01 -8.502172e-01
    outer loop
      vertex   7.882758e+00 7.343880e+01 4.880186e+01
      vertex   1.532759e+00 7.227227e+01 4.952415e+01
      vertex   1.532759e+00 7.343880e+01 4.880186e+01
    endloop
  endfacet
  facet normal -0.000000e+00 -7.980172e-01 -6.026347e-01
    outer loop
      vertex   7.882758e+00 7.343880e+01 4.880186e+01
      vertex   1.532759e+00 7.343880e+01 4.880186e+01
      vertex   7.882758e+00 7.426564e+01 4.770695e+01
    endloop
  endfacet
  facet normal -0.000000e+00 -7.980172e-01 -6.026347e-01
    outer loop
      vertex   7.882758e+00 7.426564e+01 4.770695e+01
      vertex   1.532759e+00 7.343880e+01 4.880186e+01
      vertex   1.532759e+00 7.426564e+01 4.770695e+01
    endloop
  endfacet
  facet normal -0.000000e+00 -9.618257e-01 -2.736629e-01
    outer loop
      vertex   7.882758e+00 7.426564e+01 4.770695e+01
      vertex   1.532759e+00 7.426564e+01 4.770695e+01
      vertex   7.882758e+00 7.464111e+01 4.638729e+01
    endloop
  endfacet
  facet normal -0.000000e+00 -9.618257e-01 -2.736629e-01
    outer loop
      vertex   7.882758e+00 7.464111e+01 4.638729e+01
      vertex   1.532759e+00 7.426564e+01 4.770695e+01
      vertex   1.532759e+00 7.464111e+01 4.638729e+01
    endloop
  endfacet
  facet normal 0.000000e+00 -9.957342e-01 9.226815e-02
    outer loop
      vertex   7.882758e+00 7.464111e+01 4.638729e+01
      vertex   1.532759e+00 7.464111e+01 4.638729e+01
      vertex   7.882758e+00 7.451452e+01 4.502110e+01
    endloop
  endfacet
  facet normal 0.000000e+00 -9.957342e-01 9.226815e-02
    outer loop
      vertex   7.882758e+00 7.451452e+01 4.502110e+01
      vertex   1.532759e+00 7.464111e+01 4.638729e+01
      vertex   1.532759e+00 7.451452e+01 4.502110e+01
    endloop
  endfacet
  facet normal 0.000000e+00 -8.951628e-01 4.457394e-01
    outer loop
      vertex   7.882758e+00 7.451452e+01 4.502110e+01
      vertex   1.532759e+00 7.451452e+01 4.502110e+01
      vertex   7.882758e+00 7.390295e+01 4.379290e+01
    endloop
  endfacet
  facet normal 0.000000e+00 -8.951628e-01 4.457394e-01
    outer loop
      vertex   7.882758e+00 7.390295e+01 4.379290e+01
      vertex   1.532759e+00 7.451452e+01 4.502110e+01
      vertex   1.532759e+00 7.390295e+01 4.379290e+01
    endloop
  endfacet
  facet normal 0.000000e+00 -6.736959e-01 7.390087e-01
    outer loop
      vertex   7.882758e+00 7.390295e+01 4.379290e+01
      vertex   1.532759e+00 7.390295e+01 4.379290e+01
      vertex   7.882758e+00 7.288899e+01 4.286856e+01
    endloop
  endfacet
  facet normal 0.000000e+00 -6.736959e-01 7.390087e-01
    outer loop
      vertex   7.882758e+00 7.288899e+01 4.286856e+01
      vertex   1.532759e+00 7.390295e+01 4.379290e+01
      vertex   1.532759e+00 7.288899e+01 4.286856e+01
    endloop
  endfacet
  facet normal 0.000000e+00 -3.612396e-01 9.324730e-01
    outer loop
      vertex   7.882758e+00 7.288899e+01 4.286856e+01
      vertex   1.532759e+00 7.288899e+01 4.286856e+01
      vertex   7.882758e+00 7.160961e+01 4.237293e+01
    endloop
  endfacet
  facet normal 0.000000e+00 -3.612396e-01 9.324730e-01
    outer loop
      vertex   7.882758e+00 7.160961e+01 4.237293e+01
      vertex   1.532759e+00 7.288899e+01 4.286856e+01
      vertex   1.532759e+00 7.160961e+01 4.237293e+01
    endloop
  endfacet
  facet normal 0.000000e+00 0.000000e+00 1.000000e+00
    outer loop
      vertex   7.882758e+00 7.160961e+01 4.237293e+01
      vertex   1.532759e+00 7.160961e+01 4.237293e+01
      vertex   7.882758e+00 7.023757e+01 4.237293e+01
    endloop
  endfacet
  facet normal 0.000000e+00 0.000000e+00 1.000000e+00
    outer loop
      vertex   7.882758e+00 7.023757e+01 4.237293e+01
      vertex   1.532759e+00 7.160961e+01 4.237293e+01
      vertex   1.532759e+00 7.023757e+01 4.237293e+01
    endloop
  endfacet
  facet normal 0.000000e+00 3.612396e-01 9.324730e-01
    outer loop
      vertex   7.882758e+00 7.023757e+01 4.237293e+01
      vertex   1.532759e+00 7.023757e+01 4.237293e+01
      vertex   7.882758e+00 6.895818e+01 4.286856e+01
    endloop
  endfacet
  facet normal 0.000000e+00 3.612396e-01 9.324730e-01
    outer loop
      vertex   7.882758e+00 6.895818e+01 4.286856e+01
      vertex   1.532759e+00 7.023757e+01 4.237293e+01
      vertex   1.532759e+00 6.895818e+01 4.286856e+01
    endloop
  endfacet
  facet normal 0.000000e+00 6.736959e-01 7.390087e-01
    outer loop
      vertex   7.882758e+00 6.895818e+01 4.286856e+01
      vertex   1.532759e+00 6.895818e+01 4.286856e+01
      vertex   7.882758e+00 6.794423e+01 4.379290e+01
    endloop
  endfacet
  facet normal 0.000000e+00 6.736959e-01 7.390087e-01
    outer loop
      vertex   7.882758e+00 6.794423e+01 4.379290e+01
      vertex   1.532759e+00 6.895818e+01 4.286856e+01
      vertex   1.532759e+00 6.794423e+01 4.379290e+01
    endloop
  endfacet
  facet normal 0.000000e+00 8.951641e-01 4.457366e-01
    outer loop
      vertex   7.882758e+00 6.794423e+01 4.379290e+01
      vertex   1.532759e+00 6.794423e+01 4.379290e+01
      vertex   7.882758e+00 6.733266e+01 4.502110e+01
    endloop
  endfacet
  facet normal 0.000000e+00 8.951641e-01 4.457366e-01
    outer loop
      vertex   7.882758e+00 6.733266e+01 4.502110e+01
      vertex   1.532759e+00 6.794423e+01 4.379290e+01
      vertex   1.532759e+00 6.733266e+01 4.502110e+01
    endloop
  endfacet
  facet normal 0.000000e+00 9.957339e-01 9.227159e-02
    outer loop
      vertex   7.882758e+00 6.733266e+01 4.502110e+01
      vertex   1.532759e+00 6.733266e+01 4.502110e+01
      vertex   7.882758e+00 6.720606e+01 4.638729e+01
    endloop
  endfacet
  facet normal 0.000000e+00 9.957339e-01 9.227159e-02
    outer loop
      vertex   7.882758e+00 6.720606e+01 4.638729e+01
      vertex   1.532759e+00 6.733266e+01 4.502110e+01
      vertex   1.532759e+00 6.720606e+01 4.638729e+01
    endloop
  endfacet
  facet normal 0.000000e+00 9.618247e-01 -2.736661e-01
    outer loop
      vertex   7.882758e+00 6.720606e+01 4.638729e+01
      vertex   1.532759e+00 6.720606e+01 4.638729e+01
      vertex   7.882758e+00 6.758154e+01 4.770695e+01
    endloop
  endfacet
  facet normal 0.000000e+00 9.618247e-01 -2.736661e-01
    outer loop
      vertex   7.882758e+00 6.758154e+01 4.770695e+01
      vertex   1.532759e+00 6.720606e+01 4.638729e+01
      vertex   1.532759e+00 6.758154e+01 4.770695e+01
    endloop
  endfacet
  facet normal 0.000000e+00 7.980189e-01 -6.026325e-01
    outer loop
      vertex   7.882758e+00 6.758154e+01 4.770695e+01
      vertex   1.532759e+00 6.758154e+01 4.770695e+01
      vertex   7.882758e+00 6.840838e+01 4.880186e+01
    endloop
  endfacet
  facet normal 0.000000e+00 7.980189e-01 -6.026325e-01
    outer loop
      vertex   7.882758e+00 6.840838e+01 4.880186e+01
      vertex   1.532759e+00 6.758154e+01 4.770695e+01
      vertex   1.532759e+00 6.840838e+01 4.880186e+01
    endloop
  endfacet
  facet normal 0.000000e+00 5.264320e-01 -8.502172e-01
    outer loop
      vertex   7.882758e+00 6.840838e+01 4.880186e+01
      vertex   1.532759e+00 6.840838e+01 4.880186e+01
      vertex   7.882758e+00 6.957491e+01 4.952415e+01
    endloop
  endfacet
  facet normal 0.000000e+00 5.264320e-01 -8.502172e-01
    outer loop
      vertex   7.882758e+00 6.957491e+01 4.952415e+01
      vertex   1.532759e+00 6.840838e+01 4.880186e+01
      vertex   1.532759e+00 6.957491e+01 4.952415e+01
    endloop
  endfacet
endsolid
