solid ASCII
  facet normal 0.000000e+00 1.000000e+00 -0.000000e+00
    outer loop
      vertex   3.810000e+00 -6.599113e+00 0.000000e+00
      vertex   -3.810000e+00 -6.599113e+00 0.000000e+00
      vertex   3.810000e+00 -6.599113e+00 7.620000e+01
    endloop
  endfacet
  facet normal 0.000000e+00 1.000000e+00 0.000000e+00
    outer loop
      vertex   3.810000e+00 -6.599113e+00 7.620000e+01
      vertex   -3.810000e+00 -6.599113e+00 0.000000e+00
      vertex   -3.810000e+00 -6.599113e+00 7.620000e+01
    endloop
  endfacet
  facet normal 8.660254e-01 5.000000e-01 -0.000000e+00
    outer loop
      vertex   -3.810000e+00 -6.599113e+00 0.000000e+00
      vertex   -7.620000e+00 0.000000e+00 0.000000e+00
      vertex   -3.810000e+00 -6.599113e+00 7.620000e+01
    endloop
  endfacet
  facet normal 8.660254e-01 5.000000e-01 0.000000e+00
    outer loop
      vertex   -3.810000e+00 -6.599113e+00 7.620000e+01
      vertex   -7.620000e+00 0.000000e+00 0.000000e+00
      vertex   -7.620000e+00 0.000000e+00 7.620000e+01
    endloop
  endfacet
  facet normal 8.660254e-01 -5.000000e-01 0.000000e+00
    outer loop
      vertex   -7.620000e+00 0.000000e+00 0.000000e+00
      vertex   -3.810000e+00 6.599113e+00 0.000000e+00
      vertex   -7.620000e+00 0.000000e+00 7.620000e+01
    endloop
  endfacet
  facet normal 8.660254e-01 -5.000000e-01 0.000000e+00
    outer loop
      vertex   -7.620000e+00 0.000000e+00 7.620000e+01
      vertex   -3.810000e+00 6.599113e+00 0.000000e+00
      vertex   -3.810000e+00 6.599113e+00 7.620000e+01
    endloop
  endfacet
  facet normal 0.000000e+00 -1.000000e+00 0.000000e+00
    outer loop
      vertex   -3.810000e+00 6.599113e+00 0.000000e+00
      vertex   3.810000e+00 6.599113e+00 0.000000e+00
      vertex   -3.810000e+00 6.599113e+00 7.620000e+01
    endloop
  endfacet
  facet normal 0.000000e+00 -1.000000e+00 0.000000e+00
    outer loop
      vertex   -3.810000e+00 6.599113e+00 7.620000e+01
      vertex   3.810000e+00 6.599113e+00 0.000000e+00
      vertex   3.810000e+00 6.599113e+00 7.620000e+01
    endloop
  endfacet
  facet normal -8.660254e-01 -5.000000e-01 0.000000e+00
    outer loop
      vertex   3.810000e+00 6.599113e+00 0.000000e+00
      vertex   7.620000e+00 0.000000e+00 0.000000e+00
      vertex   3.810000e+00 6.599113e+00 7.620000e+01
    endloop
  endfacet
  facet normal -8.660254e-01 -5.000000e-01 0.000000e+00
    outer loop
      vertex   3.810000e+00 6.599113e+00 7.620000e+01
      vertex   7.620000e+00 0.000000e+00 0.000000e+00
      vertex   7.620000e+00 0.000000e+00 7.620000e+01
    endloop
  endfacet
  facet normal -8.660254e-01 5.000000e-01 0.000000e+00
    outer loop
      vertex   7.620000e+00 0.000000e+00 0.000000e+00
      vertex   3.810000e+00 -6.599113e+00 0.000000e+00
      vertex   7.620000e+00 0.000000e+00 7.620000e+01
    endloop
  endfacet
  facet normal -8.660254e-01 5.000000e-01 0.000000e+00
    outer loop
      vertex   7.620000e+00 0.000000e+00 7.620000e+01
      vertex   3.810000e+00 -6.599113e+00 0.000000e+00
      vertex   3.810000e+00 -6.599113e+00 7.620000e+01
    endloop
  endfacet
  facet normal 0.000000e+00 -1.000000e+00 0.000000e+00
    outer loop
      vertex   -1.270000e+01 -2.199704e+01 0.000000e+00
      vertex   1.270000e+01 -2.199704e+01 0.000000e+00
      vertex   -1.270000e+01 -2.199704e+01 7.620000e+01
    endloop
  endfacet
  facet normal 0.000000e+00 -1.000000e+00 0.000000e+00
    outer loop
      vertex   -1.270000e+01 -2.199704e+01 7.620000e+01
      vertex   1.270000e+01 -2.199704e+01 0.000000e+00
      vertex   1.270000e+01 -2.199704e+01 7.620000e+01
    endloop
  endfacet
  facet normal -8.660254e-01 -5.000000e-01 0.000000e+00
    outer loop
      vertex   -2.540000e+01 0.000000e+00 0.000000e+00
      vertex   -1.270000e+01 -2.199704e+01 0.000000e+00
      vertex   -2.540000e+01 0.000000e+00 7.620000e+01
    endloop
  endfacet
  facet normal -8.660254e-01 -5.000000e-01 0.000000e+00
    outer loop
      vertex   -2.540000e+01 0.000000e+00 7.620000e+01
      vertex   -1.270000e+01 -2.199704e+01 0.000000e+00
      vertex   -1.270000e+01 -2.199704e+01 7.620000e+01
    endloop
  endfacet
  facet normal -8.660254e-01 5.000000e-01 0.000000e+00
    outer loop
      vertex   -1.270000e+01 2.199704e+01 0.000000e+00
      vertex   -2.540000e+01 0.000000e+00 0.000000e+00
      vertex   -1.270000e+01 2.199704e+01 7.620000e+01
    endloop
  endfacet
  facet normal -8.660254e-01 5.000000e-01 0.000000e+00
    outer loop
      vertex   -1.270000e+01 2.199704e+01 7.620000e+01
      vertex   -2.540000e+01 0.000000e+00 0.000000e+00
      vertex   -2.540000e+01 0.000000e+00 7.620000e+01
    endloop
  endfacet
  facet normal 0.000000e+00 1.000000e+00 -0.000000e+00
    outer loop
      vertex   1.270000e+01 2.199704e+01 0.000000e+00
      vertex   -1.270000e+01 2.199704e+01 0.000000e+00
      vertex   1.270000e+01 2.199704e+01 7.620000e+01
    endloop
  endfacet
  facet normal 0.000000e+00 1.000000e+00 0.000000e+00
    outer loop
      vertex   1.270000e+01 2.199704e+01 7.620000e+01
      vertex   -1.270000e+01 2.199704e+01 0.000000e+00
      vertex   -1.270000e+01 2.199704e+01 7.620000e+01
    endloop
  endfacet
  facet normal 8.660254e-01 5.000000e-01 -0.000000e+00
    outer loop
      vertex   2.540000e+01 0.000000e+00 0.000000e+00
      vertex   1.270000e+01 2.199704e+01 0.000000e+00
      vertex   2.540000e+01 0.000000e+00 7.620000e+01
    endloop
  endfacet
  facet normal 8.660254e-01 5.000000e-01 0.000000e+00
    outer loop
      vertex   2.540000e+01 0.000000e+00 7.620000e+01
      vertex   1.270000e+01 2.199704e+01 0.000000e+00
      vertex   1.270000e+01 2.199704e+01 7.620000e+01
    endloop
  endfacet
  facet normal 8.660254e-01 -5.000000e-01 0.000000e+00
    outer loop
      vertex   1.270000e+01 -2.199704e+01 0.000000e+00
      vertex   2.540000e+01 0.000000e+00 0.000000e+00
      vertex   1.270000e+01 -2.199704e+01 7.620000e+01
    endloop
  endfacet
  facet normal 8.660254e-01 -5.000000e-01 0.000000e+00
    outer loop
      vertex   1.270000e+01 -2.199704e+01 7.620000e+01
      vertex   2.540000e+01 0.000000e+00 0.000000e+00
      vertex   2.540000e+01 0.000000e+00 7.620000e+01
    endloop
  endfacet
  facet normal -0.000000e+00 0.000000e+00 -1.000000e+00
    outer loop
      vertex   3.810000e+00 -6.599113e+00 0.000000e+00
      vertex   -1.270000e+01 -2.199704e+01 0.000000e+00
      vertex   -3.810000e+00 -6.599113e+00 0.000000e+00
    endloop
  endfacet
  facet normal -0.000000e+00 0.000000e+00 -1.000000e+00
    outer loop
      vertex   -3.810000e+00 -6.599113e+00 0.000000e+00
      vertex   -1.270000e+01 -2.199704e+01 0.000000e+00
      vertex   -2.540000e+01 0.000000e+00 0.000000e+00
    endloop
  endfacet
  facet normal 0.000000e+00 0.000000e+00 -1.000000e+00
    outer loop
      vertex   -3.810000e+00 -6.599113e+00 0.000000e+00
      vertex   -2.540000e+01 0.000000e+00 0.000000e+00
      vertex   -7.620000e+00 0.000000e+00 0.000000e+00
    endloop
  endfacet
  facet normal 0.000000e+00 0.000000e+00 -1.000000e+00
    outer loop
      vertex   -7.620000e+00 0.000000e+00 0.000000e+00
      vertex   -2.540000e+01 0.000000e+00 0.000000e+00
      vertex   -3.810000e+00 6.599113e+00 0.000000e+00
    endloop
  endfacet
  facet normal -0.000000e+00 0.000000e+00 -1.000000e+00
    outer loop
      vertex   -3.810000e+00 6.599113e+00 0.000000e+00
      vertex   -2.540000e+01 0.000000e+00 0.000000e+00
      vertex   -1.270000e+01 2.199704e+01 0.000000e+00
    endloop
  endfacet
  facet normal 0.000000e+00 0.000000e+00 -1.000000e+00
    outer loop
      vertex   -3.810000e+00 6.599113e+00 0.000000e+00
      vertex   -1.270000e+01 2.199704e+01 0.000000e+00
      vertex   1.270000e+01 2.199704e+01 0.000000e+00
    endloop
  endfacet
  facet normal 0.000000e+00 -0.000000e+00 -1.000000e+00
    outer loop
      vertex   7.620000e+00 0.000000e+00 0.000000e+00
      vertex   2.540000e+01 0.000000e+00 0.000000e+00
      vertex   3.810000e+00 -6.599113e+00 0.000000e+00
    endloop
  endfacet
  facet normal 0.000000e+00 0.000000e+00 -1.000000e+00
    outer loop
      vertex   3.810000e+00 -6.599113e+00 0.000000e+00
      vertex   2.540000e+01 0.000000e+00 0.000000e+00
      vertex   1.270000e+01 -2.199704e+01 0.000000e+00
    endloop
  endfacet
  facet normal 0.000000e+00 -0.000000e+00 -1.000000e+00
    outer loop
      vertex   3.810000e+00 -6.599113e+00 0.000000e+00
      vertex   1.270000e+01 -2.199704e+01 0.000000e+00
      vertex   -1.270000e+01 -2.199704e+01 0.000000e+00
    endloop
  endfacet
  facet normal 0.000000e+00 0.000000e+00 -1.000000e+00
    outer loop
      vertex   7.620000e+00 0.000000e+00 0.000000e+00
      vertex   3.810000e+00 6.599113e+00 0.000000e+00
      vertex   2.540000e+01 0.000000e+00 0.000000e+00
    endloop
  endfacet
  facet normal 0.000000e+00 0.000000e+00 -1.000000e+00
    outer loop
      vertex   2.540000e+01 0.000000e+00 0.000000e+00
      vertex   3.810000e+00 6.599113e+00 0.000000e+00
      vertex   1.270000e+01 2.199704e+01 0.000000e+00
    endloop
  endfacet
  facet normal 0.000000e+00 0.000000e+00 -1.000000e+00
    outer loop
      vertex   1.270000e+01 2.199704e+01 0.000000e+00
      vertex   3.810000e+00 6.599113e+00 0.000000e+00
      vertex   -3.810000e+00 6.599113e+00 0.000000e+00
    endloop
  endfacet
  facet normal -0.000000e+00 0.000000e+00 1.000000e+00
    outer loop
      vertex   -3.810000e+00 -6.599113e+00 7.620000e+01
      vertex   1.270000e+01 -2.199704e+01 7.620000e+01
      vertex   3.810000e+00 -6.599113e+00 7.620000e+01
    endloop
  endfacet
  facet normal -0.000000e+00 0.000000e+00 1.000000e+00
    outer loop
      vertex   3.810000e+00 -6.599113e+00 7.620000e+01
      vertex   1.270000e+01 -2.199704e+01 7.620000e+01
      vertex   2.540000e+01 0.000000e+00 7.620000e+01
    endloop
  endfacet
  facet normal 0.000000e+00 0.000000e+00 1.000000e+00
    outer loop
      vertex   3.810000e+00 -6.599113e+00 7.620000e+01
      vertex   2.540000e+01 0.000000e+00 7.620000e+01
      vertex   7.620000e+00 0.000000e+00 7.620000e+01
    endloop
  endfacet
  facet normal 0.000000e+00 -0.000000e+00 1.000000e+00
    outer loop
      vertex   7.620000e+00 0.000000e+00 7.620000e+01
      vertex   2.540000e+01 0.000000e+00 7.620000e+01
      vertex   3.810000e+00 6.599113e+00 7.620000e+01
    endloop
  endfacet
  facet normal -0.000000e+00 0.000000e+00 1.000000e+00
    outer loop
      vertex   3.810000e+00 6.599113e+00 7.620000e+01
      vertex   2.540000e+01 0.000000e+00 7.620000e+01
      vertex   1.270000e+01 2.199704e+01 7.620000e+01
    endloop
  endfacet
  facet normal 0.000000e+00 -0.000000e+00 1.000000e+00
    outer loop
      vertex   3.810000e+00 6.599113e+00 7.620000e+01
      vertex   1.270000e+01 2.199704e+01 7.620000e+01
      vertex   -1.270000e+01 2.199704e+01 7.620000e+01
    endloop
  endfacet
  facet normal 0.000000e+00 0.000000e+00 1.000000e+00
    outer loop
      vertex   -7.620000e+00 0.000000e+00 7.620000e+01
      vertex   -2.540000e+01 0.000000e+00 7.620000e+01
      vertex   -3.810000e+00 -6.599113e+00 7.620000e+01
    endloop
  endfacet
  facet normal 0.000000e+00 0.000000e+00 1.000000e+00
    outer loop
      vertex   -3.810000e+00 -6.599113e+00 7.620000e+01
      vertex   -2.540000e+01 0.000000e+00 7.620000e+01
      vertex   -1.270000e+01 -2.199704e+01 7.620000e+01
    endloop
  endfacet
  facet normal 0.000000e+00 0.000000e+00 1.000000e+00
    outer loop
      vertex   -3.810000e+00 -6.599113e+00 7.620000e+01
      vertex   -1.270000e+01 -2.199704e+01 7.620000e+01
      vertex   1.270000e+01 -2.199704e+01 7.620000e+01
    endloop
  endfacet
  facet normal 0.000000e+00 -0.000000e+00 1.000000e+00
    outer loop
      vertex   -7.620000e+00 0.000000e+00 7.620000e+01
      vertex   -3.810000e+00 6.599113e+00 7.620000e+01
      vertex   -2.540000e+01 0.000000e+00 7.620000e+01
    endloop
  endfacet
  facet normal 0.000000e+00 0.000000e+00 1.000000e+00
    outer loop
      vertex   -2.540000e+01 0.000000e+00 7.620000e+01
      vertex   -3.810000e+00 6.599113e+00 7.620000e+01
      vertex   -1.270000e+01 2.199704e+01 7.620000e+01
    endloop
  endfacet
  facet normal 0.000000e+00 0.000000e+00 1.000000e+00
    outer loop
      vertex   -1.270000e+01 2.199704e+01 7.620000e+01
      vertex   -3.810000e+00 6.599113e+00 7.620000e+01
      vertex   3.810000e+00 6.599113e+00 7.620000e+01
    endloop
  endfacet
endsolid
