solid ASCII
  facet normal -0.000000e+00 -9.954719e-01 -9.505611e-02
    outer loop
      vertex   8.128000e+00 7.482297e+00 1.442094e+00
      vertex   0.000000e+00 7.482297e+00 1.442094e+00
      vertex   8.128000e+00 7.620000e+00 0.000000e+00
    endloop
  endfacet
  facet normal -0.000000e+00 -9.954719e-01 -9.505611e-02
    outer loop
      vertex   8.128000e+00 7.620000e+00 0.000000e+00
      vertex   0.000000e+00 7.482297e+00 1.442094e+00
      vertex   0.000000e+00 7.620000e+00 0.000000e+00
    endloop
  endfacet
  facet normal 0.000000e+00 -9.954719e-01 9.505611e-02
    outer loop
      vertex   8.128000e+00 7.620000e+00 0.000000e+00
      vertex   0.000000e+00 7.620000e+00 0.000000e+00
      vertex   8.128000e+00 7.482297e+00 -1.442094e+00
    endloop
  endfacet
  facet normal 0.000000e+00 -9.954719e-01 9.505611e-02
    outer loop
      vertex   8.128000e+00 7.482297e+00 -1.442094e+00
      vertex   0.000000e+00 7.620000e+00 0.000000e+00
      vertex   0.000000e+00 7.482297e+00 -1.442094e+00
    endloop
  endfacet
  facet normal 0.000000e+00 -9.594929e-01 2.817327e-01
    outer loop
      vertex   8.128000e+00 7.482297e+00 -1.442094e+00
      vertex   0.000000e+00 7.482297e+00 -1.442094e+00
      vertex   8.128000e+00 7.074164e+00 -2.832068e+00
    endloop
  endfacet
  facet normal 0.000000e+00 -9.594929e-01 2.817327e-01
    outer loop
      vertex   8.128000e+00 7.074164e+00 -2.832068e+00
      vertex   0.000000e+00 7.482297e+00 -1.442094e+00
      vertex   0.000000e+00 7.074164e+00 -2.832068e+00
    endloop
  endfacet
  facet normal 0.000000e+00 -8.888355e-01 4.582265e-01
    outer loop
      vertex   8.128000e+00 7.074164e+00 -2.832068e+00
      vertex   0.000000e+00 7.074164e+00 -2.832068e+00
      vertex   8.128000e+00 6.410352e+00 -4.119683e+00
    endloop
  endfacet
  facet normal 0.000000e+00 -8.888355e-01 4.582265e-01
    outer loop
      vertex   8.128000e+00 6.410352e+00 -4.119683e+00
      vertex   0.000000e+00 7.074164e+00 -2.832068e+00
      vertex   0.000000e+00 6.410352e+00 -4.119683e+00
    endloop
  endfacet
  facet normal 0.000000e+00 -7.860532e-01 6.181588e-01
    outer loop
      vertex   8.128000e+00 6.410352e+00 -4.119683e+00
      vertex   0.000000e+00 6.410352e+00 -4.119683e+00
      vertex   8.128000e+00 5.514854e+00 -5.258402e+00
    endloop
  endfacet
  facet normal 0.000000e+00 -7.860532e-01 6.181588e-01
    outer loop
      vertex   8.128000e+00 5.514854e+00 -5.258402e+00
      vertex   0.000000e+00 6.410352e+00 -4.119683e+00
      vertex   0.000000e+00 5.514854e+00 -5.258402e+00
    endloop
  endfacet
  facet normal 0.000000e+00 -6.548605e-01 7.557497e-01
    outer loop
      vertex   8.128000e+00 5.514854e+00 -5.258402e+00
      vertex   0.000000e+00 5.514854e+00 -5.258402e+00
      vertex   8.128000e+00 4.420034e+00 -6.207069e+00
    endloop
  endfacet
  facet normal 0.000000e+00 -6.548605e-01 7.557497e-01
    outer loop
      vertex   8.128000e+00 4.420034e+00 -6.207069e+00
      vertex   0.000000e+00 5.514854e+00 -5.258402e+00
      vertex   0.000000e+00 4.420034e+00 -6.207069e+00
    endloop
  endfacet
  facet normal 0.000000e+00 -4.999999e-01 8.660255e-01
    outer loop
      vertex   8.128000e+00 4.420034e+00 -6.207069e+00
      vertex   0.000000e+00 4.420034e+00 -6.207069e+00
      vertex   8.128000e+00 3.165462e+00 -6.931396e+00
    endloop
  endfacet
  facet normal 0.000000e+00 -4.999999e-01 8.660255e-01
    outer loop
      vertex   8.128000e+00 3.165462e+00 -6.931396e+00
      vertex   0.000000e+00 4.420034e+00 -6.207069e+00
      vertex   0.000000e+00 3.165462e+00 -6.931396e+00
    endloop
  endfacet
  facet normal 0.000000e+00 -3.270682e-01 9.450007e-01
    outer loop
      vertex   8.128000e+00 3.165462e+00 -6.931396e+00
      vertex   0.000000e+00 3.165462e+00 -6.931396e+00
      vertex   8.128000e+00 1.796483e+00 -7.405204e+00
    endloop
  endfacet
  facet normal 0.000000e+00 -3.270682e-01 9.450007e-01
    outer loop
      vertex   8.128000e+00 1.796483e+00 -7.405204e+00
      vertex   0.000000e+00 3.165462e+00 -6.931396e+00
      vertex   0.000000e+00 1.796483e+00 -7.405204e+00
    endloop
  endfacet
  facet normal 0.000000e+00 -1.423147e-01 9.898215e-01
    outer loop
      vertex   8.128000e+00 1.796483e+00 -7.405204e+00
      vertex   0.000000e+00 1.796483e+00 -7.405204e+00
      vertex   8.128000e+00 3.625742e-01 -7.611369e+00
    endloop
  endfacet
  facet normal 0.000000e+00 -1.423147e-01 9.898215e-01
    outer loop
      vertex   8.128000e+00 3.625742e-01 -7.611369e+00
      vertex   0.000000e+00 1.796483e+00 -7.405204e+00
      vertex   0.000000e+00 3.625742e-01 -7.611369e+00
    endloop
  endfacet
  facet normal 0.000000e+00 4.758195e-02 9.988673e-01
    outer loop
      vertex   8.128000e+00 3.625742e-01 -7.611369e+00
      vertex   0.000000e+00 3.625742e-01 -7.611369e+00
      vertex   8.128000e+00 -1.084439e+00 -7.542439e+00
    endloop
  endfacet
  facet normal 0.000000e+00 4.758195e-02 9.988673e-01
    outer loop
      vertex   8.128000e+00 -1.084439e+00 -7.542439e+00
      vertex   0.000000e+00 3.625742e-01 -7.611369e+00
      vertex   0.000000e+00 -1.084439e+00 -7.542439e+00
    endloop
  endfacet
  facet normal 0.000000e+00 2.357587e-01 9.718116e-01
    outer loop
      vertex   8.128000e+00 -1.084439e+00 -7.542439e+00
      vertex   0.000000e+00 -1.084439e+00 -7.542439e+00
      vertex   8.128000e+00 -2.492258e+00 -7.200906e+00
    endloop
  endfacet
  facet normal 0.000000e+00 2.357587e-01 9.718116e-01
    outer loop
      vertex   8.128000e+00 -2.492258e+00 -7.200906e+00
      vertex   0.000000e+00 -1.084439e+00 -7.542439e+00
      vertex   0.000000e+00 -2.492258e+00 -7.200906e+00
    endloop
  endfacet
  facet normal 0.000000e+00 4.154152e-01 9.096319e-01
    outer loop
      vertex   8.128000e+00 -2.492258e+00 -7.200906e+00
      vertex   0.000000e+00 -2.492258e+00 -7.200906e+00
      vertex   8.128000e+00 -3.810000e+00 -6.599113e+00
    endloop
  endfacet
  facet normal 0.000000e+00 4.154152e-01 9.096319e-01
    outer loop
      vertex   8.128000e+00 -3.810000e+00 -6.599113e+00
      vertex   0.000000e+00 -2.492258e+00 -7.200906e+00
      vertex   0.000000e+00 -3.810000e+00 -6.599113e+00
    endloop
  endfacet
  facet normal 0.000000e+00 5.800568e-01 8.145760e-01
    outer loop
      vertex   8.128000e+00 -3.810000e+00 -6.599113e+00
      vertex   0.000000e+00 -3.810000e+00 -6.599113e+00
      vertex   8.128000e+00 -4.990039e+00 -5.758812e+00
    endloop
  endfacet
  facet normal 0.000000e+00 5.800568e-01 8.145760e-01
    outer loop
      vertex   8.128000e+00 -4.990039e+00 -5.758812e+00
      vertex   0.000000e+00 -3.810000e+00 -6.599113e+00
      vertex   0.000000e+00 -4.990039e+00 -5.758812e+00
    endloop
  endfacet
  facet normal 0.000000e+00 7.237341e-01 6.900789e-01
    outer loop
      vertex   8.128000e+00 -4.990039e+00 -5.758812e+00
      vertex   0.000000e+00 -4.990039e+00 -5.758812e+00
      vertex   8.128000e+00 -5.989724e+00 -4.710371e+00
    endloop
  endfacet
  facet normal 0.000000e+00 7.237341e-01 6.900789e-01
    outer loop
      vertex   8.128000e+00 -5.989724e+00 -4.710371e+00
      vertex   0.000000e+00 -4.990039e+00 -5.758812e+00
      vertex   0.000000e+00 -5.989724e+00 -4.710371e+00
    endloop
  endfacet
  facet normal 0.000000e+00 8.412536e-01 5.406407e-01
    outer loop
      vertex   8.128000e+00 -5.989724e+00 -4.710371e+00
      vertex   0.000000e+00 -5.989724e+00 -4.710371e+00
      vertex   8.128000e+00 -6.772926e+00 -3.491686e+00
    endloop
  endfacet
  facet normal 0.000000e+00 8.412536e-01 5.406407e-01
    outer loop
      vertex   8.128000e+00 -6.772926e+00 -3.491686e+00
      vertex   0.000000e+00 -5.989724e+00 -4.710371e+00
      vertex   0.000000e+00 -6.772926e+00 -3.491686e+00
    endloop
  endfacet
  facet normal 0.000000e+00 9.283679e-01 3.716626e-01
    outer loop
      vertex   8.128000e+00 -6.772926e+00 -3.491686e+00
      vertex   0.000000e+00 -6.772926e+00 -3.491686e+00
      vertex   8.128000e+00 -7.311336e+00 -2.146802e+00
    endloop
  endfacet
  facet normal 0.000000e+00 9.283679e-01 3.716626e-01
    outer loop
      vertex   8.128000e+00 -7.311336e+00 -2.146802e+00
      vertex   0.000000e+00 -6.772926e+00 -3.491686e+00
      vertex   0.000000e+00 -7.311336e+00 -2.146802e+00
    endloop
  endfacet
  facet normal 0.000000e+00 9.819287e-01 1.892515e-01
    outer loop
      vertex   8.128000e+00 -7.311336e+00 -2.146802e+00
      vertex   0.000000e+00 -7.311336e+00 -2.146802e+00
      vertex   8.128000e+00 -7.585496e+00 -7.243270e-01
    endloop
  endfacet
  facet normal 0.000000e+00 9.819287e-01 1.892515e-01
    outer loop
      vertex   8.128000e+00 -7.585496e+00 -7.243270e-01
      vertex   0.000000e+00 -7.311336e+00 -2.146802e+00
      vertex   0.000000e+00 -7.585496e+00 -7.243270e-01
    endloop
  endfacet
  facet normal 0.000000e+00 1.000000e+00 -0.000000e+00
    outer loop
      vertex   8.128000e+00 -7.585496e+00 -7.243270e-01
      vertex   0.000000e+00 -7.585496e+00 -7.243270e-01
      vertex   8.128000e+00 -7.585496e+00 7.243270e-01
    endloop
  endfacet
  facet normal 0.000000e+00 1.000000e+00 0.000000e+00
    outer loop
      vertex   8.128000e+00 -7.585496e+00 7.243270e-01
      vertex   0.000000e+00 -7.585496e+00 -7.243270e-01
      vertex   0.000000e+00 -7.585496e+00 7.243270e-01
    endloop
  endfacet
  facet normal 0.000000e+00 9.819287e-01 -1.892515e-01
    outer loop
      vertex   8.128000e+00 -7.585496e+00 7.243270e-01
      vertex   0.000000e+00 -7.585496e+00 7.243270e-01
      vertex   8.128000e+00 -7.311336e+00 2.146802e+00
    endloop
  endfacet
  facet normal 0.000000e+00 9.819287e-01 -1.892515e-01
    outer loop
      vertex   8.128000e+00 -7.311336e+00 2.146802e+00
      vertex   0.000000e+00 -7.585496e+00 7.243270e-01
      vertex   0.000000e+00 -7.311336e+00 2.146802e+00
    endloop
  endfacet
  facet normal 0.000000e+00 9.283679e-01 -3.716626e-01
    outer loop
      vertex   8.128000e+00 -7.311336e+00 2.146802e+00
      vertex   0.000000e+00 -7.311336e+00 2.146802e+00
      vertex   8.128000e+00 -6.772926e+00 3.491686e+00
    endloop
  endfacet
  facet normal 0.000000e+00 9.283679e-01 -3.716626e-01
    outer loop
      vertex   8.128000e+00 -6.772926e+00 3.491686e+00
      vertex   0.000000e+00 -7.311336e+00 2.146802e+00
      vertex   0.000000e+00 -6.772926e+00 3.491686e+00
    endloop
  endfacet
  facet normal 0.000000e+00 8.412536e-01 -5.406407e-01
    outer loop
      vertex   8.128000e+00 -6.772926e+00 3.491686e+00
      vertex   0.000000e+00 -6.772926e+00 3.491686e+00
      vertex   8.128000e+00 -5.989724e+00 4.710371e+00
    endloop
  endfacet
  facet normal 0.000000e+00 8.412536e-01 -5.406407e-01
    outer loop
      vertex   8.128000e+00 -5.989724e+00 4.710371e+00
      vertex   0.000000e+00 -6.772926e+00 3.491686e+00
      vertex   0.000000e+00 -5.989724e+00 4.710371e+00
    endloop
  endfacet
  facet normal 0.000000e+00 7.237341e-01 -6.900789e-01
    outer loop
      vertex   8.128000e+00 -5.989724e+00 4.710371e+00
      vertex   0.000000e+00 -5.989724e+00 4.710371e+00
      vertex   8.128000e+00 -4.990039e+00 5.758812e+00
    endloop
  endfacet
  facet normal 0.000000e+00 7.237341e-01 -6.900789e-01
    outer loop
      vertex   8.128000e+00 -4.990039e+00 5.758812e+00
      vertex   0.000000e+00 -5.989724e+00 4.710371e+00
      vertex   0.000000e+00 -4.990039e+00 5.758812e+00
    endloop
  endfacet
  facet normal 0.000000e+00 5.800568e-01 -8.145760e-01
    outer loop
      vertex   8.128000e+00 -4.990039e+00 5.758812e+00
      vertex   0.000000e+00 -4.990039e+00 5.758812e+00
      vertex   8.128000e+00 -3.810000e+00 6.599113e+00
    endloop
  endfacet
  facet normal 0.000000e+00 5.800568e-01 -8.145760e-01
    outer loop
      vertex   8.128000e+00 -3.810000e+00 6.599113e+00
      vertex   0.000000e+00 -4.990039e+00 5.758812e+00
      vertex   0.000000e+00 -3.810000e+00 6.599113e+00
    endloop
  endfacet
  facet normal 0.000000e+00 4.154152e-01 -9.096319e-01
    outer loop
      vertex   8.128000e+00 -3.810000e+00 6.599113e+00
      vertex   0.000000e+00 -3.810000e+00 6.599113e+00
      vertex   8.128000e+00 -2.492258e+00 7.200906e+00
    endloop
  endfacet
  facet normal 0.000000e+00 4.154152e-01 -9.096319e-01
    outer loop
      vertex   8.128000e+00 -2.492258e+00 7.200906e+00
      vertex   0.000000e+00 -3.810000e+00 6.599113e+00
      vertex   0.000000e+00 -2.492258e+00 7.200906e+00
    endloop
  endfacet
  facet normal 0.000000e+00 2.357587e-01 -9.718116e-01
    outer loop
      vertex   8.128000e+00 -2.492258e+00 7.200906e+00
      vertex   0.000000e+00 -2.492258e+00 7.200906e+00
      vertex   8.128000e+00 -1.084439e+00 7.542439e+00
    endloop
  endfacet
  facet normal 0.000000e+00 2.357587e-01 -9.718116e-01
    outer loop
      vertex   8.128000e+00 -1.084439e+00 7.542439e+00
      vertex   0.000000e+00 -2.492258e+00 7.200906e+00
      vertex   0.000000e+00 -1.084439e+00 7.542439e+00
    endloop
  endfacet
  facet normal 0.000000e+00 4.758195e-02 -9.988673e-01
    outer loop
      vertex   8.128000e+00 -1.084439e+00 7.542439e+00
      vertex   0.000000e+00 -1.084439e+00 7.542439e+00
      vertex   8.128000e+00 3.625742e-01 7.611369e+00
    endloop
  endfacet
  facet normal 0.000000e+00 4.758195e-02 -9.988673e-01
    outer loop
      vertex   8.128000e+00 3.625742e-01 7.611369e+00
      vertex   0.000000e+00 -1.084439e+00 7.542439e+00
      vertex   0.000000e+00 3.625742e-01 7.611369e+00
    endloop
  endfacet
  facet normal -0.000000e+00 -1.423147e-01 -9.898215e-01
    outer loop
      vertex   8.128000e+00 3.625742e-01 7.611369e+00
      vertex   0.000000e+00 3.625742e-01 7.611369e+00
      vertex   8.128000e+00 1.796483e+00 7.405204e+00
    endloop
  endfacet
  facet normal -0.000000e+00 -1.423147e-01 -9.898215e-01
    outer loop
      vertex   8.128000e+00 1.796483e+00 7.405204e+00
      vertex   0.000000e+00 3.625742e-01 7.611369e+00
      vertex   0.000000e+00 1.796483e+00 7.405204e+00
    endloop
  endfacet
  facet normal -0.000000e+00 -3.270682e-01 -9.450007e-01
    outer loop
      vertex   8.128000e+00 1.796483e+00 7.405204e+00
      vertex   0.000000e+00 1.796483e+00 7.405204e+00
      vertex   8.128000e+00 3.165462e+00 6.931396e+00
    endloop
  endfacet
  facet normal -0.000000e+00 -3.270682e-01 -9.450007e-01
    outer loop
      vertex   8.128000e+00 3.165462e+00 6.931396e+00
      vertex   0.000000e+00 1.796483e+00 7.405204e+00
      vertex   0.000000e+00 3.165462e+00 6.931396e+00
    endloop
  endfacet
  facet normal -0.000000e+00 -4.999999e-01 -8.660255e-01
    outer loop
      vertex   8.128000e+00 3.165462e+00 6.931396e+00
      vertex   0.000000e+00 3.165462e+00 6.931396e+00
      vertex   8.128000e+00 4.420034e+00 6.207069e+00
    endloop
  endfacet
  facet normal -0.000000e+00 -4.999999e-01 -8.660255e-01
    outer loop
      vertex   8.128000e+00 4.420034e+00 6.207069e+00
      vertex   0.000000e+00 3.165462e+00 6.931396e+00
      vertex   0.000000e+00 4.420034e+00 6.207069e+00
    endloop
  endfacet
  facet normal -0.000000e+00 -6.548605e-01 -7.557497e-01
    outer loop
      vertex   8.128000e+00 4.420034e+00 6.207069e+00
      vertex   0.000000e+00 4.420034e+00 6.207069e+00
      vertex   8.128000e+00 5.514854e+00 5.258402e+00
    endloop
  endfacet
  facet normal -0.000000e+00 -6.548605e-01 -7.557497e-01
    outer loop
      vertex   8.128000e+00 5.514854e+00 5.258402e+00
      vertex   0.000000e+00 4.420034e+00 6.207069e+00
      vertex   0.000000e+00 5.514854e+00 5.258402e+00
    endloop
  endfacet
  facet normal -0.000000e+00 -7.860532e-01 -6.181588e-01
    outer loop
      vertex   8.128000e+00 5.514854e+00 5.258402e+00
      vertex   0.000000e+00 5.514854e+00 5.258402e+00
      vertex   8.128000e+00 6.410352e+00 4.119683e+00
    endloop
  endfacet
  facet normal -0.000000e+00 -7.860532e-01 -6.181588e-01
    outer loop
      vertex   8.128000e+00 6.410352e+00 4.119683e+00
      vertex   0.000000e+00 5.514854e+00 5.258402e+00
      vertex   0.000000e+00 6.410352e+00 4.119683e+00
    endloop
  endfacet
  facet normal -0.000000e+00 -8.888355e-01 -4.582265e-01
    outer loop
      vertex   8.128000e+00 6.410352e+00 4.119683e+00
      vertex   0.000000e+00 6.410352e+00 4.119683e+00
      vertex   8.128000e+00 7.074164e+00 2.832068e+00
    endloop
  endfacet
  facet normal -0.000000e+00 -8.888355e-01 -4.582265e-01
    outer loop
      vertex   8.128000e+00 7.074164e+00 2.832068e+00
      vertex   0.000000e+00 6.410352e+00 4.119683e+00
      vertex   0.000000e+00 7.074164e+00 2.832068e+00
    endloop
  endfacet
  facet normal -0.000000e+00 -9.594929e-01 -2.817327e-01
    outer loop
      vertex   8.128000e+00 7.074164e+00 2.832068e+00
      vertex   0.000000e+00 7.074164e+00 2.832068e+00
      vertex   8.128000e+00 7.482297e+00 1.442094e+00
    endloop
  endfacet
  facet normal -0.000000e+00 -9.594929e-01 -2.817327e-01
    outer loop
      vertex   8.128000e+00 7.482297e+00 1.442094e+00
      vertex   0.000000e+00 7.074164e+00 2.832068e+00
      vertex   0.000000e+00 7.482297e+00 1.442094e+00
    endloop
  endfacet
  facet normal 0.000000e+00 9.985827e-01 -5.322183e-02
    outer loop
      vertex   8.128000e+00 2.525610e+01 -2.699855e+00
      vertex   0.000000e+00 2.525610e+01 -2.699855e+00
      vertex   8.128000e+00 2.540000e+01 0.000000e+00
    endloop
  endfacet
  facet normal 0.000000e+00 9.985827e-01 -5.322183e-02
    outer loop
      vertex   8.128000e+00 2.540000e+01 0.000000e+00
      vertex   0.000000e+00 2.525610e+01 -2.699855e+00
      vertex   0.000000e+00 2.540000e+01 0.000000e+00
    endloop
  endfacet
  facet normal 0.000000e+00 9.985827e-01 5.322183e-02
    outer loop
      vertex   8.128000e+00 2.540000e+01 0.000000e+00
      vertex   0.000000e+00 2.540000e+01 0.000000e+00
      vertex   8.128000e+00 2.525610e+01 2.699855e+00
    endloop
  endfacet
  facet normal 0.000000e+00 9.985827e-01 5.322183e-02
    outer loop
      vertex   8.128000e+00 2.525610e+01 2.699855e+00
      vertex   0.000000e+00 2.540000e+01 0.000000e+00
      vertex   0.000000e+00 2.525610e+01 2.699855e+00
    endloop
  endfacet
  facet normal 0.000000e+00 9.872683e-01 1.590641e-01
    outer loop
      vertex   8.128000e+00 2.525610e+01 2.699855e+00
      vertex   0.000000e+00 2.525610e+01 2.699855e+00
      vertex   8.128000e+00 2.482605e+01 5.369118e+00
    endloop
  endfacet
  facet normal 0.000000e+00 9.872683e-01 1.590641e-01
    outer loop
      vertex   8.128000e+00 2.482605e+01 5.369118e+00
      vertex   0.000000e+00 2.525610e+01 2.699855e+00
      vertex   0.000000e+00 2.482605e+01 5.369118e+00
    endloop
  endfacet
  facet normal 0.000000e+00 9.647680e-01 2.631022e-01
    outer loop
      vertex   8.128000e+00 2.482605e+01 5.369118e+00
      vertex   0.000000e+00 2.482605e+01 5.369118e+00
      vertex   8.128000e+00 2.411470e+01 7.977548e+00
    endloop
  endfacet
  facet normal 0.000000e+00 9.647680e-01 2.631022e-01
    outer loop
      vertex   8.128000e+00 2.411470e+01 7.977548e+00
      vertex   0.000000e+00 2.482605e+01 5.369118e+00
      vertex   0.000000e+00 2.411470e+01 7.977548e+00
    endloop
  endfacet
  facet normal 0.000000e+00 9.313362e-01 3.641604e-01
    outer loop
      vertex   8.128000e+00 2.411470e+01 7.977548e+00
      vertex   0.000000e+00 2.411470e+01 7.977548e+00
      vertex   8.128000e+00 2.313012e+01 1.049559e+01
    endloop
  endfacet
  facet normal 0.000000e+00 9.313362e-01 3.641604e-01
    outer loop
      vertex   8.128000e+00 2.313012e+01 1.049559e+01
      vertex   0.000000e+00 2.411470e+01 7.977548e+00
      vertex   0.000000e+00 2.313012e+01 1.049559e+01
    endloop
  endfacet
  facet normal 0.000000e+00 8.873520e-01 4.610927e-01
    outer loop
      vertex   8.128000e+00 2.313012e+01 1.049559e+01
      vertex   0.000000e+00 2.313012e+01 1.049559e+01
      vertex   8.128000e+00 2.188347e+01 1.289471e+01
    endloop
  endfacet
  facet normal 0.000000e+00 8.873520e-01 4.610927e-01
    outer loop
      vertex   8.128000e+00 2.188347e+01 1.289471e+01
      vertex   0.000000e+00 2.313012e+01 1.049559e+01
      vertex   0.000000e+00 2.188347e+01 1.289471e+01
    endloop
  endfacet
  facet normal 0.000000e+00 8.333139e-01 5.528001e-01
    outer loop
      vertex   8.128000e+00 2.188347e+01 1.289471e+01
      vertex   0.000000e+00 2.188347e+01 1.289471e+01
      vertex   8.128000e+00 2.038888e+01 1.514773e+01
    endloop
  endfacet
  facet normal 0.000000e+00 8.333139e-01 5.528001e-01
    outer loop
      vertex   8.128000e+00 2.038888e+01 1.514773e+01
      vertex   0.000000e+00 2.188347e+01 1.289471e+01
      vertex   0.000000e+00 2.038888e+01 1.514773e+01
    endloop
  endfacet
  facet normal 0.000000e+00 7.698340e-01 6.382441e-01
    outer loop
      vertex   8.128000e+00 2.038888e+01 1.514773e+01
      vertex   0.000000e+00 2.038888e+01 1.514773e+01
      vertex   8.128000e+00 1.866326e+01 1.722912e+01
    endloop
  endfacet
  facet normal 0.000000e+00 7.698340e-01 6.382441e-01
    outer loop
      vertex   8.128000e+00 1.866326e+01 1.722912e+01
      vertex   0.000000e+00 2.038888e+01 1.514773e+01
      vertex   0.000000e+00 1.866326e+01 1.722912e+01
    endloop
  endfacet
  facet normal 0.000000e+00 6.976315e-01 7.164568e-01
    outer loop
      vertex   8.128000e+00 1.866326e+01 1.722912e+01
      vertex   0.000000e+00 1.866326e+01 1.722912e+01
      vertex   8.128000e+00 1.672619e+01 1.911530e+01
    endloop
  endfacet
  facet normal 0.000000e+00 6.976315e-01 7.164568e-01
    outer loop
      vertex   8.128000e+00 1.672619e+01 1.911530e+01
      vertex   0.000000e+00 1.866326e+01 1.722912e+01
      vertex   0.000000e+00 1.672619e+01 1.911530e+01
    endloop
  endfacet
  facet normal 0.000000e+00 6.175246e-01 7.865516e-01
    outer loop
      vertex   8.128000e+00 1.672619e+01 1.911530e+01
      vertex   0.000000e+00 1.672619e+01 1.911530e+01
      vertex   8.128000e+00 1.459960e+01 2.078489e+01
    endloop
  endfacet
  facet normal 0.000000e+00 6.175246e-01 7.865516e-01
    outer loop
      vertex   8.128000e+00 1.459960e+01 2.078489e+01
      vertex   0.000000e+00 1.672619e+01 1.911530e+01
      vertex   0.000000e+00 1.459960e+01 2.078489e+01
    endloop
  endfacet
  facet normal 0.000000e+00 5.304212e-01 8.477342e-01
    outer loop
      vertex   8.128000e+00 1.459960e+01 2.078489e+01
      vertex   0.000000e+00 1.459960e+01 2.078489e+01
      vertex   8.128000e+00 1.230759e+01 2.221898e+01
    endloop
  endfacet
  facet normal 0.000000e+00 5.304212e-01 8.477342e-01
    outer loop
      vertex   8.128000e+00 1.230759e+01 2.221898e+01
      vertex   0.000000e+00 1.459960e+01 2.078489e+01
      vertex   0.000000e+00 1.230759e+01 2.221898e+01
    endloop
  endfacet
  facet normal 0.000000e+00 4.373071e-01 8.993122e-01
    outer loop
      vertex   8.128000e+00 1.230759e+01 2.221898e+01
      vertex   0.000000e+00 1.230759e+01 2.221898e+01
      vertex   8.128000e+00 9.876134e+00 2.340132e+01
    endloop
  endfacet
  facet normal 0.000000e+00 4.373071e-01 8.993122e-01
    outer loop
      vertex   8.128000e+00 9.876134e+00 2.340132e+01
      vertex   0.000000e+00 1.230759e+01 2.221898e+01
      vertex   0.000000e+00 9.876134e+00 2.340132e+01
    endloop
  endfacet
  facet normal 0.000000e+00 3.392384e-01 9.407004e-01
    outer loop
      vertex   8.128000e+00 9.876134e+00 2.340132e+01
      vertex   0.000000e+00 9.876134e+00 2.340132e+01
      vertex   8.128000e+00 7.332776e+00 2.431852e+01
    endloop
  endfacet
  facet normal 0.000000e+00 3.392384e-01 9.407004e-01
    outer loop
      vertex   8.128000e+00 7.332776e+00 2.431852e+01
      vertex   0.000000e+00 9.876134e+00 2.340132e+01
      vertex   0.000000e+00 7.332776e+00 2.431852e+01
    endloop
  endfacet
  facet normal 0.000000e+00 2.373271e-01 9.714298e-01
    outer loop
      vertex   8.128000e+00 7.332776e+00 2.431852e+01
      vertex   0.000000e+00 7.332776e+00 2.431852e+01
      vertex   8.128000e+00 4.706334e+00 2.496018e+01
    endloop
  endfacet
  facet normal 0.000000e+00 2.373271e-01 9.714298e-01
    outer loop
      vertex   8.128000e+00 4.706334e+00 2.496018e+01
      vertex   0.000000e+00 7.332776e+00 2.431852e+01
      vertex   0.000000e+00 4.706334e+00 2.496018e+01
    endloop
  endfacet
  facet normal 0.000000e+00 1.327257e-01 9.911528e-01
    outer loop
      vertex   8.128000e+00 4.706334e+00 2.496018e+01
      vertex   0.000000e+00 4.706334e+00 2.496018e+01
      vertex   8.128000e+00 2.026567e+00 2.531903e+01
    endloop
  endfacet
  facet normal 0.000000e+00 1.327257e-01 9.911528e-01
    outer loop
      vertex   8.128000e+00 2.026567e+00 2.531903e+01
      vertex   0.000000e+00 4.706334e+00 2.496018e+01
      vertex   0.000000e+00 2.026567e+00 2.531903e+01
    endloop
  endfacet
  facet normal 0.000000e+00 2.662062e-02 9.996456e-01
    outer loop
      vertex   8.128000e+00 2.026567e+00 2.531903e+01
      vertex   0.000000e+00 2.026567e+00 2.531903e+01
      vertex   8.128000e+00 -6.761613e-01 2.539100e+01
    endloop
  endfacet
  facet normal 0.000000e+00 2.662062e-02 9.996456e-01
    outer loop
      vertex   8.128000e+00 -6.761613e-01 2.539100e+01
      vertex   0.000000e+00 2.026567e+00 2.531903e+01
      vertex   0.000000e+00 -6.761613e-01 2.539100e+01
    endloop
  endfacet
  facet normal 0.000000e+00 -7.978602e-02 9.968120e-01
    outer loop
      vertex   8.128000e+00 -6.761613e-01 2.539100e+01
      vertex   0.000000e+00 -6.761613e-01 2.539100e+01
      vertex   8.128000e+00 -3.371228e+00 2.517528e+01
    endloop
  endfacet
  facet normal 0.000000e+00 -7.978602e-02 9.968120e-01
    outer loop
      vertex   8.128000e+00 -3.371228e+00 2.517528e+01
      vertex   0.000000e+00 -6.761613e-01 2.539100e+01
      vertex   0.000000e+00 -3.371228e+00 2.517528e+01
    endloop
  endfacet
  facet normal 0.000000e+00 -1.852887e-01 9.826841e-01
    outer loop
      vertex   8.128000e+00 -3.371228e+00 2.517528e+01
      vertex   0.000000e+00 -3.371228e+00 2.517528e+01
      vertex   8.128000e+00 -6.028098e+00 2.467432e+01
    endloop
  endfacet
  facet normal 0.000000e+00 -1.852887e-01 9.826841e-01
    outer loop
      vertex   8.128000e+00 -6.028098e+00 2.467432e+01
      vertex   0.000000e+00 -3.371228e+00 2.517528e+01
      vertex   0.000000e+00 -6.028098e+00 2.467432e+01
    endloop
  endfacet
  facet normal 0.000000e+00 -2.886919e-01 9.574221e-01
    outer loop
      vertex   8.128000e+00 -6.028098e+00 2.467432e+01
      vertex   0.000000e+00 -6.028098e+00 2.467432e+01
      vertex   8.128000e+00 -8.616667e+00 2.389379e+01
    endloop
  endfacet
  facet normal 0.000000e+00 -2.886919e-01 9.574221e-01
    outer loop
      vertex   8.128000e+00 -8.616667e+00 2.389379e+01
      vertex   0.000000e+00 -6.028098e+00 2.467432e+01
      vertex   0.000000e+00 -8.616667e+00 2.389379e+01
    endloop
  endfacet
  facet normal 0.000000e+00 -3.888244e-01 9.213119e-01
    outer loop
      vertex   8.128000e+00 -8.616667e+00 2.389379e+01
      vertex   0.000000e+00 -8.616667e+00 2.389379e+01
      vertex   8.128000e+00 -1.110761e+01 2.284253e+01
    endloop
  endfacet
  facet normal 0.000000e+00 -3.888244e-01 9.213119e-01
    outer loop
      vertex   8.128000e+00 -1.110761e+01 2.284253e+01
      vertex   0.000000e+00 -8.616667e+00 2.389379e+01
      vertex   0.000000e+00 -1.110761e+01 2.284253e+01
    endloop
  endfacet
  facet normal 0.000000e+00 -4.845511e-01 8.747630e-01
    outer loop
      vertex   8.128000e+00 -1.110761e+01 2.284253e+01
      vertex   0.000000e+00 -1.110761e+01 2.284253e+01
      vertex   8.128000e+00 -1.347269e+01 2.153245e+01
    endloop
  endfacet
  facet normal 0.000000e+00 -4.845511e-01 8.747630e-01
    outer loop
      vertex   8.128000e+00 -1.347269e+01 2.153245e+01
      vertex   0.000000e+00 -1.110761e+01 2.284253e+01
      vertex   0.000000e+00 -1.347269e+01 2.153245e+01
    endloop
  endfacet
  facet normal 0.000000e+00 -5.747871e-01 8.183030e-01
    outer loop
      vertex   8.128000e+00 -1.347269e+01 2.153245e+01
      vertex   0.000000e+00 -1.347269e+01 2.153245e+01
      vertex   8.128000e+00 -1.568513e+01 1.997841e+01
    endloop
  endfacet
  facet normal 0.000000e+00 -5.747871e-01 8.183030e-01
    outer loop
      vertex   8.128000e+00 -1.568513e+01 1.997841e+01
      vertex   0.000000e+00 -1.347269e+01 2.153245e+01
      vertex   0.000000e+00 -1.568513e+01 1.997841e+01
    endloop
  endfacet
  facet normal 0.000000e+00 -6.585114e-01 7.525707e-01
    outer loop
      vertex   8.128000e+00 -1.568513e+01 1.997841e+01
      vertex   0.000000e+00 -1.568513e+01 1.997841e+01
      vertex   8.128000e+00 -1.771984e+01 1.819800e+01
    endloop
  endfacet
  facet normal 0.000000e+00 -6.585114e-01 7.525707e-01
    outer loop
      vertex   8.128000e+00 -1.771984e+01 1.819800e+01
      vertex   0.000000e+00 -1.568513e+01 1.997841e+01
      vertex   0.000000e+00 -1.771984e+01 1.819800e+01
    endloop
  endfacet
  facet normal 0.000000e+00 -7.347743e-01 6.783117e-01
    outer loop
      vertex   8.128000e+00 -1.771984e+01 1.819800e+01
      vertex   0.000000e+00 -1.771984e+01 1.819800e+01
      vertex   8.128000e+00 -1.955378e+01 1.621140e+01
    endloop
  endfacet
  facet normal 0.000000e+00 -7.347743e-01 6.783117e-01
    outer loop
      vertex   8.128000e+00 -1.955378e+01 1.621140e+01
      vertex   0.000000e+00 -1.771984e+01 1.819800e+01
      vertex   0.000000e+00 -1.955378e+01 1.621140e+01
    endloop
  endfacet
  facet normal 0.000000e+00 -8.027114e-01 5.963677e-01
    outer loop
      vertex   8.128000e+00 -1.955378e+01 1.621140e+01
      vertex   0.000000e+00 -1.955378e+01 1.621140e+01
      vertex   8.128000e+00 -2.116617e+01 1.404112e+01
    endloop
  endfacet
  facet normal 0.000000e+00 -8.027114e-01 5.963677e-01
    outer loop
      vertex   8.128000e+00 -2.116617e+01 1.404112e+01
      vertex   0.000000e+00 -1.955378e+01 1.621140e+01
      vertex   0.000000e+00 -2.116617e+01 1.404112e+01
    endloop
  endfacet
  facet normal 0.000000e+00 -8.615542e-01 5.076656e-01
    outer loop
      vertex   8.128000e+00 -2.116617e+01 1.404112e+01
      vertex   0.000000e+00 -2.116617e+01 1.404112e+01
      vertex   8.128000e+00 -2.253874e+01 1.171175e+01
    endloop
  endfacet
  facet normal 0.000000e+00 -8.615542e-01 5.076656e-01
    outer loop
      vertex   8.128000e+00 -2.253874e+01 1.171175e+01
      vertex   0.000000e+00 -2.116617e+01 1.404112e+01
      vertex   0.000000e+00 -2.253874e+01 1.171175e+01
    endloop
  endfacet
  facet normal 0.000000e+00 -9.106348e-01 4.132121e-01
    outer loop
      vertex   8.128000e+00 -2.253874e+01 1.171175e+01
      vertex   0.000000e+00 -2.253874e+01 1.171175e+01
      vertex   8.128000e+00 -2.365594e+01 9.249679e+00
    endloop
  endfacet
  facet normal 0.000000e+00 -9.106348e-01 4.132121e-01
    outer loop
      vertex   8.128000e+00 -2.365594e+01 9.249679e+00
      vertex   0.000000e+00 -2.253874e+01 1.171175e+01
      vertex   0.000000e+00 -2.365594e+01 9.249679e+00
    endloop
  endfacet
  facet normal 0.000000e+00 -9.493975e-01 3.140770e-01
    outer loop
      vertex   8.128000e+00 -2.365594e+01 9.249679e+00
      vertex   0.000000e+00 -2.365594e+01 9.249679e+00
      vertex   8.128000e+00 -2.450511e+01 6.682805e+00
    endloop
  endfacet
  facet normal 0.000000e+00 -9.493975e-01 3.140770e-01
    outer loop
      vertex   8.128000e+00 -2.450511e+01 6.682805e+00
      vertex   0.000000e+00 -2.365594e+01 9.249679e+00
      vertex   0.000000e+00 -2.450511e+01 6.682805e+00
    endloop
  endfacet
  facet normal 0.000000e+00 -9.774035e-01 2.113821e-01
    outer loop
      vertex   8.128000e+00 -2.450511e+01 6.682805e+00
      vertex   0.000000e+00 -2.450511e+01 6.682805e+00
      vertex   8.128000e+00 -2.507662e+01 4.040213e+00
    endloop
  endfacet
  facet normal 0.000000e+00 -9.774035e-01 2.113821e-01
    outer loop
      vertex   8.128000e+00 -2.507662e+01 4.040213e+00
      vertex   0.000000e+00 -2.450511e+01 6.682805e+00
      vertex   0.000000e+00 -2.507662e+01 4.040213e+00
    endloop
  endfacet
  facet normal 0.000000e+00 -9.943348e-01 1.062937e-01
    outer loop
      vertex   8.128000e+00 -2.507662e+01 4.040213e+00
      vertex   0.000000e+00 -2.507662e+01 4.040213e+00
      vertex   8.128000e+00 -2.536400e+01 1.351843e+00
    endloop
  endfacet
  facet normal 0.000000e+00 -9.943348e-01 1.062937e-01
    outer loop
      vertex   8.128000e+00 -2.536400e+01 1.351843e+00
      vertex   0.000000e+00 -2.507662e+01 4.040213e+00
      vertex   0.000000e+00 -2.536400e+01 1.351843e+00
    endloop
  endfacet
  facet normal -0.000000e+00 -1.000000e+00 -0.000000e+00
    outer loop
      vertex   8.128000e+00 -2.536400e+01 1.351843e+00
      vertex   0.000000e+00 -2.536400e+01 1.351843e+00
      vertex   8.128000e+00 -2.536400e+01 -1.351843e+00
    endloop
  endfacet
  facet normal 0.000000e+00 -1.000000e+00 0.000000e+00
    outer loop
      vertex   8.128000e+00 -2.536400e+01 -1.351843e+00
      vertex   0.000000e+00 -2.536400e+01 1.351843e+00
      vertex   0.000000e+00 -2.536400e+01 -1.351843e+00
    endloop
  endfacet
  facet normal -0.000000e+00 -9.943348e-01 -1.062937e-01
    outer loop
      vertex   8.128000e+00 -2.536400e+01 -1.351843e+00
      vertex   0.000000e+00 -2.536400e+01 -1.351843e+00
      vertex   8.128000e+00 -2.507662e+01 -4.040213e+00
    endloop
  endfacet
  facet normal -0.000000e+00 -9.943348e-01 -1.062937e-01
    outer loop
      vertex   8.128000e+00 -2.507662e+01 -4.040213e+00
      vertex   0.000000e+00 -2.536400e+01 -1.351843e+00
      vertex   0.000000e+00 -2.507662e+01 -4.040213e+00
    endloop
  endfacet
  facet normal -0.000000e+00 -9.774035e-01 -2.113821e-01
    outer loop
      vertex   8.128000e+00 -2.507662e+01 -4.040213e+00
      vertex   0.000000e+00 -2.507662e+01 -4.040213e+00
      vertex   8.128000e+00 -2.450511e+01 -6.682805e+00
    endloop
  endfacet
  facet normal -0.000000e+00 -9.774035e-01 -2.113821e-01
    outer loop
      vertex   8.128000e+00 -2.450511e+01 -6.682805e+00
      vertex   0.000000e+00 -2.507662e+01 -4.040213e+00
      vertex   0.000000e+00 -2.450511e+01 -6.682805e+00
    endloop
  endfacet
  facet normal -0.000000e+00 -9.493975e-01 -3.140770e-01
    outer loop
      vertex   8.128000e+00 -2.450511e+01 -6.682805e+00
      vertex   0.000000e+00 -2.450511e+01 -6.682805e+00
      vertex   8.128000e+00 -2.365594e+01 -9.249679e+00
    endloop
  endfacet
  facet normal -0.000000e+00 -9.493975e-01 -3.140770e-01
    outer loop
      vertex   8.128000e+00 -2.365594e+01 -9.249679e+00
      vertex   0.000000e+00 -2.450511e+01 -6.682805e+00
      vertex   0.000000e+00 -2.365594e+01 -9.249679e+00
    endloop
  endfacet
  facet normal -0.000000e+00 -9.106348e-01 -4.132121e-01
    outer loop
      vertex   8.128000e+00 -2.365594e+01 -9.249679e+00
      vertex   0.000000e+00 -2.365594e+01 -9.249679e+00
      vertex   8.128000e+00 -2.253874e+01 -1.171175e+01
    endloop
  endfacet
  facet normal -0.000000e+00 -9.106348e-01 -4.132121e-01
    outer loop
      vertex   8.128000e+00 -2.253874e+01 -1.171175e+01
      vertex   0.000000e+00 -2.365594e+01 -9.249679e+00
      vertex   0.000000e+00 -2.253874e+01 -1.171175e+01
    endloop
  endfacet
  facet normal -0.000000e+00 -8.615542e-01 -5.076656e-01
    outer loop
      vertex   8.128000e+00 -2.253874e+01 -1.171175e+01
      vertex   0.000000e+00 -2.253874e+01 -1.171175e+01
      vertex   8.128000e+00 -2.116617e+01 -1.404112e+01
    endloop
  endfacet
  facet normal -0.000000e+00 -8.615542e-01 -5.076656e-01
    outer loop
      vertex   8.128000e+00 -2.116617e+01 -1.404112e+01
      vertex   0.000000e+00 -2.253874e+01 -1.171175e+01
      vertex   0.000000e+00 -2.116617e+01 -1.404112e+01
    endloop
  endfacet
  facet normal -0.000000e+00 -8.027114e-01 -5.963677e-01
    outer loop
      vertex   8.128000e+00 -2.116617e+01 -1.404112e+01
      vertex   0.000000e+00 -2.116617e+01 -1.404112e+01
      vertex   8.128000e+00 -1.955378e+01 -1.621140e+01
    endloop
  endfacet
  facet normal -0.000000e+00 -8.027114e-01 -5.963677e-01
    outer loop
      vertex   8.128000e+00 -1.955378e+01 -1.621140e+01
      vertex   0.000000e+00 -2.116617e+01 -1.404112e+01
      vertex   0.000000e+00 -1.955378e+01 -1.621140e+01
    endloop
  endfacet
  facet normal -0.000000e+00 -7.347743e-01 -6.783117e-01
    outer loop
      vertex   8.128000e+00 -1.955378e+01 -1.621140e+01
      vertex   0.000000e+00 -1.955378e+01 -1.621140e+01
      vertex   8.128000e+00 -1.771984e+01 -1.819800e+01
    endloop
  endfacet
  facet normal -0.000000e+00 -7.347743e-01 -6.783117e-01
    outer loop
      vertex   8.128000e+00 -1.771984e+01 -1.819800e+01
      vertex   0.000000e+00 -1.955378e+01 -1.621140e+01
      vertex   0.000000e+00 -1.771984e+01 -1.819800e+01
    endloop
  endfacet
  facet normal -0.000000e+00 -6.585114e-01 -7.525707e-01
    outer loop
      vertex   8.128000e+00 -1.771984e+01 -1.819800e+01
      vertex   0.000000e+00 -1.771984e+01 -1.819800e+01
      vertex   8.128000e+00 -1.568513e+01 -1.997841e+01
    endloop
  endfacet
  facet normal -0.000000e+00 -6.585114e-01 -7.525707e-01
    outer loop
      vertex   8.128000e+00 -1.568513e+01 -1.997841e+01
      vertex   0.000000e+00 -1.771984e+01 -1.819800e+01
      vertex   0.000000e+00 -1.568513e+01 -1.997841e+01
    endloop
  endfacet
  facet normal -0.000000e+00 -5.747871e-01 -8.183030e-01
    outer loop
      vertex   8.128000e+00 -1.568513e+01 -1.997841e+01
      vertex   0.000000e+00 -1.568513e+01 -1.997841e+01
      vertex   8.128000e+00 -1.347269e+01 -2.153245e+01
    endloop
  endfacet
  facet normal -0.000000e+00 -5.747871e-01 -8.183030e-01
    outer loop
      vertex   8.128000e+00 -1.347269e+01 -2.153245e+01
      vertex   0.000000e+00 -1.568513e+01 -1.997841e+01
      vertex   0.000000e+00 -1.347269e+01 -2.153245e+01
    endloop
  endfacet
  facet normal -0.000000e+00 -4.845511e-01 -8.747630e-01
    outer loop
      vertex   8.128000e+00 -1.347269e+01 -2.153245e+01
      vertex   0.000000e+00 -1.347269e+01 -2.153245e+01
      vertex   8.128000e+00 -1.110761e+01 -2.284253e+01
    endloop
  endfacet
  facet normal -0.000000e+00 -4.845511e-01 -8.747630e-01
    outer loop
      vertex   8.128000e+00 -1.110761e+01 -2.284253e+01
      vertex   0.000000e+00 -1.347269e+01 -2.153245e+01
      vertex   0.000000e+00 -1.110761e+01 -2.284253e+01
    endloop
  endfacet
  facet normal -0.000000e+00 -3.888244e-01 -9.213119e-01
    outer loop
      vertex   8.128000e+00 -1.110761e+01 -2.284253e+01
      vertex   0.000000e+00 -1.110761e+01 -2.284253e+01
      vertex   8.128000e+00 -8.616667e+00 -2.389379e+01
    endloop
  endfacet
  facet normal -0.000000e+00 -3.888244e-01 -9.213119e-01
    outer loop
      vertex   8.128000e+00 -8.616667e+00 -2.389379e+01
      vertex   0.000000e+00 -1.110761e+01 -2.284253e+01
      vertex   0.000000e+00 -8.616667e+00 -2.389379e+01
    endloop
  endfacet
  facet normal -0.000000e+00 -2.886919e-01 -9.574221e-01
    outer loop
      vertex   8.128000e+00 -8.616667e+00 -2.389379e+01
      vertex   0.000000e+00 -8.616667e+00 -2.389379e+01
      vertex   8.128000e+00 -6.028098e+00 -2.467432e+01
    endloop
  endfacet
  facet normal -0.000000e+00 -2.886919e-01 -9.574221e-01
    outer loop
      vertex   8.128000e+00 -6.028098e+00 -2.467432e+01
      vertex   0.000000e+00 -8.616667e+00 -2.389379e+01
      vertex   0.000000e+00 -6.028098e+00 -2.467432e+01
    endloop
  endfacet
  facet normal -0.000000e+00 -1.852887e-01 -9.826841e-01
    outer loop
      vertex   8.128000e+00 -6.028098e+00 -2.467432e+01
      vertex   0.000000e+00 -6.028098e+00 -2.467432e+01
      vertex   8.128000e+00 -3.371228e+00 -2.517528e+01
    endloop
  endfacet
  facet normal -0.000000e+00 -1.852887e-01 -9.826841e-01
    outer loop
      vertex   8.128000e+00 -3.371228e+00 -2.517528e+01
      vertex   0.000000e+00 -6.028098e+00 -2.467432e+01
      vertex   0.000000e+00 -3.371228e+00 -2.517528e+01
    endloop
  endfacet
  facet normal -0.000000e+00 -7.978602e-02 -9.968120e-01
    outer loop
      vertex   8.128000e+00 -3.371228e+00 -2.517528e+01
      vertex   0.000000e+00 -3.371228e+00 -2.517528e+01
      vertex   8.128000e+00 -6.761613e-01 -2.539100e+01
    endloop
  endfacet
  facet normal -0.000000e+00 -7.978602e-02 -9.968120e-01
    outer loop
      vertex   8.128000e+00 -6.761613e-01 -2.539100e+01
      vertex   0.000000e+00 -3.371228e+00 -2.517528e+01
      vertex   0.000000e+00 -6.761613e-01 -2.539100e+01
    endloop
  endfacet
  facet normal 0.000000e+00 2.662062e-02 -9.996456e-01
    outer loop
      vertex   8.128000e+00 -6.761613e-01 -2.539100e+01
      vertex   0.000000e+00 -6.761613e-01 -2.539100e+01
      vertex   8.128000e+00 2.026567e+00 -2.531903e+01
    endloop
  endfacet
  facet normal 0.000000e+00 2.662062e-02 -9.996456e-01
    outer loop
      vertex   8.128000e+00 2.026567e+00 -2.531903e+01
      vertex   0.000000e+00 -6.761613e-01 -2.539100e+01
      vertex   0.000000e+00 2.026567e+00 -2.531903e+01
    endloop
  endfacet
  facet normal 0.000000e+00 1.327257e-01 -9.911528e-01
    outer loop
      vertex   8.128000e+00 2.026567e+00 -2.531903e+01
      vertex   0.000000e+00 2.026567e+00 -2.531903e+01
      vertex   8.128000e+00 4.706334e+00 -2.496018e+01
    endloop
  endfacet
  facet normal 0.000000e+00 1.327257e-01 -9.911528e-01
    outer loop
      vertex   8.128000e+00 4.706334e+00 -2.496018e+01
      vertex   0.000000e+00 2.026567e+00 -2.531903e+01
      vertex   0.000000e+00 4.706334e+00 -2.496018e+01
    endloop
  endfacet
  facet normal 0.000000e+00 2.373271e-01 -9.714298e-01
    outer loop
      vertex   8.128000e+00 4.706334e+00 -2.496018e+01
      vertex   0.000000e+00 4.706334e+00 -2.496018e+01
      vertex   8.128000e+00 7.332776e+00 -2.431852e+01
    endloop
  endfacet
  facet normal 0.000000e+00 2.373271e-01 -9.714298e-01
    outer loop
      vertex   8.128000e+00 7.332776e+00 -2.431852e+01
      vertex   0.000000e+00 4.706334e+00 -2.496018e+01
      vertex   0.000000e+00 7.332776e+00 -2.431852e+01
    endloop
  endfacet
  facet normal 0.000000e+00 3.392384e-01 -9.407004e-01
    outer loop
      vertex   8.128000e+00 7.332776e+00 -2.431852e+01
      vertex   0.000000e+00 7.332776e+00 -2.431852e+01
      vertex   8.128000e+00 9.876134e+00 -2.340132e+01
    endloop
  endfacet
  facet normal 0.000000e+00 3.392384e-01 -9.407004e-01
    outer loop
      vertex   8.128000e+00 9.876134e+00 -2.340132e+01
      vertex   0.000000e+00 7.332776e+00 -2.431852e+01
      vertex   0.000000e+00 9.876134e+00 -2.340132e+01
    endloop
  endfacet
  facet normal 0.000000e+00 4.373071e-01 -8.993122e-01
    outer loop
      vertex   8.128000e+00 9.876134e+00 -2.340132e+01
      vertex   0.000000e+00 9.876134e+00 -2.340132e+01
      vertex   8.128000e+00 1.230759e+01 -2.221898e+01
    endloop
  endfacet
  facet normal 0.000000e+00 4.373071e-01 -8.993122e-01
    outer loop
      vertex   8.128000e+00 1.230759e+01 -2.221898e+01
      vertex   0.000000e+00 9.876134e+00 -2.340132e+01
      vertex   0.000000e+00 1.230759e+01 -2.221898e+01
    endloop
  endfacet
  facet normal 0.000000e+00 5.304212e-01 -8.477342e-01
    outer loop
      vertex   8.128000e+00 1.230759e+01 -2.221898e+01
      vertex   0.000000e+00 1.230759e+01 -2.221898e+01
      vertex   8.128000e+00 1.459960e+01 -2.078489e+01
    endloop
  endfacet
  facet normal 0.000000e+00 5.304212e-01 -8.477342e-01
    outer loop
      vertex   8.128000e+00 1.459960e+01 -2.078489e+01
      vertex   0.000000e+00 1.230759e+01 -2.221898e+01
      vertex   0.000000e+00 1.459960e+01 -2.078489e+01
    endloop
  endfacet
  facet normal 0.000000e+00 6.175246e-01 -7.865516e-01
    outer loop
      vertex   8.128000e+00 1.459960e+01 -2.078489e+01
      vertex   0.000000e+00 1.459960e+01 -2.078489e+01
      vertex   8.128000e+00 1.672619e+01 -1.911530e+01
    endloop
  endfacet
  facet normal 0.000000e+00 6.175246e-01 -7.865516e-01
    outer loop
      vertex   8.128000e+00 1.672619e+01 -1.911530e+01
      vertex   0.000000e+00 1.459960e+01 -2.078489e+01
      vertex   0.000000e+00 1.672619e+01 -1.911530e+01
    endloop
  endfacet
  facet normal 0.000000e+00 6.976315e-01 -7.164568e-01
    outer loop
      vertex   8.128000e+00 1.672619e+01 -1.911530e+01
      vertex   0.000000e+00 1.672619e+01 -1.911530e+01
      vertex   8.128000e+00 1.866326e+01 -1.722912e+01
    endloop
  endfacet
  facet normal 0.000000e+00 6.976315e-01 -7.164568e-01
    outer loop
      vertex   8.128000e+00 1.866326e+01 -1.722912e+01
      vertex   0.000000e+00 1.672619e+01 -1.911530e+01
      vertex   0.000000e+00 1.866326e+01 -1.722912e+01
    endloop
  endfacet
  facet normal 0.000000e+00 7.698340e-01 -6.382441e-01
    outer loop
      vertex   8.128000e+00 1.866326e+01 -1.722912e+01
      vertex   0.000000e+00 1.866326e+01 -1.722912e+01
      vertex   8.128000e+00 2.038888e+01 -1.514773e+01
    endloop
  endfacet
  facet normal 0.000000e+00 7.698340e-01 -6.382441e-01
    outer loop
      vertex   8.128000e+00 2.038888e+01 -1.514773e+01
      vertex   0.000000e+00 1.866326e+01 -1.722912e+01
      vertex   0.000000e+00 2.038888e+01 -1.514773e+01
    endloop
  endfacet
  facet normal 0.000000e+00 8.333139e-01 -5.528001e-01
    outer loop
      vertex   8.128000e+00 2.038888e+01 -1.514773e+01
      vertex   0.000000e+00 2.038888e+01 -1.514773e+01
      vertex   8.128000e+00 2.188347e+01 -1.289471e+01
    endloop
  endfacet
  facet normal 0.000000e+00 8.333139e-01 -5.528001e-01
    outer loop
      vertex   8.128000e+00 2.188347e+01 -1.289471e+01
      vertex   0.000000e+00 2.038888e+01 -1.514773e+01
      vertex   0.000000e+00 2.188347e+01 -1.289471e+01
    endloop
  endfacet
  facet normal 0.000000e+00 8.873520e-01 -4.610927e-01
    outer loop
      vertex   8.128000e+00 2.188347e+01 -1.289471e+01
      vertex   0.000000e+00 2.188347e+01 -1.289471e+01
      vertex   8.128000e+00 2.313012e+01 -1.049559e+01
    endloop
  endfacet
  facet normal 0.000000e+00 8.873520e-01 -4.610927e-01
    outer loop
      vertex   8.128000e+00 2.313012e+01 -1.049559e+01
      vertex   0.000000e+00 2.188347e+01 -1.289471e+01
      vertex   0.000000e+00 2.313012e+01 -1.049559e+01
    endloop
  endfacet
  facet normal 0.000000e+00 9.313362e-01 -3.641604e-01
    outer loop
      vertex   8.128000e+00 2.313012e+01 -1.049559e+01
      vertex   0.000000e+00 2.313012e+01 -1.049559e+01
      vertex   8.128000e+00 2.411470e+01 -7.977548e+00
    endloop
  endfacet
  facet normal 0.000000e+00 9.313362e-01 -3.641604e-01
    outer loop
      vertex   8.128000e+00 2.411470e+01 -7.977548e+00
      vertex   0.000000e+00 2.313012e+01 -1.049559e+01
      vertex   0.000000e+00 2.411470e+01 -7.977548e+00
    endloop
  endfacet
  facet normal 0.000000e+00 9.647680e-01 -2.631022e-01
    outer loop
      vertex   8.128000e+00 2.411470e+01 -7.977548e+00
      vertex   0.000000e+00 2.411470e+01 -7.977548e+00
      vertex   8.128000e+00 2.482605e+01 -5.369118e+00
    endloop
  endfacet
  facet normal 0.000000e+00 9.647680e-01 -2.631022e-01
    outer loop
      vertex   8.128000e+00 2.482605e+01 -5.369118e+00
      vertex   0.000000e+00 2.411470e+01 -7.977548e+00
      vertex   0.000000e+00 2.482605e+01 -5.369118e+00
    endloop
  endfacet
  facet normal 0.000000e+00 9.872683e-01 -1.590641e-01
    outer loop
      vertex   8.128000e+00 2.482605e+01 -5.369118e+00
      vertex   0.000000e+00 2.482605e+01 -5.369118e+00
      vertex   8.128000e+00 2.525610e+01 -2.699855e+00
    endloop
  endfacet
  facet normal 0.000000e+00 9.872683e-01 -1.590641e-01
    outer loop
      vertex   8.128000e+00 2.525610e+01 -2.699855e+00
      vertex   0.000000e+00 2.482605e+01 -5.369118e+00
      vertex   0.000000e+00 2.525610e+01 -2.699855e+00
    endloop
  endfacet
  facet normal -1.000000e+00 0.000000e+00 0.000000e+00
    outer loop
      vertex   0.000000e+00 7.482297e+00 1.442094e+00
      vertex   0.000000e+00 2.525610e+01 2.699855e+00
      vertex   0.000000e+00 7.620000e+00 0.000000e+00
    endloop
  endfacet
  facet normal -1.000000e+00 0.000000e+00 0.000000e+00
    outer loop
      vertex   0.000000e+00 7.620000e+00 0.000000e+00
      vertex   0.000000e+00 2.525610e+01 2.699855e+00
      vertex   0.000000e+00 2.540000e+01 0.000000e+00
    endloop
  endfacet
  facet normal -1.000000e+00 0.000000e+00 0.000000e+00
    outer loop
      vertex   0.000000e+00 7.620000e+00 0.000000e+00
      vertex   0.000000e+00 2.540000e+01 0.000000e+00
      vertex   0.000000e+00 2.525610e+01 -2.699855e+00
    endloop
  endfacet
  facet normal -1.000000e+00 0.000000e+00 0.000000e+00
    outer loop
      vertex   0.000000e+00 7.074164e+00 2.832068e+00
      vertex   0.000000e+00 2.411470e+01 7.977548e+00
      vertex   0.000000e+00 7.482297e+00 1.442094e+00
    endloop
  endfacet
  facet normal -1.000000e+00 0.000000e+00 0.000000e+00
    outer loop
      vertex   0.000000e+00 7.482297e+00 1.442094e+00
      vertex   0.000000e+00 2.411470e+01 7.977548e+00
      vertex   0.000000e+00 2.482605e+01 5.369118e+00
    endloop
  endfacet
  facet normal -1.000000e+00 0.000000e+00 0.000000e+00
    outer loop
      vertex   0.000000e+00 7.482297e+00 1.442094e+00
      vertex   0.000000e+00 2.482605e+01 5.369118e+00
      vertex   0.000000e+00 2.525610e+01 2.699855e+00
    endloop
  endfacet
  facet normal -1.000000e+00 -0.000000e+00 0.000000e+00
    outer loop
      vertex   0.000000e+00 2.411470e+01 7.977548e+00
      vertex   0.000000e+00 7.074164e+00 2.832068e+00
      vertex   0.000000e+00 2.313012e+01 1.049559e+01
    endloop
  endfacet
  facet normal -1.000000e+00 0.000000e+00 0.000000e+00
    outer loop
      vertex   0.000000e+00 2.313012e+01 1.049559e+01
      vertex   0.000000e+00 7.074164e+00 2.832068e+00
      vertex   0.000000e+00 6.410352e+00 4.119683e+00
    endloop
  endfacet
  facet normal -1.000000e+00 -0.000000e+00 0.000000e+00
    outer loop
      vertex   0.000000e+00 2.313012e+01 1.049559e+01
      vertex   0.000000e+00 6.410352e+00 4.119683e+00
      vertex   0.000000e+00 2.188347e+01 1.289471e+01
    endloop
  endfacet
  facet normal -1.000000e+00 -0.000000e+00 0.000000e+00
    outer loop
      vertex   0.000000e+00 2.188347e+01 1.289471e+01
      vertex   0.000000e+00 6.410352e+00 4.119683e+00
      vertex   0.000000e+00 2.038888e+01 1.514773e+01
    endloop
  endfacet
  facet normal -1.000000e+00 0.000000e+00 0.000000e+00
    outer loop
      vertex   0.000000e+00 2.038888e+01 1.514773e+01
      vertex   0.000000e+00 6.410352e+00 4.119683e+00
      vertex   0.000000e+00 5.514854e+00 5.258402e+00
    endloop
  endfacet
  facet normal -1.000000e+00 -0.000000e+00 0.000000e+00
    outer loop
      vertex   0.000000e+00 2.038888e+01 1.514773e+01
      vertex   0.000000e+00 5.514854e+00 5.258402e+00
      vertex   0.000000e+00 1.866326e+01 1.722912e+01
    endloop
  endfacet
  facet normal -1.000000e+00 -0.000000e+00 0.000000e+00
    outer loop
      vertex   0.000000e+00 1.866326e+01 1.722912e+01
      vertex   0.000000e+00 5.514854e+00 5.258402e+00
      vertex   0.000000e+00 1.672619e+01 1.911530e+01
    endloop
  endfacet
  facet normal -1.000000e+00 0.000000e+00 0.000000e+00
    outer loop
      vertex   0.000000e+00 1.672619e+01 1.911530e+01
      vertex   0.000000e+00 5.514854e+00 5.258402e+00
      vertex   0.000000e+00 4.420034e+00 6.207069e+00
    endloop
  endfacet
  facet normal -1.000000e+00 -0.000000e+00 0.000000e+00
    outer loop
      vertex   0.000000e+00 1.672619e+01 1.911530e+01
      vertex   0.000000e+00 4.420034e+00 6.207069e+00
      vertex   0.000000e+00 1.459960e+01 2.078489e+01
    endloop
  endfacet
  facet normal -1.000000e+00 -0.000000e+00 0.000000e+00
    outer loop
      vertex   0.000000e+00 1.459960e+01 2.078489e+01
      vertex   0.000000e+00 4.420034e+00 6.207069e+00
      vertex   0.000000e+00 1.230759e+01 2.221898e+01
    endloop
  endfacet
  facet normal -1.000000e+00 0.000000e+00 0.000000e+00
    outer loop
      vertex   0.000000e+00 1.230759e+01 2.221898e+01
      vertex   0.000000e+00 4.420034e+00 6.207069e+00
      vertex   0.000000e+00 3.165462e+00 6.931396e+00
    endloop
  endfacet
  facet normal -1.000000e+00 -0.000000e+00 0.000000e+00
    outer loop
      vertex   0.000000e+00 1.230759e+01 2.221898e+01
      vertex   0.000000e+00 3.165462e+00 6.931396e+00
      vertex   0.000000e+00 9.876134e+00 2.340132e+01
    endloop
  endfacet
  facet normal -1.000000e+00 -0.000000e+00 0.000000e+00
    outer loop
      vertex   0.000000e+00 9.876134e+00 2.340132e+01
      vertex   0.000000e+00 3.165462e+00 6.931396e+00
      vertex   0.000000e+00 7.332776e+00 2.431852e+01
    endloop
  endfacet
  facet normal -1.000000e+00 0.000000e+00 0.000000e+00
    outer loop
      vertex   0.000000e+00 7.332776e+00 2.431852e+01
      vertex   0.000000e+00 3.165462e+00 6.931396e+00
      vertex   0.000000e+00 1.796483e+00 7.405204e+00
    endloop
  endfacet
  facet normal -1.000000e+00 -0.000000e+00 0.000000e+00
    outer loop
      vertex   0.000000e+00 7.332776e+00 2.431852e+01
      vertex   0.000000e+00 1.796483e+00 7.405204e+00
      vertex   0.000000e+00 4.706334e+00 2.496018e+01
    endloop
  endfacet
  facet normal -1.000000e+00 0.000000e+00 0.000000e+00
    outer loop
      vertex   0.000000e+00 4.706334e+00 2.496018e+01
      vertex   0.000000e+00 1.796483e+00 7.405204e+00
      vertex   0.000000e+00 3.625742e-01 7.611369e+00
    endloop
  endfacet
  facet normal -1.000000e+00 -0.000000e+00 0.000000e+00
    outer loop
      vertex   0.000000e+00 4.706334e+00 2.496018e+01
      vertex   0.000000e+00 3.625742e-01 7.611369e+00
      vertex   0.000000e+00 2.026567e+00 2.531903e+01
    endloop
  endfacet
  facet normal -1.000000e+00 -0.000000e+00 0.000000e+00
    outer loop
      vertex   0.000000e+00 2.026567e+00 2.531903e+01
      vertex   0.000000e+00 3.625742e-01 7.611369e+00
      vertex   0.000000e+00 -6.761613e-01 2.539100e+01
    endloop
  endfacet
  facet normal -1.000000e+00 0.000000e+00 -0.000000e+00
    outer loop
      vertex   0.000000e+00 -6.761613e-01 2.539100e+01
      vertex   0.000000e+00 3.625742e-01 7.611369e+00
      vertex   0.000000e+00 -1.084439e+00 7.542439e+00
    endloop
  endfacet
  facet normal -1.000000e+00 0.000000e+00 0.000000e+00
    outer loop
      vertex   0.000000e+00 -6.761613e-01 2.539100e+01
      vertex   0.000000e+00 -1.084439e+00 7.542439e+00
      vertex   0.000000e+00 -3.371228e+00 2.517528e+01
    endloop
  endfacet
  facet normal -1.000000e+00 0.000000e+00 -0.000000e+00
    outer loop
      vertex   0.000000e+00 -3.371228e+00 2.517528e+01
      vertex   0.000000e+00 -1.084439e+00 7.542439e+00
      vertex   0.000000e+00 -6.028098e+00 2.467432e+01
    endloop
  endfacet
  facet normal -1.000000e+00 0.000000e+00 0.000000e+00
    outer loop
      vertex   0.000000e+00 -6.028098e+00 2.467432e+01
      vertex   0.000000e+00 -1.084439e+00 7.542439e+00
      vertex   0.000000e+00 -2.492258e+00 7.200906e+00
    endloop
  endfacet
  facet normal -1.000000e+00 0.000000e+00 -0.000000e+00
    outer loop
      vertex   0.000000e+00 -6.028098e+00 2.467432e+01
      vertex   0.000000e+00 -2.492258e+00 7.200906e+00
      vertex   0.000000e+00 -8.616667e+00 2.389379e+01
    endloop
  endfacet
  facet normal -1.000000e+00 0.000000e+00 -0.000000e+00
    outer loop
      vertex   0.000000e+00 -8.616667e+00 2.389379e+01
      vertex   0.000000e+00 -2.492258e+00 7.200906e+00
      vertex   0.000000e+00 -1.110761e+01 2.284253e+01
    endloop
  endfacet
  facet normal -1.000000e+00 0.000000e+00 0.000000e+00
    outer loop
      vertex   0.000000e+00 -1.110761e+01 2.284253e+01
      vertex   0.000000e+00 -2.492258e+00 7.200906e+00
      vertex   0.000000e+00 -3.810000e+00 6.599113e+00
    endloop
  endfacet
  facet normal -1.000000e+00 0.000000e+00 -0.000000e+00
    outer loop
      vertex   0.000000e+00 -1.110761e+01 2.284253e+01
      vertex   0.000000e+00 -3.810000e+00 6.599113e+00
      vertex   0.000000e+00 -1.347269e+01 2.153245e+01
    endloop
  endfacet
  facet normal -1.000000e+00 0.000000e+00 -0.000000e+00
    outer loop
      vertex   0.000000e+00 -1.347269e+01 2.153245e+01
      vertex   0.000000e+00 -3.810000e+00 6.599113e+00
      vertex   0.000000e+00 -1.568513e+01 1.997841e+01
    endloop
  endfacet
  facet normal -1.000000e+00 0.000000e+00 0.000000e+00
    outer loop
      vertex   0.000000e+00 -1.568513e+01 1.997841e+01
      vertex   0.000000e+00 -3.810000e+00 6.599113e+00
      vertex   0.000000e+00 -4.990039e+00 5.758812e+00
    endloop
  endfacet
  facet normal -1.000000e+00 0.000000e+00 -0.000000e+00
    outer loop
      vertex   0.000000e+00 -1.568513e+01 1.997841e+01
      vertex   0.000000e+00 -4.990039e+00 5.758812e+00
      vertex   0.000000e+00 -1.771984e+01 1.819800e+01
    endloop
  endfacet
  facet normal -1.000000e+00 0.000000e+00 0.000000e+00
    outer loop
      vertex   0.000000e+00 -1.771984e+01 1.819800e+01
      vertex   0.000000e+00 -4.990039e+00 5.758812e+00
      vertex   0.000000e+00 -5.989724e+00 4.710371e+00
    endloop
  endfacet
  facet normal -1.000000e+00 0.000000e+00 -0.000000e+00
    outer loop
      vertex   0.000000e+00 -1.771984e+01 1.819800e+01
      vertex   0.000000e+00 -5.989724e+00 4.710371e+00
      vertex   0.000000e+00 -1.955378e+01 1.621140e+01
    endloop
  endfacet
  facet normal -1.000000e+00 0.000000e+00 -0.000000e+00
    outer loop
      vertex   0.000000e+00 -1.955378e+01 1.621140e+01
      vertex   0.000000e+00 -5.989724e+00 4.710371e+00
      vertex   0.000000e+00 -2.116617e+01 1.404112e+01
    endloop
  endfacet
  facet normal -1.000000e+00 0.000000e+00 0.000000e+00
    outer loop
      vertex   0.000000e+00 -2.116617e+01 1.404112e+01
      vertex   0.000000e+00 -5.989724e+00 4.710371e+00
      vertex   0.000000e+00 -6.772926e+00 3.491686e+00
    endloop
  endfacet
  facet normal -1.000000e+00 0.000000e+00 -0.000000e+00
    outer loop
      vertex   0.000000e+00 -2.116617e+01 1.404112e+01
      vertex   0.000000e+00 -6.772926e+00 3.491686e+00
      vertex   0.000000e+00 -2.253874e+01 1.171175e+01
    endloop
  endfacet
  facet normal -1.000000e+00 0.000000e+00 -0.000000e+00
    outer loop
      vertex   0.000000e+00 -2.253874e+01 1.171175e+01
      vertex   0.000000e+00 -6.772926e+00 3.491686e+00
      vertex   0.000000e+00 -2.365594e+01 9.249679e+00
    endloop
  endfacet
  facet normal -1.000000e+00 0.000000e+00 0.000000e+00
    outer loop
      vertex   0.000000e+00 -2.365594e+01 9.249679e+00
      vertex   0.000000e+00 -6.772926e+00 3.491686e+00
      vertex   0.000000e+00 -7.311336e+00 2.146802e+00
    endloop
  endfacet
  facet normal -1.000000e+00 0.000000e+00 -0.000000e+00
    outer loop
      vertex   0.000000e+00 -2.365594e+01 9.249679e+00
      vertex   0.000000e+00 -7.311336e+00 2.146802e+00
      vertex   0.000000e+00 -2.450511e+01 6.682805e+00
    endloop
  endfacet
  facet normal -1.000000e+00 0.000000e+00 -0.000000e+00
    outer loop
      vertex   0.000000e+00 -2.450511e+01 6.682805e+00
      vertex   0.000000e+00 -7.311336e+00 2.146802e+00
      vertex   0.000000e+00 -2.507662e+01 4.040213e+00
    endloop
  endfacet
  facet normal -1.000000e+00 0.000000e+00 0.000000e+00
    outer loop
      vertex   0.000000e+00 -2.507662e+01 4.040213e+00
      vertex   0.000000e+00 -7.311336e+00 2.146802e+00
      vertex   0.000000e+00 -7.585496e+00 7.243270e-01
    endloop
  endfacet
  facet normal -1.000000e+00 0.000000e+00 -0.000000e+00
    outer loop
      vertex   0.000000e+00 -2.507662e+01 4.040213e+00
      vertex   0.000000e+00 -7.585496e+00 7.243270e-01
      vertex   0.000000e+00 -2.536400e+01 1.351843e+00
    endloop
  endfacet
  facet normal -1.000000e+00 0.000000e+00 0.000000e+00
    outer loop
      vertex   0.000000e+00 -2.536400e+01 1.351843e+00
      vertex   0.000000e+00 -7.585496e+00 7.243270e-01
      vertex   0.000000e+00 -7.585496e+00 -7.243270e-01
    endloop
  endfacet
  facet normal -1.000000e+00 0.000000e+00 0.000000e+00
    outer loop
      vertex   0.000000e+00 -2.536400e+01 1.351843e+00
      vertex   0.000000e+00 -7.585496e+00 -7.243270e-01
      vertex   0.000000e+00 -2.536400e+01 -1.351843e+00
    endloop
  endfacet
  facet normal -1.000000e+00 0.000000e+00 0.000000e+00
    outer loop
      vertex   0.000000e+00 -2.536400e+01 -1.351843e+00
      vertex   0.000000e+00 -7.585496e+00 -7.243270e-01
      vertex   0.000000e+00 -2.507662e+01 -4.040213e+00
    endloop
  endfacet
  facet normal -1.000000e+00 0.000000e+00 0.000000e+00
    outer loop
      vertex   0.000000e+00 -2.507662e+01 -4.040213e+00
      vertex   0.000000e+00 -7.585496e+00 -7.243270e-01
      vertex   0.000000e+00 -7.311336e+00 -2.146802e+00
    endloop
  endfacet
  facet normal -1.000000e+00 0.000000e+00 0.000000e+00
    outer loop
      vertex   0.000000e+00 -2.507662e+01 -4.040213e+00
      vertex   0.000000e+00 -7.311336e+00 -2.146802e+00
      vertex   0.000000e+00 -2.450511e+01 -6.682805e+00
    endloop
  endfacet
  facet normal -1.000000e+00 0.000000e+00 0.000000e+00
    outer loop
      vertex   0.000000e+00 -2.450511e+01 -6.682805e+00
      vertex   0.000000e+00 -7.311336e+00 -2.146802e+00
      vertex   0.000000e+00 -2.365594e+01 -9.249679e+00
    endloop
  endfacet
  facet normal -1.000000e+00 0.000000e+00 0.000000e+00
    outer loop
      vertex   0.000000e+00 -2.365594e+01 -9.249679e+00
      vertex   0.000000e+00 -7.311336e+00 -2.146802e+00
      vertex   0.000000e+00 -6.772926e+00 -3.491686e+00
    endloop
  endfacet
  facet normal -1.000000e+00 0.000000e+00 0.000000e+00
    outer loop
      vertex   0.000000e+00 -2.365594e+01 -9.249679e+00
      vertex   0.000000e+00 -6.772926e+00 -3.491686e+00
      vertex   0.000000e+00 -2.253874e+01 -1.171175e+01
    endloop
  endfacet
  facet normal -1.000000e+00 0.000000e+00 0.000000e+00
    outer loop
      vertex   0.000000e+00 -2.253874e+01 -1.171175e+01
      vertex   0.000000e+00 -6.772926e+00 -3.491686e+00
      vertex   0.000000e+00 -2.116617e+01 -1.404112e+01
    endloop
  endfacet
  facet normal -1.000000e+00 0.000000e+00 0.000000e+00
    outer loop
      vertex   0.000000e+00 -2.116617e+01 -1.404112e+01
      vertex   0.000000e+00 -6.772926e+00 -3.491686e+00
      vertex   0.000000e+00 -5.989724e+00 -4.710371e+00
    endloop
  endfacet
  facet normal -1.000000e+00 0.000000e+00 0.000000e+00
    outer loop
      vertex   0.000000e+00 -2.116617e+01 -1.404112e+01
      vertex   0.000000e+00 -5.989724e+00 -4.710371e+00
      vertex   0.000000e+00 -1.955378e+01 -1.621140e+01
    endloop
  endfacet
  facet normal -1.000000e+00 0.000000e+00 0.000000e+00
    outer loop
      vertex   0.000000e+00 -1.955378e+01 -1.621140e+01
      vertex   0.000000e+00 -5.989724e+00 -4.710371e+00
      vertex   0.000000e+00 -1.771984e+01 -1.819800e+01
    endloop
  endfacet
  facet normal -1.000000e+00 0.000000e+00 0.000000e+00
    outer loop
      vertex   0.000000e+00 -1.771984e+01 -1.819800e+01
      vertex   0.000000e+00 -5.989724e+00 -4.710371e+00
      vertex   0.000000e+00 -4.990039e+00 -5.758812e+00
    endloop
  endfacet
  facet normal -1.000000e+00 0.000000e+00 0.000000e+00
    outer loop
      vertex   0.000000e+00 -1.771984e+01 -1.819800e+01
      vertex   0.000000e+00 -4.990039e+00 -5.758812e+00
      vertex   0.000000e+00 -1.568513e+01 -1.997841e+01
    endloop
  endfacet
  facet normal -1.000000e+00 0.000000e+00 0.000000e+00
    outer loop
      vertex   0.000000e+00 -1.568513e+01 -1.997841e+01
      vertex   0.000000e+00 -4.990039e+00 -5.758812e+00
      vertex   0.000000e+00 -3.810000e+00 -6.599113e+00
    endloop
  endfacet
  facet normal -1.000000e+00 0.000000e+00 0.000000e+00
    outer loop
      vertex   0.000000e+00 -1.568513e+01 -1.997841e+01
      vertex   0.000000e+00 -3.810000e+00 -6.599113e+00
      vertex   0.000000e+00 -1.347269e+01 -2.153245e+01
    endloop
  endfacet
  facet normal -1.000000e+00 0.000000e+00 0.000000e+00
    outer loop
      vertex   0.000000e+00 -1.347269e+01 -2.153245e+01
      vertex   0.000000e+00 -3.810000e+00 -6.599113e+00
      vertex   0.000000e+00 -1.110761e+01 -2.284253e+01
    endloop
  endfacet
  facet normal -1.000000e+00 0.000000e+00 0.000000e+00
    outer loop
      vertex   0.000000e+00 -1.110761e+01 -2.284253e+01
      vertex   0.000000e+00 -3.810000e+00 -6.599113e+00
      vertex   0.000000e+00 -2.492258e+00 -7.200906e+00
    endloop
  endfacet
  facet normal -1.000000e+00 0.000000e+00 0.000000e+00
    outer loop
      vertex   0.000000e+00 -1.110761e+01 -2.284253e+01
      vertex   0.000000e+00 -2.492258e+00 -7.200906e+00
      vertex   0.000000e+00 -8.616667e+00 -2.389379e+01
    endloop
  endfacet
  facet normal -1.000000e+00 0.000000e+00 0.000000e+00
    outer loop
      vertex   0.000000e+00 -8.616667e+00 -2.389379e+01
      vertex   0.000000e+00 -2.492258e+00 -7.200906e+00
      vertex   0.000000e+00 -6.028098e+00 -2.467432e+01
    endloop
  endfacet
  facet normal -1.000000e+00 0.000000e+00 0.000000e+00
    outer loop
      vertex   0.000000e+00 -6.028098e+00 -2.467432e+01
      vertex   0.000000e+00 -2.492258e+00 -7.200906e+00
      vertex   0.000000e+00 -1.084439e+00 -7.542439e+00
    endloop
  endfacet
  facet normal -1.000000e+00 0.000000e+00 0.000000e+00
    outer loop
      vertex   0.000000e+00 -6.028098e+00 -2.467432e+01
      vertex   0.000000e+00 -1.084439e+00 -7.542439e+00
      vertex   0.000000e+00 -3.371228e+00 -2.517528e+01
    endloop
  endfacet
  facet normal -1.000000e+00 0.000000e+00 0.000000e+00
    outer loop
      vertex   0.000000e+00 -3.371228e+00 -2.517528e+01
      vertex   0.000000e+00 -1.084439e+00 -7.542439e+00
      vertex   0.000000e+00 -6.761613e-01 -2.539100e+01
    endloop
  endfacet
  facet normal -1.000000e+00 0.000000e+00 0.000000e+00
    outer loop
      vertex   0.000000e+00 -6.761613e-01 -2.539100e+01
      vertex   0.000000e+00 -1.084439e+00 -7.542439e+00
      vertex   0.000000e+00 3.625742e-01 -7.611369e+00
    endloop
  endfacet
  facet normal -1.000000e+00 0.000000e+00 0.000000e+00
    outer loop
      vertex   0.000000e+00 -6.761613e-01 -2.539100e+01
      vertex   0.000000e+00 3.625742e-01 -7.611369e+00
      vertex   0.000000e+00 2.026567e+00 -2.531903e+01
    endloop
  endfacet
  facet normal -1.000000e+00 0.000000e+00 0.000000e+00
    outer loop
      vertex   0.000000e+00 2.026567e+00 -2.531903e+01
      vertex   0.000000e+00 3.625742e-01 -7.611369e+00
      vertex   0.000000e+00 4.706334e+00 -2.496018e+01
    endloop
  endfacet
  facet normal -1.000000e+00 0.000000e+00 0.000000e+00
    outer loop
      vertex   0.000000e+00 4.706334e+00 -2.496018e+01
      vertex   0.000000e+00 3.625742e-01 -7.611369e+00
      vertex   0.000000e+00 1.796483e+00 -7.405204e+00
    endloop
  endfacet
  facet normal -1.000000e+00 0.000000e+00 0.000000e+00
    outer loop
      vertex   0.000000e+00 4.706334e+00 -2.496018e+01
      vertex   0.000000e+00 1.796483e+00 -7.405204e+00
      vertex   0.000000e+00 7.332776e+00 -2.431852e+01
    endloop
  endfacet
  facet normal -1.000000e+00 0.000000e+00 0.000000e+00
    outer loop
      vertex   0.000000e+00 7.332776e+00 -2.431852e+01
      vertex   0.000000e+00 1.796483e+00 -7.405204e+00
      vertex   0.000000e+00 3.165462e+00 -6.931396e+00
    endloop
  endfacet
  facet normal -1.000000e+00 0.000000e+00 0.000000e+00
    outer loop
      vertex   0.000000e+00 7.332776e+00 -2.431852e+01
      vertex   0.000000e+00 3.165462e+00 -6.931396e+00
      vertex   0.000000e+00 9.876134e+00 -2.340132e+01
    endloop
  endfacet
  facet normal -1.000000e+00 0.000000e+00 0.000000e+00
    outer loop
      vertex   0.000000e+00 9.876134e+00 -2.340132e+01
      vertex   0.000000e+00 3.165462e+00 -6.931396e+00
      vertex   0.000000e+00 1.230759e+01 -2.221898e+01
    endloop
  endfacet
  facet normal -1.000000e+00 0.000000e+00 0.000000e+00
    outer loop
      vertex   0.000000e+00 1.230759e+01 -2.221898e+01
      vertex   0.000000e+00 3.165462e+00 -6.931396e+00
      vertex   0.000000e+00 4.420034e+00 -6.207069e+00
    endloop
  endfacet
  facet normal -1.000000e+00 0.000000e+00 0.000000e+00
    outer loop
      vertex   0.000000e+00 1.230759e+01 -2.221898e+01
      vertex   0.000000e+00 4.420034e+00 -6.207069e+00
      vertex   0.000000e+00 1.459960e+01 -2.078489e+01
    endloop
  endfacet
  facet normal -1.000000e+00 0.000000e+00 0.000000e+00
    outer loop
      vertex   0.000000e+00 1.459960e+01 -2.078489e+01
      vertex   0.000000e+00 4.420034e+00 -6.207069e+00
      vertex   0.000000e+00 1.672619e+01 -1.911530e+01
    endloop
  endfacet
  facet normal -1.000000e+00 0.000000e+00 0.000000e+00
    outer loop
      vertex   0.000000e+00 1.672619e+01 -1.911530e+01
      vertex   0.000000e+00 4.420034e+00 -6.207069e+00
      vertex   0.000000e+00 5.514854e+00 -5.258402e+00
    endloop
  endfacet
  facet normal -1.000000e+00 0.000000e+00 0.000000e+00
    outer loop
      vertex   0.000000e+00 1.672619e+01 -1.911530e+01
      vertex   0.000000e+00 5.514854e+00 -5.258402e+00
      vertex   0.000000e+00 1.866326e+01 -1.722912e+01
    endloop
  endfacet
  facet normal -1.000000e+00 0.000000e+00 0.000000e+00
    outer loop
      vertex   0.000000e+00 1.866326e+01 -1.722912e+01
      vertex   0.000000e+00 5.514854e+00 -5.258402e+00
      vertex   0.000000e+00 2.038888e+01 -1.514773e+01
    endloop
  endfacet
  facet normal -1.000000e+00 0.000000e+00 0.000000e+00
    outer loop
      vertex   0.000000e+00 2.038888e+01 -1.514773e+01
      vertex   0.000000e+00 5.514854e+00 -5.258402e+00
      vertex   0.000000e+00 6.410352e+00 -4.119683e+00
    endloop
  endfacet
  facet normal -1.000000e+00 0.000000e+00 0.000000e+00
    outer loop
      vertex   0.000000e+00 2.038888e+01 -1.514773e+01
      vertex   0.000000e+00 6.410352e+00 -4.119683e+00
      vertex   0.000000e+00 2.188347e+01 -1.289471e+01
    endloop
  endfacet
  facet normal -1.000000e+00 0.000000e+00 0.000000e+00
    outer loop
      vertex   0.000000e+00 2.188347e+01 -1.289471e+01
      vertex   0.000000e+00 6.410352e+00 -4.119683e+00
      vertex   0.000000e+00 2.313012e+01 -1.049559e+01
    endloop
  endfacet
  facet normal -1.000000e+00 0.000000e+00 0.000000e+00
    outer loop
      vertex   0.000000e+00 2.313012e+01 -1.049559e+01
      vertex   0.000000e+00 6.410352e+00 -4.119683e+00
      vertex   0.000000e+00 7.074164e+00 -2.832068e+00
    endloop
  endfacet
  facet normal -1.000000e+00 0.000000e+00 0.000000e+00
    outer loop
      vertex   0.000000e+00 2.313012e+01 -1.049559e+01
      vertex   0.000000e+00 7.074164e+00 -2.832068e+00
      vertex   0.000000e+00 2.411470e+01 -7.977548e+00
    endloop
  endfacet
  facet normal -1.000000e+00 0.000000e+00 0.000000e+00
    outer loop
      vertex   0.000000e+00 2.411470e+01 -7.977548e+00
      vertex   0.000000e+00 7.074164e+00 -2.832068e+00
      vertex   0.000000e+00 7.482297e+00 -1.442094e+00
    endloop
  endfacet
  facet normal -1.000000e+00 0.000000e+00 0.000000e+00
    outer loop
      vertex   0.000000e+00 2.411470e+01 -7.977548e+00
      vertex   0.000000e+00 7.482297e+00 -1.442094e+00
      vertex   0.000000e+00 2.482605e+01 -5.369118e+00
    endloop
  endfacet
  facet normal -1.000000e+00 0.000000e+00 0.000000e+00
    outer loop
      vertex   0.000000e+00 2.482605e+01 -5.369118e+00
      vertex   0.000000e+00 7.482297e+00 -1.442094e+00
      vertex   0.000000e+00 2.525610e+01 -2.699855e+00
    endloop
  endfacet
  facet normal -1.000000e+00 0.000000e+00 0.000000e+00
    outer loop
      vertex   0.000000e+00 2.525610e+01 -2.699855e+00
      vertex   0.000000e+00 7.482297e+00 -1.442094e+00
      vertex   0.000000e+00 7.620000e+00 0.000000e+00
    endloop
  endfacet
  facet normal 1.000000e+00 -0.000000e+00 0.000000e+00
    outer loop
      vertex   8.128000e+00 7.482297e+00 -1.442094e+00
      vertex   8.128000e+00 2.525610e+01 -2.699855e+00
      vertex   8.128000e+00 7.620000e+00 0.000000e+00
    endloop
  endfacet
  facet normal 1.000000e+00 -0.000000e+00 0.000000e+00
    outer loop
      vertex   8.128000e+00 7.620000e+00 0.000000e+00
      vertex   8.128000e+00 2.525610e+01 -2.699855e+00
      vertex   8.128000e+00 2.540000e+01 0.000000e+00
    endloop
  endfacet
  facet normal 1.000000e+00 0.000000e+00 0.000000e+00
    outer loop
      vertex   8.128000e+00 7.620000e+00 0.000000e+00
      vertex   8.128000e+00 2.540000e+01 0.000000e+00
      vertex   8.128000e+00 2.525610e+01 2.699855e+00
    endloop
  endfacet
  facet normal 1.000000e+00 -0.000000e+00 0.000000e+00
    outer loop
      vertex   8.128000e+00 7.074164e+00 -2.832068e+00
      vertex   8.128000e+00 2.411470e+01 -7.977548e+00
      vertex   8.128000e+00 7.482297e+00 -1.442094e+00
    endloop
  endfacet
  facet normal 1.000000e+00 0.000000e+00 0.000000e+00
    outer loop
      vertex   8.128000e+00 7.482297e+00 -1.442094e+00
      vertex   8.128000e+00 2.411470e+01 -7.977548e+00
      vertex   8.128000e+00 2.482605e+01 -5.369118e+00
    endloop
  endfacet
  facet normal 1.000000e+00 0.000000e+00 0.000000e+00
    outer loop
      vertex   8.128000e+00 7.482297e+00 -1.442094e+00
      vertex   8.128000e+00 2.482605e+01 -5.369118e+00
      vertex   8.128000e+00 2.525610e+01 -2.699855e+00
    endloop
  endfacet
  facet normal 1.000000e+00 0.000000e+00 0.000000e+00
    outer loop
      vertex   8.128000e+00 2.411470e+01 -7.977548e+00
      vertex   8.128000e+00 7.074164e+00 -2.832068e+00
      vertex   8.128000e+00 2.313012e+01 -1.049559e+01
    endloop
  endfacet
  facet normal 1.000000e+00 0.000000e+00 0.000000e+00
    outer loop
      vertex   8.128000e+00 2.313012e+01 -1.049559e+01
      vertex   8.128000e+00 7.074164e+00 -2.832068e+00
      vertex   8.128000e+00 6.410352e+00 -4.119683e+00
    endloop
  endfacet
  facet normal 1.000000e+00 0.000000e+00 0.000000e+00
    outer loop
      vertex   8.128000e+00 2.313012e+01 -1.049559e+01
      vertex   8.128000e+00 6.410352e+00 -4.119683e+00
      vertex   8.128000e+00 2.188347e+01 -1.289471e+01
    endloop
  endfacet
  facet normal 1.000000e+00 0.000000e+00 0.000000e+00
    outer loop
      vertex   8.128000e+00 2.188347e+01 -1.289471e+01
      vertex   8.128000e+00 6.410352e+00 -4.119683e+00
      vertex   8.128000e+00 2.038888e+01 -1.514773e+01
    endloop
  endfacet
  facet normal 1.000000e+00 0.000000e+00 0.000000e+00
    outer loop
      vertex   8.128000e+00 2.038888e+01 -1.514773e+01
      vertex   8.128000e+00 6.410352e+00 -4.119683e+00
      vertex   8.128000e+00 5.514854e+00 -5.258402e+00
    endloop
  endfacet
  facet normal 1.000000e+00 0.000000e+00 0.000000e+00
    outer loop
      vertex   8.128000e+00 2.038888e+01 -1.514773e+01
      vertex   8.128000e+00 5.514854e+00 -5.258402e+00
      vertex   8.128000e+00 1.866326e+01 -1.722912e+01
    endloop
  endfacet
  facet normal 1.000000e+00 0.000000e+00 0.000000e+00
    outer loop
      vertex   8.128000e+00 1.866326e+01 -1.722912e+01
      vertex   8.128000e+00 5.514854e+00 -5.258402e+00
      vertex   8.128000e+00 1.672619e+01 -1.911530e+01
    endloop
  endfacet
  facet normal 1.000000e+00 0.000000e+00 0.000000e+00
    outer loop
      vertex   8.128000e+00 1.672619e+01 -1.911530e+01
      vertex   8.128000e+00 5.514854e+00 -5.258402e+00
      vertex   8.128000e+00 4.420034e+00 -6.207069e+00
    endloop
  endfacet
  facet normal 1.000000e+00 0.000000e+00 0.000000e+00
    outer loop
      vertex   8.128000e+00 1.672619e+01 -1.911530e+01
      vertex   8.128000e+00 4.420034e+00 -6.207069e+00
      vertex   8.128000e+00 1.459960e+01 -2.078489e+01
    endloop
  endfacet
  facet normal 1.000000e+00 0.000000e+00 0.000000e+00
    outer loop
      vertex   8.128000e+00 1.459960e+01 -2.078489e+01
      vertex   8.128000e+00 4.420034e+00 -6.207069e+00
      vertex   8.128000e+00 1.230759e+01 -2.221898e+01
    endloop
  endfacet
  facet normal 1.000000e+00 0.000000e+00 0.000000e+00
    outer loop
      vertex   8.128000e+00 1.230759e+01 -2.221898e+01
      vertex   8.128000e+00 4.420034e+00 -6.207069e+00
      vertex   8.128000e+00 3.165462e+00 -6.931396e+00
    endloop
  endfacet
  facet normal 1.000000e+00 0.000000e+00 0.000000e+00
    outer loop
      vertex   8.128000e+00 1.230759e+01 -2.221898e+01
      vertex   8.128000e+00 3.165462e+00 -6.931396e+00
      vertex   8.128000e+00 9.876134e+00 -2.340132e+01
    endloop
  endfacet
  facet normal 1.000000e+00 0.000000e+00 0.000000e+00
    outer loop
      vertex   8.128000e+00 9.876134e+00 -2.340132e+01
      vertex   8.128000e+00 3.165462e+00 -6.931396e+00
      vertex   8.128000e+00 7.332776e+00 -2.431852e+01
    endloop
  endfacet
  facet normal 1.000000e+00 0.000000e+00 0.000000e+00
    outer loop
      vertex   8.128000e+00 7.332776e+00 -2.431852e+01
      vertex   8.128000e+00 3.165462e+00 -6.931396e+00
      vertex   8.128000e+00 1.796483e+00 -7.405204e+00
    endloop
  endfacet
  facet normal 1.000000e+00 0.000000e+00 0.000000e+00
    outer loop
      vertex   8.128000e+00 7.332776e+00 -2.431852e+01
      vertex   8.128000e+00 1.796483e+00 -7.405204e+00
      vertex   8.128000e+00 4.706334e+00 -2.496018e+01
    endloop
  endfacet
  facet normal 1.000000e+00 0.000000e+00 0.000000e+00
    outer loop
      vertex   8.128000e+00 4.706334e+00 -2.496018e+01
      vertex   8.128000e+00 1.796483e+00 -7.405204e+00
      vertex   8.128000e+00 3.625742e-01 -7.611369e+00
    endloop
  endfacet
  facet normal 1.000000e+00 0.000000e+00 0.000000e+00
    outer loop
      vertex   8.128000e+00 4.706334e+00 -2.496018e+01
      vertex   8.128000e+00 3.625742e-01 -7.611369e+00
      vertex   8.128000e+00 2.026567e+00 -2.531903e+01
    endloop
  endfacet
  facet normal 1.000000e+00 0.000000e+00 0.000000e+00
    outer loop
      vertex   8.128000e+00 2.026567e+00 -2.531903e+01
      vertex   8.128000e+00 3.625742e-01 -7.611369e+00
      vertex   8.128000e+00 -6.761613e-01 -2.539100e+01
    endloop
  endfacet
  facet normal 1.000000e+00 0.000000e+00 -0.000000e+00
    outer loop
      vertex   8.128000e+00 -6.761613e-01 -2.539100e+01
      vertex   8.128000e+00 3.625742e-01 -7.611369e+00
      vertex   8.128000e+00 -1.084439e+00 -7.542439e+00
    endloop
  endfacet
  facet normal 1.000000e+00 0.000000e+00 0.000000e+00
    outer loop
      vertex   8.128000e+00 -6.761613e-01 -2.539100e+01
      vertex   8.128000e+00 -1.084439e+00 -7.542439e+00
      vertex   8.128000e+00 -3.371228e+00 -2.517528e+01
    endloop
  endfacet
  facet normal 1.000000e+00 0.000000e+00 -0.000000e+00
    outer loop
      vertex   8.128000e+00 -3.371228e+00 -2.517528e+01
      vertex   8.128000e+00 -1.084439e+00 -7.542439e+00
      vertex   8.128000e+00 -6.028098e+00 -2.467432e+01
    endloop
  endfacet
  facet normal 1.000000e+00 0.000000e+00 0.000000e+00
    outer loop
      vertex   8.128000e+00 -6.028098e+00 -2.467432e+01
      vertex   8.128000e+00 -1.084439e+00 -7.542439e+00
      vertex   8.128000e+00 -2.492258e+00 -7.200906e+00
    endloop
  endfacet
  facet normal 1.000000e+00 0.000000e+00 -0.000000e+00
    outer loop
      vertex   8.128000e+00 -6.028098e+00 -2.467432e+01
      vertex   8.128000e+00 -2.492258e+00 -7.200906e+00
      vertex   8.128000e+00 -8.616667e+00 -2.389379e+01
    endloop
  endfacet
  facet normal 1.000000e+00 0.000000e+00 -0.000000e+00
    outer loop
      vertex   8.128000e+00 -8.616667e+00 -2.389379e+01
      vertex   8.128000e+00 -2.492258e+00 -7.200906e+00
      vertex   8.128000e+00 -1.110761e+01 -2.284253e+01
    endloop
  endfacet
  facet normal 1.000000e+00 0.000000e+00 0.000000e+00
    outer loop
      vertex   8.128000e+00 -1.110761e+01 -2.284253e+01
      vertex   8.128000e+00 -2.492258e+00 -7.200906e+00
      vertex   8.128000e+00 -3.810000e+00 -6.599113e+00
    endloop
  endfacet
  facet normal 1.000000e+00 0.000000e+00 -0.000000e+00
    outer loop
      vertex   8.128000e+00 -1.110761e+01 -2.284253e+01
      vertex   8.128000e+00 -3.810000e+00 -6.599113e+00
      vertex   8.128000e+00 -1.347269e+01 -2.153245e+01
    endloop
  endfacet
  facet normal 1.000000e+00 0.000000e+00 -0.000000e+00
    outer loop
      vertex   8.128000e+00 -1.347269e+01 -2.153245e+01
      vertex   8.128000e+00 -3.810000e+00 -6.599113e+00
      vertex   8.128000e+00 -1.568513e+01 -1.997841e+01
    endloop
  endfacet
  facet normal 1.000000e+00 0.000000e+00 0.000000e+00
    outer loop
      vertex   8.128000e+00 -1.568513e+01 -1.997841e+01
      vertex   8.128000e+00 -3.810000e+00 -6.599113e+00
      vertex   8.128000e+00 -4.990039e+00 -5.758812e+00
    endloop
  endfacet
  facet normal 1.000000e+00 0.000000e+00 -0.000000e+00
    outer loop
      vertex   8.128000e+00 -1.568513e+01 -1.997841e+01
      vertex   8.128000e+00 -4.990039e+00 -5.758812e+00
      vertex   8.128000e+00 -1.771984e+01 -1.819800e+01
    endloop
  endfacet
  facet normal 1.000000e+00 0.000000e+00 0.000000e+00
    outer loop
      vertex   8.128000e+00 -1.771984e+01 -1.819800e+01
      vertex   8.128000e+00 -4.990039e+00 -5.758812e+00
      vertex   8.128000e+00 -5.989724e+00 -4.710371e+00
    endloop
  endfacet
  facet normal 1.000000e+00 0.000000e+00 -0.000000e+00
    outer loop
      vertex   8.128000e+00 -1.771984e+01 -1.819800e+01
      vertex   8.128000e+00 -5.989724e+00 -4.710371e+00
      vertex   8.128000e+00 -1.955378e+01 -1.621140e+01
    endloop
  endfacet
  facet normal 1.000000e+00 0.000000e+00 -0.000000e+00
    outer loop
      vertex   8.128000e+00 -1.955378e+01 -1.621140e+01
      vertex   8.128000e+00 -5.989724e+00 -4.710371e+00
      vertex   8.128000e+00 -2.116617e+01 -1.404112e+01
    endloop
  endfacet
  facet normal 1.000000e+00 0.000000e+00 0.000000e+00
    outer loop
      vertex   8.128000e+00 -2.116617e+01 -1.404112e+01
      vertex   8.128000e+00 -5.989724e+00 -4.710371e+00
      vertex   8.128000e+00 -6.772926e+00 -3.491686e+00
    endloop
  endfacet
  facet normal 1.000000e+00 0.000000e+00 -0.000000e+00
    outer loop
      vertex   8.128000e+00 -2.116617e+01 -1.404112e+01
      vertex   8.128000e+00 -6.772926e+00 -3.491686e+00
      vertex   8.128000e+00 -2.253874e+01 -1.171175e+01
    endloop
  endfacet
  facet normal 1.000000e+00 0.000000e+00 -0.000000e+00
    outer loop
      vertex   8.128000e+00 -2.253874e+01 -1.171175e+01
      vertex   8.128000e+00 -6.772926e+00 -3.491686e+00
      vertex   8.128000e+00 -2.365594e+01 -9.249679e+00
    endloop
  endfacet
  facet normal 1.000000e+00 0.000000e+00 0.000000e+00
    outer loop
      vertex   8.128000e+00 -2.365594e+01 -9.249679e+00
      vertex   8.128000e+00 -6.772926e+00 -3.491686e+00
      vertex   8.128000e+00 -7.311336e+00 -2.146802e+00
    endloop
  endfacet
  facet normal 1.000000e+00 0.000000e+00 -0.000000e+00
    outer loop
      vertex   8.128000e+00 -2.365594e+01 -9.249679e+00
      vertex   8.128000e+00 -7.311336e+00 -2.146802e+00
      vertex   8.128000e+00 -2.450511e+01 -6.682805e+00
    endloop
  endfacet
  facet normal 1.000000e+00 0.000000e+00 -0.000000e+00
    outer loop
      vertex   8.128000e+00 -2.450511e+01 -6.682805e+00
      vertex   8.128000e+00 -7.311336e+00 -2.146802e+00
      vertex   8.128000e+00 -2.507662e+01 -4.040213e+00
    endloop
  endfacet
  facet normal 1.000000e+00 0.000000e+00 0.000000e+00
    outer loop
      vertex   8.128000e+00 -2.507662e+01 -4.040213e+00
      vertex   8.128000e+00 -7.311336e+00 -2.146802e+00
      vertex   8.128000e+00 -7.585496e+00 -7.243270e-01
    endloop
  endfacet
  facet normal 1.000000e+00 0.000000e+00 -0.000000e+00
    outer loop
      vertex   8.128000e+00 -2.507662e+01 -4.040213e+00
      vertex   8.128000e+00 -7.585496e+00 -7.243270e-01
      vertex   8.128000e+00 -2.536400e+01 -1.351843e+00
    endloop
  endfacet
  facet normal 1.000000e+00 0.000000e+00 0.000000e+00
    outer loop
      vertex   8.128000e+00 -2.536400e+01 -1.351843e+00
      vertex   8.128000e+00 -7.585496e+00 -7.243270e-01
      vertex   8.128000e+00 -7.585496e+00 7.243270e-01
    endloop
  endfacet
  facet normal 1.000000e+00 0.000000e+00 0.000000e+00
    outer loop
      vertex   8.128000e+00 -2.536400e+01 -1.351843e+00
      vertex   8.128000e+00 -7.585496e+00 7.243270e-01
      vertex   8.128000e+00 -2.536400e+01 1.351843e+00
    endloop
  endfacet
  facet normal 1.000000e+00 -0.000000e+00 0.000000e+00
    outer loop
      vertex   8.128000e+00 -2.536400e+01 1.351843e+00
      vertex   8.128000e+00 -7.585496e+00 7.243270e-01
      vertex   8.128000e+00 -2.507662e+01 4.040213e+00
    endloop
  endfacet
  facet normal 1.000000e+00 0.000000e+00 0.000000e+00
    outer loop
      vertex   8.128000e+00 -2.507662e+01 4.040213e+00
      vertex   8.128000e+00 -7.585496e+00 7.243270e-01
      vertex   8.128000e+00 -7.311336e+00 2.146802e+00
    endloop
  endfacet
  facet normal 1.000000e+00 -0.000000e+00 0.000000e+00
    outer loop
      vertex   8.128000e+00 -2.507662e+01 4.040213e+00
      vertex   8.128000e+00 -7.311336e+00 2.146802e+00
      vertex   8.128000e+00 -2.450511e+01 6.682805e+00
    endloop
  endfacet
  facet normal 1.000000e+00 -0.000000e+00 0.000000e+00
    outer loop
      vertex   8.128000e+00 -2.450511e+01 6.682805e+00
      vertex   8.128000e+00 -7.311336e+00 2.146802e+00
      vertex   8.128000e+00 -2.365594e+01 9.249679e+00
    endloop
  endfacet
  facet normal 1.000000e+00 0.000000e+00 0.000000e+00
    outer loop
      vertex   8.128000e+00 -2.365594e+01 9.249679e+00
      vertex   8.128000e+00 -7.311336e+00 2.146802e+00
      vertex   8.128000e+00 -6.772926e+00 3.491686e+00
    endloop
  endfacet
  facet normal 1.000000e+00 -0.000000e+00 0.000000e+00
    outer loop
      vertex   8.128000e+00 -2.365594e+01 9.249679e+00
      vertex   8.128000e+00 -6.772926e+00 3.491686e+00
      vertex   8.128000e+00 -2.253874e+01 1.171175e+01
    endloop
  endfacet
  facet normal 1.000000e+00 -0.000000e+00 0.000000e+00
    outer loop
      vertex   8.128000e+00 -2.253874e+01 1.171175e+01
      vertex   8.128000e+00 -6.772926e+00 3.491686e+00
      vertex   8.128000e+00 -2.116617e+01 1.404112e+01
    endloop
  endfacet
  facet normal 1.000000e+00 0.000000e+00 0.000000e+00
    outer loop
      vertex   8.128000e+00 -2.116617e+01 1.404112e+01
      vertex   8.128000e+00 -6.772926e+00 3.491686e+00
      vertex   8.128000e+00 -5.989724e+00 4.710371e+00
    endloop
  endfacet
  facet normal 1.000000e+00 -0.000000e+00 0.000000e+00
    outer loop
      vertex   8.128000e+00 -2.116617e+01 1.404112e+01
      vertex   8.128000e+00 -5.989724e+00 4.710371e+00
      vertex   8.128000e+00 -1.955378e+01 1.621140e+01
    endloop
  endfacet
  facet normal 1.000000e+00 -0.000000e+00 0.000000e+00
    outer loop
      vertex   8.128000e+00 -1.955378e+01 1.621140e+01
      vertex   8.128000e+00 -5.989724e+00 4.710371e+00
      vertex   8.128000e+00 -1.771984e+01 1.819800e+01
    endloop
  endfacet
  facet normal 1.000000e+00 0.000000e+00 0.000000e+00
    outer loop
      vertex   8.128000e+00 -1.771984e+01 1.819800e+01
      vertex   8.128000e+00 -5.989724e+00 4.710371e+00
      vertex   8.128000e+00 -4.990039e+00 5.758812e+00
    endloop
  endfacet
  facet normal 1.000000e+00 -0.000000e+00 0.000000e+00
    outer loop
      vertex   8.128000e+00 -1.771984e+01 1.819800e+01
      vertex   8.128000e+00 -4.990039e+00 5.758812e+00
      vertex   8.128000e+00 -1.568513e+01 1.997841e+01
    endloop
  endfacet
  facet normal 1.000000e+00 0.000000e+00 0.000000e+00
    outer loop
      vertex   8.128000e+00 -1.568513e+01 1.997841e+01
      vertex   8.128000e+00 -4.990039e+00 5.758812e+00
      vertex   8.128000e+00 -3.810000e+00 6.599113e+00
    endloop
  endfacet
  facet normal 1.000000e+00 -0.000000e+00 0.000000e+00
    outer loop
      vertex   8.128000e+00 -1.568513e+01 1.997841e+01
      vertex   8.128000e+00 -3.810000e+00 6.599113e+00
      vertex   8.128000e+00 -1.347269e+01 2.153245e+01
    endloop
  endfacet
  facet normal 1.000000e+00 -0.000000e+00 0.000000e+00
    outer loop
      vertex   8.128000e+00 -1.347269e+01 2.153245e+01
      vertex   8.128000e+00 -3.810000e+00 6.599113e+00
      vertex   8.128000e+00 -1.110761e+01 2.284253e+01
    endloop
  endfacet
  facet normal 1.000000e+00 0.000000e+00 0.000000e+00
    outer loop
      vertex   8.128000e+00 -1.110761e+01 2.284253e+01
      vertex   8.128000e+00 -3.810000e+00 6.599113e+00
      vertex   8.128000e+00 -2.492258e+00 7.200906e+00
    endloop
  endfacet
  facet normal 1.000000e+00 -0.000000e+00 0.000000e+00
    outer loop
      vertex   8.128000e+00 -1.110761e+01 2.284253e+01
      vertex   8.128000e+00 -2.492258e+00 7.200906e+00
      vertex   8.128000e+00 -8.616667e+00 2.389379e+01
    endloop
  endfacet
  facet normal 1.000000e+00 -0.000000e+00 0.000000e+00
    outer loop
      vertex   8.128000e+00 -8.616667e+00 2.389379e+01
      vertex   8.128000e+00 -2.492258e+00 7.200906e+00
      vertex   8.128000e+00 -6.028098e+00 2.467432e+01
    endloop
  endfacet
  facet normal 1.000000e+00 0.000000e+00 0.000000e+00
    outer loop
      vertex   8.128000e+00 -6.028098e+00 2.467432e+01
      vertex   8.128000e+00 -2.492258e+00 7.200906e+00
      vertex   8.128000e+00 -1.084439e+00 7.542439e+00
    endloop
  endfacet
  facet normal 1.000000e+00 -0.000000e+00 0.000000e+00
    outer loop
      vertex   8.128000e+00 -6.028098e+00 2.467432e+01
      vertex   8.128000e+00 -1.084439e+00 7.542439e+00
      vertex   8.128000e+00 -3.371228e+00 2.517528e+01
    endloop
  endfacet
  facet normal 1.000000e+00 -0.000000e+00 0.000000e+00
    outer loop
      vertex   8.128000e+00 -3.371228e+00 2.517528e+01
      vertex   8.128000e+00 -1.084439e+00 7.542439e+00
      vertex   8.128000e+00 -6.761613e-01 2.539100e+01
    endloop
  endfacet
  facet normal 1.000000e+00 0.000000e+00 0.000000e+00
    outer loop
      vertex   8.128000e+00 -6.761613e-01 2.539100e+01
      vertex   8.128000e+00 -1.084439e+00 7.542439e+00
      vertex   8.128000e+00 3.625742e-01 7.611369e+00
    endloop
  endfacet
  facet normal 1.000000e+00 0.000000e+00 0.000000e+00
    outer loop
      vertex   8.128000e+00 -6.761613e-01 2.539100e+01
      vertex   8.128000e+00 3.625742e-01 7.611369e+00
      vertex   8.128000e+00 2.026567e+00 2.531903e+01
    endloop
  endfacet
  facet normal 1.000000e+00 0.000000e+00 0.000000e+00
    outer loop
      vertex   8.128000e+00 2.026567e+00 2.531903e+01
      vertex   8.128000e+00 3.625742e-01 7.611369e+00
      vertex   8.128000e+00 4.706334e+00 2.496018e+01
    endloop
  endfacet
  facet normal 1.000000e+00 0.000000e+00 0.000000e+00
    outer loop
      vertex   8.128000e+00 4.706334e+00 2.496018e+01
      vertex   8.128000e+00 3.625742e-01 7.611369e+00
      vertex   8.128000e+00 1.796483e+00 7.405204e+00
    endloop
  endfacet
  facet normal 1.000000e+00 0.000000e+00 0.000000e+00
    outer loop
      vertex   8.128000e+00 4.706334e+00 2.496018e+01
      vertex   8.128000e+00 1.796483e+00 7.405204e+00
      vertex   8.128000e+00 7.332776e+00 2.431852e+01
    endloop
  endfacet
  facet normal 1.000000e+00 0.000000e+00 0.000000e+00
    outer loop
      vertex   8.128000e+00 7.332776e+00 2.431852e+01
      vertex   8.128000e+00 1.796483e+00 7.405204e+00
      vertex   8.128000e+00 3.165462e+00 6.931396e+00
    endloop
  endfacet
  facet normal 1.000000e+00 0.000000e+00 0.000000e+00
    outer loop
      vertex   8.128000e+00 7.332776e+00 2.431852e+01
      vertex   8.128000e+00 3.165462e+00 6.931396e+00
      vertex   8.128000e+00 9.876134e+00 2.340132e+01
    endloop
  endfacet
  facet normal 1.000000e+00 0.000000e+00 0.000000e+00
    outer loop
      vertex   8.128000e+00 9.876134e+00 2.340132e+01
      vertex   8.128000e+00 3.165462e+00 6.931396e+00
      vertex   8.128000e+00 1.230759e+01 2.221898e+01
    endloop
  endfacet
  facet normal 1.000000e+00 0.000000e+00 0.000000e+00
    outer loop
      vertex   8.128000e+00 1.230759e+01 2.221898e+01
      vertex   8.128000e+00 3.165462e+00 6.931396e+00
      vertex   8.128000e+00 4.420034e+00 6.207069e+00
    endloop
  endfacet
  facet normal 1.000000e+00 0.000000e+00 0.000000e+00
    outer loop
      vertex   8.128000e+00 1.230759e+01 2.221898e+01
      vertex   8.128000e+00 4.420034e+00 6.207069e+00
      vertex   8.128000e+00 1.459960e+01 2.078489e+01
    endloop
  endfacet
  facet normal 1.000000e+00 0.000000e+00 0.000000e+00
    outer loop
      vertex   8.128000e+00 1.459960e+01 2.078489e+01
      vertex   8.128000e+00 4.420034e+00 6.207069e+00
      vertex   8.128000e+00 1.672619e+01 1.911530e+01
    endloop
  endfacet
  facet normal 1.000000e+00 0.000000e+00 0.000000e+00
    outer loop
      vertex   8.128000e+00 1.672619e+01 1.911530e+01
      vertex   8.128000e+00 4.420034e+00 6.207069e+00
      vertex   8.128000e+00 5.514854e+00 5.258402e+00
    endloop
  endfacet
  facet normal 1.000000e+00 0.000000e+00 0.000000e+00
    outer loop
      vertex   8.128000e+00 1.672619e+01 1.911530e+01
      vertex   8.128000e+00 5.514854e+00 5.258402e+00
      vertex   8.128000e+00 1.866326e+01 1.722912e+01
    endloop
  endfacet
  facet normal 1.000000e+00 0.000000e+00 0.000000e+00
    outer loop
      vertex   8.128000e+00 1.866326e+01 1.722912e+01
      vertex   8.128000e+00 5.514854e+00 5.258402e+00
      vertex   8.128000e+00 2.038888e+01 1.514773e+01
    endloop
  endfacet
  facet normal 1.000000e+00 0.000000e+00 0.000000e+00
    outer loop
      vertex   8.128000e+00 2.038888e+01 1.514773e+01
      vertex   8.128000e+00 5.514854e+00 5.258402e+00
      vertex   8.128000e+00 6.410352e+00 4.119683e+00
    endloop
  endfacet
  facet normal 1.000000e+00 0.000000e+00 0.000000e+00
    outer loop
      vertex   8.128000e+00 2.038888e+01 1.514773e+01
      vertex   8.128000e+00 6.410352e+00 4.119683e+00
      vertex   8.128000e+00 2.188347e+01 1.289471e+01
    endloop
  endfacet
  facet normal 1.000000e+00 0.000000e+00 0.000000e+00
    outer loop
      vertex   8.128000e+00 2.188347e+01 1.289471e+01
      vertex   8.128000e+00 6.410352e+00 4.119683e+00
      vertex   8.128000e+00 2.313012e+01 1.049559e+01
    endloop
  endfacet
  facet normal 1.000000e+00 0.000000e+00 0.000000e+00
    outer loop
      vertex   8.128000e+00 2.313012e+01 1.049559e+01
      vertex   8.128000e+00 6.410352e+00 4.119683e+00
      vertex   8.128000e+00 7.074164e+00 2.832068e+00
    endloop
  endfacet
  facet normal 1.000000e+00 0.000000e+00 0.000000e+00
    outer loop
      vertex   8.128000e+00 2.313012e+01 1.049559e+01
      vertex   8.128000e+00 7.074164e+00 2.832068e+00
      vertex   8.128000e+00 2.411470e+01 7.977548e+00
    endloop
  endfacet
  facet normal 1.000000e+00 0.000000e+00 0.000000e+00
    outer loop
      vertex   8.128000e+00 2.411470e+01 7.977548e+00
      vertex   8.128000e+00 7.074164e+00 2.832068e+00
      vertex   8.128000e+00 7.482297e+00 1.442094e+00
    endloop
  endfacet
  facet normal 1.000000e+00 0.000000e+00 0.000000e+00
    outer loop
      vertex   8.128000e+00 2.411470e+01 7.977548e+00
      vertex   8.128000e+00 7.482297e+00 1.442094e+00
      vertex   8.128000e+00 2.482605e+01 5.369118e+00
    endloop
  endfacet
  facet normal 1.000000e+00 0.000000e+00 0.000000e+00
    outer loop
      vertex   8.128000e+00 2.482605e+01 5.369118e+00
      vertex   8.128000e+00 7.482297e+00 1.442094e+00
      vertex   8.128000e+00 2.525610e+01 2.699855e+00
    endloop
  endfacet
  facet normal 1.000000e+00 0.000000e+00 0.000000e+00
    outer loop
      vertex   8.128000e+00 2.525610e+01 2.699855e+00
      vertex   8.128000e+00 7.482297e+00 1.442094e+00
      vertex   8.128000e+00 7.620000e+00 0.000000e+00
    endloop
  endfacet
endsolid
