solid ASCII
  facet normal -9.396926e-01 -3.420202e-01 -0.000000e+00
    outer loop
      vertex   5.837259e+00 4.898041e+00 6.350000e+00
      vertex   5.837259e+00 4.898041e+00 0.000000e+00
      vertex   7.620000e+00 0.000000e+00 6.350000e+00
    endloop
  endfacet
  facet normal -9.396926e-01 -3.420202e-01 -0.000000e+00
    outer loop
      vertex   7.620000e+00 0.000000e+00 6.350000e+00
      vertex   5.837259e+00 4.898041e+00 0.000000e+00
      vertex   7.620000e+00 0.000000e+00 0.000000e+00
    endloop
  endfacet
  facet normal -9.396926e-01 3.420202e-01 0.000000e+00
    outer loop
      vertex   7.620000e+00 0.000000e+00 6.350000e+00
      vertex   7.620000e+00 0.000000e+00 0.000000e+00
      vertex   5.837259e+00 -4.898041e+00 6.350000e+00
    endloop
  endfacet
  facet normal -9.396926e-01 3.420202e-01 0.000000e+00
    outer loop
      vertex   5.837259e+00 -4.898041e+00 6.350000e+00
      vertex   7.620000e+00 0.000000e+00 0.000000e+00
      vertex   5.837259e+00 -4.898041e+00 0.000000e+00
    endloop
  endfacet
  facet normal -5.000000e-01 8.660254e-01 0.000000e+00
    outer loop
      vertex   5.837259e+00 -4.898041e+00 6.350000e+00
      vertex   5.837259e+00 -4.898041e+00 0.000000e+00
      vertex   1.323199e+00 -7.504235e+00 6.350000e+00
    endloop
  endfacet
  facet normal -5.000000e-01 8.660254e-01 0.000000e+00
    outer loop
      vertex   1.323199e+00 -7.504235e+00 6.350000e+00
      vertex   5.837259e+00 -4.898041e+00 0.000000e+00
      vertex   1.323199e+00 -7.504235e+00 0.000000e+00
    endloop
  endfacet
  facet normal 1.736482e-01 9.848078e-01 0.000000e+00
    outer loop
      vertex   1.323199e+00 -7.504235e+00 6.350000e+00
      vertex   1.323199e+00 -7.504235e+00 0.000000e+00
      vertex   -3.810000e+00 -6.599113e+00 6.350000e+00
    endloop
  endfacet
  facet normal 1.736482e-01 9.848078e-01 0.000000e+00
    outer loop
      vertex   -3.810000e+00 -6.599113e+00 6.350000e+00
      vertex   1.323199e+00 -7.504235e+00 0.000000e+00
      vertex   -3.810000e+00 -6.599113e+00 0.000000e+00
    endloop
  endfacet
  facet normal 7.660444e-01 6.427876e-01 0.000000e+00
    outer loop
      vertex   -3.810000e+00 -6.599113e+00 6.350000e+00
      vertex   -3.810000e+00 -6.599113e+00 0.000000e+00
      vertex   -7.160458e+00 -2.606193e+00 6.350000e+00
    endloop
  endfacet
  facet normal 7.660444e-01 6.427876e-01 0.000000e+00
    outer loop
      vertex   -7.160458e+00 -2.606193e+00 6.350000e+00
      vertex   -3.810000e+00 -6.599113e+00 0.000000e+00
      vertex   -7.160458e+00 -2.606193e+00 0.000000e+00
    endloop
  endfacet
  facet normal 1.000000e+00 -0.000000e+00 0.000000e+00
    outer loop
      vertex   -7.160458e+00 -2.606193e+00 6.350000e+00
      vertex   -7.160458e+00 -2.606193e+00 0.000000e+00
      vertex   -7.160458e+00 2.606193e+00 6.350000e+00
    endloop
  endfacet
  facet normal 1.000000e+00 0.000000e+00 0.000000e+00
    outer loop
      vertex   -7.160458e+00 2.606193e+00 6.350000e+00
      vertex   -7.160458e+00 -2.606193e+00 0.000000e+00
      vertex   -7.160458e+00 2.606193e+00 0.000000e+00
    endloop
  endfacet
  facet normal 7.660444e-01 -6.427876e-01 0.000000e+00
    outer loop
      vertex   -7.160458e+00 2.606193e+00 6.350000e+00
      vertex   -7.160458e+00 2.606193e+00 0.000000e+00
      vertex   -3.810000e+00 6.599113e+00 6.350000e+00
    endloop
  endfacet
  facet normal 7.660444e-01 -6.427876e-01 0.000000e+00
    outer loop
      vertex   -3.810000e+00 6.599113e+00 6.350000e+00
      vertex   -7.160458e+00 2.606193e+00 0.000000e+00
      vertex   -3.810000e+00 6.599113e+00 0.000000e+00
    endloop
  endfacet
  facet normal 1.736482e-01 -9.848078e-01 0.000000e+00
    outer loop
      vertex   -3.810000e+00 6.599113e+00 6.350000e+00
      vertex   -3.810000e+00 6.599113e+00 0.000000e+00
      vertex   1.323199e+00 7.504235e+00 6.350000e+00
    endloop
  endfacet
  facet normal 1.736482e-01 -9.848078e-01 0.000000e+00
    outer loop
      vertex   1.323199e+00 7.504235e+00 6.350000e+00
      vertex   -3.810000e+00 6.599113e+00 0.000000e+00
      vertex   1.323199e+00 7.504235e+00 0.000000e+00
    endloop
  endfacet
  facet normal -5.000000e-01 -8.660254e-01 -0.000000e+00
    outer loop
      vertex   1.323199e+00 7.504235e+00 6.350000e+00
      vertex   1.323199e+00 7.504235e+00 0.000000e+00
      vertex   5.837259e+00 4.898041e+00 6.350000e+00
    endloop
  endfacet
  facet normal -5.000000e-01 -8.660254e-01 -0.000000e+00
    outer loop
      vertex   5.837259e+00 4.898041e+00 6.350000e+00
      vertex   1.323199e+00 7.504235e+00 0.000000e+00
      vertex   5.837259e+00 4.898041e+00 0.000000e+00
    endloop
  endfacet
  facet normal 9.781476e-01 -2.079116e-01 0.000000e+00
    outer loop
      vertex   2.320405e+01 -1.033111e+01 6.350000e+00
      vertex   2.320405e+01 -1.033111e+01 0.000000e+00
      vertex   2.540000e+01 0.000000e+00 6.350000e+00
    endloop
  endfacet
  facet normal 9.781476e-01 -2.079116e-01 0.000000e+00
    outer loop
      vertex   2.540000e+01 0.000000e+00 6.350000e+00
      vertex   2.320405e+01 -1.033111e+01 0.000000e+00
      vertex   2.540000e+01 0.000000e+00 0.000000e+00
    endloop
  endfacet
  facet normal 9.781476e-01 2.079116e-01 0.000000e+00
    outer loop
      vertex   2.540000e+01 0.000000e+00 6.350000e+00
      vertex   2.540000e+01 0.000000e+00 0.000000e+00
      vertex   2.320405e+01 1.033111e+01 6.350000e+00
    endloop
  endfacet
  facet normal 9.781476e-01 2.079116e-01 0.000000e+00
    outer loop
      vertex   2.320405e+01 1.033111e+01 6.350000e+00
      vertex   2.540000e+01 0.000000e+00 0.000000e+00
      vertex   2.320405e+01 1.033111e+01 0.000000e+00
    endloop
  endfacet
  facet normal 8.090170e-01 5.877852e-01 0.000000e+00
    outer loop
      vertex   2.320405e+01 1.033111e+01 6.350000e+00
      vertex   2.320405e+01 1.033111e+01 0.000000e+00
      vertex   1.699592e+01 1.887588e+01 6.350000e+00
    endloop
  endfacet
  facet normal 8.090170e-01 5.877852e-01 0.000000e+00
    outer loop
      vertex   1.699592e+01 1.887588e+01 6.350000e+00
      vertex   2.320405e+01 1.033111e+01 0.000000e+00
      vertex   1.699592e+01 1.887588e+01 0.000000e+00
    endloop
  endfacet
  facet normal 4.999999e-01 8.660254e-01 0.000000e+00
    outer loop
      vertex   1.699592e+01 1.887588e+01 6.350000e+00
      vertex   1.699592e+01 1.887588e+01 0.000000e+00
      vertex   7.849032e+00 2.415684e+01 6.350000e+00
    endloop
  endfacet
  facet normal 4.999999e-01 8.660254e-01 0.000000e+00
    outer loop
      vertex   7.849032e+00 2.415684e+01 6.350000e+00
      vertex   1.699592e+01 1.887588e+01 0.000000e+00
      vertex   7.849032e+00 2.415684e+01 0.000000e+00
    endloop
  endfacet
  facet normal 1.045285e-01 9.945219e-01 0.000000e+00
    outer loop
      vertex   7.849032e+00 2.415684e+01 6.350000e+00
      vertex   7.849032e+00 2.415684e+01 0.000000e+00
      vertex   -2.655023e+00 2.526086e+01 6.350000e+00
    endloop
  endfacet
  facet normal 1.045285e-01 9.945219e-01 0.000000e+00
    outer loop
      vertex   -2.655023e+00 2.526086e+01 6.350000e+00
      vertex   7.849032e+00 2.415684e+01 0.000000e+00
      vertex   -2.655023e+00 2.526086e+01 0.000000e+00
    endloop
  endfacet
  facet normal -3.090171e-01 9.510565e-01 0.000000e+00
    outer loop
      vertex   -2.655023e+00 2.526086e+01 6.350000e+00
      vertex   -2.655023e+00 2.526086e+01 0.000000e+00
      vertex   -1.270000e+01 2.199704e+01 6.350000e+00
    endloop
  endfacet
  facet normal -3.090171e-01 9.510565e-01 0.000000e+00
    outer loop
      vertex   -1.270000e+01 2.199704e+01 6.350000e+00
      vertex   -2.655023e+00 2.526086e+01 0.000000e+00
      vertex   -1.270000e+01 2.199704e+01 0.000000e+00
    endloop
  endfacet
  facet normal -6.691305e-01 7.431449e-01 0.000000e+00
    outer loop
      vertex   -1.270000e+01 2.199704e+01 6.350000e+00
      vertex   -1.270000e+01 2.199704e+01 0.000000e+00
      vertex   -2.054903e+01 1.492975e+01 6.350000e+00
    endloop
  endfacet
  facet normal -6.691305e-01 7.431449e-01 0.000000e+00
    outer loop
      vertex   -2.054903e+01 1.492975e+01 6.350000e+00
      vertex   -1.270000e+01 2.199704e+01 0.000000e+00
      vertex   -2.054903e+01 1.492975e+01 0.000000e+00
    endloop
  endfacet
  facet normal -9.135455e-01 4.067366e-01 0.000000e+00
    outer loop
      vertex   -2.054903e+01 1.492975e+01 6.350000e+00
      vertex   -2.054903e+01 1.492975e+01 0.000000e+00
      vertex   -2.484495e+01 5.280957e+00 6.350000e+00
    endloop
  endfacet
  facet normal -9.135455e-01 4.067366e-01 0.000000e+00
    outer loop
      vertex   -2.484495e+01 5.280957e+00 6.350000e+00
      vertex   -2.054903e+01 1.492975e+01 0.000000e+00
      vertex   -2.484495e+01 5.280957e+00 0.000000e+00
    endloop
  endfacet
  facet normal -1.000000e+00 -0.000000e+00 -0.000000e+00
    outer loop
      vertex   -2.484495e+01 5.280957e+00 6.350000e+00
      vertex   -2.484495e+01 5.280957e+00 0.000000e+00
      vertex   -2.484495e+01 -5.280957e+00 6.350000e+00
    endloop
  endfacet
  facet normal -1.000000e+00 0.000000e+00 0.000000e+00
    outer loop
      vertex   -2.484495e+01 -5.280957e+00 6.350000e+00
      vertex   -2.484495e+01 5.280957e+00 0.000000e+00
      vertex   -2.484495e+01 -5.280957e+00 0.000000e+00
    endloop
  endfacet
  facet normal -9.135455e-01 -4.067366e-01 -0.000000e+00
    outer loop
      vertex   -2.484495e+01 -5.280957e+00 6.350000e+00
      vertex   -2.484495e+01 -5.280957e+00 0.000000e+00
      vertex   -2.054903e+01 -1.492975e+01 6.350000e+00
    endloop
  endfacet
  facet normal -9.135455e-01 -4.067366e-01 -0.000000e+00
    outer loop
      vertex   -2.054903e+01 -1.492975e+01 6.350000e+00
      vertex   -2.484495e+01 -5.280957e+00 0.000000e+00
      vertex   -2.054903e+01 -1.492975e+01 0.000000e+00
    endloop
  endfacet
  facet normal -6.691305e-01 -7.431449e-01 -0.000000e+00
    outer loop
      vertex   -2.054903e+01 -1.492975e+01 6.350000e+00
      vertex   -2.054903e+01 -1.492975e+01 0.000000e+00
      vertex   -1.270000e+01 -2.199704e+01 6.350000e+00
    endloop
  endfacet
  facet normal -6.691305e-01 -7.431449e-01 -0.000000e+00
    outer loop
      vertex   -1.270000e+01 -2.199704e+01 6.350000e+00
      vertex   -2.054903e+01 -1.492975e+01 0.000000e+00
      vertex   -1.270000e+01 -2.199704e+01 0.000000e+00
    endloop
  endfacet
  facet normal -3.090171e-01 -9.510565e-01 -0.000000e+00
    outer loop
      vertex   -1.270000e+01 -2.199704e+01 6.350000e+00
      vertex   -1.270000e+01 -2.199704e+01 0.000000e+00
      vertex   -2.655023e+00 -2.526086e+01 6.350000e+00
    endloop
  endfacet
  facet normal -3.090171e-01 -9.510565e-01 -0.000000e+00
    outer loop
      vertex   -2.655023e+00 -2.526086e+01 6.350000e+00
      vertex   -1.270000e+01 -2.199704e+01 0.000000e+00
      vertex   -2.655023e+00 -2.526086e+01 0.000000e+00
    endloop
  endfacet
  facet normal 1.045285e-01 -9.945219e-01 0.000000e+00
    outer loop
      vertex   -2.655023e+00 -2.526086e+01 6.350000e+00
      vertex   -2.655023e+00 -2.526086e+01 0.000000e+00
      vertex   7.849032e+00 -2.415684e+01 6.350000e+00
    endloop
  endfacet
  facet normal 1.045285e-01 -9.945219e-01 0.000000e+00
    outer loop
      vertex   7.849032e+00 -2.415684e+01 6.350000e+00
      vertex   -2.655023e+00 -2.526086e+01 0.000000e+00
      vertex   7.849032e+00 -2.415684e+01 0.000000e+00
    endloop
  endfacet
  facet normal 4.999999e-01 -8.660254e-01 0.000000e+00
    outer loop
      vertex   7.849032e+00 -2.415684e+01 6.350000e+00
      vertex   7.849032e+00 -2.415684e+01 0.000000e+00
      vertex   1.699592e+01 -1.887588e+01 6.350000e+00
    endloop
  endfacet
  facet normal 4.999999e-01 -8.660254e-01 0.000000e+00
    outer loop
      vertex   1.699592e+01 -1.887588e+01 6.350000e+00
      vertex   7.849032e+00 -2.415684e+01 0.000000e+00
      vertex   1.699592e+01 -1.887588e+01 0.000000e+00
    endloop
  endfacet
  facet normal 8.090170e-01 -5.877852e-01 0.000000e+00
    outer loop
      vertex   1.699592e+01 -1.887588e+01 6.350000e+00
      vertex   1.699592e+01 -1.887588e+01 0.000000e+00
      vertex   2.320405e+01 -1.033111e+01 6.350000e+00
    endloop
  endfacet
  facet normal 8.090170e-01 -5.877852e-01 0.000000e+00
    outer loop
      vertex   2.320405e+01 -1.033111e+01 6.350000e+00
      vertex   1.699592e+01 -1.887588e+01 0.000000e+00
      vertex   2.320405e+01 -1.033111e+01 0.000000e+00
    endloop
  endfacet
  facet normal 0.000000e+00 0.000000e+00 -1.000000e+00
    outer loop
      vertex   5.837259e+00 4.898041e+00 0.000000e+00
      vertex   2.320405e+01 1.033111e+01 0.000000e+00
      vertex   7.620000e+00 0.000000e+00 0.000000e+00
    endloop
  endfacet
  facet normal 0.000000e+00 0.000000e+00 -1.000000e+00
    outer loop
      vertex   7.620000e+00 0.000000e+00 0.000000e+00
      vertex   2.320405e+01 1.033111e+01 0.000000e+00
      vertex   2.540000e+01 0.000000e+00 0.000000e+00
    endloop
  endfacet
  facet normal 0.000000e+00 0.000000e+00 -1.000000e+00
    outer loop
      vertex   7.620000e+00 0.000000e+00 0.000000e+00
      vertex   2.540000e+01 0.000000e+00 0.000000e+00
      vertex   2.320405e+01 -1.033111e+01 0.000000e+00
    endloop
  endfacet
  facet normal 0.000000e+00 0.000000e+00 -1.000000e+00
    outer loop
      vertex   1.323199e+00 7.504235e+00 0.000000e+00
      vertex   7.849032e+00 2.415684e+01 0.000000e+00
      vertex   5.837259e+00 4.898041e+00 0.000000e+00
    endloop
  endfacet
  facet normal 0.000000e+00 0.000000e+00 -1.000000e+00
    outer loop
      vertex   5.837259e+00 4.898041e+00 0.000000e+00
      vertex   7.849032e+00 2.415684e+01 0.000000e+00
      vertex   1.699592e+01 1.887588e+01 0.000000e+00
    endloop
  endfacet
  facet normal 0.000000e+00 0.000000e+00 -1.000000e+00
    outer loop
      vertex   5.837259e+00 4.898041e+00 0.000000e+00
      vertex   1.699592e+01 1.887588e+01 0.000000e+00
      vertex   2.320405e+01 1.033111e+01 0.000000e+00
    endloop
  endfacet
  facet normal -0.000000e+00 0.000000e+00 -1.000000e+00
    outer loop
      vertex   7.849032e+00 2.415684e+01 0.000000e+00
      vertex   1.323199e+00 7.504235e+00 0.000000e+00
      vertex   -2.655023e+00 2.526086e+01 0.000000e+00
    endloop
  endfacet
  facet normal 0.000000e+00 -0.000000e+00 -1.000000e+00
    outer loop
      vertex   -2.655023e+00 2.526086e+01 0.000000e+00
      vertex   1.323199e+00 7.504235e+00 0.000000e+00
      vertex   -3.810000e+00 6.599113e+00 0.000000e+00
    endloop
  endfacet
  facet normal 0.000000e+00 0.000000e+00 -1.000000e+00
    outer loop
      vertex   -2.655023e+00 2.526086e+01 0.000000e+00
      vertex   -3.810000e+00 6.599113e+00 0.000000e+00
      vertex   -1.270000e+01 2.199704e+01 0.000000e+00
    endloop
  endfacet
  facet normal 0.000000e+00 -0.000000e+00 -1.000000e+00
    outer loop
      vertex   -1.270000e+01 2.199704e+01 0.000000e+00
      vertex   -3.810000e+00 6.599113e+00 0.000000e+00
      vertex   -2.054903e+01 1.492975e+01 0.000000e+00
    endloop
  endfacet
  facet normal 0.000000e+00 0.000000e+00 -1.000000e+00
    outer loop
      vertex   -2.054903e+01 1.492975e+01 0.000000e+00
      vertex   -3.810000e+00 6.599113e+00 0.000000e+00
      vertex   -7.160458e+00 2.606193e+00 0.000000e+00
    endloop
  endfacet
  facet normal 0.000000e+00 -0.000000e+00 -1.000000e+00
    outer loop
      vertex   -2.054903e+01 1.492975e+01 0.000000e+00
      vertex   -7.160458e+00 2.606193e+00 0.000000e+00
      vertex   -2.484495e+01 5.280957e+00 0.000000e+00
    endloop
  endfacet
  facet normal 0.000000e+00 0.000000e+00 -1.000000e+00
    outer loop
      vertex   -2.484495e+01 5.280957e+00 0.000000e+00
      vertex   -7.160458e+00 2.606193e+00 0.000000e+00
      vertex   -2.484495e+01 -5.280957e+00 0.000000e+00
    endloop
  endfacet
  facet normal 0.000000e+00 0.000000e+00 -1.000000e+00
    outer loop
      vertex   -2.484495e+01 -5.280957e+00 0.000000e+00
      vertex   -7.160458e+00 2.606193e+00 0.000000e+00
      vertex   -7.160458e+00 -2.606193e+00 0.000000e+00
    endloop
  endfacet
  facet normal 0.000000e+00 0.000000e+00 -1.000000e+00
    outer loop
      vertex   -2.484495e+01 -5.280957e+00 0.000000e+00
      vertex   -7.160458e+00 -2.606193e+00 0.000000e+00
      vertex   -2.054903e+01 -1.492975e+01 0.000000e+00
    endloop
  endfacet
  facet normal 0.000000e+00 0.000000e+00 -1.000000e+00
    outer loop
      vertex   -2.054903e+01 -1.492975e+01 0.000000e+00
      vertex   -7.160458e+00 -2.606193e+00 0.000000e+00
      vertex   -3.810000e+00 -6.599113e+00 0.000000e+00
    endloop
  endfacet
  facet normal 0.000000e+00 0.000000e+00 -1.000000e+00
    outer loop
      vertex   -2.054903e+01 -1.492975e+01 0.000000e+00
      vertex   -3.810000e+00 -6.599113e+00 0.000000e+00
      vertex   -1.270000e+01 -2.199704e+01 0.000000e+00
    endloop
  endfacet
  facet normal 0.000000e+00 0.000000e+00 -1.000000e+00
    outer loop
      vertex   -1.270000e+01 -2.199704e+01 0.000000e+00
      vertex   -3.810000e+00 -6.599113e+00 0.000000e+00
      vertex   -2.655023e+00 -2.526086e+01 0.000000e+00
    endloop
  endfacet
  facet normal 0.000000e+00 0.000000e+00 -1.000000e+00
    outer loop
      vertex   -2.655023e+00 -2.526086e+01 0.000000e+00
      vertex   -3.810000e+00 -6.599113e+00 0.000000e+00
      vertex   1.323199e+00 -7.504235e+00 0.000000e+00
    endloop
  endfacet
  facet normal 0.000000e+00 0.000000e+00 -1.000000e+00
    outer loop
      vertex   -2.655023e+00 -2.526086e+01 0.000000e+00
      vertex   1.323199e+00 -7.504235e+00 0.000000e+00
      vertex   7.849032e+00 -2.415684e+01 0.000000e+00
    endloop
  endfacet
  facet normal 0.000000e+00 0.000000e+00 -1.000000e+00
    outer loop
      vertex   7.849032e+00 -2.415684e+01 0.000000e+00
      vertex   1.323199e+00 -7.504235e+00 0.000000e+00
      vertex   5.837259e+00 -4.898041e+00 0.000000e+00
    endloop
  endfacet
  facet normal 0.000000e+00 0.000000e+00 -1.000000e+00
    outer loop
      vertex   7.849032e+00 -2.415684e+01 0.000000e+00
      vertex   5.837259e+00 -4.898041e+00 0.000000e+00
      vertex   1.699592e+01 -1.887588e+01 0.000000e+00
    endloop
  endfacet
  facet normal 0.000000e+00 0.000000e+00 -1.000000e+00
    outer loop
      vertex   1.699592e+01 -1.887588e+01 0.000000e+00
      vertex   5.837259e+00 -4.898041e+00 0.000000e+00
      vertex   2.320405e+01 -1.033111e+01 0.000000e+00
    endloop
  endfacet
  facet normal 0.000000e+00 0.000000e+00 -1.000000e+00
    outer loop
      vertex   2.320405e+01 -1.033111e+01 0.000000e+00
      vertex   5.837259e+00 -4.898041e+00 0.000000e+00
      vertex   7.620000e+00 0.000000e+00 0.000000e+00
    endloop
  endfacet
  facet normal -0.000000e+00 0.000000e+00 1.000000e+00
    outer loop
      vertex   5.837259e+00 -4.898041e+00 6.350000e+00
      vertex   2.320405e+01 -1.033111e+01 6.350000e+00
      vertex   7.620000e+00 0.000000e+00 6.350000e+00
    endloop
  endfacet
  facet normal -0.000000e+00 0.000000e+00 1.000000e+00
    outer loop
      vertex   7.620000e+00 0.000000e+00 6.350000e+00
      vertex   2.320405e+01 -1.033111e+01 6.350000e+00
      vertex   2.540000e+01 0.000000e+00 6.350000e+00
    endloop
  endfacet
  facet normal 0.000000e+00 0.000000e+00 1.000000e+00
    outer loop
      vertex   7.620000e+00 0.000000e+00 6.350000e+00
      vertex   2.540000e+01 0.000000e+00 6.350000e+00
      vertex   2.320405e+01 1.033111e+01 6.350000e+00
    endloop
  endfacet
  facet normal -0.000000e+00 0.000000e+00 1.000000e+00
    outer loop
      vertex   1.323199e+00 -7.504235e+00 6.350000e+00
      vertex   7.849032e+00 -2.415684e+01 6.350000e+00
      vertex   5.837259e+00 -4.898041e+00 6.350000e+00
    endloop
  endfacet
  facet normal 0.000000e+00 0.000000e+00 1.000000e+00
    outer loop
      vertex   5.837259e+00 -4.898041e+00 6.350000e+00
      vertex   7.849032e+00 -2.415684e+01 6.350000e+00
      vertex   1.699592e+01 -1.887588e+01 6.350000e+00
    endloop
  endfacet
  facet normal 0.000000e+00 0.000000e+00 1.000000e+00
    outer loop
      vertex   5.837259e+00 -4.898041e+00 6.350000e+00
      vertex   1.699592e+01 -1.887588e+01 6.350000e+00
      vertex   2.320405e+01 -1.033111e+01 6.350000e+00
    endloop
  endfacet
  facet normal 0.000000e+00 0.000000e+00 1.000000e+00
    outer loop
      vertex   7.849032e+00 -2.415684e+01 6.350000e+00
      vertex   1.323199e+00 -7.504235e+00 6.350000e+00
      vertex   -2.655023e+00 -2.526086e+01 6.350000e+00
    endloop
  endfacet
  facet normal 0.000000e+00 -0.000000e+00 1.000000e+00
    outer loop
      vertex   -2.655023e+00 -2.526086e+01 6.350000e+00
      vertex   1.323199e+00 -7.504235e+00 6.350000e+00
      vertex   -3.810000e+00 -6.599113e+00 6.350000e+00
    endloop
  endfacet
  facet normal 0.000000e+00 0.000000e+00 1.000000e+00
    outer loop
      vertex   -2.655023e+00 -2.526086e+01 6.350000e+00
      vertex   -3.810000e+00 -6.599113e+00 6.350000e+00
      vertex   -1.270000e+01 -2.199704e+01 6.350000e+00
    endloop
  endfacet
  facet normal 0.000000e+00 -0.000000e+00 1.000000e+00
    outer loop
      vertex   -1.270000e+01 -2.199704e+01 6.350000e+00
      vertex   -3.810000e+00 -6.599113e+00 6.350000e+00
      vertex   -2.054903e+01 -1.492975e+01 6.350000e+00
    endloop
  endfacet
  facet normal 0.000000e+00 0.000000e+00 1.000000e+00
    outer loop
      vertex   -2.054903e+01 -1.492975e+01 6.350000e+00
      vertex   -3.810000e+00 -6.599113e+00 6.350000e+00
      vertex   -7.160458e+00 -2.606193e+00 6.350000e+00
    endloop
  endfacet
  facet normal 0.000000e+00 -0.000000e+00 1.000000e+00
    outer loop
      vertex   -2.054903e+01 -1.492975e+01 6.350000e+00
      vertex   -7.160458e+00 -2.606193e+00 6.350000e+00
      vertex   -2.484495e+01 -5.280957e+00 6.350000e+00
    endloop
  endfacet
  facet normal 0.000000e+00 0.000000e+00 1.000000e+00
    outer loop
      vertex   -2.484495e+01 -5.280957e+00 6.350000e+00
      vertex   -7.160458e+00 -2.606193e+00 6.350000e+00
      vertex   -7.160458e+00 2.606193e+00 6.350000e+00
    endloop
  endfacet
  facet normal 0.000000e+00 0.000000e+00 1.000000e+00
    outer loop
      vertex   -2.484495e+01 -5.280957e+00 6.350000e+00
      vertex   -7.160458e+00 2.606193e+00 6.350000e+00
      vertex   -2.484495e+01 5.280957e+00 6.350000e+00
    endloop
  endfacet
  facet normal -0.000000e+00 0.000000e+00 1.000000e+00
    outer loop
      vertex   -2.484495e+01 5.280957e+00 6.350000e+00
      vertex   -7.160458e+00 2.606193e+00 6.350000e+00
      vertex   -2.054903e+01 1.492975e+01 6.350000e+00
    endloop
  endfacet
  facet normal 0.000000e+00 0.000000e+00 1.000000e+00
    outer loop
      vertex   -2.054903e+01 1.492975e+01 6.350000e+00
      vertex   -7.160458e+00 2.606193e+00 6.350000e+00
      vertex   -3.810000e+00 6.599113e+00 6.350000e+00
    endloop
  endfacet
  facet normal -0.000000e+00 0.000000e+00 1.000000e+00
    outer loop
      vertex   -2.054903e+01 1.492975e+01 6.350000e+00
      vertex   -3.810000e+00 6.599113e+00 6.350000e+00
      vertex   -1.270000e+01 2.199704e+01 6.350000e+00
    endloop
  endfacet
  facet normal -0.000000e+00 0.000000e+00 1.000000e+00
    outer loop
      vertex   -1.270000e+01 2.199704e+01 6.350000e+00
      vertex   -3.810000e+00 6.599113e+00 6.350000e+00
      vertex   -2.655023e+00 2.526086e+01 6.350000e+00
    endloop
  endfacet
  facet normal 0.000000e+00 0.000000e+00 1.000000e+00
    outer loop
      vertex   -2.655023e+00 2.526086e+01 6.350000e+00
      vertex   -3.810000e+00 6.599113e+00 6.350000e+00
      vertex   1.323199e+00 7.504235e+00 6.350000e+00
    endloop
  endfacet
  facet normal 0.000000e+00 0.000000e+00 1.000000e+00
    outer loop
      vertex   -2.655023e+00 2.526086e+01 6.350000e+00
      vertex   1.323199e+00 7.504235e+00 6.350000e+00
      vertex   7.849032e+00 2.415684e+01 6.350000e+00
    endloop
  endfacet
  facet normal 0.000000e+00 0.000000e+00 1.000000e+00
    outer loop
      vertex   7.849032e+00 2.415684e+01 6.350000e+00
      vertex   1.323199e+00 7.504235e+00 6.350000e+00
      vertex   5.837259e+00 4.898041e+00 6.350000e+00
    endloop
  endfacet
  facet normal 0.000000e+00 0.000000e+00 1.000000e+00
    outer loop
      vertex   7.849032e+00 2.415684e+01 6.350000e+00
      vertex   5.837259e+00 4.898041e+00 6.350000e+00
      vertex   1.699592e+01 1.887588e+01 6.350000e+00
    endloop
  endfacet
  facet normal 0.000000e+00 0.000000e+00 1.000000e+00
    outer loop
      vertex   1.699592e+01 1.887588e+01 6.350000e+00
      vertex   5.837259e+00 4.898041e+00 6.350000e+00
      vertex   2.320405e+01 1.033111e+01 6.350000e+00
    endloop
  endfacet
  facet normal 0.000000e+00 0.000000e+00 1.000000e+00
    outer loop
      vertex   2.320405e+01 1.033111e+01 6.350000e+00
      vertex   5.837259e+00 4.898041e+00 6.350000e+00
      vertex   7.620000e+00 0.000000e+00 6.350000e+00
    endloop
  endfacet
endsolid
