<svg id="_0" data-name="0" xmlns="http://www.w3.org/2000/svg" viewBox="0 0 1152.72 1008.72"><defs><style>.cls-1{fill:none;stroke:#000;stroke-linecap:round;stroke-linejoin:round;stroke-width:0.71px;}</style></defs><g id="POLYLINE"><polygon class="cls-1" points="963.36 792.36 963.36 648.36 882.36 648.36 882.36 504.36 963.36 504.36 963.36 360.36 1051.56 360.36 1051.56 792.36 963.36 792.36"/></g><g id="POLYLINE-2" data-name="POLYLINE"><polygon class="cls-1" points="279.36 648.36 189.36 648.36 189.36 792.36 101.16 792.36 101.16 360.36 189.36 360.36 189.36 504.36 279.36 504.36 279.36 648.36"/></g><g id="POLYLINE-3" data-name="POLYLINE"><path class="cls-1" d="M195,1008H957c238.58-210.42,261.42-574.4,51-813S433.61-66.41,195,144s-261.43,574.4-51,813A576.44,576.44,0,0,0,195,1008Z" transform="translate(0.35 0.35)"/></g><g id="CIRCLE"><path class="cls-1" d="M723.57,486a7.24,7.24,0,1,1,7.24,7.23,7.24,7.24,0,0,1-7.24-7.23Z" transform="translate(0.35 0.35)"/></g><g id="CIRCLE-2" data-name="CIRCLE"><path class="cls-1" d="M414,738a7.24,7.24,0,1,1,7.24,7.23A7.24,7.24,0,0,1,414,738Z" transform="translate(0.35 0.35)"/></g><g id="CIRCLE-3" data-name="CIRCLE"><path class="cls-1" d="M723.57,738a7.24,7.24,0,1,1,7.24,7.23,7.24,7.24,0,0,1-7.24-7.23Z" transform="translate(0.35 0.35)"/></g><g id="CIRCLE-4" data-name="CIRCLE"><path class="cls-1" d="M414,486a7.24,7.24,0,1,1,7.24,7.23A7.24,7.24,0,0,1,414,486Z" transform="translate(0.35 0.35)"/></g><g id="CIRCLE-5" data-name="CIRCLE"><path class="cls-1" d="M512.05,839.74a4.83,4.83,0,1,1,4.83,4.83,4.82,4.82,0,0,1-4.83-4.83Z" transform="translate(0.35 0.35)"/></g><g id="CIRCLE-6" data-name="CIRCLE"><path class="cls-1" d="M512.05,958a4.83,4.83,0,1,1,4.83,4.83,4.82,4.82,0,0,1-4.83-4.83Z" transform="translate(0.35 0.35)"/></g><g id="CIRCLE-7" data-name="CIRCLE"><path class="cls-1" d="M571.18,982.5a4.83,4.83,0,1,1,4.83,4.82,4.83,4.83,0,0,1-4.83-4.82Z" transform="translate(0.35 0.35)"/></g><g id="CIRCLE-8" data-name="CIRCLE"><path class="cls-1" d="M630.31,958a4.83,4.83,0,1,1,4.83,4.83,4.82,4.82,0,0,1-4.83-4.83Z" transform="translate(0.35 0.35)"/></g><g id="CIRCLE-9" data-name="CIRCLE"><path class="cls-1" d="M630.31,839.74a4.83,4.83,0,1,1,4.83,4.83,4.82,4.82,0,0,1-4.83-4.83Z" transform="translate(0.35 0.35)"/></g><g id="CIRCLE-10" data-name="CIRCLE"><path class="cls-1" d="M802.77,298.81A7.24,7.24,0,1,1,810,306a7.24,7.24,0,0,1-7.24-7.23Z" transform="translate(0.35 0.35)"/></g><g id="CIRCLE-11" data-name="CIRCLE"><path class="cls-1" d="M882.69,137.17a7.24,7.24,0,1,1,7.24,7.23,7.24,7.24,0,0,1-7.24-7.23Z" transform="translate(0.35 0.35)"/></g><g id="CIRCLE-12" data-name="CIRCLE"><path class="cls-1" d="M748.77,126a7.24,7.24,0,1,1,7.24,7.23,7.24,7.24,0,0,1-7.24-7.23Z" transform="translate(0.35 0.35)"/></g><g id="CIRCLE-13" data-name="CIRCLE"><path class="cls-1" d="M388.77,288a7.24,7.24,0,1,1,7.24,7.23,7.24,7.24,0,0,1-7.24-7.23Z" transform="translate(0.35 0.35)"/></g><g id="CIRCLE-14" data-name="CIRCLE"><path class="cls-1" d="M748.77,288a7.24,7.24,0,1,1,7.24,7.23,7.24,7.24,0,0,1-7.24-7.23Z" transform="translate(0.35 0.35)"/></g><g id="CIRCLE-15" data-name="CIRCLE"><path class="cls-1" d="M388.77,126a7.24,7.24,0,1,1,7.24,7.23,7.24,7.24,0,0,1-7.24-7.23Z" transform="translate(0.35 0.35)"/></g><g id="CIRCLE-16" data-name="CIRCLE"><path class="cls-1" d="M55.77,648A7.24,7.24,0,1,1,63,655.24,7.24,7.24,0,0,1,55.77,648Z" transform="translate(0.35 0.35)"/></g><g id="CIRCLE-17" data-name="CIRCLE"><path class="cls-1" d="M333,648a7.24,7.24,0,1,1,7.24,7.23A7.24,7.24,0,0,1,333,648Z" transform="translate(0.35 0.35)"/></g><g id="CIRCLE-18" data-name="CIRCLE"><path class="cls-1" d="M813.57,648a7.24,7.24,0,1,1,7.24,7.23,7.24,7.24,0,0,1-7.24-7.23Z" transform="translate(0.35 0.35)"/></g><g id="CIRCLE-19" data-name="CIRCLE"><path class="cls-1" d="M1090.77,648a7.24,7.24,0,1,1,7.24,7.23,7.24,7.24,0,0,1-7.24-7.23Z" transform="translate(0.35 0.35)"/></g><g id="CIRCLE-20" data-name="CIRCLE"><path class="cls-1" d="M867.57,360a7.24,7.24,0,1,1,7.24,7.23,7.24,7.24,0,0,1-7.24-7.23Z" transform="translate(0.35 0.35)"/></g><g id="CIRCLE-21" data-name="CIRCLE"><path class="cls-1" d="M235.77,360a7.24,7.24,0,1,1,7.24,7.23,7.24,7.24,0,0,1-7.24-7.23Z" transform="translate(0.35 0.35)"/></g><g id="CIRCLE-22" data-name="CIRCLE"><path class="cls-1" d="M279,360a7.24,7.24,0,1,1,7.24,7.23A7.24,7.24,0,0,1,279,360Z" transform="translate(0.35 0.35)"/></g><g id="CIRCLE-23" data-name="CIRCLE"><path class="cls-1" d="M910.77,360a7.24,7.24,0,1,1,7.24,7.23,7.24,7.24,0,0,1-7.24-7.23Z" transform="translate(0.35 0.35)"/></g></svg>