solid ASCII
  facet normal 9.396432e-01 1.025173e-02 3.420024e-01
    outer loop
      vertex   4.696110e+00 -4.874559e+00 -3.498220e+00
      vertex   4.321204e+00 7.825441e+00 -2.848863e+00
      vertex   4.191000e+00 -4.874559e+00 -2.110441e+00
    endloop
  endfacet
  facet normal 9.999474e-01 -1.025172e-02 0.000000e+00
    outer loop
      vertex   4.191000e+00 -4.874559e+00 -2.110441e+00
      vertex   4.321204e+00 7.825441e+00 -2.848863e+00
      vertex   4.321204e+00 7.825441e+00 -1.372020e+00
    endloop
  endfacet
  facet normal 9.396432e-01 1.025172e-02 -3.420023e-01
    outer loop
      vertex   4.191000e+00 -4.874559e+00 -2.110441e+00
      vertex   4.321204e+00 7.825441e+00 -1.372020e+00
      vertex   4.696110e+00 -4.874559e+00 -7.226627e-01
    endloop
  endfacet
  facet normal 7.660041e-01 -1.025171e-02 -6.427540e-01
    outer loop
      vertex   4.696110e+00 -4.874559e+00 -7.226627e-01
      vertex   4.321204e+00 7.825441e+00 -1.372020e+00
      vertex   5.270500e+00 7.825441e+00 -2.406923e-01
    endloop
  endfacet
  facet normal 4.999737e-01 1.025172e-02 -8.659799e-01
    outer loop
      vertex   4.696110e+00 -4.874559e+00 -7.226627e-01
      vertex   5.270500e+00 7.825441e+00 -2.406923e-01
      vertex   5.975094e+00 -4.874559e+00 1.575876e-02
    endloop
  endfacet
  facet normal 1.736391e-01 -1.025171e-02 -9.847560e-01
    outer loop
      vertex   5.975094e+00 -4.874559e+00 1.575876e-02
      vertex   5.270500e+00 7.825441e+00 -2.406923e-01
      vertex   6.724907e+00 7.825441e+00 1.575876e-02
    endloop
  endfacet
  facet normal -1.736391e-01 1.025171e-02 -9.847560e-01
    outer loop
      vertex   5.975094e+00 -4.874559e+00 1.575876e-02
      vertex   6.724907e+00 7.825441e+00 1.575876e-02
      vertex   7.429500e+00 -4.874559e+00 -2.406923e-01
    endloop
  endfacet
  facet normal -4.999738e-01 -1.025172e-02 -8.659799e-01
    outer loop
      vertex   7.429500e+00 -4.874559e+00 -2.406923e-01
      vertex   6.724907e+00 7.825441e+00 1.575876e-02
      vertex   8.003890e+00 7.825441e+00 -7.226627e-01
    endloop
  endfacet
  facet normal -7.660042e-01 1.025170e-02 -6.427538e-01
    outer loop
      vertex   7.429500e+00 -4.874559e+00 -2.406923e-01
      vertex   8.003890e+00 7.825441e+00 -7.226627e-01
      vertex   8.378797e+00 -4.874559e+00 -1.372020e+00
    endloop
  endfacet
  facet normal -9.396432e-01 -1.025174e-02 -3.420022e-01
    outer loop
      vertex   8.378797e+00 -4.874559e+00 -1.372020e+00
      vertex   8.003890e+00 7.825441e+00 -7.226627e-01
      vertex   8.509000e+00 7.825441e+00 -2.110441e+00
    endloop
  endfacet
  facet normal -9.999474e-01 1.025169e-02 0.000000e+00
    outer loop
      vertex   8.378797e+00 -4.874559e+00 -1.372020e+00
      vertex   8.509000e+00 7.825441e+00 -2.110441e+00
      vertex   8.378797e+00 -4.874559e+00 -2.848863e+00
    endloop
  endfacet
  facet normal -9.396432e-01 -1.025174e-02 3.420022e-01
    outer loop
      vertex   8.378797e+00 -4.874559e+00 -2.848863e+00
      vertex   8.509000e+00 7.825441e+00 -2.110441e+00
      vertex   8.003890e+00 7.825441e+00 -3.498220e+00
    endloop
  endfacet
  facet normal -7.660042e-01 1.025169e-02 6.427538e-01
    outer loop
      vertex   8.378797e+00 -4.874559e+00 -2.848863e+00
      vertex   8.003890e+00 7.825441e+00 -3.498220e+00
      vertex   7.429500e+00 -4.874559e+00 -3.980190e+00
    endloop
  endfacet
  facet normal -4.999739e-01 -1.025173e-02 8.659798e-01
    outer loop
      vertex   7.429500e+00 -4.874559e+00 -3.980190e+00
      vertex   8.003890e+00 7.825441e+00 -3.498220e+00
      vertex   6.724907e+00 7.825441e+00 -4.236641e+00
    endloop
  endfacet
  facet normal -1.736390e-01 1.025171e-02 9.847560e-01
    outer loop
      vertex   7.429500e+00 -4.874559e+00 -3.980190e+00
      vertex   6.724907e+00 7.825441e+00 -4.236641e+00
      vertex   5.975094e+00 -4.874559e+00 -4.236641e+00
    endloop
  endfacet
  facet normal 1.736390e-01 -1.025171e-02 9.847560e-01
    outer loop
      vertex   5.975094e+00 -4.874559e+00 -4.236641e+00
      vertex   6.724907e+00 7.825441e+00 -4.236641e+00
      vertex   5.270500e+00 7.825441e+00 -3.980190e+00
    endloop
  endfacet
  facet normal 4.999738e-01 1.025172e-02 8.659799e-01
    outer loop
      vertex   5.975094e+00 -4.874559e+00 -4.236641e+00
      vertex   5.270500e+00 7.825441e+00 -3.980190e+00
      vertex   4.696110e+00 -4.874559e+00 -3.498220e+00
    endloop
  endfacet
  facet normal 7.660041e-01 -1.025170e-02 6.427539e-01
    outer loop
      vertex   4.696110e+00 -4.874559e+00 -3.498220e+00
      vertex   5.270500e+00 7.825441e+00 -3.980190e+00
      vertex   4.321204e+00 7.825441e+00 -2.848863e+00
    endloop
  endfacet
  facet normal 9.396432e-01 1.025169e-02 3.420022e-01
    outer loop
      vertex   1.993611e+01 -4.874559e+00 -3.498220e+00
      vertex   1.956120e+01 7.825441e+00 -2.848863e+00
      vertex   1.943100e+01 -4.874559e+00 -2.110441e+00
    endloop
  endfacet
  facet normal 9.999474e-01 -1.025174e-02 0.000000e+00
    outer loop
      vertex   1.943100e+01 -4.874559e+00 -2.110441e+00
      vertex   1.956120e+01 7.825441e+00 -2.848863e+00
      vertex   1.956120e+01 7.825441e+00 -1.372020e+00
    endloop
  endfacet
  facet normal 9.396432e-01 1.025169e-02 -3.420022e-01
    outer loop
      vertex   1.943100e+01 -4.874559e+00 -2.110441e+00
      vertex   1.956120e+01 7.825441e+00 -1.372020e+00
      vertex   1.993611e+01 -4.874559e+00 -7.226627e-01
    endloop
  endfacet
  facet normal 7.660044e-01 -1.025172e-02 -6.427536e-01
    outer loop
      vertex   1.993611e+01 -4.874559e+00 -7.226627e-01
      vertex   1.956120e+01 7.825441e+00 -1.372020e+00
      vertex   2.051050e+01 7.825441e+00 -2.406923e-01
    endloop
  endfacet
  facet normal 4.999738e-01 1.025172e-02 -8.659799e-01
    outer loop
      vertex   1.993611e+01 -4.874559e+00 -7.226627e-01
      vertex   2.051050e+01 7.825441e+00 -2.406923e-01
      vertex   2.121509e+01 -4.874559e+00 1.575876e-02
    endloop
  endfacet
  facet normal 1.736391e-01 -1.025171e-02 -9.847560e-01
    outer loop
      vertex   2.121509e+01 -4.874559e+00 1.575876e-02
      vertex   2.051050e+01 7.825441e+00 -2.406923e-01
      vertex   2.196491e+01 7.825441e+00 1.575876e-02
    endloop
  endfacet
  facet normal -1.736391e-01 1.025171e-02 -9.847560e-01
    outer loop
      vertex   2.121509e+01 -4.874559e+00 1.575876e-02
      vertex   2.196491e+01 7.825441e+00 1.575876e-02
      vertex   2.266950e+01 -4.874559e+00 -2.406923e-01
    endloop
  endfacet
  facet normal -4.999734e-01 -1.025170e-02 -8.659801e-01
    outer loop
      vertex   2.266950e+01 -4.874559e+00 -2.406923e-01
      vertex   2.196491e+01 7.825441e+00 1.575876e-02
      vertex   2.324389e+01 7.825441e+00 -7.226627e-01
    endloop
  endfacet
  facet normal -7.660040e-01 1.025175e-02 -6.427541e-01
    outer loop
      vertex   2.266950e+01 -4.874559e+00 -2.406923e-01
      vertex   2.324389e+01 7.825441e+00 -7.226627e-01
      vertex   2.361880e+01 -4.874559e+00 -1.372020e+00
    endloop
  endfacet
  facet normal -9.396430e-01 -1.025165e-02 -3.420029e-01
    outer loop
      vertex   2.361880e+01 -4.874559e+00 -1.372020e+00
      vertex   2.324389e+01 7.825441e+00 -7.226627e-01
      vertex   2.374900e+01 7.825441e+00 -2.110441e+00
    endloop
  endfacet
  facet normal -9.999474e-01 1.025184e-02 0.000000e+00
    outer loop
      vertex   2.361880e+01 -4.874559e+00 -1.372020e+00
      vertex   2.374900e+01 7.825441e+00 -2.110441e+00
      vertex   2.361880e+01 -4.874559e+00 -2.848863e+00
    endloop
  endfacet
  facet normal -9.396430e-01 -1.025165e-02 3.420029e-01
    outer loop
      vertex   2.361880e+01 -4.874559e+00 -2.848863e+00
      vertex   2.374900e+01 7.825441e+00 -2.110441e+00
      vertex   2.324389e+01 7.825441e+00 -3.498220e+00
    endloop
  endfacet
  facet normal -7.660040e-01 1.025175e-02 6.427540e-01
    outer loop
      vertex   2.361880e+01 -4.874559e+00 -2.848863e+00
      vertex   2.324389e+01 7.825441e+00 -3.498220e+00
      vertex   2.266950e+01 -4.874559e+00 -3.980190e+00
    endloop
  endfacet
  facet normal -4.999735e-01 -1.025171e-02 8.659800e-01
    outer loop
      vertex   2.266950e+01 -4.874559e+00 -3.980190e+00
      vertex   2.324389e+01 7.825441e+00 -3.498220e+00
      vertex   2.196491e+01 7.825441e+00 -4.236641e+00
    endloop
  endfacet
  facet normal -1.736391e-01 1.025171e-02 9.847560e-01
    outer loop
      vertex   2.266950e+01 -4.874559e+00 -3.980190e+00
      vertex   2.196491e+01 7.825441e+00 -4.236641e+00
      vertex   2.121509e+01 -4.874559e+00 -4.236641e+00
    endloop
  endfacet
  facet normal 1.736391e-01 -1.025171e-02 9.847560e-01
    outer loop
      vertex   2.121509e+01 -4.874559e+00 -4.236641e+00
      vertex   2.196491e+01 7.825441e+00 -4.236641e+00
      vertex   2.051050e+01 7.825441e+00 -3.980190e+00
    endloop
  endfacet
  facet normal 4.999739e-01 1.025173e-02 8.659798e-01
    outer loop
      vertex   2.121509e+01 -4.874559e+00 -4.236641e+00
      vertex   2.051050e+01 7.825441e+00 -3.980190e+00
      vertex   1.993611e+01 -4.874559e+00 -3.498220e+00
    endloop
  endfacet
  facet normal 7.660044e-01 -1.025171e-02 6.427536e-01
    outer loop
      vertex   1.993611e+01 -4.874559e+00 -3.498220e+00
      vertex   2.051050e+01 7.825441e+00 -3.980190e+00
      vertex   1.956120e+01 7.825441e+00 -2.848863e+00
    endloop
  endfacet
  facet normal 4.660074e-03 -3.420164e-01 -9.396824e-01
    outer loop
      vertex   0.000000e+00 2.863220e+00 5.893449e+00
      vertex   2.794000e+01 2.213863e+00 6.268355e+00
      vertex   0.000000e+00 1.475441e+00 6.398559e+00
    endloop
  endfacet
  facet normal -4.660056e-03 0.000000e+00 -9.999891e-01
    outer loop
      vertex   0.000000e+00 1.475441e+00 6.398559e+00
      vertex   2.794000e+01 2.213863e+00 6.268355e+00
      vertex   2.794000e+01 7.370196e-01 6.268355e+00
    endloop
  endfacet
  facet normal 4.660074e-03 3.420164e-01 -9.396824e-01
    outer loop
      vertex   0.000000e+00 1.475441e+00 6.398559e+00
      vertex   2.794000e+01 7.370196e-01 6.268355e+00
      vertex   0.000000e+00 8.766269e-02 5.893449e+00
    endloop
  endfacet
  facet normal -4.660058e-03 6.427806e-01 -7.660361e-01
    outer loop
      vertex   0.000000e+00 8.766269e-02 5.893449e+00
      vertex   2.794000e+01 7.370196e-01 6.268355e+00
      vertex   2.794000e+01 -3.943077e-01 5.319059e+00
    endloop
  endfacet
  facet normal 4.660068e-03 8.660160e-01 -4.999946e-01
    outer loop
      vertex   0.000000e+00 8.766269e-02 5.893449e+00
      vertex   2.794000e+01 -3.943077e-01 5.319059e+00
      vertex   0.000000e+00 -6.507588e-01 4.614465e+00
    endloop
  endfacet
  facet normal -4.660065e-03 9.847971e-01 -1.736463e-01
    outer loop
      vertex   0.000000e+00 -6.507588e-01 4.614465e+00
      vertex   2.794000e+01 -3.943077e-01 5.319059e+00
      vertex   2.794000e+01 -6.507588e-01 3.864653e+00
    endloop
  endfacet
  facet normal 4.660065e-03 9.847971e-01 1.736463e-01
    outer loop
      vertex   0.000000e+00 -6.507588e-01 4.614465e+00
      vertex   2.794000e+01 -6.507588e-01 3.864653e+00
      vertex   0.000000e+00 -3.943077e-01 3.160059e+00
    endloop
  endfacet
  facet normal -4.660065e-03 8.660160e-01 4.999945e-01
    outer loop
      vertex   0.000000e+00 -3.943077e-01 3.160059e+00
      vertex   2.794000e+01 -6.507588e-01 3.864653e+00
      vertex   2.794000e+01 8.766269e-02 2.585669e+00
    endloop
  endfacet
  facet normal 4.660066e-03 6.427806e-01 7.660361e-01
    outer loop
      vertex   0.000000e+00 -3.943077e-01 3.160059e+00
      vertex   2.794000e+01 8.766269e-02 2.585669e+00
      vertex   0.000000e+00 7.370196e-01 2.210763e+00
    endloop
  endfacet
  facet normal -4.660064e-03 3.420164e-01 9.396824e-01
    outer loop
      vertex   0.000000e+00 7.370196e-01 2.210763e+00
      vertex   2.794000e+01 8.766269e-02 2.585669e+00
      vertex   2.794000e+01 1.475441e+00 2.080559e+00
    endloop
  endfacet
  facet normal 4.660066e-03 -0.000000e+00 9.999891e-01
    outer loop
      vertex   0.000000e+00 7.370196e-01 2.210763e+00
      vertex   2.794000e+01 1.475441e+00 2.080559e+00
      vertex   0.000000e+00 2.213863e+00 2.210763e+00
    endloop
  endfacet
  facet normal -4.660064e-03 -3.420164e-01 9.396824e-01
    outer loop
      vertex   0.000000e+00 2.213863e+00 2.210763e+00
      vertex   2.794000e+01 1.475441e+00 2.080559e+00
      vertex   2.794000e+01 2.863220e+00 2.585669e+00
    endloop
  endfacet
  facet normal 4.660068e-03 -6.427806e-01 7.660361e-01
    outer loop
      vertex   0.000000e+00 2.213863e+00 2.210763e+00
      vertex   2.794000e+01 2.863220e+00 2.585669e+00
      vertex   0.000000e+00 3.345190e+00 3.160059e+00
    endloop
  endfacet
  facet normal -4.660064e-03 -8.660161e-01 4.999945e-01
    outer loop
      vertex   0.000000e+00 3.345190e+00 3.160059e+00
      vertex   2.794000e+01 2.863220e+00 2.585669e+00
      vertex   2.794000e+01 3.601641e+00 3.864653e+00
    endloop
  endfacet
  facet normal 4.660064e-03 -9.847971e-01 1.736463e-01
    outer loop
      vertex   0.000000e+00 3.345190e+00 3.160059e+00
      vertex   2.794000e+01 3.601641e+00 3.864653e+00
      vertex   0.000000e+00 3.601641e+00 4.614465e+00
    endloop
  endfacet
  facet normal -4.660064e-03 -9.847971e-01 -1.736463e-01
    outer loop
      vertex   0.000000e+00 3.601641e+00 4.614465e+00
      vertex   2.794000e+01 3.601641e+00 3.864653e+00
      vertex   2.794000e+01 3.345190e+00 5.319059e+00
    endloop
  endfacet
  facet normal 4.660067e-03 -8.660160e-01 -4.999946e-01
    outer loop
      vertex   0.000000e+00 3.601641e+00 4.614465e+00
      vertex   2.794000e+01 3.345190e+00 5.319059e+00
      vertex   0.000000e+00 2.863220e+00 5.893449e+00
    endloop
  endfacet
  facet normal -4.660060e-03 -6.427806e-01 -7.660361e-01
    outer loop
      vertex   0.000000e+00 2.863220e+00 5.893449e+00
      vertex   2.794000e+01 3.345190e+00 5.319059e+00
      vertex   2.794000e+01 2.213863e+00 6.268355e+00
    endloop
  endfacet
  facet normal 0.000000e+00 1.000000e+00 0.000000e+00
    outer loop
      vertex   8.003890e+00 7.825441e+00 -7.226627e-01
      vertex   1.956120e+01 7.825441e+00 -1.372020e+00
      vertex   8.509000e+00 7.825441e+00 -2.110441e+00
    endloop
  endfacet
  facet normal -0.000000e+00 1.000000e+00 0.000000e+00
    outer loop
      vertex   8.509000e+00 7.825441e+00 -2.110441e+00
      vertex   1.956120e+01 7.825441e+00 -1.372020e+00
      vertex   1.956120e+01 7.825441e+00 -2.848863e+00
    endloop
  endfacet
  facet normal 0.000000e+00 1.000000e+00 0.000000e+00
    outer loop
      vertex   8.509000e+00 7.825441e+00 -2.110441e+00
      vertex   1.956120e+01 7.825441e+00 -2.848863e+00
      vertex   8.003890e+00 7.825441e+00 -3.498220e+00
    endloop
  endfacet
  facet normal -0.000000e+00 1.000000e+00 0.000000e+00
    outer loop
      vertex   8.003890e+00 7.825441e+00 -3.498220e+00
      vertex   1.956120e+01 7.825441e+00 -2.848863e+00
      vertex   2.051050e+01 7.825441e+00 -3.980190e+00
    endloop
  endfacet
  facet normal 0.000000e+00 1.000000e+00 0.000000e+00
    outer loop
      vertex   8.003890e+00 7.825441e+00 -3.498220e+00
      vertex   2.051050e+01 7.825441e+00 -3.980190e+00
      vertex   6.724907e+00 7.825441e+00 -4.236641e+00
    endloop
  endfacet
  facet normal -0.000000e+00 1.000000e+00 0.000000e+00
    outer loop
      vertex   6.724907e+00 7.825441e+00 -4.236641e+00
      vertex   2.051050e+01 7.825441e+00 -3.980190e+00
      vertex   2.794000e+01 7.825441e+00 -8.460441e+00
    endloop
  endfacet
  facet normal 0.000000e+00 1.000000e+00 0.000000e+00
    outer loop
      vertex   6.724907e+00 7.825441e+00 -4.236641e+00
      vertex   2.794000e+01 7.825441e+00 -8.460441e+00
      vertex   0.000000e+00 7.825441e+00 -8.460441e+00
    endloop
  endfacet
  facet normal 0.000000e+00 1.000000e+00 -0.000000e+00
    outer loop
      vertex   1.956120e+01 7.825441e+00 -1.372020e+00
      vertex   8.003890e+00 7.825441e+00 -7.226627e-01
      vertex   2.051050e+01 7.825441e+00 -2.406923e-01
    endloop
  endfacet
  facet normal 0.000000e+00 1.000000e+00 0.000000e+00
    outer loop
      vertex   2.051050e+01 7.825441e+00 -2.406923e-01
      vertex   8.003890e+00 7.825441e+00 -7.226627e-01
      vertex   6.724907e+00 7.825441e+00 1.575876e-02
    endloop
  endfacet
  facet normal 0.000000e+00 1.000000e+00 -0.000000e+00
    outer loop
      vertex   2.051050e+01 7.825441e+00 -2.406923e-01
      vertex   6.724907e+00 7.825441e+00 1.575876e-02
      vertex   2.794000e+01 7.825441e+00 1.058956e+01
    endloop
  endfacet
  facet normal 0.000000e+00 1.000000e+00 0.000000e+00
    outer loop
      vertex   2.794000e+01 7.825441e+00 1.058956e+01
      vertex   6.724907e+00 7.825441e+00 1.575876e-02
      vertex   0.000000e+00 7.825441e+00 1.058956e+01
    endloop
  endfacet
  facet normal 0.000000e+00 1.000000e+00 0.000000e+00
    outer loop
      vertex   0.000000e+00 7.825441e+00 1.058956e+01
      vertex   6.724907e+00 7.825441e+00 1.575876e-02
      vertex   5.270500e+00 7.825441e+00 -2.406923e-01
    endloop
  endfacet
  facet normal 0.000000e+00 1.000000e+00 0.000000e+00
    outer loop
      vertex   0.000000e+00 7.825441e+00 1.058956e+01
      vertex   5.270500e+00 7.825441e+00 -2.406923e-01
      vertex   4.321204e+00 7.825441e+00 -1.372020e+00
    endloop
  endfacet
  facet normal 0.000000e+00 1.000000e+00 0.000000e+00
    outer loop
      vertex   0.000000e+00 7.825441e+00 1.058956e+01
      vertex   4.321204e+00 7.825441e+00 -1.372020e+00
      vertex   0.000000e+00 7.825441e+00 -8.460441e+00
    endloop
  endfacet
  facet normal 0.000000e+00 1.000000e+00 0.000000e+00
    outer loop
      vertex   0.000000e+00 7.825441e+00 -8.460441e+00
      vertex   4.321204e+00 7.825441e+00 -1.372020e+00
      vertex   4.321204e+00 7.825441e+00 -2.848863e+00
    endloop
  endfacet
  facet normal 0.000000e+00 1.000000e+00 0.000000e+00
    outer loop
      vertex   0.000000e+00 7.825441e+00 -8.460441e+00
      vertex   4.321204e+00 7.825441e+00 -2.848863e+00
      vertex   5.270500e+00 7.825441e+00 -3.980190e+00
    endloop
  endfacet
  facet normal 0.000000e+00 1.000000e+00 0.000000e+00
    outer loop
      vertex   5.270500e+00 7.825441e+00 -3.980190e+00
      vertex   6.724907e+00 7.825441e+00 -4.236641e+00
      vertex   0.000000e+00 7.825441e+00 -8.460441e+00
    endloop
  endfacet
  facet normal -0.000000e+00 1.000000e+00 0.000000e+00
    outer loop
      vertex   2.324389e+01 7.825441e+00 -7.226627e-01
      vertex   2.794000e+01 7.825441e+00 1.058956e+01
      vertex   2.374900e+01 7.825441e+00 -2.110441e+00
    endloop
  endfacet
  facet normal -0.000000e+00 1.000000e+00 0.000000e+00
    outer loop
      vertex   2.374900e+01 7.825441e+00 -2.110441e+00
      vertex   2.794000e+01 7.825441e+00 1.058956e+01
      vertex   2.794000e+01 7.825441e+00 -8.460441e+00
    endloop
  endfacet
  facet normal 0.000000e+00 1.000000e+00 0.000000e+00
    outer loop
      vertex   2.374900e+01 7.825441e+00 -2.110441e+00
      vertex   2.794000e+01 7.825441e+00 -8.460441e+00
      vertex   2.324389e+01 7.825441e+00 -3.498220e+00
    endloop
  endfacet
  facet normal 0.000000e+00 1.000000e+00 0.000000e+00
    outer loop
      vertex   2.324389e+01 7.825441e+00 -3.498220e+00
      vertex   2.794000e+01 7.825441e+00 -8.460441e+00
      vertex   2.196491e+01 7.825441e+00 -4.236641e+00
    endloop
  endfacet
  facet normal 0.000000e+00 1.000000e+00 0.000000e+00
    outer loop
      vertex   2.196491e+01 7.825441e+00 -4.236641e+00
      vertex   2.794000e+01 7.825441e+00 -8.460441e+00
      vertex   2.051050e+01 7.825441e+00 -3.980190e+00
    endloop
  endfacet
  facet normal 0.000000e+00 1.000000e+00 -0.000000e+00
    outer loop
      vertex   2.324389e+01 7.825441e+00 -7.226627e-01
      vertex   2.196491e+01 7.825441e+00 1.575876e-02
      vertex   2.794000e+01 7.825441e+00 1.058956e+01
    endloop
  endfacet
  facet normal 0.000000e+00 1.000000e+00 0.000000e+00
    outer loop
      vertex   2.794000e+01 7.825441e+00 1.058956e+01
      vertex   2.196491e+01 7.825441e+00 1.575876e-02
      vertex   2.051050e+01 7.825441e+00 -2.406923e-01
    endloop
  endfacet
  facet normal 0.000000e+00 0.000000e+00 -1.000000e+00
    outer loop
      vertex   0.000000e+00 -4.874559e+00 -8.460441e+00
      vertex   0.000000e+00 7.825441e+00 -8.460441e+00
      vertex   2.794000e+01 -4.874559e+00 -8.460441e+00
    endloop
  endfacet
  facet normal 0.000000e+00 0.000000e+00 -1.000000e+00
    outer loop
      vertex   2.794000e+01 -4.874559e+00 -8.460441e+00
      vertex   0.000000e+00 7.825441e+00 -8.460441e+00
      vertex   2.794000e+01 7.825441e+00 -8.460441e+00
    endloop
  endfacet
  facet normal -0.000000e+00 -1.000000e+00 0.000000e+00
    outer loop
      vertex   4.696110e+00 -4.874559e+00 -7.226627e-01
      vertex   0.000000e+00 -4.874559e+00 1.058956e+01
      vertex   4.191000e+00 -4.874559e+00 -2.110441e+00
    endloop
  endfacet
  facet normal -0.000000e+00 -1.000000e+00 0.000000e+00
    outer loop
      vertex   4.191000e+00 -4.874559e+00 -2.110441e+00
      vertex   0.000000e+00 -4.874559e+00 1.058956e+01
      vertex   0.000000e+00 -4.874559e+00 -8.460441e+00
    endloop
  endfacet
  facet normal 0.000000e+00 -1.000000e+00 -0.000000e+00
    outer loop
      vertex   4.191000e+00 -4.874559e+00 -2.110441e+00
      vertex   0.000000e+00 -4.874559e+00 -8.460441e+00
      vertex   4.696110e+00 -4.874559e+00 -3.498220e+00
    endloop
  endfacet
  facet normal 0.000000e+00 -1.000000e+00 -0.000000e+00
    outer loop
      vertex   4.696110e+00 -4.874559e+00 -3.498220e+00
      vertex   0.000000e+00 -4.874559e+00 -8.460441e+00
      vertex   5.975094e+00 -4.874559e+00 -4.236641e+00
    endloop
  endfacet
  facet normal 0.000000e+00 -1.000000e+00 -0.000000e+00
    outer loop
      vertex   5.975094e+00 -4.874559e+00 -4.236641e+00
      vertex   0.000000e+00 -4.874559e+00 -8.460441e+00
      vertex   7.429500e+00 -4.874559e+00 -3.980190e+00
    endloop
  endfacet
  facet normal 0.000000e+00 -1.000000e+00 -0.000000e+00
    outer loop
      vertex   7.429500e+00 -4.874559e+00 -3.980190e+00
      vertex   0.000000e+00 -4.874559e+00 -8.460441e+00
      vertex   2.121509e+01 -4.874559e+00 -4.236641e+00
    endloop
  endfacet
  facet normal 0.000000e+00 -1.000000e+00 0.000000e+00
    outer loop
      vertex   7.429500e+00 -4.874559e+00 -3.980190e+00
      vertex   2.121509e+01 -4.874559e+00 -4.236641e+00
      vertex   1.993611e+01 -4.874559e+00 -3.498220e+00
    endloop
  endfacet
  facet normal 0.000000e+00 -1.000000e+00 0.000000e+00
    outer loop
      vertex   4.696110e+00 -4.874559e+00 -7.226627e-01
      vertex   5.975094e+00 -4.874559e+00 1.575876e-02
      vertex   0.000000e+00 -4.874559e+00 1.058956e+01
    endloop
  endfacet
  facet normal 0.000000e+00 -1.000000e+00 0.000000e+00
    outer loop
      vertex   0.000000e+00 -4.874559e+00 1.058956e+01
      vertex   5.975094e+00 -4.874559e+00 1.575876e-02
      vertex   7.429500e+00 -4.874559e+00 -2.406923e-01
    endloop
  endfacet
  facet normal 0.000000e+00 -1.000000e+00 0.000000e+00
    outer loop
      vertex   0.000000e+00 -4.874559e+00 1.058956e+01
      vertex   7.429500e+00 -4.874559e+00 -2.406923e-01
      vertex   2.121509e+01 -4.874559e+00 1.575876e-02
    endloop
  endfacet
  facet normal 0.000000e+00 -1.000000e+00 0.000000e+00
    outer loop
      vertex   2.121509e+01 -4.874559e+00 1.575876e-02
      vertex   7.429500e+00 -4.874559e+00 -2.406923e-01
      vertex   1.993611e+01 -4.874559e+00 -7.226627e-01
    endloop
  endfacet
  facet normal -0.000000e+00 -1.000000e+00 0.000000e+00
    outer loop
      vertex   1.993611e+01 -4.874559e+00 -7.226627e-01
      vertex   7.429500e+00 -4.874559e+00 -2.406923e-01
      vertex   8.378797e+00 -4.874559e+00 -1.372020e+00
    endloop
  endfacet
  facet normal 0.000000e+00 -1.000000e+00 0.000000e+00
    outer loop
      vertex   1.993611e+01 -4.874559e+00 -7.226627e-01
      vertex   8.378797e+00 -4.874559e+00 -1.372020e+00
      vertex   1.943100e+01 -4.874559e+00 -2.110441e+00
    endloop
  endfacet
  facet normal -0.000000e+00 -1.000000e+00 0.000000e+00
    outer loop
      vertex   1.943100e+01 -4.874559e+00 -2.110441e+00
      vertex   8.378797e+00 -4.874559e+00 -1.372020e+00
      vertex   8.378797e+00 -4.874559e+00 -2.848863e+00
    endloop
  endfacet
  facet normal 0.000000e+00 -1.000000e+00 -0.000000e+00
    outer loop
      vertex   1.943100e+01 -4.874559e+00 -2.110441e+00
      vertex   8.378797e+00 -4.874559e+00 -2.848863e+00
      vertex   1.993611e+01 -4.874559e+00 -3.498220e+00
    endloop
  endfacet
  facet normal -0.000000e+00 -1.000000e+00 0.000000e+00
    outer loop
      vertex   1.993611e+01 -4.874559e+00 -3.498220e+00
      vertex   8.378797e+00 -4.874559e+00 -2.848863e+00
      vertex   7.429500e+00 -4.874559e+00 -3.980190e+00
    endloop
  endfacet
  facet normal 0.000000e+00 -1.000000e+00 0.000000e+00
    outer loop
      vertex   0.000000e+00 -4.874559e+00 1.058956e+01
      vertex   2.121509e+01 -4.874559e+00 1.575876e-02
      vertex   2.794000e+01 -4.874559e+00 1.058956e+01
    endloop
  endfacet
  facet normal 0.000000e+00 -1.000000e+00 0.000000e+00
    outer loop
      vertex   2.794000e+01 -4.874559e+00 1.058956e+01
      vertex   2.121509e+01 -4.874559e+00 1.575876e-02
      vertex   2.266950e+01 -4.874559e+00 -2.406923e-01
    endloop
  endfacet
  facet normal 0.000000e+00 -1.000000e+00 0.000000e+00
    outer loop
      vertex   2.794000e+01 -4.874559e+00 1.058956e+01
      vertex   2.266950e+01 -4.874559e+00 -2.406923e-01
      vertex   2.361880e+01 -4.874559e+00 -1.372020e+00
    endloop
  endfacet
  facet normal 0.000000e+00 -1.000000e+00 -0.000000e+00
    outer loop
      vertex   2.794000e+01 -4.874559e+00 1.058956e+01
      vertex   2.361880e+01 -4.874559e+00 -1.372020e+00
      vertex   2.794000e+01 -4.874559e+00 -8.460441e+00
    endloop
  endfacet
  facet normal 0.000000e+00 -1.000000e+00 0.000000e+00
    outer loop
      vertex   2.794000e+01 -4.874559e+00 -8.460441e+00
      vertex   2.361880e+01 -4.874559e+00 -1.372020e+00
      vertex   2.361880e+01 -4.874559e+00 -2.848863e+00
    endloop
  endfacet
  facet normal 0.000000e+00 -1.000000e+00 0.000000e+00
    outer loop
      vertex   2.794000e+01 -4.874559e+00 -8.460441e+00
      vertex   2.361880e+01 -4.874559e+00 -2.848863e+00
      vertex   2.266950e+01 -4.874559e+00 -3.980190e+00
    endloop
  endfacet
  facet normal 0.000000e+00 -1.000000e+00 -0.000000e+00
    outer loop
      vertex   2.266950e+01 -4.874559e+00 -3.980190e+00
      vertex   2.121509e+01 -4.874559e+00 -4.236641e+00
      vertex   2.794000e+01 -4.874559e+00 -8.460441e+00
    endloop
  endfacet
  facet normal 0.000000e+00 -1.000000e+00 0.000000e+00
    outer loop
      vertex   2.794000e+01 -4.874559e+00 -8.460441e+00
      vertex   2.121509e+01 -4.874559e+00 -4.236641e+00
      vertex   0.000000e+00 -4.874559e+00 -8.460441e+00
    endloop
  endfacet
  facet normal -0.000000e+00 0.000000e+00 1.000000e+00
    outer loop
      vertex   0.000000e+00 7.825441e+00 1.058956e+01
      vertex   0.000000e+00 -4.874559e+00 1.058956e+01
      vertex   2.794000e+01 7.825441e+00 1.058956e+01
    endloop
  endfacet
  facet normal 0.000000e+00 0.000000e+00 1.000000e+00
    outer loop
      vertex   2.794000e+01 7.825441e+00 1.058956e+01
      vertex   0.000000e+00 -4.874559e+00 1.058956e+01
      vertex   2.794000e+01 -4.874559e+00 1.058956e+01
    endloop
  endfacet
  facet normal 1.000000e+00 0.000000e+00 0.000000e+00
    outer loop
      vertex   2.794000e+01 8.766269e-02 2.585669e+00
      vertex   2.794000e+01 -4.874559e+00 -8.460441e+00
      vertex   2.794000e+01 1.475441e+00 2.080559e+00
    endloop
  endfacet
  facet normal 1.000000e+00 0.000000e+00 0.000000e+00
    outer loop
      vertex   2.794000e+01 1.475441e+00 2.080559e+00
      vertex   2.794000e+01 -4.874559e+00 -8.460441e+00
      vertex   2.794000e+01 7.825441e+00 -8.460441e+00
    endloop
  endfacet
  facet normal 1.000000e+00 -0.000000e+00 0.000000e+00
    outer loop
      vertex   2.794000e+01 1.475441e+00 2.080559e+00
      vertex   2.794000e+01 7.825441e+00 -8.460441e+00
      vertex   2.794000e+01 2.863220e+00 2.585669e+00
    endloop
  endfacet
  facet normal 1.000000e+00 -0.000000e+00 0.000000e+00
    outer loop
      vertex   2.794000e+01 2.863220e+00 2.585669e+00
      vertex   2.794000e+01 7.825441e+00 -8.460441e+00
      vertex   2.794000e+01 3.601641e+00 3.864653e+00
    endloop
  endfacet
  facet normal 1.000000e+00 -0.000000e+00 0.000000e+00
    outer loop
      vertex   2.794000e+01 3.601641e+00 3.864653e+00
      vertex   2.794000e+01 7.825441e+00 -8.460441e+00
      vertex   2.794000e+01 7.825441e+00 1.058956e+01
    endloop
  endfacet
  facet normal 1.000000e+00 0.000000e+00 -0.000000e+00
    outer loop
      vertex   2.794000e+01 3.601641e+00 3.864653e+00
      vertex   2.794000e+01 7.825441e+00 1.058956e+01
      vertex   2.794000e+01 3.345190e+00 5.319059e+00
    endloop
  endfacet
  facet normal 1.000000e+00 0.000000e+00 -0.000000e+00
    outer loop
      vertex   2.794000e+01 3.345190e+00 5.319059e+00
      vertex   2.794000e+01 7.825441e+00 1.058956e+01
      vertex   2.794000e+01 2.213863e+00 6.268355e+00
    endloop
  endfacet
  facet normal 1.000000e+00 0.000000e+00 -0.000000e+00
    outer loop
      vertex   2.794000e+01 2.213863e+00 6.268355e+00
      vertex   2.794000e+01 7.825441e+00 1.058956e+01
      vertex   2.794000e+01 -4.874559e+00 1.058956e+01
    endloop
  endfacet
  facet normal 1.000000e+00 0.000000e+00 0.000000e+00
    outer loop
      vertex   2.794000e+01 2.213863e+00 6.268355e+00
      vertex   2.794000e+01 -4.874559e+00 1.058956e+01
      vertex   2.794000e+01 7.370196e-01 6.268355e+00
    endloop
  endfacet
  facet normal 1.000000e+00 0.000000e+00 0.000000e+00
    outer loop
      vertex   2.794000e+01 7.370196e-01 6.268355e+00
      vertex   2.794000e+01 -4.874559e+00 1.058956e+01
      vertex   2.794000e+01 -3.943077e-01 5.319059e+00
    endloop
  endfacet
  facet normal 1.000000e+00 0.000000e+00 0.000000e+00
    outer loop
      vertex   2.794000e+01 -3.943077e-01 5.319059e+00
      vertex   2.794000e+01 -4.874559e+00 1.058956e+01
      vertex   2.794000e+01 -6.507588e-01 3.864653e+00
    endloop
  endfacet
  facet normal 1.000000e+00 0.000000e+00 0.000000e+00
    outer loop
      vertex   2.794000e+01 -6.507588e-01 3.864653e+00
      vertex   2.794000e+01 -4.874559e+00 1.058956e+01
      vertex   2.794000e+01 -4.874559e+00 -8.460441e+00
    endloop
  endfacet
  facet normal 1.000000e+00 0.000000e+00 0.000000e+00
    outer loop
      vertex   2.794000e+01 -6.507588e-01 3.864653e+00
      vertex   2.794000e+01 -4.874559e+00 -8.460441e+00
      vertex   2.794000e+01 8.766269e-02 2.585669e+00
    endloop
  endfacet
  facet normal -1.000000e+00 0.000000e+00 0.000000e+00
    outer loop
      vertex   0.000000e+00 8.766269e-02 5.893449e+00
      vertex   0.000000e+00 -4.874559e+00 1.058956e+01
      vertex   0.000000e+00 1.475441e+00 6.398559e+00
    endloop
  endfacet
  facet normal -1.000000e+00 0.000000e+00 0.000000e+00
    outer loop
      vertex   0.000000e+00 1.475441e+00 6.398559e+00
      vertex   0.000000e+00 -4.874559e+00 1.058956e+01
      vertex   0.000000e+00 7.825441e+00 1.058956e+01
    endloop
  endfacet
  facet normal -1.000000e+00 0.000000e+00 0.000000e+00
    outer loop
      vertex   0.000000e+00 1.475441e+00 6.398559e+00
      vertex   0.000000e+00 7.825441e+00 1.058956e+01
      vertex   0.000000e+00 2.863220e+00 5.893449e+00
    endloop
  endfacet
  facet normal -1.000000e+00 0.000000e+00 0.000000e+00
    outer loop
      vertex   0.000000e+00 2.863220e+00 5.893449e+00
      vertex   0.000000e+00 7.825441e+00 1.058956e+01
      vertex   0.000000e+00 3.601641e+00 4.614465e+00
    endloop
  endfacet
  facet normal -1.000000e+00 0.000000e+00 -0.000000e+00
    outer loop
      vertex   0.000000e+00 3.601641e+00 4.614465e+00
      vertex   0.000000e+00 7.825441e+00 1.058956e+01
      vertex   0.000000e+00 3.345190e+00 3.160059e+00
    endloop
  endfacet
  facet normal -1.000000e+00 0.000000e+00 0.000000e+00
    outer loop
      vertex   0.000000e+00 3.345190e+00 3.160059e+00
      vertex   0.000000e+00 7.825441e+00 1.058956e+01
      vertex   0.000000e+00 7.825441e+00 -8.460441e+00
    endloop
  endfacet
  facet normal -1.000000e+00 0.000000e+00 -0.000000e+00
    outer loop
      vertex   0.000000e+00 3.345190e+00 3.160059e+00
      vertex   0.000000e+00 7.825441e+00 -8.460441e+00
      vertex   0.000000e+00 2.213863e+00 2.210763e+00
    endloop
  endfacet
  facet normal -1.000000e+00 0.000000e+00 -0.000000e+00
    outer loop
      vertex   0.000000e+00 2.213863e+00 2.210763e+00
      vertex   0.000000e+00 7.825441e+00 -8.460441e+00
      vertex   0.000000e+00 -4.874559e+00 -8.460441e+00
    endloop
  endfacet
  facet normal -1.000000e+00 -0.000000e+00 0.000000e+00
    outer loop
      vertex   0.000000e+00 2.213863e+00 2.210763e+00
      vertex   0.000000e+00 -4.874559e+00 -8.460441e+00
      vertex   0.000000e+00 7.370196e-01 2.210763e+00
    endloop
  endfacet
  facet normal -1.000000e+00 -0.000000e+00 0.000000e+00
    outer loop
      vertex   0.000000e+00 7.370196e-01 2.210763e+00
      vertex   0.000000e+00 -4.874559e+00 -8.460441e+00
      vertex   0.000000e+00 -3.943077e-01 3.160059e+00
    endloop
  endfacet
  facet normal -1.000000e+00 -0.000000e+00 0.000000e+00
    outer loop
      vertex   0.000000e+00 -3.943077e-01 3.160059e+00
      vertex   0.000000e+00 -4.874559e+00 -8.460441e+00
      vertex   0.000000e+00 -4.874559e+00 1.058956e+01
    endloop
  endfacet
  facet normal -1.000000e+00 0.000000e+00 0.000000e+00
    outer loop
      vertex   0.000000e+00 -3.943077e-01 3.160059e+00
      vertex   0.000000e+00 -4.874559e+00 1.058956e+01
      vertex   0.000000e+00 -6.507588e-01 4.614465e+00
    endloop
  endfacet
  facet normal -1.000000e+00 0.000000e+00 0.000000e+00
    outer loop
      vertex   0.000000e+00 -6.507588e-01 4.614465e+00
      vertex   0.000000e+00 -4.874559e+00 1.058956e+01
      vertex   0.000000e+00 8.766269e-02 5.893449e+00
    endloop
  endfacet
endsolid
